<svg id="Layer_3" xmlns="http://www.w3.org/2000/svg" width="512" height="512" viewBox="0 0 512 512"><path d="M32 0v512M64 0v512M96 0v512M128 0v512M160 0v512M192 0v512M224 0v512M256 0v512M288 0v512M320 0v512M352 0v512M384 0v512M416 0v512M448 0v512M480 0v512M0 32h512M0 64h512M0 96h512M0 128h512M0 160h512M0 192h512M0 224h512M0 256h512M0 288h512M0 320h512M0 352h512M0 384h512M0 416h512M0 448h512M0 480h512M0 0h512v512H0z" id="svgGrid" fill="none" stroke="#B35047"/><path d="M256 256c-59.7 0-109.8 40.8-124 96h68.6c11.1-19.1 31.8-32 55.4-32 23.6 0 44.3 12.9 55.4 32H380c-14.2-55.2-64.4-96-124-96zm-96-32c17.7 0 32-14.3 32-32s-14.3-32-32-32-32 14.3-32 32 14.3 32 32 32zM256 0C114.6 0 0 114.6 0 256s114.6 256 256 256 256-114.6 256-256S397.4 0 256 0zm135.8 391.8C355.5 428 307.3 448 256 448s-99.5-20-135.8-56.2C84 355.5 64 307.3 64 256s20-99.5 56.2-135.8C156.5 84 204.7 64 256 64s99.5 20 135.8 56.2C428 156.5 448 204.7 448 256s-20 99.5-56.2 135.8zM352 160c-17.7 0-32 14.3-32 32s14.3 32 32 32 32-14.3 32-32-14.3-32-32-32z"/></svg>