<svg id="svg548" xmlns="http://www.w3.org/2000/svg" height="480" width="640"><defs id="defs550"><clipPath id="clipPath8040"><path id="rect8042" fill-opacity=".67" d="M0 0h682.67v512H0z"/></clipPath></defs><g id="flag" clip-path="url(#clipPath8040)" transform="scale(.9375)"><path id="rect576" fill-rule="evenodd" fill="#fff" d="M0 0h1024v512H0z"/><path id="path570" d="M1024 445.24c-11.474 6.903-21.332 23.035-51.814 23.035-60.947 0-76.188-33.965-121.9-33.965-30.474 0-45.712 33.965-76.187 33.965-60.952 0-76.191-33.965-121.9-33.965-30.477 0-45.715 33.965-76.191 33.965-60.952 0-76.191-33.965-121.9-33.965-30.477 0-45.715 33.965-76.191 33.965-60.952 0-76.191-33.965-121.9-33.965-30.478 0-45.715 33.965-76.191 33.965-60.952 0-76.192-33.965-121.91-33.965-30.476 0-39.619 24.203-57.905 24.203v43.727c18.286 0 27.428-24.2 57.905-24.2 45.715 0 60.955 33.96 121.9 33.96 30.476 0 45.713-33.965 76.191-33.965 45.713 0 60.952 33.965 121.9 33.965 30.476 0 45.714-33.965 76.191-33.965 45.714 0 60.952 33.965 121.9 33.965 30.476 0 45.714-33.965 76.191-33.965 45.714 0 60.952 33.965 121.9 33.965 30.476 0 45.714-33.965 76.187-33.965 45.715 0 60.956 33.965 121.9 33.965 30.482 0 40.34-9.625 51.814-16.528v-50.235z" fill-rule="evenodd" fill="#000063"/><path id="path571" d="M1024 360.32c-11.474 6.903-21.332 23.035-51.814 23.035-60.947 0-76.188-33.965-121.9-33.965-30.474 0-45.712 33.965-76.187 33.965-60.952 0-76.191-33.965-121.9-33.965-30.477 0-45.715 33.965-76.191 33.965-60.952 0-76.191-33.965-121.9-33.965-30.477 0-45.715 33.965-76.191 33.965-60.952 0-76.191-33.965-121.9-33.965-30.478 0-45.715 33.965-76.191 33.965-60.952 0-76.192-33.965-121.91-33.965-30.476 0-39.619 24.203-57.905 24.203v43.727c18.286.01 27.428-24.2 57.905-24.2 45.714 0 60.953 33.965 121.91 33.965 30.476 0 45.713-33.965 76.191-33.965 45.713 0 60.952 33.965 121.9 33.965 30.476 0 45.714-33.965 76.191-33.965 45.714 0 60.952 33.965 121.9 33.965 30.476 0 45.714-33.965 76.191-33.965 45.714 0 60.952 33.965 121.9 33.965 30.476 0 45.714-33.965 76.187-33.965 45.715 0 60.956 33.965 121.9 33.965 30.482 0 40.34-9.625 51.814-16.528v-50.235z" fill-rule="evenodd" fill="#000063"/><path id="path572" d="M1024 275.41c-11.474 6.903-21.332 23.035-51.814 23.035-60.947 0-76.188-33.965-121.9-33.965-30.474 0-45.712 33.965-76.187 33.965-60.952 0-76.191-33.965-121.9-33.965-30.477 0-45.715 33.965-76.191 33.965-60.952 0-76.191-33.965-121.9-33.965-30.477 0-45.715 33.965-76.191 33.965-60.952 0-76.191-33.965-121.9-33.965-30.478 0-45.715 33.965-76.191 33.965-60.952 0-76.192-33.965-121.91-33.965-30.476 0-39.619 24.203-57.905 24.203v43.727c18.286 0 27.428-24.2 57.905-24.2 45.714 0 60.953 33.965 121.91 33.965 30.476 0 45.713-33.965 76.191-33.965 45.713 0 60.952 33.965 121.9 33.965 30.476 0 45.714-33.965 76.191-33.965 45.714 0 60.952 33.965 121.9 33.965 30.476 0 45.714-33.965 76.191-33.965 45.714 0 60.952 33.965 121.9 33.965 30.476 0 45.714-33.965 76.187-33.965 45.715 0 60.956 33.965 121.9 33.965 30.482 0 40.34-9.625 51.814-16.528v-50.235z" fill-rule="evenodd" fill="#000063"/><path id="path573" d="M1024 190.5c-11.474 6.903-21.332 23.035-51.814 23.035-60.947 0-76.188-33.965-121.9-33.965-30.474 0-45.712 33.965-76.187 33.965-60.952 0-76.191-33.965-121.9-33.965-30.477 0-45.715 33.965-76.191 33.965-60.952 0-76.191-33.965-121.9-33.965-30.477 0-45.715 33.965-76.191 33.965-60.952 0-76.191-33.965-121.9-33.965-30.478 0-45.715 33.965-76.191 33.965-60.952 0-76.192-33.965-121.91-33.965-30.476 0-39.619 24.203-57.905 24.203V247.5c18.286 0 27.428-24.2 57.905-24.2 45.714 0 60.953 33.965 121.91 33.965 30.476 0 45.713-33.965 76.191-33.965 45.713 0 60.952 33.965 121.9 33.965 30.476 0 45.714-33.965 76.191-33.965 45.714 0 60.952 33.965 121.9 33.965 30.476 0 45.714-33.965 76.191-33.965 45.714 0 60.952 33.965 121.9 33.965 30.476 0 45.714-33.965 76.187-33.965 45.715 0 60.956 33.965 121.9 33.965 30.482 0 40.34-9.625 51.814-16.528v-50.235z" fill-rule="evenodd" fill="#000063"/><path id="path574" d="M1024 105.59c-11.474 6.903-21.332 23.035-51.814 23.035-60.947 0-76.188-33.965-121.9-33.965-30.474 0-45.712 33.965-76.187 33.965-60.952 0-76.191-33.965-121.9-33.965-30.477 0-45.715 33.965-76.191 33.965-60.952 0-76.191-33.965-121.9-33.965-30.477 0-45.715 33.965-76.191 33.965-60.952 0-76.191-33.965-121.9-33.965-30.478 0-45.715 33.965-76.191 33.965-60.952 0-76.192-33.965-121.91-33.965-30.491-.002-39.634 24.2-57.92 24.2v43.727c18.286 0 27.428-24.203 57.905-24.203 45.714 0 60.953 33.965 121.91 33.965 30.476 0 45.713-33.965 76.191-33.965 45.713 0 60.952 33.965 121.9 33.965 30.476 0 45.714-33.965 76.191-33.965 45.714 0 60.952 33.965 121.9 33.965 30.476 0 45.714-33.965 76.191-33.965 45.714 0 60.952 33.965 121.9 33.965 30.476 0 45.714-33.965 76.187-33.965 45.715 0 60.956 33.965 121.9 33.965 30.482 0 40.34-9.625 51.814-16.528v-50.235z" fill-rule="evenodd" fill="#000063"/><path id="path575" d="M1024 20.675c-11.474 6.903-21.332 23.035-51.814 23.035-60.947 0-76.188-33.965-121.9-33.965-30.474 0-45.712 33.965-76.187 33.965-60.952 0-76.191-33.965-121.9-33.965-30.477 0-45.715 33.965-76.191 33.965-60.952 0-76.191-33.965-121.9-33.965-30.477 0-45.715 33.965-76.191 33.965-60.952 0-76.191-33.965-121.9-33.965-30.478 0-45.715 33.965-76.191 33.965-60.952 0-76.192-33.965-121.91-33.965-30.491 0-39.634 24.203-57.92 24.203v43.727c18.286 0 27.428-24.203 57.905-24.203 45.714 0 60.953 33.965 121.91 33.965 30.476 0 45.713-33.965 76.191-33.965 45.713 0 60.952 33.965 121.9 33.965 30.476 0 45.714-33.965 76.191-33.965 45.714 0 60.952 33.965 121.9 33.965 30.476 0 45.714-33.965 76.191-33.965 45.714 0 60.952 33.965 121.9 33.965 30.476 0 45.714-33.965 76.187-33.965 45.715 0 60.956 33.965 121.9 33.965 30.482 0 40.34-9.625 51.814-16.528V20.674z" fill-rule="evenodd" fill="#000063"/><path id="rect683" fill-rule="evenodd" stroke-width="1pt" fill="#000063" d="M0 .063h261.31v157.91H0z"/><g id="g584" stroke-width="1pt" transform="matrix(4.3552 0 0 5.2635 0 .063)"><path id="path146" d="M0 0v3.354L53.292 30H60v-3.354L6.708 0H0zm60 0v3.354L6.708 30H0v-3.354L53.292 0H60z" fill="#fff"/><path id="path136" d="M25 0v30h10V0H25zM0 10v10h60V10H0z" fill="#fff"/><path id="path141" d="M0 12v6h60v-6H0zM27 0v30h6V0h-6z" fill="#c00"/><path id="path150" d="M0 30l20-10h4.472l-20 10H0zM0 0l20 10h-4.472L0 2.236V0zm35.528 10l20-10H60L40 10h-4.472zM60 30L40 20h4.472L60 27.764V30z" fill="#c00"/></g><g id="g1127" transform="translate(-382 -15.937) scale(1.0321)"><path id="path861" d="M814.96-301.18l-17.72 708.66c0 37.298 80.097 37.298 88.583 0l-17.717-708.66h-53.149z" fill-rule="evenodd" transform="matrix(.2 0 0 .475 575.17 274.56)" stroke="#fff" stroke-width="6.935" fill="#a24300"/><g id="g862" transform="matrix(.7252 0 0 .6231 202.06 41.434)"><g id="g852" transform="matrix(-.31451 .10485 -.13829 -.30324 1046.5 373.32)"><path id="path853" d="M673.23 325.16l17.717 70.866 35.433-53.15-17.717 88.583 35.433-35.433-35.433 88.582 35.433-35.433-35.433 88.583 35.433-35.433-35.433 106.3 35.433-35.433-35.433 106.3 35.433-35.433-35.433 106.3-17.716 53.151-17.717 17.72-17.717-17.72-17.716-53.151-35.433-106.3 35.433 35.433-35.433-106.3 35.433 35.433-35.433-106.3 35.433 35.433-35.433-88.583 35.433 35.433-35.433-88.582 35.433 35.433-17.717-88.583 35.433 53.15 17.717-70.866z" fill-rule="evenodd" stroke="#fff" stroke-width="8.25" fill="#006d00"/><path id="path854" d="M673.23 325.16v496.07" stroke="#000" stroke-width="1pt" fill="none"/><path id="path855" d="M602.37 644.06l70.86 106.3 70.87-106.3" stroke="#000" stroke-width="1pt" fill="none"/><path id="path856" d="M602.37 573.19l70.866 106.3 70.866-106.3" stroke="#000" stroke-width="1pt" fill="none"/><path id="path857" d="M602.37 502.33l70.866 106.3 70.866-106.3" stroke="#000" stroke-width="1pt" fill="none"/><path id="path858" d="M602.37 449.18l70.866 88.583 70.866-88.583" stroke="#000" stroke-width="1pt" fill="none"/><path id="path859" d="M602.37 396.03l70.866 88.582 70.866-88.582" stroke="#000" stroke-width="1pt" fill="none"/><path id="path860" d="M620.08 342.88l53.15 106.3 53.15-106.3" stroke="#000" stroke-width="1pt" fill="none"/></g><g id="g738" transform="matrix(.23652 -.28186 .29496 .22762 354.57 204.65)"><path id="path739" d="M673.23 325.16l17.717 70.866 35.433-53.15-17.717 88.583 35.433-35.433-35.433 88.582 35.433-35.433-35.433 88.583 35.433-35.433-35.433 106.3 35.433-35.433-35.433 106.3 35.433-35.433-35.433 106.3-17.716 53.151-17.717 17.72-17.717-17.72-17.716-53.151-35.433-106.3 35.433 35.433-35.433-106.3 35.433 35.433-35.433-106.3 35.433 35.433-35.433-88.583 35.433 35.433-35.433-88.582 35.433 35.433-17.717-88.583 35.433 53.15 17.717-70.866z" fill-rule="evenodd" stroke="#fff" stroke-width="8.25" fill="#006d00"/><path id="path740" d="M673.23 325.16v496.07" stroke="#000" stroke-width="1pt" fill="none"/><path id="path741" d="M602.37 644.06l70.86 106.3 70.87-106.3" stroke="#000" stroke-width="1pt" fill="none"/><path id="path742" d="M602.37 573.19l70.866 106.3 70.866-106.3" stroke="#000" stroke-width="1pt" fill="none"/><path id="path743" d="M602.37 502.33l70.866 106.3 70.866-106.3" stroke="#000" stroke-width="1pt" fill="none"/><path id="path744" d="M602.37 449.18l70.866 88.583 70.866-88.583" stroke="#000" stroke-width="1pt" fill="none"/><path id="path745" d="M602.37 396.03l70.866 88.582 70.866-88.582" stroke="#000" stroke-width="1pt" fill="none"/><path id="path746" d="M620.08 342.88l53.15 106.3 53.15-106.3" stroke="#000" stroke-width="1pt" fill="none"/></g><g id="g747" transform="matrix(.15164 .33524 -.3329 .16731 907.54 -153.47)"><path id="path748" d="M673.23 325.16l17.717 70.866 35.433-53.15-17.717 88.583 35.433-35.433-35.433 88.582 35.433-35.433-35.433 88.583 35.433-35.433-35.433 106.3 35.433-35.433-35.433 106.3 35.433-35.433-35.433 106.3-17.716 53.151-17.717 17.72-17.717-17.72-17.716-53.151-35.433-106.3 35.433 35.433-35.433-106.3 35.433 35.433-35.433-106.3 35.433 35.433-35.433-88.583 35.433 35.433-35.433-88.582 35.433 35.433-17.717-88.583 35.433 53.15 17.717-70.866z" fill-rule="evenodd" stroke="#fff" stroke-width="8.25" fill="#006d00"/><path id="path749" d="M673.23 325.16v496.07" stroke="#000" stroke-width="1pt" fill="none"/><path id="path750" d="M602.37 644.06l70.86 106.3 70.87-106.3" stroke="#000" stroke-width="1pt" fill="none"/><path id="path751" d="M602.37 573.19l70.866 106.3 70.866-106.3" stroke="#000" stroke-width="1pt" fill="none"/><path id="path752" d="M602.37 502.33l70.866 106.3 70.866-106.3" stroke="#000" stroke-width="1pt" fill="none"/><path id="path753" d="M602.37 449.18l70.866 88.583 70.866-88.583" stroke="#000" stroke-width="1pt" fill="none"/><path id="path754" d="M602.37 396.03l70.866 88.582 70.866-88.582" stroke="#000" stroke-width="1pt" fill="none"/><path id="path755" d="M620.08 342.88l53.15 106.3 53.15-106.3" stroke="#000" stroke-width="1pt" fill="none"/></g><g id="g756" transform="matrix(-.20952 .30246 -.3147 -.19945 1141.4 167.58)"><path id="path757" d="M673.23 325.16l17.717 70.866 35.433-53.15-17.717 88.583 35.433-35.433-35.433 88.582 35.433-35.433-35.433 88.583 35.433-35.433-35.433 106.3 35.433-35.433-35.433 106.3 35.433-35.433-35.433 106.3-17.716 53.151-17.717 17.72-17.717-17.72-17.716-53.151-35.433-106.3 35.433 35.433-35.433-106.3 35.433 35.433-35.433-106.3 35.433 35.433-35.433-88.583 35.433 35.433-35.433-88.582 35.433 35.433-17.717-88.583 35.433 53.15 17.717-70.866z" fill-rule="evenodd" stroke="#fff" stroke-width="8.25" fill="#006d00"/><path id="path758" d="M673.23 325.16v496.07" stroke="#000" stroke-width="1pt" fill="none"/><path id="path759" d="M602.37 644.06l70.86 106.3 70.87-106.3" stroke="#000" stroke-width="1pt" fill="none"/><path id="path760" d="M602.37 573.19l70.866 106.3 70.866-106.3" stroke="#000" stroke-width="1pt" fill="none"/><path id="path761" d="M602.37 502.33l70.866 106.3 70.866-106.3" stroke="#000" stroke-width="1pt" fill="none"/><path id="path762" d="M602.37 449.18l70.866 88.583 70.866-88.583" stroke="#000" stroke-width="1pt" fill="none"/><path id="path763" d="M602.37 396.03l70.866 88.582 70.866-88.582" stroke="#000" stroke-width="1pt" fill="none"/><path id="path764" d="M620.08 342.88l53.15 106.3 53.15-106.3" stroke="#000" stroke-width="1pt" fill="none"/></g><g id="g765" transform="matrix(-.20772 -.25838 .23618 -.23515 689.99 567.28)"><path id="path766" d="M673.23 325.16l17.717 70.866 35.433-53.15-17.717 88.583 35.433-35.433-35.433 88.582 35.433-35.433-35.433 88.583 35.433-35.433-35.433 106.3 35.433-35.433-35.433 106.3 35.433-35.433-35.433 106.3-17.716 53.151-17.717 17.72-17.717-17.72-17.716-53.151-35.433-106.3 35.433 35.433-35.433-106.3 35.433 35.433-35.433-106.3 35.433 35.433-35.433-88.583 35.433 35.433-35.433-88.582 35.433 35.433-17.717-88.583 35.433 53.15 17.717-70.866z" fill-rule="evenodd" stroke="#fff" stroke-width="8.25" fill="#006d00"/><path id="path767" d="M673.23 325.16v496.07" stroke="#000" stroke-width="1pt" fill="none"/><path id="path768" d="M602.37 644.06l70.86 106.3 70.87-106.3" stroke="#000" stroke-width="1pt" fill="none"/><path id="path769" d="M602.37 573.19l70.866 106.3 70.866-106.3" stroke="#000" stroke-width="1pt" fill="none"/><path id="path770" d="M602.37 502.33l70.866 106.3 70.866-106.3" stroke="#000" stroke-width="1pt" fill="none"/><path id="path771" d="M602.37 449.18l70.866 88.583 70.866-88.583" stroke="#000" stroke-width="1pt" fill="none"/><path id="path772" d="M602.37 396.03l70.866 88.582 70.866-88.582" stroke="#000" stroke-width="1pt" fill="none"/><path id="path773" d="M620.08 342.88l53.15 106.3 53.15-106.3" stroke="#000" stroke-width="1pt" fill="none"/></g><g id="g791" transform="matrix(-.36218 -.09947 -.20981 .31773 1222.4 -24.229)"><path id="path775" d="M744.09 425.19l28.643 70.866 42.223-53.15-10.184 88.583 27.9-35.433-17.716 88.582 25.249-35.433-25.249 88.583 35.433-35.433-35.433 106.3 35.433-35.433-35.433 106.3 35.433-35.433-35.433 106.3-17.716 53.151-17.717 17.72-17.717-17.72-17.716-53.151-35.433-106.3 35.433 35.433-35.433-106.3 35.433 35.433-35.433-106.3 35.433 35.433-45.617-88.583 45.617 35.433-53.15-88.582 42.966 35.433-25.25-88.583 35.433 53.15.001-70.866z" fill-rule="evenodd" stroke="#fff" stroke-width="8.25" fill="#006d00"/><path id="path776" d="M750.67 460.63l28.855 124.02v336.62" stroke="#000" stroke-width="1pt" fill="none"/><path id="path777" d="M719.69 761.81l59.833 88.582 60.682-88.582" stroke="#000" stroke-width="1pt" fill="none"/><path id="path778" d="M717.99 690.94l61.53 88.582 60.682-88.582" stroke="#000" stroke-width="1pt" fill="none"/><path id="path779" d="M718.84 620.08l60.682 88.582 59.833-88.582" stroke="#000" stroke-width="1pt" fill="none"/><path id="path780" d="M716.3 566.92l63.228 70.866 53.149-70.866" stroke="#000" stroke-width="1pt" fill="none"/><path id="path781" d="M708.66 513.78l70.866 70.865 45.406-70.865" stroke="#000" stroke-width="1pt" fill="none"/><path id="path782" d="M719.58 469.22l53.15 86.886 35.327-95.478" stroke="#000" stroke-width="1pt" fill="none"/></g><g id="g800" transform="matrix(.36088 .10411 .01321 .38052 452.76 -239.27)"><path id="path801" d="M744.09 425.19l28.643 70.866 42.223-53.15-10.184 88.583 27.9-35.433-17.716 88.582 25.249-35.433-25.249 88.583 35.433-35.433-35.433 106.3 35.433-35.433-35.433 106.3 35.433-35.433-35.433 106.3-17.716 53.151-17.717 17.72-17.717-17.72-17.716-53.151-35.433-106.3 35.433 35.433-35.433-106.3 35.433 35.433-35.433-106.3 35.433 35.433-45.617-88.583 45.617 35.433-53.15-88.582 42.966 35.433-25.25-88.583 35.433 53.15.001-70.866z" fill-rule="evenodd" stroke="#fff" stroke-width="8.25" fill="#006d00"/><path id="path802" d="M750.67 460.63l28.855 124.02v336.62" stroke="#000" stroke-width="1pt" fill="none"/><path id="path803" d="M719.69 761.81l59.833 88.582 60.682-88.582" stroke="#000" stroke-width="1pt" fill="none"/><path id="path804" d="M717.99 690.94l61.53 88.582 60.682-88.582" stroke="#000" stroke-width="1pt" fill="none"/><path id="path805" d="M718.84 620.08l60.682 88.582 59.833-88.582" stroke="#000" stroke-width="1pt" fill="none"/><path id="path806" d="M716.3 566.92l63.228 70.866 53.149-70.866" stroke="#000" stroke-width="1pt" fill="none"/><path id="path807" d="M708.66 513.78l70.866 70.865 45.406-70.865" stroke="#000" stroke-width="1pt" fill="none"/><path id="path808" d="M719.58 469.22l53.15 86.886 35.327-95.478" stroke="#000" stroke-width="1pt" fill="none"/></g><g id="g843" transform="matrix(.04613 -.36474 .32602 .0648 379.58 479.54)"><path id="path810" d="M797.24 488.534l88.583 88.583 17.716-53.149v88.582l35.433-35.433-17.716 88.583 35.432-35.434-17.716 88.584 35.433-35.433-17.716 106.3 35.433-35.433-35.433 106.3 35.433-35.433-17.717 106.3-17.716 53.151-17.717 17.72-17.717-17.72-17.716-53.151-53.15-82.294 35.434 11.429-35.433-106.3 35.433 35.433-53.15-106.3 35.433 35.433-53.15-88.584 53.15 35.434-70.866-88.583 53.149 35.433-70.866-70.866 70.866 35.433-53.149-88.583z" fill-rule="evenodd" stroke="#fff" stroke-width="8.25" fill="#006d00"/><path id="path811" d="M821.87 517.054l63.952 95.497 17.716 53.15 8.859 45.205 8.858 78.811 9.315 70.866 8.401 141.74" stroke="#000" stroke-width="1pt" fill="none"/><path id="path812" d="M868.11 860.574l63.665 70.866 50.749-88.583" stroke="#000" stroke-width="1pt" fill="none"/><path id="path813" d="M859.99 771.994l70.579 88.583 50.75-88.583" stroke="#000" stroke-width="1pt" fill="none"/><path id="path814" d="M850.39 709.474l70.867 80.235 45.948-88.583" stroke="#000" stroke-width="1pt" fill="none"/><path id="path815" d="M814.96 594.834l88.583 70.866 25.831-70.866" stroke="#000" stroke-width="1pt" fill="none"/><path id="path816" d="M803.53 559.394l82.296 53.149 10.515-53.149" stroke="#000" stroke-width="1pt" fill="none"/><path id="path817" d="M832.67 647.974l81.095 70.866 33.946-70.866" stroke="#000" stroke-width="1pt" fill="none"/></g></g></g><g id="g1060" fill-rule="evenodd" transform="matrix(.13659 0 0 .12573 266.36 208.19)"><path id="path1054" d="M541.46 1173.3l-1.7-229.13-61.1-106.94c-15.277-52.618-7.754-78.079 16.973-79.776 24.728-1.698 49.224 13.579 84.868 15.276 35.645 1.697 28.856-59.408 81.474-57.71 52.618 1.697 144.28 32.25 222.36 37.342 78.078 5.092 118.81-27.158 208.77-30.553 89.97-3.395 113.73 42.435 118.82 42.435s30.55-18.672 56.01-22.066c25.46-3.395 33.95 10.184 33.95 10.184s-1.7 57.71-13.58 91.657c-11.88 33.948-54.32 89.961-56.01 89.961-1.7 0-15.28 249.52-15.28 251.21 0 1.7-675.55-6.79-675.55-11.88z" stroke="#000" stroke-width="1pt" fill="#c00"/><g id="g1016" transform="matrix(-1 0 0 1 1771.7 354.33)" stroke="#000" stroke-width="1pt"><path id="path1017" d="M531.5 584.65s-67.982-52.097-69.813-177.17c-1.053-71.929 34.38-124.02 122.96-124.02 124.02 0 301.18 53.149 301.18 53.149v17.717s-141.73-53.15-301.18-53.15c-70.866 0-106.3 52.087-106.3 105.24 0 88.583 70.867 178.23 70.867 178.23v141.73h-17.717v-141.73z" fill="#fff100"/><path id="path1018" d="M478.35 549.21c0 9.785-7.932 17.717-17.717 17.717-9.785 0-17.717-7.932-17.717-17.717 0-9.785 7.932-17.717 17.717-17.717 9.785 0 17.717 7.932 17.717 17.717z" transform="translate(16.019 -1.697)" fill="#fff"/><path id="path1019" d="M478.35 549.21c0 9.785-7.932 17.717-17.717 17.717-9.785 0-17.717-7.932-17.717-17.717 0-9.785 7.932-17.717 17.717-17.717 9.785 0 17.717 7.932 17.717 17.717z" transform="translate(-1.697 -42.223)" fill="#fff"/><path id="path1020" d="M478.35 549.21c0 9.785-7.932 17.717-17.717 17.717-9.785 0-17.717-7.932-17.717-17.717 0-9.785 7.932-17.717 17.717-17.717 9.785 0 17.717 7.932 17.717 17.717z" transform="translate(-10.927 -83.491)" fill="#fff"/><path id="path1021" d="M478.35 549.21c0 9.785-7.932 17.717-17.717 17.717-9.785 0-17.717-7.932-17.717-17.717 0-9.785 7.932-17.717 17.717-17.717 9.785 0 17.717 7.932 17.717 17.717z" transform="translate(-17.717 -127.62)" fill="#fff"/><path id="path1022" d="M478.35 549.21c0 9.785-7.932 17.717-17.717 17.717-9.785 0-17.717-7.932-17.717-17.717 0-9.785 7.932-17.717 17.717-17.717 9.785 0 17.717 7.932 17.717 17.717z" transform="translate(-16.019 -175.47)" fill="#fff"/><path id="path1023" d="M478.35 549.21c0 9.785-7.932 17.717-17.717 17.717-9.785 0-17.717-7.932-17.717-17.717 0-9.785 7.932-17.717 17.717-17.717 9.785 0 17.717 7.932 17.717 17.717z" transform="translate(41.48 33.947)" fill="#fff"/><path id="path1024" d="M478.35 549.21c0 9.785-7.932 17.717-17.717 17.717-9.785 0-17.717-7.932-17.717-17.717 0-9.785 7.932-17.717 17.717-17.717 9.785 0 17.717 7.932 17.717 17.717z" transform="translate(-.954 -220.66)" fill="#fff"/><path id="path1025" d="M478.35 549.21c0 9.785-7.932 17.717-17.717 17.717-9.785 0-17.717-7.932-17.717-17.717 0-9.785 7.932-17.717 17.717-17.717 9.785 0 17.717 7.932 17.717 17.717z" transform="translate(31.295 -256.3)" fill="#fff"/><path id="path1026" d="M478.35 549.21c0 9.785-7.932 17.717-17.717 17.717-9.785 0-17.717-7.932-17.717-17.717 0-9.785 7.932-17.717 17.717-17.717 9.785 0 17.717 7.932 17.717 17.717z" transform="translate(75.427 -280.06)" fill="#fff"/><path id="path1027" d="M478.35 549.21c0 9.785-7.932 17.717-17.717 17.717-9.785 0-17.717-7.932-17.717-17.717 0-9.785 7.932-17.717 17.717-17.717 9.785 0 17.717 7.932 17.717 17.717z" transform="translate(119.56 -283.46)" fill="#fff"/><path id="path1028" d="M478.35 549.21c0 9.785-7.932 17.717-17.717 17.717-9.785 0-17.717-7.932-17.717-17.717 0-9.785 7.932-17.717 17.717-17.717 9.785 0 17.717 7.932 17.717 17.717z" transform="translate(167.08 -281.76)" fill="#fff"/><path id="path1029" d="M478.35 549.21c0 9.785-7.932 17.717-17.717 17.717-9.785 0-17.717-7.932-17.717-17.717 0-9.785 7.932-17.717 17.717-17.717 9.785 0 17.717 7.932 17.717 17.717z" transform="translate(214.61 -274.97)" fill="#fff"/><path id="path1030" d="M478.35 549.21c0 9.785-7.932 17.717-17.717 17.717-9.785 0-17.717-7.932-17.717-17.717 0-9.785 7.932-17.717 17.717-17.717 9.785 0 17.717 7.932 17.717 17.717z" transform="translate(262.14 -268.18)" fill="#fff"/><path id="path1031" d="M478.35 549.21c0 9.785-7.932 17.717-17.717 17.717-9.785 0-17.717-7.932-17.717-17.717 0-9.785 7.932-17.717 17.717-17.717 9.785 0 17.717 7.932 17.717 17.717z" transform="translate(313.06 -259.7)" fill="#fff"/><path id="path1032" d="M478.35 549.21c0 9.785-7.932 17.717-17.717 17.717-9.785 0-17.717-7.932-17.717-17.717 0-9.785 7.932-17.717 17.717-17.717 9.785 0 17.717 7.932 17.717 17.717z" transform="translate(357.19 -247.81)" fill="#fff"/></g><path id="path981" d="M494.369 901.84c0 9.785-7.932 17.717-17.717 17.717-9.785 0-17.717-7.932-17.717-17.717 0-9.785 7.932-17.717 17.717-17.717 9.785 0 17.717 7.932 17.717 17.717z" stroke="#000" stroke-width="1pt" fill="#fff"/><path id="path982" d="M476.652 861.32c0 9.785-7.932 17.717-17.717 17.717-9.784 0-17.717-7.932-17.717-17.717 0-9.785 7.932-17.717 17.717-17.717 9.785 0 17.717 7.932 17.717 17.717z" stroke="#000" stroke-width="1pt" fill="#fff"/><path id="path983" d="M467.422 820.05c0 9.785-7.932 17.717-17.717 17.717-9.785 0-17.717-7.932-17.717-17.717 0-9.785 7.932-17.717 17.717-17.717 9.785 0 17.717 7.932 17.717 17.717z" stroke="#000" stroke-width="1pt" fill="#fff"/><path id="path984" d="M460.633 775.92c0 9.785-7.932 17.717-17.717 17.717-9.785 0-17.717-7.932-17.717-17.717 0-9.785 7.932-17.717 17.717-17.717 9.785 0 17.717 7.932 17.717 17.717z" stroke="#000" stroke-width="1pt" fill="#fff"/><path id="path985" d="M462.33 728.07c0 9.785-7.932 17.717-17.717 17.717-9.785 0-17.717-7.932-17.717-17.717 0-9.785 7.932-17.717 17.717-17.717 9.785 0 17.717 7.932 17.717 17.717z" stroke="#000" stroke-width="1pt" fill="#fff"/><path id="path987" d="M477.395 682.88c0 9.785-7.932 17.717-17.717 17.717-9.784 0-17.717-7.932-17.717-17.717 0-9.785 7.932-17.717 17.717-17.717 9.785 0 17.717 7.932 17.717 17.717z" stroke="#000" stroke-width="1pt" fill="#fff"/><path id="path988" d="M509.645 647.239c0 9.785-7.932 17.717-17.717 17.717-9.785 0-17.717-7.932-17.717-17.717 0-9.785 7.932-17.717 17.717-17.717 9.785 0 17.717 7.932 17.717 17.717z" stroke="#000" stroke-width="1pt" fill="#fff"/><path id="path989" d="M553.776 623.476c0 9.785-7.932 17.717-17.717 17.717-9.785 0-17.717-7.932-17.717-17.717 0-9.785 7.932-17.717 17.717-17.717 9.785 0 17.717 7.932 17.717 17.717z" stroke="#000" stroke-width="1pt" fill="#fff"/><path id="path990" d="M597.91 620.081c0 9.785-7.932 17.717-17.717 17.717-9.785 0-17.717-7.932-17.717-17.717 0-9.785 7.932-17.717 17.717-17.717 9.785 0 17.717 7.932 17.717 17.717z" stroke="#000" stroke-width="1pt" fill="#fff"/><path id="path991" d="M645.43 621.778c0 9.785-7.932 17.717-17.717 17.717-9.785 0-17.717-7.932-17.717-17.717 0-9.785 7.932-17.717 17.717-17.717 9.785 0 17.717 7.932 17.717 17.717z" stroke="#000" stroke-width="1pt" fill="#fff"/><path id="path992" d="M692.96 628.568c0 9.785-7.932 17.717-17.717 17.717-9.785 0-17.717-7.932-17.717-17.717 0-9.785 7.932-17.717 17.717-17.717 9.785 0 17.717 7.932 17.717 17.717z" stroke="#000" stroke-width="1pt" fill="#fff"/><path id="path993" d="M740.49 635.357c0 9.785-7.932 17.717-17.717 17.717-9.785 0-17.717-7.932-17.717-17.717 0-9.785 7.932-17.717 17.717-17.717 9.785 0 17.717 7.932 17.717 17.717z" stroke="#000" stroke-width="1pt" fill="#fff"/><path id="path994" d="M791.41 643.844c0 9.785-7.932 17.717-17.717 17.717-9.785 0-17.717-7.932-17.717-17.717 0-9.785 7.932-17.717 17.717-17.717 9.785 0 17.717 7.932 17.717 17.717z" stroke="#000" stroke-width="1pt" fill="#fff"/><path id="path995" d="M835.54 655.73c0 9.785-7.932 17.717-17.717 17.717-9.785 0-17.717-7.932-17.717-17.717 0-9.785 7.932-17.717 17.717-17.717 9.785 0 17.717 7.932 17.717 17.717z" stroke="#000" stroke-width="1pt" fill="#fff"/><path id="path986" d="M519.829 937.49c0 9.785-7.932 17.717-17.717 17.717-9.785 0-17.717-7.932-17.717-17.717 0-9.785 7.932-17.717 17.717-17.717 9.785 0 17.717 7.932 17.717 17.717z" stroke="#000" stroke-width="1pt" fill="#fff"/><path id="path979" d="M531.5 938.98s-67.982-52.097-69.813-177.17c-1.053-71.929 34.38-124.02 122.96-124.02 124.02 0 301.18 53.149 301.18 53.149v17.717s-141.73-53.15-301.18-53.15c-70.866 0-106.3 52.087-106.3 105.24 0 88.583 70.867 178.23 70.867 178.23v141.73h-17.717v-141.73z" stroke="#000" stroke-width="1pt" fill="#fff100"/><path id="path960" d="M1240.2 531.5s15.35-35.433 70.86-35.433c37.79 0 70.87 35.433 70.87 70.866v70.866h35.43v-70.866c0-35.47 35.44-70.866 70.87-70.866 53.15 0 70.87 35.433 70.87 35.433s0-106.3-70.87-106.3c-53.15 0-70.87 35.433-70.87 35.433s17.72-53.15 17.72-106.3-35.43-88.583-35.43-88.583c0 6.79-35.44 35.433-35.44 88.583 0 53.149 17.72 106.3 17.72 106.3s-17.72-35.433-70.87-35.433c-70.86 0-70.86 106.3-70.86 106.3z" transform="matrix(.33333 0 0 .38095 242.13 802.31)" stroke="#000" stroke-width="2.991" fill="#fff100"/><path id="path959" d="M1240.2 531.5s15.35-35.433 70.86-35.433c37.79 0 70.87 35.433 70.87 70.866v70.866h35.43v-70.866c0-35.47 35.44-70.866 70.87-70.866 53.15 0 70.87 35.433 70.87 35.433s0-106.3-70.87-106.3c-53.15 0-70.87 35.433-70.87 35.433s17.72-53.15 17.72-106.3-35.43-88.583-35.43-88.583c0 6.79-35.44 35.433-35.44 88.583 0 53.149 17.72 106.3 17.72 106.3s-17.72-35.433-70.87-35.433c-70.86 0-70.86 106.3-70.86 106.3z" transform="matrix(.33333 0 0 .38095 596.46 802.31)" stroke="#000" stroke-width="2.991" fill="#fff100"/><path id="path945" d="M531.5 1187.01v-159.45s35.433 53.15 88.583 53.15c43.489 0 88.582-70.866 88.582-70.866s41.515 53.149 88.583 53.149c42.02 0 88.516-68.572 88.516-68.572s43.207 68.572 88.649 68.572c45.44 0 88.58-53.149 88.58-53.149s46.29 70.866 106.3 70.866c53.15 0 70.87-53.15 70.87-53.15v159.45h-708.66z" stroke="#000" stroke-width="1pt" fill="#fff100"/><path id="path952" d="M531.49 1187.01v-124.02s106.3 35.433 106.3 124.02h-106.3z" stroke="#000" stroke-width="1pt" fill="#fff100"/><path id="path953" d="M1240.14 1187.01v-124.02s-106.3 35.433-106.3 124.02h106.3z" stroke="#000" stroke-width="1pt" fill="#fff100"/><path id="path949" d="M602.36 1187.01c0-88.583 106.37-144.6 106.37-144.6s106.23 56.016 106.23 144.6h-212.6z" stroke="#000" stroke-width="1pt" fill="#fff100"/><path id="path950" d="M956.69 1187.01c0-88.583 106.37-144.6 106.37-144.6s106.23 56.016 106.23 144.6h-212.6z" stroke="#000" stroke-width="1pt" fill="#fff100"/><path id="path951" d="M761.81 1187.01c0-88.583 124.08-159.45 124.08-159.45s123.95 70.866 123.95 159.45H761.81z" stroke="#000" stroke-width="1pt" fill="#fff100"/><path id="path939" d="M1275.6 655.51c-35.43-17.716-166.02-35.433-376.28-35.433s-350.1 17.717-385.53 35.433c-35.434 17.717-35.434 53.149-.001 70.866 35.433 17.716 175.28 35.433 385.54 35.433s340.84-17.716 376.28-35.433c35.43-17.716 35.43-53.149 0-70.866z" transform="matrix(.98876 0 0 1 -3.385 531.5)" stroke="#000" stroke-width="1pt" fill="#fff"/><path id="path941" d="M1294.7 703.35c0 58.461-317.39 58.461-381.59 58.461-69.363 0-381.59 15.842-381.59-58.461 0-58.461 314.81-58.46 381.59-58.461 66.778.001 381.59 11.883 381.59 58.461z" transform="matrix(.92857 0 0 .6061 37.964 831.57)" stroke-width="1pt" fill="gray"/><path id="path954" d="M566.93 776.28c0 11.58-7.932 20.967-17.717 20.967-9.785 0-17.717-9.387-17.717-20.967s7.932-20.967 17.717-20.967c9.785 0 17.717 9.387 17.717 20.967z" transform="translate(0 354.33)" fill="#c00"/><path id="path955" d="M566.93 776.28c0 11.58-7.932 20.967-17.717 20.967-9.785 0-17.717-9.387-17.717-20.967s7.932-20.967 17.717-20.967c9.785 0 17.717 9.387 17.717 20.967z" transform="translate(673.23 354.33)" fill="#c00"/><path id="path956" d="M566.93 776.28c0 11.58-7.932 20.967-17.717 20.967-9.785 0-17.717-9.387-17.717-20.967s7.932-20.967 17.717-20.967c9.785 0 17.717 9.387 17.717 20.967z" transform="matrix(2 0 0 1 -212.6 343.12)"/><path id="path957" d="M566.93 776.28c0 11.58-7.932 20.967-17.717 20.967-9.785 0-17.717-9.387-17.717-20.967s7.932-20.967 17.717-20.967c9.785 0 17.717 9.387 17.717 20.967z" transform="matrix(1.5 0 0 1 240.83 343.12)" fill="#006300"/><path id="path958" d="M566.93 776.28c0 11.58-7.932 20.967-17.717 20.967-9.785 0-17.717-9.387-17.717-20.967s7.932-20.967 17.717-20.967c9.785 0 17.717 9.387 17.717 20.967z" transform="matrix(1.5 0 0 1 -124.02 343.12)" fill="#006300"/><path id="path973" d="M1257.9 496.06s35.44-53.15 70.87-53.15h35.43v35.433c0 53.15-53.15 70.867-53.15 70.867h141.74s-53.15-17.717-53.15-70.867V442.91h35.43c35.43 0 70.87 53.15 70.87 53.15V354.33s-35.44 53.15-70.87 53.15h-35.43v-35.433c0-53.15 53.15-70.867 53.15-70.867h-141.74s53.15 17.717 53.15 70.867v35.433h-35.43c-35.43 0-70.87-53.15-70.87-53.15v141.73z" transform="matrix(.57141 0 0 .57143 96.199 713.72)" stroke="#000" stroke-width="2.188" fill="#fff100"/><path id="path974" d="M1381.9 549.21l70.87.001s-53.15-17.717-53.15-70.867v-35.433h35.43c35.43 0 70.87 53.15 70.87 53.15v-141.73s-35.44 53.15-70.87 53.15h-35.43v-35.433c0-53.15 53.15-70.867 53.15-70.867h-70.87v248.03z" transform="matrix(.28571 0 0 .5 136.68 788.39)" stroke="#000" stroke-width="3.307" fill="#fff100"/><path id="path975" d="M1381.9 549.21l70.87.001s-53.15-17.717-53.15-70.867v-35.433h35.43c35.43 0 70.87 53.15 70.87 53.15v-141.73s-35.44 53.15-70.87 53.15h-35.43v-35.433c0-53.15 53.15-70.867 53.15-70.867h-70.87v248.03z" transform="matrix(-.28571 0 0 .5 1635 788.39)" stroke="#000" stroke-width="3.307" fill="#fff100"/><path id="path976" d="M903.54 956.69c0 9.785-7.932 17.717-17.717 17.717-9.785 0-17.717-7.932-17.717-17.717 0-9.785 7.932-17.717 17.717-17.717 9.784 0 17.717 7.932 17.717 17.717z" stroke="#000" stroke-width="1pt" fill="#fff"/><path id="path977" d="M1257.9 496.06s35.44-53.15 70.87-53.15h35.43v35.433c0 53.15-53.15 70.867-53.15 70.867h141.74s-53.15-17.717-53.15-70.867V442.91h35.43c35.43 0 70.87 53.15 70.87 53.15V354.33s-35.44 53.15-70.87 53.15h-35.43v-35.433c0-53.15 53.15-70.867 53.15-70.867h-141.74s53.15 17.717 53.15 70.867v35.433h-35.43c-35.43 0-70.87-53.15-70.87-53.15v141.73z" transform="matrix(.57141 0 0 .57143 96.202 341.68)" stroke="#000" stroke-width="2.188" fill="#fff100"/><path id="path978" d="M905.237 587.615c0 9.785-7.932 17.717-17.717 17.717-9.785 0-17.717-7.932-17.717-17.717 0-9.785 7.932-17.717 17.717-17.717 9.785 0 17.717 7.932 17.717 17.717z" stroke="#000" stroke-width="1pt" fill="#fff"/><path id="rect996" stroke="#000" stroke-width="1pt" fill="#fff100" d="M850.39 655.51h70.866v53.15H850.39z"/><path id="rect1033" stroke="#000" stroke-width="1pt" fill="#fff100" d="M850.39 683.3h70.866v202.53H850.39z"/><path id="path1050" d="M903.55 850.39c0 9.785-7.932 17.717-17.717 17.717-9.785 0-17.717-7.932-17.717-17.717 0-9.785 7.932-17.717 17.717-17.717 9.785 0 17.717 7.932 17.717 17.717z" stroke="#000" stroke-width="1pt" fill="#fff"/><path id="path1051" d="M903.55 804.56c0 9.785-7.932 17.717-17.717 17.717-9.785 0-17.717-7.932-17.717-17.717 0-9.785 7.932-17.717 17.717-17.717 9.785 0 17.717 7.932 17.717 17.717z" stroke="#000" stroke-width="1pt" fill="#fff"/><path id="path1052" d="M903.55 761.81c0 9.785-7.932 17.717-17.717 17.717-9.785 0-17.717-7.932-17.717-17.717 0-9.785 7.932-17.717 17.717-17.717 9.785 0 17.717 7.932 17.717 17.717z" stroke="#000" stroke-width="1pt" fill="#fff"/><path id="path1053" d="M903.55 717.68c0 9.785-7.932 17.717-17.717 17.717-9.785 0-17.717-7.932-17.717-17.717 0-9.785 7.932-17.717 17.717-17.717 9.785 0 17.717 7.932 17.717 17.717z" stroke="#000" stroke-width="1pt" fill="#fff"/><path id="path1055" d="M614.51 1201.8c0 7.954-16.121 14.403-36.006 14.403-19.886 0-36.006-6.448-36.006-14.403 0-7.954 16.121-14.403 36.006-14.403 19.886 0 36.006 6.448 36.006 14.403z" transform="translate(308.95 -14.402)"/><path id="path1056" d="M614.51 1201.8c0 7.954-16.121 14.403-36.006 14.403-19.886 0-36.006-6.448-36.006-14.403 0-7.954 16.121-14.403 36.006-14.403 19.886 0 36.006 6.448 36.006 14.403z" transform="matrix(.98773 .24606 -.25044 .68556 943.77 247.45)"/><path id="path1057" d="M614.51 1201.8c0 7.954-16.121 14.403-36.006 14.403-19.886 0-36.006-6.448-36.006-14.403 0-7.954 16.121-14.403 36.006-14.403 19.886 0 36.006 6.448 36.006 14.403z" transform="matrix(1.019 .07734 -.0991 .88195 606.29 91.217)"/><path id="path1058" d="M614.51 1201.8c0 7.954-16.121 14.403-36.006 14.403-19.886 0-36.006-6.448-36.006-14.403 0-7.954 16.121-14.403 36.006-14.403 19.886 0 36.006 6.448 36.006 14.403z" transform="matrix(-.98773 .24606 .25044 .68556 819.99 247.45)"/><path id="path1059" d="M614.51 1201.8c0 7.954-16.121 14.403-36.006 14.403-19.886 0-36.006-6.448-36.006-14.403 0-7.954 16.121-14.403 36.006-14.403 19.886 0 36.006 6.448 36.006 14.403z" transform="matrix(-1.019 .07734 .0991 .88195 1164.3 87.822)"/></g></g></svg>