<svg id="svg734" xmlns="http://www.w3.org/2000/svg" height="480" width="640"><defs id="defs736"><clipPath id="clipPath6805"><path id="rect6807" fill-opacity=".67" d="M-85.311 0h682.67v512h-682.67z"/></clipPath></defs><g id="flag" clip-path="url(#clipPath6805)" fill-rule="evenodd" transform="translate(79.98) scale(.9375)"><path id="rect1052" stroke-width="1pt" fill="#fff" d="M-191.96 0h896v512h-896z"/><path id="rect1927" stroke-width="1pt" fill="#da0000" d="M-191.96 343.84h896V512h-896z"/><g id="g772" transform="translate(-70.36 36.806) scale(1.5197)" stroke-width="1pt" fill="#fff"><path id="rect750" d="M32.067 206.72h32.289v2.222H32.067z"/><path id="rect751" d="M36.881 217.83h2.222v2.158h-2.222z"/><path id="rect753" transform="rotate(90)" d="M217.76-64.44h2.222v6.453h-2.222z"/><path id="rect755" d="M67.911 206.72h2.222v13.266h-2.222z"/><path id="rect756" transform="rotate(90)" d="M217.76-80.765h2.222v12.229h-2.222z"/><path id="rect757" d="M57.987 212.57h2.222v7.416h-2.222z"/><path id="rect758" transform="translate(11.035)" d="M67.911 206.72h2.222v13.266h-2.222z"/><path id="rect759" d="M73.391 206.72h2.222v13.266h-2.222z"/><path id="rect760" transform="rotate(90 .005 .005)" d="M212-43.903h2.222v11.785H212z"/><path id="rect763" transform="rotate(90)" d="M212-69.772h2.222v11.785H212z"/><path id="rect764" d="M57.987 212.57h2.222v7.416h-2.222z"/><path id="rect765" d="M57.987 212.57h2.222v7.416h-2.222z"/><path id="rect766" d="M57.987 212.57h2.222v7.416h-2.222z"/><path id="rect767" transform="translate(-.172)" d="M32.299 212.57h2.222v7.416h-2.222z"/><path id="rect768" d="M51.082 212.57h2.222v7.416h-2.222z"/><path id="rect769" d="M41.691 212.57h2.222v7.416h-2.222z"/><path id="rect770" transform="rotate(90)" d="M217.76-52.641h2.222v9.962h-2.222z"/><path id="rect771" transform="rotate(90)" d="M212-53.304h2.222v6.316H212z"/></g><g id="g791" transform="translate(-150.96 36.806) scale(1.5197)" stroke-width="1pt" fill="#fff"><path id="rect792" d="M32.067 206.72h32.289v2.222H32.067z"/><path id="rect793" d="M36.881 217.83h2.222v2.158h-2.222z"/><path id="rect794" transform="rotate(90)" d="M217.76-64.44h2.222v6.453h-2.222z"/><path id="rect795" d="M67.911 206.72h2.222v13.266h-2.222z"/><path id="rect796" transform="rotate(90)" d="M217.76-80.765h2.222v12.229h-2.222z"/><path id="rect797" d="M57.987 212.57h2.222v7.416h-2.222z"/><path id="rect798" transform="translate(11.035)" d="M67.911 206.72h2.222v13.266h-2.222z"/><path id="rect799" d="M73.391 206.72h2.222v13.266h-2.222z"/><path id="rect800" transform="rotate(90 .005 .005)" d="M212-43.903h2.222v11.785H212z"/><path id="rect801" transform="rotate(90)" d="M212-69.772h2.222v11.785H212z"/><path id="rect802" d="M57.987 212.57h2.222v7.416h-2.222z"/><path id="rect803" d="M57.987 212.57h2.222v7.416h-2.222z"/><path id="rect804" d="M57.987 212.57h2.222v7.416h-2.222z"/><path id="rect805" transform="translate(-.172)" d="M32.299 212.57h2.222v7.416h-2.222z"/><path id="rect806" d="M51.082 212.57h2.222v7.416h-2.222z"/><path id="rect807" d="M41.691 212.57h2.222v7.416h-2.222z"/><path id="rect808" transform="rotate(90)" d="M217.76-52.641h2.222v9.962h-2.222z"/><path id="rect809" transform="rotate(90)" d="M212-53.304h2.222v6.316H212z"/></g><g id="g812" transform="translate(9.565 36.806) scale(1.5197)" stroke-width="1pt" fill="#fff"><path id="rect813" d="M32.067 206.72h32.289v2.222H32.067z"/><path id="rect814" d="M36.881 217.83h2.222v2.158h-2.222z"/><path id="rect815" transform="rotate(90)" d="M217.76-64.44h2.222v6.453h-2.222z"/><path id="rect816" d="M67.911 206.72h2.222v13.266h-2.222z"/><path id="rect817" transform="rotate(90)" d="M217.76-80.765h2.222v12.229h-2.222z"/><path id="rect818" d="M57.987 212.57h2.222v7.416h-2.222z"/><path id="rect819" transform="translate(11.035)" d="M67.911 206.72h2.222v13.266h-2.222z"/><path id="rect820" d="M73.391 206.72h2.222v13.266h-2.222z"/><path id="rect821" transform="rotate(90 .005 .005)" d="M212-43.903h2.222v11.785H212z"/><path id="rect822" transform="rotate(90)" d="M212-69.772h2.222v11.785H212z"/><path id="rect823" d="M57.987 212.57h2.222v7.416h-2.222z"/><path id="rect824" d="M57.987 212.57h2.222v7.416h-2.222z"/><path id="rect825" d="M57.987 212.57h2.222v7.416h-2.222z"/><path id="rect826" transform="translate(-.172)" d="M32.299 212.57h2.222v7.416h-2.222z"/><path id="rect827" d="M51.082 212.57h2.222v7.416h-2.222z"/><path id="rect828" d="M41.691 212.57h2.222v7.416h-2.222z"/><path id="rect829" transform="rotate(90)" d="M217.76-52.641h2.222v9.962h-2.222z"/><path id="rect830" transform="rotate(90)" d="M212-53.304h2.222v6.316H212z"/></g><g id="g840" transform="translate(573.95 36.806) scale(1.5197)" stroke-width="1pt" fill="#fff"><path id="rect841" d="M32.067 206.72h32.289v2.222H32.067z"/><path id="rect842" d="M36.881 217.83h2.222v2.158h-2.222z"/><path id="rect843" transform="rotate(90)" d="M217.76-64.44h2.222v6.453h-2.222z"/><path id="rect844" d="M67.911 206.72h2.222v13.266h-2.222z"/><path id="rect845" transform="rotate(90)" d="M217.76-80.765h2.222v12.229h-2.222z"/><path id="rect846" d="M57.987 212.57h2.222v7.416h-2.222z"/><path id="rect847" transform="translate(11.035)" d="M67.911 206.72h2.222v13.266h-2.222z"/><path id="rect848" d="M73.391 206.72h2.222v13.266h-2.222z"/><path id="rect849" transform="rotate(90 .005 .005)" d="M212-43.903h2.222v11.785H212z"/><path id="rect850" transform="rotate(90)" d="M212-69.772h2.222v11.785H212z"/><path id="rect851" d="M57.987 212.57h2.222v7.416h-2.222z"/><path id="rect852" d="M57.987 212.57h2.222v7.416h-2.222z"/><path id="rect853" d="M57.987 212.57h2.222v7.416h-2.222z"/><path id="rect854" transform="translate(-.172)" d="M32.299 212.57h2.222v7.416h-2.222z"/><path id="rect855" d="M51.082 212.57h2.222v7.416h-2.222z"/><path id="rect856" d="M41.691 212.57h2.222v7.416h-2.222z"/><path id="rect857" transform="rotate(90)" d="M217.76-52.641h2.222v9.962h-2.222z"/><path id="rect858" transform="rotate(90)" d="M212-53.304h2.222v6.316H212z"/></g><g id="g859" transform="translate(90.01 36.806) scale(1.5197)" stroke-width="1pt" fill="#fff"><path id="rect860" d="M32.067 206.72h32.289v2.222H32.067z"/><path id="rect861" d="M36.881 217.83h2.222v2.158h-2.222z"/><path id="rect862" transform="rotate(90)" d="M217.76-64.44h2.222v6.453h-2.222z"/><path id="rect863" d="M67.911 206.72h2.222v13.266h-2.222z"/><path id="rect864" transform="rotate(90)" d="M217.76-80.765h2.222v12.229h-2.222z"/><path id="rect865" d="M57.987 212.57h2.222v7.416h-2.222z"/><path id="rect866" transform="translate(11.035)" d="M67.911 206.72h2.222v13.266h-2.222z"/><path id="rect867" d="M73.391 206.72h2.222v13.266h-2.222z"/><path id="rect868" transform="rotate(90 .005 .005)" d="M212-43.903h2.222v11.785H212z"/><path id="rect869" transform="rotate(90)" d="M212-69.772h2.222v11.785H212z"/><path id="rect870" d="M57.987 212.57h2.222v7.416h-2.222z"/><path id="rect871" d="M57.987 212.57h2.222v7.416h-2.222z"/><path id="rect872" d="M57.987 212.57h2.222v7.416h-2.222z"/><path id="rect873" transform="translate(-.172)" d="M32.299 212.57h2.222v7.416h-2.222z"/><path id="rect874" d="M51.082 212.57h2.222v7.416h-2.222z"/><path id="rect875" d="M41.691 212.57h2.222v7.416h-2.222z"/><path id="rect876" transform="rotate(90)" d="M217.76-52.641h2.222v9.962h-2.222z"/><path id="rect877" transform="rotate(90)" d="M212-53.304h2.222v6.316H212z"/></g><g id="g878" transform="translate(170.75 36.806) scale(1.5197)" stroke-width="1pt" fill="#fff"><path id="rect879" d="M32.067 206.72h32.289v2.222H32.067z"/><path id="rect880" d="M36.881 217.83h2.222v2.158h-2.222z"/><path id="rect881" transform="rotate(90)" d="M217.76-64.44h2.222v6.453h-2.222z"/><path id="rect882" d="M67.911 206.72h2.222v13.266h-2.222z"/><path id="rect883" transform="rotate(90)" d="M217.76-80.765h2.222v12.229h-2.222z"/><path id="rect884" d="M57.987 212.57h2.222v7.416h-2.222z"/><path id="rect885" transform="translate(11.035)" d="M67.911 206.72h2.222v13.266h-2.222z"/><path id="rect886" d="M73.391 206.72h2.222v13.266h-2.222z"/><path id="rect887" transform="rotate(90 .005 .005)" d="M212-43.903h2.222v11.785H212z"/><path id="rect888" transform="rotate(90)" d="M212-69.772h2.222v11.785H212z"/><path id="rect889" d="M57.987 212.57h2.222v7.416h-2.222z"/><path id="rect890" d="M57.987 212.57h2.222v7.416h-2.222z"/><path id="rect891" d="M57.987 212.57h2.222v7.416h-2.222z"/><path id="rect892" transform="translate(-.172)" d="M32.299 212.57h2.222v7.416h-2.222z"/><path id="rect893" d="M51.082 212.57h2.222v7.416h-2.222z"/><path id="rect894" d="M41.691 212.57h2.222v7.416h-2.222z"/><path id="rect895" transform="rotate(90)" d="M217.76-52.641h2.222v9.962h-2.222z"/><path id="rect896" transform="rotate(90)" d="M212-53.304h2.222v6.316H212z"/></g><path id="rect1926" stroke-width="1pt" fill="#239f40" d="M-191.96 0h896v168.16h-896z"/><g id="g897" transform="translate(251.96 36.806) scale(1.5197)" stroke-width="1pt" fill="#fff"><path id="rect898" d="M32.067 206.72h32.289v2.222H32.067z"/><path id="rect899" d="M36.881 217.83h2.222v2.158h-2.222z"/><path id="rect900" transform="rotate(90)" d="M217.76-64.44h2.222v6.453h-2.222z"/><path id="rect901" d="M67.911 206.72h2.222v13.266h-2.222z"/><path id="rect902" transform="rotate(90)" d="M217.76-80.765h2.222v12.229h-2.222z"/><path id="rect903" d="M57.987 212.57h2.222v7.416h-2.222z"/><path id="rect904" transform="translate(11.035)" d="M67.911 206.72h2.222v13.266h-2.222z"/><path id="rect905" d="M73.391 206.72h2.222v13.266h-2.222z"/><path id="rect906" transform="rotate(90 .005 .005)" d="M212-43.903h2.222v11.785H212z"/><path id="rect907" transform="rotate(90)" d="M212-69.772h2.222v11.785H212z"/><path id="rect908" d="M57.987 212.57h2.222v7.416h-2.222z"/><path id="rect909" d="M57.987 212.57h2.222v7.416h-2.222z"/><path id="rect910" d="M57.987 212.57h2.222v7.416h-2.222z"/><path id="rect911" transform="translate(-.172)" d="M32.299 212.57h2.222v7.416h-2.222z"/><path id="rect912" d="M51.082 212.57h2.222v7.416h-2.222z"/><path id="rect913" d="M41.691 212.57h2.222v7.416h-2.222z"/><path id="rect914" transform="rotate(90)" d="M217.76-52.641h2.222v9.962h-2.222z"/><path id="rect915" transform="rotate(90)" d="M212-53.304h2.222v6.316H212z"/></g><g id="g916" transform="translate(332.69 36.806) scale(1.5197)" stroke-width="1pt" fill="#fff"><path id="rect917" d="M32.067 206.72h32.289v2.222H32.067z"/><path id="rect918" d="M36.881 217.83h2.222v2.158h-2.222z"/><path id="rect919" transform="rotate(90)" d="M217.76-64.44h2.222v6.453h-2.222z"/><path id="rect920" d="M67.911 206.72h2.222v13.266h-2.222z"/><path id="rect921" transform="rotate(90)" d="M217.76-80.765h2.222v12.229h-2.222z"/><path id="rect922" d="M57.987 212.57h2.222v7.416h-2.222z"/><path id="rect923" transform="translate(11.035)" d="M67.911 206.72h2.222v13.266h-2.222z"/><path id="rect924" d="M73.391 206.72h2.222v13.266h-2.222z"/><path id="rect925" transform="rotate(90 .005 .005)" d="M212-43.903h2.222v11.785H212z"/><path id="rect926" transform="rotate(90)" d="M212-69.772h2.222v11.785H212z"/><path id="rect927" d="M57.987 212.57h2.222v7.416h-2.222z"/><path id="rect928" d="M57.987 212.57h2.222v7.416h-2.222z"/><path id="rect929" d="M57.987 212.57h2.222v7.416h-2.222z"/><path id="rect930" transform="translate(-.172)" d="M32.299 212.57h2.222v7.416h-2.222z"/><path id="rect931" d="M51.082 212.57h2.222v7.416h-2.222z"/><path id="rect932" d="M41.691 212.57h2.222v7.416h-2.222z"/><path id="rect933" transform="rotate(90)" d="M217.76-52.641h2.222v9.962h-2.222z"/><path id="rect934" transform="rotate(90)" d="M212-53.304h2.222v6.316H212z"/></g><g id="g935" transform="translate(413.43 36.806) scale(1.5197)" stroke-width="1pt" fill="#fff"><path id="rect936" d="M32.067 206.72h32.289v2.222H32.067z"/><path id="rect937" d="M36.881 217.83h2.222v2.158h-2.222z"/><path id="rect938" transform="rotate(90)" d="M217.76-64.44h2.222v6.453h-2.222z"/><path id="rect939" d="M67.911 206.72h2.222v13.266h-2.222z"/><path id="rect940" transform="rotate(90)" d="M217.76-80.765h2.222v12.229h-2.222z"/><path id="rect941" d="M57.987 212.57h2.222v7.416h-2.222z"/><path id="rect942" transform="translate(11.035)" d="M67.911 206.72h2.222v13.266h-2.222z"/><path id="rect943" d="M73.391 206.72h2.222v13.266h-2.222z"/><path id="rect944" transform="rotate(90 .005 .005)" d="M212-43.903h2.222v11.785H212z"/><path id="rect945" transform="rotate(90)" d="M212-69.772h2.222v11.785H212z"/><path id="rect946" d="M57.987 212.57h2.222v7.416h-2.222z"/><path id="rect947" d="M57.987 212.57h2.222v7.416h-2.222z"/><path id="rect948" d="M57.987 212.57h2.222v7.416h-2.222z"/><path id="rect949" transform="translate(-.172)" d="M32.299 212.57h2.222v7.416h-2.222z"/><path id="rect950" d="M51.082 212.57h2.222v7.416h-2.222z"/><path id="rect951" d="M41.691 212.57h2.222v7.416h-2.222z"/><path id="rect952" transform="rotate(90)" d="M217.76-52.641h2.222v9.962h-2.222z"/><path id="rect953" transform="rotate(90)" d="M212-53.304h2.222v6.316H212z"/></g><g id="g954" transform="translate(494.64 36.806) scale(1.5197)" stroke-width="1pt" fill="#fff"><path id="rect955" d="M32.067 206.72h32.289v2.222H32.067z"/><path id="rect956" d="M36.881 217.83h2.222v2.158h-2.222z"/><path id="rect957" transform="rotate(90)" d="M217.76-64.44h2.222v6.453h-2.222z"/><path id="rect958" d="M67.911 206.72h2.222v13.266h-2.222z"/><path id="rect959" transform="rotate(90)" d="M217.76-80.765h2.222v12.229h-2.222z"/><path id="rect960" d="M57.987 212.57h2.222v7.416h-2.222z"/><path id="rect961" transform="translate(11.035)" d="M67.911 206.72h2.222v13.266h-2.222z"/><path id="rect962" d="M73.391 206.72h2.222v13.266h-2.222z"/><path id="rect963" transform="rotate(90 .005 .005)" d="M212-43.903h2.222v11.785H212z"/><path id="rect964" transform="rotate(90)" d="M212-69.772h2.222v11.785H212z"/><path id="rect965" d="M57.987 212.57h2.222v7.416h-2.222z"/><path id="rect966" d="M57.987 212.57h2.222v7.416h-2.222z"/><path id="rect967" d="M57.987 212.57h2.222v7.416h-2.222z"/><path id="rect968" transform="translate(-.172)" d="M32.299 212.57h2.222v7.416h-2.222z"/><path id="rect969" d="M51.082 212.57h2.222v7.416h-2.222z"/><path id="rect970" d="M41.691 212.57h2.222v7.416h-2.222z"/><path id="rect971" transform="rotate(90)" d="M217.76-52.641h2.222v9.962h-2.222z"/><path id="rect972" transform="rotate(90)" d="M212-53.304h2.222v6.316H212z"/></g><g id="g992" transform="translate(-232.52 36.806) scale(1.5197)" stroke-width="1pt" fill="#fff"><path id="rect993" d="M32.067 206.72h32.289v2.222H32.067z"/><path id="rect994" d="M36.881 217.83h2.222v2.158h-2.222z"/><path id="rect995" transform="rotate(90)" d="M217.76-64.44h2.222v6.453h-2.222z"/><path id="rect996" d="M67.911 206.72h2.222v13.266h-2.222z"/><path id="rect997" transform="rotate(90)" d="M217.76-80.765h2.222v12.229h-2.222z"/><path id="rect998" d="M57.987 212.57h2.222v7.416h-2.222z"/><path id="rect999" transform="translate(11.035)" d="M67.911 206.72h2.222v13.266h-2.222z"/><path id="rect1000" d="M73.391 206.72h2.222v13.266h-2.222z"/><path id="rect1001" transform="rotate(90 .005 .005)" d="M212-43.903h2.222v11.785H212z"/><path id="rect1002" transform="rotate(90)" d="M212-69.772h2.222v11.785H212z"/><path id="rect1003" d="M57.987 212.57h2.222v7.416h-2.222z"/><path id="rect1004" d="M57.987 212.57h2.222v7.416h-2.222z"/><path id="rect1005" d="M57.987 212.57h2.222v7.416h-2.222z"/><path id="rect1006" transform="translate(-.172)" d="M32.299 212.57h2.222v7.416h-2.222z"/><path id="rect1007" d="M51.082 212.57h2.222v7.416h-2.222z"/><path id="rect1008" d="M41.691 212.57h2.222v7.416h-2.222z"/><path id="rect1009" transform="rotate(90)" d="M217.76-52.641h2.222v9.962h-2.222z"/><path id="rect1010" transform="rotate(90)" d="M212-53.304h2.222v6.316H212z"/></g><g id="g1225" transform="translate(-70.36 -170.71) scale(1.5197)" stroke-width="1pt" fill="#fff"><path id="rect1226" d="M32.067 206.72h32.289v2.222H32.067z"/><path id="rect1227" d="M36.881 217.83h2.222v2.158h-2.222z"/><path id="rect1228" transform="rotate(90)" d="M217.76-64.44h2.222v6.453h-2.222z"/><path id="rect1229" d="M67.911 206.72h2.222v13.266h-2.222z"/><path id="rect1230" transform="rotate(90)" d="M217.76-80.765h2.222v12.229h-2.222z"/><path id="rect1231" d="M57.987 212.57h2.222v7.416h-2.222z"/><path id="rect1232" transform="translate(11.035)" d="M67.911 206.72h2.222v13.266h-2.222z"/><path id="rect1233" d="M73.391 206.72h2.222v13.266h-2.222z"/><path id="rect1234" transform="rotate(90 .005 .005)" d="M212-43.903h2.222v11.785H212z"/><path id="rect1235" transform="rotate(90)" d="M212-69.772h2.222v11.785H212z"/><path id="rect1236" d="M57.987 212.57h2.222v7.416h-2.222z"/><path id="rect1237" d="M57.987 212.57h2.222v7.416h-2.222z"/><path id="rect1238" d="M57.987 212.57h2.222v7.416h-2.222z"/><path id="rect1239" transform="translate(-.172)" d="M32.299 212.57h2.222v7.416h-2.222z"/><path id="rect1240" d="M51.082 212.57h2.222v7.416h-2.222z"/><path id="rect1241" d="M41.691 212.57h2.222v7.416h-2.222z"/><path id="rect1242" transform="rotate(90)" d="M217.76-52.641h2.222v9.962h-2.222z"/><path id="rect1243" transform="rotate(90)" d="M212-53.304h2.222v6.316H212z"/></g><g id="g1244" transform="translate(-150.96 -170.71) scale(1.5197)" stroke-width="1pt" fill="#fff"><path id="rect1245" d="M32.067 206.72h32.289v2.222H32.067z"/><path id="rect1246" d="M36.881 217.83h2.222v2.158h-2.222z"/><path id="rect1247" transform="rotate(90)" d="M217.76-64.44h2.222v6.453h-2.222z"/><path id="rect1248" d="M67.911 206.72h2.222v13.266h-2.222z"/><path id="rect1249" transform="rotate(90)" d="M217.76-80.765h2.222v12.229h-2.222z"/><path id="rect1250" d="M57.987 212.57h2.222v7.416h-2.222z"/><path id="rect1251" transform="translate(11.035)" d="M67.911 206.72h2.222v13.266h-2.222z"/><path id="rect1252" d="M73.391 206.72h2.222v13.266h-2.222z"/><path id="rect1253" transform="rotate(90 .005 .005)" d="M212-43.903h2.222v11.785H212z"/><path id="rect1254" transform="rotate(90)" d="M212-69.772h2.222v11.785H212z"/><path id="rect1255" d="M57.987 212.57h2.222v7.416h-2.222z"/><path id="rect1256" d="M57.987 212.57h2.222v7.416h-2.222z"/><path id="rect1257" d="M57.987 212.57h2.222v7.416h-2.222z"/><path id="rect1258" transform="translate(-.172)" d="M32.299 212.57h2.222v7.416h-2.222z"/><path id="rect1259" d="M51.082 212.57h2.222v7.416h-2.222z"/><path id="rect1260" d="M41.691 212.57h2.222v7.416h-2.222z"/><path id="rect1261" transform="rotate(90)" d="M217.76-52.641h2.222v9.962h-2.222z"/><path id="rect1262" transform="rotate(90)" d="M212-53.304h2.222v6.316H212z"/></g><g id="g1263" transform="translate(9.565 -170.71) scale(1.5197)" stroke-width="1pt" fill="#fff"><path id="rect1264" d="M32.067 206.72h32.289v2.222H32.067z"/><path id="rect1265" d="M36.881 217.83h2.222v2.158h-2.222z"/><path id="rect1266" transform="rotate(90)" d="M217.76-64.44h2.222v6.453h-2.222z"/><path id="rect1267" d="M67.911 206.72h2.222v13.266h-2.222z"/><path id="rect1268" transform="rotate(90)" d="M217.76-80.765h2.222v12.229h-2.222z"/><path id="rect1269" d="M57.987 212.57h2.222v7.416h-2.222z"/><path id="rect1270" transform="translate(11.035)" d="M67.911 206.72h2.222v13.266h-2.222z"/><path id="rect1271" d="M73.391 206.72h2.222v13.266h-2.222z"/><path id="rect1272" transform="rotate(90 .005 .005)" d="M212-43.903h2.222v11.785H212z"/><path id="rect1273" transform="rotate(90)" d="M212-69.772h2.222v11.785H212z"/><path id="rect1274" d="M57.987 212.57h2.222v7.416h-2.222z"/><path id="rect1275" d="M57.987 212.57h2.222v7.416h-2.222z"/><path id="rect1276" d="M57.987 212.57h2.222v7.416h-2.222z"/><path id="rect1277" transform="translate(-.172)" d="M32.299 212.57h2.222v7.416h-2.222z"/><path id="rect1278" d="M51.082 212.57h2.222v7.416h-2.222z"/><path id="rect1279" d="M41.691 212.57h2.222v7.416h-2.222z"/><path id="rect1280" transform="rotate(90)" d="M217.76-52.641h2.222v9.962h-2.222z"/><path id="rect1281" transform="rotate(90)" d="M212-53.304h2.222v6.316H212z"/></g><g id="g1282" transform="translate(573.95 -170.71) scale(1.5197)" stroke-width="1pt" fill="#fff"><path id="rect1283" d="M32.067 206.72h32.289v2.222H32.067z"/><path id="rect1284" d="M36.881 217.83h2.222v2.158h-2.222z"/><path id="rect1285" transform="rotate(90)" d="M217.76-64.44h2.222v6.453h-2.222z"/><path id="rect1286" d="M67.911 206.72h2.222v13.266h-2.222z"/><path id="rect1287" transform="rotate(90)" d="M217.76-80.765h2.222v12.229h-2.222z"/><path id="rect1288" d="M57.987 212.57h2.222v7.416h-2.222z"/><path id="rect1289" transform="translate(11.035)" d="M67.911 206.72h2.222v13.266h-2.222z"/><path id="rect1290" d="M73.391 206.72h2.222v13.266h-2.222z"/><path id="rect1291" transform="rotate(90 .005 .005)" d="M212-43.903h2.222v11.785H212z"/><path id="rect1292" transform="rotate(90)" d="M212-69.772h2.222v11.785H212z"/><path id="rect1293" d="M57.987 212.57h2.222v7.416h-2.222z"/><path id="rect1294" d="M57.987 212.57h2.222v7.416h-2.222z"/><path id="rect1295" d="M57.987 212.57h2.222v7.416h-2.222z"/><path id="rect1296" transform="translate(-.172)" d="M32.299 212.57h2.222v7.416h-2.222z"/><path id="rect1297" d="M51.082 212.57h2.222v7.416h-2.222z"/><path id="rect1298" d="M41.691 212.57h2.222v7.416h-2.222z"/><path id="rect1299" transform="rotate(90)" d="M217.76-52.641h2.222v9.962h-2.222z"/><path id="rect1300" transform="rotate(90)" d="M212-53.304h2.222v6.316H212z"/></g><g id="g1301" transform="translate(90.01 -170.71) scale(1.5197)" stroke-width="1pt" fill="#fff"><path id="rect1302" d="M32.067 206.72h32.289v2.222H32.067z"/><path id="rect1303" d="M36.881 217.83h2.222v2.158h-2.222z"/><path id="rect1304" transform="rotate(90)" d="M217.76-64.44h2.222v6.453h-2.222z"/><path id="rect1305" d="M67.911 206.72h2.222v13.266h-2.222z"/><path id="rect1306" transform="rotate(90)" d="M217.76-80.765h2.222v12.229h-2.222z"/><path id="rect1307" d="M57.987 212.57h2.222v7.416h-2.222z"/><path id="rect1308" transform="translate(11.035)" d="M67.911 206.72h2.222v13.266h-2.222z"/><path id="rect1309" d="M73.391 206.72h2.222v13.266h-2.222z"/><path id="rect1310" transform="rotate(90 .005 .005)" d="M212-43.903h2.222v11.785H212z"/><path id="rect1311" transform="rotate(90)" d="M212-69.772h2.222v11.785H212z"/><path id="rect1312" d="M57.987 212.57h2.222v7.416h-2.222z"/><path id="rect1313" d="M57.987 212.57h2.222v7.416h-2.222z"/><path id="rect1314" d="M57.987 212.57h2.222v7.416h-2.222z"/><path id="rect1315" transform="translate(-.172)" d="M32.299 212.57h2.222v7.416h-2.222z"/><path id="rect1316" d="M51.082 212.57h2.222v7.416h-2.222z"/><path id="rect1317" d="M41.691 212.57h2.222v7.416h-2.222z"/><path id="rect1318" transform="rotate(90)" d="M217.76-52.641h2.222v9.962h-2.222z"/><path id="rect1319" transform="rotate(90)" d="M212-53.304h2.222v6.316H212z"/></g><g id="g1320" transform="translate(170.75 -170.71) scale(1.5197)" stroke-width="1pt" fill="#fff"><path id="rect1321" d="M32.067 206.72h32.289v2.222H32.067z"/><path id="rect1322" d="M36.881 217.83h2.222v2.158h-2.222z"/><path id="rect1323" transform="rotate(90)" d="M217.76-64.44h2.222v6.453h-2.222z"/><path id="rect1324" d="M67.911 206.72h2.222v13.266h-2.222z"/><path id="rect1325" transform="rotate(90)" d="M217.76-80.765h2.222v12.229h-2.222z"/><path id="rect1326" d="M57.987 212.57h2.222v7.416h-2.222z"/><path id="rect1327" transform="translate(11.035)" d="M67.911 206.72h2.222v13.266h-2.222z"/><path id="rect1328" d="M73.391 206.72h2.222v13.266h-2.222z"/><path id="rect1329" transform="rotate(90 .005 .005)" d="M212-43.903h2.222v11.785H212z"/><path id="rect1330" transform="rotate(90)" d="M212-69.772h2.222v11.785H212z"/><path id="rect1331" d="M57.987 212.57h2.222v7.416h-2.222z"/><path id="rect1332" d="M57.987 212.57h2.222v7.416h-2.222z"/><path id="rect1333" d="M57.987 212.57h2.222v7.416h-2.222z"/><path id="rect1334" transform="translate(-.172)" d="M32.299 212.57h2.222v7.416h-2.222z"/><path id="rect1335" d="M51.082 212.57h2.222v7.416h-2.222z"/><path id="rect1336" d="M41.691 212.57h2.222v7.416h-2.222z"/><path id="rect1337" transform="rotate(90)" d="M217.76-52.641h2.222v9.962h-2.222z"/><path id="rect1338" transform="rotate(90)" d="M212-53.304h2.222v6.316H212z"/></g><g id="g1339" transform="translate(251.96 -170.71) scale(1.5197)" stroke-width="1pt" fill="#fff"><path id="rect1340" d="M32.067 206.72h32.289v2.222H32.067z"/><path id="rect1341" d="M36.881 217.83h2.222v2.158h-2.222z"/><path id="rect1342" transform="rotate(90)" d="M217.76-64.44h2.222v6.453h-2.222z"/><path id="rect1343" d="M67.911 206.72h2.222v13.266h-2.222z"/><path id="rect1344" transform="rotate(90)" d="M217.76-80.765h2.222v12.229h-2.222z"/><path id="rect1345" d="M57.987 212.57h2.222v7.416h-2.222z"/><path id="rect1346" transform="translate(11.035)" d="M67.911 206.72h2.222v13.266h-2.222z"/><path id="rect1347" d="M73.391 206.72h2.222v13.266h-2.222z"/><path id="rect1348" transform="rotate(90 .005 .005)" d="M212-43.903h2.222v11.785H212z"/><path id="rect1349" transform="rotate(90)" d="M212-69.772h2.222v11.785H212z"/><path id="rect1350" d="M57.987 212.57h2.222v7.416h-2.222z"/><path id="rect1351" d="M57.987 212.57h2.222v7.416h-2.222z"/><path id="rect1352" d="M57.987 212.57h2.222v7.416h-2.222z"/><path id="rect1353" transform="translate(-.172)" d="M32.299 212.57h2.222v7.416h-2.222z"/><path id="rect1354" d="M51.082 212.57h2.222v7.416h-2.222z"/><path id="rect1355" d="M41.691 212.57h2.222v7.416h-2.222z"/><path id="rect1356" transform="rotate(90)" d="M217.76-52.641h2.222v9.962h-2.222z"/><path id="rect1357" transform="rotate(90)" d="M212-53.304h2.222v6.316H212z"/></g><g id="g1358" transform="translate(332.69 -170.71) scale(1.5197)" stroke-width="1pt" fill="#fff"><path id="rect1359" d="M32.067 206.72h32.289v2.222H32.067z"/><path id="rect1360" d="M36.881 217.83h2.222v2.158h-2.222z"/><path id="rect1361" transform="rotate(90)" d="M217.76-64.44h2.222v6.453h-2.222z"/><path id="rect1362" d="M67.911 206.72h2.222v13.266h-2.222z"/><path id="rect1363" transform="rotate(90)" d="M217.76-80.765h2.222v12.229h-2.222z"/><path id="rect1364" d="M57.987 212.57h2.222v7.416h-2.222z"/><path id="rect1365" transform="translate(11.035)" d="M67.911 206.72h2.222v13.266h-2.222z"/><path id="rect1366" d="M73.391 206.72h2.222v13.266h-2.222z"/><path id="rect1367" transform="rotate(90 .005 .005)" d="M212-43.903h2.222v11.785H212z"/><path id="rect1368" transform="rotate(90)" d="M212-69.772h2.222v11.785H212z"/><path id="rect1369" d="M57.987 212.57h2.222v7.416h-2.222z"/><path id="rect1370" d="M57.987 212.57h2.222v7.416h-2.222z"/><path id="rect1371" d="M57.987 212.57h2.222v7.416h-2.222z"/><path id="rect1372" transform="translate(-.172)" d="M32.299 212.57h2.222v7.416h-2.222z"/><path id="rect1373" d="M51.082 212.57h2.222v7.416h-2.222z"/><path id="rect1374" d="M41.691 212.57h2.222v7.416h-2.222z"/><path id="rect1375" transform="rotate(90)" d="M217.76-52.641h2.222v9.962h-2.222z"/><path id="rect1376" transform="rotate(90)" d="M212-53.304h2.222v6.316H212z"/></g><g id="g1377" transform="translate(413.43 -170.71) scale(1.5197)" stroke-width="1pt" fill="#fff"><path id="rect1378" d="M32.067 206.72h32.289v2.222H32.067z"/><path id="rect1379" d="M36.881 217.83h2.222v2.158h-2.222z"/><path id="rect1380" transform="rotate(90)" d="M217.76-64.44h2.222v6.453h-2.222z"/><path id="rect1381" d="M67.911 206.72h2.222v13.266h-2.222z"/><path id="rect1382" transform="rotate(90)" d="M217.76-80.765h2.222v12.229h-2.222z"/><path id="rect1383" d="M57.987 212.57h2.222v7.416h-2.222z"/><path id="rect1384" transform="translate(11.035)" d="M67.911 206.72h2.222v13.266h-2.222z"/><path id="rect1385" d="M73.391 206.72h2.222v13.266h-2.222z"/><path id="rect1386" transform="rotate(90 .005 .005)" d="M212-43.903h2.222v11.785H212z"/><path id="rect1387" transform="rotate(90)" d="M212-69.772h2.222v11.785H212z"/><path id="rect1388" d="M57.987 212.57h2.222v7.416h-2.222z"/><path id="rect1389" d="M57.987 212.57h2.222v7.416h-2.222z"/><path id="rect1390" d="M57.987 212.57h2.222v7.416h-2.222z"/><path id="rect1391" transform="translate(-.172)" d="M32.299 212.57h2.222v7.416h-2.222z"/><path id="rect1392" d="M51.082 212.57h2.222v7.416h-2.222z"/><path id="rect1393" d="M41.691 212.57h2.222v7.416h-2.222z"/><path id="rect1394" transform="rotate(90)" d="M217.76-52.641h2.222v9.962h-2.222z"/><path id="rect1395" transform="rotate(90)" d="M212-53.304h2.222v6.316H212z"/></g><g id="g1396" transform="translate(494.64 -170.71) scale(1.5197)" stroke-width="1pt" fill="#fff"><path id="rect1397" d="M32.067 206.72h32.289v2.222H32.067z"/><path id="rect1398" d="M36.881 217.83h2.222v2.158h-2.222z"/><path id="rect1399" transform="rotate(90)" d="M217.76-64.44h2.222v6.453h-2.222z"/><path id="rect1400" d="M67.911 206.72h2.222v13.266h-2.222z"/><path id="rect1401" transform="rotate(90)" d="M217.76-80.765h2.222v12.229h-2.222z"/><path id="rect1402" d="M57.987 212.57h2.222v7.416h-2.222z"/><path id="rect1403" transform="translate(11.035)" d="M67.911 206.72h2.222v13.266h-2.222z"/><path id="rect1404" d="M73.391 206.72h2.222v13.266h-2.222z"/><path id="rect1405" transform="rotate(90 .005 .005)" d="M212-43.903h2.222v11.785H212z"/><path id="rect1406" transform="rotate(90)" d="M212-69.772h2.222v11.785H212z"/><path id="rect1407" d="M57.987 212.57h2.222v7.416h-2.222z"/><path id="rect1408" d="M57.987 212.57h2.222v7.416h-2.222z"/><path id="rect1409" d="M57.987 212.57h2.222v7.416h-2.222z"/><path id="rect1410" transform="translate(-.172)" d="M32.299 212.57h2.222v7.416h-2.222z"/><path id="rect1411" d="M51.082 212.57h2.222v7.416h-2.222z"/><path id="rect1412" d="M41.691 212.57h2.222v7.416h-2.222z"/><path id="rect1413" transform="rotate(90)" d="M217.76-52.641h2.222v9.962h-2.222z"/><path id="rect1414" transform="rotate(90)" d="M212-53.304h2.222v6.316H212z"/></g><g id="g1415" transform="translate(-232.52 -170.71) scale(1.5197)" stroke-width="1pt" fill="#fff"><path id="rect1416" d="M32.067 206.72h32.289v2.222H32.067z"/><path id="rect1417" d="M36.881 217.83h2.222v2.158h-2.222z"/><path id="rect1418" transform="rotate(90)" d="M217.76-64.44h2.222v6.453h-2.222z"/><path id="rect1419" d="M67.911 206.72h2.222v13.266h-2.222z"/><path id="rect1420" transform="rotate(90)" d="M217.76-80.765h2.222v12.229h-2.222z"/><path id="rect1421" d="M57.987 212.57h2.222v7.416h-2.222z"/><path id="rect1422" transform="translate(11.035)" d="M67.911 206.72h2.222v13.266h-2.222z"/><path id="rect1423" d="M73.391 206.72h2.222v13.266h-2.222z"/><path id="rect1424" transform="rotate(90 .005 .005)" d="M212-43.903h2.222v11.785H212z"/><path id="rect1425" transform="rotate(90)" d="M212-69.772h2.222v11.785H212z"/><path id="rect1426" d="M57.987 212.57h2.222v7.416h-2.222z"/><path id="rect1427" d="M57.987 212.57h2.222v7.416h-2.222z"/><path id="rect1428" d="M57.987 212.57h2.222v7.416h-2.222z"/><path id="rect1429" transform="translate(-.172)" d="M32.299 212.57h2.222v7.416h-2.222z"/><path id="rect1430" d="M51.082 212.57h2.222v7.416h-2.222z"/><path id="rect1431" d="M41.691 212.57h2.222v7.416h-2.222z"/><path id="rect1432" transform="rotate(90)" d="M217.76-52.641h2.222v9.962h-2.222z"/><path id="rect1433" transform="rotate(90)" d="M212-53.304h2.222v6.316H212z"/></g><g id="g1668" transform="translate(-191.96 176.9) scale(1.0321)" stroke-width="1pt" fill="#d90000"><path id="rect1224" d="M119.3 157.55h5.86v10.178h-5.86z"/><path id="rect1645" d="M274.84 157.55h5.86v10.178h-5.86z"/><path id="rect1646" d="M-.042 157.55h5.86v10.178h-5.86z"/><path id="rect1647" transform="translate(39.591)" d="M39.308 157.55h5.86v10.178h-5.86z"/><path id="rect1648" transform="translate(117.97)" d="M39.308 157.55h5.86v10.178h-5.86z"/><path id="rect1649" transform="translate(156.75)" d="M39.308 157.55h5.86v10.178h-5.86z"/><path id="rect1650" transform="translate(196.34)" d="M39.308 157.55h5.86v10.178h-5.86z"/><path id="rect1651" d="M313.62 157.55h5.86v10.178h-5.86z"/><path id="rect1652" d="M510.36 157.55h5.86v10.178h-5.86z"/><path id="rect1653" transform="translate(313.9)" d="M39.308 157.55h5.86v10.178h-5.86z"/><path id="rect1654" transform="translate(352.69)" d="M39.308 157.55h5.86v10.178h-5.86z"/><path id="rect1655" transform="translate(391.87)" d="M39.308 157.55h5.86v10.178h-5.86z"/><path id="rect1656" transform="translate(431.06)" d="M39.308 157.55h5.86v10.178h-5.86z"/><path id="rect1657" d="M783.46 157.55h5.86v10.178h-5.86z"/><path id="rect1658" transform="translate(509.03)" d="M39.308 157.55h5.86v10.178h-5.86z"/><path id="rect1659" transform="translate(548.62)" d="M39.308 157.55h5.86v10.178h-5.86z"/><path id="rect1660" transform="translate(588.62)" d="M39.308 157.55h5.86v10.178h-5.86z"/><path id="rect1661" transform="translate(626.19)" d="M39.308 157.55h5.86v10.178h-5.86z"/><path id="rect1662" transform="translate(666.18)" d="M39.308 157.55h5.86v10.178h-5.86z"/><path id="rect1663" transform="translate(705.37)" d="M39.308 157.55h5.86v10.178h-5.86z"/><path id="rect1664" d="M860.63 157.55h5.86v10.178h-5.86z"/><path id="rect1665" transform="translate(783.75)" d="M39.308 157.55h5.86v10.178h-5.86z"/><path id="rect1667" d="M39.308 157.55h5.86v10.178h-5.86z"/></g><g id="g1692" transform="translate(-191.96) scale(1.0321)" stroke-width="1pt" fill="#239e3f"><path id="rect1693" d="M119.3 157.55h5.86v10.178h-5.86z"/><path id="rect1694" d="M274.84 157.55h5.86v10.178h-5.86z"/><path id="rect1695" d="M-.042 157.55h5.86v10.178h-5.86z"/><path id="rect1696" transform="translate(39.591)" d="M39.308 157.55h5.86v10.178h-5.86z"/><path id="rect1697" transform="translate(117.97)" d="M39.308 157.55h5.86v10.178h-5.86z"/><path id="rect1698" transform="translate(156.75)" d="M39.308 157.55h5.86v10.178h-5.86z"/><path id="rect1699" transform="translate(196.34)" d="M39.308 157.55h5.86v10.178h-5.86z"/><path id="rect1700" d="M313.62 157.55h5.86v10.178h-5.86z"/><path id="rect1701" d="M510.36 157.55h5.86v10.178h-5.86z"/><path id="rect1702" transform="translate(313.9)" d="M39.308 157.55h5.86v10.178h-5.86z"/><path id="rect1703" transform="translate(352.69)" d="M39.308 157.55h5.86v10.178h-5.86z"/><path id="rect1704" transform="translate(391.87)" d="M39.308 157.55h5.86v10.178h-5.86z"/><path id="rect1705" transform="translate(431.06)" d="M39.308 157.55h5.86v10.178h-5.86z"/><path id="rect1706" d="M783.46 157.55h5.86v10.178h-5.86z"/><path id="rect1707" transform="translate(509.03)" d="M39.308 157.55h5.86v10.178h-5.86z"/><path id="rect1708" transform="translate(548.62)" d="M39.308 157.55h5.86v10.178h-5.86z"/><path id="rect1709" transform="translate(588.62)" d="M39.308 157.55h5.86v10.178h-5.86z"/><path id="rect1710" transform="translate(626.19)" d="M39.308 157.55h5.86v10.178h-5.86z"/><path id="rect1711" transform="translate(666.18)" d="M39.308 157.55h5.86v10.178h-5.86z"/><path id="rect1712" transform="translate(705.37)" d="M39.308 157.55h5.86v10.178h-5.86z"/><path id="rect1713" d="M860.63 157.55h5.86v10.178h-5.86z"/><path id="rect1714" transform="translate(783.75)" d="M39.308 157.55h5.86v10.178h-5.86z"/><path id="rect1715" d="M39.308 157.55h5.86v10.178h-5.86z"/></g><g id="g1043" fill="#da0000" transform="translate(-179.65 -532.01) scale(1.0321)"><path id="path1928" d="M445.16 706.81c8.19 10.039 33.438 65.548-15.241 101.91-22.884 17.223-8.714 18.093-8.037 20.988 36.785-19.539 48.799-46.013 48.52-69.727-.28-23.715-12.853-44.669-25.242-53.167z"/><path id="path1929" d="M450.03 704.23c18.166 9.301 57.701 56.079 15.149 108.85 26.439-5.868 60.053-83.729-15.149-108.85z"/><path id="path1930" d="M394.24 704.23c-18.166 9.301-57.701 56.079-15.149 108.85-26.439-5.868-60.053-83.729 15.149-108.85z"/><path id="path1931" d="M399.04 706.81c-8.19 10.039-33.438 65.548 15.241 101.91 22.884 17.223 8.714 18.093 8.037 20.988-36.785-19.539-48.799-46.013-48.52-69.727.28-23.715 12.853-44.669 25.242-53.167z"/><path id="path1932" d="M468.8 824.65c-14.398.228-32.549-1.984-46.01-8.979 2.217 4.311 4.059 7.026 6.276 11.337 12.838 1.184 30.554 2.649 39.734-2.358z"/><path id="path1933" d="M376.78 824.65c14.398.228 32.549-1.984 46.01-8.979-2.217 4.311-4.059 7.026-6.276 11.337-12.838 1.184-30.554 2.649-39.734-2.358z"/><path id="path1934" d="M403.19 690.25c2.917 7.753 10.57 8.88 18.762 4.315 5.97 3.582 15.202 3.809 18.386-3.94 2.421 19.169-17.736 14.634-18.487 10.882-7.504 7.254-21.475 3.064-18.661-11.257z"/><path id="path1042" d="M422.49 836.72l7.57-8.652 1.082-116.44-9.012-7.931-9.012 7.57 1.802 117.16 7.57 8.291z"/></g></g></svg>