<svg id="svg548" xmlns="http://www.w3.org/2000/svg" height="480" width="640"><defs id="defs550"><clipPath id="clipPath5873"><path id="rect5875" fill-opacity=".67" d="M-84.325-2.11h685.48V512h-685.48z"/></clipPath></defs><g id="flag" clip-path="url(#clipPath5873)" fill-rule="evenodd" transform="translate(78.73 1.97) scale(.93365)"><path id="rect551" fill="#fff" d="M-116.04 1.136h750.87v509.73h-750.87z"/><path id="rect552" stroke-width="1pt" fill="#008900" d="M-116.04 364.96h750.87V512h-750.87z"/><path id="rect553" stroke-width="1pt" fill="#c23743" d="M-118 185.42h750.87v147.04H-118z"/><path id="rect554" stroke-width="1pt" d="M-116.04-2.11h750.87v160.08h-750.87z"/><path id="path565" d="M158.63 436.28c37.957-70.646 165.2-304.64 163.95-305.32-20.81-12.213 16.82-30.975 44.455-74.966-19.688 47.28-17.599 91.404-37.812 78.702-33.616 63.449-137.53 257.39-163.36 305.3-2.736-1.47-3.54-2.069-7.228-3.712z" stroke="#000" stroke-width="1.081" fill="#fff"/><path id="path568" d="M349.01 439.05c-37.96-70.64-165.21-304.64-163.95-305.32 20.81-12.213-16.82-30.975-44.455-74.966 19.688 47.28 17.599 91.404 37.812 78.702 33.616 63.449 137.53 257.39 163.36 305.3 2.736-1.47 3.54-2.069 7.228-3.712z" stroke="#000" stroke-width="1.081" fill="#fff"/><path id="path555" d="M252.53 85.435c119.59 84.303 117.63 288.19 0 358.77-109.79-74.5-125.47-276.43 0-358.77z" stroke="#000" stroke-width="1.136" fill="#c23743"/><path id="path557" d="M359.93 494.67c0 4.112-2.174 7.445-4.855 7.445-2.682 0-4.855-3.334-4.855-7.445s2.173-7.445 4.855-7.445c2.681 0 4.855 3.334 4.855 7.445z" transform="translate(-821.82 -1237.2) scale(3.0285)" fill="#fffffb"/><path id="path558" d="M251.78 93.278c33.627 32.534 33.075 111.22 0 138.46-30.87-28.751-35.28-106.68 0-138.46z" stroke="#000" stroke-width=".374" fill="#fff"/><path id="path559" d="M251.78 297.17c33.627 32.534 33.075 111.22 0 138.46-30.87-28.751-35.28-106.68 0-138.46z" stroke="#000" stroke-width=".374" fill="#fff"/><path id="rect560" stroke-width="1pt" fill="#c23743" d="M244.69 93.279h13.723v141.16H244.69z"/><path id="rect561" stroke-width="1pt" fill="#c23743" d="M246.65 295.21h13.723v141.16H246.65z"/><path id="path562" d="M179.28 181.5c20.401 37.985 20.067 129.85 0 161.66-18.729-33.568-21.405-124.55 0-161.66z" stroke="#000" stroke-width=".315"/><path id="path563" d="M328.28 183.46c20.401 37.985 20.067 129.85 0 161.66-18.729-33.568-21.405-124.55 0-161.66z" stroke="#000" stroke-width=".315"/></g></svg>