<svg id="svg548" xmlns="http://www.w3.org/2000/svg" height="480" width="640" version="1"><defs id="defs550"><clipPath id="clipPath5675"><path id="rect5677" fill-opacity=".67" d="M-85.333 0h682.67v512h-682.67z"/></clipPath></defs><g id="flag" fill-rule="evenodd" clip-path="url(#clipPath5675)" transform="translate(80) scale(.9375)"><path id="rect815" stroke-width="1pt" fill="#1b0073" d="M-128 0h768v512h-768z"/><path id="rect837" stroke-width="1pt" fill="#e60006" d="M-128 128h768v256h-768z"/><g id="g1595" stroke="#e60000" fill="#fff" transform="translate(-128) scale(1.0321)"><path id="rect1035" stroke-width="1.17" d="M214.37 240.35h315.35v50.992H214.37z"/><path id="path632" d="M220 280l-5 15h320l-5-15H220z" transform="matrix(1.0187 0 0 .79988 -9.965 67.378)" stroke-width="1.25"/><path id="path982" d="M245 280l-5 15h60l-5-15h-50z" transform="matrix(1.2359 0 0 .79988 160.47 67.379)" stroke-width="1.123"/><path id="path983" d="M245 280l-5 15h60l-5-15h-50z" transform="matrix(.62245 0 0 .79988 328.64 67.379)" stroke-width="1.52"/><path id="path984" d="M245 280l-5 15h60l-5-15h-50z" transform="matrix(.40229 0 0 .79988 388.1 67.379)" stroke-width="2.024"/><path id="path636" d="M245 280l-5 15h60l-5-15h-50z" transform="matrix(1.2992 0 0 .79988 21.26 67.378)" stroke-width="1.098"/><path id="rect976" stroke-width="1.265" d="M212.6 239.58h318.9v11.998H212.6z"/><g id="g1527"><path id="rect1001" stroke-width="1.191" d="M462.79 240.46h62.5v50.792h-62.5z"/><path id="rect637" stroke-width=".805" d="M507.5 264.262h6.25v26.986h-6.25z"/><path id="rect639" stroke-width=".805" d="M480 264.262h6.25v26.986H480z"/></g><g id="g1517"><path id="path637" d="M245 280l-5 15h60l-5-15h-50z" transform="matrix(.65261 0 0 .79988 195.63 67.378)" stroke-width="1.554"/><path id="path638" d="M245 280l-5 15h60l-5-15h-50z" transform="matrix(.40931 0 0 .79988 261.53 67.378)" stroke-width="1.956"/><path id="rect1003" stroke-width="1.225" d="M338.8 240.35h65.854v50.992H338.8z"/><path id="rect683" stroke-width="1.04" d="M391.27 264.258h6.25v26.986h-6.25z"/><path id="rect686" stroke-width="1.04" d="M347.78 264.255h6.254v26.986h-6.254z"/><path id="rect687" stroke-width=".95" d="M356.1 228.01h31.89v63.32H356.1z"/><path id="rect684" stroke-width="1.04" d="M380.02 264.256h6.25v26.986h-6.25z"/><path id="rect685" stroke-width="1.04" d="M359.03 264.257h6.254v26.986h-6.254z"/><path id="path759" d="M358.18 217.13l13.471 22.98 14.264-22.98H358.18z" transform="matrix(1 0 0 .84654 0 54.377)" stroke-width="1pt"/></g><path id="rect1033" stroke-width="1.179" d="M487.59 240.35h17.717v62.99H487.59z"/><path id="rect1034" stroke-width="1.178" d="M490.54 240.35h11.799v62.99H490.54z"/><g id="g1508"><path id="path635" d="M245 280l-5 15h60l-5-15h-50z" transform="matrix(1.236 0 0 .79988 -84.448 67.379)" stroke-width="1.123"/><path id="path634" d="M245 280l-5 15h60l-5-15h-50z" transform="matrix(.5811 0 0 .79988 90.856 67.379)" stroke-width="1.637"/><path id="path633" d="M245 280l-5 15h60l-5-15h-50z" transform="matrix(.37077 0 0 .79988 147.56 67.379)" stroke-width="2.049"/><path id="rect1000" stroke-width="1.189" d="M217.91 240.35h62.008v50.992H217.91z"/><path id="rect635" stroke-width=".805" d="M230 264.264h6.25v26.986H230z"/><path id="rect638" stroke-width=".805" d="M258.75 264.265H265v26.986h-6.25z"/><path id="rect986" stroke-width="1.179" d="M239.17 240.35h17.717v62.99H239.17z"/><path id="rect987" stroke-width="1.178" d="M242.11 240.35h11.799v62.99H242.11z"/></g><path id="rect726" stroke-width="1.279" d="M209.06 228.35h325.98v11.998H209.06z"/><g id="g598" transform="matrix(1 0 0 .84654 0 54.377)"><g id="g557" transform="matrix(1.0466 0 0 1.0413 -36.796 -6.024)"><path id="rect551" stroke-width="1pt" d="M187.5 328.56h406.25v17.5H187.5z"/><path id="rect556" stroke-width="1.197" d="M226.25 284.81h327.5v17.5h-327.5z"/><path id="rect555" stroke-width="1.215" d="M221.25 288.56h337.5v17.5h-337.5z"/><path id="rect552" stroke-width="1pt" d="M187.5 328.56h406.25v17.5H187.5z"/><path id="rect554" stroke-width="1.249" d="M212.5 298.56h356.25v17.5H212.5z"/><path id="rect553" stroke-width="1.292" d="M200 311.06h381.25v17.5H200z"/></g><g id="g615" transform="matrix(.94488 0 0 1.0205 -32.48 1.183)"><path id="rect613" stroke-width="1.373" d="M287.5 283.56h18.75v62.5H287.5z"/><path id="rect614" stroke-width="1.121" d="M290.62 283.56h12.5v62.5h-12.5z"/></g><g id="g621" transform="matrix(.94488 0 0 1.0205 215.55 1.183)"><path id="rect622" stroke-width="1.373" d="M287.5 283.56h18.75v62.5H287.5z"/><path id="rect623" stroke-width="1.121" d="M290.62 283.56h12.5v62.5h-12.5z"/></g></g><path id="rect626" stroke-width="1.201" d="M365.5 240.35h14.239v113.98H365.5z"/><g id="g1531"><path id="path801" d="M217.92 220.3l.184-36.915s3.362 7.236 29.512 8.821c24.749-.937 28.848-5.362 29.969-9.284l-1.025 37.515-58.64-.137z" transform="matrix(.94365 0 0 .84654 261.19 54.377)" stroke-width="1pt"/><g id="g892" transform="translate(246.55 2.241)"><path id="path893" d="M330.92 208.56l-18.42-20.45c6.141-5.303 17.543 3.789 17.543 3.789s6.14-23.485 32.457-33.334c26.316 9.849 32.456 33.334 32.456 33.334s11.403-9.092 17.544-3.789l-18.422 20.455h-63.157z" transform="matrix(.41468 0 0 .29996 99.014 139.48)" stroke-width="3.528"/><path id="path894" d="M330.92 208.56l-18.42-20.45c6.141-5.303 17.543 3.789 17.543 3.789s6.14-23.485 32.457-33.334c26.316 9.849 32.456 33.334 32.456 33.334s11.403-9.092 17.544-3.789l-18.422 20.455h-63.157z" transform="matrix(.53908 0 0 .41994 53.919 130.35)" stroke-width="2.615"/></g><g id="g727" transform="matrix(1.0205 0 0 1.1198 221.61 77.956)"><path id="path728" d="M0 280.52c.792 0 30.112 52.301 0 53.093-30.112.793 0-51.508 0-53.093z" transform="matrix(.3866 0 0 .35309 268.92 -29.035)" stroke-width="3.383"/><path id="path729" d="M330.92 208.56l-18.42-20.45c6.141-5.303 17.543 3.789 17.543 3.789s6.14-23.485 32.457-33.334c26.316 9.849 32.456 33.334 32.456 33.334s11.403-9.092 17.544-3.789l-18.422 20.455h-63.157z" transform="matrix(.3125 0 0 .14062 155.67 64.124)" stroke-width="5.963"/><path id="path730" d="M330.92 208.56l-.878-16.666s6.14-23.485 32.457-33.334c26.316 9.849 32.456 33.334 32.456 33.334l-.878 16.666H330.92z" transform="matrix(.16047 0 0 .14062 210.78 66.467)" stroke-width="8.321"/><path id="path731" d="M330.92 208.56l-.878-16.666s6.14-23.485 32.457-33.334c26.316 9.849 32.456 33.334 32.456 33.334l-.878 16.666H330.92z" transform="matrix(.32094 0 0 .1875 152.61 63.722)" stroke-width="5.096"/><path id="path732" d="M330.92 208.56l-.878-16.666s6.14-23.485 32.457-33.334c26.316 9.849 32.456 33.334 32.456 33.334l-.878 16.666H330.92z" transform="matrix(.32094 0 0 .1875 152.61 68.41)" stroke-width="5.096"/><path id="path733" d="M330.92 208.56l-18.42-20.45c6.141-5.303 17.543 3.789 17.543 3.789s6.14-23.485 32.457-33.334c26.316 9.849 32.456 33.334 32.456 33.334s11.403-9.092 17.544-3.789l-18.422 20.455h-63.157z" transform="matrix(.3125 0 0 .375 155.67 43.367)" stroke-width="3.651"/><path id="path734" d="M330.92 208.56l-18.42-20.45c6.141-5.303 17.543 3.789 17.543 3.789s6.14-23.485 32.457-33.334c26.316 9.849 32.456 33.334 32.456 33.334s11.403-9.092 17.544-3.789l-18.422 20.455h-63.157z" transform="matrix(.3125 0 0 .375 155.67 52.742)" stroke-width="3.651"/><path id="path735" d="M330.92 208.56l-.878-16.666s6.14-23.485 32.457-33.334c26.316 9.849 32.456 33.334 32.456 33.334l-.878 16.666H330.92z" transform="matrix(.32094 0 0 .46875 152.61 47.251)" stroke-width="3.223"/><path id="path736" d="M330.92 208.56l-18.42-20.45c6.141-5.303 17.543 3.789 17.543 3.789s6.14-23.485 32.457-33.334c26.316 9.849 32.456 33.334 32.456 33.334s11.403-9.092 17.544-3.789l-18.422 20.455h-63.157z" transform="matrix(.3125 0 0 .28125 155.67 86.357)" stroke-width="4.216"/></g></g><g id="g1546"><g id="g889" transform="translate(-1.12)"><path id="path874" d="M330.92 208.56l-18.42-20.45c6.141-5.303 17.543 3.789 17.543 3.789s6.14-23.485 32.457-33.334c26.316 9.849 32.456 33.334 32.456 33.334s11.403-9.092 17.544-3.789l-18.422 20.455h-63.157z" transform="matrix(.41468 0 0 .29996 99.014 139.48)" stroke-width="3.528"/><path id="path879" d="M330.92 208.56l-18.42-20.45c6.141-5.303 17.543 3.789 17.543 3.789s6.14-23.485 32.457-33.334c26.316 9.849 32.456 33.334 32.456 33.334s11.403-9.092 17.544-3.789l-18.422 20.455h-63.157z" transform="matrix(.53908 0 0 .41994 53.919 130.35)" stroke-width="2.615"/></g><path id="path800" d="M217.92 220.3l.184-36.915s3.362 7.236 29.512 8.821c24.749-.937 28.848-5.362 29.969-9.284l-1.025 37.515-58.64-.137z" transform="matrix(.94365 0 0 .84654 15.641 54.377)" stroke-width="1pt"/><g id="g603" transform="matrix(1.0205 0 0 1.1198 -26.424 77.956)"><path id="path583" d="M0 280.52c.792 0 30.112 52.301 0 53.093-30.112.793 0-51.508 0-53.093z" transform="matrix(.3866 0 0 .35309 268.92 -29.035)" stroke-width="3.383"/><path id="path582" d="M330.92 208.56l-18.42-20.45c6.141-5.303 17.543 3.789 17.543 3.789s6.14-23.485 32.457-33.334c26.316 9.849 32.456 33.334 32.456 33.334s11.403-9.092 17.544-3.789l-18.422 20.455h-63.157z" transform="matrix(.3125 0 0 .14062 155.67 64.124)" stroke-width="5.963"/><path id="path581" d="M330.92 208.56l-.878-16.666s6.14-23.485 32.457-33.334c26.316 9.849 32.456 33.334 32.456 33.334l-.878 16.666H330.92z" transform="matrix(.16047 0 0 .14062 210.78 66.467)" stroke-width="8.321"/><path id="path580" d="M330.92 208.56l-.878-16.666s6.14-23.485 32.457-33.334c26.316 9.849 32.456 33.334 32.456 33.334l-.878 16.666H330.92z" transform="matrix(.32094 0 0 .1875 152.61 63.722)" stroke-width="5.096"/><path id="path579" d="M330.92 208.56l-.878-16.666s6.14-23.485 32.457-33.334c26.316 9.849 32.456 33.334 32.456 33.334l-.878 16.666H330.92z" transform="matrix(.32094 0 0 .1875 152.61 68.41)" stroke-width="5.096"/><path id="path576" d="M330.92 208.56l-18.42-20.45c6.141-5.303 17.543 3.789 17.543 3.789s6.14-23.485 32.457-33.334c26.316 9.849 32.456 33.334 32.456 33.334s11.403-9.092 17.544-3.789l-18.422 20.455h-63.157z" transform="matrix(.3125 0 0 .375 155.67 43.367)" stroke-width="3.651"/><path id="path575" d="M330.92 208.56l-18.42-20.45c6.141-5.303 17.543 3.789 17.543 3.789s6.14-23.485 32.457-33.334c26.316 9.849 32.456 33.334 32.456 33.334s11.403-9.092 17.544-3.789l-18.422 20.455h-63.157z" transform="matrix(.3125 0 0 .375 155.67 52.742)" stroke-width="3.651"/><path id="path578" d="M330.92 208.56l-.878-16.666s6.14-23.485 32.457-33.334c26.316 9.849 32.456 33.334 32.456 33.334l-.878 16.666H330.92z" transform="matrix(.32094 0 0 .46875 152.61 47.251)" stroke-width="3.223"/><path id="path574" d="M330.92 208.56l-18.42-20.45c6.141-5.303 17.543 3.789 17.543 3.789s6.14-23.485 32.457-33.334c26.316 9.849 32.456 33.334 32.456 33.334s11.403-9.092 17.544-3.789l-18.422 20.455h-63.157z" transform="matrix(.3125 0 0 .28125 155.67 86.357)" stroke-width="4.216"/></g></g><g id="g1561"><rect id="rect901" ry="6.449" height="12.898" width="85.039" y="226.28" x="329.53" stroke-width="1.226"/><path id="path900" d="M353.24-212.6l1.093-56.693s-3.28 13.906-13.123 13.906H190.29c-9.843 0-13.124-13.906-13.124-13.906l1.093 56.693h174.98z" transform="matrix(.5 0 0 .75 239.17 393.31)" stroke-width="1.579"/><g id="g860" transform="translate(0 -7.79)"><path id="path807" d="M510.49 70.219l.41-25.609s23.557-2.998 20.288-9.332c-3.27-6.333-31.604 7.986-31.604 7.986h-113.34s-28.335-14.32-31.604-7.986c-3.269 6.334 20.288 9.332 20.288 9.332l.408 25.609h135.15z" transform="matrix(.4 0 0 .57434 194.88 182.02)" stroke-width="2.4"/><path id="path806" d="M510.49 70.219l.41-25.609s23.557-2.998 20.288-9.332c-3.27-6.333-31.604 7.986-31.604 7.986h-113.34s-28.335-14.32-31.604-7.986c-3.269 6.334 20.288 9.332 20.288 9.332l.408 25.609h135.15z" transform="matrix(.48 0 0 .57434 159.45 194.02)" stroke-width="2.19"/><path id="path814" d="M510.49 70.219l.41-25.609s23.557-2.999 20.288-9.332c-3.27-6.333-27.29-18.36-61.81-31.08-24.29-5.905 31.26-26.346-21.07-27.709-48.02.757-5.42 23.318-21.07 28.618-38.84 11.81-69.33 23.838-72.6 30.171-3.27 6.334 20.29 9.332 20.29 9.332l.408 25.61h135.15z" transform="matrix(.12985 0 0 .26106 314.17 141.87)" stroke-width="6.247"/><path id="path808" d="M510.49 70.219l.41-25.609s23.557-2.998 20.288-9.332c-3.27-6.333-31.604 7.986-31.604 7.986h-113.34s-28.335-14.32-31.604-7.986c-3.269 6.334 20.288 9.332 20.288 9.332l.408 25.609h135.15z" transform="matrix(.28332 0 0 .46992 246.55 164.54)" stroke-width="3.152"/><path id="path809" d="M510.49 70.219l.41-25.609s23.557-2.998 20.288-9.332c-3.27-6.333-31.604 7.986-31.604 7.986h-113.34s-28.335-14.32-31.604-7.986c-3.269 6.334 20.288 9.332 20.288 9.332l.408 25.609h135.15z" transform="matrix(.34 0 0 .46992 221.46 174.36)" stroke-width="2.877"/><path id="path810" d="M510.49 70.219l.41-25.609s23.557-2.998 20.288-9.332c-3.27-6.333-31.604 7.986-31.604 7.986h-113.34s-28.335-14.32-31.604-7.986c-3.269 6.334 20.288 9.332 20.288 9.332l.408 25.609h135.15z" transform="matrix(.18333 0 0 .31908 290.85 157.28)" stroke-width="4.755"/><path id="path811" d="M510.49 70.219l.41-25.609s23.557-2.998 20.288-9.332c-3.27-6.333-31.604 7.986-31.604 7.986h-113.34s-28.335-14.32-31.604-7.986c-3.269 6.334 20.288 9.332 20.288 9.332l.408 25.609h135.15z" transform="matrix(.22 0 0 .31908 274.61 163.95)" stroke-width="4.341"/><path id="path812" d="M510.49 70.219l.41-25.609s23.557-2.998 20.288-9.332c-3.27-6.333-31.604 7.986-31.604 7.986h-113.34s-28.335-14.32-31.604-7.986c-3.269 6.334 20.288 9.332 20.288 9.332l.408 25.609h135.15z" transform="matrix(.12985 0 0 .26106 314.53 147.57)" stroke-width="6.247"/><path id="path813" d="M510.49 70.219l.41-25.609s23.557-2.998 20.288-9.332c-3.27-6.333-31.604 7.986-31.604 7.986h-113.34s-28.335-14.32-31.604-7.986c-3.269 6.334 20.288 9.332 20.288 9.332l.408 25.609h135.15z" transform="matrix(.15583 0 0 .26106 303.03 153.03)" stroke-width="5.702"/></g><g id="g789" transform="matrix(1 0 0 .84654 0 54.377)"><path id="path767" d="M330.92 208.56l-18.42-20.45c6.141-5.303 17.543 3.789 17.543 3.789s6.14-23.485 32.457-33.334c26.316 9.849 32.456 33.334 32.456 33.334s11.403-9.092 17.544-3.789l-18.422 20.455h-63.157z" transform="matrix(.17717 0 0 .2126 307.82 85.004)" stroke-width="5.444"/><path id="path766" d="M330.92 208.56l-18.42-20.45c6.141-5.303 17.543 3.789 17.543 3.789s6.14-23.485 32.457-33.334c26.316 9.849 32.456 33.334 32.456 33.334s11.403-9.092 17.544-3.789l-18.422 20.455h-63.157z" transform="matrix(.24803 0 0 .2126 282.14 92.09)" stroke-width="5.444"/><path id="path765" d="M363.093 148.823l-5.222-5.796c1.741-1.504 4.973 1.074 4.973 1.074s1.74-6.657 9.2-9.45c7.46 2.793 9.2 9.45 9.2 9.45s3.233-2.578 4.973-1.074l-5.222 5.798h-17.902z" stroke-width="1.25"/><path id="path764" d="M360.855 164.054l-6.527-7.246c2.176-1.879 6.216 1.343 6.216 1.343s2.176-8.322 11.5-11.812c9.325 3.49 11.5 11.812 11.5 11.812s4.041-3.222 6.217-1.343l-6.527 7.248h-22.379z" stroke-width="1.25"/><path id="path762" d="M358.18 217.13l13.471 22.98 14.264-22.98H358.18z" transform="matrix(.92308 0 0 .79602 28.619 3.752)" stroke-width="1.458"/><path id="path763" d="M330.92 208.56l-18.42-20.45c6.141-5.303 17.543 3.789 17.543 3.789s6.14-23.485 32.457-33.334c26.316 9.849 32.456 33.334 32.456 33.334s11.403-9.092 17.544-3.789l-18.422 20.455h-63.157z" transform="matrix(.4252 0 0 .39487 217.91 96.262)" stroke-width="3.051"/><path id="path760" d="M358.18 196.708l13.47 22.98 14.265-22.98H358.18z" stroke-width="1.25"/><path id="path761" d="M330.92 208.56l-18.42-20.45c6.141-5.303 17.543 3.789 17.543 3.789s6.14-23.485 32.457-33.334c26.316 9.849 32.456 33.334 32.456 33.334s11.403-9.092 17.544-3.789l-18.422 20.455h-63.157z" transform="matrix(.46063 0 0 .49606 205.07 95.815)" stroke-width="2.615"/><path id="path746" d="M330.92 208.56l-18.42-20.45c6.141-5.303 17.543 3.789 17.543 3.789s6.14-23.485 32.457-33.334c26.316 9.849 32.456 33.334 32.456 33.334s11.403-9.092 17.544-3.789l-18.422 20.455h-63.157z" transform="matrix(.46063 0 0 .49606 205.07 116.22)" stroke-width="2.615"/></g></g><g id="g1584" stroke-width="1.04"><path id="rect644" transform="translate(0 354.33)" d="M285.34-90.07h6.25v26.986h-6.25z"/><path id="rect649" transform="translate(0 354.33)" d="M306.59-90.072h6.25v26.986h-6.25z"/><path id="rect650" transform="translate(0 354.33)" d="M296.59-90.073h6.25v26.986h-6.25z"/><path id="rect652" transform="translate(0 354.33)" d="M410.14-90.071h6.25v26.986h-6.25z"/><path id="rect653" transform="translate(0 354.33)" d="M452.64-90.073h6.25v26.986h-6.25z"/><path id="rect654" transform="translate(0 354.33)" d="M431.39-90.074h6.25v26.986h-6.25z"/><path id="rect655" transform="translate(0 354.33)" d="M421.39-90.075h6.25v26.986h-6.25z"/><path id="rect656" transform="translate(0 354.33)" d="M441.39-90.075h6.25v26.986h-6.25z"/><path id="rect648" transform="translate(0 354.33)" d="M327.84-90.071h6.25v26.986h-6.25z"/><path id="rect651" transform="translate(0 354.33)" d="M316.59-90.073h6.25v26.986h-6.25z"/></g></g></g></svg>