<svg id="svg660" xmlns="http://www.w3.org/2000/svg" height="480" width="640"><defs id="defs662"><clipPath id="clipPath4687"><path id="rect4689" fill-opacity=".67" d="M0 0h682.67v512H0z"/></clipPath></defs><g id="flag" clip-path="url(#clipPath4687)" fill-rule="evenodd" transform="scale(.9375)"><path id="rect665" stroke-width="1pt" fill="#ff0" d="M0 0h768.77v128H0z"/><path id="rect668" stroke-width="1pt" fill="#fff" d="M0 128h768.77v128H0z"/><path id="rect667" stroke-width="1pt" fill="#be0027" d="M0 256h768.77v128H0z"/><path id="rect666" stroke-width="1pt" fill="#3b5aa3" d="M0 384h768.77v128H0z"/><path id="path664" d="M0 0v512l381.86-255.28L0 0z" fill="#239e46"/><path id="path673" d="M157.21 141.43C72.113 137.12 33.34 204.9 33.43 257.3c-.194 61.97 58.529 113.08 112.81 109.99-29.27-13.84-65.008-52.66-65.337-110.25-.3-52.18 29.497-97.55 76.307-115.61z" fill="#fff"/><path id="polygon674" transform="scale(1.23)" stroke-width="1pt" fill="#fff" d="M126.77 160.21l-9.75-7.63-11.82 3.72 4.24-11.64-7.18-10.09 12.38.43 7.37-9.95 3.41 11.91 11.75 3.94-10.28 6.93z"/><path id="polygon675" transform="matrix(1.23 0 0 1.23 -.255 52.063)" stroke-width="1pt" fill="#fff" d="M126.77 160.21l-9.75-7.63-11.82 3.72 4.24-11.64-7.18-10.09 12.38.43 7.37-9.95 3.41 11.91 11.75 3.94-10.28 6.93z"/><path id="polygon676" transform="matrix(1.23 0 0 1.23 0 104.64)" stroke-width="1pt" fill="#fff" d="M126.77 160.21l-9.75-7.63-11.82 3.72 4.24-11.64-7.18-10.09 12.38.43 7.37-9.95 3.41 11.91 11.75 3.94-10.28 6.93z"/><path id="polygon677" transform="matrix(1.23 0 0 1.23 -.255 157.72)" stroke-width="1pt" fill="#fff" d="M126.77 160.21l-9.75-7.63-11.82 3.72 4.24-11.64-7.18-10.09 12.38.43 7.37-9.95 3.41 11.91 11.75 3.94-10.28 6.93z"/></g></svg>