<svg id="svg378" xmlns="http://www.w3.org/2000/svg" height="480" width="640" version="1"><defs id="defs380"><clipPath id="clipPath4591"><path id="rect4593" fill-opacity=".67" d="M-80.109 0h682.67v512h-682.67z"/></clipPath></defs><g id="flag" fill-rule="evenodd" clip-path="url(#clipPath4591)" transform="translate(75.102) scale(.9375)"><path id="rect628" fill="#ffe900" d="M-107.85.239H629.8v511.29h-737.65z"/><path id="path623" d="M-108.24.239l.86 368.58L466.6-.001l-574.84.238z" fill="#35a100"/><path id="path624" d="M630.69 511.53l-1.347-383.25-578.98 383.54 580.33-.283z" fill="#c70000"/><path id="path625" d="M-107.87 396.61l.49 115.39 125.25-.16L629.63 101.7l-.69-100.32L505.18.239l-613.05 396.37z"/><path id="polygon136" transform="matrix(.53692 -.34745 .32106 .51439 1.465 167.69)" fill="#fff" d="M511.95 324.28l21.83-67.38 21.83 67.38 70.83-.05-57.34 41.58 21.94 67.35-57.27-41.68-57.27 41.67 21.95-67.34-57.33-41.6z"/><path id="polygon638" transform="matrix(.53692 -.34745 .32106 .51439 -273.78 346.6)" fill="#fff" d="M511.95 324.28l21.83-67.38 21.83 67.38 70.83-.05-57.34 41.58 21.94 67.35-57.27-41.68-57.27 41.67 21.95-67.34-57.33-41.6z"/></g></svg>