<svg id="svg378" xmlns="http://www.w3.org/2000/svg" height="480" width="640" version="1"><defs id="defs380"><clipPath id="clipPath4479"><path id="rect4481" fill-opacity=".67" d="M5.077.1h682.53V512H5.077z"/></clipPath></defs><g id="flag" fill-rule="evenodd" clip-path="url(#clipPath4479)" transform="translate(-4.761 -.094) scale(.93768)"><path id="rect149" stroke="#000" stroke-width="1.014" fill="#fff" d="M775.94 511.52H-75.92V.57h851.86z"/><path id="rect148" transform="scale(-1 1)" stroke-width="1pt" fill="#3e5698" d="M-775.94 419.07H75.92v92.457h-851.86z"/><path id="rect605" transform="scale(-1)" stroke-width="1pt" fill="#c60000" d="M-775.94-397.65H75.92v283.21h-851.86z"/><path id="rect606" transform="scale(-1 1)" stroke-width="1pt" fill="#3e5698" d="M-775.94.576H75.92v92.457h-851.86z"/><path id="path607" d="M495.86 1148c0 90.46-73.332 163.79-163.79 163.79-90.46 0-163.79-73.332-163.79-163.79 0-90.46 73.332-163.79 163.79-163.79 90.46 0 163.79 73.332 163.79 163.79z" transform="matrix(.72421 0 0 .70142 -30.589 -549.16)" fill="#fff"/><path id="polygon136" transform="matrix(1.0032 -.00505 -.01092 .98334 -320.22 -86.633)" fill="#c40000" d="M498.45 365.81l-57.33-41.6 70.83.07 21.83-67.38 21.83 67.38 70.83-.05-57.34 41.58 21.94 67.35-57.27-41.68-57.27 41.67z"/></g></svg>