<svg id="svg378" xmlns="http://www.w3.org/2000/svg" height="480" width="640" version="1"><defs id="defs380"><clipPath id="clipPath4409"><path id="rect4411" fill-opacity=".67" d="M-95.808-.44h682.67v512h-682.67z"/></clipPath></defs><g id="flag" fill-rule="evenodd" clip-path="url(#clipPath4409)" transform="translate(89.82 .412) scale(.9375)"><path id="rect149" transform="scale(-1)" fill="#fff" d="M-610.61-511.56h730.17v512h-730.17z"/><path id="path607" d="M495.86 1148c0 90.46-73.332 163.79-163.79 163.79-90.46 0-163.79-73.332-163.79-163.79 0-90.46 73.332-163.79 163.79-163.79 90.46 0 163.79 73.332 163.79 163.79z" transform="translate(-88.735 -532.54) scale(.6869)" fill="#fff"/><path id="path635" d="M733.7 381.73c0 125.78-101.96 227.74-227.74 227.74S278.22 507.51 278.22 381.73s101.96-227.74 227.74-227.74S733.7 255.95 733.7 381.73z" transform="matrix(.63784 0 0 .64461 -74.972 16.483)" fill="#c70000"/><path id="rect636" transform="rotate(-49.156)" stroke-width="1pt" d="M-127.97 45.309H-.05V71.51h-127.92z"/><path id="rect637" transform="rotate(-49.156)" stroke-width="1pt" d="M-127.97 81.527H-.05v26.201h-127.92z"/><path id="rect638" transform="rotate(-49.156)" stroke-width="1pt" d="M-127.97 45.309H-.05V71.51h-127.92z"/><path id="rect639" transform="rotate(-49.156)" stroke-width="1pt" d="M-127.97 45.309H-.05V71.51h-127.92z"/><path id="rect640" transform="rotate(-49.156)" stroke-width="1pt" d="M-127.97 118.52H-.05v26.201h-127.92z"/><path id="rect641" transform="rotate(-49.156)" stroke-width="1pt" d="M-127.97 45.309H-.05V71.51h-127.92z"/><path id="rect643" transform="rotate(-49.156)" stroke-width="1pt" d="M-127.97 45.309H-.05V71.51h-127.92z"/><path id="rect644" transform="rotate(49.544)" stroke-width="1pt" d="M320.65-330.34h127.92v26.201H320.65z"/><path id="rect645" transform="rotate(49.544)" stroke-width="1pt" d="M320.65-257.13h127.92v26.201H320.65z"/><path id="path649" d="M417.55 133.19l78.602-67.814 14.641 16.953-83.996 75.519-9.247-24.659z" fill="#fff"/><path id="rect646" transform="matrix(-.64282 .76602 -.76881 -.63948 0 0)" stroke-width="1pt" d="M-42.832-633.05h125.1v25.644h-125.1z"/><path id="rect642" transform="rotate(49.544)" stroke-width="1pt" d="M320.65-294.12h127.92v26.201H320.65z"/><path id="rect647" transform="matrix(-.64282 .76602 -.76881 -.63948 0 0)" stroke-width="1pt" d="M-42.832-668.49h125.1v25.644h-125.1z"/><path id="rect648" transform="matrix(-.64282 .76602 -.76881 -.63948 0 0)" stroke-width="1pt" d="M-42.832-596.84h125.1v25.644h-125.1z"/><path id="path653" d="M104.6 236.68c4.592 36.974 11.297 78.175 68.199 82.455 21.328 1.278 62.817-5.074 77.061-63.19 18.688-55.829 74.975-71.88 113.28-41.613 21.718 14.166 27.727 36.666 29.283 53.557-1.739 54.243-32.874 101.2-72.823 122.14-45.93 27.3-109.56 27.87-165.3-13.49-25.12-23.57-60.219-67.02-49.7-139.86z" fill="#3d5897"/><path id="path654" d="M435.91 370.59l78.734 67.661-14.591 16.997-87.156-71.851 23.013-12.807z" fill="#fff"/><path id="rect658" transform="rotate(49.544)" stroke-width="1pt" d="M270.57 233.21h127.92v26.201H270.57z"/><path id="path657" d="M-16.188 437.25l78.602-67.814 14.641 16.953-83.996 75.519-9.247-24.659z" stroke-width="1pt" fill="#fff"/><path id="rect655" transform="rotate(49.544)" stroke-width="1pt" d="M270.57 196.99h127.92v26.201H270.57z"/><path id="rect656" transform="rotate(49.544)" stroke-width="1pt" d="M270.57 270.2h127.92v26.201H270.57z"/></g></svg>