<svg id="svg1" xmlns="http://www.w3.org/2000/svg" height="480" width="640" version="1"><g id="flag"><path id="rect124" stroke-width="1pt" fill="#006" d="M0 0h640v480H0z"/><g id="g3186" transform="scale(.78125)"><path id="rect4050" fill-rule="evenodd" fill="#006" d="M0 0h512v256H0z"/><g id="g584" stroke-width="1pt" transform="scale(8.0321 10.338)"><path id="path146" fill="#fff" d="M0 0v3.354L53.292 30H60v-3.354L6.708 0H0zm60 0v3.354L6.708 30H0v-3.354L53.292 0H60z"/><path id="path136" fill="#fff" d="M25 0v30h10V0H25zM0 10v10h60V10H0z"/><path id="path141" fill="#c00" d="M0 12v6h60v-6H0zM27 0v30h6V0h-6z"/><path id="path150" fill="#c00" d="M0 30l20-10h4.472l-20 10H0zM0 0l20 10h-4.472L0 2.236V0zm35.528 10l20-10H60L40 10h-4.472zM60 30L40 20h4.472L60 27.764V30z"/></g></g><g id="g4245" transform="translate(-283.01 45.714) scale(1.024)"><path id="path852" d="M714.2 130.3c-.986.596-2.958 2.383-4.93 1.788-1.972-.596-6.409-8.343-11.34-7.151-4.93 1.192-7.887 2.98-9.859 2.98-1.972 0-7.395 1.787-7.395 6.554s.493 8.343 1.479 8.343c.986 0 2.465-2.98 2.465-2.98s.493 5.959 3.944 5.959 10.846.596 11.339 2.384c.493 1.787-3.45 5.958-2.465 9.534.986 3.575 5.423 9.534 5.423 9.534s-6.409 4.767-6.409 7.747.986 5.959.986 5.959l-28.594 1.191s-1.972 84.617-.986 91.173c.986 6.552 3.451 22.642 3.451 22.642s-6.409-2.083-11.832 3.28c-5.423 5.363-24.403 14.597-24.896 18.768-.493 4.17-2.218 7.748-.246 10.727s8.91 11.074 6.902 10.727c-6.62-1.142-9.082-10.545-13.557-14.003-4.398-3.396-13.064-2.682-14.05.891-.986 3.577-.494 9.535 0 10.727.493 1.192 5.915 20.261 7.394 24.432s17.008 10.426 23.91 9.832c13.064.297 18.98-5.66 19.473-5.063.494.595 28.106 29.07 84.795 29.197 44.13.098 77.4-28.603 77.4-28.005 0 .595 18.241 5.958 24.65 4.171 6.41-1.79 15.776-5.96 17.748-10.132 1.973-4.17 7.396-25.624 7.888-29.197.494-3.576 0-7.748-4.436-8.94s-6.902-.895-9.367.297-3.205 4.472-6.902 10.43c-1.972 1.79-7.149 6.555-5.67 5.363s4.684-10.13 5.177-13.111c.493-2.98 1.972-8.342-1.48-11.321-3.45-2.98-8.736-4.197-14.79-8.64-5.747-3.939-10.351-10.428-13.803-10.428-3.451 0-7.395-1.787-6.902-1.787.493 0 4.445-8.657 3.459-17.594-.986-8.94.485-94.434-.008-94.434s-24.65 1.788-24.65.596 1.972-9.534 0-14.897c-1.972-5.363-10.353-8.939-7.888-10.13 2.465-1.192 13.31-4.171 12.818-8.939-.493-4.767-7.395-4.17-10.353-5.958-2.958-1.788-11.832-10.13-12.818-10.13-.986 0 25.635-16.09 23.664-16.09-1.972 0-12.325-2.978-15.776-1.19 0-2.98 14.297-11.919 11.832-13.11-2.465-1.193-13.804-2.385-10.846-2.98 2.958-.596 3.944-7.747 3.45-7.747-.492 0-12.817 1.788-12.817 1.788s-2.958-4.171-3.944-4.171c-.986 0-5.423 2.383-5.423 2.383l-2.465-6.555-5.423 3.576-2.465-2.98s-4.437 1.192-4.437 0c.187-.042-.51-2.992-1.207-2.992-.698 0-5.578 3.792-5.753 3.582-.174-.211-5.577-7.795-5.577-7.585 0 .211-3.835 14.326-4.009 14.326-.174 0-3.835.422-4.009.632-.174.211-19.522-11.166-19.347-10.955.174.211 5.055 10.955 5.055 10.955s-4.183 2.318-4.183 2.529c0 .21.697 4.845.697 4.845l-12.9-4.425s4.88 9.902 4.532 9.902c-.349 0-9.587.421-9.412.421.174 0 4.357 8.217 4.357 8.217l-1.569 4.845s13.884 9.798 12.898 10.394zm82.33 207.37c1.233 1.787 7.888 10.129 6.902 10.129-.986 0-17.501 11.024-24.157 13.111-6.656 2.084-28.347 5.958-27.115 5.66 1.232-.297 19.479-10.288 26.874-15.053 7.395-4.765 17.495-13.252 17.495-13.847zm-103.04-.3c-.986 1.191-5.67 10.428-5.67 10.428s13.558 9.535 23.665 13.111c10.106 3.573 27.36 4.766 26.375 4.468-.986-.297-21.692-9.534-27.608-14.3-5.916-4.769-16.515-13.709-16.762-13.709z" fill-rule="evenodd" stroke-width="1pt" fill="#fff"/><g id="g820" fill-rule="evenodd" transform="matrix(.29981 0 0 .36238 586 193.89)" stroke="#6d6666" fill="#fec500"><path id="path793" d="M394.65-212.97s28.777 17.265 35.354 21.376 27.954 22.199 29.598 21.377c1.645-.822 13.155-9.866 13.155-9.866s-23.843-18.91-38.642-23.021-39.465-8.222-39.465-9.866z" stroke-width="1.403"/><path id="path795" d="M390.54-231.88c2.467 0 47.687 23.022 61.664 34.532s19.732 26.31 21.377 26.31c1.644 0 23.021-3.289 22.198-3.289-.822 0-9.866-29.598-30.42-38.642-20.555-9.044-73.996-18.911-74.819-18.911z" stroke-width="1.403"/><path id="path803" d="M603.48-291.36c-.822 0-9.044 24.667-11.511 32.066-2.466 7.4-6.577 23.02-6.577 23.02s-36.176 3.29-34.532-.821c1.645-4.111 55.086-54.264 52.62-54.264z" stroke-width="1.403"/><path id="path796" d="M398.76-261.48s42.754 28.776 57.553 45.22c14.799 16.443 29.598 45.22 30.42 45.22.823 0 40.287-8.222 40.287-7.4s-46.042-46.042-68.241-60.019-59.197-21.377-60.019-23.021z" stroke-width="1.403"/><path id="path797" d="M443.16-269.16s21.377 32.888 25.487 44.399c4.111 11.51 16.444 41.109 16.444 41.109H518.8s-16.443-36.998-34.531-55.086-40.287-28.776-41.109-30.421z" stroke-width="1.403"/><path id="path798" d="M454.66-287.25c.823 2.468 31.243 31.244 38.643 50.154 7.399 18.91 13.155 42.754 13.155 42.754l29.598-7.4s-26.31-48.51-42.753-61.664c-16.444-13.154-36.998-22.198-38.643-23.843z" stroke-width="1.403"/><path id="path799" d="M700.5-209.68s-61.663 6.578-83.862 12.333-34.532 27.132-34.532 27.132 28.777 10.688 30.421 9.044 18.91-18.91 37.82-25.488c18.91-6.577 51.797-22.199 50.153-23.021z" stroke-width="1.403"/><path id="path800" d="M698.03-249.97c-1.645.823-50.975 41.11-66.597 54.264-15.621 13.155-30.421 27.132-32.065 27.954-1.644.823-32.065-4.11-30.421-5.755 1.645-1.644 45.22-36.998 73.997-52.619 28.776-15.622 52.619-22.199 55.086-23.844z" stroke-width="1.403"/><path id="path801" d="M685.7-278.75c-4.933 5.755-53.442 45.22-66.597 59.197s-34.531 38.643-34.531 38.643-25.488-11.511-23.843-16.444c1.644-4.933 36.175-33.709 60.841-50.153 24.665-16.444 66.596-29.599 64.13-31.243z" stroke-width="1.403"/><path id="path802" d="M636.37-282.04c-.822.823-29.598 31.243-35.354 39.465-5.755 8.222-23.021 44.398-23.021 44.398s-25.487-22.199-25.487-23.021 32.065-34.532 50.975-47.687 33.709-10.688 32.887-13.155z" stroke-width="1.403"/><path id="path818" d="M565.09-237.12c0 5.78-4.685 10.466-10.465 10.466s-10.465-4.685-10.465-10.465 4.685-10.465 10.465-10.465 10.465 4.685 10.465 10.465z" stroke-width="1.497"/><path id="path819" d="M586.02-223.16c0 5.138-4.685 9.303-10.465 9.303s-10.465-4.165-10.465-9.302 4.685-9.302 10.465-9.302 10.465 4.165 10.465 9.302z" stroke-width="1.497"/><path id="path817" d="M539.51-233.63c0 5.138-5.726 9.303-12.79 9.303-7.064 0-12.79-4.165-12.79-9.302s5.726-9.302 12.79-9.302c7.064 0 12.79 4.165 12.79 9.302z" stroke-width="1.497"/><path id="path815" d="M573.23-214.44c0 9.954-6.507 18.023-14.534 18.023-8.027 0-14.534-8.069-14.534-18.022 0-9.954 6.507-18.022 14.534-18.022 8.027 0 14.534 8.069 14.534 18.022z" stroke-width="1.497"/><path id="path805" d="M533.7-213.86c0 7.707-6.507 13.954-14.534 13.954-8.027 0-14.534-6.247-14.534-13.953 0-7.706 6.507-13.953 14.534-13.953 8.027 0 14.534 6.247 14.534 13.953z" stroke-width="1.497"/><path id="path810" d="M513.93-202.81c0 6.744-4.946 12.21-11.046 12.21s-11.046-5.466-11.046-12.21c0-6.742 4.945-12.208 11.046-12.208 6.1 0 11.046 5.466 11.046 12.209z" stroke-width="1.497"/><path id="path813" d="M595.32-203.98c0 8.028-7.548 14.535-16.86 14.535-9.311 0-16.86-6.507-16.86-14.534 0-8.027 7.548-14.534 16.86-14.534 9.311 0 16.86 6.507 16.86 14.534z" stroke-width="1.497"/><path id="path806" d="M554.63-224.91c0 4.817-5.987 8.721-13.372 8.721s-13.372-3.904-13.372-8.72 5.987-8.72 13.372-8.72 13.372 3.904 13.372 8.72z" stroke-width="1.497"/><path id="path807" d="M556.95-205.72c0 7.065-8.33 12.79-18.604 12.79s-18.604-5.725-18.604-12.79c0-7.063 8.33-12.79 18.604-12.79s18.604 5.727 18.604 12.79z" stroke-width="1.497"/><path id="path814" d="M604.62-183.05c0 8.67-7.809 15.698-17.441 15.698s-17.441-7.028-17.441-15.697 7.809-15.697 17.441-15.697c9.633 0 17.441 7.028 17.441 15.697z" stroke-width="1.497"/><path id="path809" d="M509.28-187.12c0 5.78-4.425 10.466-9.883 10.466s-9.884-4.685-9.884-10.465 4.425-10.465 9.884-10.465 9.883 4.685 9.883 10.465z" stroke-width="1.497"/><path id="path812" d="M579.04-188.86c0 7.386-6.768 13.373-15.116 13.373-8.348 0-15.116-5.987-15.116-13.372s6.768-13.372 15.116-13.372c8.348 0 15.116 5.986 15.116 13.372z" stroke-width="1.497"/><path id="path808" d="M531.37-189.44c0 6.423-5.987 11.628-13.371 11.628-7.385 0-13.371-5.206-13.371-11.627 0-6.422 5.987-11.627 13.371-11.627 7.385 0 13.371 5.206 13.371 11.627z" stroke-width="1.497"/><path id="path811" d="M554.63-185.96c0 7.065-6.247 12.79-13.953 12.79-7.706 0-13.953-5.725-13.953-12.79 0-7.063 6.247-12.79 13.953-12.79 7.706 0 13.953 5.727 13.953 12.79z" stroke-width="1.497"/><path id="path804" d="M494.16-262.7c3.488 0 27.906 8.14 27.906 8.14s-30.232 11.628-25.581 10.465 33.72-4.651 31.394-4.651c-2.325 0-25.58 22.092-18.604 20.929 6.977-1.162 20.93-15.115 22.092-15.115 1.163 0 15.116 22.092 16.279 20.929 1.162-1.163 0-22.092 1.162-22.092 1.163 0 29.069 13.953 26.743 12.79-2.325-1.163-18.603-17.441-17.441-17.441 1.163 0 38.371 3.488 36.045 2.325-2.325-1.162-24.417-11.627-24.417-11.627s16.278-15.115 12.79-15.115-30.231 15.115-27.906 13.952c2.326-1.162 29.069-31.393 29.069-31.393l-26.743 12.79s4.651-18.604 2.325-17.442c-2.325 1.163-20.929 24.418-22.092 24.418s-5.814-23.255-5.814-23.255 1.163 25.58-5.813 26.743c-6.977 1.163-31.394 5.814-31.394 4.65z" stroke-width="1.497"/></g><g id="g775" fill-rule="evenodd" transform="matrix(.29981 0 0 .36238 618.89 139.61)"><path id="path772" d="M308.71 75.082c.581 2.325 19.185 44.184 47.672 43.021s40.114-8.139 38.952-8.72c-1.163-.582-13.372-7.558-20.348-22.674-6.977-15.116-8.14-21.511-8.14-21.511l-58.136 9.883z" fill="#00389b"/><path id="path773" d="M410.45 58.804s20.929 41.277 30.231 47.09c9.302 5.814 30.813 10.465 40.115 9.884 9.302-.582 20.348 0 20.348 0s-9.302-4.07-16.86-26.743-9.883-30.231-9.883-30.231H410.45z" fill="#00389b"/><path id="path774" d="M538.35 73.919s-4.069 30.231 0 37.789c4.07 7.558 24.418 21.511 24.418 21.511s24.417-2.907 24.998-21.511c.582-18.604-8.139-36.045-8.139-36.045l-41.277-1.744z" fill="#00389b"/><path id="path767" d="M288.94 21.015s1.163 4.65 0 8.14-11.046 12.79-11.046 20.347c0 7.558 11.627 30.812 47.091 31.394 35.463.581 80.229-19.185 79.647-19.767-.58-.58-84.88-56.974-86.04-56.393-1.16.582-29.65 17.441-29.65 16.28z" stroke="#000" stroke-width="1.497" fill="#005120"/><path id="path768" d="M523.23 61.129s7.557 20.348 10.464 22.674c2.907 2.325 4.07 6.976 4.651 6.976s48.835 10.464 48.835 10.464 4.651-13.37-2.325-23.836c-6.977-10.465-33.138-37.789-33.138-37.789l-28.49 21.511z" stroke="#000" stroke-width="1.497" fill="#005120"/><path id="path769" d="M556.37 36.13c1.162 0 12.79 9.883 22.092 4.65 9.301-5.231 24.417-19.184 24.417-19.184s-12.79 4.07-22.092 3.488c-9.302-.581-23.836 11.627-24.417 11.046z" stroke="#000" stroke-width="1.497" fill="#005120"/><path id="path766" d="M287.2 23.34s-3.488-9.883-12.79-10.465c-9.302-.581-26.162 1.163-31.975-3.488-5.814-4.651-7.558-15.697-10.465-15.116-2.907.581-10.465 0-11.046 0s-3.488-9.302 4.651-13.953 15.116-.582 19.766-4.07c4.651-3.488 11.628-5.814 20.93-6.395 9.302-.581 24.417 11.628 31.394 14.534 6.976 2.907 22.092 6.395 27.905 3.488 5.814-2.907 38.371-15.697 49.998-16.278 11.627-.581 36.045-1.162 45.347-.581s45.928 5.232 56.974 10.465c11.046 5.232 69.764 25.58 77.903 30.23 8.139 4.652 26.162 11.628 26.162 11.628s-31.976 31.394-47.672 36.626c-15.697 5.232-65.695 13.372-95.345 11.627-29.65-1.744-52.904-4.651-75.578-16.278-22.68-11.626-47.1-22.672-48.26-28.486-1.16-5.813-.58-13.371-.58-13.371l-27.324 9.883z" stroke="#000" stroke-width="1.497" fill="#005120"/><path id="path770" d="M251.15-14.449c-1.163.581-6.976 2.907-5.814 4.07 1.163 1.162 3.489 4.65 10.465 4.07 6.977-.582 14.534-4.652 14.534-4.652s-8.72-4.07-19.185-3.488z" stroke="#000" stroke-width="1.497" fill="#005120"/><path id="path771" d="M250.57-13.286v6.395s8.139 2.325 8.139.581c0-1.744.581-5.813-1.163-5.813s-6.395-.582-6.976-1.163z" stroke="#000" stroke-width="1.497"/><path id="path757" d="M331.95-8.453c2.056-3.7 0-8.632 11.922-14.388 11.921-5.755 32.681-4.11 32.681-4.11s-5.96 4.521-6.166 9.249c-.205 4.727.411 6.783.411 6.783s-11.305-3.7-19.938-1.439-18.704 4.522-18.91 3.905z" stroke="#000007" stroke-width="1.497" fill="#001707"/><path id="path758" d="M385.4-28.596c-1.233.617-10.277 10.688-9.25 13.772 1.028 3.083 13.155 10.483 17.061 9.866 3.905-.616 21.787-9.25 22.815-13.566 1.028-4.316 1.85-10.072.411-11.305-1.439-1.233-30.832 1.645-31.037 1.233z" stroke="#000007" stroke-width="1.497" fill="#001707"/><path id="path760" d="M424.66-30.24c-2.261 2.261-1.439 13.155-.617 14.388.822 1.233 15.005 15.416 18.088 16.238 3.083.822 25.899-1.439 27.749-3.905s7.399-12.95 5.755-15.416c-1.645-2.467-6.578-5.756-21.788-9.044s-24.254-2.878-29.187-2.261z" stroke="#000007" stroke-width="1.497" fill="#001707"/><path id="path761" d="M482.82-16.469c3.7 1.85 25.282 12.333 38.026 20.76 12.743 8.427 17.882 18.088 21.582 18.91 3.7.822 18.704-8.222 19.321-10.688.617-2.467-18.293-15.621-31.037-21.582-12.744-5.96-47.892-6.783-47.892-7.4z" stroke="#000007" stroke-width="1.497" fill="#001707"/><path id="path762" d="M478.3-7.63c-1.85 1.644 23.021 45.014 27.748 46.453 4.728 1.438 33.093-8.428 32.682-11.716-.41-3.288-7.81-9.866-25.28-19.526C495.98-2.08 481.8-8.452 478.3-7.63z" stroke="#000007" stroke-width="1.497" fill="#001707"/><path id="path763" d="M447.47 8.196c-3.905 2.261-10.071 41.11-6.166 42.96 3.905 1.85 52.003-4.728 53.853-9.044 1.849-4.317-19.733-38.643-26.105-38.643-6.371 0-17.882 1.645-21.582 4.728z" stroke="#000007" stroke-width="1.497" fill="#001707"/><path id="path764" d="M397.73-.025c-5.14 4.727-4.11 40.903-1.85 43.164 2.261 2.26 30.831 9.66 33.914 6.988 3.084-2.672 7.195-43.37 4.317-46.453-2.878-3.083-10.894-10.483-17.06-11.099-6.167-.616-16.444 5.96-19.321 7.4z" stroke="#000007" stroke-width="1.497" fill="#001707"/><path id="path765" d="M333.19-.642c-4.728 3.7-4.933 13.36.205 15.005 5.139 1.644 17.882 7.194 29.804 12.333 11.922 5.139 18.705 11.305 22.199 11.099 3.494-.206 6.783-36.381 3.083-38.437-3.7-2.055-14.594-3.7-24.871-3.289-10.277.411-25.282 1.44-30.42 3.289z" stroke="#000007" stroke-width="1.497" fill="#001707"/></g><path id="path643" d="M655.26 306.14c2.528-2.462 6.461-8.48 11.798-8.752 5.337-.274 10.956 4.65 10.956 4.65s5.618 22.975 5.337 22.975c-.28 0-9.27 6.565-9.55 6.565-.282 0-3.933-9.026-7.304-8.207-3.371.822-3.09 13.13-3.652 12.31-.562-.822-14.888-17.78-14.326-18.326.562-.547 7.023-10.394 6.742-11.215z" fill-rule="evenodd" fill-opacity=".996" stroke-width="1pt" fill="#d40f0f"/><path id="path642" d="M803.59 303.13c1.685-.273 9.27-6.017 14.607-5.743 5.338.273 8.428 2.734 11.237 5.196 2.808 2.462 6.18 8.752 6.18 8.752s-6.742 18.6-7.303 18.6-3.372 1.641-3.934.273-2.246-5.744-5.618-6.291c-3.37-.547-4.214 6.017-4.214 6.017L803.59 303.13z" fill-rule="evenodd" fill-opacity=".996" stroke-width="1pt" fill="#d40f0f"/><path id="path640" d="M807.24 308.88c0 1.642 10.394 27.353 27.249 32.275 16.854 4.924 22.192-4.65 24.157-7.931 1.967-3.283 8.99-3.009 8.99-3.009s-1.685 24.07-4.495 27.078c-2.808 3.009-5.057 9.573-20.787 9.846-15.73.274-30.057-14.769-34.832-19.146-4.777-4.377-10.957-15.863-13.485-21.06-2.527-5.197 13.484-17.505 13.203-18.053z" fill-rule="evenodd" fill-opacity=".996" stroke-width="1pt" fill="#fddc59"/><path id="path641" d="M624.08 360.02c.281 0 7.585 7.932 18.259 7.111 10.675-.82 28.934-7.111 37.361-18.052 8.427-10.94 12.641-22.702 12.641-22.702s-12.36-21.88-12.641-21.88c-.28 0-1.405 7.11-3.652 11.76-2.247 4.65-8.427 17.778-18.82 21.882-10.395 4.103-10.395 5.744-14.608 5.197-4.213-.547-15.169-7.112-15.169-7.386 0-.272-5.337 12.856-5.337 12.856s-1.124 8.48 1.966 11.214z" fill-rule="evenodd" fill-opacity=".996" stroke-width="1pt" fill="#fddc59"/><path id="path637" d="M655.07 305.38c-.795 0-20.658 10.831-19.863 15.473.794 4.641 34.165 70.399 105.67 71.172 71.507.774 115.21-59.569 112.03-69.626-3.178-10.056-25.424-21.661-25.424-21.661s5.561 4.641 4.767 10.831c-.795 6.19-25.426 59.569-87.399 58.023-61.974-1.548-91.372-48.738-91.372-54.154 0-5.415 3.178-8.51 1.59-10.057z" fill-rule="evenodd" fill-opacity=".996" stroke-width="1pt" fill="#fddc59"/><path id="path639" d="M848.81 353.19c1.687-1.368 12.08-29.814 17.979-28.993 5.9.821 3.933 9.299 3.372 11.488-.562 2.188-6.462 21.881-6.462 21.881s.282-4.65-3.652-5.743c-3.932-1.094-10.394 1.915-11.237 1.368z" fill-rule="evenodd" fill-opacity=".996" stroke-width="1pt" fill="#d40f0f"/><path id="path638" d="M624.08 360.31c0-1.546-4.767-6.962.794-8.51 5.562-1.546 12.713 1.548 12.713 1.548s-3.972-11.605-8.74-20.888c-4.767-9.283-6.356-7.736-10.328-6.19-3.973 1.548-3.877 5.643-1.493 11.832 2.384 6.189 7.054 23.756 7.054 22.208z" fill-rule="evenodd" fill-opacity=".996" stroke-width="1pt" fill="#d40f0f"/><g id="g1773"><path id="polygon744" fill="#fdc400" fill-rule="evenodd" transform="matrix(.38319 0 0 .38944 593.86 42.315)" stroke-width="1pt" d="M249.94 680.32l18-59.99-49.99-37.71 62.61-1.42 20.42-59.2 20.7 59.1 62.61 1.14-49.82 37.94 18.27 59.9-51.48-35.65z"/><path id="path740" d="M673.23 325.98l-.001 256.89c.59 125.55-148.82 235.49-248.03 256.89-99.22-21.4-248.62-131.34-248.03-256.88V325.99h496.06z" fill-rule="evenodd" transform="matrix(.29981 0 0 .34989 617.15 71.606)" stroke-width="1pt" fill="#fff"/><path id="path556" d="M177.16 325.98l.421 160.73s2.386-3.288 35.012-1.284c32.627 2.004 35.433 35.433 70.867 35.433 35.433 0 35.433-35.433 70.866-35.433s35.433 35.433 70.866 35.433 35.433-35.433 70.866-35.433 35.433 35.433 72.87 37.459c33.429-2.026 33.429-37.459 69.062-39.463l35.233 2.004v-159.45h-496.06z" fill-rule="evenodd" fill-opacity=".996" transform="matrix(.29981 0 0 .34989 617.15 71.606)" stroke="#000" stroke-width="1.497" fill="#d40f0f"/><path id="path557" d="M177.16 432.28v53.15h35.433c32.627 2.004 35.432 35.433 70.866 35.433 35.433 0 35.433-35.433 70.866-35.433s35.433 35.433 70.866 35.433 35.434-35.433 70.867-35.433 33.429 33.407 70.866 35.433c33.429-2.026 35.233-33.429 70.866-35.433h35.433v-53.15H637.79c-35.433 0-35.433 35.433-70.866 35.434-35.433-.001-35.433-35.434-70.866-35.434s-35.433 35.433-70.867 35.433c-35.433 0-35.433-35.433-70.866-35.433s-35.433 35.433-70.866 35.433-35.433-35.433-70.866-35.433H177.16z" fill-rule="evenodd" fill-opacity=".996" transform="matrix(.29981 0 0 .34989 617.15 108.8)" stroke-width="1pt" fill="#0062bb"/><path id="path558" d="M187.85 432.28l24.745 53.15c32.627 2.004 35.432 35.433 70.866 35.433 35.433 0 35.433-35.433 70.866-35.433s35.433 35.433 70.866 35.433 35.434-35.433 70.867-35.433 33.429 33.407 70.866 35.433c33.429-2.026 34.411-33.429 70.044-35.433l25.567-53.972-24.745.822c-35.433 0-35.433 35.433-70.866 35.434-35.433-.001-35.433-35.434-70.866-35.434s-35.433 35.433-70.867 35.433c-35.433 0-35.433-35.433-70.866-35.433s-35.433 35.433-70.866 35.433-35.433-35.433-70.866-35.433H187.85z" fill-rule="evenodd" fill-opacity=".996" transform="matrix(.29981 0 0 .34989 617.15 145.99)" stroke-width="1pt" fill="#0062bb"/><path id="path559" d="M425.2 520.87c35.434 0 116.62-53.15 115.79-53.15.823 0-9.494-35.433-44.927-35.433s-35.433 35.433-70.867 35.433c-35.433 0-35.433-35.433-70.866-35.433s-44.477 35.433-44.556 35.433c-1.645 0 79.989 53.15 115.42 53.15z" fill-rule="evenodd" fill-opacity=".996" transform="matrix(.29981 0 0 .34989 617.15 183.18)" stroke-width="1pt" fill="#0062bb"/><g id="g611" transform="matrix(1.4653 0 0 1.2748 556.79 30.774)"><path id="path577" d="M90.71 155.164c.822 0 8.222 1.233 13.565.822 5.344-.411 7.4-2.467 7.4-2.878v-1.233h6.988s1.233 5.755.411 6.166-2.878 2.056-3.289 2.056 0-2.878-.822-2.056-1.233 2.056-1.233 2.056-.822-1.234-1.233-1.234-1.233 1.234-1.233 1.234 0-1.234-.412-1.234c-.411 0-2.466 2.056-2.466 2.056l-2.055-1.645s-1.234 2.056-1.645 2.056-2.877-1.644-2.877-1.644l-4.111 2.466s0-3.7-.822-3.289c-.822.411-5.344.411-5.344.411s-1.233 2.467-1.645 2.467-2.055-2.055-1.644-2.055 1.233-1.234.822-1.645c-.41-.411-2.466 0-2.466-.411s-.822-2.878-.411-2.878 2.055.412 2.055.412v-2.467H90.3l.41 2.467z" fill-rule="evenodd" fill-opacity=".996" stroke="#000" stroke-width=".701" fill="#fdc400"/><path id="path578" d="M98.109 131.73c-.411 0-3.289 3.289-2.878 6.988.412 3.7 7.4 9.044 7.4 9.044s3.7-1.644 4.933 0 1.233 6.577.822 6.577-5.344 1.234-5.344.41c0-.821 0-1.643-.411-1.643s-4.933.41-4.933.41l.411-1.643-4.11-.822 1.644-1.645s-6.578-2.877-6.167-2.877 2.878-1.644 2.878-1.644l-4.933-3.29h2.878s-4.111-3.288-3.7-3.288c.41 0 2.466.41 2.466.41l-1.233-3.287h1.233l-1.233-2.467 2.055-.822 1.234 2.055-.411-4.933 2.877.412v4.11s1.233-2.466 1.233-2.877c0-.411 3.7 1.644 3.289.822z" fill-rule="evenodd" fill-opacity=".996" stroke="#000" stroke-width=".701" fill="#fdc400"/><path id="path580" d="M161.97 119.62c-.514.514-2.056 1.644-2.056 1.644s3.495-.308 3.392-.308-1.233-1.028-1.336-1.336z" fill-rule="evenodd" fill-opacity=".996" transform="translate(-.139 37.594)"/><path id="path581" d="M164.95 121.57c-.205.308-.822 3.494-.411 3.288.411-.205 2.055-2.569 2.055-2.569l-1.644-.719z" fill-rule="evenodd" fill-opacity=".996" transform="translate(-.139 37.594)"/><path id="path582" d="M169.67 121.98c.513.514 2.877 2.877 2.569 2.363-.308-.513-.617-2.672-.822-2.774-.206-.103-1.542.616-1.747.411z" fill-rule="evenodd" fill-opacity=".996" transform="translate(-.139 37.594)"/><path id="path583" d="M128.26 118.59c-.308.103-2.877 2.056-2.877 2.056s4.316-.823 4.11-.823c-.205 0-1.336-.924-1.233-1.233z" fill-rule="evenodd" fill-opacity=".996" transform="translate(-.139 37.594)"/><path id="path584" d="M130.93 121.06c-.411.411-1.747 3.288-1.233 3.186.514-.103 2.775-1.953 2.775-1.953l-1.542-1.233z" fill-rule="evenodd" fill-opacity=".996" transform="translate(-.139 37.594)"/><path id="path585" d="M129.28 117.05c-.308-.103-2.467-1.131-2.364-1.131s2.878-.719 2.878-.719l-.514 1.85z" fill-rule="evenodd" fill-opacity=".996" transform="translate(-.139 37.594)"/><path id="path586" d="M88.588 115.72l-3.083-2.467 3.905 1.233-.822 1.234z" fill-rule="evenodd" fill-opacity=".996" transform="translate(-.139 37.594)"/><path id="path587" d="M85.916 117.36c-.411 0-4.316 2.466-4.214 2.466s5.447.103 5.344 0c-.102-.102-.925-2.26-1.13-2.466z" fill-rule="evenodd" fill-opacity=".996" transform="translate(-.139 37.594)"/><path id="path588" d="M88.382 120.96c-.411.206-3.494 2.569-3.289 2.569.206 0 4.625.103 4.625 0s-1.233-2.466-1.336-2.569z" fill-rule="evenodd" fill-opacity=".996" transform="translate(-.139 37.594)"/><path id="path589" d="M87.971 95.366s-1.13-2.878-1.028-2.878c.103 0 2.878 2.261 2.878 2.261l-1.85.617z" fill-rule="evenodd" fill-opacity=".996" transform="translate(-.139 37.594)"/><path id="path590" d="M91.054 91.769c0-.103.308-1.85.308-1.85s2.775 2.158 2.672 2.158c-.102 0-2.775 0-2.98-.308z" fill-rule="evenodd" fill-opacity=".996" transform="translate(-.139 37.594)"/><path id="path591" d="M95.371 93.105c0-.103.308-2.672.308-2.672s2.57 3.494 2.364 3.597c-.206.103-2.466-.514-2.672-.925z" fill-rule="evenodd" fill-opacity=".996" transform="translate(-.139 37.594)"/><path id="path599" d="M136.438 148.68c0 .206 4.316 3.7 4.419 4.522.102.822-7.811 1.028-7.811 1.028s-2.261-1.747-2.98-1.645c-.72.103-1.028 1.85-1.028 1.85l1.85 1.028-3.494.205 1.028 1.953 2.672-.206-.617 1.85s1.644 1.234 1.953 1.028c.308-.205 1.336-2.055 2.158-2.364.822-.308 2.569-.308 2.569-.308s-1.336 2.261-.72 2.261c.617 0 3.392-2.364 3.392-2.364s.617 2.158.719 2.158c.103 0 2.056-2.466 2.056-2.466s0 1.953.308 1.953 3.186-2.467 3.186-2.467 2.26 2.878 2.569 2.672c.309-.205.617-3.083.925-3.083s2.26-.308 2.26-.411-1.232-1.131-1.438-2.569c-.205-1.439.206-4.83.103-4.83s-13.874.513-14.08.205z" fill-rule="evenodd" fill-opacity=".996" stroke="#000" stroke-width=".701" fill="#fdc400"/><path id="path598" d="M114.548 142.42h40.286c4.11 0 7.81-1.644 7.81-4.111 0-2.466-6.577-2.877-9.043-2.055-2.467.822-13.155 5.755-17.677 5.344s-8.632-3.289-9.043-6.166c-.412-2.878 2.055-5.344 6.577-5.344s10.277 1.644 11.51 1.233 4.11-3.7 5.344-4.11c1.233-.412 4.933-.823 4.933-.823l-1.644 1.233 5.344-1.233s-4.111 4.522-8.222 5.755c-4.111 1.234-12.743.823-16.032.823s-4.933-.411-4.522 2.055c.41 2.466 2.878 4.111 4.933 3.699 2.056-.411 8.222-2.466 8.222-2.466l-1.645-1.233 7.4-.411s-.411-1.233 0-1.233 4.11.41 4.11.41-2.466-1.233-2.055-1.233 2.056 0 5.344.411c3.289.412 10.277 1.645 9.866 4.933-.411 3.289-2.877 6.166-5.755 6.166s-5.344-.822-5.344.412c0 1.233 3.289 2.055 5.344 2.055s4.522-1.644 4.933-1.644 1.233 2.466 1.644 2.466 2.878-.822 2.878-.822l-1.644 4.522 2.877.822s-1.644 1.644-1.233 1.644 2.877 0 2.877.411-3.288 2.878-3.288 3.289 2.466 1.644 2.466 1.644-1.644 2.467-2.055 2.056-2.056-2.467-2.056-2.467-.411 1.645-1.233 1.645-2.466-.411-2.466-.411 1.233-2.467.822-2.467-2.467 1.644-2.467 1.233l-1.232-1.236s3.288-1.336 3.288-3.289c0-1.952-1.336-3.905-7.296-4.213-5.961-.309-6.064 1.438-10.483 1.233-4.42-.206-4.42-1.953-7.708-1.953-3.288 0-13.463 4.111-18.19 4.008-4.727-.102-10.688-.411-10.483-.616.206-.206 3.906-9.661 4.008-9.966z" fill-rule="evenodd" fill-opacity=".996" stroke="#000" stroke-width=".701" fill="#fdc400"/><path id="path592" d="M106.741 140.054c-.411.206-4.008.72-4.214 4.522-.205 3.803.309 3.803.72 3.597.411-.205 1.233-3.494 1.233-3.494s-1.233 4.522.103 5.55a9.298 9.298 0 0 0 2.775 1.438l.513-3.597s-1.027 3.495 1.439 4.728c2.467 1.233 3.392.308 3.186-.617-.205-.925-.925-3.288-.925-3.288s1.953 2.158 2.056 2.363c.102.206 1.027 1.85 3.494 1.131 2.466-.72.719-2.364.719-2.364l-2.98-2.46s3.083 3.185 4.419 2.055-1.028-3.597-.925-3.494 1.953 3.494 2.672 1.336-1.13-2.775-1.747-4.83c-.617-2.056-1.131-2.261-.514-3.495.617-1.233.72-3.596.72-3.596s2.569.616 2.363-1.542c-.205-2.158-2.775-2.672-3.288-2.775-.514-.103-.412-2.26-.617-2.158-.206.103-1.85 1.336-1.85 1.336s-1.439-3.392-1.747-3.186-1.953 1.953-3.186 2.056c-1.233.102-1.953 1.85-1.953 1.85s-4.316-2.056-4.213 1.335c.103 3.392 2.569 2.57 2.569 2.672s-.411 4.728-.822 4.933z" fill-rule="evenodd" fill-opacity=".996" stroke="#000" stroke-width=".701" fill="#fdc400"/><path id="path600" d="M109.25 96.386c.514-.103 1.336-.72 2.158-.514s2.055 1.13 1.336 1.439c-.72.308-1.233.411-1.953.103-.719-.309-1.233-.822-1.541-1.028z" fill-rule="evenodd" fill-opacity=".996" transform="rotate(-8.069 381.856 116.539)"/><path id="path601" d="M109.25 96.386c.514-.103 1.336-.72 2.158-.514s2.055 1.13 1.336 1.439c-.72.308-1.233.411-1.953.103-.719-.309-1.233-.822-1.541-1.028z" fill-rule="evenodd" fill-opacity=".996" transform="scale(-1 1) rotate(-8.069 267.814 1723.078)"/><path id="path602" d="M110.99 140.813c.103.514.411 4.831.616 4.522.206-.308 1.748-4.419 1.645-4.419s-2.158.103-2.261-.103z" fill-rule="evenodd" fill-opacity=".996" stroke="#000" stroke-width=".421" fill="#000039"/><path id="path603" d="M109.96 140.959c.049-1.215.822-1.13 2.467-.925 1.644.206 2.466 1.028 2.363 1.234-.102.205-1.438.719-2.569.616-1.336-.411-2.298.089-2.261-.925z" stroke="#000" stroke-width=".842" fill="none"/><path id="path607" d="M112.43 137.869l-.206 1.953" stroke="#000" stroke-width="1.497" fill="none"/><path id="path608" d="M119.32 132.633s1.336.617 1.131 1.233c-.206.617-1.131.925-1.131.925" stroke="#000" stroke-width="1.497" fill="none"/><path id="path609" d="M108.12 132.119c-.308.103-.719.308-.925 1.13-.205.823.925 1.337.925 1.337" stroke="#000" stroke-width="1.497" fill="none"/><path id="path610" d="M111.335 136.42s-1.454 1.455 1.017 1.455.727-1.308.727-1.308" stroke="#000" stroke-width="1.497" fill="none"/></g><path id="polygon749" fill="#fdc400" fill-rule="evenodd" transform="matrix(.34772 0 0 .34286 640.98 116.4)" stroke-width="1pt" d="M249.94 680.32l18-59.99-49.99-37.71 62.61-1.42 20.42-59.2 20.7 59.1 62.61 1.14-49.82 37.94 18.27 59.9-51.48-35.65z"/><path id="polygon750" fill="#003017" fill-rule="evenodd" fill-opacity=".996" transform="matrix(.28976 0 0 .27236 658.43 158.85)" stroke-width="1pt" d="M249.94 680.32l18-59.99-49.99-37.71 62.61-1.42 20.42-59.2 20.7 59.1 62.61 1.14-49.82 37.94 18.27 59.9-51.48-35.65z"/><path id="polygon751" fill="#fdc400" fill-rule="evenodd" transform="matrix(.34397 0 0 .32423 606.09 87.419)" stroke-width="1pt" d="M249.94 680.32l18-59.99-49.99-37.71 62.61-1.42 20.42-59.2 20.7 59.1 62.61 1.14-49.82 37.94 18.27 59.9-51.48-35.65z"/><path id="polygon752" fill="#003017" fill-rule="evenodd" fill-opacity=".996" transform="matrix(.28664 0 0 .25756 623.36 127.56)" stroke-width="1pt" d="M249.94 680.32l18-59.99-49.99-37.71 62.61-1.42 20.42-59.2 20.7 59.1 62.61 1.14-49.82 37.94 18.27 59.9-51.48-35.65z"/><path id="polygon753" fill="#fdc400" fill-rule="evenodd" transform="matrix(.3484 0 0 .32423 677.16 87.419)" stroke-width="1pt" d="M249.94 680.32l18-59.99-49.99-37.71 62.61-1.42 20.42-59.2 20.7 59.1 62.61 1.14-49.82 37.94 18.27 59.9-51.48-35.65z"/><path id="polygon754" fill="#003017" fill-rule="evenodd" fill-opacity=".996" transform="matrix(.29033 0 0 .25756 694.65 127.56)" stroke-width="1pt" d="M249.94 680.32l18-59.99-49.99-37.71 62.61-1.42 20.42-59.2 20.7 59.1 62.61 1.14-49.82 37.94 18.27 59.9-51.48-35.65z"/></g><path id="path3870" d="M640.9 319.18c7.838 33.733 40.92 58.77 85.477 64.69 57.231 7.604 111.83-21.392 121.87-64.724" fill="none"/><path id="text3872" d="M644.94 331.5l10.359-5.267.975 1.917-4.063 2.066 1.344 2.643 4.063-2.066.975 1.917-10.36 5.267-.974-1.917 4.695-2.387-1.344-2.643-4.695 2.387-.975-1.917m4.336 8.157l9.672-6.443 3.309 4.967-1.608 1.071-2.117-3.178-2.235 1.49 1.97 2.958-1.532 1.02-1.97-2.957-2.663 1.774 2.167 3.253-1.633 1.087-3.36-5.042m6.74 9.356l8.53-7.89 1.461 1.578-3.346 3.095 2.014 2.177 3.346-3.095 1.46 1.579-8.531 7.89-1.46-1.578 3.866-3.577-2.013-2.177-3.867 3.577-1.46-1.58m11.14 4.673l1.385 1.214 2.516-4.277-3.9 3.063m-5.413 1.457l9.63-7.01 2.185 1.915-5.676 10.479-1.753-1.538 1.494-2.574-1.872-1.642-2.345 1.828-1.663-1.458m8.404 7.026l5.739-7.825-2.008-1.473 1.133-1.545 5.763 4.226-1.134 1.546-2.008-1.473-5.74 7.825-1.745-1.28m4.713 3.39l6.053-9.92 1.836 1.121-2.374 3.89 2.531 1.546 2.375-3.89 1.835 1.12-6.054 9.919-1.835-1.12 2.744-4.496-2.532-1.545-2.744 4.496-1.835-1.12m11.38 6.48l4.884-10.544 5.512 2.554-.8 1.725-3.546-1.643-1.155 2.492 3.349 1.551-.78 1.685-3.349-1.551-2.15 4.642-1.965-.91m10.779-1.602c-.679 1.788-1.003 2.953-.973 3.498.037.54.338.919.902 1.133.555.21 1.02.128 1.393-.246.38-.378.913-1.47 1.598-3.276s1.012-2.979.98-3.518c-.032-.54-.327-.916-.887-1.128-.56-.213-1.03-.128-1.412.255-.382.382-.916 1.476-1.602 3.282m-2.067-.784c.438-1.152.84-2.051 1.21-2.697.37-.65.737-1.106 1.1-1.366.502-.375 1.012-.585 1.53-.63.517-.046 1.134.067 1.849.338.715.272 1.25.596 1.608.974.357.378.602.874.734 1.49.095.444.064 1.03-.094 1.756-.152.727-.446 1.665-.882 2.813-.434 1.143-.836 2.04-1.206 2.69-.37.645-.734 1.104-1.096 1.376-.507.372-1.02.581-1.537.627-.518.045-1.134-.068-1.85-.339-.714-.271-1.25-.596-1.607-.973-.357-.378-.6-.874-.727-1.487-.099-.436-.072-1.017.08-1.745.155-.732.45-1.675.888-2.827m9.996-2.469l2.075.619-2.235 7.507c-.256.858-.326 1.472-.21 1.842.121.367.45.63.985.79.53.158.943.113 1.237-.136.3-.247.579-.806.839-1.68l2.226-7.477 2.047.61-2.29 7.687c-.222.748-.428 1.282-.618 1.603a2.503 2.503 0 0 1-.689.78 2.868 2.868 0 0 1-1.449.528c-.549.047-1.16-.03-1.836-.231-1.273-.38-2.09-.922-2.452-1.628-.356-.71-.329-1.751.08-3.126l2.29-7.687m5.558 13.703l2.537-11.34 2.173.486 1.178 8.591 1.716-7.944 1.996.447-2.538 11.34-2.158-.483-1.197-8.611-1.719 7.958-1.988-.445m11.36.578l.947.149c.482.075.825.093 1.03.054a.93.93 0 0 0 .518-.285c.246-.267.451-.653.616-1.156.167-.51.34-1.335.518-2.478.175-1.113.252-1.931.232-2.454-.02-.522-.13-.931-.327-1.227a.999.999 0 0 0-.443-.345c-.185-.085-.487-.16-.904-.225l-.917-.144-1.27 8.111m-2.36 1.365l1.798-11.481 3.437.538c.7.11 1.248.256 1.641.44.4.185.712.433.938.743.341.456.547.997.617 1.624.075.623.014 1.566-.184 2.828-.255 1.63-.493 2.774-.713 3.432-.22.653-.503 1.195-.85 1.624a2.19 2.19 0 0 1-1.258.819c-.496.11-1.323.075-2.481-.106l-2.945-.462m8.988 1.33l1.118-11.567 5.94.574-.185 1.923-3.8-.367-.259 2.674 3.538.342-.177 1.832-3.538-.341-.307 3.184 3.89.376-.188 1.953-6.032-.582m9.817-.937l.958.035c.488.017.83-.005 1.03-.069a.93.93 0 0 0 .48-.345c.212-.295.37-.702.474-1.221.105-.525.178-1.366.22-2.522.04-1.126.02-1.947-.063-2.464-.082-.516-.239-.91-.47-1.18a.999.999 0 0 0-.481-.289c-.194-.062-.502-.101-.925-.116l-.927-.034-.296 8.205m-2.18 1.636l.418-11.613 3.476.125c.71.025 1.27.106 1.683.242a2.36 2.36 0 0 1 1.02.625c.392.412.66.925.805 1.54.149.61.2 1.552.155 2.83-.06 1.648-.16 2.813-.3 3.492-.14.675-.357 1.246-.65 1.713a2.186 2.186 0 0 1-1.153.963c-.479.17-1.304.232-2.476.19l-2.979-.107m12.945.152l-.46-11.612 2.163-.086.461 11.612-2.164.086m5.78-.306l-.794-9.672-2.482.204-.157-1.91 7.123-.585.156 1.91-2.481.204.794 9.672-2.159.177m7.624-12.46l2.134-.37 1.341 7.716c.154.882.365 1.464.633 1.744.272.274.683.363 1.234.268.545-.095.894-.319 1.047-.672.158-.355.159-.98.003-1.877l-1.336-7.688 2.104-.365 1.373 7.902c.134.769.187 1.339.16 1.711a2.504 2.504 0 0 1-.27 1.005 2.869 2.869 0 0 1-1.061 1.119c-.471.286-1.054.49-1.748.61-1.308.227-2.282.105-2.92-.366-.635-.477-1.074-1.421-1.32-2.834l-1.374-7.903m11.562 2.947l.88-.214c.655-.16 1.084-.399 1.286-.717.2-.324.225-.796.074-1.416-.152-.626-.38-1.029-.683-1.209-.299-.186-.788-.196-1.467-.03l-.91.22.82 3.366m-.484 6.844l-2.75-11.291 3.651-.89c1.114-.27 1.977-.217 2.587.163.61.38 1.053 1.136 1.33 2.27.27 1.114.212 2.009-.178 2.684-.386.668-1.114 1.133-2.184 1.394l-1.533.373 1.166 4.788-2.09.509m8.3-8.182c.578 1.822 1.047 2.937 1.41 3.345.364.402.834.511 1.41.329.565-.18.878-.533.939-1.058.063-.532-.197-1.719-.781-3.56s-1.056-2.964-1.416-3.367c-.36-.403-.826-.514-1.396-.333-.571.18-.887.54-.95 1.077-.061.537.2 1.726.784 3.567m-2.108.669c-.372-1.175-.614-2.13-.726-2.865-.114-.74-.109-1.325.013-1.754.162-.606.432-1.087.81-1.444.377-.357.93-.652 1.659-.883.729-.231 1.35-.31 1.865-.235.514.074 1.014.311 1.5.712.35.29.69.768 1.017 1.434.332.665.684 1.583 1.055 2.753.37 1.165.611 2.118.725 2.858.111.735.11 1.321-.004 1.759-.167.607-.439 1.089-.816 1.446-.378.357-.931.651-1.66.882-.729.232-1.35.31-1.865.236-.514-.075-1.012-.313-1.493-.714-.347-.28-.687-.753-1.02-1.418-.334-.67-.687-1.593-1.06-2.768m10.623 2.657l-4.324-10.787 2.066-.829 5.833 6.418-3.08-7.521 1.898-.76 4.324 10.786-2.052.823-5.86-6.424 3.086 7.536-1.891.758m13.459-5.95l-4.534-8.58-2.202 1.163-.895-1.695 6.318-3.338.896 1.695-2.202 1.163 4.534 8.58-1.915 1.012m5.115-2.745l-6.205-9.826 1.818-1.148 2.434 3.854 2.507-1.584-2.433-3.854 1.818-1.148 6.205 9.825-1.818 1.149-2.812-4.453-2.508 1.583 2.813 4.453-1.819 1.149m7.752-5.025l-7.003-9.273 4.763-3.597 1.164 1.541-3.047 2.301 1.619 2.144 2.836-2.142 1.11 1.47-2.836 2.141 1.928 2.553 3.12-2.355 1.181 1.565-4.835 3.652m5.978-9.971l1.545-1.518.523.533c.501.51.906.796 1.215.859.309.056.62-.07.932-.376.326-.321.493-.647.5-.978.01-.334-.144-.663-.462-.986a1.56 1.56 0 0 0-.802-.46c-.294-.063-.776-.04-1.446.067l-1.342.218c-1.147.196-1.965.232-2.455.106-.486-.128-.959-.426-1.417-.892-.684-.697-1.014-1.445-.989-2.245.025-.8.4-1.556 1.125-2.269.768-.754 1.562-1.122 2.384-1.105s1.618.42 2.39 1.206c.078.079.136.142.175.188.042.043.077.083.106.119l-1.464 1.438-.217-.22c-.44-.449-.83-.698-1.168-.747-.337-.05-.675.092-1.012.423-.247.244-.37.51-.37.797.001.282.129.551.383.81.342.348 1.038.421 2.09.22a.107.107 0 0 1 .026-.004l1.417-.26c1-.194 1.785-.217 2.353-.07.565.144 1.118.492 1.661 1.044.74.754 1.097 1.547 1.068 2.379-.029.832-.443 1.641-1.243 2.428-.833.818-1.665 1.212-2.497 1.184-.829-.033-1.677-.49-2.544-1.373a11.112 11.112 0 0 1-.433-.484l-.032-.032m8.993-3.264l-8.908-7.464 3.834-4.575 1.48 1.241-2.452 2.927 2.06 1.725 2.282-2.724 1.411 1.182-2.282 2.725 2.452 2.055 2.51-2.996 1.504 1.26-3.891 4.644m2.261-10.404l1.029-1.527-4.562-1.954 3.533 3.481m2.131 5.184l-8.175-8.664 1.623-2.41 11.114 4.302-1.303 1.934-2.742-1.156-1.391 2.066 2.11 2.094-1.236 1.834m1.38-9.45l.989-1.926.665.341c.635.326 1.11.471 1.422.434.311-.044.567-.26.767-.65.209-.407.264-.769.167-1.085-.096-.32-.345-.584-.748-.791a1.553 1.553 0 0 0-.906-.185c-.3.033-.75.206-1.352.519l-1.205.628c-1.027.547-1.793.838-2.297.873-.502.03-1.044-.103-1.626-.402-.868-.446-1.416-1.052-1.644-1.82-.228-.767-.11-1.603.354-2.507.492-.958 1.13-1.557 1.916-1.799.785-.24 1.668-.11 2.648.393.099.05.174.092.225.124.054.028.1.054.138.08l-.938 1.825-.275-.141c-.56-.287-1.007-.401-1.343-.342-.336.06-.612.3-.828.72-.158.309-.192.6-.1.873.09.267.295.483.617.648.434.223 1.119.074 2.053-.447a.076.076 0 0 1 .024-.013l1.263-.692c.89-.499 1.627-.768 2.213-.807.58-.04 1.216.116 1.905.47.94.482 1.527 1.123 1.761 1.922.235.799.096 1.697-.417 2.695-.533 1.039-1.199 1.675-1.998 1.91-.797.23-1.745.062-2.846-.504-.117-.06-.304-.167-.564-.323l-.04-.02" transform="matrix(1.0376 0 0 1.1529 -28.43 -57.787)"/></g></g></svg>