<svg id="svg732" xmlns="http://www.w3.org/2000/svg" height="480" width="640"><g id="flag" fill-rule="evenodd"><path id="rect851" stroke-width="1pt" fill="#6fdcff" d="M0 0h640v480H0z"/><g id="g766" transform="matrix(13.723 0 0 10.439 -5258.8 -2576.6)" fill="#ffe400"><path id="path760" d="M387.6 291.56c.237.305.159.818.818.752 1.006 0 1.035-.809 1.035-1.374 0-.564-1.499-1.353-1.568-2.183-.07-.831.346-1.063.694-1.063.346 0 .589.266.589.498s-.173.299-.416.299.104-.166-.104-.299-.347.199-.347.399c0 .199.52.265.867.116.07.448.104.482-.382 1.245.348-.299.381-.365.764-.199-.382-.432-.096-1.312-.083-1.536s-.073-.49-.229-.623c-.278-.332-.885-.347-1.249-.133-.53.311-.556 1.228-.417 1.528l1.469 1.98c.104.233.14.88-.484.913-.659.066-.885-1.115-1.002-1.508-.157.429-.332 1.613-.991 1.547-.625-.033-.745-.68-.641-.913l1.509-2.019c.138-.3.112-1.217-.418-1.528-.364-.214-.97-.199-1.248.133-.156.133-.243.399-.23.623s.299 1.104-.083 1.536c.383-.166.417-.1.764.199-.486-.763-.451-.797-.382-1.245.347.149.868.083.868-.116 0-.2-.14-.532-.348-.399-.207.133.139.299-.103.299-.244 0-.417-.067-.417-.299s.243-.498.59-.498.763.232.693 1.063c-.069.83-1.607 1.736-1.607 2.3 0 .565.107 1.257 1.113 1.257.659.066.737-.447.976-.752z"/><path id="path761" d="M387.52 294.92c.237.305.432 1.209 1.091 1.143 1.006 0 1.387-.731 1.387-1.296 0-.564-2.046-5.181-2.115-6.011-.07-.831.346-1.063.694-1.063.346 0 .589.266.589.498s-.173.299-.416.299.104-.166-.104-.299-.347.199-.347.399c0 .199.52.265.867.116.07.448.104.482-.382 1.245.348-.299.381-.365.764-.199-.382-.432-.096-1.312-.083-1.536s-.073-.49-.229-.623c-.278-.332-.885-.347-1.249-.133-.53.311-.556 1.228-.417 1.528l1.977 5.613c.104.233-.173.997-.797 1.03-.659.066-.885-.842-1.002-1.235l.898.086s.035-.182 0-.3c-.464-.04-.898-.151-.898-.151l-.034-.598h.443l-.035-.265s-.374.033-.408 0c-.035-.033-.07-.599-.07-.599s-.069-.033-.144-.033c-.076 0-.145.033-.145.033s-.035.566-.069.599c-.035.033-.409 0-.409 0l-.034.265h.443l-.035.598s-.434.111-.898.151c-.034.118 0 .3 0 .3l.898-.086c-.117.393-.343 1.301-1.001 1.235-.625-.033-.902-.797-.798-1.03l1.978-5.613c.138-.3.112-1.217-.418-1.528-.364-.214-.97-.199-1.248.133-.156.133-.243.399-.23.623s.299 1.104-.083 1.536c.383-.166.417-.1.764.199-.486-.763-.451-.797-.382-1.245.347.149.868.083.868-.116 0-.2-.14-.532-.348-.399-.207.133.139.299-.103.299-.244 0-.417-.067-.417-.299s.243-.498.59-.498.763.232.693 1.063c-.069.83-2.115 5.447-2.115 6.011 0 .565.381 1.296 1.387 1.296.659.066.893-.838 1.132-1.143z" transform="matrix(1 0 0 -1 0 574.63)"/><path id="path762" d="M387.52 294.92c.237.305.432 1.209 1.091 1.143 1.006 0 1.387-.731 1.387-1.296 0-.564-2.046-5.181-2.115-6.011-.07-.831.346-1.063.694-1.063.346 0 .589.266.589.498s-.173.299-.416.299.104-.166-.104-.299-.347.199-.347.399c0 .199.52.265.867.116.07.448.104.482-.382 1.245.348-.299.381-.365.764-.199-.382-.432-.096-1.312-.083-1.536s-.073-.49-.229-.623c-.278-.332-.885-.347-1.249-.133-.53.311-.556 1.228-.417 1.528l1.977 5.613c.104.233-.173.997-.797 1.03-.659.066-.885-.842-1.002-1.235l.898.086s.035-.182 0-.3c-.464-.04-.898-.151-.898-.151l-.034-.598h.443l-.035-.265s-.374.033-.408 0c-.035-.033-.07-.599-.07-.599s-.069-.033-.144-.033c-.076 0-.145.033-.145.033s-.035.566-.069.599c-.035.033-.409 0-.409 0l-.034.265h.443l-.035.598s-.434.111-.898.151c-.034.118 0 .3 0 .3l.898-.086c-.117.393-.343 1.301-1.001 1.235-.625-.033-.902-.797-.798-1.03l1.978-5.613c.138-.3.112-1.217-.418-1.528-.364-.214-.97-.199-1.248.133-.156.133-.243.399-.23.623s.299 1.104-.083 1.536c.383-.166.417-.1.764.199-.486-.763-.451-.797-.382-1.245.347.149.868.083.868-.116 0-.2-.14-.532-.348-.399-.207.133.139.299-.103.299-.244 0-.417-.067-.417-.299s.243-.498.59-.498.763.232.693 1.063c-.069.83-2.115 5.447-2.115 6.011 0 .565.381 1.296 1.387 1.296.659.066.893-.838 1.132-1.143z" transform="translate(0 -17.498)"/><path id="path763" d="M387.52 294.92c.237.305.432 1.209 1.091 1.143 1.006 0 1.387-.731 1.387-1.296 0-.564-2.046-5.181-2.115-6.011-.07-.831.346-1.063.694-1.063.346 0 .589.266.589.498s-.173.299-.416.299.104-.166-.104-.299-.347.199-.347.399c0 .199.52.265.867.116.07.448.104.482-.382 1.245.348-.299.381-.365.764-.199-.382-.432-.096-1.312-.083-1.536s-.073-.49-.229-.623c-.278-.332-.885-.347-1.249-.133-.53.311-.556 1.228-.417 1.528l1.977 5.613c.104.233-.173.997-.797 1.03-.659.066-.885-.842-1.002-1.235l.898.086s.035-.182 0-.3c-.464-.04-.898-.151-.898-.151l-.034-.598h.443l-.035-.265s-.374.033-.408 0c-.035-.033-.07-.599-.07-.599s-.069-.033-.144-.033c-.076 0-.145.033-.145.033s-.035.566-.069.599c-.035.033-.409 0-.409 0l-.034.265h.443l-.035.598s-.434.111-.898.151c-.034.118 0 .3 0 .3l.898-.086c-.117.393-.343 1.301-1.001 1.235-.625-.033-.902-.797-.798-1.03l1.978-5.613c.138-.3.112-1.217-.418-1.528-.364-.214-.97-.199-1.248.133-.156.133-.243.399-.23.623s.299 1.104-.083 1.536c.383-.166.417-.1.764.199-.486-.763-.451-.797-.382-1.245.347.149.868.083.868-.116 0-.2-.14-.532-.348-.399-.207.133.139.299-.103.299-.244 0-.417-.067-.417-.299s.243-.498.59-.498.763.232.693 1.063c-.069.83-2.115 5.447-2.115 6.011 0 .565.381 1.296 1.387 1.296.659.066.893-.838 1.132-1.143z" transform="matrix(1 0 0 -1 0 557.13)"/><path id="path764" d="M387.52 294.92c.237.305.432 1.209 1.091 1.143 1.006 0 1.387-.731 1.387-1.296 0-.564-2.046-5.181-2.115-6.011-.07-.831.346-1.063.694-1.063.346 0 .589.266.589.498s-.173.299-.416.299.104-.166-.104-.299-.347.199-.347.399c0 .199.52.265.867.116.07.448.104.482-.382 1.245.348-.299.381-.365.764-.199-.382-.432-.096-1.312-.083-1.536s-.073-.49-.229-.623c-.278-.332-.885-.347-1.249-.133-.53.311-.556 1.228-.417 1.528l1.977 5.613c.104.233-.173.997-.797 1.03-.659.066-.885-.842-1.002-1.235l.898.086s.035-.182 0-.3c-.464-.04-.898-.151-.898-.151l-.034-.598h.443l-.035-.265s-.374.033-.408 0c-.035-.033-.07-.599-.07-.599s-.069-.033-.144-.033c-.076 0-.145.033-.145.033s-.035.566-.069.599c-.035.033-.409 0-.409 0l-.034.265h.443l-.035.598s-.434.111-.898.151c-.034.118 0 .3 0 .3l.898-.086c-.117.393-.343 1.301-1.001 1.235-.625-.033-.902-.797-.798-1.03l1.978-5.613c.138-.3.112-1.217-.418-1.528-.364-.214-.97-.199-1.248.133-.156.133-.243.399-.23.623s.299 1.104-.083 1.536c.383-.166.417-.1.764.199-.486-.763-.451-.797-.382-1.245.347.149.868.083.868-.116 0-.2-.14-.532-.348-.399-.207.133.139.299-.103.299-.244 0-.417-.067-.417-.299s.243-.498.59-.498.763.232.693 1.063c-.069.83-2.115 5.447-2.115 6.011 0 .565.381 1.296 1.387 1.296.659.066.893-.838 1.132-1.143z" transform="translate(0 -34.998)"/><path id="path765" d="M387.6 291.56c.237.305.159.818.818.752 1.006 0 1.035-.809 1.035-1.374 0-.564-1.499-1.353-1.568-2.183-.07-.831.346-1.063.694-1.063.346 0 .589.266.589.498s-.173.299-.416.299.104-.166-.104-.299-.347.199-.347.399c0 .199.52.265.867.116.07.448.104.482-.382 1.245.348-.299.381-.365.764-.199-.382-.432-.096-1.312-.083-1.536s-.073-.49-.229-.623c-.278-.332-.885-.347-1.249-.133-.53.311-.556 1.228-.417 1.528l1.469 1.98c.104.233.14.88-.484.913-.659.066-.885-1.115-1.002-1.508-.157.429-.332 1.613-.991 1.547-.625-.033-.745-.68-.641-.913l1.509-2.019c.138-.3.112-1.217-.418-1.528-.364-.214-.97-.199-1.248.133-.156.133-.243.399-.23.623s.299 1.104-.083 1.536c.383-.166.417-.1.764.199-.486-.763-.451-.797-.382-1.245.347.149.868.083.868-.116 0-.2-.14-.532-.348-.399-.207.133.139.299-.103.299-.244 0-.417-.067-.417-.299s.243-.498.59-.498.763.232.693 1.063c-.069.83-1.607 1.736-1.607 2.3 0 .565.107 1.257 1.113 1.257.659.066.737-.447.976-.752z" transform="matrix(1 0 0 -1 0 539.63)"/></g><g id="g9043" fill="#ffe400" transform="translate(-194.73 8.285) scale(1.0673)"><rect id="rect773" rx="85.12" ry="80.648" height="161.3" width="170.24" y="104.45" x="425.9" stroke-width="1pt"/><path id="path778" d="M506.94 56.355c-.708-.007-4.534 26.842-6.013 32.876-1.325 13.43 18.07 12.94 14.897-.532l-8.88-32.344z" stroke-width=".25"/><path id="path779" d="M513.77 316.21c.706.053 6.49-26.479 8.408-32.401 2.306-13.31-17.078-14.098-14.9-.45l6.492 32.85z" stroke-width=".25"/><path id="path780" d="M378.17 184.61c-.06.669 27.915 6.277 34.156 8.123 14.037 2.249 14.962-16.113.547-14.115l-34.703 5.992z" stroke-width=".25"/><path id="path781" d="M649.89 187.8c.03-.67-28.166-5.274-34.483-6.896-14.123-1.745-14.234 16.638.079 14.125l34.404-7.23z" stroke-width=".25"/><path id="path782" d="M406.79 99.641c-.482.492 17.893 21.249 21.605 26.348 9.588 9.97 22.265-3.945 9.616-10.793l-31.22-15.559z" stroke-width=".25"/><path id="path783" d="M617.95 270.64c.435-.53-19.772-19.698-23.937-24.472-10.465-9.145-21.819 5.761-8.59 11.543l32.528 12.929z" stroke-width=".25"/><path id="path784" d="M448.97 70.619c-.644.28 7.966 26.114 9.34 32.171 4.84 12.685 22.167 4.414 13.24-6.493l-22.58-25.678z" stroke-width=".25"/><path id="path785" d="M571.98 302.96c.663-.237-6.032-26.575-6.96-32.708-3.897-12.973-21.79-5.862-13.682 5.606l20.642 27.101z" stroke-width=".25"/><path id="path786" d="M602.16 88.602c-.511-.465-22.711 16.61-28.152 20.045-10.676 8.923 3.807 21.156 11.236 9.282l16.916-29.327z" stroke-width=".25"/><path id="path787" d="M419.24 282.33c.476.497 23.874-15.076 29.553-18.145 11.304-8.199-2.247-21.355-10.528-9.999L419.24 282.33z" stroke-width=".25"/><path id="path788" d="M384.15 138.16c-.29.612 24.124 14.715 29.362 18.422 12.449 6.543 19.765-10.482 5.47-13.139l-34.832-5.283z" stroke-width=".25"/><path id="path789" d="M638.07 236.6c.335-.591-22.987-16.266-27.941-20.309-11.939-7.347-20.486 9.156-6.419 12.748l34.36 7.561z" stroke-width=".25"/><path id="path790" d="M557.37 63.719c-.657-.251-14.571 23.416-18.275 28.521-6.412 12.042 11.831 18.301 14.072 4.662l4.204-33.183z" stroke-width=".25"/><path id="path791" d="M463.52 307.97c.637.294 16.252-22.401 20.322-27.25 7.28-11.591-10.461-19.035-13.696-5.577l-6.626 32.826z" stroke-width=".25"/><path id="path792" d="M386.04 238.68c.257.625 27.986-5.986 34.449-6.926 13.652-3.825 5.965-20.703-6.056-12.906L386.04 238.68z" stroke-width=".25"/><path id="path793" d="M638.13 136.11c-.21-.64-28.357 4.13-34.873 4.643-13.899 2.917-7.468 20.261 5.096 13.273l29.777-17.916z" stroke-width=".25"/><path id="path794" d="M534.62 58.119c-.692-.141-10.14 25.429-12.87 31.058-4.149 12.903 14.954 16.119 14.705 2.318L534.62 58.12z" stroke-width=".25"/><path id="path795" d="M486.15 313.97c.68.187 11.979-24.7 15.115-30.136 5.085-12.599-13.736-17.064-14.5-3.28l-.615 33.416z" stroke-width=".25"/><path id="path796" d="M476.38 60.639c-.692.144 1.918 27.122 1.9 33.317 1.88 13.37 20.668 8.783 14.395-3.675l-16.29-29.642z" stroke-width=".25"/><path id="path797" d="M544.39 312.46c.7-.098.075-27.183.546-33.362-.895-13.462-19.974-10.121-14.628 2.72l14.082 30.641z" stroke-width=".25"/><path id="path798" d="M428.16 83.092c-.58.384 12.765 24.345 15.26 30.07 7.154 11.661 22.642.589 11.8-8.63l-27.06-21.44z" stroke-width=".25"/><path id="path799" d="M593.02 290.86c.607-.345-10.95-25.126-13.019-31.002-6.283-12.104-22.545-2.077-12.404 7.834l25.423 23.168z" stroke-width=".25"/><path id="path800" d="M393 116.64c-.397.556 21.128 18.39 25.624 22.888 11.091 8.456 21.36-7.142 7.75-12.065L393 116.64z" stroke-width=".25"/><path id="path801" d="M627.19 256.26c.436-.529-19.729-19.736-23.885-24.519-10.445-9.165-21.832 5.72-8.615 11.526l32.5 12.992z" stroke-width=".25"/><path id="path802" d="M377.57 158.53c-.181.649 26.336 10.784 32.143 13.63 13.409 4.53 17.693-13.4 3.13-13.809l-35.273.179z" stroke-width=".25"/><path id="path803" d="M645.04 216.35c.229-.635-25.482-12.49-31.067-15.712-13.045-5.4-18.632 12.204-4.135 13.57l35.202 2.143z" stroke-width=".25"/><path id="path804" d="M376.7 209.96c.098.665 28.689.262 35.207.752 14.214-.753 10.823-18.853-2.767-13.879L376.7 209.96z" stroke-width=".25"/><path id="path805" d="M646.91 164.97c-.05-.67-28.601-2.149-35.067-3.067-14.235-.184-12.178 18.095 1.743 14.027l33.324-10.96z" stroke-width=".25"/><path id="path806" d="M401.18 263.43c.395.557 25.926-11.641 32.015-13.899 12.438-6.562 1.04-21.438-8.89-11.338L401.18 263.43z" stroke-width=".25"/><path id="path807" d="M623.48 111.1c-.353-.582-26.717 9.907-32.956 11.759-12.889 5.727-2.61 21.318 8.037 11.896l24.92-23.654z" stroke-width=".25"/><path id="path808" d="M442.83 298.77c.597.362 18.872-20.474 23.505-24.846 8.643-10.718-8.072-20.052-12.925-7.037l-10.58 31.883z" stroke-width=".25"/><path id="path809" d="M582.54 75.063c-.569-.4-20.327 19.183-25.269 23.239-9.407 10.124 6.583 20.535 12.378 7.87l12.891-31.11z" stroke-width=".25"/><g id="g852" transform="matrix(2.1824 0 0 2.0629 -405.01 -272.56)"><path id="path844" d="M349.53 159.5c.625 2.5.781 16.562 14.844 30 14.062 13.437 37.969 16.406 37.969 16.406s.156 1.875-1.563 2.031c-1.719.157-9.844-1.562-13.906-2.812-4.063-1.25-7.656-3.438-8.125-3.281-.469.156-1.25 1.562-2.5 1.406s-7.031-6.25-9.531-7.813c-2.5-1.562-10.938-10.781-13.75-15.312-2.813-4.531-3.438-7.5-4.375-7.5-.938 0-4.219 2.187-4.219 2.187s-2.969-4.531-5.625-11.719c-2.656-7.187-2.344-11.406-1.719-11.718.625-.313.625 5.312 2.656 10.468 2.032 5.157 4.844 6.719 4.844 6.719s-1.875-2.656-3.281-9.375-1.875-13.125-.938-15.156c.938-2.031 1.875-2.656 2.032-2.5.156.156-1.719 3.125-.469 10.781s4.844 14.219 5.625 13.906c.781-.312-.469-1.875-1.094-6.406s.625-7.344 1.719-7.656c.469-.469 1.25 5 1.406 7.344z" transform="translate(10.607 88.389)"/><path id="path845" d="M339.06 174.81c-2.656-2.5-6.875-11.25-7.812-10.781-.938.469 6.875 12.969 7.031 14.063.156 1.093 1.875 4.531.625 4.062s-10.625-10.312-9.531-8.437 8.125 10.468 7.656 10.937-5.781-4.688-5.937-4.062c-.157.625 5.312 5.781 5.156 6.406s-3.438-3.281-3.438-2.5 3.438 4.687 3.438 5.312-2.969-2.812-2.031-.937c.937 1.875 3.593 3.594 3.437 4.219s-2.187-.782-2.187-.469c0 .312 3.906 1.719 4.843 2.812.938 1.094 7.344 8.438 12.188 12.188s18.594 10.156 19.531 10.156c.938 0 2.344-2.031 2.031-2.812-.312-.782-13.75-5.313-17.5-8.75-3.75-3.438-12.968-11.563-13.75-12.032-.781-.468-2.812-.312-2.812-.781s2.656.313 2.5 0c-.156-.312-3.75-1.875-3.594-2.187.156-.313 2.5.625 2.5.312 0-.312-4.219-2.656-4.062-3.125.156-.469 3.125 1.406 3.125 1.094 0-.313-4.063-3.125-3.907-3.594.157-.469 3.125 2.188 2.969 1.563s-2.344-3.907-2.344-4.375c0-.469 3.594 3.437 3.907 2.656.312-.781-1.25-7.188-1.094-7.344s2.645 1.422 3.114.484c.468-.937-1.837-2.241-4.052-4.078z" transform="translate(11.232 85.889)"/><path id="path846" d="M385.18 222.67c-2.478.327-3.595-.519-2.188-2.55 1.948-.146 7.132-1.817 8.964-2.584s3.788-1.866 5.416-3.339c1.622-1.609 2.49 1.031 1.678 2.397-.674.962-3.715 2.694-5.95 3.61-3.244 1.087-6.033 2.593-7.92 2.466z" transform="matrix(.76398 0 0 .75875 102.13 140.95)"/><path id="path847" d="M398.28 216.38c-1.25-1.407-.156-2.344 1.719-3.438 2.812-1.562 2.032-3.593 5.625-5.312 1.563-.938 23.906-10 31.25-14.844s27.813-20.313 33.281-30.938c5.469-10.625 2.813-11.406 3.594-11.875.781-.468 1.563 1.563 1.406 3.907-.156 2.343-1.875 9.375-1.406 10s8.281-5.469 11.406-12.969 5.625-15.313 7.188-15.313c1.562 0-2.656 12.813-5.313 17.813-2.656 5-5.781 7.5-5 8.594.782 1.093 8.594-5.469 11.25-10.313 2.657-4.844 5.157-9.219 5.625-8.281.469.937-2.5 11.25-6.718 16.094-4.219 4.843-9.219 8.281-8.438 9.062.781.782 6.406 1.563 12.344-2.5 5.937-4.062 6.562-10 7.344-9.687.781.312-.782 8.437-6.407 13.437s-13.281 5.469-12.968 6.563c.312 1.094 16.25-4.531 15.937-3.281-.312 1.25-20.625 9.218-20.782 10 .001.625 3.439.781 8.907-.469 5.469-1.25 10.626-5.468 11.407-4.531.155 1.406-3.907 4.844-10.157 6.406-6.25 1.563-9.375 3.75-9.531 4.219-.156.468 11.094-1.407 11.094-.782s-14.688 3.438-14.844 4.22c-.156.781 14.062-2.813 13.75-2.032-.313.781-19.219 6.406-19.063 6.719.157.312 15.782-3.438 15.469-2.813-.312.625-26.406 7.969-26.562 8.438-.157.468 22.968-5.157 22.812-4.688s-12.031 3.437-12.031 3.75c0 .312 9.531-1.562 9.375-1.094-.156.469-24.063 6.563-24.532 7.5-.468.938 12.344-2.5 12.188-.781s-27.656 11.094-27.813 9.375c-.156-1.719 16.719-6.094 16.563-6.562-.156-.469-9.687 1.093-9.844.156-.156-.938 6.25-2.969 5.782-3.438-.469-.468-5.313 1.406-4.844.313.469-1.094 9.531-5.313 9.375-5.625-.156-.313-3.281 1.093-2.969 0 .313-1.094 19.687-6.719 19.375-7.344-.313-.625-8.906 1.406-9.687 1.562-.313-.624 12.031-5.156 11.718-5.937-.312-.781-6.562 2.656-6.874 1.719-.313-.938 10.781-5.313 10.156-5.938s-5.781 1.719-6.406 1.094 10.468-8.437 8.749-8.594c-1.718-.156-3.75 2.345-4.062.782.313-2.032 8.75-5.313 6.875-6.875-2.969-.938-13.125.625-17.344 3.125s-18.125 16.406-21.563 18.593c-3.437 2.188-15 7.032-17.187 7.969-3.438 1.25-4.063 3.125-7.5 4.844-6.251 1.719-6.25 3.594-9.219 4.687-1.093.313-12.343 5.781-12.5 5.313z" transform="translate(10.607 88.389)"/><path id="path848" d="M380 224.19c-1.875.938-3.593 3.438-2.501 4.375.626 1.25 2.501-2.656 4.063-2.5 1.563.156 3.75.157 7.969.47 4.219.312 6.406-.938 8.75-.782s7.657-1.25 10.157-1.25 2.968.312 3.281-.782c.312-1.093-7.813-.312-11.407-.468-3.593-.156-8.125.781-10.781.781-2.5-.156-6.875-.938-9.531.156z" transform="translate(13.107 87.607)"/><rect id="rect849" rx="1.719" ry="1.484" height="2.969" width="3.438" y="309.14" x="401.7" stroke-width="1pt"/><path id="path850" d="M432.17 225.28c1.566-.313 5.749 1.25 8.639 2.031 5.313 2.188 15.134 1.094 15.134 2.188s-.611 2.5-2.955 2.656-7.983-.937-7.827-.937 4.532 2.187 3.282 2.812-5.001-1.25-5.626-.781 3.438 1.406 2.813 1.719c-.625.312-3.447-.469-4.385-.312-.937.155.791 1.249-.303 1.718-1.093.469-2.932-.624-3.713-.313-.781.314 1.682 2.032.588 2.188-1.093.156-3.727-.781-5.134-.937-1.406-.156 1.384 1.562.447 1.718-.938.156-3.488-1.249-4.113-1.249s.05 1.874-.887 1.874c-.938 0-2.041-1.562-2.51-1.562s.01 1.875-.928 1.875c-.937 0-1.273-2.031-2.054-1.875-.924.157.023 2.656-1.227 2.5-1.25-.157-1.416-2.656-2.353-2.5-.938.156.166 2.5-.772 2.5-.937 0-1.089-2.344-2.027-2.5-.937-.156-.473 2.187-1.098 2.187s-1.089-2.187-1.402-2.187c-.312 0-.004 2.187-1.098 2.031s-1.089-2.5-1.402-2.344c-.312.157-.317 1.719-1.098 1.719s-.777-1.562-1.089-1.406c-.313.156-1.411 2.187-2.192 1.875-.781-.313.188-1.875-.124-1.875-.313 0-1.282 1.093-1.907.937s.032-1.406-.125-1.406c-.156 0-1.594.781-2.219.781s-2.344 1.094-2.813.156c-.468-.937 1.223-.937 1.535-1.875.313-.937-.91-3.593.34-4.531 1.25-.937 5.157 1.25 10.938-.312 10.624-3.125 18.824-6.718 19.665-6.563z" transform="matrix(1.0971 0 0 1 -29.114 82.451)"/></g></g></g></svg>