<svg id="svg1641" xmlns="http://www.w3.org/2000/svg" height="480" width="640"><defs id="defs1643"><clipPath id="clipPath4748"><path id="rect4750" fill-opacity=".67" d="M0 0h640v480H0z"/></clipPath></defs><g id="flag" clip-path="url(#clipPath4748)"><g id="g4244"><g id="g4230"><g id="g4217"><g id="g4205"><g id="g4194"><g id="g4184"><g id="g4175"><g id="g4167"><g id="g4160"><g id="g4154"><g id="g4149"><g id="g1277" fill-rule="evenodd" stroke-width="1pt" transform="translate(0 -.343) scale(.96831)"><path id="rect1644" fill="#e4104d" d="M0 248.03h744.09v248.03H0z"/><path id="rect1645" fill="#8a85ff" d="M0 .354h744.09v247.68H0z"/></g></g></g></g></g></g></g></g></g></g></g></g><g id="g2039" fill-rule="evenodd" transform="translate(-124.21 288.5) scale(1.6953)"><g id="g1683" transform="matrix(.3339 0 0 .3551 103.07 -209.73)"><path id="path1677" d="M175.25 443.36l145.49-.447s53.728-52.248 25.283-86.48c-28.444-34.232-139.96-1.082-140.41-1.082-.451 0-.903-18.376-28.444-18.737-27.541.361-27.992 18.737-28.443 18.737-.452 0-111.97-33.15-140.41 1.082-28.444 34.232 25.284 86.48 25.284 86.48l141.66.447z" transform="matrix(1 0 0 1.1618 0 -125.32)" fill="#f3ef7d"/><path id="path1682" d="M175.25 443.36l145.49-.447s53.728-52.248 25.283-86.48c-28.444-34.232-139.96-1.082-140.41-1.082-.451 0-.903-18.376-28.444-18.737-27.541.361-27.992 18.737-28.443 18.737-.452 0-111.97-33.15-140.41 1.082-28.444 34.232 25.284 86.48 25.284 86.48l141.66.447z" transform="matrix(.96 0 0 1.1286 7.087 -110.61)"/></g><g id="g2020" stroke-width="1pt" fill="#f3ef7d" transform="matrix(-1 0 0 1 455.54 -20.882)"><path id="rect2021" d="M239.71-79.738h.553v6.63h-.553z"/><path id="rect2022" d="M241.72-83.336h.553v13.634h-.553z"/><path id="rect2023" d="M243.64-85.201h.649v17.935h-.649z"/><path id="rect2024" d="M246.1-86.512h.703v21.451h-.703z"/><path id="rect2025" d="M248.89-87.28h.703v24.041h-.703z"/><path id="rect2026" d="M251.74-88.211h.697v26.196h-.697z"/><path id="rect2027" d="M254.16-88.414h.703v27.301h-.703z"/><path id="rect2028" d="M256.59-88.414h.703v28.069h-.703z"/><path id="rect2029" d="M259.63-88.354h.649v29.277h-.649z"/><path id="rect2030" d="M262.48-88.072h.799v29.293h-.799z"/><path id="rect2031" d="M265.6-87.353h.799v28.861h-.799z"/><path id="rect2032" d="M268.65-86.233h.751v27.946h-.751z"/><path id="rect2033" d="M271.84-84.952h.703v26.46h-.703z"/><path id="rect2034" d="M274.48-84.089h.703v24.686h-.703z"/><path id="rect2035" d="M277.29-82.42h.601v22.263h-.601z"/><path id="rect2036" d="M279.75-80.26h.505v19.025h-.505z"/><path id="rect2037" d="M281.96-78.149h.601v15.475h-.601z"/><path id="rect2038" d="M284.12-74.915h.54v9.879h-.54z"/></g><g id="g2001" stroke-width="1pt" fill="#f3ef7d" transform="translate(-131.37 -21.545)"><path id="rect1388" d="M239.71-79.738h.553v6.63h-.553z"/><path id="rect1464" d="M241.72-83.336h.553v13.634h-.553z"/><path id="rect1452" d="M243.64-85.201h.649v17.935h-.649z"/><path id="rect1390" d="M246.1-86.512h.703v21.451h-.703z"/><path id="rect1466" d="M248.89-87.28h.703v24.041h-.703z"/><path id="rect1454" d="M251.74-88.211h.697v26.196h-.697z"/><path id="rect1392" d="M254.16-88.414h.703v27.301h-.703z"/><path id="rect1468" d="M256.59-88.414h.703v28.069h-.703z"/><path id="rect1456" d="M259.63-88.354h.649v29.277h-.649z"/><path id="rect1394" d="M262.48-88.072h.799v29.293h-.799z"/><path id="rect1470" d="M265.6-87.353h.799v28.861h-.799z"/><path id="rect1458" d="M268.65-86.233h.751v27.946h-.751z"/><path id="rect1396" d="M271.84-84.952h.703v26.46h-.703z"/><path id="rect1472" d="M274.48-84.089h.703v24.686h-.703z"/><path id="rect1460" d="M277.29-82.42h.601v22.263h-.601z"/><path id="rect1398" d="M279.75-80.26h.505v19.025h-.505z"/><path id="rect1474" d="M281.96-78.149h.601v15.475h-.601z"/><path id="rect1462" d="M284.12-74.915h.54v9.879h-.54z"/></g><path id="path1651" d="M205.64 168.03l-.833-12.489c0-2.498-18.317-16.652-18.316-52.452 0-35.8 15.818-49.954 24.144-49.954s26.642 11.656 27.475 49.121c.832 37.466-18.317 51.62-18.317 51.62l-1.665 14.986s13.321.832 14.154.832c.832 0 18.316-14.986 63.275-13.321s47.456 19.982 48.289 25.81c.832 5.828-6.661 23.311-51.619 23.311-44.959 0-58.28-20.813-59.113-20.813-.832 0-14.153-.833-14.153-.833v10.823s17.483 13.321 16.651 57.447c-.833 44.126-18.317 46.624-23.312 46.624-6.66 0-20.814-2.497-21.647-45.791 1.666-44.126 13.322-56.615 13.322-57.447v-10.823h-12.489s-13.321 10.823-59.112 11.656c-45.791.832-48.289-12.489-49.122-19.982-.833-7.493 8.326-20.814 48.288-21.647 39.963-.832 59.112 13.321 59.112 13.321l14.987.001z" transform="matrix(.07692 0 0 .0803 145.58 -144.87)" stroke-width="1pt" fill="#f3ef7d"/><g id="g1715" transform="matrix(.3339 0 0 .3551 86.116 -150.31)" stroke-width="1pt" fill="#f3ef7d"><rect id="rect1696" rx="5.828" ry="5.828" height="11.656" width="11.656" y="105.59" x="188.99"/><rect id="rect1697" rx="5.828" ry="5.828" height="11.656" width="11.656" y="103.23" x="177.22"/><rect id="rect1698" rx="5.828" ry="5.828" height="11.656" width="11.656" y="99.703" x="164.86"/><rect id="rect1699" rx="5.828" ry="5.828" height="11.656" width="11.656" y="96.759" x="152.49"/><rect id="rect1700" rx="5.828" ry="5.828" height="11.656" width="11.656" y="94.404" x="139.54"/><rect id="rect1701" rx="5.828" ry="5.828" height="11.656" width="11.656" y="92.638" x="126.59"/><rect id="rect1702" rx="5.828" ry="5.828" height="11.656" width="11.656" y="91.461" x="114.23"/><rect id="rect1703" rx="5.828" ry="5.828" height="11.656" width="11.656" y="90.872" x="101.27"/><rect id="rect1704" rx="5.828" ry="5.828" height="11.656" width="11.656" y="92.638" x="88.911"/><rect id="rect1705" rx="5.828" ry="5.828" height="11.656" width="11.656" y="94.404" x="75.96"/><rect id="rect1706" rx="5.828" ry="5.828" height="11.656" width="11.656" y="98.525" x="64.185"/><rect id="rect1707" rx="5.828" ry="5.828" height="11.656" width="11.656" y="106.18" x="53"/><rect id="rect1708" rx="5.828" ry="5.828" height="11.656" width="11.656" y="116.78" x="45.346"/><rect id="rect1709" rx="5.828" ry="5.828" height="11.656" width="11.656" y="127.96" x="40.637"/><rect id="rect1710" rx="5.828" ry="5.828" height="11.656" width="11.656" y="140.32" x="38.871"/><rect id="rect1711" rx="5.828" ry="5.828" height="11.656" width="11.656" y="153.28" x="39.459"/><rect id="rect1712" rx="5.828" ry="5.828" height="11.656" width="11.656" y="165.64" x="42.403"/><rect id="rect1713" rx="5.828" ry="5.828" height="11.656" width="11.656" y="178" x="47.113"/><rect id="rect1714" rx="5.828" ry="5.828" height="11.656" width="11.656" y="188.6" x="52.411"/></g><g id="g1735" transform="matrix(-.3339 0 0 .3551 238.43 -150.31)" stroke-width="1pt" fill="#f3ef7d"><rect id="rect1736" rx="5.828" ry="5.828" height="11.656" width="11.656" y="105.59" x="188.99"/><rect id="rect1737" rx="5.828" ry="5.828" height="11.656" width="11.656" y="103.23" x="177.22"/><rect id="rect1738" rx="5.828" ry="5.828" height="11.656" width="11.656" y="99.703" x="164.86"/><rect id="rect1739" rx="5.828" ry="5.828" height="11.656" width="11.656" y="96.759" x="152.49"/><rect id="rect1740" rx="5.828" ry="5.828" height="11.656" width="11.656" y="94.404" x="139.54"/><rect id="rect1741" rx="5.828" ry="5.828" height="11.656" width="11.656" y="92.638" x="126.59"/><rect id="rect1742" rx="5.828" ry="5.828" height="11.656" width="11.656" y="91.461" x="114.23"/><rect id="rect1743" rx="5.828" ry="5.828" height="11.656" width="11.656" y="90.872" x="101.27"/><rect id="rect1744" rx="5.828" ry="5.828" height="11.656" width="11.656" y="92.638" x="88.911"/><rect id="rect1745" rx="5.828" ry="5.828" height="11.656" width="11.656" y="94.404" x="75.96"/><rect id="rect1746" rx="5.828" ry="5.828" height="11.656" width="11.656" y="98.525" x="64.185"/><rect id="rect1747" rx="5.828" ry="5.828" height="11.656" width="11.656" y="106.18" x="53"/><rect id="rect1748" rx="5.828" ry="5.828" height="11.656" width="11.656" y="116.78" x="45.346"/><rect id="rect1749" rx="5.828" ry="5.828" height="11.656" width="11.656" y="127.96" x="40.637"/><rect id="rect1750" rx="5.828" ry="5.828" height="11.656" width="11.656" y="140.32" x="38.871"/><rect id="rect1751" rx="5.828" ry="5.828" height="11.656" width="11.656" y="153.28" x="39.459"/><rect id="rect1752" rx="5.828" ry="5.828" height="11.656" width="11.656" y="165.64" x="42.403"/><rect id="rect1753" rx="5.828" ry="5.828" height="11.656" width="11.656" y="178" x="47.113"/><rect id="rect1754" rx="5.828" ry="5.828" height="11.656" width="11.656" y="188.6" x="52.411"/></g><g id="g1945" stroke-width="1pt"><path id="path1694" d="M318.9 338.4l-24.17 56.927s-39.963-13.321-114.89-13.321c-74.931 0-109.07 11.655-109.07 11.655l-35.153-55.94c31.27-4.635 40.802 16.61 40.802 16.61s2.129-24.81 26.689-29.213c20.747-2.866 39.079 18.591 39.079 18.591s4.321-24.147 34.979-24.81c30.659.663 34.98 24.81 34.98 24.81s18.332-21.456 39.079-18.59c24.56 4.402 26.688 29.213 26.688 29.213s9.532-21.246 40.986-15.935z" transform="matrix(.45941 0 0 .57623 80.534 -274.38)" fill="#f3ef7d"/><rect id="rect1695" transform="translate(13.258 -218.32)" rx="51.429" ry="8.13" height="16.261" width="102.86" y="162.27" x="100.1"/><g id="g1808" transform="matrix(.3339 0 0 .3551 86.116 -150.31)"><rect id="rect1800" rx="3.434" ry="4.651" height="9.301" width="6.868" y="175.06" x="228.46"/><rect id="rect1801" rx="3.434" ry="4.651" height="9.301" width="6.868" y="177.41" x="237.82"/><rect id="rect1802" rx="3.434" ry="4.651" height="9.301" width="6.868" y="175.06" x="219.87"/><rect id="rect1803" rx="3.434" ry="4.651" height="9.301" width="6.868" y="182.12" x="203.48"/><rect id="rect1804" rx="3.434" ry="4.651" height="9.301" width="6.868" y="177.41" x="211.28"/><rect id="rect1805" rx="3.434" ry="4.651" height="9.301" width="6.868" y="189.19" x="197.23"/><rect id="rect1806" rx="3.434" ry="4.651" height="9.301" width="6.868" y="182.71" x="245.63"/><rect id="rect1807" rx="3.434" ry="4.651" height="9.301" width="6.868" y="189.19" x="252.65"/></g><g id="g1818" transform="matrix(.32984 .0552 -.05191 .35078 129.39 -157.7)"><rect id="rect1819" rx="3.434" ry="4.651" height="9.301" width="6.868" y="175.06" x="228.46"/><rect id="rect1820" rx="3.434" ry="4.651" height="9.301" width="6.868" y="177.41" x="237.82"/><rect id="rect1821" rx="3.434" ry="4.651" height="9.301" width="6.868" y="175.06" x="219.87"/><rect id="rect1822" rx="3.434" ry="4.651" height="9.301" width="6.868" y="182.12" x="203.48"/><rect id="rect1823" rx="3.434" ry="4.651" height="9.301" width="6.868" y="177.41" x="211.28"/><rect id="rect1824" rx="3.434" ry="4.651" height="9.301" width="6.868" y="189.19" x="197.23"/><rect id="rect1825" rx="3.434" ry="4.651" height="9.301" width="6.868" y="182.71" x="245.63"/><rect id="rect1826" rx="3.434" ry="4.651" height="9.301" width="6.868" y="189.19" x="252.65"/></g><g id="g1827" transform="matrix(.32842 -.06406 .06024 .34928 42.896 -131.04)"><rect id="rect1828" rx="3.434" ry="4.651" height="9.301" width="6.868" y="175.06" x="228.46"/><rect id="rect1829" rx="3.434" ry="4.651" height="9.301" width="6.868" y="177.41" x="237.82"/><rect id="rect1830" rx="3.434" ry="4.651" height="9.301" width="6.868" y="175.06" x="219.87"/><rect id="rect1831" rx="3.434" ry="4.651" height="9.301" width="6.868" y="182.12" x="203.48"/><rect id="rect1832" rx="3.434" ry="4.651" height="9.301" width="6.868" y="177.41" x="211.28"/><rect id="rect1833" rx="3.434" ry="4.651" height="9.301" width="6.868" y="189.19" x="197.23"/><rect id="rect1834" rx="3.434" ry="4.651" height="9.301" width="6.868" y="182.71" x="245.63"/><rect id="rect1835" rx="3.434" ry="4.651" height="9.301" width="6.868" y="189.19" x="252.65"/></g><rect id="rect1837" transform="matrix(.97649 -.21555 .19155 .98148 13.258 -218.32)" rx="1.15" ry="1.647" height="3.295" width="2.299" y="155.25" x="57.043"/><rect id="rect1838" transform="matrix(.97649 -.21555 .19155 .98148 13.258 -218.32)" rx="1.15" ry="1.647" height="3.295" width="2.299" y="156.09" x="60.179"/><rect id="rect1843" transform="matrix(.97649 -.21555 .19155 .98148 13.258 -218.32)" rx="1.15" ry="1.647" height="3.295" width="2.299" y="157.96" x="62.792"/><rect id="rect1844" transform="matrix(.97649 -.21555 .19155 .98148 13.258 -218.32)" rx="1.15" ry="1.647" height="3.295" width="2.299" y="160.26" x="65.144"/><g id="g1853" transform="matrix(.3091 .1343 -.12628 .32873 148.87 -220.32)"><rect id="rect1839" rx="3.434" ry="4.651" height="9.301" width="6.868" y="285.4" x="359.08"/><rect id="rect1840" rx="3.434" ry="4.651" height="9.301" width="6.868" y="292.46" x="342.69"/><rect id="rect1841" rx="3.434" ry="4.651" height="9.301" width="6.868" y="287.75" x="350.49"/><rect id="rect1842" rx="3.434" ry="4.651" height="9.301" width="6.868" y="299.53" x="336.44"/></g><path id="path1858" d="M299.66 8.609c32.967 24.137 33.556 69.468 33.556 69.468s-5.299-47.686 30.025-67.113c-18.25 5.299-17.662 4.121-27.67 3.532L333.216-.81s-1.766 7.654-5.298 14.718c-7.654 2.355-9.42 2.355-28.258-5.298z" transform="matrix(.24424 0 0 .265 80.941 -78.676)"/><path id="path1859" d="M299.66 8.609c32.967 24.137 33.556 69.468 33.556 69.468s-5.299-47.686 30.025-67.113c-18.25 5.299-17.662 4.121-27.67 3.532L333.216-.81s-1.766 7.654-5.298 14.718c-7.654 2.355-9.42 2.355-28.258-5.298z" transform="matrix(.23738 -.06113 .05865 .25756 50.678 -55.618)"/><path id="path1860" d="M299.66 8.609c32.967 24.137 33.556 69.468 33.556 69.468s-5.299-47.686 30.025-67.113c-18.25 5.299-17.662 4.121-27.67 3.532L333.216-.81s-1.766 7.654-5.298 14.718c-7.654 2.355-9.42 2.355-28.258-5.298z" transform="matrix(.23657 .06458 -.06195 .25668 117.33 -97.042)"/><path id="path1861" d="M299.66 8.609c32.967 24.137 33.556 69.468 33.556 69.468s-5.299-47.686 30.025-67.113c-18.25 5.299-17.662 4.121-27.67 3.532L333.216-.81s-1.766 7.654-5.298 14.718c-7.654 2.355-9.42 2.355-28.258-5.298z" transform="matrix(.15393 -.0607 .07756 .22478 58.125 -49.509)"/><path id="path1862" d="M299.66 8.609c32.967 24.137 33.556 69.468 33.556 69.468s-5.299-47.686 30.025-67.113c-18.25 5.299-17.662 4.121-27.67 3.532L333.216-.81s-1.766 7.654-5.298 14.718c-7.654 2.355-9.42 2.355-28.258-5.298z" transform="matrix(.13481 .09965 -.12911 .19615 172.37 -101.78)"/></g><g id="g1989" stroke-width="1pt"><rect id="rect1652" transform="translate(13.258 -218.32)" rx="3.362" ry="3.51" height="7.02" width="6.724" y="97.304" x="145.26" fill="#f3ef7d"/><path id="rect1653" transform="translate(13.258 -218.32)" d="M148.4 97.304h.704v7.02h-.704z"/><rect id="rect1794" transform="translate(13.258 -218.32)" rx="1.553" ry="1.756" height="3.512" width="3.106" y="119.51" x="147.36" fill="#f3ef7d"/><rect id="rect1795" transform="translate(13.258 -218.32)" rx="1.454" ry="1.651" height="3.303" width="2.909" y="115.96" x="147.36" fill="#f3ef7d"/><rect id="rect1796" transform="translate(13.258 -218.32)" rx="1.454" ry="1.547" height="3.094" width="2.909" y="112.61" x="147.36" fill="#f3ef7d"/><rect id="rect1797" transform="translate(13.258 -218.32)" rx="1.258" ry="1.233" height="2.467" width="2.516" y="109.9" x="147.56" fill="#f3ef7d"/><rect id="rect1798" transform="translate(13.258 -218.32)" rx="1.258" ry="1.442" height="2.885" width="2.516" y="106.76" x="147.56" fill="#f3ef7d"/><rect id="rect1799" transform="translate(13.258 -218.32)" rx="1.061" ry="1.024" height="2.049" width="2.123" y="104.46" x="147.76" fill="#f3ef7d"/><path id="rect1654" transform="matrix(.00556 .99998 -.99998 .00606 13.258 -218.32)" d="M101.34-151.55h.735v6.724h-.735z"/><rect id="rect1756" transform="translate(13.258 -218.32)" rx="1.946" ry="2.07" height="4.139" width="3.892" y="123.07" x="146.97" fill="#f3ef7d"/></g></g></g></svg>