<svg id="svg672" xmlns="http://www.w3.org/2000/svg" height="480" width="640"><defs id="defs674"><clipPath id="clipPath8657"><path id="rect8659" fill-opacity=".67" d="M-88 32h640v480H-88z"/></clipPath></defs><g id="flag" fill-rule="evenodd" clip-path="url(#clipPath8657)" transform="translate(88 -32)"><path id="rect681" fill="#199d00" d="M-128 32h720v480h-720z"/><path id="path678" stroke-linejoin="round" d="M230.79 300.78c-11.285 7.857-23.091 14.804-34.377 22.661-14.142 1-27.856 1.143-42.426.429 0 0-30.427-5.142-38.141-18.427-.429-1.286 9.856-6 9.856-6 15.571 11 32.856 20.713 65.14 19.285-39.855-3.571-66.854-25.57-74.996-45.855 21.57-15.142 57.283-14.857 86.567 6-9.142-11.428-39.712-24.141-62.568-20.57-3.286-3.43-6.142-7.715-9.428-11.143 26.284-5.857 62.855 11 76.282 24.856-14.142-22.713-24.428-48.426-7.714-79.711 3.285 3.142 7 6.285 10.285 9.428-12.57 22.998-8 49.855 2.143 68.567-17.57-36.284-3.43-72.139 19.712-89.567 27 16.285 34.713 59.57 18.857 90.425 8.999-5.143 16.285-43.713 3.857-69.426l8.571-10.285c18.714 25.284 7.429 65.996-8.142 81.424 11.856-10.286 42.568-30.427 78.425-25.713-2.858 3.428-7.429 6.428-10.286 9.856-29.427-1.142-53.282 11.428-63.853 22.284 25.856-17.14 61.568-25.714 87.852-6.428-12.142 32.427-46.57 42.141-74.996 44.997 24.14 1.857 46.57-5.285 64.71-17.999l10.286 5.572c-7.714 7.285-18.856 14.57-34.712 16.713-15.285 2-29.713 1.43-44.997 1.715-11.856-7.714-24.05-15.376-35.906-23.09z" stroke-width="1pt" fill="#feffff"/><path id="path683" d="M230.79 308.36l-29.394 22.121-78.787-.303c.968 3.175 3.98 7.232 5.757 9.09l78.182.305 24.243-18.788 23.333 18.484h79.091c2.273-2.424 4.697-5.758 6.818-8.636l-80.152.152-29.09-22.425z" stroke-width="1pt" fill="#fff"/><path id="path687" stroke-linejoin="round" d="M185.64 384.34c22.627 11.168 70.708 10.252 92.425-.274l-92.425.274z" stroke-width="1.269" fill="#fff"/><path id="path688" stroke-linejoin="round" d="M133.6 346.85l194.31-.152c-3.384 3.839-7.374 7.98-11.516 11.515l-172.84-.757c-3.244-2.25-7.56-7.499-9.947-10.606z" stroke-width="1pt" fill="#fff"/><path id="path689" stroke-linejoin="round" d="M146.95 360.79l166.87.456c-3.131 2.424-5.656 5.302-9.242 7.12l-148.33-.125c-3.424-1.84-6.937-4.967-9.29-7.451z" stroke-width="1pt" fill="#fff"/><path id="path690" stroke-linejoin="round" d="M162.15 373.21l136.36-.333c-3.636 2.335-7.727 4.822-12.272 7.006h-111.82c-3.788-1.315-8.182-4.146-12.272-6.673z" stroke-width="1.399" fill="#fff"/><path id="polygon564" transform="rotate(21.381 -6.574 547.36) scale(.71983)" stroke-width="1pt" fill="#feb700" d="M205.58 128.74l-10.01-6.85-9.91 7.01 3.42-11.64-9.72-7.25 12.12-.35 3.89-11.495 4.08 11.425 12.13.15-9.6 7.41z"/><path id="polygon714" transform="translate(41.481 44.793) scale(.97279)" stroke-width="1pt" fill="#feb700" d="M205.58 128.74l-10.01-6.85-9.91 7.01 3.42-11.64-9.72-7.25 12.12-.35 3.89-11.495 4.08 11.425 12.13.15-9.6 7.41z"/><path id="polygon715" transform="rotate(-11.448 921.816 -817.331) scale(.71983)" stroke-width="1pt" fill="#feb700" d="M205.58 128.74l-10.01-6.85-9.91 7.01 3.42-11.64-9.72-7.25 12.12-.35 3.89-11.495 4.08 11.425 12.13.15-9.6 7.41z"/><path id="polygon716" transform="matrix(-.67029 .26243 .26243 .67029 262.73 39.932)" stroke-width="1pt" fill="#feb700" d="M205.58 128.74l-10.01-6.85-9.91 7.01 3.42-11.64-9.72-7.25 12.12-.35 3.89-11.495 4.08 11.425 12.13.15-9.6 7.41z"/><path id="polygon717" transform="matrix(-.70551 -.14287 -.14287 .70551 279.36 166.39)" stroke-width="1pt" fill="#feb700" d="M205.58 128.74l-10.01-6.85-9.91 7.01 3.42-11.64-9.72-7.25 12.12-.35 3.89-11.495 4.08 11.425 12.13.15-9.6 7.41z"/></g></svg>