<svg id="svg559" xmlns="http://www.w3.org/2000/svg" height="480" width="640" version="1"><defs id="defs561"><clipPath id="clipPath4082"><path id="rect4084" fill-opacity=".67" d="M0 0h640v480H0z"/></clipPath></defs><g id="flag" clip-path="url(#clipPath4082)"><path id="rect828" fill-rule="evenodd" fill="#0071bc" d="M-160 0h960v480h-960z"/><g id="g3950" transform="translate(-111.69 24.153) scale(.87024)"><path id="path588" d="M553.43 392.43s17.493-18.502 34.313-14.97c5.046-19.511 24.053-21.025 24.053-21.025s-1.85-21.53 22.539-26.239c.673-14.634 15.475-26.744 15.475-26.744s-3.028-22.707 12.447-27.921c-9.42-17.998 3.196-31.118 3.028-31.454-.168-.336-15.98-28.426-1.85-36.5-14.97-12.615-10.093-26.912-10.093-26.912s-16.316-4.205-10.429-23.717c-13.456-2.355-16.147-24.053-16.147-24.053s-20.689 4.205-23.212-13.793c-13.624 2.187-15.138-11.269-15.306-11.269-.168 0-27.08 7.233-32.463-13.12-10.428 5.383-14.97-4.205-14.97-4.205s-14.97 7.4-23.885-6.896c-17.829 11.1-27.753-.505-27.753-.505s-23.38 15.475-31.117 3.532c-13.793 13.961-26.07 7.906-26.07 7.906s-10.43 18.502-27.25 13.792c-3.868 17.157-23.212 17.493-23.212 17.493s2.019 15.138-21.193 19.175c-3.027 17.829-15.138 20.857-15.138 20.857s1.178 17.325-9.755 22.875c3.868 9.756-6.224 21.698-6.224 21.698s10.765 13.456-3.868 28.594c14.129 3.7 3.868 28.09 3.868 28.09s19.511 8.746 7.233 24.894c13.96 4.541 9.587 15.643 9.756 22.203 8.914 4.037 16.82 2.018 12.952 20.016 27.417 3.028 14.465 18.166 14.465 18.166s12.783.505 7.737 10.597c23.38-.505 26.744 17.493 26.744 17.493s21.698-5.72 24.558 2.691c2.86 8.41-9.42 65.094-9.42 65.094s-18.333 0-31.957-14.633c-31.958-.84-24.894-21.866-25.4-21.866-.504 0-10.596 3.869-15.81-13.624-21.362 4.373-20.69-13.624-20.857-13.792-.169-.168-9.588-4.373-6.056-13.288-22.034 2.018-20.352-19.51-20.352-19.51-4.822-1.963-6.616-6.449-5.887-10.934-2.86-1.01-22.37-1.346-12.279-27.08-18.67-11.27-7.064-24.22-7.064-24.22s-25.735-13.289-5.887-28.595c-14.802-21.866 1.177-32.799 1.177-32.799s-20.521-20.857.336-35.659c-3.364-31.622 15.475-39.19 15.475-39.19s-9.923-25.736 16.988-36.5c1.682-26.072 20.521-26.745 20.521-26.745s.505-20.689 30.108-18.67c5.72-18.502 25.903-14.802 25.903-14.802s6.224-22.37 33.64-11.606c13.961-27.249 34.65-13.288 34.65-13.288s13.12-8.578 19.68-5.887c8.33-14.315 26.063-.555 37.53 2.215 4.155-1.616 18.986-12.812 30.424 1.317 15.138-9.924 28.09 7.906 28.09 7.906s20.857-10.596 30.613 13.624c44.237-4.037 37.845 24.894 37.845 24.894s34.818-7.906 27.25 26.744c31.621 2.186 28.425 23.044 28.425 23.044s20.016 15.138 11.27 28.762c17.828.84 11.268 17.998 11.268 17.998s13.624 5.214 2.355 26.408c26.071 20.857 5.046 41.546 4.878 41.378-.168-.168 13.961 16.82 1.178 36.332 3.868 30.949-11.774 38.855-11.774 38.855s4.036 20.016-13.456 25.735c-.337 23.548-22.54 26.408-22.54 26.408s5.888 10.229-16.146 20.994c-.87 15.757-23.885 17.02-23.885 17.02s-2.187 28.93-31.454 21.193c-7.104 23.212-41.378 16.316-42.05 15.979-.673-.337-6.56-49.788-6.56-49.956z" fill-rule="evenodd" stroke="#000" stroke-width="2.134" fill="#fff"/><path id="path711" stroke-linejoin="round" d="M340.86 114.83c.086 0 7.418 6.36 6.048 15.944-1.369 9.585-6.904 22.908-5.791 32.834.68 3.98.422 11.11.422 11.11s-6.647-9.445-6.732-19.543 7.197-19.686 7.197-27.131-1.315-13.385-1.144-13.214z" fill-rule="evenodd" stroke="#000" stroke-width="2.134" fill="#217900"/><path id="path712" stroke-linejoin="round" d="M337.22 117.69s-9.622 9.185-10.861 18.112c-.915 4.601-1.27 26.041-1.378 35.556-.216 2.92-1.426 14.444-1.683 18.637-.257 4.193 7.078-7.158 7.497-16.4-.23-9.567-.23-29.717.743-32.745.865-3.893.676-8.194 2.015-12.098 1.77-5.418 3.752-10.976 3.667-11.062z" fill-rule="evenodd" stroke="#000" stroke-width="2.134" fill="#217900"/><g id="g771" fill-rule="evenodd" stroke="#ef8a10" fill="#ffd200" transform="translate(249.65 5.172) scale(1.9196)"><path id="path747" d="M155.88 42.98s6.499-2.998 8.356-8.58-5.624-5.637-6.612-3.863c-.989 1.775.843 6.193.371 7.361-.472 1.168-3.115 3.988-2.115 5.082z" stroke-width="1.112"/><path id="path748" d="M98.281 45.017s4.219-5.781 3.125-11.563c-1.094-5.781-7.656-2.188-7.656-.156 0 2.031 3.75 5 3.906 6.25.156 1.25-.781 5 .625 5.469z" stroke-width="1.483"/><path id="path749" d="M86.875 48.455S91.094 42.674 90 36.892c-1.094-5.781-7.656-2.188-7.656-.156 0 2.031 3.75 5 3.906 6.25.156 1.25-.781 5 .625 5.469z" stroke-width="1.483"/><path id="path750" d="M74.219 52.361s4.219-5.781 3.125-11.563c-1.094-5.781-7.656-2.188-7.656-.156 0 2.031 3.75 5 3.906 6.25.156 1.25-.781 5 .625 5.469z" stroke-width="1.483"/><path id="path751" d="M65.313 61.267s4.219-5.781 3.125-11.563c-1.094-5.781-7.656-2.188-7.656-.156 0 2.031 3.75 5 3.906 6.25.156 1.25-.781 5 .625 5.469z" stroke-width="1.483"/><path id="path753" d="M55.938 69.861s4.219-5.781 3.125-11.563c-1.094-5.781-7.656-2.188-7.656-.156 0 2.031 3.75 5 3.906 6.25.156 1.25-.781 5 .625 5.469z" stroke-width="1.483"/><path id="path755" d="M77.493 19.798s-5.618 4.434-6.12 10.296c-.5 5.862 6.787 4.166 7.333 2.21.546-1.957-2.267-5.825-2.082-7.07.186-1.247 2.097-4.607.869-5.436z" stroke-width="1.112"/><path id="path756" d="M96.243 14.016s-5.618 4.434-6.12 10.296c-.5 5.862 6.787 4.166 7.333 2.21.546-1.957-2.267-5.825-2.082-7.07.186-1.247 2.097-4.607.869-5.436z" stroke-width="1.112"/><path id="path757" d="M26.37 64.632s1.187 7.058 6.086 10.316c4.9 3.258 6.916-3.947 5.463-5.367s-6.197-.812-7.2-1.574c-1.004-.762-3.03-4.053-4.349-3.375z" stroke-width="1.112"/><path id="path758" d="M17.006 88.597s.058 7.157 4.382 11.147 7.452-2.807 6.241-4.438-5.991-1.78-6.862-2.69c-.87-.91-2.353-4.48-3.761-4.02z" stroke-width="1.112"/><path id="path759" d="M38.61 115.37s-2.554-6.686-8-8.914c-5.445-2.229-6.002 5.233-4.298 6.338 1.705 1.106 6.236-.425 7.37.124 1.134.55 3.77 3.377 4.928 2.452z" stroke-width="1.112"/><path id="path760" d="M34.122 103.8s4.33-5.698 3.35-11.5c-.981-5.801-7.613-2.336-7.652-.305-.04 2.03 3.652 5.072 3.784 6.325.131 1.252-.879 4.983.518 5.48z" stroke-width="1.112"/><path id="path761" d="M169.16 48.761s6.499-2.998 8.356-8.58-5.624-5.637-6.612-3.863c-.989 1.775.843 6.193.371 7.361-.472 1.168-3.115 3.988-2.115 5.082z" stroke-width="1.112"/><path id="path762" d="M188.81 58.563s3.823-6.05 2.345-11.746c-1.478-5.695-7.786-1.67-7.65.356.136 2.027 4.076 4.738 4.316 5.975.24 1.237-.446 5.041.989 5.415z" stroke-width="1.112"/><path id="path763" d="M242.45 114.25s-2.563-6.682-8.012-8.903-5.995 5.24-4.29 6.344c1.707 1.103 6.236-.434 7.37.114 1.135.548 3.775 3.371 4.932 2.445z" stroke-width="1.112"/><path id="path765" d="M216.22 118.4s.149-7.155 4.523-11.091c4.374-3.935 7.415 2.9 6.184 4.516-1.231 1.616-6.013 1.704-6.895 2.604-.882.9-2.41 4.45-3.812 3.97z" stroke-width="1.112"/><path id="path766" d="M212 42.52s-6.69-2.541-11.977.041c-5.287 2.583-.087 7.962 1.872 7.426 1.96-.537 3.832-4.938 4.996-5.42 1.164-.48 5.029-.567 5.11-2.047z" stroke-width="1.112"/><path id="path767" d="M196.69 29.707s-6.69-2.541-11.977.041c-5.287 2.583-.087 7.962 1.872 7.426 1.96-.537 3.832-4.938 4.996-5.42 1.164-.48 5.029-.567 5.11-2.047z" stroke-width="1.112"/><path id="path768" d="M173.86 17.489s-5.672 4.364-6.245 10.22c-.573 5.856 6.734 4.249 7.304 2.3.57-1.95-2.195-5.852-1.994-7.096.2-1.244 2.153-4.58.935-5.424z" stroke-width="1.112"/><path id="path769" d="M158.99 13.912s-2.587 6.673-.04 11.977 7.961.141 7.438-1.822c-.523-1.962-4.912-3.865-5.385-5.032-.473-1.168-.533-5.033-2.013-5.123z" stroke-width="1.112"/><path id="path770" d="M116.82 39.627s4.627-5.46 3.954-11.306c-.672-5.845-7.477-2.737-7.625-.71-.147 2.026 3.378 5.258 3.444 6.516.065 1.258-1.142 4.93.227 5.5z" stroke-width="1.112"/></g><path id="path564" d="M522.23 103.74s21.288 1.34 22.33 13.547-5.061 19.651-5.061 19.651 2.68 26.35-18.162 34.091c-22.33 2.68-57.314.596-57.314.596s-10.273 2.53-14.44-18.757c-4.169-21.288-5.36-36.324-5.36-36.324s2.084-11.91 17.12-12.654c15.036-.745 60.738.148 60.887-.15z" fill-rule="evenodd" stroke="#000" stroke-width="2.134" fill="#8c8a8c"/><path id="path565" d="M539.35 136.79s-11.463 14.291-10.272 20.097" stroke="#000" stroke-linecap="round" stroke-width="2.134" fill="none"/><path id="path566" d="M524.02 170.28c2.829 2.382 5.508 5.061 6.104 13.845l1.19 17.567 14.887 133.98 13.1 96.914.894 15.036s-3.126 11.016-11.91 11.909c-6.4 13.398-41.087 17.269-44.511 17.12-3.127-.149-14.143-4.764-20.842-4.168-6.7.595-18.311 5.061-23.521 4.317-5.21-.744-16.971-4.764-19.055-13.25-14.59-4.614-16.971-15.78-16.971-15.78l15.78-112.1 15.333-141.72s1.786-18.905 9.378-21.734c7.89-.745 48.68.744 60.143-1.936z" fill-rule="evenodd" stroke="#000" stroke-width="2.134" fill="#8c8a8c"/><path id="path567" d="M443.63 364.26l-3.126 99.147" stroke="#000" stroke-width="2.134" fill="none"/><path id="path568" d="M539.95 377.36l8.783 81.729" stroke="#000" stroke-width="2.134" fill="none"/><path id="path571" d="M285.28 312.74l-.327 1.144" stroke="#000" stroke-width="1.112" fill="none"/><path id="path579" d="M697.12 309.15l.327 1.144" stroke="#000" stroke-width="1.112" fill="none"/><path id="path583" stroke-linejoin="round" d="M274.24 178.89s6.522 9.03 7.693 14.215c1.17 5.184 3.344 15.386 6.187 19.566 2.843 4.18 19.065 27.427 19.901 37.126.168 6.355-6.689 17.225-16.89 17.392-6.355-.167-22.744-4.348-23.413-18.396-.67-14.048 5.016-14.382 5.685-22.911.67-8.529.837-46.826.837-46.993z" stroke="#6b18b5" stroke-width="2.134" fill="none"/><path id="path584" stroke-linejoin="round" d="M386.28 55.917s-6.753.482-11.951 3.3c-4.028 2.484-10.851 6.057-15.619 12.668-12.127 9.454-30.371 13.865-36.125 21.719-3.444 5.343-3.233 18.194 5.397 23.636 5.517 3.159 21.693 8.1 29.562-3.555 7.87-11.657 3.185-14.897 7.044-22.532 6.368-17.501 21.605-35.093 21.692-35.236z" stroke="#6b18b5" stroke-width="1.112" fill="none"/><path id="path585" stroke-linejoin="round" d="M550.08 38.857s-5.043-4.516-10.684-6.29c-4.586-1.166-12.224-.659-20.128-1.435-15.227-2.135-30.926-13.148-40.57-11.818-6.234 1.243-15.319 10.334-13.226 20.32 1.568 6.16 8.458 18.62 22.306 16.165 13.848-2.454 13.728-5.475 21.898-8.014 19.926-11.173 40.241-8.89 40.404-8.928z" stroke="#6b18b5" stroke-width="1.112" fill="none"/><path id="path586" stroke-linejoin="round" d="M712.52 196.74c1.137-2.598-.957-7.482-2.444-13.206-1.444-4.507-3.6-11.501-8.872-17.718-6.264-14.042-5.19-33.299-11.433-40.771-4.36-4.627-16.885-7.507-24.24-.437-4.391 4.597-13.073 19.112-3.648 29.551 9.425 10.438 13.532 6.507 20.017 12.086 15.46 10.385 23.032 28.59 30.62 30.494z" stroke="#6b18b5" stroke-width="1.112" fill="none"/><path id="path587" stroke-linejoin="round" d="M706.98 319.41c2.111-2.923 5.892-8.557 5.442-13.249-.356-3.716 1.703-14.982 1.928-19.897 1.397-15.313 10.982-27.742 8.376-41.046-1.542-6.167-10.575-14.964-20.447-12.391-6.078 1.864-19.61 9.31-16.49 23.023 3.122 13.713 7.553 13.486 10.483 21.523 8.413 16.616 3.03 36.354 10.708 42.036z" stroke="#6b18b5" stroke-width="1.112" fill="none"/><path id="path589" d="M594.29 416.76s-2.596 4.992 7.787 9.385" stroke="#000" stroke-width="2.134" fill="none"/><path id="path590" d="M615.06 404.98s11.581-2.795 19.368 0" stroke="#000" stroke-width="2.134" fill="none"/><path id="path591" d="M649.6 375.82c0 .2-1.597 5.192 7.588 12.38" stroke="#000" stroke-width="2.134" fill="none"/><path id="path592" d="M656.19 362.85s6.789 4.992 18.17 4.792" stroke="#000" stroke-width="2.134" fill="none"/><path id="path593" d="M587.7 377.42s.4 13.178-6.39 19.368" stroke="#000" stroke-width="2.134" fill="none"/><path id="path594" d="M610.46 357.05s11.182 2.795 20.367-1.797" stroke="#000" stroke-width="2.134" fill="none"/><path id="path595" d="M682.15 337.69s2.396 3.394 14.776 2.796" stroke="#000" stroke-width="2.134" fill="none"/><path id="path596" d="M633.83 329.9c.4.2 14.576 4.792 23.562.6" stroke="#000" stroke-width="2.134" fill="none"/><path id="path597" d="M662.18 275.59s.599-.799 4.992 14.576" stroke="#000" stroke-width="2.134" fill="none"/><path id="path598" d="M673.16 232.26s-.6 8.187-7.188 11.781" stroke="#000" stroke-width="2.134" fill="none"/><path id="path599" d="M715.29 198.71s-9.584 7.787-7.787 10.982" stroke="#000" stroke-width="2.134" fill="none"/><path id="path600" d="M667.57 193.12s4.992 8.386-3.195 14.177" stroke="#000" stroke-width="2.134" fill="none"/><path id="path601" d="M643.41 157.18s8.586-.4 12.38 6.989" stroke="#000" stroke-width="2.134" fill="none"/><path id="path602" d="M627.24 132.82h6.59" stroke="#000" stroke-width="2.134" fill="none"/><path id="path603" d="M661.38 102.87c0 .2 1.797 1.797-1.597 5.191" stroke="#000" stroke-width="2.134" fill="none"/><path id="path604" d="M600.08 103.67s4.593 7.188 3.794 15.974" stroke="#000" stroke-width="2.134" fill="none"/><path id="path605" d="M626.64 79.308c1.997-.2 8.786-3.195 8.786-3.195" stroke="#000" stroke-width="2.134" fill="none"/><path id="path606" d="M597.09 50.754c-.2 0-2.596 8.985 1.797 12.18" stroke="#000" stroke-width="2.134" fill="none"/><path id="path607" d="M586.1 91.688c0 9.584 7.588 7.188 2.396 16.373" stroke="#000" stroke-width="2.134" fill="none"/><path id="path608" d="M567.53 83.7c-.2 0-11.98 9.185-11.98 10.782" stroke="#000" stroke-width="2.134" fill="none"/><path id="path609" d="M536.78 78.709s4.992 4.992 3.794 11.781" stroke="#000" stroke-width="2.134" fill="none"/><path id="path610" d="M522.21 74.715s-2.596 7.588-5.99 9.584" stroke="#000" stroke-width="2.134" fill="none"/><path id="path611" d="M495.65 72.718c-.2.4-4.193 8.985-6.989 10.583" stroke="#000" stroke-width="2.134" fill="none"/><path id="path612" d="M459.31 72.918c.2 0 3.993 7.987-.998 13.778" stroke="#000" stroke-width="2.134" fill="none"/><path id="path613" d="M450.92 31.585c.2.2.799 6.19-2.995 11.381" stroke="#000" stroke-width="2.134" fill="none"/><path id="path614" d="M414.98 45.163c0 .2 1.597 6.79-8.985 8.985" stroke="#000" stroke-width="2.134" fill="none"/><path id="path615" d="M394.62 106.06c.2.4 10.183 1.997 10.183 1.997" stroke="#000" stroke-width="2.134" fill="none"/><path id="path616" d="M369.66 129.23c.2-.2 12.18-3.794 12.18-3.794" stroke="#000" stroke-width="2.134" fill="none"/><path id="path617" d="M350.29 144.2c.4 0 8.386 1.398 10.383.4" stroke="#000" stroke-width="2.134" fill="none"/><path id="path618" d="M344.7 151.59s2.596 1.398.4 14.776" stroke="#000" stroke-width="2.134" fill="none"/><path id="path619" d="M305.76 116.45l4.792 7.188" stroke="#000" stroke-width="2.134" fill="none"/><path id="path620" d="M289.39 153.39c0-.2 4.792 7.188 11.182 8.586" stroke="#000" stroke-width="2.134" fill="none"/><path id="path621" d="M327.13 190.93c.2 0 7.787-1.598 8.985-2.396" stroke="#000" stroke-width="2.134" fill="none"/><path id="path622" d="M323.73 218.08c.2 0-.2-4.992 5.99-8.386" stroke="#000" stroke-width="2.134" fill="none"/><path id="path623" d="M315.54 230.46c0 .2 5.79 7.388 9.784 8.386" stroke="#000" stroke-width="2.134" fill="none"/><path id="path624" d="M312.15 244.24c.599-.2 6.789-5.591 13.977-5.192" stroke="#000" stroke-width="2.134" fill="none"/><path id="path625" d="M310.15 262.81s.2 6.19 18.57 4.593" stroke="#000" stroke-width="2.134" fill="none"/><path id="path626" d="M311.95 284.57c0-.2 5.391-12.38 16.373-16.972" stroke="#000" stroke-width="2.134" fill="none"/><path id="path627" d="M326.73 300.15s1.597-5.192 10.782-8.786" stroke="#000" stroke-width="2.134" fill="none"/><path id="path628" d="M336.91 320.71s6.59-5.391 8.985-6.19" stroke="#000" stroke-width="2.134" fill="none"/><path id="path629" d="M345.1 336.69s3.994 4.193 13.977-2.995" stroke="#000" stroke-width="2.134" fill="none"/><path id="path630" d="M296.97 340.08c1.198-.2 15.774-3.594 20.766 3.994" stroke="#000" stroke-width="2.134" fill="none"/><path id="path631" d="M302.77 352.06s15.375-1.997 17.372-.4" stroke="#000" stroke-width="2.134" fill="none"/><path id="path632" d="M357.68 355.26s-1.997 4.193 16.972-2.795" stroke="#000" stroke-width="2.134" fill="none"/><path id="path633" d="M381.24 362.85c-3.394 5.79.799 10.383-3.594 12.979" stroke="#000" stroke-width="2.134" fill="none"/><path id="path634" d="M323.53 370.83c.599-.4 6.989-2.596 5.99-11.781" stroke="#000" stroke-width="2.134" fill="none"/><path id="path635" d="M329.32 384.61c.799-.2 11.381-4.792 13.578-2.396" stroke="#000" stroke-width="2.134" fill="none"/><path id="path636" d="M350.09 397.99s1.398-9.385 4.393-10.383" stroke="#000" stroke-width="2.134" fill="none"/><path id="path637" d="M366.06 412.16s8.786-.2 12.58-2.995" stroke="#000" stroke-width="2.134" fill="none"/><path id="path638" d="M383.03 380.42c.2.2 8.187 4.393 25.159.2" stroke="#000" stroke-width="2.134" fill="none"/><path id="path639" d="M389.42 418.55s2.396 12.18 2.196 14.976" stroke="#000" stroke-width="2.134" fill="none"/><g id="g915" fill-rule="evenodd" transform="translate(249.65 3.738) scale(1.9196)" stroke="#000" stroke-width="1.483" fill="#de2010"><path id="path647" d="M232.84 119.03c.002-2.109-.794-4.058-2.087-5.114-1.294-1.055-2.888-1.055-4.18 0s-2.09 3.005-2.088 5.114c-.002 2.109.794 4.058 2.087 5.114 1.293 1.055 2.887 1.055 4.18 0s2.09-3.005 2.088-5.114z" transform="matrix(.96309 -.12038 .12403 .99228 -6.447 28.447)"/><path id="path648" d="M232.84 119.03c.002-2.109-.794-4.058-2.087-5.114-1.294-1.055-2.888-1.055-4.18 0s-2.09 3.005-2.088 5.114c-.002 2.109.794 4.058 2.087 5.114 1.293 1.055 2.887 1.055 4.18 0s2.09-3.005 2.088-5.114z" transform="matrix(.96309 -.12038 .12403 .99228 -7.308 17.88)"/><path id="path649" d="M232.84 119.03c.002-2.109-.794-4.058-2.087-5.114-1.294-1.055-2.888-1.055-4.18 0s-2.09 3.005-2.088 5.114c-.002 2.109.794 4.058 2.087 5.114 1.293 1.055 2.887 1.055 4.18 0s2.09-3.005 2.088-5.114z" transform="matrix(.94879 -.20455 .21075 .97754 -16.448 27.945)"/><path id="path650" d="M232.84 119.03c.002-2.109-.794-4.058-2.087-5.114-1.294-1.055-2.888-1.055-4.18 0s-2.09 3.005-2.088 5.114c-.002 2.109.794 4.058 2.087 5.114 1.293 1.055 2.887 1.055 4.18 0s2.09-3.005 2.088-5.114z" transform="matrix(.8653 -.43966 .45298 .89152 -29.753 81.132)"/><path id="path651" d="M232.84 119.03c.002-2.109-.794-4.058-2.087-5.114-1.294-1.055-2.888-1.055-4.18 0s-2.09 3.005-2.088 5.114c-.002 2.109.794 4.058 2.087 5.114 1.293 1.055 2.887 1.055 4.18 0s2.09-3.005 2.088-5.114z" transform="matrix(.8653 -.43966 .45298 .89152 -33.93 71.671)"/><path id="path652" d="M232.84 119.03c.002-2.109-.794-4.058-2.087-5.114-1.294-1.055-2.888-1.055-4.18 0s-2.09 3.005-2.088 5.114c-.002 2.109.794 4.058 2.087 5.114 1.293 1.055 2.887 1.055 4.18 0s2.09-3.005 2.088-5.114z" transform="matrix(.82496 -.51136 .52685 .84996 -39.274 83.797)"/><path id="path653" d="M232.84 119.03c.002-2.109-.794-4.058-2.087-5.114-1.294-1.055-2.888-1.055-4.18 0s-2.09 3.005-2.088 5.114c-.002 2.109.794 4.058 2.087 5.114 1.293 1.055 2.887 1.055 4.18 0s2.09-3.005 2.088-5.114z" transform="matrix(.77166 -.58872 .60656 .79504 -42.963 99.176)"/><path id="path654" d="M232.84 119.03c.002-2.109-.794-4.058-2.087-5.114-1.294-1.055-2.888-1.055-4.18 0s-2.09 3.005-2.088 5.114c-.002 2.109.794 4.058 2.087 5.114 1.293 1.055 2.887 1.055 4.18 0s2.09-3.005 2.088-5.114z" transform="matrix(.67817 -.69436 .7154 .69872 -42.035 126.69)"/><path id="path655" d="M232.84 119.03c.002-2.109-.794-4.058-2.087-5.114-1.294-1.055-2.888-1.055-4.18 0s-2.09 3.005-2.088 5.114c-.002 2.109.794 4.058 2.087 5.114 1.293 1.055 2.887 1.055 4.18 0s2.09-3.005 2.088-5.114z" transform="matrix(.61142 -.75379 .77664 .62995 -42.664 140.85)"/><path id="path656" d="M232.84 119.03c.002-2.109-.794-4.058-2.087-5.114-1.294-1.055-2.888-1.055-4.18 0s-2.09 3.005-2.088 5.114c-.002 2.109.794 4.058 2.087 5.114 1.293 1.055 2.887 1.055 4.18 0s2.09-3.005 2.088-5.114z" transform="matrix(.4778 -.84484 .87044 .49228 -32.121 172.16)"/><path id="path657" d="M232.84 119.03c.002-2.109-.794-4.058-2.087-5.114-1.294-1.055-2.888-1.055-4.18 0s-2.09 3.005-2.088 5.114c-.002 2.109.794 4.058 2.087 5.114 1.293 1.055 2.887 1.055 4.18 0s2.09-3.005 2.088-5.114z" transform="matrix(.39893 -.88482 .91163 .41101 -29.187 185.56)"/><path id="path658" d="M232.84 119.03c.002-2.109-.794-4.058-2.087-5.114-1.294-1.055-2.888-1.055-4.18 0s-2.09 3.005-2.088 5.114c-.002 2.109.794 4.058 2.087 5.114 1.293 1.055 2.887 1.055 4.18 0s2.09-3.005 2.088-5.114z" transform="matrix(.33871 -.90957 .93714 .34897 -28.529 194.55)"/><path id="path659" d="M232.84 119.03c.002-2.109-.794-4.058-2.087-5.114-1.294-1.055-2.888-1.055-4.18 0s-2.09 3.005-2.088 5.114c-.002 2.109.794 4.058 2.087 5.114 1.293 1.055 2.887 1.055 4.18 0s2.09-3.005 2.088-5.114z" transform="matrix(.2683 -.93277 .96104 .27643 -25.473 205.3)"/><path id="path660" d="M232.84 119.03c.002-2.109-.794-4.058-2.087-5.114-1.294-1.055-2.888-1.055-4.18 0s-2.09 3.005-2.088 5.114c-.002 2.109.794 4.058 2.087 5.114 1.293 1.055 2.887 1.055 4.18 0s2.09-3.005 2.088-5.114z" transform="matrix(.12145 -.96296 .99214 .12513 -6.53 228.37)"/><path id="path663" d="M232.84 119.03c.002-2.109-.794-4.058-2.087-5.114-1.294-1.055-2.888-1.055-4.18 0s-2.09 3.005-2.088 5.114c-.002 2.109.794 4.058 2.087 5.114 1.293 1.055 2.887 1.055 4.18 0s2.09-3.005 2.088-5.114z" transform="matrix(.03895 -.96981 .9992 .04012 .437 239.44)"/><path id="path664" d="M232.84 119.03c.002-2.109-.794-4.058-2.087-5.114-1.294-1.055-2.888-1.055-4.18 0s-2.09 3.005-2.088 5.114c-.002 2.109.794 4.058 2.087 5.114 1.293 1.055 2.887 1.055 4.18 0s2.09-3.005 2.088-5.114z" transform="matrix(.03895 -.96981 .9992 .04012 -10.007 239.81)"/><path id="path665" d="M232.84 119.03c.002-2.109-.794-4.058-2.087-5.114-1.294-1.055-2.888-1.055-4.18 0s-2.09 3.005-2.088 5.114c-.002 2.109.794 4.058 2.087 5.114 1.293 1.055 2.887 1.055 4.18 0s2.09-3.005 2.088-5.114z" transform="matrix(-.21629 -.94618 .97486 -.22284 40.071 267.06)"/><path id="path667" d="M232.84 119.03c.002-2.109-.794-4.058-2.087-5.114-1.294-1.055-2.888-1.055-4.18 0s-2.09 3.005-2.088 5.114c-.002 2.109.794 4.058 2.087 5.114 1.293 1.055 2.887 1.055 4.18 0s2.09-3.005 2.088-5.114z" transform="matrix(-.29359 -.92512 .95316 -.30249 49.518 274.42)"/><path id="path669" d="M232.84 119.03c.002-2.109-.794-4.058-2.087-5.114-1.294-1.055-2.888-1.055-4.18 0s-2.09 3.005-2.088 5.114c-.002 2.109.794 4.058 2.087 5.114 1.293 1.055 2.887 1.055 4.18 0s2.09-3.005 2.088-5.114z" transform="matrix(-.40169 -.88356 .91034 -.41387 69.626 282.36)"/><path id="path670" d="M232.84 119.03c.002-2.109-.794-4.058-2.087-5.114-1.294-1.055-2.888-1.055-4.18 0s-2.09 3.005-2.088 5.114c-.002 2.109.794 4.058 2.087 5.114 1.293 1.055 2.887 1.055 4.18 0s2.09-3.005 2.088-5.114z" transform="matrix(-.4756 -.84607 .87171 -.49002 81.296 287.89)"/><path id="path672" d="M232.84 119.03c.002-2.109-.794-4.058-2.087-5.114-1.294-1.055-2.888-1.055-4.18 0s-2.09 3.005-2.088 5.114c-.002 2.109.794 4.058 2.087 5.114 1.293 1.055 2.887 1.055 4.18 0s2.09-3.005 2.088-5.114z" transform="matrix(-.56473 -.78938 .8133 -.58184 99.413 292.12)"/><path id="path673" d="M232.84 119.03c.002-2.109-.794-4.058-2.087-5.114-1.294-1.055-2.888-1.055-4.18 0s-2.09 3.005-2.088 5.114c-.002 2.109.794 4.058 2.087 5.114 1.293 1.055 2.887 1.055 4.18 0s2.09-3.005 2.088-5.114z" transform="matrix(-.6295 -.73876 .76115 -.64857 111.83 295)"/><path id="path674" d="M232.84 119.03c.002-2.109-.794-4.058-2.087-5.114-1.294-1.055-2.888-1.055-4.18 0s-2.09 3.005-2.088 5.114c-.002 2.109.794 4.058 2.087 5.114 1.293 1.055 2.887 1.055 4.18 0s2.09-3.005 2.088-5.114z" transform="matrix(-.68085 -.69172 .71269 -.70148 121.72 298.53)"/><path id="path675" d="M232.84 119.03c.002-2.109-.794-4.058-2.087-5.114-1.294-1.055-2.888-1.055-4.18 0s-2.09 3.005-2.088 5.114c-.002 2.109.794 4.058 2.087 5.114 1.293 1.055 2.887 1.055 4.18 0s2.09-3.005 2.088-5.114z" transform="matrix(-.73636 -.63231 .65147 -.75868 135.19 300.6)"/><path id="path676" d="M232.84 119.03c.002-2.109-.794-4.058-2.087-5.114-1.294-1.055-2.888-1.055-4.18 0s-2.09 3.005-2.088 5.114c-.002 2.109.794 4.058 2.087 5.114 1.293 1.055 2.887 1.055 4.18 0s2.09-3.005 2.088-5.114z" transform="matrix(-.79959 -.55018 .56685 -.82382 153.82 298.54)"/><path id="path677" d="M232.84 119.03c.002-2.109-.794-4.058-2.087-5.114-1.294-1.055-2.888-1.055-4.18 0s-2.09 3.005-2.088 5.114c-.002 2.109.794 4.058 2.087 5.114 1.293 1.055 2.887 1.055 4.18 0s2.09-3.005 2.088-5.114z" transform="matrix(-.88221 -.40465 .41691 -.90895 185.77 285.35)"/><path id="path678" d="M232.84 119.03c.002-2.109-.794-4.058-2.087-5.114-1.294-1.055-2.888-1.055-4.18 0s-2.09 3.005-2.088 5.114c-.002 2.109.794 4.058 2.087 5.114 1.293 1.055 2.887 1.055 4.18 0s2.09-3.005 2.088-5.114z" transform="matrix(-.91526 -.323 .33279 -.943 199.41 281.42)"/><path id="path680" d="M232.84 119.03c.002-2.109-.794-4.058-2.087-5.114-1.294-1.055-2.888-1.055-4.18 0s-2.09 3.005-2.088 5.114c-.002 2.109.794 4.058 2.087 5.114 1.293 1.055 2.887 1.055 4.18 0s2.09-3.005 2.088-5.114z" transform="matrix(-.96644 -.07186 .09236 -.79822 236.41 226.61)"/><path id="path679" d="M232.84 119.03c.002-2.109-.794-4.058-2.087-5.114-1.294-1.055-2.888-1.055-4.18 0s-2.09 3.005-2.088 5.114c-.002 2.109.794 4.058 2.087 5.114 1.293 1.055 2.887 1.055 4.18 0s2.09-3.005 2.088-5.114z" transform="matrix(-.94631 -.21571 .22224 -.97499 217.21 271.39)"/></g><path id="path666" d="M679.93 195.92c2.466-2.64 4.76-3.386 7.663-2.424-1.024-6.963-3.227-9.326-5.912-8.488-2.684.839-3.9 4.419-1.751 10.912z" fill-rule="evenodd" fill="#ffe300"/><path id="path668" d="M683.7 216.93c2.658-2.446 5.002-3.018 7.824-1.839-.496-7.021-2.515-9.543-5.255-8.91-2.74.634-4.221 4.113-2.569 10.748z" fill-rule="evenodd" fill="#ffe300"/><path id="path671" d="M674.78 176.73c1.715-3.18 3.744-4.484 6.796-4.29-2.758-6.476-5.49-8.201-7.873-6.709-2.384 1.493-2.65 5.264 1.077 11z" fill-rule="evenodd" fill="#ffe300"/><path id="path681" d="M665.43 157.61c1.715-3.18 3.744-4.484 6.796-4.29-2.758-6.476-5.49-8.201-7.873-6.709-2.384 1.493-2.65 5.264 1.077 11z" fill-rule="evenodd" fill="#ffe300"/><path id="path682" d="M643 122.57c1.181-3.414 2.975-5.027 6.019-5.327-3.764-5.948-6.737-7.212-8.85-5.356S638.4 117.51 643 122.57z" fill-rule="evenodd" fill="#ffe300"/><path id="path683" d="M628.34 107.3c1.052-3.456 2.783-5.136 5.813-5.55-3.986-5.802-7.005-6.953-9.045-5.018-2.041 1.935-1.556 5.684 3.232 10.568z" fill-rule="evenodd" fill="#ffe300"/><path id="path684" d="M597.51 81.29c-.064-3.612 1.066-5.744 3.82-7.07-5.578-4.293-8.804-4.458-10.15-1.989-1.346 2.47.27 5.887 6.33 9.059z" fill-rule="evenodd" fill="#ffe300"/><path id="path685" d="M613.55 93.316c.562-3.568 2.044-5.472 4.987-6.303-4.75-5.193-7.9-5.914-9.653-3.715-1.753 2.2-.752 5.845 4.666 10.018z" fill-rule="evenodd" fill="#ffe300"/><path id="path686" d="M579.21 71.191c-.436-3.586.467-5.823 3.07-7.427-5.99-3.694-9.217-3.525-10.301-.93-1.084 2.595.877 5.827 7.23 8.357z" fill-rule="evenodd" fill="#ffe300"/><path id="path687" d="M560.51 63.027c-.945-3.487-.37-5.83 1.976-7.79-6.458-2.798-9.627-2.17-10.329.554-.701 2.723 1.702 5.642 8.353 7.236z" fill-rule="evenodd" fill="#ffe300"/><path id="path688" d="M540.36 56.784c-1.237-3.394-.863-5.778 1.31-7.93-6.673-2.24-9.777-1.346-10.245 1.427-.469 2.773 2.173 5.477 8.935 6.503z" fill-rule="evenodd" fill="#ffe300"/><path id="path689" d="M520.57 52.952c-1.479-3.296-1.279-5.7.733-8.004-6.817-1.753-9.849-.636-10.115 2.164-.267 2.8 2.563 5.306 9.382 5.84z" fill-rule="evenodd" fill="#ffe300"/><path id="path690" d="M499.61 51.346c-1.813-3.125-1.863-5.537-.101-8.037-6.962-1.036-9.862.39-9.836 3.201.025 2.813 3.1 5.012 9.937 4.836z" fill-rule="evenodd" fill="#ffe300"/><path id="path691" d="M458.57 54.437c-2.512-2.595-3.143-4.924-2.036-7.775-7.006.673-9.476 2.755-8.773 5.478.702 2.723 4.216 4.116 10.81 2.297z" fill-rule="evenodd" fill="#ffe300"/><path id="path692" d="M478.77 51.778c-2.138-2.912-2.447-5.304-.965-7.979-7.033-.282-9.762 1.447-9.434 4.24.327 2.793 3.62 4.649 10.399 3.739z" fill-rule="evenodd" fill="#ffe300"/><path id="path693" d="M438.75 58.719c-2.859-2.208-3.816-4.423-3.13-7.403-6.837 1.67-8.983 4.085-7.897 6.679 1.085 2.595 4.763 3.47 11.027.724z" fill-rule="evenodd" fill="#ffe300"/><path id="path694" d="M400.8 76.168c-3.227-1.624-4.588-3.616-4.48-6.672-6.396 2.94-8.043 5.719-6.484 8.059 1.56 2.34 5.337 2.5 10.964-1.387z" fill-rule="evenodd" fill="#ffe300"/><path id="path695" d="M419.1 66.82c-3.005-2.004-4.115-4.147-3.637-7.167-6.705 2.142-8.678 4.7-7.414 7.212 1.264 2.513 4.994 3.13 11.051-.045z" fill-rule="evenodd" fill="#ffe300"/><path id="path696" d="M366.76 99.867c-3.494-.916-5.24-2.58-5.772-5.592-5.642 4.208-6.675 7.27-4.662 9.233 2.013 1.965 5.74 1.333 10.434-3.641z" fill-rule="evenodd" fill="#ffe300"/><path id="path697" d="M383 86.576c-3.412-1.187-5.022-2.983-5.317-6.027-5.954 3.754-7.223 6.725-5.37 8.84 1.853 2.116 5.619 1.778 10.687-2.813z" fill-rule="evenodd" fill="#ffe300"/><path id="path698" d="M352.33 114.08c-3.563-.595-5.454-2.094-6.257-5.044-5.236 4.704-5.986 7.846-3.803 9.619 2.184 1.773 5.838.805 10.06-4.575z" fill-rule="evenodd" fill="#ffe300"/><path id="path699" d="M339.4 130.86c-3.602-.269-5.621-1.59-6.689-4.455-4.787 5.16-5.249 8.357-2.914 9.924 2.335 1.568 5.887.272 9.603-5.469z" fill-rule="evenodd" fill="#ffe300"/><path id="path700" d="M328.58 148.02c-3.601.286-5.798-.71-7.292-3.379-3.941 5.833-3.908 9.063-1.36 10.254 2.547 1.192 5.859-.632 8.652-6.875z" fill-rule="evenodd" fill="#ffe300"/><path id="path701" d="M319.08 166.35c-3.533.75-5.841.048-7.67-2.404-3.15 6.294-2.697 9.493-.017 10.343 2.68.851 5.728-1.387 7.687-7.94z" fill-rule="evenodd" fill="#ffe300"/><path id="path702" d="M311.48 185.16c-3.37 1.301-5.76.973-7.953-1.158-2.114 6.713-1.16 9.8 1.621 10.216 2.782.415 5.435-2.278 6.332-9.058z" fill-rule="evenodd" fill="#ffe300"/><path id="path703" d="M306.39 206.11c-3.275 1.524-5.682 1.356-8.013-.623-1.66 6.84-.501 9.856 2.302 10.084 2.803.228 5.27-2.636 5.711-9.461z" fill-rule="evenodd" fill="#ffe300"/><path id="path704" d="M304.32 223.56c-3.083 1.633-5.486 1.826-8.006.591-.917 5.575.551 7.778 3.353 7.58 2.802-.2 4.942-2.773 4.653-8.17z" fill-rule="evenodd" fill="#ffe300"/><path id="path705" d="M657.08 140.57c1.233-3.395 3.05-4.982 6.098-5.235-3.672-6.004-6.626-7.313-8.767-5.49-2.14 1.825-1.854 5.595 2.669 10.725z" fill-rule="evenodd" fill="#ffe300"/><path id="path706" d="M686 238.23c2.658-2.446 5.002-3.018 7.824-1.839-.496-7.021-2.515-9.543-5.255-8.91-2.74.634-4.221 4.113-2.569 10.748z" fill-rule="evenodd" fill="#ffe300"/><path id="path709" stroke-linejoin="round" d="M658.45 123.94c-.086 0-7.958 7.873-6.59 17.457 1.37 9.585 7.446 21.394 6.333 31.321-1.112 9.927-2.91 16.516-2.91 16.516s9.243-10.526 9.329-20.624c.085-10.098-6.333-23.362-6.333-30.807s.342-14.034.171-13.863z" fill-rule="evenodd" stroke="#000" stroke-width="2.134" fill="#217900"/><path id="path710" stroke-linejoin="round" d="M673.08 156.11s-6.162 4.535-5.562 14.976c.599 10.44 11.38 29.609 11.38 29.609s7.874 16.174 7.617 20.367c-.257 4.193 1.455-4.022.685-13.264-.77-9.242-12.665-29.609-12.665-29.609s-2.568-4.193-2.311-11.125c.257-6.932.941-10.868.856-10.954z" fill-rule="evenodd" stroke="#000" stroke-width="2.134" fill="#217900"/><path id="path713" d="M487.93 26.748c0-2.16-2.43-3.913-5.428-3.913s-5.43 1.752-5.428 3.913c-.001 2.16 2.43 3.913 5.428 3.913s5.429-1.752 5.428-3.913z" fill-rule="evenodd" fill="#6b18b5"/><path id="path714" d="M490.25 35.848c0-2.072-2.502-3.752-5.588-3.752-3.086 0-5.588 1.68-5.588 3.752s2.502 3.752 5.588 3.752c3.086 0 5.588-1.68 5.588-3.752z" fill-rule="evenodd" fill="#6b18b5"/><path id="path715" d="M497.19 25.072s-6.386 4.79-3.752 6.705c2.634 1.916 9.899-4.15 9.899-4.15l-6.147-2.555z" fill-rule="evenodd" fill="#6b18b5"/><path id="path716" d="M684.88 134.73c.002-1.361-.636-2.62-1.674-3.302a3.006 3.006 0 0 0-3.353 0c-1.037.681-1.675 1.94-1.674 3.302-.002 1.361.637 2.62 1.674 3.302a3.006 3.006 0 0 0 3.353 0c1.038-.681 1.676-1.94 1.674-3.302z" fill-rule="evenodd" fill="#6b18b5"/><path id="path717" d="M682.44 125.6c0-2.27-1.568-4.112-3.502-4.112s-3.503 1.841-3.503 4.112 1.568 4.112 3.502 4.112 3.503-1.841 3.503-4.112z" fill-rule="evenodd" fill="#6b18b5"/><path id="path718" d="M684.12 144.17c0-1.177-.614-2.132-1.37-2.132-.758 0-1.371.955-1.371 2.132s.613 2.132 1.37 2.132c.757 0 1.371-.955 1.371-2.132z" fill-rule="evenodd" fill="#6b18b5"/><path id="path719" d="M689.75 127.57c0-1.346-.614-2.437-1.37-2.437-.758 0-1.371 1.091-1.371 2.437s.613 2.437 1.37 2.437c.757 0 1.371-1.091 1.371-2.437z" fill-rule="evenodd" fill="#6b18b5"/><path id="path720" d="M674.37 129.25c0-1.093-.614-1.98-1.37-1.98-.758 0-1.371.887-1.371 1.98s.613 1.98 1.37 1.98c.757 0 1.371-.887 1.371-1.98z" fill-rule="evenodd" fill="#6b18b5"/><path id="path721" d="M676.81 142.35c0-1.767-1.295-3.2-2.893-3.2s-2.894 1.433-2.894 3.2c0 1.767 1.295 3.2 2.894 3.2s2.893-1.433 2.893-3.2z" fill-rule="evenodd" fill="#6b18b5"/><path id="path722" d="M669.19 136.56c0-1.514-1.09-2.741-2.437-2.741-1.345 0-2.436 1.227-2.436 2.741s1.09 2.741 2.436 2.741c1.346 0 2.437-1.227 2.437-2.741z" fill-rule="evenodd" fill="#6b18b5"/><path id="path723" d="M667.98 128.79c.001-.817-.405-1.572-1.065-1.98a2.01 2.01 0 0 0-2.134 0c-.66.408-1.066 1.163-1.065 1.98-.001.817.405 1.572 1.065 1.98a2.01 2.01 0 0 0 2.134 0c.66-.408 1.066-1.163 1.065-1.98z" fill-rule="evenodd" fill="#6b18b5"/><path id="path724" d="M702.69 168.28c-3.146-4.151-8.181-5.9-11.248-3.907-3.066 1.994-3.002 6.975.143 11.126 3.146 4.151 8.181 5.9 11.248 3.907 3.067-1.994 3.002-6.975-.143-11.126z" fill-rule="evenodd" fill="#6b18b5"/><path id="path725" d="M711.63 244.87c.61-5.094-1.875-9.58-5.55-10.02-3.674-.44-7.147 3.333-7.756 8.428-.61 5.094 1.875 9.58 5.55 10.02 3.674.44 7.146-3.334 7.756-8.428z" fill-rule="evenodd" fill="#6b18b5"/><path id="path726" d="M713.52 289.45c1.047-5.022-1.04-9.706-4.663-10.461-3.623-.755-7.409 2.704-8.456 7.726-1.047 5.023 1.04 9.706 4.663 10.461 3.623.756 7.409-2.704 8.456-7.726z" fill-rule="evenodd" fill="#6b18b5"/><path id="path727" d="M722.11 247.72c0-2.018-1.364-3.655-3.046-3.655s-3.045 1.637-3.045 3.655 1.363 3.655 3.045 3.655 3.046-1.637 3.046-3.655z" fill-rule="evenodd" fill="#6b18b5"/><path id="path728" d="M714.65 256.1l-6.244 7.081s-5.862.152-5.558 2.056c.305 1.903 8.071 7.614 7.995 9.899-.076 2.284 5.178-.533 5.178-.533s4.187-12.716 4.187-12.792c0-.077-.228-8.833-2.512-8.68-2.285.152-2.904 2.808-3.046 2.97z" fill-rule="evenodd" fill="#6b18b5"/><path id="path729" d="M303.97 253.3a2.972 2.972 0 1 0-5.943 0 2.972 2.972 0 0 0 5.943 0z" fill-rule="evenodd" fill="#6b18b5"/><path id="path730" d="M306.77 244.22c0-1.732-1.33-3.137-2.972-3.137s-2.971 1.405-2.971 3.137 1.33 3.137 2.971 3.137 2.972-1.405 2.972-3.137z" fill-rule="evenodd" fill="#6b18b5"/><path id="path731" d="M282.37 201.04c-1.115-2.498-3.435-3.89-5.184-3.11-1.748.78-2.262 3.437-1.148 5.935 1.115 2.498 3.435 3.89 5.184 3.11 1.748-.78 2.262-3.437 1.148-5.935z" fill-rule="evenodd" fill="#6b18b5"/><path id="path732" d="M289.74 227.94c-1.531-3.237-4.72-5.042-7.121-4.031s-3.108 4.455-1.577 7.693 4.719 5.042 7.12 4.03 3.109-4.455 1.578-7.692z" fill-rule="evenodd" fill="#6b18b5"/><path id="path733" d="M297.63 247.67c.496-4.044-1.18-7.758-3.743-8.297-2.563-.538-5.042 2.303-5.538 6.347-.496 4.044 1.18 7.758 3.742 8.297 2.563.538 5.043-2.303 5.539-6.347z" fill-rule="evenodd" fill="#6b18b5"/><path id="path734" d="M284.97 250.55c1.585-3.753.992-7.785-1.326-9.005s-5.48.833-7.066 4.586-.991 7.785 1.326 9.005 5.48-.833 7.066-4.586z" fill-rule="evenodd" fill="#6b18b5"/><path id="path735" d="M279.2 242.07c0-1.915-1.478-3.467-3.302-3.467s-3.301 1.552-3.301 3.467 1.478 3.467 3.301 3.467 3.302-1.552 3.302-3.467z" fill-rule="evenodd" fill="#6b18b5"/><path id="path736" d="M276.56 233.49c0-1.732-1.33-3.137-2.972-3.137-1.64 0-2.971 1.405-2.971 3.137s1.33 3.137 2.971 3.137 2.972-1.405 2.972-3.137z" fill-rule="evenodd" fill="#6b18b5"/><path id="path737" d="M279.37 216.98c0-2.918-1.294-5.283-2.889-5.283-1.596 0-2.889 2.365-2.889 5.283s1.293 5.283 2.889 5.283 2.889-2.365 2.889-5.283z" fill-rule="evenodd" fill="#6b18b5"/><path id="path738" d="M288.26 215.71c.385-2.892-.585-5.407-2.167-5.618-1.581-.21-3.176 1.964-3.56 4.856-.386 2.892.585 5.407 2.166 5.618 1.582.21 3.176-1.964 3.561-4.856z" fill-rule="evenodd" fill="#6b18b5"/><path id="path739" d="M351.6 89.333c1.177-4.096-.037-8.212-2.712-9.194-2.676-.982-5.8 1.542-6.977 5.638-1.177 4.096.037 8.212 2.713 9.194 2.675.982 5.799-1.542 6.976-5.638z" fill-rule="evenodd" fill="#6b18b5"/><path id="path740" d="M339.57 107.56c3.529-3.003 5.036-7.156 3.367-9.275-1.67-2.12-5.883-1.403-9.411 1.6s-5.036 7.156-3.367 9.275c1.669 2.12 5.883 1.403 9.411-1.6z" fill-rule="evenodd" fill="#6b18b5"/><path id="path741" d="M332.55 97.443c3.49-2.578 4.98-6.143 3.33-7.962s-5.818-1.205-9.307 1.373c-3.49 2.578-4.98 6.143-3.33 7.963s5.818 1.204 9.307-1.374z" fill-rule="evenodd" fill="#6b18b5"/><path id="path742" d="M359.61 79.649c2.353-1.799 3.358-4.286 2.245-5.556-1.113-1.27-3.923-.84-6.276.959s-3.358 4.286-2.245 5.556c1.113 1.269 3.923.84 6.276-.959z" fill-rule="evenodd" fill="#6b18b5"/><path id="path743" d="M345.5 96.89c1.61-2.487 1.717-5.167.241-5.987-1.475-.82-3.976.53-5.585 3.017s-1.717 5.168-.242 5.988c1.476.82 3.977-.531 5.586-3.018z" fill-rule="evenodd" fill="#6b18b5"/><path id="path744" d="M365.86 86.235c2.53-2.133 3.517-4.958 2.202-6.31-1.314-1.352-4.431-.72-6.961 1.413s-3.517 4.958-2.203 6.31c1.315 1.352 4.431.72 6.962-1.413z" fill-rule="evenodd" fill="#6b18b5"/><path id="path745" d="M329.07 111.09c2.366-.118 4.151-1.296 3.988-2.632-.162-1.335-2.212-2.322-4.578-2.204-2.365.118-4.15 1.296-3.988 2.632.163 1.335 2.212 2.322 4.578 2.204z" fill-rule="evenodd" fill="#6b18b5"/><path id="path746" d="M373.61 73.026c1.61-2.487 1.717-5.167.241-5.987-1.475-.82-3.976.53-5.585 3.017s-1.717 5.168-.242 5.988c1.476.82 3.977-.531 5.586-3.018z" fill-rule="evenodd" fill="#6b18b5"/><path id="path764" d="M641.8 148.49s7.338-11.615 4.501-22.547c-2.837-10.933-14.945-3.207-14.685.684.26 3.89 7.824 9.095 8.284 11.47.46 2.374-.854 9.677 1.9 10.394z" fill-rule="evenodd" stroke="#ef8a10" stroke-width="1.112" fill="#ffd200"/><path id="path708" stroke-linejoin="round" d="M501.67 51.882s26.443 1.027 26.614 18.142c-.086 2.653 0 5.819-.941 13.435 5.22-2.824 8.728-10.697 8.044-15.746.085-17.372-23.62-29.267-33.717-15.832z" fill-rule="evenodd" stroke="#000" stroke-width="2.668" fill="#217900"/><path id="path707" stroke-linejoin="round" d="M484.9 51.112s21.308-4.45 21.479 12.665c.171 17.115-6.76 19.853-6.76 19.853s16.345-3.509 16.43-20.88c.085-17.372-21.051-25.073-31.15-11.638z" fill-rule="evenodd" stroke="#000" stroke-width="2.668" fill="#217900"/><g id="g802" transform="translate(249.65 5.767) scale(1.9196)"><path id="path640" stroke-linejoin="round" d="M160.26 215.97s51.958-14.677 67.647-78.444c-9.11 65.454-65.96 86.204-65.96 86.204l-1.687-7.76z" fill-rule="evenodd" stroke="#000" stroke-width="1.483" fill="#f7df73"/><path id="path793" d="M165.59 219.94c1.606 0 5.579-4.396 7.861-4.903 2.282-.507 2.536-2.79-.085-2.874-2.62-.084-4.902 2.959-4.902 2.959s-2.282 1.944-4.649 2.198c-2.367.253-.845 3.212 1.775 2.62z" fill-rule="evenodd" fill="#8c1800"/><path id="path794" d="M195.51 197.62s-5.41 3.127-4.649 3.888c.76.761 5.579-2.958 5.663-3.043.085-.084 2.029-2.451-1.014-.845z" fill-rule="evenodd" stroke="#8c1800" stroke-width="1.483" fill="#8c1800"/><path id="path795" d="M176.66 211.83s-1.606-.592 2.536-2.198c4.142-1.606 3.888-3.465 5.24-4.226 1.353-.76 4.227-2.79 4.818-1.606s-3.042 3.55-3.888 3.804c-.845.253-4.987 4.057-6.17 4.395-1.184.338-2.029.17-2.536-.169z" fill-rule="evenodd" fill="#8c1800"/><path id="path796" d="M203.54 189.68c-3.55 3.973-3.55 3.888-3.55 3.888" stroke="#8c1800" stroke-linecap="round" stroke-width="1.807" fill="none"/><path id="path797" d="M208.87 183.17l-3.381 4.142" stroke="#8c1800" stroke-linecap="round" stroke-width="1.668" fill="none"/><path id="path798" d="M214.19 174.72l-3.804 6.086" stroke="#8c1800" stroke-linecap="round" stroke-width="1.529" fill="none"/><path id="path799" d="M218.67 166.1l-3.127 6.255" stroke="#8c1800" stroke-linecap="round" stroke-width="1.39" fill="none"/><path id="path800" d="M220.7 161.53l-1.014 2.198" stroke="#8c1800" stroke-linecap="round" stroke-width="1.39" fill="none"/><path id="path801" d="M222.98 155.53l-.845 2.62" stroke="#8c1800" stroke-linecap="round" stroke-width=".834" fill="none"/></g><g id="g813" transform="matrix(-1.9021 0 0 1.9542 731.39 -4.333)"><path id="path814" stroke-linejoin="round" d="M160.26 215.97s51.958-14.677 67.647-78.444c-9.11 65.454-65.96 86.204-65.96 86.204l-1.687-7.76z" fill-rule="evenodd" stroke="#000" stroke-width="1.483" fill="#f7df73"/><path id="path815" d="M165.59 219.94c1.606 0 5.579-4.396 7.861-4.903 2.282-.507 2.536-2.79-.085-2.874-2.62-.084-4.902 2.959-4.902 2.959s-2.282 1.944-4.649 2.198c-2.367.253-.845 3.212 1.775 2.62z" fill-rule="evenodd" fill="#8c1800"/><path id="path816" d="M195.51 197.62s-5.41 3.127-4.649 3.888c.76.761 5.579-2.958 5.663-3.043.085-.084 2.029-2.451-1.014-.845z" fill-rule="evenodd" stroke="#8c1800" stroke-width="1.483" fill="#8c1800"/><path id="path817" d="M176.66 211.83s-1.606-.592 2.536-2.198c4.142-1.606 3.888-3.465 5.24-4.226 1.353-.76 4.227-2.79 4.818-1.606s-3.042 3.55-3.888 3.804c-.845.253-4.987 4.057-6.17 4.395-1.184.338-2.029.17-2.536-.169z" fill-rule="evenodd" fill="#8c1800"/><path id="path818" d="M203.54 189.68c-3.55 3.973-3.55 3.888-3.55 3.888" stroke="#8c1800" stroke-linecap="round" stroke-width="1.807" fill="none"/><path id="path819" d="M208.87 183.17l-3.381 4.142" stroke="#8c1800" stroke-linecap="round" stroke-width="1.668" fill="none"/><path id="path820" d="M214.19 174.72l-3.804 6.086" stroke="#8c1800" stroke-linecap="round" stroke-width="1.529" fill="none"/><path id="path821" d="M218.67 166.1l-3.127 6.255" stroke="#8c1800" stroke-linecap="round" stroke-width="1.39" fill="none"/><path id="path822" d="M220.7 161.53l-1.014 2.198" stroke="#8c1800" stroke-linecap="round" stroke-width="1.39" fill="none"/><path id="path823" d="M222.98 155.53l-.845 2.62" stroke="#8c1800" stroke-linecap="round" stroke-width=".834" fill="none"/></g><path id="path578" stroke-linejoin="round" d="M691.89 247.23c.49 7.678 8.005 15.029 5.065 28.426-3.758 15.193-16.99 51.298-14.703 57.669-3.921-5.391-3.268-10.456-3.595-17.971-.326-7.515 10.946-35.451 11.926-44.926 0-8.495.817-20.094 1.307-23.198z" fill-rule="evenodd" stroke="#000" stroke-width="2.668" fill="#217900"/><path id="path577" stroke-linejoin="round" d="M691.89 247.39s12.253 15.52 11.599 27.773c-.653 12.253-7.515 26.629-5.228 33-3.92-5.391-4.9-8.822-5.228-16.337-.326-7.515 6.045-15.847 4.738-24.015-1.307-8.168-6.045-20.421-5.881-20.421z" fill-rule="evenodd" stroke="#000" stroke-width="2.668" fill="#217900"/><path id="path570" stroke-linejoin="round" d="M290.51 250.82c-.49 7.678-6.208 14.539-3.268 27.936 3.758 15.193 17.154 34.471 15.03 56.526 3.921-5.391 5.065-11.436 5.392-18.951.326-7.515-14.867-32.837-15.847-42.312 0-8.495-.817-20.094-1.307-23.198z" fill-rule="evenodd" stroke="#000" stroke-width="2.668" fill="#217900"/><path id="path569" stroke-linejoin="round" d="M290.51 250.99s-11.926 15.03-11.273 27.283c.163 8.168 15.193 42.312 12.906 48.684 3.92-5.391 5.064-4.738 4.9-12.906-4.41-20.911-12.252-34.308-10.945-42.476 1.307-8.168 4.574-20.584 4.411-20.584z" fill-rule="evenodd" stroke="#000" stroke-width="2.668" fill="#217900"/><path id="path2860" stroke-linejoin="round" fill="#fff" stroke-dashoffset="1" transform="matrix(1.3389 0 0 1.3391 360.43 -54.894)" stroke="#000" stroke-linecap="square" stroke-width="1.661" d="M99.959 125.78l22.172 68.231 71.743.003-58.04 42.172 22.167 68.233-58.041-42.15-58.044 42.16 22.168-68.23-58.04-42.17h71.743z"/></g></g></svg>