<svg id="svg378" xmlns="http://www.w3.org/2000/svg" height="480" width="640" version="1"><g id="flag" stroke-width="1pt" fill-rule="evenodd"><g id="g6497" transform="matrix(.83333 0 0 .9375 108.2 0)"><path id="rect171" fill="#f41408" d="M-129.84 0h768v512h-768z"/><path id="rect256" fill="#21873b" d="M-129.84 341.33h768V512h-768z"/><path id="rect255" d="M-129.84 0h768v170.67h-768z"/></g><g id="g6372" transform="matrix(1 0 0 .9068 60.299 .832)"><path id="path386" d="M160.18 154.64c22.308-54.325 84.502-80.311 138.83-58.003 27.36 11.235 46.74 30.607 57.987 57.963l-196.81.04z" fill="#f31509"/><path id="path353" d="M134.21 161.66c-23.45-1.74-48.376-7.12-52.443-8.6-4.066-1.48-4.223-3.954-3.722-5.848.501-1.894 3.096-4.044 6.127-3.242 5.682 1.503 28.788 7.614 50.034 17.693z" fill="#f31509"/><path id="path354" d="M258.84 66.919c-4.208-23.136-5.27-48.609-4.86-52.917.41-4.308 2.765-5.082 4.724-5.073 1.96.009 4.693 1.98 4.68 5.114-.027 5.878-.132 29.778-4.544 52.876z" fill="#f31509"/><path id="path355" d="M270.38 67.456c-2.21-23.412-1.086-48.882-.308-53.139.778-4.257 3.19-4.826 5.141-4.65 1.952.177 4.507 2.375 4.224 5.497-.53 5.853-2.682 29.657-9.057 52.292z" fill="#f31509"/><path id="path356" d="M280.84 68.873c-.276-23.514 2.94-48.805 4.066-52.984 1.126-4.179 3.576-4.547 5.506-4.21 1.93.336 4.295 2.737 3.757 5.825-1.01 5.79-5.113 29.336-13.329 51.369z" fill="#f31509"/><path id="path357" d="M291.85 71.335c1.793-23.447 7.222-48.357 8.711-52.421 1.49-4.063 3.963-4.215 5.856-3.71 1.893.505 4.038 3.105 3.23 6.133-1.515 5.68-7.674 28.772-17.797 49.998z" fill="#f31509"/><path id="path358" d="M302.7 74.791c3.868-23.195 11.486-47.526 13.33-51.441 1.844-3.915 4.321-3.846 6.161-3.176 1.841.672 3.747 3.451 2.674 6.396-2.01 5.521-10.2 27.977-22.16 48.22z" fill="#f31509"/><path id="path359" d="M312.81 79.016c5.836-22.78 15.507-46.369 17.679-50.113 2.172-3.743 4.634-3.463 6.41-2.637 1.777.826 3.438 3.759 2.117 6.6-2.478 5.33-12.552 27.004-26.206 46.15z" fill="#f31509"/><path id="path360" d="M322.76 84.225c7.809-22.181 19.507-44.834 21.999-48.372 2.491-3.539 4.92-3.044 6.617-2.066 1.697.979 3.095 4.045 1.53 6.761-2.935 5.092-14.868 25.8-30.146 43.677z" fill="#f31509"/><path id="path361" d="M332.17 90.255c9.712-21.416 23.341-42.963 26.131-46.271 2.79-3.308 5.166-2.603 6.772-1.481 1.605 1.122 2.73 4.3.935 6.868-3.367 4.817-17.06 24.406-33.838 40.884z" fill="#f31509"/><path id="path362" d="M341.03 97.092c11.544-20.487 27.001-40.762 30.07-43.814 3.068-3.052 5.374-2.143 6.875-.885 1.502 1.259 2.345 4.522.332 6.924-3.775 4.505-19.126 22.824-37.277 37.774z" fill="#f31509"/><path id="path363" d="M349.28 104.69c13.292-19.399 30.464-38.244 33.787-41.015 3.324-2.772 5.54-1.664 6.926-.28 1.386 1.385 1.94 4.71-.275 6.927-4.154 4.157-21.049 21.064-40.439 34.369z" fill="#f31509"/><path id="path364" d="M356.86 113.01c14.943-18.158 33.701-35.424 37.255-37.893 3.554-2.47 5.665-1.172 6.924.329 1.259 1.501 1.52 4.862-.881 6.876-4.504 3.777-22.815 19.136-43.298 30.689z" fill="#f31509"/><path id="path365" d="M363.38 121.54c16.41-16.843 36.549-32.478 40.297-34.641 3.748-2.163 5.743-.693 6.872.907 1.129 1.602 1.108 4.972-1.454 6.778-4.803 3.387-24.338 17.16-45.715 26.956z" fill="#f31509"/><path id="path366" d="M369.28 130.79c17.791-15.377 39.193-29.232 43.113-31.067 3.92-1.835 5.782-.2 6.77 1.492.987 1.692.678 5.048-2.03 6.629-5.075 2.963-25.715 15.014-47.853 22.946z" fill="#f31509"/><path id="path367" d="M374.75 141.33c19.138-13.664 41.731-25.478 45.804-26.942 4.073-1.464 5.775.337 6.602 2.112.827 1.777.208 5.09-2.633 6.413-5.329 2.48-26.996 12.568-49.773 18.417z" fill="#f31509"/><path id="path368" d="M378.93 151.51c20.24-11.972 43.763-21.804 47.946-22.914 4.183-1.11 5.725.83 6.396 2.67.672 1.841-.229 5.09-3.173 6.164-5.522 2.014-27.974 10.206-51.17 14.08z" fill="#f31509"/><path id="path369" d="M382.29 162.3c21.216-10.142 45.514-17.863 49.779-18.6 4.265-.736 5.63 1.332 6.136 3.224.507 1.893-.676 5.049-3.704 5.86-5.678 1.52-28.765 7.7-52.21 9.515z" fill="#f31509"/><path id="path370" d="M247.55 67.357c-6.33-22.648-9.744-47.913-9.733-52.241.01-4.328 2.283-5.315 4.234-5.488 1.952-.173 4.856 1.537 5.132 4.66.518 5.854 2.624 29.662.367 53.069z" fill="#f31509"/><path id="path371" d="M236.45 68.792c-8.283-22.009-13.889-46.88-14.256-51.192-.367-4.312 1.81-5.494 3.739-5.837 1.93-.342 4.972 1.108 5.52 4.194 1.026 5.787 5.203 29.32 4.997 52.835z" fill="#f31509"/><path id="path372" d="M225.42 71.218c-10.19-21.193-17.97-45.473-18.72-49.737-.746-4.263 1.32-5.633 3.21-6.143 1.892-.511 5.05.665 5.868 3.69 1.532 5.675 7.766 28.749 9.633 52.19z" fill="#f31509"/><path id="path373" d="M215.02 74.467c-11.95-20.252-21.76-43.784-22.86-47.968-1.105-4.184.836-5.724 2.677-6.394 1.841-.67 5.088.234 6.16 3.18 2.009 5.523 10.179 27.984 14.03 51.182z" fill="#f31509"/><path id="path374" d="M204.86 78.627c-13.65-19.154-25.44-41.759-26.9-45.834-1.46-4.074.343-5.775 2.12-6.6 1.777-.825 5.09-.202 6.409 2.64 2.475 5.332 12.539 27.01 18.362 49.794z" fill="#f31509"/><path id="path375" d="M194.59 83.924c-15.313-17.847-29.09-39.299-30.91-43.225-1.82-3.926-.179-5.782 1.516-6.764 1.696-.981 5.051-.66 6.622 2.053 2.944 5.086 14.92 25.77 22.773 47.936z" fill="#f31509"/><path id="path376" d="M185.24 89.848c-16.8-16.458-32.37-36.641-34.53-40.395-2.153-3.754-.677-5.745.927-6.87 1.605-1.124 4.975-1.093 6.774 1.474 3.372 4.813 17.089 24.386 26.826 45.792z" fill="#f31509"/><path id="path377" d="M176.48 96.438c-18.139-14.965-35.382-33.745-37.847-37.302-2.465-3.557-1.165-5.667.337-6.923 1.503-1.258 4.864-1.515 6.875.89 3.771 4.507 19.108 22.838 30.635 43.335z" fill="#f31509"/><path id="path378" d="M167.97 104.1c-19.4-13.292-38.25-30.46-41.02-33.783-2.773-3.323-1.665-5.54-.281-6.926 1.385-1.386 4.709-1.942 6.926.273 4.158 4.154 21.068 21.044 34.377 40.431z" fill="#f31509"/><path id="path379" d="M160.62 111.96c-20.447-11.615-40.668-27.143-43.709-30.222-3.041-3.079-2.124-5.381-.86-6.878 1.263-1.497 4.529-2.33 6.924-.308 4.492 3.79 22.758 19.205 37.645 37.408z" fill="#f31509"/><path id="path380" d="M153.58 120.94c-21.398-9.752-42.92-23.42-46.223-26.216-3.303-2.796-2.594-5.17-1.469-6.774 1.126-1.604 4.305-2.724 6.87-.923 4.811 3.376 24.376 17.105 40.822 33.913z" fill="#f31509"/><path id="path381" d="M147.27 130.67c-22.191-7.78-44.858-19.451-48.4-21.937-3.542-2.487-3.05-4.916-2.074-6.614.976-1.699 4.041-3.1 6.759-1.54 5.096 2.93 25.819 14.837 43.716 30.092z" fill="#f31509"/><path id="path382" d="M142.03 140.56c-22.785-5.817-46.383-15.467-50.128-17.636-3.745-2.169-3.467-4.631-2.643-6.408.825-1.778 3.756-3.441 6.6-2.122 5.331 2.473 27.014 12.529 46.17 26.166z" fill="#f31509"/><path id="path383" d="M137.83 150.47c-23.192-3.887-47.516-11.525-51.43-13.373-3.914-1.847-3.843-4.324-3.17-6.164.672-1.84 3.454-3.744 6.398-2.668 5.52 2.018 27.969 10.221 48.202 22.204z" fill="#f31509"/><path id="path384" d="M134.21 161.66c-23.45-1.74-48.376-7.12-52.443-8.6-4.066-1.48-4.223-3.954-3.722-5.848.501-1.894 3.096-4.044 6.127-3.242 5.682 1.503 28.788 7.614 50.034 17.693z" fill="#f31509"/><path id="rect385" d="M69.087 155.15h381.23v13.853H69.087z"/></g></g></svg>