<svg id="svg3337" xmlns="http://www.w3.org/2000/svg" height="480" width="640"><g id="flag"><g id="g6001" fill-rule="evenodd" stroke-width="1pt" transform="matrix(1.3333 0 0 1 0 -32)"><path id="rect880" fill="#fff" d="M0 32h480v480H0z"/><path id="rect1200" fill="#0b7226" d="M0 32h160.73v480H0z"/><path id="rect1201" fill="#bc0000" d="M320.19 32H480v480H320.19z"/></g><g id="g5008" transform="translate(78.8 -2.984) scale(.9375)"><path id="path723" d="M143.28 279.14c.082-.106 3.7-6.44 3.27-5.42 1.667 1.277 4.71.067 2.502-2.804.537-1.162 1.215-2.047 1.753-3.21 1.213-2.273-1.386-3.253-2.415-1.68-.628 1.203-1.236 1.92-1.865 3.124-3.275-1.555-3.49 2.102-1.923 2.74-.695.985-1.88 2.608-2.575 3.592l1.253 3.658z" fill-rule="evenodd" fill="#9c4314"/><path id="path724" d="M142.85 277.73c-.108-.08-6.492-3.607-5.465-3.193 1.253-1.684 0-4.71-2.84-2.461-1.17-.521-2.065-1.187-3.234-1.708-2.29-1.18-3.233 1.432-1.647 2.438 1.214.612 1.938 1.208 3.151 1.82-1.508 3.297 2.152 3.461 2.768 1.885.994.681 4.846 2.914 5.84 3.596 1.214-.435.214-1.943 1.427-2.377z" fill-rule="evenodd" fill="#9c4314"/><path id="path721" d="M165.94 316.43c.021-.133.185-7.424.294-6.323 2.074.33 4.173-2.184.864-3.658-.081-1.277.093-2.378.013-3.656-.016-2.577-2.769-2.2-2.924-.329.02 1.359-.172 2.278-.151 3.636-3.621.193-2.069 3.511-.386 3.326-.143 1.197-.412 3.187-.554 4.384l2.844 2.62z" fill-rule="evenodd" fill="#9c4314"/><path id="path722" d="M164.89 315.39c-.133-.019-7.426-.08-6.326-.205.3-2.078-2.243-4.14-3.67-.81-1.276.098-2.38-.061-3.656.038-2.577.052-2.161 2.799-.287 2.928 1.358-.04 2.279.14 3.638.1.244 3.617 3.54 2.018 3.33.338l6.14.643c.86-.96-.028-2.072.831-3.032z" fill-rule="evenodd" fill="#9c4314"/><path id="path691" d="M240.35 340.38s2.502 3.377 3.627 3.502c3.502.25 31.266 0 31.266 0 0-.042 1-.584 1-.626.918-1.167.834-1.834 1.751-3.001 1.46-1.46 3.544-1.918 5.003-3.377 6.253-1.501 11.88-3.001 18.135-4.002-.5-3.71-4.252-2.918-6.253-4.377-.625-.584-.5-1.168-.125-1.751 4.627-2.127 9.254-4.252 13.882-6.378v-1.501c-9.84 1.167-18.927 3.084-29.516 3.501l-36.144 14.883-2.626 3.127z" fill-rule="evenodd" stroke="#000" stroke-width="1.056" fill="#42b2f3"/><path id="path610" d="M140.42 273.97h-.125c.627 0 .128.042 0-1.501" stroke="#000" stroke-width=".563" fill="none"/><path id="path611" d="M140.96 275.64c-1.876-6.628-4.907-12.437-11.982-14.154-1.327-.302-2.269-4.09-.058-3.914 1.25.5.025-.237 1.276.263 1.238.442 3.166-.534 2.37-2.642 0-.25-2.362-4.441-2.362-4.566-.442-.479.38-3.166 2.502-1.75 1 .656 2.001 2.197 3.444 2.5.53-.089.881-1.735.793-3.01 0-.125.125-4.323.125-4.323-.503-2.53 1.736-3.82 3.532-1.928.125.625-.015.632.11 1.257.412.838.912.968 1.5.125l2.377-2.376c1.411-.525 2.292-1.049 2.376 1.876 0 0-1.946 2.44-2.867 3.325-.479.707-1.519 1.669.286 2.2.125 0 2.581.353 2.581.353 1.68.698 1.857 2.547.62 2.715 0 0-1.31 1.528-3.61 2.803-.707.567-1.29 1.25-.67 2.031 1.326.516.904.022 3.166.022 1.91-.442 1.732 4.233-1.716 3.916-1.033.247-2.395.144-2.954 1.794-.25 1.285-.312 3.751-.312 4.377-.214 2.976.224 7.105.224 7.23.25 2.126-.5 1.376-.75 1.876z" fill-rule="evenodd" stroke="#286726" stroke-width="1.953" fill="#008d00"/><path id="path612" d="M161.43 313.78c-.244-.311-6.511-7.179-13.751-6.407-1.35.164-3.516-3.085-1.376-3.665 1.347.05.298-.143 1.644-.094 1.138-.799-.92-3.255-1.85-2.402-.083-.235-2.48.514-3.497.307-3.146-.301-4.52-3.816-2.222-5.15 1.43.547 4.131.597 5.592.395 1.444-.439.775-1.753-.624-1.95-1.99-.294-10.021-2.251-9.312-3.225-1.327-2.212-.01-3.917 2.32-2.742 1.923 1.166 2.147.511 1.68-.359-.57-1.653-1.118-1.257-1.202-2.692-.142-.924.158-1.76 1.522-1.179.576-.484 1.523 2.978 5.098 1.665.661.553 1.224-3.746 3.706-3.092 1.86.576.589 2.51.952 5.24.298 1.799 2.095 1.386 2.342.452-.39-4.132 3.65-4.204 4.111-2.809.384 1.02.73 3.8.24 6.413-.265 1.329-.055 3.965.792 4.49 1.422.038.504-.285 1.482-1.757 1.648-1.06 4.211 2.78 1.212 4.709-3.163.682 1.792 12.734 2.21 13.407-.458.493-1.002-.11-1.07.445z" fill-rule="evenodd" stroke="#286726" stroke-width="1.953" fill="#008d00"/><path id="path702" d="M200.28 346.01c0-.134-.98-7.361-.7-6.29 2.1 0 3.779-2.812.28-3.748-.28-1.25-.28-2.365-.56-3.614-.42-2.543-3.079-1.74-2.939.134.233 1.338.187 2.276.42 3.614-3.546.758-1.493 3.792.14 3.346.047 1.204.093 3.212.14 4.416l3.22 2.142z" fill-rule="evenodd" fill="#9c4314"/><path id="path720" d="M200.15 345.16c-.134.002-7.346 1.084-6.28.789-.03-2.1-2.864-3.739-3.751-.227-1.245.298-2.36.314-3.606.611-2.536.455-1.696 3.103.175 2.937 1.336-.252 2.273-.22 3.609-.471.808 3.535 3.812 1.439 3.343-.188l6.165-.327c.699-1.083-.354-2.041.345-3.124z" fill-rule="evenodd" fill="#9c4314"/><path id="path637" d="M197.69 305.64c17.653 10.42 22.189 8.907 21.452 4.29.846 0 1.029.737 3.535-1.11-.35 6.828 7.084 10.752 11.616 9.929 4.09.263 3.562 5.672 3.562 5.672.248 5.533-1.613 7.77-1.364 13.304-.063 0-.125-.66-.187-.66-5.03-1.196-14.942-1.337-18.654-2.138 17.015-11.608-13.086-11.926-15.778-12.321-2.033-.264-.582-2.242.604-2.77 9.366-1.847-8.803-10.716-8.33-11.771-1.11-.66.078-1.187.078-1.187 1.243-.809 2.223-.43 3.467-1.238z" fill-rule="evenodd" stroke="#000" stroke-width="1.108" fill="#33b1e9"/><path id="path643" d="M241.77 314.47c-3.07 0-5.54 2.47-5.54 5.54-.923 4.221-.792 10.157 0 15.828 0 3.069 2.47 5.54 5.54 5.54 12.223 1.319 25.369.923 36.669 0 3.07 0 5.54-2.471 5.54-5.54 1.451-5.012 1.055-10.288 0-15.828 0-3.07-2.47-5.54-5.54-5.54-12.223-.528-24.71-1.187-36.669 0z" fill-rule="evenodd" stroke="#000" stroke-width="1.583" fill="#983d25"/><path id="path1138" stroke-linejoin="round" d="M200.49 163.79l-8.367 7.246c-3.436 1.519-7.171 3.411-4.482 11.504-1.569 10.384 6.798 12.027 14.12 9.86 1.22-2.689 1.607-4.545 2.827-7.234-3.237-.498-4.97.636-7.908.437-2.017-.324-2.166-1.843-1.42-2.839 3.163-1.569 6.027-3.062 9.189-4.631-.075-.474-.15-.125-.224-.598-2.615 1.345-4.482 1.793-7.246 2.913-2.191.773-2.814-2.042-1.942-3.287 0 0 5.677-8.142 5.677-8.217.475-1.712.146-4.595-.224-5.154z" fill-rule="evenodd" stroke="#000003" stroke-linecap="round" stroke-width="1.056" fill="#268728"/><path id="path614" d="M223.874 306.15a4.384 4.384 0 1 1-8.767 0 4.384 4.384 0 0 1 8.767 0z" fill-rule="evenodd" stroke="#000" stroke-width="1.055" fill="#fff"/><path id="path615" d="M203.085 322.681a4.133 4.133 0 1 1-8.266 0 4.133 4.133 0 0 1 8.266 0z" fill-rule="evenodd" stroke="#000" stroke-width="1.055" fill="#fff"/><path id="path616" d="M305.787 331.941a4.133 4.133 0 1 1-8.266 0 4.133 4.133 0 0 1 8.266 0z" fill-rule="evenodd" stroke="#000" stroke-width="1.045" fill="#fff"/><path id="path1143" stroke-linejoin="round" d="M200.88 169.32c.1 2.485.166 5.606.166 6.557-.105-2.325-.92-4.186-1.22-5.1.362-.597.948-1.457 1.054-1.457z" fill-rule="evenodd" stroke="#000" stroke-width=".563" fill="#ba4600"/><path id="path617" d="M241.407 336.951a4.133 4.133 0 1 1-8.266 0 4.133 4.133 0 0 1 8.266 0z" fill-rule="evenodd" stroke="#000" stroke-width="1.52" fill="#973100"/><path id="path618" d="M284.997 336.951a4.133 4.133 0 1 1-8.266 0 4.133 4.133 0 0 1 8.266 0z" fill-rule="evenodd" stroke="#000" stroke-width="1.52" fill="#973100"/><path id="path619" d="M284.997 316.911a4.133 4.133 0 1 1-8.266 0 4.133 4.133 0 0 1 8.266 0z" fill-rule="evenodd" stroke="#000" stroke-width="1.52" fill="#973100"/><path id="path620" d="M241.657 316.911a4.133 4.133 0 1 1-8.266 0 4.133 4.133 0 0 1 8.266 0z" fill-rule="evenodd" stroke="#000" stroke-width="1.52" fill="#973100"/><path id="path621" d="M200.9 348.26c-.244-.311-2.1-5.572-12.591-5.801-1.476-.087-2.412.337-5.4.13-1.732.143-1.054-1.921-.367-2.664 1.137-.798-4.054-.409-5.838-.197-1.8-.104-3.01-.41-4.026-.617-3.146-.301-4.987-2.51-2.689-3.843.963-.947 4.878.13 6.338-.072 1.444-.44 1.242-2.873-.157-3.07-1.99-.294-10.673-.945-9.965-1.92-1.327-2.21-.942-3.356 2.507-2.928 1.923 1.167 1.867-.328 1.399-1.198-.57-1.653-3.73-1.91-3.813-3.344-.515-3.443 1.744-3.906 3.108-3.325.576-.485-2.581-3.178.994-4.49.888-.279 2.716-.062 3.333 3.203 1.86.576.574-2.142 3.097-3.247 2.163-.907-.144 9.686 2.435 9.592 2.222.904 1.785-5.79 3.645-4.488 4.022-1.031 2.075 12.848 3.825 12.01 2.905 2.541 3.21-2.284 4.056-1.759 1.422.038 2.37.088 1.576 3.28-.59 2.483.293 3.06.744 4.055 2.718 5.988 6.795 5.932 8.156 8.688.439 4.074-.3 1.45-.367 2.005z" fill-rule="evenodd" stroke="#286726" stroke-width="1.953" fill="#008d00"/><path id="path622" d="M251.14 357.47c-5.016 4.12-10.227 6.79-12.135 11.079 2.286-.308 3.17-.69 4.875-.475 1.847-4.132 7.656-6.34 11.085-9.681l-3.825-.923z" fill-rule="evenodd" stroke="#000" stroke-width="1.056" fill="#009400"/><path id="path629" d="M264.55 357.91c4.536 4.19 10.158 6.584 12.135 11.011-2.286-.308-3.24-.62-4.602-.269-1.847-4.132-7.929-6.546-11.358-9.887 1.275-.308 2.55-.547 3.825-.855z" fill-rule="evenodd" stroke="#000" stroke-width="1.056" fill="#009400"/><path id="path630" d="M261.13 358.76c5.496 3.298 7.69 5.671 11.075 9.892-1.627.098-3.909.836-4.744 1.32-4.089-5.32-7.255-7.211-10.684-10.552 1.275-.308 3.078-.352 4.353-.66z" fill-rule="evenodd" stroke="#000" stroke-width="1.056" fill="#fff"/><path id="path827" d="M209.24 180.19c-2.201.605-3.152 2.462-3.352 4.193-8.11 5.682-2.215 16.865 5.306 14.542-5.565-8.334 0-13.042 6.19-10.12 1.877 1.375 3.185 4.244 3.362 4.067 1.177-2.553 5.836-4.775 5.836-4.775s3.754.504 4.43-1.924c.428-1.553 3.883-7.98 3.883-7.98l-12.027-2.477c-2.77-.06-5.541-.118-8.313-.177l-4.421 1.945c-.59.944-.304 1.762-.894 2.705z" stroke-opacity=".772" fill-rule="evenodd" stroke="#000" stroke-width="1.056" fill="#ffba00"/><path id="path631" d="M256.64 359.03c5.496 3.298 8.017 6.385 11.402 10.606-1.49.44-1.993 2.892-2.828 3.375-2.639-5.32-7.002-9.854-11.618-14.383 1.275-.307 1.77.71 3.044.401z" fill-rule="evenodd" stroke="#000" stroke-width="1.056" fill="#d40000"/><path id="path627" d="M254.57 358.39c-5.496 3.298-7.415 5.397-10.8 9.618 1.627.099 3.634 1.11 4.469 1.594 4.09-5.32 7.255-7.211 10.684-10.552-1.275-.308-3.078-.352-4.353-.66z" fill-rule="evenodd" stroke="#000" stroke-width="1.056" fill="#fff"/><path id="path628" d="M259.05 358.65c-5.496 3.298-7.81 6.59-11.196 10.811 2.724 1.95 2.061 2.07 2.622 3.171 2.639-5.32 8.442-9.717 13.059-14.245-1.275-.308-3.21.572-4.485.264z" fill-rule="evenodd" stroke="#000" stroke-width="1.056" fill="#d40000"/><path id="path635" d="M203.69 472.45c0 5.002-7.22 9.058-16.127 9.058s-16.127-4.056-16.127-9.058 7.22-9.058 16.127-9.058 16.127 4.056 16.127 9.058z" fill-rule="evenodd" transform="matrix(.43855 .14328 -.13174 .47697 170.31 53.137)" stroke="#000" stroke-width="2.243" fill="#973000"/><path id="path761" d="M250.12 351.73c-3.962 2.847-9.564 6.65-13.526 9.497-.814.695 2.746 1.423 4.051.785 4.182-2.871 6.382-4.752 10.564-7.623l2.392-1.335c-1.707-.123-1.774-1.202-3.481-1.324z" fill-rule="evenodd" stroke="#005e00" stroke-width="1.056" fill="#008d2b"/><path id="path636" d="M203.69 472.45c0 5.002-7.22 9.058-16.127 9.058s-16.127-4.056-16.127-9.058 7.22-9.058 16.127-9.058 16.127 4.056 16.127 9.058z" fill-rule="evenodd" transform="matrix(.37238 -.14619 .17511 .39171 62.95 178.21)" stroke="#000" stroke-width="2.549" fill="#973000"/><path id="path756" d="M290.53 307.86c.207-10.871 9.739-1.353 13.481-5.832 8.795-10.365 9.548-11.154 17.318-10.03 20.824 8.183-.912 27.106-22.195 18.49-2.336-1.285-6.268-1.344-8.604-2.629z" fill-rule="evenodd" stroke="#000" stroke-width="1.109" fill="#008d00"/><g id="g660" fill-rule="evenodd" transform="translate(108.15 107.5) scale(.42219)" fill="#6d390b"><path id="path657" d="M619.32 390.34a7.234 7.234 0 1 1-14.469 0 7.234 7.234 0 0 1 14.469 0z" transform="matrix(.874 .2484 -.1647 .72013 140.99 -45.21)"/><path id="rect659" transform="rotate(40.944)" stroke-width="1pt" d="M720.08-110.5h15.887v4.823H720.08z"/></g><path id="path1192" d="M337.62 287.58l1.106 1.55 3.822-3.33-1.105-1.55-3.823 3.33z" fill-rule="evenodd" stroke-width="1pt" fill="#6d390b"/><path id="path638" d="M241.77 314.33c6.463 1.979 11.212 25.458 17.543 27.568" stroke="#000" stroke-linecap="round" stroke-width="1.583" fill="none"/><path id="path639" d="M247.97 314.2c6.463 1.979 11.08 25.458 17.411 27.568" stroke="#000" stroke-linecap="round" stroke-width="1.583" fill="none"/><path id="path640" d="M254.04 313.94c6.463 1.979 11.212 25.589 17.543 27.699" stroke="#000" stroke-linecap="round" stroke-width="1.583" fill="none"/><path id="path645" d="M203.69 472.45c0 5.002-7.22 9.058-16.127 9.058s-16.127-4.056-16.127-9.058 7.22-9.058 16.127-9.058 16.127 4.056 16.127 9.058z" fill-rule="evenodd" transform="matrix(.37238 -.14619 .17511 .39171 157.39 161.86)" stroke="#000" stroke-width="2.243" fill="#973000"/><path id="path650" d="M340.66 292.97c.324 1.254-.238 2.88-2.443 3.449-2.206.57-4.276-.29-4.6-1.543-.324-1.254.953-3.056 3.16-3.626 2.204-.57 3.559.466 3.883 1.72z" fill-rule="evenodd" stroke="#000" stroke-width="1.008" fill="#dc0000"/><path id="path719" d="M243.6 353.06c-3.27.663-10.724 2.279-13.974 8.793-.59 1.226-5.494 2.177-4.829.06.766-1.107 1.04-1.203 1.806-2.31-.06-1.39-3.237-.98-3.019.263-.243-.055-1.78.241-2.502.987-1.948 2.488-5.275 2.377-5.16-.277 1.23-.91 1.853-1.784 2.47-3.122.407-1.453-2.436-1.974-3.355-.9-1.946 1.017-3.167 2.476-5.482 3.605-2.579.927-5.056-.726-2.811-2.056 2.018-.991.336-3.284-.65-3.358-1.699-.41-8.664.765-9.918.062-.98-.128-2.773-2.708-.673-3.169 1.903-.62 5.08.697 5.9-3.022.822-6.263 10.76 3.204 9.146.59-3.64-5.384 2.557-6.649 4.428-2.983.762 1.656 4.547 4.11 5.644 3.649 2.063.228-3.827-5.215.85-6.103 1.066.227 2.968.308 4.28 2.127.977.94 1.185 4.809 4.835 5.13.798-1.179.032-.579-.681-2.197-.006-1.96 3.234-1.8 4.62 1.517 1.37 2.532 8.611.812 15.236.965 2.123-.348 5.539 1.519-6.162 1.75z" fill-rule="evenodd" stroke="#286026" stroke-width="1.953" fill="#008d00"/><path id="path648" d="M333.32 292.73c1.166 1.79 1.141 4.628-2.009 6.679s-6.838 1.794-8.004.004c-1.166-1.791-.115-5.282 3.035-7.332 3.15-2.05 5.812-1.142 6.978.649z" fill-rule="evenodd" stroke="#000" stroke-width="1.056" fill="#dc0000"/><path id="path651" d="M335.58 285.31c1.091.696 1.789 2.268.563 4.189-1.225 1.92-3.325 2.703-4.417 2.006-1.092-.696-1.386-2.886-.16-4.806 1.225-1.92 2.922-2.086 4.014-1.389z" fill-rule="evenodd" stroke="#000" stroke-width="1.008" fill="#dc0000"/><path id="path649" d="M338.9 288.57c.706 1.085.692 2.805-1.218 4.048-1.909 1.242-4.145 1.088-4.851.003-.706-1.086-.07-3.201 1.84-4.444 1.908-1.242 3.522-.692 4.229.393z" fill-rule="evenodd" stroke="#000" stroke-width="1.008" fill="#dc0000"/><path id="path653" d="M346 282.14c.532.816.52 2.11-.916 3.045s-3.119.819-3.65.002c-.532-.816-.053-2.408 1.384-3.343 1.436-.935 2.65-.52 3.182.296z" fill-rule="evenodd" stroke="#000" stroke-width=".758" fill="#d90000"/><path id="path633" d="M255.24 348.07c-2.81.33-4.41.503-4.95 2.536-.299 1.38-.06 3.184.18 4.733 0 1.78 2.246 2.958 4.86 3.466h4.5c1.894 0 5.4-1.855 5.4-3.634.279-1.006.269-2.63.269-3.729 0-2.992-2.112-3.176-4.753-3.456l-5.506.084z" fill-rule="evenodd" stroke="#000" stroke-width="1.056" fill="#fff"/><path id="path654" d="M355.13 312.72c-.31-10.384-3.046-25.432 9.7-30.593 1.645-.429 2.239.498 1.679 1.866l-11.38 28.727z" fill-rule="evenodd" stroke="#286326" stroke-width="1.742" fill="#008f00"/><path id="path656" d="M371.6 291.58c2.27-4.268 7.877-5.343 9.856-5.211-3.914 4.001-7.827 13.806-10.025 17.015-3.166 5.452-12.4 9.321-17.938 12.53 6.199-8.441 11.908-15.893 18.108-24.334z" fill-rule="evenodd" stroke="#286326" stroke-width="1.742" fill="#008c00"/><path id="path692" d="M255.48 348.01s-2.814.5-2.877.5-2.188 1.376-2.188 1.376-.438 2.689-.438 2.751.5 3.064.5 3.064l1.313 1.814 3.44 1.188.25-10.693z" fill-rule="evenodd" stroke="#000" stroke-width=".563" fill="#009400"/><path id="path655" d="M353.45 315.9c.373-.373 7.296-33.014 18.841-36.88 1.865 2.425.966 7.696.22 10.494-3.545 12.187-12.158 20.541-19.06 26.386z" fill-rule="evenodd" stroke="#286326" stroke-width="1.742" fill="#008d00"/><g id="g663" fill-rule="evenodd" transform="scale(-.4222 .4222) rotate(-36.455 260.112 2822.483)" fill="#6d390b"><path id="path664" d="M619.32 390.34a7.234 7.234 0 1 1-14.469 0 7.234 7.234 0 0 1 14.469 0z" transform="matrix(.874 .2484 -.1647 .72013 140.99 -45.21)"/><path id="rect665" transform="rotate(40.944)" stroke-width="1pt" d="M720.08-110.5h15.887v4.823H720.08z"/></g><g id="g666" fill-rule="evenodd" transform="matrix(.42377 .15708 -.15237 .43687 148.27 41.811)" fill="#6d390b"><path id="path667" d="M619.32 390.34a7.234 7.234 0 1 1-14.469 0 7.234 7.234 0 0 1 14.469 0z" transform="matrix(.874 .2484 -.1647 .72013 140.99 -45.21)"/><path id="rect668" transform="rotate(40.944)" stroke-width="1pt" d="M720.08-110.5h15.887v4.823H720.08z"/></g><g id="g669" fill-rule="evenodd" transform="matrix(-.35221 .28319 -.29686 -.35489 692.41 281.45)" fill="#6d390b"><path id="path670" d="M619.32 390.34a7.234 7.234 0 1 1-14.469 0 7.234 7.234 0 0 1 14.469 0z" transform="matrix(.874 .2484 -.1647 .72013 140.99 -45.21)"/><path id="rect671" transform="rotate(40.944)" stroke-width="1pt" d="M720.08-110.5h15.887v4.823H720.08z"/></g><path id="path682" d="M348.43 325.62c7.093-3.844 2.649 1.549 2.208 4.501-2.096 7.286-4.055 7.333-6.52 8.574-3.675 3.353-15.453 1.727-20.925 3.108 6.86-4.98 18.378-11.203 25.237-16.183z" fill-rule="evenodd" stroke="#286326" stroke-width="1.417" fill="#008c00"/><path id="path673" d="M337.81 323.93c2.962-2.35 3.448-7.54 3.25-9.338-2.684 3.834-9.554 8.046-11.756 10.263-3.77 3.245-6.084 11.928-8.113 17.195 5.77-6.21 10.85-11.909 16.619-18.12z" fill-rule="evenodd" stroke="#286326" stroke-width="1.417" fill="#008c00"/><path id="path675" d="M300.93 353.74c4.639-1.361 12.545 2.067 13.835 3.574-5.597-.001-14.666 3.885-18.498 4.557-6.112 1.547-23.062-8.015-29.13-9.381 10.13-.51 23.423 2.718 33.793 1.25z" fill-rule="evenodd" stroke="#286326" stroke-width="1.742" fill="#008c00"/><path id="path759" d="M265.62 352.76c3.962 2.847 9.564 6.65 13.526 9.497.814.695-2.746 1.423-4.051.785-4.183-2.871-6.382-4.752-10.564-7.623l-2.392-1.335c1.707-.123 1.774-1.202 3.48-1.324z" fill-rule="evenodd" stroke="#004500" stroke-width="1.056" fill="#00602b"/><path id="path674" d="M320.61 341.81c.476-.18 19.363-25.678 31.104-24.624.705 2.798-2.151 6.999-3.905 9.127-7.902 9.155-18.8 13.082-27.2 15.497z" fill-rule="evenodd" stroke="#286326" stroke-width="1.663" fill="#008c00"/><g id="g676" fill-rule="evenodd" transform="matrix(.29974 .33824 -.34026 .31352 265.66 6.85)" fill="#6d390b"><path id="path677" d="M619.32 390.34a7.234 7.234 0 1 1-14.469 0 7.234 7.234 0 0 1 14.469 0z" transform="matrix(.874 .2484 -.1647 .72013 140.99 -45.21)"/><path id="rect678" transform="rotate(40.944)" stroke-width="1pt" d="M720.08-110.5h15.887v4.823H720.08z"/></g><g id="g679" fill-rule="evenodd" transform="matrix(-.44732 .0645 -.0749 -.45658 628.85 486.61)" fill="#6d390b"><path id="path680" d="M619.32 390.34a7.234 7.234 0 1 1-14.469 0 7.234 7.234 0 0 1 14.469 0z" transform="matrix(.874 .2484 -.1647 .72013 140.99 -45.21)"/><path id="rect681" transform="rotate(40.944)" stroke-width="1pt" d="M720.08-110.5h15.887v4.823H720.08z"/></g><path id="path660" d="M163 255.92c.553-.825 1.829-1.368 3.417-.478 1.589.89 2.261 2.45 1.708 3.275-.554.826-2.34 1.076-3.93.186-1.588-.89-1.748-2.157-1.195-2.983z" fill-rule="evenodd" stroke="#000" stroke-width=".788" fill="#dc0000"/><path id="path684" d="M297.7 350.34c7.8-2.062 7.335-5.818 10.979-9.103-8.436-1.234-15.165 1.751-18.769 3.734-5.693 3.67-7.165 7.656-12.098 10.401 8.409-1.074 12.197-2.281 19.887-5.032z" fill-rule="evenodd" stroke="#286326" stroke-width="1.417" fill="#008c00"/><path id="path685" d="M272.26 352.62c22.308 1.683 18.753-7.373 43.201-7.15-.361 2.863-5.03 6.455-7.437 7.8-10.691 5.653-28.26 8.301-35.764-.65z" fill-rule="evenodd" stroke="#286326" stroke-width="1.663" fill="#008c00"/><path id="path693" d="M260.92 347.95l.063 10.505 2.876-1.125s1.188-1.877 1.188-2.002c0-.125.5-2.564.5-2.626 0-.063-.25-3.001-.25-3.001l-2.188-1.439-2.189-.312z" fill-rule="evenodd" stroke="#000" stroke-width=".563" fill="#d40000"/><path id="rect656" fill-rule="evenodd" transform="matrix(-.67306 -.73958 .76307 -.64632 0 0)" stroke-width="1pt" fill="#6d390b" d="M-299.88-44.279h5.304v1.591h-5.304z"/><path id="path663" d="M163.56 252.82c.605-1.053 2.002-1.747 3.74-.61 1.74 1.136 2.475 3.126 1.87 4.18-.606 1.055-2.562 1.373-4.301.237-1.74-1.135-1.915-2.752-1.309-3.807z" fill-rule="evenodd" stroke="#000" stroke-width=".932" fill="#dc0000"/><path id="path658" d="M173.39 248.42c1.017.042 2.12.941 2.062 2.987-.057 2.044-1.162 3.607-2.18 3.565s-2.096-1.602-2.039-3.647c.057-2.045 1.139-2.946 2.157-2.905z" fill-rule="evenodd" stroke="#000" stroke-width=".847" fill="#dc0000"/><path id="path661" d="M168.38 249.24c1.153-.303 2.655.209 3.196 2.238.541 2.028-.235 3.937-1.388 4.24-1.153.301-2.823-.868-3.364-2.897-.542-2.028.403-3.279 1.556-3.581z" fill-rule="evenodd" stroke="#000" stroke-width=".928" fill="#dc0000"/><path id="path665" stroke-linejoin="round" d="M197.12 281.77c-3.478-8.843-12.97-23.524-22.639-16.449-10.73 9.256 4.894 23.818 18.218 22.993l4.422-6.544z" fill-rule="evenodd" stroke="#000" stroke-linecap="round" stroke-width="1.056" fill="#008d00"/><path id="path659" d="M169.51 255.85c1.858-1.25 4.838-1.278 7.052 1.968 2.214 3.246 2.015 7.098.158 8.348-1.859 1.25-5.544.22-7.758-3.026-2.214-3.246-1.31-6.04.548-7.29z" fill-rule="evenodd" stroke="#000" stroke-width="1.105" fill="#dc0000"/><path id="path662" d="M162.64 241.08c.847-.57 2.206-.583 3.216.898 1.009 1.48.919 3.237.071 3.807-.847.57-2.527.1-3.537-1.38-1.01-1.48-.598-2.755.25-3.325z" fill-rule="evenodd" stroke="#000" stroke-width=".794" fill="#dc0000"/><path id="path666" d="M226.66 292.29c-4.37-7.775-16.296-17.498-28.445-11.278-14.366 10.083 5.795 25.186 26.427 17.739 1.851-1.918.166-4.543 2.018-6.461z" fill-rule="evenodd" stroke="#000" stroke-width="1.109" fill="#008d00"/><path id="path668" d="M267.16 296.89c-4.37-7.775-27.793-16.614-37.996-9.156-12.774 14.328 5.972 24.301 31.203 17.208 1.851-1.918 4.941-6.134 6.793-8.052z" fill-rule="evenodd" stroke="#000" stroke-width="1.109" fill="#008d00"/><path id="path669" stroke-linejoin="round" d="M176.19 267.85c.125 0 2.626 3.126 2.626 3.126l-.125-4.377" stroke="#000" stroke-linecap="round" stroke-width="1.056" fill="none"/><path id="path671" stroke-linejoin="round" d="M180.57 273.97l2.626 2.626" stroke="#000" stroke-linecap="round" stroke-width="1.056" fill="none"/><path id="path672" stroke-linejoin="round" d="M189.82 272.22l.25 3.002 1.626-.125" stroke="#000" stroke-linecap="round" stroke-width="1.056" fill="none"/><path id="path676" stroke-linejoin="round" d="M189.82 282.23c-.625-.375-2.751-2.126-2.751-2.126" stroke="#000" stroke-linecap="round" stroke-width="1.056" fill="none"/><path id="path678" stroke-linejoin="round" d="M183.69 282.48l-3.502-1.126" stroke="#000" stroke-linecap="round" stroke-width="1.056" fill="none"/><path id="path679" d="M177.06 275.85l-3.377-1.126" stroke="#000" stroke-width="1.056" fill="none"/><path id="path681" stroke-linejoin="round" d="M170.69 273.85h-2.877" stroke="#000" stroke-linecap="round" stroke-width="1.056" fill="none"/><path id="path683" stroke-linejoin="round" d="M184.19 264.34v-3.752" stroke="#000" stroke-linecap="round" stroke-width=".563" fill="none"/><path id="path686" stroke-linejoin="round" d="M179.19 284.61c-.375 0-5.252-.25-5.252-.25" stroke="#000" stroke-linecap="round" stroke-width="1.056" fill="none"/><path id="path687" stroke-linejoin="round" d="M187.95 287.98l-3.752 1.25" stroke="#000" stroke-linecap="round" stroke-width="1.056" fill="none"/><path id="path688" stroke-linejoin="round" d="M193.57 274.6c.125-.125 3.127-1.626 3.127-1.626" stroke="#000" stroke-linecap="round" stroke-width="1.056" fill="none"/><path id="path689" stroke-linejoin="round" d="M185.07 270.35c0-.125-1-4.127-1-4.127" stroke="#000" stroke-linecap="round" stroke-width="1.056" fill="none"/><path id="path694" d="M255.18 348c-2.81.33-4.41.503-4.95 2.536-.3 1.38-.06 3.184.18 4.733.5 2.592 2.246 2.958 4.86 3.466h4.5c1.894 0 4.961-1.23 5.462-3.572.342-1.193.207-2.691.207-3.79-.25-2.743-2.112-3.177-4.753-3.457l-5.506.084z" stroke="#000" stroke-width="1.056" fill="none"/><path id="path695" d="M255.49 348.01l-.089 10.435" stroke="#000" stroke-width="1.056" fill="none"/><path id="path696" d="M260.97 348.01l-.089 10.435" stroke="#000" stroke-width="1.056" fill="none"/><path id="path699" d="M373.82 258.77c1.65-5.425-4.061-6.707-5.333-9.753-2.608 5.103-1.694 10.3-1.232 13.033 1.069 4.437 5.002 7.504 5.655 11.253 1.152-5.596.967-9.026.91-14.533z" fill-rule="evenodd" stroke="#286326" stroke-width=".948" fill="#008c00"/><path id="path700" d="M381.38 253.73c.111-2.968 3.983-5.094 5.543-5.563-.967 5.773.77 8.484.311 10.851-.345 3.865-7.424 9.77-10.434 13.051 1.526-6.34 3.053-12 4.58-18.339z" fill-rule="evenodd" stroke="#286326" stroke-width="1.26" fill="#008c00"/><path id="path698" d="M373.22 276.87c.19-.355-2.946-27.591 4.908-33.242 2.058 1.209 2.732 5.107 2.884 7.245.434 9.388.742 14.158-7.792 25.998z" fill-rule="evenodd" stroke="#286326" stroke-width="1.349" fill="#008c00"/><path id="path712" d="M215.69 276.22c2.247.713 4.226 3.164 3.011 7.147-1.215 3.984-3.096 6.545-6.05 5.656-3.839-.89-4.527-4.448-3.313-8.432 1.215-3.983 4.104-5.083 6.352-4.371z" fill-rule="evenodd" stroke="#000" stroke-width="1.167" fill="#dc0000"/><path id="path717" d="M219.49 272.15c.714.5 1.14 1.553.27 2.743-.87 1.19-2.299 1.6-3.013 1.1-.714-.502-.854-1.935.016-3.126.87-1.189 2.013-1.219 2.727-.717z" fill-rule="evenodd" stroke="#000" stroke-width="1.337" fill="#dc0000"/><path id="path718" d="M213.58 270.93c.853-.181 1.914.223 2.19 1.671.278 1.448-.394 2.774-1.247 2.955-.854.18-1.998-.693-2.277-2.14-.277-1.449.48-2.305 1.334-2.486z" fill-rule="evenodd" stroke="#000" stroke-width="1.337" fill="#dc0000"/><path id="path713" d="M216.07 274.09c.836.25 1.572 1.115 1.12 2.518-.452 1.404-1.678 2.243-2.513 1.993-.836-.252-1.421-1.568-.97-2.971.452-1.403 1.527-1.791 2.363-1.54z" fill-rule="evenodd" stroke="#000" stroke-width="1.337" fill="#dc0000"/><path id="path714" d="M217.28 269.07c.697.19 1.312.844.934 1.905-.377 1.062-1.4 1.698-2.097 1.508-.697-.19-1.185-1.186-.808-2.248.376-1.062 1.274-1.355 1.971-1.165z" fill-rule="evenodd" stroke="#000" stroke-width="1.063" fill="#dc0000"/><path id="path715" d="M220.94 275.46c.763.524 1.19 1.523.189 2.523-1.001 1-2.582 1.24-3.345.715-.763-.525-.861-1.844.14-2.845 1-1 2.253-.918 3.016-.393z" fill-rule="evenodd" stroke="#000" stroke-width="1.339" fill="#dc0000"/><path id="path716" d="M211.34 273.27c.776-.093 1.69.368 1.817 1.718.128 1.351-.582 2.508-1.359 2.601-.777.094-1.725-.804-1.854-2.155-.127-1.35.619-2.07 1.396-2.164z" fill-rule="evenodd" stroke="#000" stroke-width="1.215" fill="#dc0000"/><path id="path701" d="M199.7 343.51v-.125.125z" stroke="#000" stroke-width=".563" fill="none"/><path id="path750" d="M300.57 291.21c4.377 2.335 2.876 7.796-.25 9.255-.167-3.585-2.46-4.67-5.878-5.503 1.793-1 3.71-4.252 6.128-3.752z" fill-rule="evenodd" stroke="#000" stroke-width="1.056" fill="#fff"/><path id="path751" d="M258.77 313.05c1.61-23.735 19.644-26.614 31.597-22.505 17.503 12.701-.247 23.253-26.447 23.937-2.336-1.285-2.814-.147-5.15-1.432z" fill-rule="evenodd" stroke="#000" stroke-width="1.109" fill="#008d00"/><path id="path740" d="M264.01 286.38c-5.598-.226-7.288 5.236-5.092 8.087 2.23-2.998 5.08-2.76 8.882-1.733-1.164-1.775-1.153-5.55-3.79-6.354z" fill-rule="evenodd" stroke="#000" stroke-width="1.122" fill="#fff"/><path id="path739" d="M266.93 293.48c-4.377 2.335-3.445 7.796-.318 9.255.166-3.585 2.459-4.67 5.877-5.503-1.792-1-3.141-4.252-5.559-3.752z" fill-rule="evenodd" stroke="#000" stroke-width="1.056" fill="#fff"/><path id="path738" stroke-linejoin="round" d="M301.15 291.66c.05-1.953-1.49-3.641-3.297-3.914-2.178-.265-4.268 1.238-6.446-.353-.265-.177-5.323-4.543-6.775-6.577-1.451-.796-4.493-2.288-4.493-2.288-1.793 2.335-3.055 5.023-5.643 6.562-1.287.515-1.779 1.119-4.128.927-2.428-1.135-5.1-1.718-6.488-.485 1.182 2.339.86 5.298.36 7.55.876.5 1.84-.1 2.892.136 3.243.086 2.418 3.57 3.627 5.07 3.416.93 5.152-.707 5.65-3.492.903-1.421 3.663-1.606 5.627-2.142 2.126-.41 4.783-1.086 6.732.007 1.61.855 2.689 1.887 3.502 3.626 0 0 2.563.23 5.128-.25.088-1.54-.228-4.34 3.752-4.377z" fill-rule="evenodd" stroke="#000" stroke-linecap="round" stroke-width="1.056" fill="#f6aa00"/><path id="path741" d="M278.49 280.98l.125 5.628c.667 2.043 5.211 1.834 5.753.5l-.125-6.378" stroke="#000" stroke-width="1.056" fill="none"/><path id="path742" d="M279.99 292.98c.981-.332 1.345-3.06 1.345-3.06" stroke="#000" stroke-linecap="round" stroke-width="1.056" fill="none"/><path id="path743" d="M284 292.23l.25-2.251" stroke="#000" stroke-linecap="round" stroke-width="1.056" fill="none"/><path id="path744" d="M288.12 292.23l-.37-2.37" stroke="#000" stroke-linecap="round" stroke-width="1.056" fill="none"/><path id="path745" d="M277.24 290.48c-.152.084-2.126-2.376-1.5-2.126" stroke="#000" stroke-linecap="round" stroke-width="1.056" fill="none"/><path id="path746" d="M273.62 294.11c.25 0-3.267-3.642-2.642-3.392" stroke="#000" stroke-linecap="round" stroke-width="1.056" fill="none"/><path id="path747" d="M270.36 287.36c-.091-.28-.25-1.626.375-1.376" stroke="#000" stroke-linecap="round" stroke-width="1.056" fill="none"/><path id="path748" d="M278.2 286.52c-5.343 4.612-10.374 2.671-11.1 6.55" stroke="#000" stroke-linecap="round" stroke-width="1.056" fill="none"/><path id="path749" d="M291.43 289.13c.187-.226.83-1.42.157-1.417" stroke="#000" stroke-linecap="round" stroke-width="1.056" fill="none"/><path id="path752" stroke-linejoin="round" d="M205.62 291.41c.07-.103 4.06-.433 4.06-.433l-3.701-2.34" stroke="#000" stroke-linecap="round" stroke-width="1.056" fill="none"/><path id="path753" stroke-linejoin="round" d="M229.94 295.39c.07-.103 4.06-.433 4.06-.433l-3.17-3.669" stroke="#000" stroke-linecap="round" stroke-width="1.056" fill="none"/><path id="path754" stroke-linejoin="round" d="M239.77 296.06c-.196-.635 4.193.098 4.06-.433l-2.771-3.004" stroke="#000" stroke-linecap="round" stroke-width="1.056" fill="none"/><path id="path755" stroke-linejoin="round" d="M234.52 282.06c.125 0 2.626 3.126 2.626 3.126l-.125-4.377" stroke="#000" stroke-linecap="round" stroke-width="1.056" fill="none"/><path id="path757" stroke-linejoin="round" d="M309.84 302.93c.095.081-.024 4.46-.024 4.46l2.873-3.116" stroke="#000" stroke-linecap="round" stroke-width="1.056" fill="none"/><path id="path758" stroke-linejoin="round" d="M277.78 301.81c.085.091-.483 4.055-.483 4.055l4.283-2.272" stroke="#000" stroke-linecap="round" stroke-width="1.056" fill="none"/><path id="path763" stroke-linejoin="round" d="M202.71 281.49l2.626 2.626" stroke="#000" stroke-linecap="round" stroke-width="1.056" fill="none"/><path id="path764" stroke-linejoin="round" d="M197.93 285.87l2.626 2.626" stroke="#000" stroke-linecap="round" stroke-width="1.056" fill="none"/><path id="path765" stroke-linejoin="round" d="M215.84 292.68l3.7-.33" stroke="#000" stroke-linecap="round" stroke-width="1.056" fill="none"/><path id="path766" stroke-linejoin="round" d="M209.96 296.33l3.705-.263" stroke="#000" stroke-linecap="round" stroke-width="1.056" fill="none"/><path id="path767" stroke-linejoin="round" d="M236.75 287.92l2.626 2.626" stroke="#000" stroke-linecap="round" stroke-width="1.056" fill="none"/><path id="path768" stroke-linejoin="round" d="M247.68 289.28l2.626 2.626" stroke="#000" stroke-linecap="round" stroke-width="1.056" fill="none"/><path id="path769" stroke-linejoin="round" d="M227.31 284.5l2.626 2.626" stroke="#000" stroke-linecap="round" stroke-width="1.056" fill="none"/><path id="path770" stroke-linejoin="round" d="M199.7 276.16l2.626 2.626" stroke="#000" stroke-linecap="round" stroke-width="1.056" fill="none"/><path id="path771" stroke-linejoin="round" d="M229.05 308.13l2.43-2.81" stroke="#000" stroke-linecap="round" stroke-width="1.056" fill="none"/><path id="path772" stroke-linejoin="round" d="M241.36 310.46l2.43-2.81" stroke="#000" stroke-linecap="round" stroke-width="1.056" fill="none"/><path id="path773" stroke-linejoin="round" d="M194.11 296.09l3.7-.33" stroke="#000" stroke-linecap="round" stroke-width="1.056" fill="none"/><path id="path774" stroke-linejoin="round" d="M201.11 293.46c-.604.033 1.873-.16 2.557.114l-3.653-2.614" stroke="#000" stroke-linecap="round" stroke-width="1.124" fill="none"/><path id="path775" stroke-linejoin="round" d="M205.73 301.29l3.7-.33" stroke="#000" stroke-linecap="round" stroke-width="1.056" fill="none"/><path id="path776" stroke-linejoin="round" d="M249.6 297.7l3.705-.263" stroke="#000" stroke-linecap="round" stroke-width="1.056" fill="none"/><path id="path777" stroke-linejoin="round" d="M243.32 302.89l3.705-.263" stroke="#000" stroke-linecap="round" stroke-width="1.056" fill="none"/><path id="path778" stroke-linejoin="round" d="M247.78 283.84c.125 0 2.626 3.126 2.626 3.126l-.125-4.377" stroke="#000" stroke-linecap="round" stroke-width="1.056" fill="none"/><path id="path780" stroke-linejoin="round" d="M283.83 295.03l-2.626 2.626" stroke="#000" stroke-linecap="round" stroke-width="1.056" fill="none"/><path id="path781" stroke-linejoin="round" d="M292.44 297.9l-2.626 2.626" stroke="#000" stroke-linecap="round" stroke-width="1.056" fill="none"/><path id="path782" stroke-linejoin="round" d="M288.61 305.28l-2.626 2.626" stroke="#000" stroke-linecap="round" stroke-width="1.056" fill="none"/><path id="path783" stroke-linejoin="round" d="M319.5 305.96l-2.626 2.626" stroke="#000" stroke-linecap="round" stroke-width="1.056" fill="none"/><path id="path784" stroke-linejoin="round" d="M303.24 304.05l-2.626 2.626" stroke="#000" stroke-linecap="round" stroke-width="1.056" fill="none"/><path id="path785" stroke-linejoin="round" d="M319.23 288.33l-2.626 2.626" stroke="#000" stroke-linecap="round" stroke-width="1.056" fill="none"/><path id="path786" stroke-linejoin="round" d="M331.66 306.08l-3.698-.353" stroke="#000" stroke-linecap="round" stroke-width="1.056" fill="none"/><path id="path787" stroke-linejoin="round" d="M300.6 314.32l.18-3.71" stroke="#000" stroke-linecap="round" stroke-width="1.056" fill="none"/><path id="path788" stroke-linejoin="round" d="M312.32 297.53l1.89-3.198" stroke="#000" stroke-linecap="round" stroke-width="1.056" fill="none"/><path id="path789" stroke-linejoin="round" d="M318.2 301.08l1.89-3.198" stroke="#000" stroke-linecap="round" stroke-width="1.056" fill="none"/><path id="path790" stroke-linejoin="round" d="M323.1 311.25c-.082.095-4.083-.031-4.083-.031l2.868 2.091" stroke="#000" stroke-linecap="round" stroke-width="1.056" fill="none"/><path id="path791" stroke-linejoin="round" d="M267.53 310.14c.085.091-.483 4.055-.483 4.055l4.283-2.272" stroke="#000" stroke-linecap="round" stroke-width="1.056" fill="none"/><path id="path792" stroke-linejoin="round" d="M234.58 302.89c.488-.362 2.963-1.132 2.83-1.663l-2.635-.955" stroke="#000" stroke-linecap="round" stroke-width="1.056" fill="none"/><path id="path828" stroke-linejoin="round" d="M346.11 277.88c1.735 1.347 4.662-13.979 4.213-18.775 0-.317-.544-10.487 1.585-17.752 1.345-2.446 1.393-20.773-.624-25.591 1.607-.136 3.554-.656 3.794-2.62-7.422 2.748-9.185-15.687-16.326-26.274-6.973-10.617-15.628-16.806-24.619-23.249.701-1.802 1.739-3.492 3.112-5.183-11.04 5.53-28.243-14.492-53.627-12.996-5.721.57-8.417.916-9.88 4.4-4.72.4-9.552 1.472-9.564 7.7.01 1.492 1.364 4.216 4.399 4.252 4.16 1.197 7.534.265 10.349 6.058.211 1.584.534 4.402.746 5.987 0 0-3.724-4.716-5.76-5.5.54-.785-.32-1.323 1.248-2.536-1.904-1.102-5.314-.206-5.314-.206s-7.374-3.47-13.313-2.536c0-.633-1.137-4.808-1.137-4.808-1.05 2.94-3.37 2.782-3.71 5.574-.635-2.008-1.493-4.464-2.127-6.471-2.084 2.846-1.479 5.917-2.219 8.875-.826.673-2.474.71-2.89-1.195-.21-2.325-.496-2.557-.483-5.33-1.505 2.623-3.309 3.9-3.917 8.427-.634-1.69-.969-3.306-1.603-4.996.08 5.888-4.998 9.421-9.808 13.555-1.351 2.5.211 2.535.317 3.803l2.535 1.268c1.48-.105 3.071-.211 4.55-.317.74.951.135 1.008 2.107 1.623 5.283 1.48 11.895-4.873 17.082 5.107-2.389 1.988-4.777 6.667-4.028 7.534.95 0-1.909 1.345 1.956.112-4.034 3.923-6.768 9.08-6.768 9.398-.448 1.1 1.626-.15 1.192 1.852.567-1.501.96-.125.96-.125-9.208 9.96-.308 20.64-1.3 26.394 1.53 2.465 1.721-.047 3.635-.32 1.62 7.057 6.253 11.337 9.105 16.938-1.473-.451-4.4-.612-5.985.06.135 2.655 2.536 5.18 4.438 7.502-1.373.422-2.642.844-4.015 1.27-2.853 1.478-4.749 3.032-6.757 5.248-1.338 3.234 6.39 4.02 10.095 4.564-.336 1.161-.809 2.622-.136 3.897 5.827.561 12.56-1.161 12.56-1.478 0-.32 1.46-1.14 1.46-1.14.785 1.571 2.51 2.035 3.276 1.812 1.101 0 2.811-4.387 2.027-7.748 2.113 2.533 4.101 6.57 6.214 9.107.64.671 1.467.177 1.995-.274 1.797 2.854 4.276 5.708 6.073 8.557.95 1.09.746.689 2.032.769 1.175-.38 2.176-.536 2.79-2.816 0 0 .39.354.945 1.61 1.418 1.01 2.42-1.416 3.204-2.202.449-1.08 2.198.212 2.198-.421.634.422 1.05 2.28 1.684 2.702.97-.36 1.934-2.491 2.007-4.754.964 1.984 1.262 1.82 2.002 2.351.634-.532.833-2.6 1.467-3.128-.137-1.094 7.613 7.473 7.93 7.473.765.557 5.145 1.9 6.042.333 2.187 1.461 8.071 2.365 9.026.017 4.844 2.069 10.545-.249 10.304-2.563 4.417 1.765 11.305.587 11.305.27.784-.092 2.914-2.161.896-3.727-14.687-10.251-36.546-27.223-44.957-31.31 0-3.025-2.289-13.94-4.754-16.946-.449-1.55.56-3.466 2.018-3.354 5.715 5.344 7.793 4.835 10.818 5.697 3.275 2.583 4.45 6.528 7.726 10.12 1.544.494 3.368 2.057 2.894.533-2.044-5.13-4.515-10.096-10.635-16.766 3.17 1.585 8.362 5.783 11.868 8.825 2.337 3.851 2.994 6.92 5.107 11.779 1.531.971 3.096 4.553 2.872 1.585-.336-5.584-4.252-14.45-4.252-15.084 6.225 4.966 6.16 12.663 8.036 17.372 1.626 2.39 2.444 5.564 3.116 4.821.785-1.085-1.848-14.528-1.848-14.528-.422-1.69-.634-3.605-1.056-5.296 4.633 2.667 6.253 12.843 8.42 25.034.007 1.942.798 4.07.692 5.337.994 1.228 2.14 4.619 2.088 2.596 0 0 .003-19.833-1.342-24.389-.336-2.427.596-6.397.596-6.397 1.69 8.241 3.493 17.154 5.183 25.395v6.024c.846.845 1.69 1.69 2.536 2.538l1.585-14.9s-1.902-17.434-1.902-17.75v-5.072c-.038-1.787 1.604-1.444 2.687.58.211 4.332.198 7.767.41 12.1.74 4.963 1.254 8.586 1.658 14.898.198 5.172.397 17.403 1.492 17.192z" stroke-opacity=".772" fill-rule="evenodd" stroke="#000" stroke-width="1.056" fill="#9c4314"/><path id="path793" stroke-linejoin="round" d="M264 306.55c-.238-.559-.41-3.145-.958-3.14l-1.542 2.34" stroke="#000" stroke-linecap="round" stroke-width="1.056" fill="none"/><path id="path794" stroke-linejoin="round" d="M310.35 292.43l-.315 2.616" stroke="#000" stroke-linecap="round" stroke-width="1.056" fill="none"/><path id="path795" stroke-linejoin="round" d="M287.3 311.73c-.603.074-3.135-.48-3.282.048l1.819 2.131" stroke="#000" stroke-linecap="round" stroke-width="1.056" fill="none"/><path id="path823" d="M248.54 253.1v.274-.274.274-.274 4.784c.14.678.137 1.434.137 2.187.085.58.288 1.275.547 1.914.037.81.263 1.343.546 2.05.059.7.297 1.297.547 1.914.06.702.286 1.07.41 1.64.198.657.438 1.085.683 1.504.179.178.247.355.41.41" stroke="#000" stroke-width=".563" fill="none"/><path id="path825" d="M237.87 269.91c0-.222-.035-.893.274-1.367.483-.688.872-1.114 1.503-1.777.746-.475 1.28-1.038 1.914-1.64.68-.435 1.022-.818 1.64-1.23.38-.387.817-.579 1.23-.82.47-.232.813-.573 1.504-.684.417-.208 1.281-.137 1.913-.137.653 0 .88-.125 1.504-.136" stroke="#000" stroke-width=".563" fill="none"/><path id="path829" d="M337.24 222.43c2.113 1.532 4.438 4.861 5.389 10.883" stroke-opacity=".772" stroke="#000" stroke-linecap="round" stroke-width="1.056" fill="none"/><path id="path830" d="M325.36 224.48c3.064 2.747 4.793 5.735 7.08 12.468" stroke-opacity=".772" stroke="#000" stroke-linecap="round" stroke-width="1.056" fill="none"/><path id="path831" d="M317.96 227.76c1.867 2.13 2.994 4.367 4.015 7.026" stroke-opacity=".772" fill-rule="evenodd" stroke="#000" stroke-linecap="round" stroke-width="1.056" fill="#00c600"/><path id="path832" d="M305.28 220.79c2.43 2.8 6.34 7.08 8.347 11.411" stroke-opacity=".772" fill-rule="evenodd" stroke="#000" stroke-linecap="round" stroke-width="1.056" fill="#00c600"/><path id="path833" d="M253.67 149.29c.177 12.179 18.004 9.209 19.505 20.652 3.412 12.488 1.99 20.556-3 24.521-2.835 2.917-.668 7.453.176 9.782 4.633 11.743 11.63 13.633 14.638 23.77" stroke-opacity=".772" stroke="#000" stroke-width="1.056" fill="none"/><path id="path834" d="M247 157.6c0-.234.418-.642.832-.832 1.775-.578 2.866-.612 4.68-.728 1.56 0 3.016.07 4.576.312" stroke-opacity=".772" stroke="#000" stroke-linecap="round" stroke-width="1.056" fill="none"/><path id="path835" d="M270.09 269.4l6.198 10.082" stroke-opacity=".772" stroke="#000" stroke-width="1.056" fill="none"/><path id="path836" d="M289.84 254.4l33.183 25.412" stroke-opacity=".772" stroke="#000" stroke-width="1.056" fill="none"/><path id="path837" d="M288.95 261.37l24.249 21.287" stroke-opacity=".772" stroke="#000" stroke-width="1.056" fill="none"/><path id="path838" d="M243.33 234.96c3.193 6.34 12.218 14.762 17.633 16.105.185-4.072-.046-5.646-.694-8.469" stroke-opacity=".772" stroke="#000" stroke-width="1.056" fill="none"/><path id="path839" d="M253.6 231.35c3.193 6.34 6.11 13.097 14.579 16.939.88-6.155-1.018-14.532-5.692-23.048" stroke-opacity=".772" stroke="#000" stroke-width="1.056" fill="none"/><path id="path840" d="M255.1 222.85c2.916 1.759 5.553 2.545 7.498 2.777.879-6.156 1.65-12.67-3.373-21.482" stroke-opacity=".772" stroke="#000" stroke-width="1.056" fill="none"/><path id="path841" d="M243.88 226.49c4.304 4.675 7.775 4.905 9.72 5.137 1.434-4.212 2.036-13.144.277-22.77" stroke-opacity=".772" stroke="#000" stroke-width="1.056" fill="none"/><path id="path842" d="M232.73 230.24c4.285 5.546 14.165 16.073 19.481 19.899.185-.882.46-1.293.389-4.115" stroke-opacity=".772" stroke="#000" stroke-width="1.056" fill="none"/><path id="path843" d="M305.92 169.33c4.59 5.293 22.306 23.103 25.813 31.439 6.054 13.625 17.217 16.216 19.999 14.69" stroke-opacity=".772" stroke="#000" stroke-width="1.056" fill="none"/><path id="path844" d="M275.57 242.96c1.594 6.519 4.49 18.378 8.66 20.253.719-.7 1.326-1.997 1.255-4.821" stroke-opacity=".772" stroke="#000" stroke-width="1.056" fill="none"/><path id="path845" d="M251.49 206.01c1.873 1.907 2.298 3.644 4.242 3.876 2.368-1.937 6.539-12.734 5.04-20.704" stroke-opacity=".772" stroke="#000" stroke-width="1.056" fill="none"/><path id="path846" d="M241.67 205.71c.88 4.29 1.702 7.912 4.738 7.946 5.048-4.22 6.539-13.666 5.04-21.635" stroke-opacity=".772" stroke="#000" stroke-width="1.056" fill="none"/><path id="path847" d="M239.71 228.41l-2.273-4.995" stroke-opacity=".772" stroke="#000" stroke-width="1.056" fill="none"/><path id="path848" d="M288.76 268.83l15.217 13.823" stroke-opacity=".772" stroke="#000" stroke-width="1.056" fill="none"/><path id="path849" d="M281.51 263.27l4.696 13.219" stroke-opacity=".772" stroke="#000" stroke-width="1.056" fill="none"/><path id="path850" d="M260.82 251.17c3.193 6.341 9.997 15.494 15.412 16.837.185-.878.082-1.642.011-4.463" stroke-opacity=".772" stroke="#000" stroke-width="1.056" fill="none"/><path id="path851" d="M252.58 249.9c3.193 6.337 12.577 16.668 17.992 19.695.185-.878.975-1.047.904-3.867" stroke-opacity=".772" stroke="#000" stroke-width="1.056" fill="none"/><path id="path852" d="M275.95 267.74l6.78 11.243" stroke-opacity=".772" stroke="#000" stroke-width="1.056" fill="none"/><path id="path853" d="M267.84 239.52c2.916 1.759 5.976 3.233 7.92 3.465.298-6.855-2.092-17.91-6.998-26.374" stroke-opacity=".772" stroke="#000" stroke-width="1.056" fill="none"/><path id="path854" d="M234.1 203.58c-.866 3.242-.746 6.785 2.29 6.818 8.425-3.637 3.395-7.26 10.63-19.539" stroke-opacity=".772" stroke="#000" stroke-width="1.056" fill="none"/><path id="path855" d="M245.22 181.28c3.193 6.34 4.13 10.651 9.105 12.28.996-.45 3.474-11.656-4.927-20.754" stroke-opacity=".772" stroke="#000" stroke-width="1.056" fill="none"/><path id="path856" d="M255.45 186.56c1.64 1.907 4.045 2.363 5.989 2.246 1.902-3.8-2.165-14.565-7.52-20.132" stroke-opacity=".772" stroke="#000" stroke-width="1.056" fill="none"/><path id="path857" d="M302.51 177.78c4.009 5.642 21.597 25.336 29.135 31.622 1.694-.216 4.2 1.888 1.855-5.23" stroke-opacity=".772" stroke="#000" stroke-width="1.056" fill="none"/><path id="path858" d="M300.53 190.24c4.009 5.642 11.349 15.193 18.887 21.48 1.895.707 3.728.48 4.33-.013.647-.622.059-5.094.225-9.642" stroke-opacity=".772" stroke="#000" stroke-width="1.056" fill="none"/><path id="path859" d="M295.76 197.35c4.59 5.06 10.651 10.884 18.072 17.637 1.895.707 3.533.735 3.749-.013.18-.739.524-.552.108-5.101" stroke-opacity=".772" stroke="#000" stroke-width="1.056" fill="none"/><path id="path860" d="M289.35 206.43c4.59 5.06 8.787 8.788 12.949 9.718 2.011.241 3.067.27 3.283-.478.18-.74.058-4.28-.008-8.362" stroke-opacity=".772" stroke="#000" stroke-width="1.056" fill="none"/><path id="path861" d="M282.83 213.18c4.59 5.06 4.595 7.158 8.756 8.087 2.011.242 3.501-.023 3.865-.71.647-1.439.873-2.999.807-7.082" stroke-opacity=".772" stroke="#000" stroke-width="1.056" fill="none"/><path id="path862" d="M280.97 180.11c4.624.841 5.007-3.156 4.632-6.017-.455-3.585-2.99-5.154-5.994-4.4" stroke-opacity=".772" stroke="#000" stroke-linecap="round" stroke-width="1.056" fill="none"/><path id="path863" d="M278.4 195.95c2.179.841 4.917.788 5.913-1.708.805-1.898.503-6.552-2.5-5.799" stroke-opacity=".772" stroke="#000" stroke-linecap="round" stroke-width="1.056" fill="none"/><path id="path864" d="M281.67 188.38c4.159.26 4.547-1.64 4.4-4.037-.165-2.795-2.06-4.922-5.063-4.168" stroke-opacity=".772" stroke="#000" stroke-linecap="round" stroke-width="1.056" fill="none"/><path id="path869" d="M285.71 177.52c6.072-3.655 23.566 11.003 10.261 15.67" stroke-opacity=".772" stroke="#000" stroke-width="1.056" fill="none"/><path id="path870" d="M284.42 187.9c6.072-3.655 19.446 8.303 5.886 12.961" stroke-opacity=".772" stroke="#000" stroke-width="1.056" fill="none"/><path id="path871" d="M282.15 196.15c6.78.236 14.582 11.118 1.289 12.448" stroke-opacity=".772" stroke="#000" stroke-width="1.056" fill="none"/><path id="path872" d="M274.16 201.96c2.179.841 3.438 1.387 5.383-.293.767-.704 1.78-3.933-1.085-5.725" stroke-opacity=".772" stroke="#000" stroke-linecap="round" stroke-width="1.056" fill="none"/><path id="path873" d="M217.39 188.81c2.293-2.96 7.898-4.846 9.816-.928" stroke-opacity=".772" stroke="#000" stroke-width="1.056" fill="none"/><path id="path874" d="M278.25 202.49c3.95 1.297 10.234 12.285-.32 13.406" stroke-opacity=".772" stroke="#000" stroke-width="1.056" fill="none"/><path id="path875" d="M273.21 152.79c4.555.861 6.855 8.22 10.485 8.788 6.639.99-.857-7.683-2.295-8.659" stroke-opacity=".772" stroke="#000" stroke-linecap="round" stroke-width="1.056" fill="none"/><path id="path876" d="M206.05 184.25c2.043.083 3.96-.292 5.253-2.71" stroke-opacity=".772" stroke="#000" stroke-width="1.056" fill="none"/><path id="path883" d="M226.3 205.34c1.135 2.116 4.052 1.27 6.462-.197 3.298-1.886.519-8.511 8.38-14.161" stroke-opacity=".772" stroke="#000" stroke-width="1.056" fill="none"/><path id="path884" d="M230.48 233.24c4.285 5.546 12.414 13.821 17.48 18.269.185-.878 1.007-1.326.936-4.15" stroke-opacity=".772" stroke="#000" stroke-width="1.056" fill="none"/><path id="path885" d="M247.8 251.14l9.745 13.54" stroke-opacity=".772" stroke="#000" stroke-width="1.056" fill="none"/><path id="path886" d="M268.12 247.87c1.594 6.517 7.933 16.839 12.104 18.714.718-.705 1.2-3.5 1.13-6.324" stroke-opacity=".772" stroke="#000" stroke-width="1.056" fill="none"/><path id="path887" d="M265.85 266.54l-.595 6.042" stroke-opacity=".772" stroke="#000" stroke-width="1.056" fill="none"/><path id="path888" d="M280.44 236.33c1.594 6.518 3.989 22.381 7.66 25.256.718-.7 2.2-13.879 2.13-16.702" stroke-opacity=".772" stroke="#000" stroke-width="1.056" fill="none"/><path id="path889" d="M275.52 235.88c2.165.258 3.427.251 5.122.233.297-6.855-2.672-14.911-7.578-23.375" stroke-opacity=".772" stroke="#000" stroke-width="1.056" fill="none"/><path id="path890" d="M287.59 218.95l-.338 6.93" stroke-opacity=".772" fill-rule="evenodd" stroke="#000" stroke-linecap="round" stroke-width="1.056" fill="#00c600"/><path id="path891" d="M263.12 215.99c2.29.884 3.928 1.17 5.747 1.026 1.88-9.282-2.853-9.292-8.75-15.854" stroke-opacity=".772" stroke="#000" stroke-width="1.056" fill="none"/><path id="path892" d="M289.47 154.29c4.555.861 1.667 7.674 7.859 9.789 5.198 1.733 2.27-5.432.832-6.408" stroke-opacity=".772" stroke="#000" stroke-linecap="round" stroke-width="1.056" fill="none"/><path id="path893" d="M282.7 169.59c3.286-2.39 15.035.919 19.011 4.258 1.139 1.062 2.877 5.3-2.524 9.198" stroke-opacity=".772" stroke="#000" stroke-width="1.056" fill="none"/><path id="path902" d="M220.45 175.2c9.432-9.204 13.806-8.156 24.604-1.367 1.55.364 3.235.046 4.237-.547.547-1.321.026-2.668-.683-3.69-4.83-3.463-8.429-4.466-12.986-3.828" stroke-opacity=".772" stroke="#000" stroke-width="1.056" fill="none"/><path id="path903" d="M234.03 209.36c-2.12 3.126-3.855 9.924-.273 17.496.142.871 1.057 1.743.136 2.324-1.764.889-2.562 2.358-3.554 3.827" stroke-opacity=".772" stroke="#000" stroke-width="1.056" fill="none"/><path id="path904" d="M288.99 257.7c.065-11.469-1.611-20.618-6.186-28.899" stroke-opacity=".772" stroke="#000" stroke-width="1.056" fill="none"/><path id="path905" d="M269.18 213.04c1.514-.16 3.415.258 4.35-.193.45-1.675-.838-3.738-1.354-5.316.87-.097 1.934-.097 2.61-.29.387-1.45 0-3.48 0-5.22" stroke-opacity=".772" stroke="#000" stroke-width="1.056" fill="none"/><path id="path906" d="M212.53 180.4c.364-2.552 2.643-5.377 5.194-6.834 1.23-.684 2.05.136 2.598.41.683 1.093.273 3.143 0 3.964-.684 1.367-2.05 2.46-4.511 3.417-1.276-.547-2.005-.41-3.281-.957z" stroke-opacity=".772" fill-rule="evenodd" stroke="#000" stroke-width="1.056" fill="#fff"/><path id="path907" d="M234.4 229.06c.547.273 6.014 6.288 6.014 6.288h3.28l.274-9.159" stroke-opacity=".772" stroke="#000" stroke-width="1.056" fill="none"/><path id="path908" stroke-linejoin="round" d="M243.28 211.43c-1.093 3.6-.684 7.2 0 10.799" stroke-opacity=".772" stroke="#000" stroke-linecap="round" stroke-width="1.056" fill="none"/><path id="path909" d="M236.16 228.41l1.28-4.995" stroke-opacity=".772" stroke="#000" stroke-width="1.056" fill="none"/><path id="path910" d="M238.5 209.51c-1.64 3.007-2.107 7.948-1.254 11.535" stroke-opacity=".772" stroke="#000" stroke-width="1.056" fill="none"/><path id="path911" d="M283.18 229.5l-3.093.062" stroke-opacity=".772" stroke="#000" stroke-width="1.056" fill="none"/><path id="path1170" d="M172.37 217.88c.434 1.34-1.027.62-1.34.997-1.536.542-3.971-1.34-5.509-5.89.75-1.273 5.162-4.012 6.577-3.423 0 0 2.776 1.058 3.108 2.217-.532 1.691-2.93 6.287-2.836 6.099z" fill-rule="evenodd" stroke="#000" stroke-width="1.056" fill="#9f3000"/><path id="path912" d="M283.18 229.5l.051-6.09" stroke-opacity=".772" stroke="#000" stroke-width="1.056" fill="none"/><path id="path913" d="M288.21 261.49l.868 14.857" stroke-opacity=".772" stroke="#000" stroke-width="1.056" fill="none"/><path id="path1153" d="M172.27 218.4c2.997 2.818 7.706.928 8.456 7.814.32 3.853-5.138 11.56 0 18.517 1.82 2.676 6.53 5.566 6.53 5.566 2.461 2.747 3.21 7.635 4.816 11.453 3.389 5.067 8.063 6.172 11.774 4.924 0 0 12.202-5.459 12.202-5.566 0-.107-6.208-8.349-6.208-8.242 0 .107-6.958 5.887-7.065 5.887-.75-.107-4.816.321-6.315-4.816-.107-6.565-3.353-10.2-8.563-12.844-2.64-1.999-4.745-5.174-2.462-9.634 1.32-4.067 2.64-10.918-2.033-15.52-2.997-1.998-5.138-3.567-8.35-4.174-4.245 1.605-4.21 1.177-2.782 6.636z" fill-rule="evenodd" stroke="#000" stroke-width="1.056" fill="#238700"/><path id="path914" d="M232.61 161.1c-1.64 3.007-1.49 4.81-1.218 7.817" stroke-opacity=".772" stroke="#000" stroke-width="1.056" fill="none"/><path id="path915" d="M224.28 175.89h3.827c1.018-.027 1.453-.413 2.188-.957.493-.278 1.016-.698 1.503-1.093.405-.29.892-.63 1.367-.82.775 0 1.381.057 2.05.273.619.26 1.127.63 1.64.957.512.205.975.273 1.777.273.834 0 1.71-.038 2.46.137.724.048 1.532.207 2.051.41.662.417 1.06.915 1.504 1.367.026.726.264 1.17.273 1.913 0 .636.072 1.497-.136 1.914 0 .787-.126 1.346-.274 1.914-.502.472-.684.837-1.367.957-.537.422-1.341.41-2.187.41h-2.187c-.475-.396-1.05-.808-1.64-1.367-.318-.735-.527-.974-1.23-1.23a13.6 13.6 0 0 0-2.05-.137c-.669 0-1.225.046-1.641-.273-.378-.36-.921-.549-1.504-.684-.62-.175-1.35-.136-2.05-.136h-1.094" stroke-opacity=".772" stroke="#000" stroke-width="1.056" fill="none"/><path id="path916" d="M227.83 177.12l.137.137c-.31-.31-.197-.161.547.137.905.209 1.878.38 2.87.41.94 0 1.796.115 2.734.136.654 0 1.342.054 1.914-.136" stroke-opacity=".772" stroke="#000" stroke-width="1.056" fill="none"/><path id="path917" d="M236.58 174.93h-.137c.429 0 .165-.035-.41.684-.055.78-.223 1.21.137 1.913.445.149 1.2.48 1.503.82.44.315.41.597.41 1.367-.263.427-.499.771-.82 1.367a20.31 20.31 0 0 0-.546 1.504c-.156.624-.265 1.218-.274 1.913v1.367" stroke-opacity=".772" stroke="#000" stroke-width="1.056" fill="none"/><path id="path918" d="M286.07 159.01c.152.292 2.772 5.524 6.028 2.205.483-.565.651-.976.651-1.94 0-.504-.068-1.09-.193-1.504" stroke-opacity=".772" stroke="#000" stroke-width="1.056" fill="none"/><path id="path1183" d="M207.18 264.25c1.577 2.197 4.442 1.066 5.016-.693-1.961.128-2.711-1.031-3.404-2.807-.419 1.018-2.054 2.239-1.612 3.5z" fill-rule="evenodd" stroke="#000" stroke-width=".573" fill="#fff"/><path id="path919" d="M299.9 163.9c0 .101 2.776 2.655 6.977 2.655 1.013 0 5.829-1.217 7.363-3.356" stroke-opacity=".772" stroke="#000" stroke-width="1.056" fill="none"/><path id="path920" d="M305.71 166.36c.062.41.193 1.906.193 2.9-.012 1.053.24 1.934-.157 2.812-.432 1.119-.912 1.566-1.97 1.95-.86.39-1.043.017-2.002.053" stroke-opacity=".772" stroke="#000" stroke-width="1.056" fill="none"/><path id="path921" d="M282.6 161.07c0 .065 2.962 7.1 3.936 7.814" stroke-opacity=".772" stroke="#000" stroke-width="1.056" fill="none"/><path id="path1184" d="M209.11 262.97c1.576 2.197 4.442 1.066 5.016-.693-1.961.128-2.711-1.031-3.404-2.807-.419 1.018-2.054 2.239-1.612 3.5z" fill-rule="evenodd" stroke="#000" stroke-width=".573" fill="#fff"/><path id="path1185" d="M212.1 261.69c1.576 2.197 4.442 1.066 5.016-.693-1.962.128-2.711-1.031-3.404-2.807-.419 1.018-2.054 2.239-1.612 3.5z" fill-rule="evenodd" stroke="#000" stroke-width=".573" fill="#fff"/><path id="path922" d="M265.7 157.47h.966c3.072-.518 13.391 1.386 15.184 3.285" stroke-opacity=".772" stroke="#000" stroke-width="1.056" fill="none"/><path id="path923" d="M267.63 207.34c-.065-.065.144 1.183.08 1.118.38.382-.058-1.03-.273-1.891-.322-.77-.387-1.276-.387-2.32v-.773" stroke-opacity=".772" stroke="#000" stroke-width="1.056" fill="none"/><path id="path924" d="M248.34 252.84v.274-.274.274-1.118 5.627c.14.68.137 1.436.137 2.187.085.583.288 1.275.547 1.917.037.81.263 1.343.546 2.048.059.7.297 1.3.547 1.916.06.701.286 1.068.41 1.638.198.659.438 1.085.683 1.503.179.182.352 1.098.516 1.149" stroke-opacity=".772" stroke="#000" stroke-width="1.056" fill="none"/><path id="path925" d="M240 244.78v3.691c.178.906.21 1.865.41 2.734.074.781.263 1.448.41 2.187.065.73.94 3.323 1.23 3.965.324.603.802 1.232 1.094 1.638.546.169.992.363 1.64.41h1.914c.768-.149 1.031-.229 1.367-.82.184-.367.173-.625.41-.819" stroke-opacity=".772" stroke="#000" stroke-width="1.056" fill="none"/><path id="path926" d="M237.68 269.66c0-.224-.035-.895.274-1.368.483-.688.872-1.114 1.503-1.777.746-.477 2.604-3.032 8.201-4.51.653 0 .88-.126 1.504-.139" stroke-opacity=".772" stroke="#000" stroke-width="1.056" fill="none"/><path id="path927" d="M238.34 257.26c.046.046 3.06 1.621 4.622 1.689" stroke-opacity=".772" stroke="#000" stroke-width="1.056" fill="none"/><path id="path1104" d="M246.95 262.55h-.15.15c-.05 0-.1 0 0 0z" stroke="#000" stroke-width=".563" fill="none"/><path id="path1106" d="M245.6 262.4c-.448-.298-14.94-4.482-14.642-4.482.299 0-5.304 3.81-5.304 3.81l13.82 4.706 5.528-4.034h.597z" fill-rule="evenodd" stroke="#000" stroke-width="1.056" fill="#ffbc00"/><path id="path1107" d="M231.76 257.8c.916-2.324.67-5.388-2.324-7.29-6.832-4.19-18.312-3.838-20.495 1.057-2.36-.317-3.557 1.585-3.91 3.486-6.091 1.655-.456 8.694 1.057 8.979 2.047.7 2.606.186 2.958-.483 1.14.28 2.702-.939 3.095-1.778 1.447.267 2.546.24 2.574-1.211 4.146 3.885 9.86 6.576 10.495 1.571l6.55-4.33z" fill-rule="evenodd" stroke="#000" stroke-width="1.056" fill="#f7b200"/><path id="path1109" d="M205.04 254.95c-.388 2.712 1.434 5.635 4.322 8.452" stroke="#000" stroke-width="1.056" fill="none"/><path id="path1110" d="M208.83 251.57c-.388 2.712.387 7.325 3.275 10.142" stroke="#000" stroke-width="1.056" fill="none"/><path id="path1111" d="M213.12 248.66c-2.652 2.227-1.207 9.118 1.681 11.935" stroke="#000" stroke-width="1.056" fill="none"/><path id="path1108" stroke-linejoin="round" d="M220.21 192.33c6.12 8.104-2.437 17.058-9.915 22.217-8.815 6.933-13.575 20.447 1.971 21.277 5.613-.103 11.71-.6 15.14 3.796 3.43 4.395 3.556 12.516-5.084 17.72-.847-.747-2.105-2.975-3.043-3.655-.937-.68-1.554.192-2.4-.555-.3-2.79 4.258-6.94-.052-7.943-5.578.946-25.104 1.028-24.855-17.598.429-4.151 2.648-8.81 6.209-13.551 3.56-4.74 13.323-10.619 14.26-13.193 1.503-2.222-1.246-6.548-3.437-7.146-1.793-4.78 6.125-9.886 11.205-1.37z" fill-rule="evenodd" stroke="#000100" stroke-width="1.056" fill="#288800"/><path id="path1117" d="M206.61 206.67l.211 10.881" stroke="#000" stroke-width="1.056" fill="none"/><path id="path1118" d="M200.91 211l11.621 1.69" stroke="#000" stroke-width="1.056" fill="none"/><path id="path1119" d="M209.47 204.24l9.825 2.007" stroke="#000" stroke-width="1.056" fill="none"/><path id="path1120" d="M199.12 212.9l8.182 4.846" stroke-opacity=".642" stroke="#000" stroke-width="1.056" fill="none"/><path id="path1121" d="M193.29 223.13l6.389 6.787" stroke-opacity=".642" stroke="#000" stroke-width="1.056" fill="none"/><path id="path1122" d="M199.2 213.35l1.085 16.05" stroke-opacity=".642" stroke="#000" stroke-width="1.056" fill="none"/><path id="path1123" d="M194.79 220.07l10.497.214" stroke-opacity=".642" stroke="#000" stroke-width="1.056" fill="none"/><path id="path1125" d="M183.81 247.19c1.625-1.54 3.322-3.75 4.372-5.912" stroke="#000" stroke-width="1.056" fill="none"/><path id="path1126" d="M187.09 249.95c2.196-1.359 5.014-2.43 7.808-2.999" stroke="#000" stroke-width="1.056" fill="none"/><path id="path1127" d="M191.13 259.29c1.904-1.587 3.951-3.269 5.352-5.478" stroke="#000" stroke-width="1.056" fill="none"/><path id="path1128" d="M191.2 259.65a64.457 64.457 0 0 0 10.049-1.034" stroke="#000" stroke-width="1.056" fill="none"/><path id="path1129" d="M197.18 266.24c2.492-.938 4.768-2.38 6.613-3.82" stroke="#000" stroke-width="1.056" fill="none"/><path id="path1130" d="M179.85 243.82c1.931-1.56 3.863-3.334 5.436-5.181" stroke="#000" stroke-width="1.056" fill="none"/><path id="path1131" d="M178.43 238.82c2.1-.564 4.152-1.63 5.94-2.625" stroke="#000" stroke-width="1.056" fill="none"/><path id="path1132" d="M179.16 233.61c1.698-.659 3.684-.933 5.527-1.041" stroke="#000" stroke-width="1.056" fill="none"/><path id="path1133" d="M180.74 228.81c2.055-.202 3.44-.077 5.494.566" stroke="#000" stroke-width="1.056" fill="none"/><path id="path1134" d="M181.09 225.76c1.7-.912 3.611-1.507 5.523-1.257" stroke="#000" stroke-width="1.056" fill="none"/><path id="path1135" d="M180.24 223.5l5.92-4.043" stroke="#000" stroke-width="1.056" fill="none"/><path id="path1136" d="M179.2 221.83l5.042-4.998" stroke="#000" stroke-width="1.056" fill="none"/><path id="path1137" d="M177.77 221.14l3.695-6.31" stroke="#000" stroke-width="1.056" fill="none"/><path id="path1140" d="M192.5 183.84l-.046 8.993" stroke="#000" stroke-width="1.056" fill="none"/><path id="path1141" d="M201.6 185.27c-1.326 2.59-3.182 5.655-5.568 7.943" stroke="#000" stroke-width="1.056" fill="none"/><path id="path1142" d="M194.89 183.54c-2.641-.211-5.137 1.22-7.144 2.91" stroke="#000" stroke-width="1.056" fill="none"/><path id="path1145" stroke-linejoin="round" d="M208.97 190.4c4.39 1.615 10.218 3.835 9.612 16.727 3.633-3.936 5.298-9.46.681-16.424-3.103-3.356-7.644-4.062-10.293-.303z" fill-rule="evenodd" fill-opacity=".994" stroke="#000" stroke-linecap="round" stroke-width=".563" fill="#9d4600"/><path id="path1146" d="M210.95 194.7c.176-2.498 3.67-5.588 5.512-6.269" stroke="#000" stroke-width="1.056" fill="none"/><path id="path1147" d="M212.29 196.96c.92-3.192 4.9-5.727 6.742-6.408" stroke="#000" stroke-width="1.056" fill="none"/><path id="path1148" d="M212.38 201.48c1.7.026 8.133-3.541 9.605-5.666" stroke="#000" stroke-width="1.056" fill="none"/><path id="path1149" d="M212.9 199.1c2.068-1.438 5.954-4.693 7.795-5.374" stroke="#000" stroke-width="1.056" fill="none"/><path id="path1150" d="M218.58 201.71c1.549-.882 2.078-.665 3.701-2.336" stroke="#000" stroke-width="1.056" fill="none"/><path id="path1151" d="M208.97 190.47c4.415 1.438 9.813 4.693 9.46 16.651" stroke="#000" stroke-width="1.056" fill="none"/><path id="path1154" d="M194.27 236.68l6.008-7.284" stroke-opacity=".642" stroke="#000" stroke-width="1.056" fill="none"/><path id="path1155" d="M195.02 238.18l5.366-.005" stroke-opacity=".642" stroke="#000" stroke-width="1.056" fill="none"/><path id="path1156" d="M192.02 230.9l7.507 4.276" stroke-opacity=".642" stroke="#000" stroke-width="1.056" fill="none"/><path id="path1157" d="M202.13 230.17c-1.437-.133-2.262-.407-3.51-.87.588 9.675 1.552 10.172 3.082 13.82 4.574 2.9 12.49 2.224 15.84 1.5.361.506 2.342 2.964 1.124 3.678-1.313.824-1.847 2.42-1.894 5 .776.874 1.584.116 2.373.678.79.562 1.719 2.55 2.45 4.262 0 0 9.728-6.686 8.15-12.976-1.036-5.909-5.03-7.92-5.03-7.92-5.649-2.825-13.588-.952-16.485-2.034-3.603-.8-5.87-3.915-6.1-5.138z" fill-rule="evenodd" stroke="#000" stroke-width=".563" fill="#9d4600"/><path id="path1158" d="M218.16 247.24c4.872-2.224 10.024-2.406 11.423-2.201" stroke="#000" stroke-width="1.056" fill="none"/><path id="path1159" d="M199.1 234.32c1.058-.62 2.614-1.94 4.407-1.913" stroke="#000" stroke-width="1.056" fill="none"/><path id="path1160" d="M208.06 244.98c.865-5.125 3.062-8.586 4.194-9.452" stroke="#000" stroke-width="1.056" fill="none"/><path id="path1161" d="M210.99 245.38c.865-5.125 3.261-8.786 4.393-9.652" stroke="#000" stroke-width="1.056" fill="none"/><path id="path1162" d="M214.25 245.04c.865-5.125 3.062-8.453 4.194-9.319" stroke="#000" stroke-width="1.056" fill="none"/><path id="path1163" d="M216.72 244.64c.865-5.125 3.728-7.654 4.859-8.52" stroke="#000" stroke-width="1.056" fill="none"/><path id="path1164" d="M218.35 246.1c.865-5.125 5.219-7.973 6.35-8.838" stroke="#000" stroke-width="1.056" fill="none"/><path id="path1165" d="M218.49 246.89c2.967-4.268 7.844-6.34 9.236-6.641" stroke="#000" stroke-width="1.056" fill="none"/><path id="path1167" d="M205 244.31c.865-5.125 3.128-7.92 4.26-8.786" stroke="#000" stroke-width="1.056" fill="none"/><path id="path1168" d="M202.07 243.38c.865-5.125 3.528-7.721 4.66-8.586" stroke="#000" stroke-width="1.056" fill="none"/><path id="path1113" d="M217.28 253.91c2.3-1.81 3.863 4.034 3.977 4.743.114.708.544 1.43 1.69 2.091" stroke="#000" stroke-width="1.056" fill="none"/><path id="path1169" d="M200.28 239.85c.932-2.596 2.996-5.458 4.127-6.323" stroke="#000" stroke-width="1.056" fill="none"/><path id="path1112" d="M212.89 248.89c-2.985 4.742.46 8.928 4.325 7.249-.443-3.277-1.282-5.358 1.707-8.51-2.12.125-4.022-.625-6.032 1.261z" fill-rule="evenodd" stroke="#000" stroke-width="1.122" fill="#fff"/><path id="path1171" d="M201.63 214.03l1.412 6.966" stroke="#000" stroke-width="1.056" fill="none"/><path id="path1172" d="M203.04 220.43l-2.542 8.566" stroke="#000" stroke-width="1.056" fill="none"/><path id="path1173" d="M218.05 247.69c5.257-1.025 10.309 0 11.621.526" stroke="#000" stroke-width="1.056" fill="none"/><path id="path1174" d="M217.43 248.53c5.388-.078 10.088 2.123 11.246 2.988" stroke="#000" stroke-width="1.135" fill="none"/><path id="path1175" d="M217.49 249.53c5.184 1.18 7.507 3.808 8.414 4.918" stroke="#000" stroke-width="1.127" fill="none"/><path id="path1176" d="M217.13 250.72c4.65 2.575 5.697 4.688 6.259 6.007" stroke="#000" stroke-width="1.127" fill="none"/><path id="rect1177" fill-rule="evenodd" transform="rotate(-13.197)" stroke-width="1pt" fill="#296526" d="M73.552 300.37h2.565v11.864h-2.565z"/><path id="path1179" d="M160.95 314.67l5.244 5.972 1.958-1.657-4.923-6.186-2.279 1.871z" fill-rule="evenodd" stroke-width="1pt" fill="#296526"/><path id="path1180" d="M321.02 340.19l-6.497 4.577 1.439 2.124 6.675-4.235-1.617-2.466z" fill-rule="evenodd" stroke-width="1pt" fill="#296526"/><path id="path1181" d="M355.29 311.61l-5.795 5.438 1.72 1.903 6.02-5.125-1.945-2.216z" fill-rule="evenodd" stroke-width="1pt" fill="#296526"/><path id="path1182" d="M373.67 273.25l-2.108 5.204 1.152 1.492 2.268-4.951-1.312-1.745z" fill-rule="evenodd" stroke-width="1pt" fill="#296526"/><path id="path1186" d="M202 243.66c-2.815-4.632-3.171-9.477-3.313-14.216 1.496.713 2.672 1.104 3.527.855" stroke="#000" stroke-width="1.056" fill="none"/><path id="path1187" d="M192.2 183.57c-2.318-5.795.358-8.934 3.248-11.685" stroke="#000" stroke-width="1.056" fill="none"/><path id="path1188" d="M209.1 154.93c0 1.68-2.004 3.043-4.476 3.043-2.471 0-4.475-1.362-4.475-3.043 0-1.68 2.004-3.043 4.475-3.043 2.472 0 4.476 1.362 4.476 3.043z" fill-rule="evenodd" transform="matrix(.3454 -.30875 .29017 .36751 78.794 177.89)"/><path id="path1189" d="M180.97 214.38c-.485 0-8.88-1.13-8.88-1.13" stroke="#000" stroke-width="1.372" fill="none"/><path id="path1190" d="M177.42 220.52c0-.323-5.49-7.104-5.49-7.104" stroke="#000" stroke-width="1.372" fill="none"/></g></g></svg>