<svg id="svg912" xmlns="http://www.w3.org/2000/svg" height="480" width="640"><defs id="defs914"><clipPath id="clipPath4584"><path id="rect4586" fill-opacity=".67" d="M0 0h682.67v512H0z"/></clipPath></defs><g id="flag" clip-path="url(#clipPath4584)" transform="scale(.9375)"><path id="rect937" fill-rule="evenodd" stroke-width="1pt" fill="#009a00" d="M0 0h768v160H0z"/><path id="rect935" fill-rule="evenodd" stroke-width="1pt" fill="#fff" d="M0 159.96h768v16.018H0z"/><path id="rect934" fill-rule="evenodd" stroke-width="1pt" d="M0 175.98h768v160H0z"/><path id="rect933" fill-rule="evenodd" stroke-width="1pt" fill="#fff" d="M0 335.98h768v16.018H0z"/><path id="rect931" fill-rule="evenodd" stroke-width="1pt" fill="#ffca00" d="M0 352h768v160H0z"/><path id="path932" d="M0 0v512l336.02-256L0 0z" fill-rule="evenodd" stroke-width="1pt" fill="red"/><g id="g938" transform="translate(34.811 142.78) scale(.88217)"><path id="polygon916" fill="#ffca00" fill-rule="evenodd" transform="rotate(1.192 -172.532 293.858) scale(.9701)" stroke-width="1pt" d="M189.55 214.57L128.79 172l-58.86 45.07 21.713-70.94-61.055-42.05 74.182-1.27 21.12-71.06 24.13 70.16 74.11-1.88-59.27 44.63z"/><path id="path919" stroke-linejoin="round" d="M77.112 167.91h41.834c3.366 3.776 10.876 5.316 18.029-.045 13.112-7.18 38.479.045 38.479.045l4.995-5.307-12.176-39.961-4.371-4.683s-9.365-5.619-27.161-3.746c-17.795 1.873-24.039-.624-24.039-.624s-15.609 1.873-19.98 4.058c-.48.389-4.995 4.995-4.995 4.995L77.112 167.91z" fill-rule="evenodd" stroke="#000" stroke-linecap="round" stroke-width="1.25" fill="#fff"/><path id="path918" stroke-linejoin="round" d="M85.542 157.61s39.96-4.995 51.512 10.302c-6.524 4.464-12.268 4.832-18.42.313.98-1.633 14.361-15.61 48.39-10.927" stroke="#000" stroke-linecap="round" stroke-width="1.25" fill="none"/><path id="path920" d="M128.31 117.65l-.31 44.02" stroke="#000" stroke-width="1pt" fill="none"/><path id="path921" d="M163.9 118.27l7.493 34.966" stroke="#000" stroke-width="1pt" fill="none"/><path id="path922" stroke-linejoin="round" d="M93.134 117.72l-4.158 18.032" stroke="#000" stroke-linecap="round" stroke-width="1.25" fill="none"/><path id="path917" stroke-linejoin="round" d="M49.942 172.71l9.838 11.535c1.155.689 2.182.645 3.208 0l14.58-17.496 6.124-7.582c.948-1.123 1.25-2.376 1.166-3.499l11.707-10.403c.958.066 1.528.174 2.486.239-1.132-.293-1.962-.844-1.07-2.084l2.623-2.041 2.041 2.624s-2.915 3.791-3.207 3.791H96.23l-6.123 5.541 2.677 2.366 4.03 11.048 4.957-3.5-3.208-11.372 7-7.582-2.626-4.083 1.75-2.333s24.222 15.25 33.554 11.168c.252.091.564-10.876.564-10.876s-25.078-2.624-25.662-7.582c-.583-4.957 5.541-5.54 5.541-5.54l-2.625-3.791.584-2.042 4.374 5.541 9.915-8.457 58.321 66.487c3.184-1.291 3.864-2.07 4.083-5.249-.082-.08-57.155-65.612-57.155-65.612l4.374-4.665c.862-.972 1.165-1.385 1.166-2.917l6.707-5.832c2.017.693 3.303 1.902 4.374 3.499l18.44-15.627c.485.486 1.961.972 2.963.425l30.48-29.264-33.22 23.468-1.17-.875c0-.972 1.205-1.212 0-2.916-1.29-1.549-3.208 1.458-3.499 1.458-.292 0-4.809-1.596-5.799-3.618l-.325 5.368-8.457 7.874-6.415-.292-9.332 9.04-1.166 3.499 1.458 2.917s-4.958 4.374-4.958 4.082c0-.291-1.002-1.29-1.045-1.418l4.253-3.831.583-2.625-1.419-2.216c-.43.313-5.87 6.008-6.163 5.424-.49-.54-15.75-17.786-15.75-17.786l.874-3.208-9.914-10.79c-3.614-1.248-9.331-1.458-10.498 6.415-.908 1.85-8.456.292-8.456.292l-4.083.875-23.037 32.66 12.831 15.455 26.245-33.243.78-9.418 5.506 6.158c1.836.235 3.585.256 5.25-.584l15.548 17.356-2.589 2.526c.875.972 1.477 1.593 2.352 2.565.875-.583 1.71-1.283 2.585-1.867.292.39.778 1.13 1.07 1.518-1.303.71-2.217 1.653-3.52 2.362-2.085-1.359-4.098-3.05-3.945-5.744l-8.748 7.29-.292 1.458-25.953 21.58-2.333.291-.583 6.707 16.913-13.997v-2.042l1.75 1.458 13.122-10.497s.875 1.166.584 1.166c-.292 0-11.665 10.498-11.665 10.498l-.291 1.166-2.042 1.75-1.166-.875-15.747 13.997h-2.333l-8.749 8.75c-2.256.195-4.211.434-6.123 1.748l-15.67 13.835z" fill-rule="evenodd" stroke="#000" stroke-linecap="round" stroke-width="1.25"/></g></g></svg>