<svg id="svg378" xmlns="http://www.w3.org/2000/svg" height="480" width="640" version="1"><defs id="defs380"><clipPath id="clipPath3052"><path id="rect3054" fill-opacity=".67" d="M0 0h640v480H0z"/></clipPath></defs><g id="flag" fill-rule="evenodd" clip-path="url(#clipPath3052)"><path id="rect628" fill="#fff" d="M0 0h640v480H0z"/><g id="g4284" transform="translate(-20.901) scale(.9375)"><path id="path623" d="M-5.838.239l.856 368.58L568.998-.001-5.842.237z" fill="#3662a2"/><path id="path624" d="M733.09 511.53l-1.347-383.25-578.98 383.54 580.33-.283z" fill="#38a100"/><path id="path625" d="M-5.468 396.61L-4.982 512l125.25-.16 611.76-410.14-.69-100.32L607.578.239l-613.05 396.37z" fill="#c70000"/></g><g id="g4279" transform="translate(75.102) scale(.9375)"><path id="polygon715" transform="matrix(.62436 .0238 -.025 .6244 20.58 22.369)" stroke-width="1pt" fill="#ffe700" d="M223.81 249.35l-37.97-20.97-19.94 38.52-22.39-37.15-36.53 23.4-.82-43.37-43.336 1.99 20.975-37.97-38.524-19.94 37.149-22.39-23.393-36.533 43.369-.82-1.99-43.332 37.97 20.974 19.94-38.524 22.39 37.15 36.53-23.394.82 43.371 43.33-1.995-20.97 37.973 38.52 19.94-37.15 22.39 23.4 36.53-43.37.82z"/><path id="path716" d="M239.52 185.41c0 31.289-25.365 56.654-56.654 56.654s-56.654-25.365-56.654-56.654 25.365-56.654 56.654-56.654 56.654 25.365 56.654 56.654z" transform="matrix(.87763 0 0 .87083 -42.442 -41.528)" fill="#3662a2"/><path id="path717" d="M239.52 185.41c0 31.289-25.365 56.654-56.654 56.654s-56.654-25.365-56.654-56.654 25.365-56.654 56.654-56.654 56.654 25.365 56.654 56.654z" transform="translate(-7.608 -7.47) scale(.68714)" fill="#ffe700"/></g></g></svg>