<svg id="svg548" xmlns="http://www.w3.org/2000/svg" height="480" width="640"><defs id="defs550"><clipPath id="clipPath8578"><path id="rect8580" fill-opacity=".67" d="M0-15.957h512v512H0z"/></clipPath></defs><g id="flag"><path id="rect8734" fill="#fff" d="M0 0h640v480H0z"/><g id="g8553" clip-path="url(#clipPath8578)" transform="translate(0 14.96) scale(.9375)"><g id="g8531" fill-rule="evenodd" transform="translate(-.002 -21.45) scale(1.0432)"><path id="path552" d="M6.271 489.83l363.1-.01-237.66-241.01 246.61.29L6.291 11.48l-.019 478.35z" stroke="#000063" stroke-width="13.26" fill="#ce0000"/><path id="polygon555" fill="#fff" transform="matrix(1.2301 0 0 1.1997 -192.06 -266.1)" stroke-width="1pt" d="M296.98 523.24l-21.03 7.14 16.45 15.87-22.16-1.46 9.13 20.96-19.91-9.82.41 22.85-14.64-16.7-8.37 21.28-7.13-21.03-15.87 16.45 1.45-22.16-20.95 9.13 9.82-19.91-22.86.41 16.7-14.64-21.27-8.37 21.03-7.13-16.46-15.87 22.16 1.45-9.12-20.95 19.91 9.82-.41-22.86 14.64 16.7 8.36-21.27 7.14 21.03 15.87-16.46-1.46 22.16 20.96-9.12-9.82 19.91 22.85-.41-16.7 14.64z"/><path id="path563" d="M142.18 184.6l-10.861 8.04 5.353 4.423c13-10.048 22.25-19.231 29.48-34.471 1.695 20.342-16.951 66.004-65.884 66.508-52.371-.044-70.543-48.492-68.522-67.366 9.621 17.455 15.492 25.966 30.594 35.054l4.62-4.241-10.228-8.523L69.9 180.6l-7.085-11.924 13.796 1.005-1.734-13.885 12.094 7.077 3.784-12.926 8.69 10.411 8.14-9.87 4.432 13.411 11.301-7.864-1.449 13.639 13.548-1.59-6.35 12.608 13.114 3.908z" stroke-width="1pt" fill="#fff"/></g></g></g></svg>