<svg id="svg3473" xmlns="http://www.w3.org/2000/svg" height="480" width="640"><defs id="defs3475"><clipPath id="clipPath3566"><path id="rect3568" fill-opacity=".67" d="M-54.667 0h682.67v512h-682.67z"/></clipPath></defs><g id="flag" fill-rule="evenodd" clip-path="url(#clipPath3566)" transform="translate(51.25) scale(.9375)" stroke-width="1pt"><path id="rect3478" fill="#002170" d="M-140 0H884v512H-140z"/><path id="rect3477" fill="#ffb20d" d="M-140 234.11H884v43.783H-140z"/><path id="polygon3483" transform="rotate(-5.372 867.557 3099.662) scale(.88554)" fill="#fff" d="M467.72 433.18l-33.52-40.55-16.72 49.88-8.74-51.88-39.43 34.83 18.37-49.3-51.56 10.46 40.55-33.51-49.88-16.73 51.88-8.74-34.84-39.43 49.3 18.37-10.45-51.56 33.51 40.55 16.73-49.88 8.74 51.88 39.42-34.83-18.36 49.3 51.56-10.46-40.56 33.51 49.88 16.73-51.88 8.74 34.84 39.43-49.3-18.37z"/></g></svg>