<svg id="svg2498" xmlns="http://www.w3.org/2000/svg" height="480" width="640"><defs id="defs2500"><clipPath id="clipPath3533"><path id="rect3535" fill-opacity=".67" d="M0 0h496.06v372.05H0z"/></clipPath></defs><g id="flag" transform="scale(1.2902)" clip-path="url(#clipPath3533)"><path id="rect1310" fill-rule="evenodd" stroke-width="1pt" fill="#fff" d="M.013 0h499.55v248.1H.013z"/><path id="path549" d="M.013 0l-.02 18.621 119.21 61.253 44.86 1.3L.012 0z" fill="#c00"/><path id="path551" d="M51.054 0l144.53 75.491V.001H51.064z" fill="#006"/><path id="path552" fill="#c00" d="M214.86 0v96.372H.02v55.07h214.84v96.372h66.106v-96.372h214.84v-55.07h-214.84V0H214.86z"/><path id="path554" d="M300.24 0v71.132L441.63.552 300.24 0z" fill="#006"/><path id="path555" d="M304.71 78.887l39.76-.32L498.95.551l-40.99.668-153.25 77.668z" fill="#c00"/><path id="path700" d="M.013 167.5v52.775l99.16-52.22-99.16-.56z" fill="#006"/><path id="path701" d="M381.85 169.68l-41.336-.321 155.82 77.58-1.025-17.749-113.46-59.51zM38.73 248.25l146.11-76.71-38.38.26L.01 248.14" fill="#c00"/><path id="path556" d="M497.9 21.795l-118 58.515 116.43.436v87.194h-99.159l98.242 53.23 1.442 27.08-52.474-.627-143.62-70.505v71.132h-104.67v-71.132l-134.72 70.94-60.844.192v247.81h991.59V.43L498.947 0M.537 27.971L.014 79.438l104.39 1.308L.544 27.971z" fill="#006"/><g id="g3304" fill-rule="evenodd" stroke-width="1pt" fill="#ffd900"><path id="rect3302" d="M496.06 0h496.06v496.06H496.06z"/><path id="rect3303" d="M0 248.03h523.49v248.03H0z"/></g><g id="g3330" fill-rule="evenodd" transform="translate(7.636 -229.39)"><path id="path3329" d="M284.27 354.68c0 23.619-19.147 42.767-42.767 42.767-23.619 0-42.767-19.147-42.767-42.767s19.147-42.767 42.767-42.767c23.619 0 42.767 19.147 42.767 42.767z" transform="translate(-1.006)" fill="#000067"/><path id="polygon3317" transform="matrix(.37676 0 0 .36496 39.671 225.36)" stroke-width="1pt" fill="#fff40d" d="M511.95 324.28l21.83-67.38 21.83 67.38 70.83-.05-57.34 41.58 21.94 67.35-57.27-41.68-57.27 41.67 21.95-67.34-57.33-41.6z"/><path id="polygon3325" transform="matrix(.18672 0 0 .17086 285.51 292.33)" stroke-width="1pt" fill="#fff40d" d="M511.95 324.28l21.83-67.38 21.83 67.38 70.83-.05-57.34 41.58 21.94 67.35-57.27-41.68-57.27 41.67 21.95-67.34-57.33-41.6z"/><path id="polygon3326" transform="matrix(.18672 0 0 .17086 140.83 377.87)" stroke-width="1pt" fill="#fff40d" d="M511.95 324.28l21.83-67.38 21.83 67.38 70.83-.05-57.34 41.58 21.94 67.35-57.27-41.68-57.27 41.67 21.95-67.34-57.33-41.6z"/><path id="polygon3327" transform="matrix(.18672 0 0 .17086 140.83 210.82)" stroke-width="1pt" fill="#fff40d" d="M511.95 324.28l21.83-67.38 21.83 67.38 70.83-.05-57.34 41.58 21.94 67.35-57.27-41.68-57.27 41.67 21.95-67.34-57.33-41.6z"/><path id="polygon3328" transform="matrix(.18672 0 0 .17086 -4.297 292.33)" stroke-width="1pt" fill="#fff40d" d="M511.95 324.28l21.83-67.38 21.83 67.38 70.83-.05-57.34 41.58 21.94 67.35-57.27-41.68-57.27 41.67 21.95-67.34-57.33-41.6z"/></g></g></svg>