<svg id="svg566" xmlns="http://www.w3.org/2000/svg" height="480" width="640"><g id="flag" fill-rule="evenodd" stroke-width="1pt"><path id="rect580" fill="#00006a" d="M.004 0h640v480h-640z"/><g id="g560" transform="matrix(1.342 0 0 1.2608 -.001 -1.376)"><path id="path572" d="M64.501 291.57l514.08 508.63h105.45l-502.98-508.39-116.55-.24z" transform="matrix(.46237 0 0 .47458 -29.823 -137.28)" fill="#fff"/><path id="path577" d="M105.54 296.01l503.84 506.72 39.211-.619-505.95-506.11h-37.1z" transform="matrix(-.4619 0 0 -.47635 317.39 383.47)" fill="red"/><path id="path581" d="M64.501 291.57l514.08 508.63h105.45l-502.98-508.39-116.55-.24z" transform="matrix(-.46237 0 0 .47458 316.28 -137.28)" fill="#fff"/><path id="path579" d="M105.54 296.01l503.84 506.72 39.211.02-505.95-506.74h-37.1z" transform="matrix(-.46172 0 0 .47635 317.32 -139.91)" fill="red"/><path id="rect570" fill="#fff" d="M120.31 1.095h45.831v241.38H120.31z"/><path id="rect569" fill="#fff" d="M.005 97.646h286.44v48.276H.005z"/><path id="rect574" fill="red" d="M130.34 1.095h25.78v241.38h-25.78z"/><path id="rect575" fill="red" d="M.005 109.72h286.44v24.138H.005z"/></g><g id="g8203" transform="translate(58.74 83.943) scale(.86562)"><g id="g591" transform="matrix(1.0266 0 0 1.0321 -.001 0)"><path id="polygon589" fill="#fff" transform="translate(0 -1.966)" d="M519.07 108.73l-22.03-16.195-22.84 15.025 8.6-25.952-21.35-17.077 27.34.155 9.64-25.58 8.31 26.047 27.3 1.268-22.2 15.943z"/><path id="polygon590" fill="red" transform="rotate(2.772 456.573 72.397)" d="M511.2 91.032l-13.47-8.733-12.87 9.596 4.15-15.509-13.11-9.275 16.04-.852 4.77-15.328 5.76 14.983 16.05-.198-12.46 10.112z"/></g><g id="g594" transform="matrix(1.0266 0 0 1.0321 -86.795 144.08)"><path id="polygon595" fill="#fff" transform="translate(0 -1.966)" d="M519.07 108.73l-22.03-16.195-22.84 15.025 8.6-25.952-21.35-17.077 27.34.155 9.64-25.58 8.31 26.047 27.3 1.268-22.2 15.943z"/><path id="polygon596" fill="red" transform="rotate(2.772 456.573 72.397)" d="M511.2 91.032l-13.47-8.733-12.87 9.596 4.15-15.509-13.11-9.275 16.04-.852 4.77-15.328 5.76 14.983 16.05-.198-12.46 10.112z"/></g><g id="g597" transform="matrix(1.0266 0 0 1.0321 90.83 129.88)"><path id="polygon598" fill="#fff" transform="translate(0 -1.966)" d="M519.07 108.73l-22.03-16.195-22.84 15.025 8.6-25.952-21.35-17.077 27.34.155 9.64-25.58 8.31 26.047 27.3 1.268-22.2 15.943z"/><path id="polygon599" fill="red" transform="rotate(2.772 456.573 72.397)" d="M511.2 91.032l-13.47-8.733-12.87 9.596 4.15-15.509-13.11-9.275 16.04-.852 4.77-15.328 5.76 14.983 16.05-.198-12.46 10.112z"/></g><g id="g600" transform="matrix(1.0266 0 0 1.0321 -2.02 334.84)"><path id="polygon601" fill="#fff" transform="translate(0 -1.966)" d="M519.07 108.73l-22.03-16.195-22.84 15.025 8.6-25.952-21.35-17.077 27.34.155 9.64-25.58 8.31 26.047 27.3 1.268-22.2 15.943z"/><path id="polygon602" fill="red" transform="rotate(2.772 456.573 72.397)" d="M511.2 91.032l-13.47-8.733-12.87 9.596 4.15-15.509-13.11-9.275 16.04-.852 4.77-15.328 5.76 14.983 16.05-.198-12.46 10.112z"/></g></g></g></svg>