<svg id="svg1646" xmlns="http://www.w3.org/2000/svg" height="480" width="640"><defs id="defs1648"><clipPath id="clipPath3037"><path id="rect3039" fill-opacity=".67" d="M0 0h640v480H0z"/></clipPath></defs><g id="flag" clip-path="url(#clipPath3037)"><path id="rect2996" fill="#fff" d="M0 0h640v480H0z"/><path id="rect555" fill-rule="evenodd" stroke-width="1pt" fill="#fff" d="M92.462 0h477.19v480H92.462z"/><path id="rect1649" fill-rule="evenodd" stroke-width="1pt" fill="#db0000" d="M323.07 3.655h358v221.68h-358z"/><path id="rect1650" fill-rule="evenodd" stroke-width="1pt" fill="#0000ab" d="M3.227 225.33h319.87v254.66H3.227z"/><path id="path205" d="M214.8 177.65l-41.959-29.326-41.754 29.614 15.529-48.124-41.677-29.716 51.562-.414 15.993-47.978 16.335 47.867 51.562.063-41.463 29.996 15.872 48.017z" fill-rule="evenodd" stroke-width=".113" fill="#0000ab"/><path id="path1660" d="M516.85 413.89l-42.354-27.744-42.146 28.017 15.675-45.529-42.069-28.114 52.047-.392 16.143-45.391 16.489 45.286 52.047.06-41.853 28.379 16.021 45.428z" fill-rule="evenodd" stroke-width=".113" fill="#d80000"/></g></svg>