<svg id="svg378" xmlns="http://www.w3.org/2000/svg" height="480" width="640" version="1"><defs id="defs380"><clipPath id="clipPath8442"><path id="rect8444" fill-opacity=".67" d="M-52.334 0h682.67v512h-682.67z"/></clipPath></defs><g id="flag" fill-rule="evenodd" clip-path="url(#clipPath8442)" transform="translate(49.063) scale(.9375)" stroke-width="1pt"><path id="rect171" fill="#0c590b" d="M-95 0h768v512H-95z"/><path id="rect403" fill="#fff" d="M-95 0H97.52v512H-95z"/><g id="g6428" fill="#fff" transform="translate(1.115 55.129) scale(.78618)"><path id="path273" d="M512.08 216.58l-39.641-8.34-20.846 34.734-4.32-40.278-39.475-9.094 36.972-16.554-3.55-40.353 27.168 30.047 37.281-15.846-20.18 35.124 26.591 30.56z"/><path id="path278" d="M527.03 319.21c-35.19 77.54-127.55 111.41-205.31 75.39-77.77-36.03-111.65-128.38-75.62-206.15 18.376-39.665 48.448-66.923 90.898-81.8-4.883 4.129-9.714 8.412-15.008 13.875-54.836 56.591-53.411 147.03 3.179 201.86 56.591 54.836 147.03 53.412 201.86-3.179z"/></g></g></svg>