<svg id="Flag_of_the_Pitcairn_Islands" xmlns="http://www.w3.org/2000/svg" height="480" width="640" version="1" viewBox="-15 -7.5 30 15"><defs id="defs3"><clipPath id="border"><path id="rect6" d="M-15-7.5h30v15h-30z"/></clipPath></defs><g id="flag"><path id="rect8" fill="#00247d" d="M-15-11.25h30v22.5h-30z"/><g id="canton" transform="translate(0 -3.75)"><g id="g13" clip-path="url(#border)"><circle id="circle15" r="20" fill="#00247d"/><path id="diags_white" stroke-width="3" stroke="#fff" d="M-20-10l40 20m-40 0l40-20"/><path id="diags_red" stroke-width="2" stroke="#cf142b" d="M-20-10l40 20m-40 0l40-20"/><path id="eraser_white" fill="#fff" d="M0 0l20 10h-3L-3 0m3 0l20-10h3L3 0M0 0l-20 10h-3L-3 0m3 0l-20-10h3L3 0"/><path id="cross_white" stroke-width="5" stroke="#fff" d="M-20 0h40M0-10v20"/><path id="cross_red" stroke-width="3" stroke="#cf142b" d="M-20 0h40M0-10v20"/></g></g><g id="g2791" transform="translate(-27.207 -8.973) scale(.15883)"><path id="path2793" d="M197.84 77.265c-2.706 2.296-5.284 5.64-5.917 8.663-1.782 8.513-4.149 10.406-7.805 8.579 0 4.57 4.008 4.921 5.766 2.25 0 4.289 1.555 8.006 5.062 11.179 1.477 1.336 1.758.422 1.055-1.054-.703-1.477-.703-6.258-2.109-9 2.25 1.616 5.554.702 5.273-3.727-2.883 1.687-5.748 1.621-6.047-2.391-.351-4.711 1.487-11.546 4.722-14.5z" stroke="#000" stroke-width=".186" fill="#f7e017"/><path id="path2795" d="M194.42 43.401c.191-1.689-.17-3.424-1.404-4.511-2.384-2.1-4.72-1.404-6.458.286-2.602-1.406-3.984 3.58-6.937 2.737.492 1.617 1.266 2.32 2.742 1.758-1.547 1.406 0 3.094-1.828 4.781 3.305 1.055 5.063-.773 4.922-3.937 1.266 1.125 3.234 1.054 4.289-.211-1.758-.563-1.766-2.093-1.055-3.516 1.055-2.11 6.01-2.028 5.729 2.613z" stroke="#000" stroke-width=".186" fill="#f7e017"/><path id="path2797" d="M202.05 67.858c-3.727 1.969-10.547 1.125-11.18-3.727-.633-4.851 4.078-7.03 5.344-7.664 1.973-.986 3.515.774 2.883 2.813 2.179-.773 2.672-3.305 1.617-4.781 2.883.21 5.555-1.97 6.68-5.063-1.011.963-3.768.312-6.038.166.703-.774.694-2.275.483-3.049-2.391 2.461-5.836 1.336-10.406 8.438.703-2.461 2.039-7.383 2.812-10.617.077-.324.137-.642.174-.973.281-4.64-4.668-4.724-5.723-2.614 1.156 1.304.549 2.826.135 5.134-.492 2.742-1.547 9.07-2.461 11.18-.281-3.305-2.461-3.516-2.883-5.133-.633.422-.984 1.547-.843 2.32-.774-.843-3.446.211-4.43-1.054-1.055 2.109.633 4.218 2.39 5.132-1.019.07-1.265 1.301-2.39 1.301 1.512 1.758 3.058 2.461 4.851 2.602s3.129.808 4.219 2.988c1.758 3.516 8.455 5.8 14.766 2.602z" stroke="#000" stroke-width=".186" fill="#337321"/><path id="path2799" d="M211.33 63.569c-2.109 5.836-7.875 9.984-10.477 10.617-4.427 1.077-13.457 5.46-15.881 7.716-.383-.084-.738-.223-.994-.404-1.195-.843-2.179-3.585-.07-5.906 6.61-6.187 13.711-3.515 18.141-7.734-3.727 1.969-10.547 1.125-11.18-3.727 4.008 1.055 11.25 1.125 17.016-5.062.773.844 3.023 3.516 3.445 4.5z" stroke="#000" stroke-width=".186" fill="#f7e017"/><path id="path2801" d="M197.84 77.265c-3.34 2.834-5.073 9.788-4.722 14.499.098 1.31.466 2.199 1.023 2.744.246-2.672 2.104-9.576 6.852-12.658 4.008-2.602 10.266-8.438 12.586-15.117-.422-1.196-1.125-2.04-2.461-2.883-2.296 6.304-8.462 9.328-13.278 13.415z" stroke="#000" stroke-width=".186" fill="#337321"/><path id="path2803" d="M209.19 60.862c-1.196 1.793-3.903 4.254-6.504 5.238.562-.632.738-1.441.773-2.11-3.305 1.267-9.914 1.126-12.586.142 4.008 1.054 11.25 1.125 17.016-5.063.562.633 1.054 1.195 1.301 1.793z" stroke="#000" stroke-width=".186" fill="#316d3a"/><path id="path2805" d="M183.91 75.592c-5.374 5.03-1.828 9.422.281 10.406-.562 3.516 2.743 3.094 2.672 6.047 1.336-.774 1.688-2.813 1.477-4.43 1.687 1.828 5.976-.21 6.89 3.164.563-3.726-2.32-7.453-5.906-7.101 1.477-1.336.633-3.516-.773-4.078-.281 2.742-3.375 2.742-4.571 1.898-1.195-.844-2.179-3.586-.07-5.906z" stroke="#000" stroke-width=".186" fill="#337321"/><path id="path2807" d="M195.55 107.58c-.587.335-.544 1.091-.176 1.582.738.984-.52 3.215 1.863 3.691.704.141 1.245-.289 1.512-1.09.738-2.215-1.617-2.461-1.828-3.515-.211-1.055-.879-.95-1.371-.668z" stroke="#000" stroke-width=".186" fill="#f7e017"/><path id="path2809" d="M197.55 111.73c-.789.364-1.477.879-1.16 3.41.13 1.047.07 3.586-.844 3.621.562.282 1.758.58 2.25-.07.474.791 1.547.563 1.969-.422.562.457 1.336-.316 1.336-.984.492.316 1.476-.141 1.23-1.652.598.21 1.371-.211 1.652-.598-.879-.176-3.093-1.371-3.621-2.32-.527-.95-1.898-1.407-2.812-.985z" stroke="#000" stroke-width=".186" fill="#f7e017"/><g id="g2811" stroke="#000" stroke-width=".186" fill="none"><path id="path2813" d="M185.37 40.621a9.17 9.17 0 0 1 1.189-1.445"/><path id="path2815" d="M198.75 49.928c.621-.355 1.564-.394 2.611-.327"/><path id="path2817" d="M197.8 118.69c-.246-.351-.334-1.828-.158-2.725"/><path id="path2819" d="M199.77 118.27c-.387-.299-1.125-1.318-1.248-2.215"/><path id="path2821" d="M201.1 117.29c-.493-.229-1.688-1.776-1.952-2.777"/><path id="path2823" d="M202.33 115.64c-.58-.124-2.355-1.284-3.094-2.514"/></g><path id="path2825" d="M234.75 75.663c8.649 7.242 9.211 13.008 7.875 16.383-.703-3.164-4.289-8.086-8.016-9.352l.141-7.03z" stroke="#000" stroke-width=".186" fill="#f7e017"/><g id="g2006"><g id="g2828"><path id="path2830" d="M219.28 71.585h16.032v18.984c0 16.172-9 25.734-18.141 30.797-9.141-5.063-18.141-14.625-18.141-30.797V71.585h11.25c.018.984.106 2.46 1.266 3.937 2.654-.263 5.66-2.25 7.734-3.937z" stroke="#000" stroke-width=".186" fill="#337321"/><path id="path2832" d="M235.31 71.585v18.984c0 4.882-.821 9.162-2.217 12.897l-15.92-29.213-15.92 29.213c-1.397-3.735-2.217-8.015-2.217-12.897V71.585h36.282z" stroke="#000" stroke-width=".186" fill="#006ec7"/><path id="path2711" d="M233.58 102.06c-.281.861-.791 2.259-1.186 3.12l-15.22-28.285-15.22 28.285c-.395-.861-.905-2.259-1.186-3.12l16.41-30.421 16.41 30.421z" fill="#f7e017"/></g><g id="g2835" stroke="#000" stroke-width=".186" fill="#f7e017"><path id="path2837" d="M224.41 112.47c.422.211 1.199.601 1.551.742.844-1.688.984-4.078.703-6.188-.914 2.321-4.008 2.25-4.851 3.656.519.26 1 .6 1.415.9-1.055 1.054-3.525 2.827-4.931 3.249V99.747c0-1.055-.352-1.934-.352-2.812v-3.118c0-.703-.14-1.723-.773-1.723s-.773 1.02-.773 1.723v3.118c0 .878-.352 1.898-.352 2.812v15.082c-.773-2.25-3.802-1.48-5.208-3.73a3.99 3.99 0 0 1 1.692-.067c-1.054-3.586-3.937-3.867-4.5-4.922 0 1.477-.632 4.922.352 6.399.221-.265.553-.537.952-.781 1.195 2.602 6.571 2.609 7.837 6.898 1.016-1.575 4.676-3.405 7.238-6.156z"/><path id="path2839" d="M217.17 99.921c1.195 0 4.992-.389 6.363-.389.357 0 .647-.534.647-1.193s-.29-1.193-.647-1.193c-1.371 0-5.168-.389-6.363-.389s-4.992.389-6.363.389c-.357 0-.647.534-.647 1.193s.29 1.193.647 1.193c1.371 0 5.168.389 6.363.389z"/><path id="path2841" d="M216.4 93.74a1.517 1.517 0 0 0-.952-.328c-.797 0-1.442.59-1.442 1.317s.645 1.316 1.442 1.316c.796 0 1.441-.59 1.441-1.316 0-.563.818-.563.818 0 0 1.139-1.011 2.063-2.259 2.063s-2.26-.924-2.26-2.063c0-1.14 1.012-2.063 2.26-2.063.374 0 .727.083 1.038.23-.028.189-.086.541-.086.844z"/><path id="path2843" d="M210.81 99.532c.357 0 .646-.534.646-1.193s-.289-1.194-.646-1.194"/><path id="path2845" d="M211.34 99.532c.357 0 .646-.534.646-1.193s-.289-1.194-.646-1.194"/><path id="path2847" d="M214.81 99.777c.43 0 .779-.644.779-1.438 0-.795-.349-1.439-.779-1.439"/><path id="path2849" d="M215.62 99.842c.45 0 .815-.673.815-1.504 0-.83-.365-1.503-.815-1.503"/><path id="path2851" d="M218.32 99.859c.455 0 .824-.68.824-1.52s-.369-1.521-.824-1.521"/><path id="path2853" d="M219.17 99.811c.45 0 .814-.66.814-1.472 0-.813-.364-1.473-.814-1.473"/><path id="path2855" d="M222.94 99.555c.364 0 .66-.545.66-1.217s-.296-1.217-.66-1.217"/><path id="path2857" d="M209.33 111.73a5.347 5.347 0 0 1 1.504-.629"/><path id="path2859" d="M223.64 111.87c-.129-.092-.267-.19-.413-.296"/><path id="path2861" d="M224.41 112.47c.985-1.057 1.805-2.252 2.254-3.618"/></g><g id="g2863" stroke="#000" stroke-width=".186"><path id="path2865" d="M213.95 85.006c0-.343.282-.49.61-.738.396-.3.554-.44.914-.44h4.615c.342 0 .421.088.421.405v6.275c0 .316-.079.404-.421.404h-6.139v-5.967" fill="#fff"/><path id="path2867" d="M218.95 91.457c.606 0 .497-.013.923-.44.444-.443.402-.404.402-.812v-5.738c0-.296-.073-.378-.391-.378h-4.27c-.334 0-.48.131-.846.41-.304.233-.561.37-.561.691v6.267h4.743z" fill="#e5e5e5"/><path id="path2869" d="M219.4 91.325c0 .316-.079.404-.422.404h-4.614c-.343 0-.417-.088-.417-.404V85.05c0-.317.074-.405.417-.405h4.614c.343 0 .422.088.422.405v6.275z" fill="#fff"/></g></g><g id="g2871"><path id="path2875" d="M228.35 67.908c.899 1.002 1.195 2.353.705 3.671h-1.336c.562-1.687.211-3.298-2.18-3.51-3.575-.315-7.734 6.61-13.992 7.454-1.828-2.18-1.73-6.332.59-8.3-1.199-3.459-3.733-7.262-5.486-8.908-1.148-.187-2.474-.28-3.331-.23.914-1.969 3.519-4.04 5.629-4.884.341-.5.708-.98 1.051-1.409.211-2.707 13.078-1.441 15.82.246 0 3.024 1.194 13.128 2.53 15.87z" stroke="#000" stroke-width=".186" fill="#96877d"/><g id="g2877"><path id="path2879" d="M212.75 69.753c-.306-4.687-2.2-8.546-4.863-11.176 1.265.352 3.867.352 5.625-.914 2.32-1.547 8.367-4.254 10.582-3.094.176.387.281 1.266.14 1.828-.527-1.406-6.363.774-8.015 1.442-1.582.738-2.285 1.722-1.723 3.937-.914-.773-.598-1.512-1.547-2.074.387.914.703 2.566.809 3.902-.352-.949-.985-2.988-2.356-4.183 1.196 2.32 2.233 7.892 1.741 10.846.949 0 3.041-.932 3.884-1.6-.738 1.055-2.865 1.793-4.236 2.074-.615.739-1.037 2.637-1.002 3.692-.105-1.3.305-4.471.961-4.68z"/><path id="path2881" d="M228.35 67.908c-1.164-1.296-3.336-1.997-6.116-1.245a8.978 8.978 0 0 1 2.145-.703c-.105-.738-.773-3.902-.879-4.676l.774-.316c.386 1.898.878 4.078 1.195 4.957.246.07.808.176 1.301.422-.211-.738-1.407-6.047-1.371-6.61l1.054-.562c.422 2.883 1.09 7.066 1.897 8.733z"/></g><g id="g2985" stroke="#000" stroke-width=".186" fill="#96877d"><path id="path2873" d="M227.72 71.578c.562-1.688.211-3.299-2.18-3.51-1.853-.163-3.863 1.638-6.242 3.51h8.422z"/><path id="path2883" d="M212.18 56.432c-1.055.14-3.41-.07-4.606-.457.069-.317.192-.646.35-.994-.739.492-2.143 1.451-2.67 2.119 1.688.351 5.171.527 6.926-.668z"/></g><path id="path2885" d="M212.14 67.222c.388 1.12.641 2.204.676 3.168" stroke="#000" stroke-width=".186" fill="none"/><path id="path2887" d="M208.95 53.2c-.638.931-1.192 1.928-1.375 2.775 1.196.387 3.551.598 4.606.457" stroke="#000" stroke-width=".186" fill="none"/><path id="path2889" d="M206.65 58.314c.455.074.881.163 1.24.262 1.265.352 3.867.352 5.625-.914s6.539-5.203 11.953-5.625" stroke="#000" stroke-width=".186" fill="none"/><path id="path2891" d="M205.25 57.1c1.688.351 5.171.527 6.926-.668 4.078-2.777 8.015-4.394 11.953-4.606" stroke="#000" stroke-width=".186" fill="none"/></g><path id="path2893" d="M234.75 75.663c5.906 4.078 10.266 8.016 11.531 14.344 1.266 6.328 3.657 8.016 6.61 6.328-.703 3.656-4.36 4.078-7.453 1.266.281 4.218-1.407 9.281-5.766 11.11-.281-2.532 1.392-4.536.914-6.61-.211-.914-.281-3.023.914-4.008-2.32.774-5.976-.703-6.328-4.148 2.672 1.265 6.117 1.476 7.453-1.899s.774-9.14-7.875-16.383z" stroke="#000" stroke-width=".186" fill="#337321"/><path id="path2895" d="M242.2 42.757c1.828-4.781 6.61-4.29 8.227-2.25 4.711-2.672 5.344 3.375 9.351 2.18-.07 1.125-1.406 2.18-2.882 2.109 1.546 1.406-.633 3.516 2.671 4.781-2.812 1.406-6.75-.07-7.804-3.937-.914 1.828-4.219 1.828-5.555.351 2.883-.773 2.672-3.445 1.055-4.5-1.629-1.062-4.5-.633-5.063 1.266z" stroke="#000" stroke-width=".186" fill="#337321"/><path id="path2897" d="M227.94 53.286c1.312 4.232 4.026 8.165 6.951 10.846 3.375 3.094 8.472 2.32 11.32-.633.07 5.889-6.029 6.346-9.422 4.5-1.495-.813-2.705-.386-1.265.914 2.179 1.969 6.948 3.433 12.585 4.64 9.844 2.11 6.329 9.915 3.446 9.845.826-.018 1.504-.883.316-1.952-8.543-7.681-25.91-4.658-25.629-21.814-1.828 4.5-9.351 2.743-5.836-2.601 1.125.914 3.094.984 3.657-.422.437-1.094.151-2.997-1.819-4.633.324-.025 1.019.001.948-.807.088.474.519 1.177 1.626.94.317.5.649.83 1.099.65.088-.035.352-.167.246-.668.088.932 1.195 1.266 1.777 1.196z" stroke="#000" stroke-width=".186" fill="#337321"/><path id="path2899" d="M236.79 67.999c4.078 2.672 8.689 2.67 12.938-2.25 1.336-1.547 3.445-2.883 4.922-3.023 1.476-.141 1.406-1.547 2.531-1.829-.703-.21-.985-1.054-2.039-.949 2.636-.914 1.863-3.023 3.164-4.043-1.055.387-2.707-1.195-4.219.809.387-.914-.141-2.004-.527-2.426.14 1.055-2.075 1.266-2.496 3.938-.237 1.499-1.055 1.406-1.196-.915-.103-1.697-.914-6.398-1.898-8.789-.985-2.39-1.21-5.672.126-6.164a2.646 2.646 0 0 0-.829-.867c-1.629-1.062-4.5-.633-5.063 1.266-1.828 4.781 3.305 7.523 2.883 12.726-.773-3.867-7.031-4.852-6.961-8.649-2.039.914-1.758 2.602-.984 3.938-1.266-1.969-4.149 1.266-6.61-1.406-.281 3.515 2.813 4.851 5.344 4.992-1.266 2.25.422 4.148 2.109 4.781.071-3.937 8.145-2.321 8.227 4.43.07 5.765-6.117 6.258-9.422 4.43z" stroke="#000" stroke-width=".186" fill="#f7e017"/><path id="path2901" d="M248.11 73.553c9.844 2.11 6.329 9.914 3.446 9.844-1.836-.045-3.586-1.582-3.692-2.918-2.109 1.125-1.546 3.34.071 4.219-4.43-.528-6.293 2.39-6.399 5.59.809-1.477 3.27-1.583 4.184-1.266.914.316 3.269.492 4.219-.563-.774.668.492 2.215-.598 3.41 3.691-.14 5.309-3.586 4.676-5.097 4.781-4.36 3.867-11.461-5.907-13.22z" stroke="#000" stroke-width=".186" fill="#f7e017"/><path id="path2903" d="M240.61 106.96c.641.4.56 1.241.127 1.773-.867 1.067.44 3.612-2.241 4.04-.791.126-1.377-.378-1.64-1.283-.727-2.504 1.913-2.676 2.194-3.844.282-1.168 1.023-1.022 1.56-.686z" stroke="#000" stroke-width=".186" fill="#f7e017"/><path id="path2905" d="M238.2 111.5c.865.441 1.61 1.045 1.147 3.857-.192 1.163-.235 3.999.784 4.079-.641.289-1.988.57-2.509-.177-.564.862-1.751.561-2.179-.557-.648.486-1.477-.411-1.448-1.157-.563.332-1.642-.221-1.302-1.898-.676.21-1.521-.295-1.818-.739.989-.158 3.513-1.395 4.143-2.432.63-1.036 2.18-1.487 3.182-.976z" stroke="#000" stroke-width=".186" fill="#f7e017"/><g id="g2907" stroke="#000" stroke-width=".186" fill="none"><path id="path2909" d="M237.62 119.26c.29-.382.453-2.026.296-3.034"/><path id="path2911" d="M235.44 118.71c.445-.316 1.313-1.422 1.49-2.417"/><path id="path2913" d="M233.99 117.55c.559-.233 1.961-1.908 2.299-3.015"/><path id="path2915" d="M232.69 115.65c.653-.112 2.685-1.329 3.563-2.67"/></g><path id="path2917" d="M226.24 59.632c-.118 7.207 2.878 10.853 7.027 13.227-1.542-.923-.874-4.087-2.949-5.106.493-.035 1.266.668 2.497.386-.598-1.336-1.583-3.375-3.868-3.656.598-.07 1.899.14 2.743-.176-1.196-1.828-4.36-.949-5.45-4.675z" stroke="#000" stroke-width=".186" fill="#f7e017"/><path id="path2919" d="M225.49 52.778c-.253-.083-.468-.338-.678-.67-1.107.237-1.538-.466-1.626-.94.071.808-.628.778-.953.803 1.979 1.638 2.262 3.541 1.824 4.637-.563 1.406-2.532 1.336-3.657.422-.14 2.988 3.727 3.973 5.133.21 0 .634.809.563 1.02 1.407 1.004-1.616.246-3.937-1.063-5.869z" stroke="#000" stroke-width=".186" fill="#f7e017"/><g id="g2921"><path id="path2923" d="M219.32 38.503c-1.758-1.617-2.567-4.324-2.497-5.871.071-1.547.704-3.234 2.954-2.531-.704 0-.211 1.406-.95 1.547.598.21 1.407-.282 1.512-.598.141.492 1.055.351 1.125.914.352-.281-.035-1.652-.562-1.934.386-.21.597-1.3.421-1.828-.351.07-.878.563-.984 1.266.176-.563-.035-1.969-1.019-2.18-.282.387-.352 1.336.035 1.863-.914-.21-2.25.387-2.567 1.16.071-.931.199-2.258.774-3.093.193-.281-.282-.773-.651-.106-.685-1.335-2.513-2.039-3.322-1.37s-1.898-.317-2.566.738c-.668 1.054-2.931 1.165-2.813 2.285.07.668-.091 1.7-.422 2.074-.808.914.387 1.582.598 2.39-.141-2.671 4.113-7.874 8.367-5.835-.387.668-.725 2.002-.844 3.62-.175 2.391.176 5.766 2.496 7.735l.915-.246z" stroke="#000" stroke-width=".186" fill="#337321"/><path id="path2925" d="M220.58 30.136c-.023-.633 1.072-1.456 2.549-1.441 1.775.017 3.146 1.634 4.57 1.476s.721.633.422.844c-.299.21-.474.527-.369.914s-.077.64-.65.281c-1.266-.79-2.532.317-4.202-.299-1.448-.533-2.285-.826-2.32-1.775z" stroke="#000" stroke-width=".186" fill="#cf142b"/><path id="path2927" d="M213.34 46.729c-.703-2.215-3.375-4.64-4.676-5.203l-.07-1.196c.703-.28 2.39-1.617 3.164-2.355 5.273 2.531 12.445-1.055 15.75-4.781l1.266.773-.633.844-.668-.351c-.809.984-3.828 3.825-4.742 4.422 1.229.31 2.909.525 3.371.5 2.953-2.11 5.273-4.008 6.398-4.15l.949 1.267-.843.597-.668-.386c-3.164 2.601-6.75 8.296-8.157 12.093-1.968-.421-9-.14-10.441-2.074z" stroke="#000" stroke-width=".186" fill="#96877d"/><path id="path2929" d="M222.73 38.882c-.455-.115-.847-.247-1.094-.38-.563.528-1.969.985-3.762 1.055" stroke="#000" stroke-width=".186" fill="none"/><path id="path2931" d="M213.62 45.956c-.474-2.62.281-5.52 1.617-6.398 2.918 1.933 7.911 1.933 10.864-.176" stroke="#000" stroke-width=".186" fill="none"/><path id="path2933" d="M213.62 44.585c2.25-.07 7.137.316 8.332.492 1.196.176 3.199.668 2.918 1.266" stroke="#000" stroke-width=".186" fill="none"/><path id="path2935" d="M214.66 44.212l.647-.646-.647-.647-.646.647.646.646z" stroke="#000" stroke-width=".186" fill="none"/><path id="path2937" d="M216.19 31.12c-.809-1.125-3.037-1.48-3.516.035-.211.668-.527 1.371-1.055 1.688-.527.316-.403 1.274-.175 1.687.562 1.02.07 2.004 1.16 2.672 0-.809 1.195-1.652 2.215-1.863 1.019-.211 2.566-1.125 2.777-2.145.211-1.02.562-1.863-1.406-2.074z" stroke="#000" stroke-width=".186" fill="#337321"/><path id="path2939" d="M211.12 41.245h.281l.005 1.923c.057.02.121.047.167.088l1.657-.955.141.243-1.663.966c.011.06.02.128.007.19l1.656.956-.141.244-1.667-.958a.488.488 0 0 1-.161.101l-.001 1.913h-.281l-.004-1.923a.488.488 0 0 1-.168-.088l-1.657.955-.14-.243 1.662-.966a.503.503 0 0 1-.007-.19l-1.655-.956.14-.244 1.668.958a.494.494 0 0 1 .16-.101l.001-1.913z" stroke="#000" stroke-width=".186" fill="#96877d"/><path id="path2941" d="M213.63 45.947a3.332 3.332 0 1 1 .286-4.365c-.172.419-.371 1.36-.386 1.785a2.276 2.276 0 1 0-2.264 2.51 2.326 2.326 0 0 0 2.223-1.705c-.001.417.009 1.423.141 1.775z" stroke="#000" stroke-width=".186" fill="#96877d"/><path id="path2943" d="M209.86 49.12c-.21-.246-.597-.914-.562-1.406.316-.035.914.176 1.195.457-.035-.352-.175-1.125-.105-1.477.387.14 1.195.598 1.476 1.125-.07-.351-.211-1.265-.07-1.828.422.246 1.125.914 1.266 1.371.035-.703.281-1.863.492-2.144.316.316.808.597 1.125 1.02.07-.563.351-1.231.773-1.407.317.351.809 1.16.914 2.074.317-.105.739-.633.914-.914.176.281.352.773.247 1.371.386-.351.843-.844.949-1.266.281.211.808.739.949 1.301-.07-.457-.035-1.265-.176-1.722.528.28.949.773 1.055 1.3.141-.492.457-1.37.738-1.582.281.563.563 1.23.528 1.793.175-.351.457-.984.738-1.125.246.387.211 1.23.14 1.688.247-.352.704-.774.985-.914.035.21.07.633 0 .949.316-.176.844-1.125 1.019-1.617.493.246.985 1.09 1.02 1.512.351-.141 1.055-.774 1.265-1.125 0 .246.106.914-.035 1.441.211-.211.422-.633.528-.809.14.352.035 1.196-.106 1.653.317-.282.774-.457 1.055-.457.035.597-.387 1.652-.774 2.425-3.375-.949-10.441-1.3-17.543-1.687z" stroke="#000" stroke-width=".186" fill="#337321"/><path id="path2945" d="M221.63 30.495c-.017-.26.562-.846 1.597-.84 1.242.008 2.389.92 3.386.854s.505.26.296.346c-.21.086-.333.215-.259.373s-.054.262-.455.116c-.886-.324-1.772.129-2.941-.123-1.014-.218-1.6-.338-1.624-.726z" fill="#f7e017"/></g><g id="g2947" stroke="#000" stroke-width=".186"><g id="g2949" fill="#f7e017"><path id="path2951" d="M210.95 51.229c-1.054 1.266-2.109 1.055-2.32.246-.211-.809.563-1.195.281-1.898-.281-.703.457-1.02.809-.703.351.316 1.476-.704 1.969.351.492 1.055.879 1.793.597 2.215-.281.422-1.125.21-1.336-.211z"/><path id="path2953" d="M215.48 49.331c-.198-.463.897-1.353 1.459-.72.563.632 1.442-.686 1.934.316s.65 1.529.897 2.092c.246.562-1.336.86-1.829.369.071.334-1.366.595-1.757-.352-.211-.51-.44-1.09-.704-1.705z"/><path id="path2955" d="M222.8 49.911c-.264-.492 1.02-1.195 1.687-.299.176-.369 1.442-.44 1.53.633.088 1.072.123 1.705.158 2.127s-.773.809-1.354-.264c-1.037.211-1.511-.369-1.634-.984s-.246-.914-.387-1.213z"/></g><g id="g2957" fill="#337321"><path id="path2959" d="M211.63 49.208c-.158-.351.896-1.055 1.617-.527.721.527 1.719-.455 2.145.492.861 1.916.914 2.057.65 2.426-.264.369-1.389.228-1.67-.282-.053.352-1.023.294-1.529.018-.58-.317-.985-1.494-1.213-2.127z"/><path id="path2961" d="M219.03 49.296c-.246-.545 1.407-1.02 2.127-.07.369-.334 1.178-.352 1.635.685.457 1.037.527 1.617.193 1.881-.235.185-1.09.334-1.371-.14-.387.246-1.582.035-1.845-.633-.264-.668-.493-1.248-.739-1.723z"/><path id="path2963" d="M226.03 50.333c-.035-.492.862-.72 1.196 0s1.402.072 1.494 1.266c.017.228-.123 1.107-.457 1.529s-1.969 0-2.074-.897a21.851 21.851 0 0 1-.159-1.898z"/></g><g id="g2965" fill="none"><path id="path2967" d="M210.95 51.229c-.386-.527-.914-1.371-1.582-.457"/><path id="path2969" d="M214.38 51.317c-.228-.299-.527-.79-.633-1.178"/><path id="path2971" d="M217.94 51.387c-.246-.176-.615-.527-.808-.896"/><path id="path2973" d="M217.63 49.542c.615.07 1.037.65 1.23.914.194.264.598.738.915.791"/><path id="path2975" d="M221.62 51.651c-.211-.334-.422-.633-.474-.879"/><path id="path2977" d="M221.16 49.225c.211.299.369.545.492.826"/><path id="path2979" d="M224.82 52.108c-.281-.527-.72-1.037-1.089-1.213"/><path id="path2981" d="M224.68 50.174c.035 1.037 1.424 1.107 1.476 1.846"/><path id="path2983" d="M227.22 50.333c.14.264.193.527.211.967"/></g></g></g></g></svg>