<svg id="svg548" xmlns="http://www.w3.org/2000/svg" height="480" width="640" version="1"><defs id="defs550"><linearGradient id="linearGradient6733" y2="-5035.4" gradientUnits="userSpaceOnUse" y1="-5035.4" gradientTransform="matrix(.08535 0 0 .14208 -225.71 715.44)" x2="4203.4" x1="359.59"><stop id="stop562" offset="0"/><stop id="stop563" stop-color="#fff" offset="1"/></linearGradient><clipPath id="clipPath7504"><path id="rect7506" fill-opacity=".67" d="M-72.352 0h682.67v512h-682.67z"/></clipPath></defs><g id="flag" clip-path="url(#clipPath7504)" transform="translate(67.83) scale(.9375)"><path id="rect555" stroke="url(#linearGradient6733)" stroke-width=".147" fill="#090" d="M-114.94.065h307.43v511.87h-307.43z"/><path id="rect557" fill-rule="evenodd" stroke-width="1pt" fill="red" d="M191.82 0h461.15v512H191.82z"/><g id="g1527" fill-rule="evenodd" stroke-width="1pt" transform="matrix(.10329 0 0 .10306 23.562 74.592)"><g id="g1009" transform="matrix(-.0534 1.0792 .43966 -.04359 1384.9 -475.58)"><path id="rect1010" d="M1528.3 376.91h171.54v2824.2H1528.3z"/><path id="rect1011" fill="#efef00" d="M1548.3 404.6h131.37v2768.8H1548.3z"/><g id="g1012" transform="translate(9.384)"><path id="rect1013" d="M1482.6 357.96h56.303v2852.7H1482.6z"/><path id="rect1014" fill="#efef00" d="M1502.8 383.29h15.952v2802H1502.8z"/></g><g id="g1015" transform="translate(197.06)"><path id="rect1016" d="M1482.6 357.96h56.303v2852.7H1482.6z"/><path id="rect1017" fill="#efef00" d="M1502.8 383.29h15.952v2802H1502.8z"/></g></g><g id="g1000" transform="matrix(-.0534 1.0792 .43966 -.04359 1572.6 115.61)"><path id="rect1001" d="M1528.3 376.91h171.54v2824.2H1528.3z"/><path id="rect1002" fill="#efef00" d="M1548.3 404.6h131.37v2768.8H1548.3z"/><g id="g1003" transform="translate(9.384)"><path id="rect1004" d="M1482.6 357.96h56.303v2852.7H1482.6z"/><path id="rect1005" fill="#efef00" d="M1502.8 383.29h15.952v2802H1502.8z"/></g><g id="g1006" transform="translate(197.06)"><path id="rect1007" d="M1482.6 357.96h56.303v2852.7H1482.6z"/><path id="rect1008" fill="#efef00" d="M1502.8 383.29h15.952v2802H1502.8z"/></g></g><g id="g991" transform="matrix(-.0534 1.0792 .43966 -.04359 1497.5 781.86)"><path id="rect992" d="M1528.3 376.91h171.54v2824.2H1528.3z"/><path id="rect993" fill="#efef00" d="M1548.3 404.6h131.37v2768.8H1548.3z"/><g id="g994" transform="translate(9.384)"><path id="rect995" d="M1482.6 357.96h56.303v2852.7H1482.6z"/><path id="rect996" fill="#efef00" d="M1502.8 383.29h15.952v2802H1502.8z"/></g><g id="g997" transform="translate(197.06)"><path id="rect998" d="M1482.6 357.96h56.303v2852.7H1482.6z"/><path id="rect999" fill="#efef00" d="M1502.8 383.29h15.952v2802H1502.8z"/></g></g><g id="g982" transform="matrix(.0534 1.0792 -.43966 -.04359 1815 734.94)"><path id="rect983" d="M1528.3 376.91h171.54v2824.2H1528.3z"/><path id="rect984" fill="#efef00" d="M1548.3 404.6h131.37v2768.8H1548.3z"/><g id="g985" transform="translate(9.384)"><path id="rect986" d="M1482.6 357.96h56.303v2852.7H1482.6z"/><path id="rect987" fill="#efef00" d="M1502.8 383.29h15.952v2802H1502.8z"/></g><g id="g988" transform="translate(197.06)"><path id="rect989" d="M1482.6 357.96h56.303v2852.7H1482.6z"/><path id="rect990" fill="#efef00" d="M1502.8 383.29h15.952v2802H1502.8z"/></g></g><g id="g937" transform="matrix(-.31852 .97312 -.46881 -.05 2307.7 363.88)"><path id="rect938" d="M1528.3 376.91h171.54v2824.2H1528.3z"/><path id="rect939" fill="#efef00" d="M1548.3 404.6h131.37v2768.8H1548.3z"/><g id="g940" transform="translate(9.384)"><path id="rect941" d="M1482.6 357.96h56.303v2852.7H1482.6z"/><path id="rect942" fill="#efef00" d="M1502.8 383.29h15.952v2802H1502.8z"/></g><g id="g943" transform="translate(197.06)"><path id="rect944" d="M1482.6 357.96h56.303v2852.7H1482.6z"/><path id="rect945" fill="#efef00" d="M1502.8 383.29h15.952v2802H1502.8z"/></g></g><g id="g928" transform="matrix(-.78495 .83247 -.34476 -.23585 2811.1 622.21)"><path id="rect929" d="M1528.3 376.91h171.54v2824.2H1528.3z"/><path id="rect930" fill="#efef00" d="M1548.3 404.6h131.37v2768.8H1548.3z"/><g id="g931" transform="translate(9.384)"><path id="rect932" d="M1482.6 357.96h56.303v2852.7H1482.6z"/><path id="rect933" fill="#efef00" d="M1502.8 383.29h15.952v2802H1502.8z"/></g><g id="g934" transform="translate(197.06)"><path id="rect935" d="M1482.6 357.96h56.303v2852.7H1482.6z"/><path id="rect936" fill="#efef00" d="M1502.8 383.29h15.952v2802H1502.8z"/></g></g><g id="g606" transform="translate(3443.9 797.63)"><path id="path607" d="M-576.02-680.03c.472 617.58-500.34 1118.8-1117.9 1118.8-617.58.981-1119.2-499.44-1119.7-1117-1.49-617.6 498.53-1119.6 1116.1-1120.6 617.58-1.96 1120 497.67 1121.5 1115.2.026 1.253.026 2.31.026 3.564zm262.44-.001c.582 762.45-617.7 1381.2-1380.1 1381.2-762.44 1.211-1381.8-616.6-1382.3-1379-1.85-762.47 615.47-1382.2 1377.9-1383.4 762.45-2.42 1382.7 614.41 1384.5 1376.8.032 1.547.032 2.852.032 4.399z" transform="translate(-149.86 1690.5)" fill="#efef00"/><path id="path608" d="M296.75 2625.1c.582 762.45-617.7 1381.2-1380.1 1381.2-762.45 1.21-1381.8-616.6-1382.4-1379-1.84-762.46 615.48-1382.2 1378-1383.4 762.45-2.42 1382.7 614.41 1384.5 1376.8.032 1.55.032 2.86.032 4.4zm-27.624 0c.57 747.2-605.35 1353.6-1352.5 1353.6-747.2 1.18-1354.1-604.27-1354.7-1351.5-1.81-747.21 603.16-1354.6 1350.4-1355.8 747.2-2.38 1355 602.11 1356.8 1349.3.032 1.52.032 2.8.032 4.31z" transform="matrix(.98 0 0 .98 -781.88 -1562.1)"/><path id="path609" d="M296.75 2625.1c.582 762.45-617.7 1381.2-1380.1 1381.2-762.45 1.21-1381.8-616.6-1382.4-1379-1.84-762.46 615.48-1382.2 1378-1383.4 762.45-2.42 1382.7 614.41 1384.5 1376.8.032 1.55.032 2.86.032 4.4zm-27.624 0c.57 747.2-605.35 1353.6-1352.5 1353.6-747.2 1.18-1354.1-604.27-1354.7-1351.5-1.81-747.21 603.16-1354.6 1350.4-1355.8 747.2-2.38 1355 602.11 1356.8 1349.3.032 1.52.032 2.8.032 4.31z" transform="translate(-922.69 -1221.3) scale(.85016)"/></g><g id="g883" transform="matrix(1 0 0 .98355 9.384 52.807)"><path id="rect872" d="M1528.3 376.91h171.54v2824.2H1528.3z"/><path id="rect871" fill="#efef00" d="M1548.3 404.6h131.37v2768.8H1548.3z"/><g id="g877" transform="translate(9.384)"><path id="rect875" d="M1482.6 357.96h56.303v2852.7H1482.6z"/><path id="rect876" fill="#efef00" d="M1502.8 383.29h15.952v2802H1502.8z"/></g><g id="g880" transform="translate(197.06)"><path id="rect881" d="M1482.6 357.96h56.303v2852.7H1482.6z"/><path id="rect882" fill="#efef00" d="M1502.8 383.29h15.952v2802H1502.8z"/></g></g><g id="g892" transform="matrix(.3714 1.0146 -.43278 .08892 1148.7 461.89)"><path id="rect893" d="M1528.3 376.91h171.54v2824.2H1528.3z"/><path id="rect894" fill="#efef00" d="M1548.3 404.6h131.37v2768.8H1548.3z"/><g id="g895" transform="translate(9.384)"><path id="rect896" d="M1482.6 357.96h56.303v2852.7H1482.6z"/><path id="rect897" fill="#efef00" d="M1502.8 383.29h15.952v2802H1502.8z"/></g><g id="g1963" transform="translate(197.06)"><path id="rect899" d="M1482.6 357.96h56.303v2852.7H1482.6z"/><path id="rect1965" fill="#efef00" d="M1502.8 383.29h15.952v2802H1502.8z"/></g></g><g id="g901" transform="matrix(.04818 1.0353 -.45375 .04928 1585.8 -73.118)"><path id="rect902" d="M1528.3 376.91h171.54v2824.2H1528.3z"/><path id="rect1968" fill="#efef00" d="M1548.3 404.6h131.37v2768.8H1548.3z"/><g id="g904" transform="translate(9.384)"><path id="rect905" d="M1482.6 357.96h56.303v2852.7H1482.6z"/><path id="rect906" fill="#efef00" d="M1502.8 383.29h15.952v2802H1502.8z"/></g><g id="g907" transform="translate(197.06)"><path id="rect908" d="M1482.6 357.96h56.303v2852.7H1482.6z"/><path id="rect909" fill="#efef00" d="M1502.8 383.29h15.952v2802H1502.8z"/></g></g><g id="g910" transform="matrix(-.61913 .96221 -.38214 -.16868 2610.1 86.531)"><path id="rect911" d="M1528.3 376.91h171.54v2824.2H1528.3z"/><path id="rect912" fill="#efef00" d="M1548.3 404.6h131.37v2768.8H1548.3z"/><g id="g1978" transform="translate(9.384)"><path id="rect1979" d="M1482.6 357.96h56.303v2852.7H1482.6z"/><path id="rect915" fill="#efef00" d="M1502.8 383.29h15.952v2802H1502.8z"/></g><g id="g1981" transform="translate(197.06)"><path id="rect1982" d="M1482.6 357.96h56.303v2852.7H1482.6z"/><path id="rect918" fill="#efef00" d="M1502.8 383.29h15.952v2802H1502.8z"/></g></g><g id="g946" transform="matrix(-.0134 1.0347 -.45603 -.02215 3190.7 -29.14)"><path id="rect947" d="M1528.3 376.91h171.54v2824.2H1528.3z"/><path id="rect948" fill="#efef00" d="M1548.3 404.6h131.37v2768.8H1548.3z"/><g id="g949" transform="translate(9.384)"><path id="rect950" d="M1482.6 357.96h56.303v2852.7H1482.6z"/><path id="rect951" fill="#efef00" d="M1502.8 383.29h15.952v2802H1502.8z"/></g><g id="g952" transform="translate(197.06)"><path id="rect953" d="M1482.6 357.96h56.303v2852.7H1482.6z"/><path id="rect954" fill="#efef00" d="M1502.8 383.29h15.952v2802H1502.8z"/></g></g><g id="g964" transform="matrix(.29417 .92656 -.37653 -.01188 2458.6 -379.7)"><path id="rect965" d="M1528.3 376.91h171.54v2824.2H1528.3z"/><path id="rect966" fill="#efef00" d="M1548.3 404.6h131.37v2768.8H1548.3z"/><g id="g967" transform="translate(9.384)"><path id="rect968" d="M1482.6 357.96h56.303v2852.7H1482.6z"/><path id="rect969" fill="#efef00" d="M1502.8 383.29h15.952v2802H1502.8z"/></g><g id="g970" transform="translate(197.06)"><path id="rect971" d="M1482.6 357.96h56.303v2852.7H1482.6z"/><path id="rect972" fill="#efef00" d="M1502.8 383.29h15.952v2802H1502.8z"/></g></g><g id="g973" transform="matrix(-.44645 .96157 -.41974 -.15349 3749.8 876.84)"><path id="rect974" d="M1528.3 376.91h171.54v2824.2H1528.3z"/><path id="rect975" fill="#efef00" d="M1548.3 404.6h131.37v2768.8H1548.3z"/><g id="g976" transform="translate(9.384)"><path id="rect977" d="M1482.6 357.96h56.303v2852.7H1482.6z"/><path id="rect978" fill="#efef00" d="M1502.8 383.29h15.952v2802H1502.8z"/></g><g id="g979" transform="translate(197.06)"><path id="rect980" d="M1482.6 357.96h56.303v2852.7H1482.6z"/><path id="rect981" fill="#efef00" d="M1502.8 383.29h15.952v2802H1502.8z"/></g></g><g id="g1287"><g id="g2012" transform="translate(388.6 -627.37)"><g id="g2013" transform="translate(1261.6 8670.4)" fill="#f6f6fb"><g id="g2014"><path id="rect2015" d="M-850.89-7147h1590.9v1171.1h-1590.9z"/><ellipse id="path2016" transform="matrix(1.0746 0 0 1.0635 -3130.4 -10547)" cx="2861.4" rx="740.21" cy="4267.3" ry="696.02"/></g><g id="g2017" transform="translate(-5963.8 -3463.6)"><path id="rect2018" d="M5478.8-3340.7h859.09v632.38H5478.8z"/><ellipse id="path2019" transform="matrix(.5803 0 0 .57429 4247.9 -5088.5)" cx="2861.4" rx="740.21" cy="4267.3" ry="696.02"/></g></g><g id="g2020" transform="translate(-4610.5 4587.5)"><g id="g2021" transform="matrix(.95 0 0 .95 5869.2 3772.5)" fill="red"><g id="g2022"><path id="rect2023" d="M-850.89-7147h1590.9v1171.1h-1590.9z"/><ellipse id="path2024" transform="matrix(1.0746 0 0 1.0635 -3130.4 -10547)" cx="2861.4" rx="740.21" cy="4267.3" ry="696.02"/></g><g id="g2025" transform="translate(-5963.8 -3463.6)"><path id="rect2026" d="M5478.8-3340.7h859.09v632.38H5478.8z"/><ellipse id="path2027" transform="matrix(.5803 0 0 .57429 4247.9 -5088.5)" cx="2861.4" rx="740.21" cy="4267.3" ry="696.02"/></g></g><g id="g2028" transform="matrix(.567 0 0 .567 5848 1394.8)" fill="#400"><g id="g2029"><path id="rect2030" d="M-850.89-7147h1590.9v1171.1h-1590.9z"/><ellipse id="path2031" transform="matrix(1.0746 0 0 1.0635 -3130.4 -10547)" cx="2861.4" rx="740.21" cy="4267.3" ry="696.02"/></g><g id="g2032" transform="translate(-5963.8 -3463.6)"><path id="rect2033" d="M5478.8-3340.7h859.09v632.38H5478.8z"/><ellipse id="path2034" transform="matrix(.5803 0 0 .57429 4247.9 -5088.5)" cx="2861.4" rx="740.21" cy="4267.3" ry="696.02"/></g></g><g id="g2035" transform="translate(5844.9 1051.6) scale(.51172)" fill="#fff"><g id="g2036"><path id="rect2037" d="M-850.89-7147h1590.9v1171.1h-1590.9z"/><ellipse id="path2038" transform="matrix(1.0746 0 0 1.0635 -3130.4 -10547)" cx="2861.4" rx="740.21" cy="4267.3" ry="696.02"/></g><g id="g2039" transform="translate(-5963.8 -3463.6)"><path id="rect2040" d="M5478.8-3340.7h859.09v632.38H5478.8z"/><ellipse id="path2041" transform="matrix(.5803 0 0 .57429 4247.9 -5088.5)" cx="2861.4" rx="740.21" cy="4267.3" ry="696.02"/></g></g></g></g><g id="g2042" transform="translate(-1370 3907.3)"><g id="g2043" transform="matrix(.15 0 0 .15 2790 -2140.7)" fill="#3b3bff"><g id="g2044" transform="translate(1261.6 8670.4)"><g id="g2045"><path id="rect2046" d="M-850.89-7147h1590.9v1171.1h-1590.9z"/><ellipse id="path2047" transform="matrix(1.0746 0 0 1.0635 -3130.4 -10547)" cx="2861.4" rx="740.21" cy="4267.3" ry="696.02"/></g><g id="g2048" transform="translate(-5963.8 -3463.6)"><path id="rect2049" d="M5478.8-3340.7h859.09v632.38H5478.8z"/><ellipse id="path2050" transform="matrix(.5803 0 0 .57429 4247.9 -5088.5)" cx="2861.4" rx="740.21" cy="4267.3" ry="696.02"/></g></g><g id="g2051" transform="translate(-4610.5 4587.5)"><g id="g2052" transform="matrix(.95 0 0 .95 5869.2 3772.5)"><g id="g2053"><path id="rect2054" d="M-850.89-7147h1590.9v1171.1h-1590.9z"/><ellipse id="path2055" transform="matrix(1.0746 0 0 1.0635 -3130.4 -10547)" cx="2861.4" rx="740.21" cy="4267.3" ry="696.02"/></g><g id="g2056" transform="translate(-5963.8 -3463.6)"><path id="rect2057" d="M5478.8-3340.7h859.09v632.38H5478.8z"/><ellipse id="path2058" transform="matrix(.5803 0 0 .57429 4247.9 -5088.5)" cx="2861.4" rx="740.21" cy="4267.3" ry="696.02"/></g></g><g id="g2059" transform="matrix(.567 0 0 .567 5848 1394.8)"><g id="g2060"><path id="rect2061" d="M-850.89-7147h1590.9v1171.1h-1590.9z"/><ellipse id="path2062" transform="matrix(1.0746 0 0 1.0635 -3130.4 -10547)" cx="2861.4" rx="740.21" cy="4267.3" ry="696.02"/></g><g id="g2063" transform="translate(-5963.8 -3463.6)"><path id="rect2064" d="M5478.8-3340.7h859.09v632.38H5478.8z"/><ellipse id="path2065" transform="matrix(.5803 0 0 .57429 4247.9 -5088.5)" cx="2861.4" rx="740.21" cy="4267.3" ry="696.02"/></g></g><g id="g2066" transform="translate(5844.9 1051.6) scale(.51172)"><g id="g2067"><path id="rect2068" d="M-850.89-7147h1590.9v1171.1h-1590.9z"/><ellipse id="path2069" transform="matrix(1.0746 0 0 1.0635 -3130.4 -10547)" cx="2861.4" rx="740.21" cy="4267.3" ry="696.02"/></g><g id="g2070" transform="translate(-5963.8 -3463.6)"><path id="rect2071" d="M5478.8-3340.7h859.09v632.38H5478.8z"/><ellipse id="path2072" transform="matrix(.5803 0 0 .57429 4247.9 -5088.5)" cx="2861.4" rx="740.21" cy="4267.3" ry="696.02"/></g></g></g></g><ellipse id="path2073" fill="#fff" transform="translate(-3.782 -7.563)" cx="2903" rx="35.688" cy="-1854.9" ry="35.688"/><ellipse id="path2074" fill="#fff" transform="translate(129.99 -7.563)" cx="2903" rx="35.688" cy="-1854.9" ry="35.688"/><ellipse id="path2075" fill="#fff" transform="translate(61.922 67.595)" cx="2903" rx="35.688" cy="-1854.9" ry="35.688"/><ellipse id="path2076" fill="#fff" transform="translate(1.418 140.39)" cx="2903" rx="35.688" cy="-1854.9" ry="35.688"/><ellipse id="path2077" fill="#fff" transform="translate(128.57 142.75)" cx="2903" rx="35.688" cy="-1854.9" ry="35.688"/></g><path id="path2078" d="M-433.9 545.04v22.689h302.52V545.04H-433.9zm26.249-62.601v63.152h257.14v-63.152h-257.14zm-22.688 207.62v22.692h302.52v-22.692h-302.52zm81.069-7.017c-.031-41.191 31.622-74.621 70.654-74.621 39.033-.066 70.737 33.311 70.768 74.502 0 .327-.001.602-.004.928m-149.28 3.292c-.034-45.769 35.136-82.913 78.505-82.913 43.37-.073 78.596 37.012 78.63 82.78.001.363 0 .669-.004 1.031m-207.65-114.09v113.44h257.14v-113.44h-257.14zm-26.26-113.15v21.46h302.52v-21.46h-302.52zm-.027-30.268v30.484h23.308v-30.484h-23.308zm279.36 0v30.484h23.308v-30.484h-23.308zm-232.9.612v30.484h23.308v-30.484h-23.308zm185.22-.618v30.484h23.308v-30.484h-23.308zm-139.99-28.725v30.484h23.308v-30.484h-23.308zm92.917-.006v30.484h23.308v-30.484h-23.308zm-45.236-.612v30.484h23.308v-30.484h-23.308zm-47.745 31.32v29.144h116.15v-29.144h-116.15z" transform="translate(1296.7 561.41)" fill="#ff0"/><g id="g2079" fill="red" transform="translate(1302.4 561.96)"><path id="rect2080" d="M-348.96 477.6h23.308v30.484h-23.308z"/><path id="rect2081" d="M-244.43 476.98h23.308v30.484h-23.308z"/></g><path id="path2082" d="M-433.9 545.04v22.689h302.52V545.04H-433.9zm26.249-62.601v63.152h257.14v-63.152h-257.14zm-22.688 207.62v22.692h302.52v-22.692h-302.52zm81.069-7.017c-.031-41.191 31.622-74.621 70.654-74.621 39.033-.066 70.737 33.311 70.768 74.502 0 .327-.001.602-.004.928m-149.28 3.292c-.034-45.769 35.136-82.913 78.505-82.913 43.37-.073 78.596 37.012 78.63 82.78.001.363 0 .669-.004 1.031m-207.65-114.09v113.44h257.14v-113.44h-257.14zm-26.26-113.15v21.46h302.52v-21.46h-302.52zm-.027-30.268v30.484h23.308v-30.484h-23.308zm279.36 0v30.484h23.308v-30.484h-23.308zm-232.9.612v30.484h23.308v-30.484h-23.308zm185.22-.618v30.484h23.308v-30.484h-23.308zm-139.99-28.725v30.484h23.308v-30.484h-23.308zm92.917-.006v30.484h23.308v-30.484h-23.308zm-45.236-.612v30.484h23.308v-30.484h-23.308zm-47.745 31.32v29.144h116.15v-29.144h-116.15z" transform="translate(2457.9 565.04)" fill="#ff0"/><g id="g2083" fill="red" transform="translate(2463.5 565.59)"><path id="rect2084" d="M-348.96 477.6h23.308v30.484h-23.308z"/><path id="rect2085" d="M-244.43 476.98h23.308v30.484h-23.308z"/></g><path id="path2086" d="M-433.9 545.04v22.689h302.52V545.04H-433.9zm26.249-62.601v63.152h257.14v-63.152h-257.14zm-22.688 207.62v22.692h302.52v-22.692h-302.52zm81.069-7.017c-.031-41.191 31.622-74.621 70.654-74.621 39.033-.066 70.737 33.311 70.768 74.502 0 .327-.001.602-.004.928m-149.28 3.292c-.034-45.769 35.136-82.913 78.505-82.913 43.37-.073 78.596 37.012 78.63 82.78.001.363 0 .669-.004 1.031m-207.65-114.09v113.44h257.14v-113.44h-257.14zm-26.26-113.15v21.46h302.52v-21.46h-302.52zm-.027-30.268v30.484h23.308v-30.484h-23.308zm279.36 0v30.484h23.308v-30.484h-23.308zm-232.9.612v30.484h23.308v-30.484h-23.308zm185.22-.618v30.484h23.308v-30.484h-23.308zm-139.99-28.725v30.484h23.308v-30.484h-23.308zm92.917-.006v30.484h23.308v-30.484h-23.308zm-45.236-.612v30.484h23.308v-30.484h-23.308zm-47.745 31.32v29.144h116.15v-29.144h-116.15z" transform="translate(1888.2 565.04)" fill="#ff0"/><g id="g2087" fill="red" transform="translate(1893.8 565.59)"><path id="rect2088" d="M-348.96 477.6h23.308v30.484h-23.308z"/><path id="rect2089" d="M-244.43 476.98h23.308v30.484h-23.308z"/></g><path id="path2090" d="M-433.9 545.04v22.689h302.52V545.04H-433.9zm26.249-62.601v63.152h257.14v-63.152h-257.14zm-22.688 207.62v22.692h302.52v-22.692h-302.52zm81.069-7.017c-.031-41.191 31.622-74.621 70.654-74.621 39.033-.066 70.737 33.311 70.768 74.502 0 .327-.001.602-.004.928m-149.28 3.292c-.034-45.769 35.136-82.913 78.505-82.913 43.37-.073 78.596 37.012 78.63 82.78.001.363 0 .669-.004 1.031m-207.65-114.09v113.44h257.14v-113.44h-257.14zm-26.26-113.15v21.46h302.52v-21.46h-302.52zm-.027-30.268v30.484h23.308v-30.484h-23.308zm279.36 0v30.484h23.308v-30.484h-23.308zm-232.9.612v30.484h23.308v-30.484h-23.308zm185.22-.618v30.484h23.308v-30.484h-23.308zm-139.99-28.725v30.484h23.308v-30.484h-23.308zm92.917-.006v30.484h23.308v-30.484h-23.308zm-45.236-.612v30.484h23.308v-30.484h-23.308zm-47.745 31.32v29.144h116.15v-29.144h-116.15z" transform="translate(1271.3 1272.6)" fill="#ff0"/><g id="g2091" fill="red" transform="translate(1277 1273.2)"><path id="rect2092" d="M-348.96 477.6h23.308v30.484h-23.308z"/><path id="rect2093" d="M-244.43 476.98h23.308v30.484h-23.308z"/></g><path id="path2094" d="M-433.9 545.04v22.689h302.52V545.04H-433.9zm26.249-62.601v63.152h257.14v-63.152h-257.14zm-22.688 207.62v22.692h302.52v-22.692h-302.52zm81.069-7.017c-.031-41.191 31.622-74.621 70.654-74.621 39.033-.066 70.737 33.311 70.768 74.502 0 .327-.001.602-.004.928m-149.28 3.292c-.034-45.769 35.136-82.913 78.505-82.913 43.37-.073 78.596 37.012 78.63 82.78.001.363 0 .669-.004 1.031m-207.65-114.09v113.44h257.14v-113.44h-257.14zm-26.26-113.15v21.46h302.52v-21.46h-302.52zm-.027-30.268v30.484h23.308v-30.484h-23.308zm279.36 0v30.484h23.308v-30.484h-23.308zm-232.9.612v30.484h23.308v-30.484h-23.308zm185.22-.618v30.484h23.308v-30.484h-23.308zm-139.99-28.725v30.484h23.308v-30.484h-23.308zm92.917-.006v30.484h23.308v-30.484h-23.308zm-45.236-.612v30.484h23.308v-30.484h-23.308zm-47.745 31.32v29.144h116.15v-29.144h-116.15z" transform="translate(2479.7 1265.4)" fill="#ff0"/><g id="g2095" fill="red" transform="translate(2485.3 1265.9)"><path id="rect2096" d="M-348.96 477.6h23.308v30.484h-23.308z"/><path id="rect2097" d="M-244.43 476.98h23.308v30.484h-23.308z"/></g><path id="path2098" d="M-433.9 545.04v22.689h302.52V545.04H-433.9zm26.249-62.601v63.152h257.14v-63.152h-257.14zm-22.688 207.62v22.692h302.52v-22.692h-302.52zm81.069-7.017c-.031-41.191 31.622-74.621 70.654-74.621 39.033-.066 70.737 33.311 70.768 74.502 0 .327-.001.602-.004.928m-149.28 3.292c-.034-45.769 35.136-82.913 78.505-82.913 43.37-.073 78.596 37.012 78.63 82.78.001.363 0 .669-.004 1.031m-207.65-114.09v113.44h257.14v-113.44h-257.14zm-26.26-113.15v21.46h302.52v-21.46h-302.52zm-.027-30.268v30.484h23.308v-30.484h-23.308zm279.36 0v30.484h23.308v-30.484h-23.308zm-232.9.612v30.484h23.308v-30.484h-23.308zm185.22-.618v30.484h23.308v-30.484h-23.308zm-139.99-28.725v30.484h23.308v-30.484h-23.308zm92.917-.006v30.484h23.308v-30.484h-23.308zm-45.236-.612v30.484h23.308v-30.484h-23.308zm-47.745 31.32v29.144h116.15v-29.144h-116.15z" transform="rotate(-49.25 2469.327 -147.988)" fill="#ff0"/><g id="g2099" fill="red" transform="rotate(-49.25 2467.118 -154.4)"><path id="rect2100" d="M-348.96 477.6h23.308v30.484h-23.308z"/><path id="rect2101" d="M-244.43 476.98h23.308v30.484h-23.308z"/></g><path id="path2102" d="M-433.9 545.04v22.689h302.52V545.04H-433.9zm26.249-62.601v63.152h257.14v-63.152h-257.14zm-22.688 207.62v22.692h302.52v-22.692h-302.52zm81.069-7.017c-.031-41.191 31.622-74.621 70.654-74.621 39.033-.066 70.737 33.311 70.768 74.502 0 .327-.001.602-.004.928m-149.28 3.292c-.034-45.769 35.136-82.913 78.505-82.913 43.37-.073 78.596 37.012 78.63 82.78.001.363 0 .669-.004 1.031m-207.65-114.09v113.44h257.14v-113.44h-257.14zm-26.26-113.15v21.46h302.52v-21.46h-302.52zm-.027-30.268v30.484h23.308v-30.484h-23.308zm279.36 0v30.484h23.308v-30.484h-23.308zm-232.9.612v30.484h23.308v-30.484h-23.308zm185.22-.618v30.484h23.308v-30.484h-23.308zm-139.99-28.725v30.484h23.308v-30.484h-23.308zm92.917-.006v30.484h23.308v-30.484h-23.308zm-45.236-.612v30.484h23.308v-30.484h-23.308zm-47.745 31.32v29.144h116.15v-29.144h-116.15z" transform="scale(-1 1) rotate(-49.25 865.121 3341.484)" fill="#ff0"/><g id="g2103" fill="red" transform="scale(-1 1) rotate(-49.25 862.917 3335.062)"><path id="rect2104" d="M-348.96 477.6h23.308v30.484h-23.308z"/><path id="rect2105" d="M-244.43 476.98h23.308v30.484h-23.308z"/></g><g id="g2106" transform="translate(-1377.6 3272)"><g id="g2107" transform="translate(3.781 11.344)"><g id="g2108" transform="matrix(.15 0 0 .15 2790 -2140.7)" fill="#3b3bff"><g id="g2109" transform="translate(1261.6 8670.4)"><g id="g2110"><path id="rect2111" d="M-850.89-7147h1590.9v1171.1h-1590.9z"/><ellipse id="path2112" transform="matrix(1.0746 0 0 1.0635 -3130.4 -10547)" cx="2861.4" rx="740.21" cy="4267.3" ry="696.02"/></g><g id="g2113" transform="translate(-5963.8 -3463.6)"><path id="rect2114" d="M5478.8-3340.7h859.09v632.38H5478.8z"/><ellipse id="path2115" transform="matrix(.5803 0 0 .57429 4247.9 -5088.5)" cx="2861.4" rx="740.21" cy="4267.3" ry="696.02"/></g></g><g id="g2116" transform="translate(-4610.5 4587.5)"><g id="g2117" transform="matrix(.95 0 0 .95 5869.2 3772.5)"><g id="g2118"><path id="rect1155" d="M-850.89-7147h1590.9v1171.1h-1590.9z"/><ellipse id="path2120" transform="matrix(1.0746 0 0 1.0635 -3130.4 -10547)" cx="2861.4" rx="740.21" cy="4267.3" ry="696.02"/></g><g id="g2121" transform="translate(-5963.8 -3463.6)"><path id="rect1158" d="M5478.8-3340.7h859.09v632.38H5478.8z"/><ellipse id="path2123" transform="matrix(.5803 0 0 .57429 4247.9 -5088.5)" cx="2861.4" rx="740.21" cy="4267.3" ry="696.02"/></g></g><g id="g2124" transform="matrix(.567 0 0 .567 5848 1394.8)"><g id="g2125"><path id="rect2126" d="M-850.89-7147h1590.9v1171.1h-1590.9z"/><ellipse id="path2127" transform="matrix(1.0746 0 0 1.0635 -3130.4 -10547)" cx="2861.4" rx="740.21" cy="4267.3" ry="696.02"/></g><g id="g2128" transform="translate(-5963.8 -3463.6)"><path id="rect2129" d="M5478.8-3340.7h859.09v632.38H5478.8z"/><ellipse id="path2130" transform="matrix(.5803 0 0 .57429 4247.9 -5088.5)" cx="2861.4" rx="740.21" cy="4267.3" ry="696.02"/></g></g><g id="g2131" transform="translate(5844.9 1051.6) scale(.51172)"><g id="g1168"><path id="rect1169" d="M-850.89-7147h1590.9v1171.1h-1590.9z"/><ellipse id="path2134" transform="matrix(1.0746 0 0 1.0635 -3130.4 -10547)" cx="2861.4" rx="740.21" cy="4267.3" ry="696.02"/></g><g id="g2135" transform="translate(-5963.8 -3463.6)"><path id="rect2136" d="M5478.8-3340.7h859.09v632.38H5478.8z"/><ellipse id="path2137" transform="matrix(.5803 0 0 .57429 4247.9 -5088.5)" cx="2861.4" rx="740.21" cy="4267.3" ry="696.02"/></g></g></g></g><ellipse id="path2138" fill="#fff" transform="translate(-3.782 -7.563)" cx="2903" rx="35.688" cy="-1854.9" ry="35.688"/><ellipse id="path2139" fill="#fff" transform="translate(129.99 -7.563)" cx="2903" rx="35.688" cy="-1854.9" ry="35.688"/><ellipse id="path2140" fill="#fff" transform="translate(61.922 67.595)" cx="2903" rx="35.688" cy="-1854.9" ry="35.688"/><ellipse id="path2141" fill="#fff" transform="translate(1.418 140.39)" cx="2903" rx="35.688" cy="-1854.9" ry="35.688"/><ellipse id="path2142" fill="#fff" transform="translate(128.57 142.75)" cx="2903" rx="35.688" cy="-1854.9" ry="35.688"/></g><g id="g2143" transform="translate(3.782 321.43)"><g id="g2144" transform="matrix(.15 0 0 .15 2790 -2140.7)" fill="#3b3bff"><g id="g2145" transform="translate(1261.6 8670.4)"><g id="g2146"><path id="rect2147" d="M-850.89-7147h1590.9v1171.1h-1590.9z"/><ellipse id="path2148" transform="matrix(1.0746 0 0 1.0635 -3130.4 -10547)" cx="2861.4" rx="740.21" cy="4267.3" ry="696.02"/></g><g id="g2149" transform="translate(-5963.8 -3463.6)"><path id="rect2150" d="M5478.8-3340.7h859.09v632.38H5478.8z"/><ellipse id="path2151" transform="matrix(.5803 0 0 .57429 4247.9 -5088.5)" cx="2861.4" rx="740.21" cy="4267.3" ry="696.02"/></g></g><g id="g2152" transform="translate(-4610.5 4587.5)"><g id="g2153" transform="matrix(.95 0 0 .95 5869.2 3772.5)"><g id="g2154"><path id="rect2155" d="M-850.89-7147h1590.9v1171.1h-1590.9z"/><ellipse id="path2156" transform="matrix(1.0746 0 0 1.0635 -3130.4 -10547)" cx="2861.4" rx="740.21" cy="4267.3" ry="696.02"/></g><g id="g2157" transform="translate(-5963.8 -3463.6)"><path id="rect2158" d="M5478.8-3340.7h859.09v632.38H5478.8z"/><ellipse id="path2159" transform="matrix(.5803 0 0 .57429 4247.9 -5088.5)" cx="2861.4" rx="740.21" cy="4267.3" ry="696.02"/></g></g><g id="g2160" transform="matrix(.567 0 0 .567 5848 1394.8)"><g id="g2161"><path id="rect2162" d="M-850.89-7147h1590.9v1171.1h-1590.9z"/><ellipse id="path2163" transform="matrix(1.0746 0 0 1.0635 -3130.4 -10547)" cx="2861.4" rx="740.21" cy="4267.3" ry="696.02"/></g><g id="g2164" transform="translate(-5963.8 -3463.6)"><path id="rect2165" d="M5478.8-3340.7h859.09v632.38H5478.8z"/><ellipse id="path2166" transform="matrix(.5803 0 0 .57429 4247.9 -5088.5)" cx="2861.4" rx="740.21" cy="4267.3" ry="696.02"/></g></g><g id="g2167" transform="translate(5844.9 1051.6) scale(.51172)"><g id="g2168"><path id="rect2169" d="M-850.89-7147h1590.9v1171.1h-1590.9z"/><ellipse id="path2170" transform="matrix(1.0746 0 0 1.0635 -3130.4 -10547)" cx="2861.4" rx="740.21" cy="4267.3" ry="696.02"/></g><g id="g2171" transform="translate(-5963.8 -3463.6)"><path id="rect2172" d="M5478.8-3340.7h859.09v632.38H5478.8z"/><ellipse id="path2173" transform="matrix(.5803 0 0 .57429 4247.9 -5088.5)" cx="2861.4" rx="740.21" cy="4267.3" ry="696.02"/></g></g></g></g><ellipse id="path2174" fill="#fff" transform="translate(-3.782 -7.563)" cx="2903" rx="35.688" cy="-1854.9" ry="35.688"/><ellipse id="path2175" fill="#fff" transform="translate(129.99 -7.563)" cx="2903" rx="35.688" cy="-1854.9" ry="35.688"/><ellipse id="path2176" fill="#fff" transform="translate(61.922 67.595)" cx="2903" rx="35.688" cy="-1854.9" ry="35.688"/><ellipse id="path2177" fill="#fff" transform="translate(1.418 140.39)" cx="2903" rx="35.688" cy="-1854.9" ry="35.688"/><ellipse id="path2178" fill="#fff" transform="translate(128.57 142.75)" cx="2903" rx="35.688" cy="-1854.9" ry="35.688"/></g><g id="g1215" transform="translate(268.49 321.43)"><g id="g2180" transform="matrix(.15 0 0 .15 2790 -2140.7)" fill="#3b3bff"><g id="g2181" transform="translate(1261.6 8670.4)"><g id="g2182"><path id="rect2183" d="M-850.89-7147h1590.9v1171.1h-1590.9z"/><ellipse id="path2184" transform="matrix(1.0746 0 0 1.0635 -3130.4 -10547)" cx="2861.4" rx="740.21" cy="4267.3" ry="696.02"/></g><g id="g2185" transform="translate(-5963.8 -3463.6)"><path id="rect2186" d="M5478.8-3340.7h859.09v632.38H5478.8z"/><ellipse id="path2187" transform="matrix(.5803 0 0 .57429 4247.9 -5088.5)" cx="2861.4" rx="740.21" cy="4267.3" ry="696.02"/></g></g><g id="g2188" transform="translate(-4610.5 4587.5)"><g id="g2189" transform="matrix(.95 0 0 .95 5869.2 3772.5)"><g id="g2190"><path id="rect2191" d="M-850.89-7147h1590.9v1171.1h-1590.9z"/><ellipse id="path2192" transform="matrix(1.0746 0 0 1.0635 -3130.4 -10547)" cx="2861.4" rx="740.21" cy="4267.3" ry="696.02"/></g><g id="g2193" transform="translate(-5963.8 -3463.6)"><path id="rect2194" d="M5478.8-3340.7h859.09v632.38H5478.8z"/><ellipse id="path2195" transform="matrix(.5803 0 0 .57429 4247.9 -5088.5)" cx="2861.4" rx="740.21" cy="4267.3" ry="696.02"/></g></g><g id="g2196" transform="matrix(.567 0 0 .567 5848 1394.8)"><g id="g1233"><path id="rect1234" d="M-850.89-7147h1590.9v1171.1h-1590.9z"/><ellipse id="path2199" transform="matrix(1.0746 0 0 1.0635 -3130.4 -10547)" cx="2861.4" rx="740.21" cy="4267.3" ry="696.02"/></g><g id="g2200" transform="translate(-5963.8 -3463.6)"><path id="rect2201" d="M5478.8-3340.7h859.09v632.38H5478.8z"/><ellipse id="path2202" transform="matrix(.5803 0 0 .57429 4247.9 -5088.5)" cx="2861.4" rx="740.21" cy="4267.3" ry="696.02"/></g></g><g id="g2203" transform="translate(5844.9 1051.6) scale(.51172)"><g id="g2204"><path id="rect2205" d="M-850.89-7147h1590.9v1171.1h-1590.9z"/><ellipse id="path2206" transform="matrix(1.0746 0 0 1.0635 -3130.4 -10547)" cx="2861.4" rx="740.21" cy="4267.3" ry="696.02"/></g><g id="g2207" transform="translate(-5963.8 -3463.6)"><path id="rect2208" d="M5478.8-3340.7h859.09v632.38H5478.8z"/><ellipse id="path2209" transform="matrix(.5803 0 0 .57429 4247.9 -5088.5)" cx="2861.4" rx="740.21" cy="4267.3" ry="696.02"/></g></g></g></g><ellipse id="path2210" fill="#fff" transform="translate(-3.782 -7.563)" cx="2903" rx="35.688" cy="-1854.9" ry="35.688"/><ellipse id="path2211" fill="#fff" transform="translate(129.99 -7.563)" cx="2903" rx="35.688" cy="-1854.9" ry="35.688"/><ellipse id="path2212" fill="#fff" transform="translate(61.922 67.595)" cx="2903" rx="35.688" cy="-1854.9" ry="35.688"/><ellipse id="path2213" fill="#fff" transform="translate(1.418 140.39)" cx="2903" rx="35.688" cy="-1854.9" ry="35.688"/><ellipse id="path2214" fill="#fff" transform="translate(128.57 142.75)" cx="2903" rx="35.688" cy="-1854.9" ry="35.688"/></g><g id="g2215" transform="translate(-260.92 321.43)"><g id="g2216" transform="matrix(.15 0 0 .15 2790 -2140.7)" fill="#3b3bff"><g id="g2217" transform="translate(1261.6 8670.4)"><g id="g2218"><path id="rect2219" d="M-850.89-7147h1590.9v1171.1h-1590.9z"/><ellipse id="path2220" transform="matrix(1.0746 0 0 1.0635 -3130.4 -10547)" cx="2861.4" rx="740.21" cy="4267.3" ry="696.02"/></g><g id="g2221" transform="translate(-5963.8 -3463.6)"><path id="rect2222" d="M5478.8-3340.7h859.09v632.38H5478.8z"/><ellipse id="path2223" transform="matrix(.5803 0 0 .57429 4247.9 -5088.5)" cx="2861.4" rx="740.21" cy="4267.3" ry="696.02"/></g></g><g id="g2224" transform="translate(-4610.5 4587.5)"><g id="g2225" transform="matrix(.95 0 0 .95 5869.2 3772.5)"><g id="g2226"><path id="rect2227" d="M-850.89-7147h1590.9v1171.1h-1590.9z"/><ellipse id="path2228" transform="matrix(1.0746 0 0 1.0635 -3130.4 -10547)" cx="2861.4" rx="740.21" cy="4267.3" ry="696.02"/></g><g id="g2229" transform="translate(-5963.8 -3463.6)"><path id="rect2230" d="M5478.8-3340.7h859.09v632.38H5478.8z"/><ellipse id="path2231" transform="matrix(.5803 0 0 .57429 4247.9 -5088.5)" cx="2861.4" rx="740.21" cy="4267.3" ry="696.02"/></g></g><g id="g2232" transform="matrix(.567 0 0 .567 5848 1394.8)"><g id="g2233"><path id="rect2234" d="M-850.89-7147h1590.9v1171.1h-1590.9z"/><ellipse id="path2235" transform="matrix(1.0746 0 0 1.0635 -3130.4 -10547)" cx="2861.4" rx="740.21" cy="4267.3" ry="696.02"/></g><g id="g2236" transform="translate(-5963.8 -3463.6)"><path id="rect2237" d="M5478.8-3340.7h859.09v632.38H5478.8z"/><ellipse id="path2238" transform="matrix(.5803 0 0 .57429 4247.9 -5088.5)" cx="2861.4" rx="740.21" cy="4267.3" ry="696.02"/></g></g><g id="g2239" transform="translate(5844.9 1051.6) scale(.51172)"><g id="g2240"><path id="rect2241" d="M-850.89-7147h1590.9v1171.1h-1590.9z"/><ellipse id="path2242" transform="matrix(1.0746 0 0 1.0635 -3130.4 -10547)" cx="2861.4" rx="740.21" cy="4267.3" ry="696.02"/></g><g id="g2243" transform="translate(-5963.8 -3463.6)"><path id="rect2244" d="M5478.8-3340.7h859.09v632.38H5478.8z"/><ellipse id="path2245" transform="matrix(.5803 0 0 .57429 4247.9 -5088.5)" cx="2861.4" rx="740.21" cy="4267.3" ry="696.02"/></g></g></g></g><ellipse id="path2246" fill="#fff" transform="translate(-3.782 -7.563)" cx="2903" rx="35.688" cy="-1854.9" ry="35.688"/><ellipse id="path2247" fill="#fff" transform="translate(129.99 -7.563)" cx="2903" rx="35.688" cy="-1854.9" ry="35.688"/><ellipse id="path2248" fill="#fff" transform="translate(61.922 67.595)" cx="2903" rx="35.688" cy="-1854.9" ry="35.688"/><ellipse id="path2249" fill="#fff" transform="translate(1.418 140.39)" cx="2903" rx="35.688" cy="-1854.9" ry="35.688"/><ellipse id="path2250" fill="#fff" transform="translate(128.57 142.75)" cx="2903" rx="35.688" cy="-1854.9" ry="35.688"/></g></g></g></g></g></svg>