<svg id="svg1234" xmlns="http://www.w3.org/2000/svg" height="480" width="640"><defs id="defs1236"><clipPath id="clipPath3599"><path id="rect3601" fill-opacity=".67" d="M-170.67 0H512v512h-682.67z"/></clipPath></defs><g id="flag" clip-path="url(#clipPath3599)" fill-rule="evenodd" transform="translate(160) scale(.9375)"><path id="rect1242" stroke-width="1pt" fill="#009af4" d="M-256 0h768v256h-768z"/><path id="rect1243" stroke-width="1pt" fill="#1c8f31" d="M-256 384h768v128h-768z"/><path id="rect1244" stroke-width="1pt" fill="#efef00" d="M-256 256h768v128h-768z"/><path id="polygon1249" transform="translate(-253.76 1.683) scale(1.0321)" stroke-width="1pt" fill="#ffda00" d="M673.46 171.02l-36.02-19.86 21.41 35.11-29.64-28.51 11.59 39.47-21.26-35.21.99 41.11-11.42-39.51-9.69 39.97-.8-41.12-19.71 36.1 9.87-39.93-28.38 29.78 19.86-36.02-35.11 21.41 28.5-29.64-39.46 11.59 35.21-21.26-41.11.99 39.51-11.42-39.97-9.69 41.12-.81-36.1-19.701 39.92 9.871L543 75.357l36.02 19.864-21.41-35.116 29.64 28.508-11.59-39.461 21.26 35.21-.99-41.117 11.42 39.511 9.69-39.97.8 41.121 19.71-36.101-9.87 39.928 28.38-29.77-19.86 36.013 35.11-21.411-28.5 29.644 39.46-11.592-35.21 21.262 41.11-.99-39.51 11.42 39.97 9.69-41.12.8 36.1 19.71-39.92-9.87z"/><path id="path1251" d="M639.76 123.19c0 17.111-13.871 30.982-30.982 30.982s-30.982-13.871-30.982-30.982 13.871-30.982 30.982-30.982 30.982 13.871 30.982 30.982z" transform="translate(-262.11 .106) scale(1.0449)" fill="#0098f6"/><path id="path1250" d="M639.76 123.19c0 17.111-13.871 30.982-30.982 30.982s-30.982-13.871-30.982-30.982 13.871-30.982 30.982-30.982 30.982 13.871 30.982 30.982z" transform="matrix(.84007 0 0 .85231 -137.4 23.834)" fill="#ffd900"/></g></svg>