<svg id="svg548" xmlns="http://www.w3.org/2000/svg" height="480" width="640"><defs id="defs550"><clipPath id="clipPath15551"><path id="rect15553" fill-opacity=".67" d="M0 0h682.67v512H0z"/></clipPath></defs><g id="flag" fill-rule="evenodd" clip-path="url(#clipPath15551)" transform="scale(.9375)" stroke-width="1pt"><path id="path1338" d="M0 507.17L987.43 0H0v507.17z" fill="#0000d6"/><path id="path552" d="M1024 0L27.17 512H1024V0z" fill="#006000"/><path id="path558" d="M1024 0h-54.858L.002 485.36V512h54.857l969.14-484.4V.004z" fill="#fc0"/><path id="polygon1350" transform="matrix(.54314 0 0 .51115 -218.52 -122.19)" fill="#fff" d="M533.78 256.9l21.83 67.38 70.83-.05-57.34 41.58 21.94 67.35-57.27-41.68-57.27 41.67 21.95-67.34-57.33-41.6 70.83.07z"/><path id="polygon1351" transform="matrix(.54314 0 0 .51115 -27.378 -122.19)" fill="#fff" d="M533.78 256.9l21.83 67.38 70.83-.05-57.34 41.58 21.94 67.35-57.27-41.68-57.27 41.67 21.95-67.34-57.33-41.6 70.83.07z"/><path id="polygon1352" transform="matrix(.54314 0 0 .51115 -27.378 22.289)" fill="#fff" d="M533.78 256.9l21.83 67.38 70.83-.05-57.34 41.58 21.94 67.35-57.27-41.68-57.27 41.67 21.95-67.34-57.33-41.6 70.83.07z"/><path id="polygon1353" transform="matrix(.54314 0 0 .51115 -122.39 -49.108)" fill="#fff" d="M533.78 256.9l21.83 67.38 70.83-.05-57.34 41.58 21.94 67.35-57.27-41.68-57.27 41.67 21.95-67.34-57.33-41.6 70.83.07z"/><path id="polygon1354" transform="matrix(.54314 0 0 .51115 -218.52 22.289)" fill="#fff" d="M533.78 256.9l21.83 67.38 70.83-.05-57.34 41.58 21.94 67.35-57.27-41.68-57.27 41.67 21.95-67.34-57.33-41.6 70.83.07z"/></g></svg>