<svg id="svg378" xmlns="http://www.w3.org/2000/svg" height="480" width="640" version="1"><defs id="defs380"><clipPath id="clipPath15251"><path id="rect15253" fill-opacity=".67" d="M0 0h640v480H0z"/></clipPath></defs><g id="flag" clip-path="url(#clipPath15251)"><g id="g15168" fill-rule="evenodd" transform="translate(-1.25) scale(.9375)"><path id="rect149" stroke-width="1pt" fill="#fff" d="M-20 0h768v512H-20z"/><path id="rect148" stroke-width="1pt" fill="#df0000" d="M-20 0h768v256H-20z"/><path id="path141" d="M157.12 42.909c-35.46 8.13-61.807 34.386-69.256 70.081-10.121 48.5 21.466 95.99 70.066 106.12-49.1 14-99.829-14.22-113.7-62.86-13.863-48.64 14.358-99.372 63-113.24 17.075-4.87 32.795-4.9 49.892-.1z" stroke-width=".524" fill="#fff"/><path id="polygon142" transform="translate(-204.33 -574.79) scale(1.3251)" stroke-width=".524" fill="#fff" d="M262.25 522.28l3.94 12.17-10.41-7.43-10.36 7.5 3.85-12.19-10.33-7.53 12.78-.11 3.97-12.16 4.05 12.13 12.79.02z"/><path id="polygon144" transform="translate(-185.6 -519.26) scale(1.3251)" stroke-width=".524" fill="#fff" d="M262.25 522.28l3.94 12.17-10.41-7.43-10.36 7.5 3.85-12.19-10.33-7.53 12.78-.11 3.97-12.16 4.05 12.13 12.79.02z"/><path id="polygon145" transform="translate(-123.28 -519.66) scale(1.3251)" stroke-width=".524" fill="#fff" d="M262.25 522.28l3.94 12.17-10.41-7.43-10.36 7.5 3.85-12.19-10.33-7.53 12.78-.11 3.97-12.16 4.05 12.13 12.79.02z"/><path id="polygon146" transform="translate(-104.69 -574.74) scale(1.3251)" stroke-width=".524" fill="#fff" d="M262.25 522.28l3.94 12.17-10.41-7.43-10.36 7.5 3.85-12.19-10.33-7.53 12.78-.11 3.97-12.16 4.05 12.13 12.79.02z"/><path id="polygon147" transform="translate(-154.03 -611.28) scale(1.3251)" stroke-width=".524" fill="#fff" d="M262.25 522.28l3.94 12.17-10.41-7.43-10.36 7.5 3.85-12.19-10.33-7.53 12.78-.11 3.97-12.16 4.05 12.13 12.79.02z"/></g></g></svg>