<svg id="svg600" xmlns="http://www.w3.org/2000/svg" height="480" width="640"><g id="flag"><g id="g1073" fill-rule="evenodd" stroke-width="1pt" transform="scale(.64 .8)"><path id="rect1071" fill="#19b6ef" d="M0 300h1000v300H0z"/><path id="rect1072" fill="#fff" d="M0 0h1000v300H0z"/></g><g id="g910" transform="translate(-464.91 -233.28) scale(1.6657)"><path id="path630" d="M469.46 343.7c31.488-23.557 65.414-71.625 25.659-96.902-7.406-1.434-15.673-1.004-19.639 2.15-2.102-1.195-3.775-1.099-5.877 1.147-1.481-1.816-2.963-2.629-6.021-1.72-6.116-3.106-11.658-3.775-18.921-1.864-34.594 20.785-13.427 70.096 24.799 97.189z" fill-rule="evenodd" stroke="#7d6c00" stroke-width="1.422" fill="#fd0"/><g id="g892" stroke="#3a9d4f"><path id="path865" stroke-linejoin="round" d="M527.7 290.2s3.544-4.766 3.666-4.766c3.544-2.078 3.911-4.766 3.911-4.766 3.544-1.1 2.444-4.033 2.688-4.399 1.712-1.833 1.1-3.667.856-4.278 0-.488 1.222-5.01-.489-5.621.081-4.807-2.892-4.359-5.255-1.222-2.526.733-3.096 2.811-2.2 5.133-3.3 0-3.422 4.766-2.444 7.454-4.399-.122-1.955 4.766-2.078 5.011-1.466.733 1.1 7.699 1.345 7.454z" fill-rule="evenodd" stroke-width="1.422" fill="#4fd46b"/><g id="g876"><path id="path860" stroke-linejoin="round" d="M499.95 331.14l2.2 1.344c.448 1.67 1.996 2.73 3.178 2.445.57 2.566 3.34 2.2 5.377.733 1.629 2.363 3.626 2.404 6.355 1.589 2.444 1.792 5.622 1.018 7.699-.856 2.24 1.833 3.748.489 4.888-1.466 1.751.448 3.136.163 3.788-1.589 3.422-.285 1.711-3.503-1.099-4.888 2.24-1.956 4.725-5.989 1.222-6.6-1.1-.814-3.177-.651-4.766.123-.407-1.793-2.893-2.241-5.622-.245-.937-1.996-4.196-1.059-5.744.367-1.955-1.711-4.277-1.711-7.699.244l-9.777 8.799z" fill-rule="evenodd" stroke-width="1.422" fill="#4fd46b"/><path id="path861" stroke-linejoin="round" d="M499.95 325.89c.407-2.24-1.141-6.314 1.222-6.721-.448-3.748.204-7.984 4.522-7.577.693-3.544.53-6.844 4.644-7.333 0 0 3.3-11.487 6.722-3.544 1.344 2.323 1.1 6.11-1.589 5.377.53 2.852-.407 5.336-3.544 5.255 1.385 1.996.937 4.726-.611 5.989l-11.366 8.554z" fill-rule="evenodd" stroke-width="1.422" fill="#4fd46b"/><path id="path862" stroke-linejoin="round" d="M519.87 311.59l3.544-.733c3.666-2.444 5.133-3.422 6.966-.734 3.055-.652 5.988-.326 5.866 2.078 3.626.244 3.585 2.566 3.178 4.399.57 3.218-.815 7.414-3.056 2.322-7.088-4.318-11.121-3.748-22.364-1.222l5.866-6.11z" fill-rule="evenodd" stroke-width="1.422" fill="#4fd46b"/><path id="path863" stroke-linejoin="round" d="M521.71 308.04c.123-.122 10.51-2.811 9.41-5.988 2.933-.489 3.545-3.422 3.667-3.422 6.11-1.955 5.743-5.5 5.743-5.5 1.752-1.874 4.848-3.748 4.156-7.088.204-3.788.529-6.11-4.522-3.666-3.789-.367-5.133 1.833-6.233 5.133-1.792-2.118-4.684 1.263-5.01 4.277 0 0-4.644 4.522-4.644 4.644s-3.911 7.21-3.911 7.21l1.344 4.4z" fill-rule="evenodd" stroke-width="1.422" fill="#4fd46b"/><path id="path864" stroke-linejoin="round" d="M521.95 299.98c-2.485-1.874-3.87-4.114-3.422-6.355-1.629-2.2-2.77-3.544-1.222-5.499 0 0-1.222-4.4-1.222-4.522-3.177-1.222-1.833-3.91-.978-4.888-1.507-2.078-1.548-4.278-.122-6.233-.041-3.911 2.729-2.444 5.01 0 0 0 3.789 2.689.978 5.133 2.811.978 3.667 3.421 2.078 4.399 2.444 1.1 2.81 3.3 1.466 4.767 2.485 1.996 1.548 4.481 2.322 6.721l-4.888 6.477z" fill-rule="evenodd" stroke-width="1.422" fill="#4fd46b"/><path id="path866" stroke-linejoin="round" d="M526.35 281.77c-.122-.122-4.155-5.255-3.055-5.622-.244-1.589-1.466-3.3-.733-4.888-1.996-1.996-2.037-4.358-.489-6.232-1.344-1.833-.733-4.277 1.1-5.866-.57-3.015 1.548-3.707 3.422-4.278 1.385-4.848 3.625-3.585 4.888.122 1.915 1.67 1.63 4.196.978 6.111 2.281 1.548.896 3.462-.122 4.277l-5.989 16.376z" fill-rule="evenodd" stroke-width="1.422" fill="#4fd46b"/><path id="path867" stroke-linejoin="round" d="M525.74 255.98l-3.422-3.422c.884-1.813 1.596-5.009-.977-6.477-1.419-3.456-8.514-7.74-9.655.489-1.08-2.483-3.34-4.929-5.01-2.077-3.707-3.177-5.703-2.2-3.789 1.833 0 0-1.71 2.688 2.811 4.766.367.366-1.466 4.888 3.911 5.01-1.018 1.548.652 3.707 2.811 3.544-1.548 1.915 1.059 3.952 2.688 3.178-.693 2.118-.652 3.137 2.322 3.422l3.3 3.788 2.688 3.666 2.322-17.72z" fill-rule="evenodd" stroke-width="1.422" fill="#4fd46b"/><path id="path868" d="M527.82 288.04c.173-.173 6.567-14.863 7.431-19.357" stroke-linecap="round" stroke-width="1.333" fill="none"/><path id="path869" d="M528.51 261.95s1.037 11.925-1.901 20.739" stroke-linecap="round" stroke-width="1.333" fill="none"/><path id="path870" d="M508.81 249.85s13.135 12.616 14.344 17.801" stroke-linecap="round" stroke-width="1.333" fill="none"/><path id="path871" d="M517.97 248.47s.864 10.37 4.493 20.567" stroke-linecap="round" stroke-width="1.333" fill="none"/><path id="path872" d="M541.13 286.14s-13.135 11.061-19.53 20.739" stroke-linecap="round" stroke-width="1.333" fill="none"/><path id="path873" d="M528.68 324.86s-17.283 2.42-24.887 2.593" stroke-linecap="round" stroke-width="1.333" fill="none"/><path id="path874" d="M522.98 332.29s-21.431-.519-22.987-2.074" stroke-linecap="round" stroke-width="1.333" fill="none"/><path id="path875" d="M512.26 304.46c0 .172-10.888 18.146-11.234 24.023" stroke-linecap="round" stroke-width="1.333" fill="none"/></g></g><path id="path608" d="M469.34 340.23c-22.674-21.387-45.899-61.525-22.796-81.809 4.106 2.329 8.947.245 15.627-2.39 2.022 2.206 4.595 2.758 7.169 1.103 2.88 1.226 5.025.245 6.435-1.287 6.557 3.8 14.952 5.761 16.913 2.023 22.735 21.57-.307 61.893-23.348 82.36z" fill-rule="evenodd" stroke="#7d6c00" stroke-width="1.422" fill="#65c7ff"/><path id="path609" d="M469.47 339.61c-9.737-9.79-18.621-20.643-25.423-34.616 1.164-.98 1.705-1.284 2.318-3 3.493.491 5.331.613 9.927-.184.919 3.432 1.103 6.312 3.309 9.192l4.596-9.008c3.125.736 6.986.92 9.927 0 1.9 2.574 1.226 6.435 4.596 9.376 2.022-5.944 4.045-6.373 6.067-9.56 3.003 1.042 4.903.613 7.354-.184 1.287 1.471.644 1.447 2.987 3.606-6.143 12.199-14.567 24.451-25.658 34.378z" fill-rule="evenodd" fill="#8fc753"/><path id="path575" d="M442.793 238.689a2.009 2.009 0 1 1-4.018 0 2.009 2.009 0 0 1 4.018 0z" fill-rule="evenodd" stroke="#000" stroke-width=".667" fill="#fff"/><path id="path576" d="M440.697 234.06a2.009 2.009 0 1 1-4.018 0 2.009 2.009 0 0 1 4.018 0z" fill-rule="evenodd" stroke="#000" stroke-width=".667" fill="#fff"/><path id="path577" d="M438.251 229.78a2.009 2.009 0 1 1-4.017 0 2.009 2.009 0 0 1 4.017 0z" fill-rule="evenodd" stroke="#000" stroke-width=".667" fill="#fff"/><path id="path578" d="M436.592 225.588a2.009 2.009 0 1 1-4.017 0 2.009 2.009 0 0 1 4.017 0z" fill-rule="evenodd" stroke="#000" stroke-width=".667" fill="#fff"/><path id="path579" d="M436.854 221.047a2.009 2.009 0 1 1-4.018 0 2.009 2.009 0 0 1 4.018 0z" fill-rule="evenodd" stroke="#000" stroke-width=".667" fill="#fff"/><path id="path580" d="M447.457 213.536a2.009 2.009 0 1 1-4.017 0 2.009 2.009 0 0 1 4.017 0z" fill-rule="evenodd" stroke="#000" stroke-width=".667" fill="#fff"/><path id="path581" d="M443.491 214.235a2.009 2.009 0 1 1-4.017 0 2.009 2.009 0 0 1 4.017 0z" fill-rule="evenodd" stroke="#000" stroke-width=".667" fill="#fff"/><path id="path582" d="M439.125 216.855a2.009 2.009 0 1 1-4.018 0 2.009 2.009 0 0 1 4.018 0z" fill-rule="evenodd" stroke="#000" stroke-width=".667" fill="#fff"/><path id="path583" d="M452.574 213.623a2.009 2.009 0 1 1-4.017 0 2.009 2.009 0 0 1 4.017 0z" fill-rule="evenodd" stroke="#000" stroke-width=".667" fill="#fff"/><path id="path584" d="M458.164 214.06a2.009 2.009 0 1 1-4.017 0 2.009 2.009 0 0 1 4.017 0z" fill-rule="evenodd" stroke="#000" stroke-width=".667" fill="#fff"/><path id="path585" d="M463.142 213.798a2.009 2.009 0 1 1-4.017 0 2.009 2.009 0 0 1 4.017 0z" fill-rule="evenodd" stroke="#000" stroke-width=".667" fill="#fff"/><path id="path586" d="M474.746 210.592a5.153 5.153 0 1 1-10.306 0 5.153 5.153 0 0 1 10.306 0z" fill-rule="evenodd" stroke="#7d6c00" stroke-width=".667" fill="#fd0"/><path id="path587" d="M480.172 213.711a2.009 2.009 0 1 1-4.017 0 2.009 2.009 0 0 1 4.017 0z" fill-rule="evenodd" stroke="#000" stroke-width=".667" fill="#fff"/><path id="path588" d="M485.413 214.147a2.009 2.009 0 1 1-4.017 0 2.009 2.009 0 0 1 4.017 0z" fill-rule="evenodd" stroke="#000" stroke-width=".667" fill="#fff"/><path id="path589" d="M490.478 213.885a2.009 2.009 0 1 1-4.017 0 2.009 2.009 0 0 1 4.017 0z" fill-rule="evenodd" stroke="#000" stroke-width=".667" fill="#fff"/><path id="path590" d="M494.757 213.711a2.009 2.009 0 1 1-4.017 0 2.009 2.009 0 0 1 4.017 0z" fill-rule="evenodd" stroke="#000" stroke-width=".667" fill="#fff"/><path id="path591" d="M500.085 214.322a2.009 2.009 0 1 1-4.017 0 2.009 2.009 0 0 1 4.017 0z" fill-rule="evenodd" stroke="#000" stroke-width=".667" fill="#fff"/><path id="path592" d="M504.277 216.942a2.009 2.009 0 1 1-4.017 0 2.009 2.009 0 0 1 4.017 0z" fill-rule="evenodd" stroke="#000" stroke-width=".667" fill="#fff"/><path id="path605" d="M440.85 231.12c1.711 3.254 3.421 6.634 5.132 9.888h47.565l5.508-9.513c-3.213-2.211-5.424-3.922-10.014-2.879-2.587-3.713-5.424-4.422-9.638-4.005-1.252-1.293-2.379-2.086-4.507-2.378l-10.013.25c-2.629.25-4.632 2.253-4.757 2.253-4.256-.501-8.136-.376-9.137 3.755-3.88-.96-6.634.084-10.139 2.629z" fill-rule="evenodd" stroke="#ac0000" stroke-width="1.422" fill="#e40000"/><path id="path593" d="M506.024 221.309a2.009 2.009 0 1 1-4.017 0 2.009 2.009 0 0 1 4.017 0z" fill-rule="evenodd" stroke="#000" stroke-width=".667" fill="#fff"/><path id="path594" d="M506.373 226.025a2.009 2.009 0 1 1-4.017 0 2.009 2.009 0 0 1 4.017 0z" fill-rule="evenodd" stroke="#000" stroke-width=".667" fill="#fff"/><path id="path595" d="M504.888 230.392a2.009 2.009 0 1 1-4.017 0 2.009 2.009 0 0 1 4.017 0z" fill-rule="evenodd" stroke="#000" stroke-width=".667" fill="#fff"/><path id="path596" d="M503.054 233.973a2.009 2.009 0 1 1-4.017 0 2.009 2.009 0 0 1 4.017 0z" fill-rule="evenodd" stroke="#000" stroke-width=".667" fill="#fff"/><path id="path597" d="M500.871 238.514a2.009 2.009 0 1 1-4.017 0 2.009 2.009 0 0 1 4.017 0z" fill-rule="evenodd" stroke="#000" stroke-width=".667" fill="#fff"/><path id="path598" d="M472.76 232.757a2.97 2.97 0 1 1-5.94 0 2.97 2.97 0 0 1 5.94 0z" fill-rule="evenodd" stroke="#000" stroke-width=".667" fill="#fff"/><path id="path599" d="M473.348 225.926a3.58 3.58 0 1 1-7.162 0 3.58 3.58 0 0 1 7.162 0z" fill-rule="evenodd" stroke="#000" stroke-width=".667" fill="#fff"/><path id="path600" d="M472.831 219.292a3.231 3.231 0 1 1-6.463 0 3.231 3.231 0 0 1 6.463 0z" fill-rule="evenodd" stroke="#000" stroke-width=".666" fill="#fff"/><path id="path602" d="M468.51 205.52c0-.556-.017-2.5.022-2.578l-2.144-.039.061-1.906 1.861-.022.022-1.666h2.639v1.527h2.083l-.043 2.028-2.162-.022-.017 2.717-2.322-.039z" fill-rule="evenodd" stroke="#7d6c00" stroke-width=".667" fill="#fd0"/><path id="path603" d="M445.74 241.01c-4.257-7.218-10.512-17.03-6.635-21.279 5.376-6.089 17.982-.584 26.035-4.131.584 6.885-1.335 18.275 1.753 20.654l-2.879 2.503c-1.753-2.253-5.054-5.272-9.137.125-2.337-2.043-4.993-1.684-6.244 1.033-1.19.16-1.121.636-2.893 1.095z" stroke="#fd0" stroke-width="2" fill="none"/><path id="path604" d="M493.84 240.76c4.257-7.218 10.512-17.03 6.635-21.279-5.376-6.089-17.982-.584-26.035-4.131-.584 6.885 1.335 18.275-1.753 20.654l2.879 2.503c2.77-3.895 6.227-4.021 9.137.125 2.337-2.043 4.758-1.763 6.244 1.033 1.19.16 1.121.636 2.893 1.095z" stroke="#fd0" stroke-width="2" fill="none"/><path id="path606" d="M445.61 246.39c17.107-1.752 32.962-1.127 47.566 0l1.877-5.383c-16.606-3.004-28.08-3.379-49.818-.375l.375 5.758z" fill-rule="evenodd" stroke="#7d6c00" stroke-width="1.422" fill="#fd0"/><path id="path610" d="M467.69 337.79c.123-.858.245-1.658.368-2.516 1.701.458 2.999.281 4.412-.241l1.471-2.207-1.103-1.286c-.97.209-1.766 1.11-2.39 1.896-.977.046-1.839-.426-2.758-.61l-.919-3.86c-.912-1.078-2.804-1.002-2.39.919l.184 1.471c.368.919.505 2.184 1.103 2.872v1.508l2.022 2.054z" fill-rule="evenodd" fill="#c76e2e"/><path id="path611" d="M468.42 326.81c-1.279.634-2.797-.469-4.412-1.103-1.471-.101-2.653 1.124-4.412.735.321-.955 1.103-1.103 1.655-1.655-.404-2.48.919-3.309 1.287-3.309.367 0 1.838.368 1.838.368l1.471.184c.858 1.593 2.061 3.014 2.573 4.78z" fill-rule="evenodd" fill="#c76e2e"/><path id="path613" d="M459.68 359.83c4.242-6.887 33.775-20.717 61.489-50.58-28.21 27.162-45.841 33.83-68.927 50.414l7.438.166z" fill-rule="evenodd" stroke="#e9bf00" stroke-width="1.422" fill="#ffe100"/><path id="path617" d="M500.28 328.07a2.15 2.15 0 1 1-4.3 0 2.15 2.15 0 0 1 4.3 0z" fill-rule="evenodd" stroke="#68300e" stroke-width=".667" fill="#9d4916"/><path id="path618" d="M520.92 307.14a2.437 2.437 0 1 1-4.874 0 2.437 2.437 0 0 1 4.874 0z" fill-rule="evenodd" stroke="#68300e" stroke-width=".667" fill="#9d4916"/><path id="path619" d="M527.803 289.363a2.15 2.15 0 1 1-4.3 0 2.15 2.15 0 0 1 4.3 0z" fill-rule="evenodd" stroke="#68300e" stroke-width=".667" fill="#9d4916"/><path id="path620" d="M521.06 266.29a2.15 2.15 0 1 1-4.3 0 2.15 2.15 0 0 1 4.3 0z" fill-rule="evenodd" stroke="#68300e" stroke-width=".667" fill="#9d4916"/><path id="path631" d="M446.68 301.9v-9.094l-.925-.77v-2.158l1.696-.154.308-10.173-1.079-.617-.154-1.695s1.233.462 1.233.154.308-2.004.308-2.004-.77-.154-.77-.462.924-1.079.924-1.079-.462-.463-.616-.771-.462-1.695-.462-1.695l.462-1.696-.308-.925-.771-1.387 1.079-1.079s-.308-1.387-.308-1.695.77-1.541.924-1.696c.155-.154 1.388-1.849 1.388-1.849l2.62-.617 3.083.463 1.695 1.079.308 2.774s-.308 1.695-.462 1.695-1.387.617-1.387.617-1.542.154-1.696 0 .463 1.85.463 1.85v1.849l-.154 2.312s0 1.079-.155 1.233c-.154.154-.462.617-.462.617l-.154 2.312 2.466.616-.154 1.388-1.696.154.309 9.402 2.466.462v2.621l-1.079.616-.308 9.402h-8.632z" fill-rule="evenodd" stroke="#a9a9a9" stroke-width=".667" fill="#fff"/><path id="path632" d="M484.14 302.06v-9.094l-.925-.77v-2.158l1.696-.154.308-10.173-1.079-.617-.154-1.695s1.233.462 1.233.154.308-2.004.308-2.004-.77-.154-.77-.462.924-1.079.924-1.079-.462-.463-.616-.771-.462-1.695-.462-1.695l.462-1.696-.308-.925-.771-1.387 1.079-1.079s-.308-1.387-.308-1.695.77-1.541.924-1.696c.155-.154 1.388-1.849 1.388-1.849l2.62-.617 3.083.463 1.695 1.079.308 2.774s-.308 1.695-.462 1.695-1.387.617-1.387.617-1.542.154-1.696 0 .463 1.85.463 1.85v1.849l-.154 2.312s0 1.079-.155 1.233c-.154.154-.462.617-.462.617l-.154 2.312 2.466.616-.154 1.388-1.696.154.309 9.402 2.466.462v2.621l-1.079.616-.308 9.402h-8.632z" fill-rule="evenodd" stroke="#a9a9a9" stroke-width=".667" fill="#fff"/><path id="path633" d="M465.18 302.37v-9.094l-.925-.77v-2.158l1.696-.154.308-10.173-1.079-.617-.154-1.695s1.233.462 1.233.154.308-2.004.308-2.004-.77-.154-.77-.462.924-1.079.924-1.079-.462-.463-.616-.771-.462-1.695-.462-1.695l.462-1.696-.308-.925-.771-1.387 1.079-1.079s-.308-1.387-.308-1.695.77-1.541.924-1.696c.155-.154 1.388-1.849 1.388-1.849l2.62-.617 3.083.463 1.695 1.079.308 2.774s-.308 1.695-.462 1.695-1.387.617-1.387.617-1.542.154-1.696 0 .463 1.85.463 1.85v1.849l-.154 2.312s0 1.079-.155 1.233c-.154.154-.462.617-.462.617l-.154 2.312 2.466.616-.154 1.388-1.696.154.309 9.402 2.466.462v2.621l-1.079.616-.308 9.402h-8.632z" fill-rule="evenodd" stroke="#a9a9a9" stroke-width=".667" fill="#fff"/><path id="path624" fill-rule="evenodd" stroke-width="1pt" d="M448.96 301.84v-7.167h4.014v7.454l-4.014-.287z"/><path id="path625" fill-rule="evenodd" stroke-width="1pt" d="M467.88 302.41l.143-7.311h3.584v7.167l-3.727.144z"/><path id="path626" fill-rule="evenodd" stroke-width="1pt" d="M486.52 302.27l-.287-6.88 3.871-.144v7.168l-3.584-.144z"/><path id="rect627" fill-rule="evenodd" stroke-width="1pt" d="M449.96 280.62h2.293v3.727h-2.293z"/><path id="rect628" fill-rule="evenodd" stroke-width="1pt" d="M468.17 280.77h3.154v3.584h-3.154z"/><path id="rect629" fill-rule="evenodd" stroke-width="1pt" d="M486.8 281.05h2.724v3.44H486.8z"/><path id="path644" d="M451.15 264.3c2.466 2.774 2.62 2.774 2.62 2.774" stroke="#a8a8a8" stroke-width=".667" fill="none"/><path id="path645" d="M469.49 264.3c.462.924 1.233 2.928 2.158 3.082" stroke="#a8a8a8" stroke-width=".667" fill="none"/><path id="path646" d="M489.22 264.76s.771 2.158 1.85 2.466" stroke="#a8a8a8" stroke-width=".667" fill="none"/><path id="path656" d="M448.53 256.53c7.211-2.331-1.685-6.993-3.162 0-2.333.377-2.635 2.108-7.678 1.356-12.195 19.873-3.162 51.941 32.52 85.139-63.911-54.388-37.938-94.617-20.24-93.1 9.626.658 4.77 12.665-1.44 6.605z" fill-rule="evenodd" fill="#b97700"/><path id="path658" d="M450.54 246.34s5.872 1.581 5.872 4.065" stroke="#7d6c00" stroke-width="1.422" fill="none"/><path id="path659" d="M456.41 245.89s4.065 1.806 4.968 3.387" stroke="#7d6c00" stroke-width="1.422" fill="none"/><path id="path660" d="M488.48 246.57s-5.195.678-6.324 2.258" stroke="#7d6c00" stroke-width="1.422" fill="none"/><path id="path661" d="M480.57 247.02s-2.935 2.484-2.71 3.161" stroke="#7d6c00" stroke-width="1.422" fill="none"/><path id="path662" d="M479.9 257.86c-.452-.226-2.484-2.936-2.033-6.324" stroke="#7d6c00" stroke-width="1.422" fill="none"/><path id="path663" d="M460.02 256.06s1.355-1.581 1.355-4.517" stroke="#7d6c00" stroke-width="1.422" fill="none"/><path id="path664" d="M469.51 250.41l.226 6.549" stroke="#7d6c00" stroke-width="1.422" fill="none"/><path id="path665" d="M475.38 256.06c0-.452 1.807-4.742-.226-6.775" stroke="#7d6c00" stroke-width="1.422" fill="none"/><path id="path666" d="M462.96 248.38s-1.581 4.291-.451 7.904" stroke="#7d6c00" stroke-width="1.422" fill="none"/><path id="path667" d="M474.48 252.22s-2.484.677-3.614 1.807" stroke="#7d6c00" stroke-width="1.422" fill="none"/><path id="path668" d="M463.86 252.89c0-.225 2.71-.677 3.613.904" stroke="#7d6c00" stroke-width="1.422" fill="none"/><path id="path627" d="M459.59 321.27c.115.058 2.249-.404 2.249-1.442 1.096-.692.288-2.653.288-2.653l-2.018-.404-2.769-3.114c-.134-.961.193-1.864-.403-2.883-1.903.5-2.999 2.095-3.634 3.921.462.577.52 1.211 1.385 1.73.903.154 1.518-.384 2.364-.23.442.769.307 1.423.461 2.134 1.154.807 1.385 1.961 2.077 2.941z" fill-rule="evenodd" fill="#c76e2e"/><path id="path628" d="M457.11 307.95v-3.691l-2.653-.116c-.327.558-.942.827-1.327 1.327l-1.845.923c.769.923 1.711 1.442 2.307 1.903 1.346.404 2.461.404 3.518-.346z" fill-rule="evenodd" fill="#c76e2e"/><path id="path629" d="M448.8 313.43l-1.442-2.423c.884-.288 1.999-.173 2.826.173 0 0 .635 1.5.173 2.076-.231.519-1.615.289-1.557.174z" fill-rule="evenodd" fill="#c76e2e"/><path id="path634" d="M470.72 315.91c.769-.384 1.48-1.057 1.615-2.018l-2.653-3.057-2.422-.057c-.557-.577-1.461-.692-2.191-.692 0 0 .75 1.153 1.73 1.384.692 1.556 3.691 4.44 3.921 4.44z" fill-rule="evenodd" fill="#c76e2e"/><path id="path635" d="M473.32 316.25c0-.057 2.364-.865 3.633-.749-.115-.981 1.788-3.23 1.788-3.23l3.345 4.383c-.615.519-1.692.346-2.538.519 0 0-1.615 1.557-1.788 1.615s-3.114.749-4.556-.115c-.634-1.211.173-2.596.116-2.423z" fill-rule="evenodd" fill="#c76e2e"/><path id="path636" d="M475.22 308.58c.404-1.403.519-2.807 0-4.556 0 0-3.807-.058-3.807 0 0 .057-2.537 1.153-2.537 1.211s.808 2.48 1.788 2.249c.442 1.288 1.749.961 2.364 1.442l2.192-.346z" fill-rule="evenodd" fill="#c76e2e"/><path id="path637" d="M490.16 304.72c-.519 1.596-.807 3.307-.058 4.845.692.115 1.5.576 2.134.461l3.057-5.537c-2.115-.673-3.826-.596-5.133.231z" fill-rule="evenodd" fill="#c76e2e"/><path id="path742" d="M491.1 256.03c-7.211-2.331 1.685-6.993 3.162 0 2.333.377 2.635 2.108 7.678 1.356 12.195 19.873 3.162 51.941-32.52 85.139 63.911-54.388 37.938-94.617 20.24-93.1-9.626.658-4.77 12.665 1.44 6.605z" fill-rule="evenodd" fill="#b97700"/><path id="path638" d="M491.83 310.95c-.115 0-1.845 1.268-1.845 1.268l-2.48.981-2.653.057-.577-1.845 2.019-1.788c-1.711-.25-3.422.423-4.787 1.673 0 0 0 2.018 1.154 2.999.692.864 2.71 2.422 2.71 2.422 1.269.25 2.48.038 3.287-.635l3.172-5.132z" fill-rule="evenodd" fill="#c76e2e"/><path id="path639" d="M477.87 329.06c.866.231 6.806-7.67 6.806-7.67-.519-1.48-1.673-2.557-2.942-3.23 0 0-2.884 3.402-2.941 4.556-.461 1.038-1.787 5.017-1.211 5.537-.058.115-.288 1.729.288.807z" fill-rule="evenodd" fill="#c76e2e"/><path id="path745" stroke-linejoin="round" d="M439.02 330.6c-8.895-7.737-20.897-12.002-37.651-6.214 4.508 1.95 9.382 2.62 13.525 4.752l24.126 1.462z" fill-rule="evenodd" stroke="#004100" stroke-width="1.422" fill="#006800"/><path id="path839" d="M413.25 325.11c17.546.365 22.664 4.751 21.75 4.02" stroke="#00a400" stroke-linecap="round" stroke-width="1.333" fill="none"/><path id="path744" stroke-linejoin="round" d="M439.38 331.51c-5.24 1.035-12.49 6.096-14.622 5.848-5.727-.666-11.079-2.987-16.632-4.752-2.307-.733-4.631 0-6.946 0 19.679-9.321 26.381-8.042 38.2-1.096z" fill-rule="evenodd" stroke="#004100" stroke-width="1.333" fill="#006800"/><path id="path746" stroke-linejoin="round" d="M426.41 317.8s-6.579.913-9.504 1.096c-2.925-.182-7.177-2.907-11.88-7.859-2.455-2.689-8.042-2.376-8.042-2.376 12.368-2.62 21.993-.122 29.426 9.139z" fill-rule="evenodd" stroke="#004100" stroke-width="1.422" fill="#006800"/><path id="path747" stroke-linejoin="round" d="M417.45 305.01c-8.957-.549-20.106-8.59-22.664-18.094-.001.121 3.289 2.071 2.741 2.559 14.683 3.716 15.658 6.701 19.923 15.535z" fill-rule="evenodd" stroke="#004100" stroke-width="1.422" fill="#006800"/><path id="path748" stroke-linejoin="round" d="M432.44 320.36c1.279-8.103 1.645-13.464-2.193-18.277-3.168-3.656-3.96-5.849-6.214-10.967-.67 10.662-2.986 19.496 8.407 29.244z" fill-rule="evenodd" stroke="#004100" stroke-width="1.422" fill="#006800"/><path id="path749" stroke-linejoin="round" d="M418.36 297.88c6.64-9.687 7.798-16.998 6.762-28.513-.183.914-2.376 6.58-2.558 6.58-9.87 6.214-5.483 15.902-4.204 21.933z" fill-rule="evenodd" stroke="#004100" stroke-width="1.422" fill="#006800"/><path id="path752" stroke-linejoin="round" d="M412.52 251.09c6.64 9.687 5.605 18.826 4.569 30.341-.183-.914-2.376-6.58-2.558-6.58-9.87-6.214-3.29-17.73-2.011-23.761z" fill-rule="evenodd" stroke="#004100" stroke-width="1.422" fill="#006800"/><path id="path755" stroke-linejoin="round" d="M418 266.08c16.084-8.103 9.869-18.399 12.794-26.319-11.149 8.286-12.611 17.119-12.794 26.319z" fill-rule="evenodd" stroke="#004100" stroke-width="1.422" fill="#006800"/><path id="path848" d="M420.19 264.07c2.011-5.666 6.032-15.353 6.397-15.353" stroke="#00a400" stroke-linecap="round" stroke-width="1.333" fill="none"/><path id="path846" d="M415.44 275.95c-.365-4.022-2.375-14.806-2.558-15.902" stroke="#00a400" stroke-linecap="round" stroke-width="1.333" fill="none"/><path id="path750" stroke-linejoin="round" d="M416.17 294.04c-8.957-.549-18.644-12.794-21.202-22.298-.001.121 3.289 2.071 2.741 2.559 12.855 5.726 14.196 10.905 18.461 19.739z" fill-rule="evenodd" stroke="#004100" stroke-width="1.422" fill="#006800"/><path id="path751" stroke-linejoin="round" d="M413.51 285.63c-6.64-9.687-7.798-16.998-6.762-28.513.183.914 2.376 6.58 2.558 6.58 9.87 6.214 5.483 15.902 4.204 21.933z" fill-rule="evenodd" stroke="#004100" stroke-width="1.422" fill="#006800"/><path id="path753" stroke-linejoin="round" d="M419.46 268.64c16.632-7.372 11.514-15.109 16.449-23.212-11.149 8.286-16.266 14.012-16.449 23.212z" fill-rule="evenodd" stroke="#004100" stroke-width="1.422" fill="#006800"/><path id="path847" d="M420.19 266.99c6.763-6.763 9.139-12.429 9.139-12.429" stroke="#00a400" stroke-linecap="round" stroke-width="1.333" fill="none"/><g id="g768" fill-rule="evenodd"><path id="path612" d="M479.36 359.99l8.099.165c-26.888-25.18-78.405-36.144-71.242-82.482-7.383 50.25 42.095 54.878 63.143 82.317z" stroke="#e9bf00" stroke-width="1.422" fill="#ffe100"/><path id="path601" d="M420.44 267.72a2.58 2.58 0 1 1-5.16 0 2.58 2.58 0 0 1 5.16 0z" stroke="#68300e" stroke-width=".667" fill="#9d4916"/><path id="path607" d="M418.86 281.91a2.437 2.437 0 1 1-4.874 0 2.437 2.437 0 0 1 4.874 0z" stroke="#68300e" stroke-width=".667" fill="#9d4916"/><path id="path614" d="M421.15 302.13a2.15 2.15 0 1 1-4.3 0 2.15 2.15 0 0 1 4.3 0z" stroke="#68300e" stroke-width=".667" fill="#9d4916"/><path id="path615" d="M439.927 324.49a2.15 2.15 0 1 1-4.3 0 2.15 2.15 0 0 1 4.3 0z" stroke="#68300e" stroke-width=".667" fill="#9d4916"/><path id="path616" d="M442.65 330.904a2.15 2.15 0 1 1-4.3 0 2.15 2.15 0 0 1 4.3 0z" stroke="#68300e" stroke-width=".667" fill="#9d4916"/></g><g id="g800"><g id="g674" fill-rule="evenodd" fill="#fff"><g id="g650" stroke="#000" stroke-width=".667"><path id="path649" d="M452.13 349.59c-1.414-1.281-2.313-2.103-2.868-3.499l-8.431-.917a7741.11 7741.11 0 0 1-.115 4.817l11.414-.401z"/><path id="path640" stroke-linejoin="round" d="M390.36 343.91c4.897.904 12.281-.452 14.692 2.712 2.895 3.281-9.061 8.328-7.349 11.166 3.698 3.913 7.504 2.3 11.643.136.975-2.115 1.728-5.886 2.261-7.007-1.507-3.466-5.555-5.164-4.521-10.398 6.827-2.551 19.95-2.34 21.363-1.356 1.109 2.175.112 3.166.338 4.899-1.13 2.185-4.039 5.889-4.045 7.849 7.162 2.523 9.05-.389 15.493-.218 7.549.093 12.142 2.12 13.781-.881-1.123-2.59-8.047-.483-10.675-2.147-1.314-.445-2.163-1.501-3.299-2.666s-4.329-1.224-4.807-4.092c1.336-6.132 10.185-5.195 11.632-6.134l23.056 1.582c4.177-.118 6.539 7.398.899 9.66-5.64 2.261-22.321-3.355-29.557.505-.374-1.574-5.573-3.955-5.948-4.03-2.215.663-6.532.42-6.532.42-1.055 1.959-2.259 3.393-3.314 5.352-4.788-2.099-9.314 1.63-14.543.525 0 0-7.911.904-8.137.904s-5.198-.452-5.198-.452l-7.911 2.26 5.65-4.973-4.972-3.616z"/><path id="path643" d="M389.61 342.71a2.18 2.18 0 1 1-4.359 0 2.18 2.18 0 0 1 4.359 0z" transform="translate(.402 .23)"/><path id="path647" d="M389.44 353.72a2.18 2.18 0 1 1-4.359 0 2.18 2.18 0 0 1 4.359 0z"/></g><g id="g655" transform="matrix(-1 0 0 1 939.11 .04)" stroke="#000" stroke-width=".667"><path id="path669" d="M452.13 349.59c-1.414-1.281-2.313-2.103-2.868-3.499l-8.431-.917a7741.11 7741.11 0 0 1-.115 4.817l11.414-.401z"/><path id="path670" stroke-linejoin="round" d="M390.36 343.91c4.897.904 12.281-.452 14.692 2.712 2.895 3.281-9.061 8.328-7.349 11.166 3.698 3.913 7.504 2.3 11.643.136.975-2.115 1.728-5.886 2.261-7.007-1.507-3.466-5.555-5.164-4.521-10.398 6.827-2.551 19.95-2.34 21.363-1.356 1.109 2.175.112 3.166.338 4.899-1.13 2.185-4.039 5.889-4.045 7.849 7.162 2.523 9.05-.389 15.493-.218 7.549.093 12.142 2.12 13.781-.881-1.123-2.59-8.047-.483-10.675-2.147-1.314-.445-2.163-1.501-3.299-2.666s-4.329-1.224-4.807-4.092c1.336-6.132 10.185-5.195 11.632-6.134l23.056 1.582c4.177-.118 6.539 7.398.899 9.66-5.64 2.261-22.321-3.355-29.557.505-.374-1.574-5.573-3.955-5.948-4.03-2.215.663-6.532.42-6.532.42-1.055 1.959-2.259 3.393-3.314 5.352-4.788-2.099-9.314 1.63-14.543.525 0 0-7.911.904-8.137.904s-5.198-.452-5.198-.452l-7.911 2.26 5.65-4.973-4.972-3.616z"/><path id="path671" d="M389.61 342.71a2.18 2.18 0 1 1-4.359 0 2.18 2.18 0 0 1 4.359 0z" transform="translate(.402 .23)"/><path id="path672" d="M389.44 353.72a2.18 2.18 0 1 1-4.359 0 2.18 2.18 0 0 1 4.359 0z"/></g><path id="path673" d="M469.41 337.77c-1.94-.364-2.63-.26-3.945-.39l-3.086 9.492c4.766.43 9.179.43 9.179.391-2.891-.586-2.187-9.454-2.148-9.493z"/></g><g id="g775" font-size="9" font-family="Trebuchet MS" font-weight="bold"><text id="text692" y="344.274" x="448.605"><tspan id="tspan701" y="344.274" x="448.605">L</tspan></text><text id="text703" y="344.622" x="453.64"><tspan id="tspan706" y="344.622" x="453.64">I</tspan></text><text id="text708" y="345.056" x="456.678"><tspan id="tspan715" y="345.056" x="456.678">B</tspan></text><text id="text717" y="345.49" x="462.58"><tspan id="tspan720" y="345.49" x="462.58">E</tspan></text><text id="text722" y="345.576" x="468.309"><tspan id="tspan725" y="345.576" x="468.309">R</tspan></text><text id="text727" y="345.403" x="473.952"><tspan id="tspan730" y="345.403" x="473.952">T</tspan></text><text id="text732" y="344.535" x="479.247"><tspan id="tspan735" y="344.535" x="479.247">A</tspan></text><text id="text737" y="344.274" x="485.497"><tspan id="tspan740" y="344.274" x="485.497">S</tspan></text></g></g><path id="path838" d="M418 331.33c6.032.731 14.44.182 18.095-.001" stroke="#00a400" stroke-linecap="round" stroke-width="1.333" fill="none"/><path id="path840" d="M408.86 310.67c5.118 4.021 16.267 6.396 16.084 6.396" stroke="#00a400" stroke-linecap="round" stroke-width="1.333" fill="none"/><path id="path841" d="M431.34 318.17c-1.645-8.407-3.472-10.418-4.934-15.719" stroke="#00a400" stroke-linecap="round" stroke-width="1.333" fill="none"/><path id="path842" d="M400.27 292.94c8.591 3.838 9.87 6.396 15.353 10.234" stroke="#00a400" stroke-linecap="round" stroke-width="1.333" fill="none"/><path id="path843" d="M418.73 294.77c.732-10.419 2.194-13.161 4.753-15.537" stroke="#00a400" stroke-linecap="round" stroke-width="1.333" fill="none"/><path id="path844" d="M400.27 277.96c3.108 3.473 13.343 14.256 13.343 14.256" stroke="#00a400" stroke-linecap="round" stroke-width="1.333" fill="none"/><path id="path845" d="M409.41 268.45c3.839 2.741 3.839 12.61 3.839 12.61" stroke="#00a400" stroke-linecap="round" stroke-width="1.333" fill="none"/></g></g></svg>