<svg id="svg1207" xmlns="http://www.w3.org/2000/svg" height="480" width="640"><defs id="defs1209"><clipPath id="clipPath8409"><path id="rect8411" fill-opacity=".67" d="M0 0h682.67v512H0z"/></clipPath></defs><g id="flag" clip-path="url(#clipPath8409)" fill-rule="evenodd" transform="scale(.9375)"><path id="rect3472" stroke-width="1pt" fill="#ff0" d="M0 0h1024v504.3H0z"/><path id="rect1276" stroke-width="1pt" fill="#009d00" d="M0 0h1024v146.29H0z"/><path id="rect3471" stroke-width="1pt" fill="#009d00" d="M0 365.71h1024V512H0z"/><path id="path570" d="M.708 0c1.417 0 255.29 253.03 255.29 253.03L-.002 512 .707 0z" fill="#f10600"/><g id="g1310" transform="translate(-154.66 -225.36) scale(.78651)" stroke-width="1pt"><path id="polygon136" transform="matrix(.70904 0 0 .73035 367.01 360.98)" d="M498.45 365.81l-57.33-41.6 70.83.07 21.83-67.38 21.83 67.38 70.83-.05-57.34 41.58 21.94 67.35-57.27-41.68-57.27 41.67z"/><path id="polygon1309" transform="matrix(.70904 0 0 .73035 116.64 360.98)" d="M498.45 365.81l-57.33-41.6 70.83.07 21.83-67.38 21.83 67.38 70.83-.05-57.34 41.58 21.94 67.35-57.27-41.68-57.27 41.67z"/></g></g></svg>