<svg id="svg548" xmlns="http://www.w3.org/2000/svg" height="480" width="640"><defs id="defs550"><clipPath id="clipPath8323"><path id="rect8325" fill-opacity=".67" d="M0 0h640v480H0z"/></clipPath></defs><g id="flag" clip-path="url(#clipPath8323)"><path id="rect1062" fill-rule="evenodd" stroke-width="1pt" fill="#5387f4" d="M-79.429 318.86h798.86V480h-798.86z"/><path id="rect1063" fill-rule="evenodd" stroke-width="1pt" fill="#5387f4" d="M-79.429 0h798.86v161.14h-798.86z"/><path id="rect1064" fill-rule="evenodd" stroke-width="1pt" fill="#fff" d="M-79.429 161.14h798.86v157.71h-798.86z"/><g id="g3486" transform="translate(-358.51 -168.29) scale(1.6437)"><g id="g1921" stroke="#000" fill-rule="evenodd" transform="matrix(.74925 0 0 .7416 105.14 72.609)"><g id="g1806" transform="matrix(-1 0 0 1 825.1 9.187)"><path id="path1807" d="M490.58 234.24c0 .846-.823 1.531-1.837 1.531s-1.838-.685-1.838-1.531c0-.846.823-1.531 1.838-1.531s1.837.685 1.837 1.531z" transform="matrix(.63371 -.40113 .49703 .7852 41.19 205.69)" stroke-width=".332" fill="red"/><path id="path1808" d="M490.58 234.24c0 .846-.823 1.531-1.837 1.531s-1.838-.685-1.838-1.531c0-.846.823-1.531 1.838-1.531s1.837.685 1.837 1.531z" transform="matrix(.63371 -.40113 .49703 .7852 36.37 209.51)" stroke-width=".332" fill="red"/><path id="path1809" d="M259.03 105.71s400.32 70.645 414.45 395.62c14.129 324.97-188.39 367.36-259.03 419.16-70.645 51.807-113.03 113.03-146 113.03-32.968 0-80.065-14.13-80.065-14.13s9.42 51.81 75.355 47.1c65.936-4.71 127.16-113.03 164.84-131.87s277.88-98.9 259.04-428.58c-14.13-353.23-423.88-390.91-428.59-400.33z" transform="matrix(.13845 .03263 -.0345 .1482 406.46 152.89)" stroke-width="1.603" fill="#006700"/><path id="path1810" d="M320.26 487.2c0 59.825-11.597 108.32-25.903 108.32s-25.903-48.498-25.903-108.32c0-59.825 11.597-108.32 25.903-108.32s25.903 48.498 25.903 108.32z" transform="matrix(.06736 -.00532 .01657 .06701 435.79 156.41)" stroke-width="1.603" fill="#006700"/><path id="path1811" d="M320.26 487.2c0 59.825-11.597 108.32-25.903 108.32s-25.903-48.498-25.903-108.32c0-59.825 11.597-108.32 25.903-108.32s25.903 48.498 25.903 108.32z" transform="matrix(.061 -.02296 .03069 .0639 429.11 164.08)" stroke-width="1.603" fill="#006700"/><path id="path1812" d="M320.26 487.2c0 59.825-11.597 108.32-25.903 108.32s-25.903-48.498-25.903-108.32c0-59.825 11.597-108.32 25.903-108.32s25.903 48.498 25.903 108.32z" transform="matrix(.0064 -.07135 .0628 .01895 425.66 205.09)" stroke-width="1.603" fill="#006700"/><path id="path1813" d="M320.26 487.2c0 59.825-11.597 108.32-25.903 108.32s-25.903-48.498-25.903-108.32c0-59.825 11.597-108.32 25.903-108.32s25.903 48.498 25.903 108.32z" transform="matrix(.02942 -.06013 .0572 .03953 421.8 189.48)" stroke-width="1.603" fill="#006700"/><path id="path1814" d="M320.26 487.2c0 59.825-11.597 108.32-25.903 108.32s-25.903-48.498-25.903-108.32c0-59.825 11.597-108.32 25.903-108.32s25.903 48.498 25.903 108.32z" transform="matrix(.04453 -.04704 .04858 .05203 423.4 178.25)" stroke-width="1.603" fill="#006700"/><path id="path1815" d="M490.58 234.24c0 .846-.823 1.531-1.837 1.531s-1.838-.685-1.838-1.531c0-.846.823-1.531 1.838-1.531s1.837.685 1.837 1.531z" transform="matrix(.71299 -.2327 .28833 .88343 65.801 118.99)" stroke-width=".332" fill="red"/><path id="path1816" d="M490.58 234.24c0 .846-.823 1.531-1.837 1.531s-1.838-.685-1.838-1.531c0-.846.823-1.531 1.838-1.531s1.837.685 1.837 1.531z" transform="matrix(.71299 -.2327 .28833 .88343 60.189 121.51)" stroke-width=".332" fill="red"/><path id="path1817" d="M320.26 487.2c0 59.825-11.597 108.32-25.903 108.32s-25.903-48.498-25.903-108.32c0-59.825 11.597-108.32 25.903-108.32s25.903 48.498 25.903 108.32z" transform="matrix(.095 .02345 .00142 .10361 450.31 143)" stroke-width="1.603" fill="#006700"/><path id="path1818" d="M320.26 487.2c0 59.825-11.597 108.32-25.903 108.32s-25.903-48.498-25.903-108.32c0-59.825 11.597-108.32 25.903-108.32s25.903 48.498 25.903 108.32z" transform="matrix(.09185 -.00476 .02197 .10567 438.59 150.9)" stroke-width="1.603" fill="#006700"/><path id="path1819" d="M320.26 487.2c0 59.825-11.597 108.32-25.903 108.32s-25.903-48.498-25.903-108.32c0-59.825 11.597-108.32 25.903-108.32s25.903 48.498 25.903 108.32z" transform="matrix(.03178 -.09924 .0809 .0561 420.64 208.04)" stroke-width="1.603" fill="#006700"/><path id="path1820" d="M320.26 487.2c0 59.825-11.597 108.32-25.903 108.32s-25.903-48.498-25.903-108.32c0-59.825 11.597-108.32 25.903-108.32s25.903 48.498 25.903 108.32z" transform="matrix(.06006 -.07255 .06651 .083 420.3 183.9)" stroke-width="1.603" fill="#006700"/><path id="path1821" d="M320.26 487.2c0 59.825-11.597 108.32-25.903 108.32s-25.903-48.498-25.903-108.32c0-59.825 11.597-108.32 25.903-108.32s25.903 48.498 25.903 108.32z" transform="matrix(.07679 -.04683 .05055 .09692 426.13 168.55)" stroke-width="1.603" fill="#006700"/><path id="path1822" d="M320.26 487.2c0 59.825-11.597 108.32-25.903 108.32s-25.903-48.498-25.903-108.32c0-59.825 11.597-108.32 25.903-108.32s25.903 48.498 25.903 108.32z" transform="matrix(.08876 .04196 -.01675 .10262 469.8 160.18)" stroke-width="1.603" fill="#006700"/><path id="path1823" d="M320.26 487.2c0 59.825-11.597 108.32-25.903 108.32s-25.903-48.498-25.903-108.32c0-59.825 11.597-108.32 25.903-108.32s25.903 48.498 25.903 108.32z" transform="matrix(.09061 .01349 .00298 .10871 456.96 165.67)" stroke-width="1.603" fill="#006700"/><path id="path1824" d="M320.26 487.2c0 59.825-11.597 108.32-25.903 108.32s-25.903-48.498-25.903-108.32c0-59.825 11.597-108.32 25.903-108.32s25.903 48.498 25.903 108.32z" transform="matrix(.04843 -.09172 .06925 .07143 429.42 218.55)" stroke-width="1.603" fill="#006700"/><path id="path1825" d="M320.26 487.2c0 59.825-11.597 108.32-25.903 108.32s-25.903-48.498-25.903-108.32c0-59.825 11.597-108.32 25.903-108.32s25.903 48.498 25.903 108.32z" transform="matrix(.0714 -.05976 .05048 .09514 433.31 194.64)" stroke-width="1.603" fill="#006700"/><path id="path1826" d="M320.26 487.2c0 59.825-11.597 108.32-25.903 108.32s-25.903-48.498-25.903-108.32c0-59.825 11.597-108.32 25.903-108.32s25.903 48.498 25.903 108.32z" transform="matrix(.08325 -.03105 .03245 .10574 441.69 180.63)" stroke-width="1.603" fill="#006700"/><path id="path1827" d="M320.26 487.2c0 59.825-11.597 108.32-25.903 108.32s-25.903-48.498-25.903-108.32c0-59.825 11.597-108.32 25.903-108.32s25.903 48.498 25.903 108.32z" transform="matrix(.06454 .07673 -.05382 .08802 496.25 181.43)" stroke-width="1.603" fill="#006700"/><path id="path1828" d="M320.26 487.2c0 59.825-11.597 108.32-25.903 108.32s-25.903-48.498-25.903-108.32c0-59.825 11.597-108.32 25.903-108.32s25.903 48.498 25.903 108.32z" transform="matrix(.07695 .05112 -.03826 .10208 482.57 181.05)" stroke-width="1.603" fill="#006700"/><path id="path1829" d="M320.26 487.2c0 59.825-11.597 108.32-25.903 108.32s-25.903-48.498-25.903-108.32c0-59.825 11.597-108.32 25.903-108.32s25.903 48.498 25.903 108.32z" transform="matrix(.0784 -.06442 .03578 .09574 437.71 218.35)" stroke-width="1.603" fill="#006700"/><path id="path1830" d="M320.26 487.2c0 59.825-11.597 108.32-25.903 108.32s-25.903-48.498-25.903-108.32c0-59.825 11.597-108.32 25.903-108.32s25.903 48.498 25.903 108.32z" transform="matrix(.08715 -.02499 .00986 .10974 450.24 197.83)" stroke-width="1.603" fill="#006700"/><path id="path1831" d="M320.26 487.2c0 59.825-11.597 108.32-25.903 108.32s-25.903-48.498-25.903-108.32c0-59.825 11.597-108.32 25.903-108.32s25.903 48.498 25.903 108.32z" transform="matrix(.08707 .00668 -.01046 .11188 463.11 188.42)" stroke-width="1.603" fill="#006700"/><path id="path1832" d="M320.26 487.2c0 59.825-11.597 108.32-25.903 108.32s-25.903-48.498-25.903-108.32c0-59.825 11.597-108.32 25.903-108.32s25.903 48.498 25.903 108.32z" transform="matrix(.04657 .10876 -.0873 .07709 511.72 202.12)" stroke-width="1.603" fill="#006700"/><path id="path1833" d="M490.58 234.24c0 .846-.823 1.531-1.837 1.531s-1.838-.685-1.838-1.531c0-.846.823-1.531 1.838-1.531s1.837.685 1.837 1.531z" transform="matrix(.29304 -.42472 .55451 .30219 167.81 313.54)" stroke-width=".332" fill="red"/><path id="path1834" d="M490.58 234.24c0 .846-.823 1.531-1.837 1.531s-1.838-.685-1.838-1.531c0-.846.823-1.531 1.838-1.531s1.837.685 1.837 1.531z" transform="matrix(.29304 -.42472 .55451 .30219 165.8 317.22)" stroke-width=".332" fill="red"/><path id="path1835" d="M320.26 487.2c0 59.825-11.597 108.32-25.903 108.32s-25.903-48.498-25.903-108.32c0-59.825 11.597-108.32 25.903-108.32s25.903 48.498 25.903 108.32z" transform="matrix(.0684 .08511 -.07466 .09841 496.78 196.6)" stroke-width="1.603" fill="#006700"/><path id="path1836" d="M320.26 487.2c0 59.825-11.597 108.32-25.903 108.32s-25.903-48.498-25.903-108.32c0-59.825 11.597-108.32 25.903-108.32s25.903 48.498 25.903 108.32z" transform="matrix(.10683 -.04187 .00886 .11902 435.5 221.04)" stroke-width="1.603" fill="#006700"/><path id="path1837" d="M320.26 487.2c0 59.825-11.597 108.32-25.903 108.32s-25.903-48.498-25.903-108.32c0-59.825 11.597-108.32 25.903-108.32s25.903 48.498 25.903 108.32z" transform="matrix(.1039 .0049 -.02414 .12481 455.84 203.07)" stroke-width="1.603" fill="#006700"/><path id="path1838" d="M320.26 487.2c0 59.825-11.597 108.32-25.903 108.32s-25.903-48.498-25.903-108.32c0-59.825 11.597-108.32 25.903-108.32s25.903 48.498 25.903 108.32z" transform="matrix(.0937 .03984 -.04719 .11959 473 197.47)" stroke-width="1.603" fill="#006700"/><path id="path1839" d="M320.26 487.2c0 59.825-11.597 108.32-25.903 108.32s-25.903-48.498-25.903-108.32c0-59.825 11.597-108.32 25.903-108.32s25.903 48.498 25.903 108.32z" transform="matrix(-.01269 .1312 -.12512 .02127 532.08 244.55)" stroke-width="1.603" fill="#006700"/><path id="path1840" d="M490.58 234.24c0 .846-.823 1.531-1.837 1.531s-1.838-.685-1.838-1.531c0-.846.823-1.531 1.838-1.531s1.837.685 1.837 1.531z" transform="matrix(.45225 .5983 -.74133 .56036 427.87 -141.94)" stroke-width=".332" fill="red"/><path id="path1841" d="M490.58 234.24c0 .846-.823 1.531-1.837 1.531s-1.838-.685-1.838-1.531c0-.846.823-1.531 1.838-1.531s1.837.685 1.837 1.531z" transform="matrix(.45225 .5983 -.74133 .56036 423.66 -146.42)" stroke-width=".332" fill="red"/><path id="path1842" d="M320.26 487.2c0 59.825-11.597 108.32-25.903 108.32s-25.903-48.498-25.903-108.32c0-59.825 11.597-108.32 25.903-108.32s25.903 48.498 25.903 108.32z" transform="matrix(.02091 .12172 -.12422 .04909 520.59 230.39)" stroke-width="1.603" fill="#006700"/><path id="path1843" d="M320.26 487.2c0 59.825-11.597 108.32-25.903 108.32s-25.903-48.498-25.903-108.32c0-59.825 11.597-108.32 25.903-108.32s25.903 48.498 25.903 108.32z" transform="matrix(.1253 .02386 -.05453 .11847 448.5 217.11)" stroke-width="1.603" fill="#006700"/><path id="path1844" d="M320.26 487.2c0 59.825-11.597 108.32-25.903 108.32s-25.903-48.498-25.903-108.32c0-59.825 11.597-108.32 25.903-108.32s25.903 48.498 25.903 108.32z" transform="matrix(.09768 .0666 -.08944 .10431 477.65 212.14)" stroke-width="1.603" fill="#006700"/><path id="path1845" d="M320.26 487.2c0 59.825-11.597 108.32-25.903 108.32s-25.903-48.498-25.903-108.32c0-59.825 11.597-108.32 25.903-108.32s25.903 48.498 25.903 108.32z" transform="matrix(.06933 .09374 -.10892 .0856 497.18 217.05)" stroke-width="1.603" fill="#006700"/><g id="g1846" transform="matrix(.0629 .16941 -.15868 .07052 507.09 211.42)" stroke-width="1.603" fill="#006700"><path id="path1847" d="M314.71 506.2c0 45.062-10.064 81.591-22.479 81.591s-22.479-36.53-22.479-81.591c0-45.062 10.064-81.591 22.479-81.591s22.479 36.53 22.479 81.591z" transform="rotate(21.793 261.982 628.651)"/><path id="path1848" d="M314.71 506.2c0 45.062-10.064 81.591-22.479 81.591s-22.479-36.53-22.479-81.591c0-45.062 10.064-81.591 22.479-81.591s22.479 36.53 22.479 81.591z" transform="rotate(-29.063 324.71 566.03)"/><path id="path1849" d="M314.71 506.2c0 45.062-10.064 81.591-22.479 81.591s-22.479-36.53-22.479-81.591c0-45.062 10.064-81.591 22.479-81.591s22.479 36.53 22.479 81.591z" transform="translate(9.99 14.986)"/></g><g id="g1850" transform="matrix(.03866 -.06516 .10009 .0525 381.33 173.41)" stroke-width="1.603" fill="#006700"><path id="path1851" d="M314.71 506.2c0 45.062-10.064 81.591-22.479 81.591s-22.479-36.53-22.479-81.591c0-45.062 10.064-81.591 22.479-81.591s22.479 36.53 22.479 81.591z" transform="rotate(21.793 261.982 628.651)"/><path id="path1852" d="M314.71 506.2c0 45.062-10.064 81.591-22.479 81.591s-22.479-36.53-22.479-81.591c0-45.062 10.064-81.591 22.479-81.591s22.479 36.53 22.479 81.591z" transform="rotate(-29.063 324.71 566.03)"/><path id="path1853" d="M314.71 506.2c0 45.062-10.064 81.591-22.479 81.591s-22.479-36.53-22.479-81.591c0-45.062 10.064-81.591 22.479-81.591s22.479 36.53 22.479 81.591z" transform="translate(9.99 14.986)"/></g><path id="path1854" d="M490.58 234.24c0 .846-.823 1.531-1.837 1.531s-1.838-.685-1.838-1.531c0-.846.823-1.531 1.838-1.531s1.837.685 1.837 1.531z" transform="matrix(.75 0 0 .92929 121.35 16.238)" stroke-width=".332" fill="red"/><path id="path1855" d="M490.58 234.24c0 .846-.823 1.531-1.837 1.531s-1.838-.685-1.838-1.531c0-.846.823-1.531 1.838-1.531s1.837.685 1.837 1.531z" transform="matrix(.75 0 0 .92929 115.23 16.888)" stroke-width=".332" fill="red"/><path id="path1856" d="M490.58 234.24c0 .846-.823 1.531-1.837 1.531s-1.838-.685-1.838-1.531c0-.846.823-1.531 1.838-1.531s1.837.685 1.837 1.531z" transform="matrix(.64918 .37559 -.46538 .80436 276.35 -113.32)" stroke-width=".332" fill="red"/><path id="path1857" d="M490.58 234.24c0 .846-.823 1.531-1.837 1.531s-1.838-.685-1.838-1.531c0-.846.823-1.531 1.838-1.531s1.837.685 1.837 1.531z" transform="matrix(.64918 .37559 -.46538 .80436 270.73 -115.82)" stroke-width=".332" fill="red"/><path id="path1858" d="M490.58 234.24c0 .846-.823 1.531-1.837 1.531s-1.838-.685-1.838-1.531c0-.846.823-1.531 1.838-1.531s1.837.685 1.837 1.531z" transform="matrix(.40299 -.32227 .44392 .44914 153.89 236.13)" stroke-width=".332" fill="red"/><path id="path1859" d="M490.58 234.24c0 .846-.823 1.531-1.837 1.531s-1.838-.685-1.838-1.531c0-.846.823-1.531 1.838-1.531s1.837.685 1.837 1.531z" transform="matrix(.40299 -.32227 .44392 .44914 150.91 239.07)" stroke-width=".332" fill="red"/></g><g id="g1752" transform="translate(-4.287 9.8)"><path id="path1746" d="M490.58 234.24c0 .846-.823 1.531-1.837 1.531s-1.838-.685-1.838-1.531c0-.846.823-1.531 1.838-1.531s1.837.685 1.837 1.531z" transform="matrix(.63371 -.40113 .49703 .7852 41.19 205.69)" stroke-width=".332" fill="red"/><path id="path1747" d="M490.58 234.24c0 .846-.823 1.531-1.837 1.531s-1.838-.685-1.838-1.531c0-.846.823-1.531 1.838-1.531s1.837.685 1.837 1.531z" transform="matrix(.63371 -.40113 .49703 .7852 36.37 209.51)" stroke-width=".332" fill="red"/><path id="path774" d="M259.03 105.71s400.32 70.645 414.45 395.62c14.129 324.97-188.39 367.36-259.03 419.16-70.645 51.807-113.03 113.03-146 113.03-32.968 0-80.065-14.13-80.065-14.13s9.42 51.81 75.355 47.1c65.936-4.71 127.16-113.03 164.84-131.87s277.88-98.9 259.04-428.58c-14.13-353.23-423.88-390.91-428.59-400.33z" transform="matrix(.13845 .03263 -.0345 .1482 406.46 152.89)" stroke-width="1.603" fill="#006700"/><path id="path780" d="M320.26 487.2c0 59.825-11.597 108.32-25.903 108.32s-25.903-48.498-25.903-108.32c0-59.825 11.597-108.32 25.903-108.32s25.903 48.498 25.903 108.32z" transform="matrix(.06736 -.00532 .01657 .06701 435.79 156.41)" stroke-width="1.603" fill="#006700"/><path id="path778" d="M320.26 487.2c0 59.825-11.597 108.32-25.903 108.32s-25.903-48.498-25.903-108.32c0-59.825 11.597-108.32 25.903-108.32s25.903 48.498 25.903 108.32z" transform="matrix(.061 -.02296 .03069 .0639 429.11 164.08)" stroke-width="1.603" fill="#006700"/><path id="path779" d="M320.26 487.2c0 59.825-11.597 108.32-25.903 108.32s-25.903-48.498-25.903-108.32c0-59.825 11.597-108.32 25.903-108.32s25.903 48.498 25.903 108.32z" transform="matrix(.0064 -.07135 .0628 .01895 425.66 205.09)" stroke-width="1.603" fill="#006700"/><path id="path777" d="M320.26 487.2c0 59.825-11.597 108.32-25.903 108.32s-25.903-48.498-25.903-108.32c0-59.825 11.597-108.32 25.903-108.32s25.903 48.498 25.903 108.32z" transform="matrix(.02942 -.06013 .0572 .03953 421.8 189.48)" stroke-width="1.603" fill="#006700"/><path id="path776" d="M320.26 487.2c0 59.825-11.597 108.32-25.903 108.32s-25.903-48.498-25.903-108.32c0-59.825 11.597-108.32 25.903-108.32s25.903 48.498 25.903 108.32z" transform="matrix(.04453 -.04704 .04858 .05203 423.4 178.25)" stroke-width="1.603" fill="#006700"/><path id="path1738" d="M490.58 234.24c0 .846-.823 1.531-1.837 1.531s-1.838-.685-1.838-1.531c0-.846.823-1.531 1.838-1.531s1.837.685 1.837 1.531z" transform="matrix(.71299 -.2327 .28833 .88343 65.801 118.99)" stroke-width=".332" fill="red"/><path id="path1739" d="M490.58 234.24c0 .846-.823 1.531-1.837 1.531s-1.838-.685-1.838-1.531c0-.846.823-1.531 1.838-1.531s1.837.685 1.837 1.531z" transform="matrix(.71299 -.2327 .28833 .88343 60.189 121.51)" stroke-width=".332" fill="red"/><path id="path790" d="M320.26 487.2c0 59.825-11.597 108.32-25.903 108.32s-25.903-48.498-25.903-108.32c0-59.825 11.597-108.32 25.903-108.32s25.903 48.498 25.903 108.32z" transform="matrix(.095 .02345 .00142 .10361 450.31 143)" stroke-width="1.603" fill="#006700"/><path id="path791" d="M320.26 487.2c0 59.825-11.597 108.32-25.903 108.32s-25.903-48.498-25.903-108.32c0-59.825 11.597-108.32 25.903-108.32s25.903 48.498 25.903 108.32z" transform="matrix(.09185 -.00476 .02197 .10567 438.59 150.9)" stroke-width="1.603" fill="#006700"/><path id="path792" d="M320.26 487.2c0 59.825-11.597 108.32-25.903 108.32s-25.903-48.498-25.903-108.32c0-59.825 11.597-108.32 25.903-108.32s25.903 48.498 25.903 108.32z" transform="matrix(.03178 -.09924 .0809 .0561 420.64 208.04)" stroke-width="1.603" fill="#006700"/><path id="path793" d="M320.26 487.2c0 59.825-11.597 108.32-25.903 108.32s-25.903-48.498-25.903-108.32c0-59.825 11.597-108.32 25.903-108.32s25.903 48.498 25.903 108.32z" transform="matrix(.06006 -.07255 .06651 .083 420.3 183.9)" stroke-width="1.603" fill="#006700"/><path id="path794" d="M320.26 487.2c0 59.825-11.597 108.32-25.903 108.32s-25.903-48.498-25.903-108.32c0-59.825 11.597-108.32 25.903-108.32s25.903 48.498 25.903 108.32z" transform="matrix(.07679 -.04683 .05055 .09692 426.13 168.55)" stroke-width="1.603" fill="#006700"/><path id="path797" d="M320.26 487.2c0 59.825-11.597 108.32-25.903 108.32s-25.903-48.498-25.903-108.32c0-59.825 11.597-108.32 25.903-108.32s25.903 48.498 25.903 108.32z" transform="matrix(.08876 .04196 -.01675 .10262 469.8 160.18)" stroke-width="1.603" fill="#006700"/><path id="path798" d="M320.26 487.2c0 59.825-11.597 108.32-25.903 108.32s-25.903-48.498-25.903-108.32c0-59.825 11.597-108.32 25.903-108.32s25.903 48.498 25.903 108.32z" transform="matrix(.09061 .01349 .00298 .10871 456.96 165.67)" stroke-width="1.603" fill="#006700"/><path id="path799" d="M320.26 487.2c0 59.825-11.597 108.32-25.903 108.32s-25.903-48.498-25.903-108.32c0-59.825 11.597-108.32 25.903-108.32s25.903 48.498 25.903 108.32z" transform="matrix(.04843 -.09172 .06925 .07143 429.42 218.55)" stroke-width="1.603" fill="#006700"/><path id="path800" d="M320.26 487.2c0 59.825-11.597 108.32-25.903 108.32s-25.903-48.498-25.903-108.32c0-59.825 11.597-108.32 25.903-108.32s25.903 48.498 25.903 108.32z" transform="matrix(.0714 -.05976 .05048 .09514 433.31 194.64)" stroke-width="1.603" fill="#006700"/><path id="path801" d="M320.26 487.2c0 59.825-11.597 108.32-25.903 108.32s-25.903-48.498-25.903-108.32c0-59.825 11.597-108.32 25.903-108.32s25.903 48.498 25.903 108.32z" transform="matrix(.08325 -.03105 .03245 .10574 441.69 180.63)" stroke-width="1.603" fill="#006700"/><path id="path804" d="M320.26 487.2c0 59.825-11.597 108.32-25.903 108.32s-25.903-48.498-25.903-108.32c0-59.825 11.597-108.32 25.903-108.32s25.903 48.498 25.903 108.32z" transform="matrix(.06454 .07673 -.05382 .08802 496.25 181.43)" stroke-width="1.603" fill="#006700"/><path id="path805" d="M320.26 487.2c0 59.825-11.597 108.32-25.903 108.32s-25.903-48.498-25.903-108.32c0-59.825 11.597-108.32 25.903-108.32s25.903 48.498 25.903 108.32z" transform="matrix(.07695 .05112 -.03826 .10208 482.57 181.05)" stroke-width="1.603" fill="#006700"/><path id="path806" d="M320.26 487.2c0 59.825-11.597 108.32-25.903 108.32s-25.903-48.498-25.903-108.32c0-59.825 11.597-108.32 25.903-108.32s25.903 48.498 25.903 108.32z" transform="matrix(.0784 -.06442 .03578 .09574 437.71 218.35)" stroke-width="1.603" fill="#006700"/><path id="path1626" d="M320.26 487.2c0 59.825-11.597 108.32-25.903 108.32s-25.903-48.498-25.903-108.32c0-59.825 11.597-108.32 25.903-108.32s25.903 48.498 25.903 108.32z" transform="matrix(.08715 -.02499 .00986 .10974 450.24 197.83)" stroke-width="1.603" fill="#006700"/><path id="path808" d="M320.26 487.2c0 59.825-11.597 108.32-25.903 108.32s-25.903-48.498-25.903-108.32c0-59.825 11.597-108.32 25.903-108.32s25.903 48.498 25.903 108.32z" transform="matrix(.08707 .00668 -.01046 .11188 463.11 188.42)" stroke-width="1.603" fill="#006700"/><path id="path811" d="M320.26 487.2c0 59.825-11.597 108.32-25.903 108.32s-25.903-48.498-25.903-108.32c0-59.825 11.597-108.32 25.903-108.32s25.903 48.498 25.903 108.32z" transform="matrix(.04657 .10876 -.0873 .07709 511.72 202.12)" stroke-width="1.603" fill="#006700"/><path id="path1750" d="M490.58 234.24c0 .846-.823 1.531-1.837 1.531s-1.838-.685-1.838-1.531c0-.846.823-1.531 1.838-1.531s1.837.685 1.837 1.531z" transform="matrix(.29304 -.42472 .55451 .30219 167.81 313.54)" stroke-width=".332" fill="red"/><path id="path1751" d="M490.58 234.24c0 .846-.823 1.531-1.837 1.531s-1.838-.685-1.838-1.531c0-.846.823-1.531 1.838-1.531s1.837.685 1.837 1.531z" transform="matrix(.29304 -.42472 .55451 .30219 165.8 317.22)" stroke-width=".332" fill="red"/><path id="path812" d="M320.26 487.2c0 59.825-11.597 108.32-25.903 108.32s-25.903-48.498-25.903-108.32c0-59.825 11.597-108.32 25.903-108.32s25.903 48.498 25.903 108.32z" transform="matrix(.0684 .08511 -.07466 .09841 496.78 196.6)" stroke-width="1.603" fill="#006700"/><path id="path813" d="M320.26 487.2c0 59.825-11.597 108.32-25.903 108.32s-25.903-48.498-25.903-108.32c0-59.825 11.597-108.32 25.903-108.32s25.903 48.498 25.903 108.32z" transform="matrix(.10683 -.04187 .00886 .11902 435.5 221.04)" stroke-width="1.603" fill="#006700"/><path id="path1633" d="M320.26 487.2c0 59.825-11.597 108.32-25.903 108.32s-25.903-48.498-25.903-108.32c0-59.825 11.597-108.32 25.903-108.32s25.903 48.498 25.903 108.32z" transform="matrix(.1039 .0049 -.02414 .12481 455.84 203.07)" stroke-width="1.603" fill="#006700"/><path id="path1634" d="M320.26 487.2c0 59.825-11.597 108.32-25.903 108.32s-25.903-48.498-25.903-108.32c0-59.825 11.597-108.32 25.903-108.32s25.903 48.498 25.903 108.32z" transform="matrix(.0937 .03984 -.04719 .11959 473 197.47)" stroke-width="1.603" fill="#006700"/><path id="path1637" d="M320.26 487.2c0 59.825-11.597 108.32-25.903 108.32s-25.903-48.498-25.903-108.32c0-59.825 11.597-108.32 25.903-108.32s25.903 48.498 25.903 108.32z" transform="matrix(-.01269 .1312 -.12512 .02127 532.08 244.55)" stroke-width="1.603" fill="#006700"/><path id="path1736" d="M490.58 234.24c0 .846-.823 1.531-1.837 1.531s-1.838-.685-1.838-1.531c0-.846.823-1.531 1.838-1.531s1.837.685 1.837 1.531z" transform="matrix(.45225 .5983 -.74133 .56036 427.87 -141.94)" stroke-width=".332" fill="red"/><path id="path1737" d="M490.58 234.24c0 .846-.823 1.531-1.837 1.531s-1.838-.685-1.838-1.531c0-.846.823-1.531 1.838-1.531s1.837.685 1.837 1.531z" transform="matrix(.45225 .5983 -.74133 .56036 423.66 -146.42)" stroke-width=".332" fill="red"/><path id="path1638" d="M320.26 487.2c0 59.825-11.597 108.32-25.903 108.32s-25.903-48.498-25.903-108.32c0-59.825 11.597-108.32 25.903-108.32s25.903 48.498 25.903 108.32z" transform="matrix(.02091 .12172 -.12422 .04909 520.59 230.39)" stroke-width="1.603" fill="#006700"/><path id="path820" d="M320.26 487.2c0 59.825-11.597 108.32-25.903 108.32s-25.903-48.498-25.903-108.32c0-59.825 11.597-108.32 25.903-108.32s25.903 48.498 25.903 108.32z" transform="matrix(.1253 .02386 -.05453 .11847 448.5 217.11)" stroke-width="1.603" fill="#006700"/><path id="path821" d="M320.26 487.2c0 59.825-11.597 108.32-25.903 108.32s-25.903-48.498-25.903-108.32c0-59.825 11.597-108.32 25.903-108.32s25.903 48.498 25.903 108.32z" transform="matrix(.09768 .0666 -.08944 .10431 477.65 212.14)" stroke-width="1.603" fill="#006700"/><path id="path822" d="M320.26 487.2c0 59.825-11.597 108.32-25.903 108.32s-25.903-48.498-25.903-108.32c0-59.825 11.597-108.32 25.903-108.32s25.903 48.498 25.903 108.32z" transform="matrix(.06933 .09374 -.10892 .0856 497.18 217.05)" stroke-width="1.603" fill="#006700"/><g id="g834" transform="matrix(.0629 .16941 -.15868 .07052 507.09 211.42)" stroke-width="1.603" fill="#006700"><path id="path832" d="M314.71 506.2c0 45.062-10.064 81.591-22.479 81.591s-22.479-36.53-22.479-81.591c0-45.062 10.064-81.591 22.479-81.591s22.479 36.53 22.479 81.591z" transform="rotate(21.793 261.982 628.651)"/><path id="path1645" d="M314.71 506.2c0 45.062-10.064 81.591-22.479 81.591s-22.479-36.53-22.479-81.591c0-45.062 10.064-81.591 22.479-81.591s22.479 36.53 22.479 81.591z" transform="rotate(-29.063 324.71 566.03)"/><path id="path831" d="M314.71 506.2c0 45.062-10.064 81.591-22.479 81.591s-22.479-36.53-22.479-81.591c0-45.062 10.064-81.591 22.479-81.591s22.479 36.53 22.479 81.591z" transform="translate(9.99 14.986)"/></g><g id="g838" transform="matrix(.03866 -.06516 .10009 .0525 381.33 173.41)" stroke-width="1.603" fill="#006700"><path id="path839" d="M314.71 506.2c0 45.062-10.064 81.591-22.479 81.591s-22.479-36.53-22.479-81.591c0-45.062 10.064-81.591 22.479-81.591s22.479 36.53 22.479 81.591z" transform="rotate(21.793 261.982 628.651)"/><path id="path1649" d="M314.71 506.2c0 45.062-10.064 81.591-22.479 81.591s-22.479-36.53-22.479-81.591c0-45.062 10.064-81.591 22.479-81.591s22.479 36.53 22.479 81.591z" transform="rotate(-29.063 324.71 566.03)"/><path id="path841" d="M314.71 506.2c0 45.062-10.064 81.591-22.479 81.591s-22.479-36.53-22.479-81.591c0-45.062 10.064-81.591 22.479-81.591s22.479 36.53 22.479 81.591z" transform="translate(9.99 14.986)"/></g><path id="path1732" d="M490.58 234.24c0 .846-.823 1.531-1.837 1.531s-1.838-.685-1.838-1.531c0-.846.823-1.531 1.838-1.531s1.837.685 1.837 1.531z" transform="matrix(.75 0 0 .92929 121.35 16.238)" stroke-width=".332" fill="red"/><path id="path1733" d="M490.58 234.24c0 .846-.823 1.531-1.837 1.531s-1.838-.685-1.838-1.531c0-.846.823-1.531 1.838-1.531s1.837.685 1.837 1.531z" transform="matrix(.75 0 0 .92929 115.23 16.888)" stroke-width=".332" fill="red"/><path id="path1734" d="M490.58 234.24c0 .846-.823 1.531-1.837 1.531s-1.838-.685-1.838-1.531c0-.846.823-1.531 1.838-1.531s1.837.685 1.837 1.531z" transform="matrix(.64918 .37559 -.46538 .80436 276.35 -113.32)" stroke-width=".332" fill="red"/><path id="path1735" d="M490.58 234.24c0 .846-.823 1.531-1.837 1.531s-1.838-.685-1.838-1.531c0-.846.823-1.531 1.838-1.531s1.837.685 1.837 1.531z" transform="matrix(.64918 .37559 -.46538 .80436 270.73 -115.82)" stroke-width=".332" fill="red"/><path id="path1748" d="M490.58 234.24c0 .846-.823 1.531-1.837 1.531s-1.838-.685-1.838-1.531c0-.846.823-1.531 1.838-1.531s1.837.685 1.837 1.531z" transform="matrix(.40299 -.32227 .44392 .44914 153.89 236.13)" stroke-width=".332" fill="red"/><path id="path1749" d="M490.58 234.24c0 .846-.823 1.531-1.837 1.531s-1.838-.685-1.838-1.531c0-.846.823-1.531 1.838-1.531s1.837.685 1.837 1.531z" transform="matrix(.40299 -.32227 .44392 .44914 150.91 239.07)" stroke-width=".332" fill="red"/></g><g id="g1911" transform="translate(-3.062 1.837)" stroke-width=".235" fill="#5387f4"><path id="path1861" d="M411.36 319.5l.037 5.258c10.21-.517 5.263 6.977 7.029 11.223l2.255-2.827 3.122 2.803c-.25-4.908 2.748-17.395-12.443-16.457z" transform="translate(.433)"/><path id="path1862" d="M411.36 319.5l.037 5.258c10.21-.517 5.263 6.977 7.029 11.223l2.255-2.827 3.122 2.803c-.25-4.908 2.748-17.395-12.443-16.457z" transform="matrix(-1 0 0 1 826.8 .217)"/><g id="g1865" transform="rotate(26.278 413.435 319.876)"><path id="path1864" d="M427.88 303.13c.325 1.901-.449 11.372-.865 13.641-.537 1.923-.447 6.708-10.395 7.147-4.776.211-3.898-4.548-3.681-4.548.216 0 1.949 1.733 3.898 0 1.948-1.732-.444-17.53 1.515-19.488 2.156-2.155 9.985 1.496 9.528 3.248z"/><path id="path1863" d="M427.88 303.13c-2.057-.264-3.159-.732-3.68 1.516-2.053 9.068 2.368 17.101-7.58 19.272-4.665 1.041-3.898-4.548-3.681-4.548.216 0 1.949 1.733 3.898 0 1.948-1.732-.444-17.53 1.515-19.488 2.156-2.155 9.985 1.496 9.528 3.248z"/></g><g id="g1868" transform="scale(-1 1) rotate(26.278 -.99 -1455.565)"><path id="path1869" d="M427.88 303.13c.325 1.901-.449 11.372-.865 13.641-.537 1.923-.447 6.708-10.395 7.147-4.776.211-3.898-4.548-3.681-4.548.216 0 1.949 1.733 3.898 0 1.948-1.732-.444-17.53 1.515-19.488 2.156-2.155 9.985 1.496 9.528 3.248z"/><path id="path1870" d="M427.88 303.13c-2.057-.264-3.159-.732-3.68 1.516-2.053 9.068 2.368 17.101-7.58 19.272-4.665 1.041-3.898-4.548-3.681-4.548.216 0 1.949 1.733 3.898 0 1.948-1.732-.444-17.53 1.515-19.488 2.156-2.155 9.985 1.496 9.528 3.248z"/></g><path id="path1860" d="M411.57 319.06l-.18 6.774 5.08-.037.613-6.737h-5.513z"/></g></g><path id="path946" d="M409.69 276.93s-14.322 12.064-14.322 20.725c.306 3.457 3.169 6.981 8.407 9.52-2.418-3.586-2.747-6.52-2.747-9.931.306-5.86 8.461-12.931 8.461-12.931l.201-7.383z" fill-rule="evenodd" transform="matrix(-.55701 0 0 .56139 640.36 115.47)" stroke="#000" stroke-width=".235" fill="#5387f4"/><g id="g994" stroke="#000" fill-rule="evenodd" transform="matrix(.74925 0 0 .7416 145.3 269.28)"><path id="rect951" transform="matrix(.00134 -1.0774 -.89274 -.13654 -21.895 93.381)" stroke-width=".176" fill="#ffd200" d="M172.65-427.57h49.929v2.055H172.65z"/><path id="path952" d="M283.46-389.76l-17.717 70.866 17.717 25.037 17.716-25.037-17.716-70.866z" transform="matrix(-.15568 -.03036 -.00157 .16811 402.81 -28.331)" stroke-width="1.066" fill="#ffd200"/><path id="path953" d="M368.98-419.45s-40.709-27.717-40.709.866c0 28.582 39.843.866 40.709-.866zm-7.795-.181s-28.583-19.342-28.583.604c0 19.945 27.975.604 28.583-.604z" transform="matrix(-.12088 -.00963 .00369 .08716 404.67 -46.703)" stroke-width="1.685"/><path id="path954" d="M368.98-419.45s-40.709-27.717-40.709.866c0 28.582 39.843.866 40.709-.866zm-7.795-.181s-28.583-19.342-28.583.604c0 19.945 27.975.604 28.583-.604z" transform="matrix(.1182 -.01363 -.01637 -.08695 308.96 -117.95)" stroke-width="1.685"/><path id="path978" d="M422.29-165.7l2.45-.306s1.766 2.602 3.675 6.737c1.679 4.331 3.368 11.33 4.899 27.255-4.593-.307-21.436 1.531-21.436 1.531s.236-19.169 6.125-26.029c2.757-2.906 4.593-8.575 4.287-9.188z" transform="matrix(.9 0 0 1.0774 -21.895 93.381)" stroke-width=".175" fill="#5387f4"/><path id="path977" d="M422.29-165.7l2.45-.306s1.766 2.602 3.675 6.737c1.679 4.331-4.9 11.636-3.369 27.561-4.593-.307-13.168 1.225-13.168 1.225s.236-19.169 6.125-26.029c2.757-2.906 4.593-8.575 4.287-9.188z" transform="matrix(.9 0 0 1.0774 -21.895 93.381)" stroke-width=".175" fill="#fff"/><path id="path976" d="M422.29-165.7l2.45-.306s-.613 7.962-2.756 11.943c-2.144 3.981-3.369 22.967-3.063 22.967.307 0-7.043.613-7.043.613s.236-19.169 6.125-26.029c2.757-2.906 4.593-8.575 4.287-9.188z" transform="matrix(.9 0 0 1.0774 -21.895 93.381)" stroke-width=".175" fill="#5387f4"/></g><path id="path945" d="M409.69 276.93s-14.322 12.064-14.322 20.725c.306 3.457 3.169 6.981 8.407 9.52-2.418-3.586-2.747-6.52-2.747-9.931.306-5.86 8.461-12.931 8.461-12.931l.201-7.383z" fill-rule="evenodd" transform="matrix(.57303 0 0 .54638 180.32 119.86)" stroke="#000" stroke-width=".235" fill="#5387f4"/><g id="g930" stroke="#000" fill-rule="evenodd" transform="matrix(-.26793 0 0 .19503 512.17 346.21)"><path id="path931" d="M407.48-549.21l106.3-106.3s-27.516 220.02-88.583 265.75c0 0-53.15 24.117-53.15-.135l35.433-159.31z" stroke-width=".837" fill="#5387f4"/><path id="path932" d="M407.48-549.21l70.866-70.867s-35.433 230.31-106.3 230.31v-.135l35.433-159.31z" stroke-width=".837" fill="#fff"/><path id="path933" d="M407.48-549.21l35.433-35.434s-35.433 194.88-70.866 194.88v-.135l35.433-159.31z" stroke-width=".837" fill="#5387f4"/><path id="rect934" stroke-width=".816" fill="#ffd200" d="M407.48-555.308l127.463-123.055 5.086 5.269L412.567-550.04z"/><path id="path935" d="M283.46-389.76l-17.717 70.866 17.717 25.037 17.716-25.037-17.716-70.866z" transform="matrix(.44721 .43219 -.39504 .38894 290.37 -679.58)" stroke-width="1.729" fill="#ffd200"/><path id="path936" d="M368.98-419.45s-40.709-27.717-40.709.866c0 28.582 39.843.866 40.709-.866zm-7.795-.181s-28.583-19.342-28.583.604c0 19.945 27.975.604 28.583-.604z" transform="matrix(.38682 .26358 -.16606 .2437 323.5 -666.19)" stroke-width=".837"/><path id="path937" d="M368.98-419.45s-40.709-27.717-40.709.866c0 28.582 39.843.866 40.709-.866zm-7.795-.181s-28.583-19.342-28.583.604c0 19.945 27.975.604 28.583-.604z" transform="matrix(-.33732 -.32453 .20446 -.21252 742.75 -641.88)" stroke-width=".837"/><path id="path938" d="M425.197-504.86l106.3-53.15s-17.717 221.39-106.3 221.39c-53.15 0-70.866-70.866-70.866-70.866l70.866-97.378z" stroke-width=".837" fill="#5387f4"/><path id="path939" d="M425.197-504.86l70.866-35.434c0 35.434-17.716 185.96-70.866 185.96-35.433 0-70.866-53.15-70.866-53.15l70.866-97.378z" stroke-width=".837" fill="#fff"/><path id="path940" d="M425.197-504.86l35.433-17.717c0 79.662-17.716 150.53-53.149 150.53-17.717 0-53.15-35.433-53.15-35.433l70.866-97.378z" stroke-width=".837" fill="#5387f4"/><path id="rect941" stroke-width=".816" fill="#ffd200" d="M389.767-493.692l158.532-79.1 3.27 6.552-158.532 79.1z"/><path id="path942" d="M283.46-389.76l-17.717 70.866 17.717 25.037 17.716-25.037-17.716-70.866z" transform="matrix(.29679 .54653 -.4936 .25237 315.38 -647.39)" stroke-width="1.729" fill="#ffd200"/><path id="path943" d="M368.98-419.45s-40.709-27.717-40.709.866c0 28.582 39.843.866 40.709-.866zm-7.795-.181s-28.583-19.342-28.583.604c0 19.945 27.975.604 28.583-.604z" transform="matrix(.28982 .36758 -.23158 .18259 342.96 -624.68)" stroke-width=".837"/><path id="path944" d="M368.98-419.45s-40.709-27.717-40.709.866c0 28.582 39.843.866 40.709-.866zm-7.795-.181s-28.583-19.342-28.583.604c0 19.945 27.975.604 28.583-.604z" transform="matrix(-.2243 -.41085 .25884 -.14131 735.56 -475.59)" stroke-width=".837"/></g><g id="g915" stroke="#000" fill-rule="evenodd" transform="matrix(.26414 0 0 .19504 316.86 346.21)"><path id="path878" d="M407.48-549.21l106.3-106.3s-27.516 220.02-88.583 265.75c0 0-53.15 24.117-53.15-.135l35.433-159.31z" stroke-width=".837" fill="#5387f4"/><path id="path879" d="M407.48-549.21l70.866-70.867s-35.433 230.31-106.3 230.31v-.135l35.433-159.31z" stroke-width=".837" fill="#fff"/><path id="path880" d="M407.48-549.21l35.433-35.434s-35.433 194.88-70.866 194.88v-.135l35.433-159.31z" stroke-width=".837" fill="#5387f4"/><path id="rect881" stroke-width=".816" fill="#ffd200" d="M407.48-555.308l127.463-123.055 5.086 5.269L412.567-550.04z"/><path id="path882" d="M283.46-389.76l-17.717 70.866 17.717 25.037 17.716-25.037-17.716-70.866z" transform="matrix(.44721 .43219 -.39504 .38894 290.37 -679.58)" stroke-width="1.729" fill="#ffd200"/><path id="path883" d="M368.98-419.45s-40.709-27.717-40.709.866c0 28.582 39.843.866 40.709-.866zm-7.795-.181s-28.583-19.342-28.583.604c0 19.945 27.975.604 28.583-.604z" transform="matrix(.38682 .26358 -.16606 .2437 323.5 -666.19)" stroke-width=".837"/><path id="path884" d="M368.98-419.45s-40.709-27.717-40.709.866c0 28.582 39.843.866 40.709-.866zm-7.795-.181s-28.583-19.342-28.583.604c0 19.945 27.975.604 28.583-.604z" transform="matrix(-.33732 -.32453 .20446 -.21252 742.75 -641.88)" stroke-width=".837"/><path id="path834" d="M425.197-504.86l106.3-53.15s-17.717 221.39-106.3 221.39c-53.15 0-70.866-70.866-70.866-70.866l70.866-97.378z" stroke-width=".837" fill="#5387f4"/><path id="path835" d="M425.197-504.86l70.866-35.434c0 35.434-17.716 185.96-70.866 185.96-35.433 0-70.866-53.15-70.866-53.15l70.866-97.378z" stroke-width=".837" fill="#fff"/><path id="path836" d="M425.197-504.86l35.433-17.717c0 79.662-17.716 150.53-53.149 150.53-17.717 0-53.15-35.433-53.15-35.433l70.866-97.378z" stroke-width=".837" fill="#5387f4"/><path id="rect839" stroke-width=".816" fill="#ffd200" d="M389.767-493.692l158.532-79.1 3.27 6.552-158.532 79.1z"/><path id="path840" d="M283.46-389.76l-17.717 70.866 17.717 25.037 17.716-25.037-17.716-70.866z" transform="matrix(.29679 .54653 -.4936 .25237 315.38 -647.39)" stroke-width="1.729" fill="#ffd200"/><path id="path845" d="M368.98-419.45s-40.709-27.717-40.709.866c0 28.582 39.843.866 40.709-.866zm-7.795-.181s-28.583-19.342-28.583.604c0 19.945 27.975.604 28.583-.604z" transform="matrix(.28982 .36758 -.23158 .18259 342.96 -624.68)" stroke-width=".837"/><path id="path846" d="M368.98-419.45s-40.709-27.717-40.709.866c0 28.582 39.843.866 40.709-.866zm-7.795-.181s-28.583-19.342-28.583.604c0 19.945 27.975.604 28.583-.604z" transform="matrix(-.2243 -.41085 .25884 -.14131 735.56 -475.59)" stroke-width=".837"/></g><g id="g1871" stroke-linejoin="bevel" transform="matrix(.74925 0 0 .7416 105.14 70.338)" stroke="#000" stroke-width=".105"><path id="path580" d="M496.06 627.16l17.717-17.716 17.716 17.716H496.06z" fill-rule="evenodd" transform="matrix(2.6869 0 0 4.6313 -968.14 -2627.4)" fill="#ffd200"/><path id="path562" d="M496.06 627.16l17.717-17.716 17.716 17.716H496.06z" fill-rule="evenodd" transform="matrix(2.4214 0 0 4.1966 -831.57 -2357.1)" fill="#0ff"/><path id="path833" d="M419.84 239.14c0 3.89-3.222 7.043-7.196 7.043-3.975 0-7.197-3.153-7.197-7.043s3.222-7.043 7.197-7.043c3.974 0 7.196 3.153 7.196 7.043z" fill-rule="evenodd" fill="#ffd200"/><g id="g619" transform="matrix(.24214 0 0 .24229 300.66 101.1)" fill="none"><path id="path604" d="M462.73 556.66l-1.18-108.32"/><path id="path606" d="M468.62 563.73l38.855-54.162"/><path id="path607" d="M474.51 569.61l62.4-25.9"/><path id="path609" d="M479.22 577.86l73.001 2.355"/><path id="path611" d="M474.51 587.28l42.388 37.677"/><path id="path612" d="M462.73 583.74v34.146"/><path id="path613" d="M449.78 575.5l-55.339 48.275"/><path id="path614" d="M455.67 579.03l-24.726 45.92"/><path id="path615" d="M446.25 569.61l-91.84 31.791"/><path id="path616" d="M445.07 564.9l-64.76-2.355"/><path id="path617" d="M393.26 537.82l56.517 18.839"/><path id="path618" d="M420.34 489.55l34.146 65.936"/></g><g id="g572" fill-rule="evenodd" transform="matrix(.24214 0 0 .24229 300.97 178.59)"><path id="path565" d="M460.63 219.69c-35.433 0-61.25 6.505-83.044 14.145l5.54-9.579 5.53-9.595 5.54-9.596 5.54-9.578 5.53-9.595 5.54-9.579 6.13-9.769c8.26-7.257 25.98-10.652 43.69-10.652 17.72 0 35.44 3.586 44.3 10.826l5.54 9.595 5.53 9.579 5.54 9.595 5.54 9.578 5.53 9.596 5.54 9.595 5.53 9.579c-22.972-7.64-47.613-14.145-83.046-14.145z" transform="translate(0 -.004)" fill="#c453d7"/><path id="path566" d="M460.63 212.93c-35.548-.05-75.281 10.597-77.504 11.329l5.53-9.595 5.54-9.596 5.54-9.578 5.53-9.595 5.54-9.579 6.13-9.769c8.26-7.257 25.98-10.652 43.69-10.652 17.72 0 35.44 3.586 44.3 10.826l5.54 9.595 5.53 9.579 5.54 9.595 5.54 9.578 5.53 9.596 5.54 9.595s-42.083-11.329-77.516-11.329z" transform="translate(.013)" fill="#5000c1"/><path id="path567" d="M460.63 205.27c-26.248-.109-68.686 7.141-71.68 8.504l5.246-8.713 5.54-9.578 5.53-9.595 5.54-9.579 6.13-9.769c8.26-7.257 25.98-10.652 43.69-10.652 17.72 0 35.44 3.586 44.3 10.826l5.54 9.595 5.53 9.579 5.54 9.595 5.54 9.578 5.53 9.596s-36.543-9.387-71.976-9.387z" transform="translate(0 -.007)" fill="#0053d7"/><path id="path568" d="M460.63 197.32c-34.802-.07-63.717 6.631-66.434 7.739l5.54-9.578 5.53-9.595 5.54-9.579 6.13-9.769c8.26-7.257 25.98-10.652 43.69-10.652 17.72 0 35.44 3.586 44.3 10.826l5.54 9.595 5.53 9.579 5.54 9.595 5.54 9.578s-31.013-7.739-66.446-7.739z" transform="translate(-.015 -.008)" fill="#009f9f"/><path id="path569" d="M460.63 190.56c-35.605-.123-57.963 4.465-60.894 4.931l5.53-9.595 5.54-9.579 6.13-9.769c8.26-7.257 25.98-10.652 43.69-10.652 17.72 0 35.44 3.586 44.3 10.826l5.54 9.595 5.53 9.579 5.54 9.595s-25.473-4.931-60.906-4.931z" transform="translate(0 -.013)" fill="#ff0"/><path id="path570" d="M460.34 181.72c-31.014-.671-53.786 4.25-55.07 4.167l5.54-9.579 6.13-9.769c8.26-7.257 25.98-10.652 43.69-10.652 17.72 0 35.44 3.586 44.3 10.826l5.54 9.595 5.53 9.579s-20.227-4.167-55.66-4.167z" transform="translate(-.015 -.013)" fill="#f50"/><path id="path571" d="M461.51 171.42c-31.129.257-47.247 4.34-50.707 4.891l6.13-9.769c8.26-7.257 25.98-10.652 43.69-10.652 17.72 0 35.44 3.586 44.3 10.826l5.54 9.595s-13.52-4.891-48.953-4.891z" transform="translate(-.03 .003)" fill="#ff0b00"/></g><path id="path581" d="M496.06 627.16l4.983-4.983h25.467l4.983 4.983H496.06z" fill-rule="evenodd" transform="matrix(2.4214 0 0 4.1966 -831.57 -2357.1)" fill="#4363ff"/><path id="path603" d="M438.01 565.49c.409 0 .727-1.87 1.766-3.532 2.222-1.61 4.568-2.871 7.653-3.533 1.665-.832 5.08-.588 7.653-.588 3.611.324 3.837 1.865 5.888 4.121.902 1.837 3.038 4.389 4.121 7.064 1.172 1.42 2.107 3.626 2.943 5.299.855 1.804 1.765 4.526 2.944 7.064.605 2.824 1.177 5.028 1.177 8.242 0 3.352-.554 4.78-1.177 7.065-1.794.598-5.29.888-7.065 0-1.9-1.7-5.162-.617-6.475-2.355-3.386-.474-4.208-4.459-5.888-6.475-1.175-1.729-1.156-3.032-2.355-4.71-1.857-1.327-2.108-2.945-2.943-5.299.736-2.517 2.015-3.068 4.121-4.121 1.127-1.644 1.766-2.304 1.766-5.298-.424-3.334-1.625-2.982-4.71-3.533-3.814 0-5.77.393-9.419.589z" fill-rule="evenodd" transform="matrix(.16282 0 0 .12659 338.7 166.52)" fill="red"/><g id="g820" fill-rule="evenodd" transform="matrix(1.0506 -.04246 .20928 1.1632 -78.052 -20.528)" fill="#6da700"><path id="path814" d="M334.69 674.38s28.307-4.996 46.624-19.982c18.316-14.986 18.317-39.964 26.642-39.964 8.326 0 9.991 28.308 29.973 38.299 19.981 9.991 51.62 23.312 51.62 23.312l-154.86-1.665z" transform="matrix(.09952 -.00729 .00894 .12214 386.68 185.55)"/><path id="path815" d="M334.69 674.38s28.307-4.996 46.624-19.982c18.316-14.986 18.317-39.964 26.642-39.964 8.326 0 9.991 28.308 29.973 38.299 19.981 9.991 51.62 23.312 51.62 23.312l-154.86-1.665z" transform="matrix(.09952 -.00729 .00894 .12214 385.23 185.65)"/><path id="path816" d="M334.69 674.38s28.307-4.996 46.624-19.982c18.316-14.986 18.317-39.964 26.642-39.964 8.326 0 9.991 28.308 29.973 38.299 19.981 9.991 51.62 23.312 51.62 23.312l-154.86-1.665z" transform="matrix(.11825 -.00866 .00992 .13548 374.39 177.66)"/><path id="path817" d="M334.69 674.38s28.307-4.996 46.624-19.982c18.316-14.986 18.317-39.964 26.642-39.964 8.326 0 9.991 28.308 29.973 38.299 19.981 9.991 51.62 23.312 51.62 23.312l-154.86-1.665z" transform="matrix(.13074 -.00957 .01155 .15772 365.68 163.46)"/><path id="path818" d="M334.69 674.38s28.307-4.996 46.624-19.982c18.316-14.986 18.317-39.964 26.642-39.964 8.326 0 9.991 28.308 29.973 38.299 19.981 9.991 51.62 23.312 51.62 23.312l-154.86-1.665z" transform="matrix(.14792 -.01083 .01285 .1755 354.72 152.32)"/><path id="path819" d="M334.69 674.38s28.307-4.996 46.624-19.982c18.316-14.986 18.317-39.964 26.642-39.964 8.326 0 9.991 28.308 29.973 38.299 19.981 9.991 51.62 23.312 51.62 23.312l-154.86-1.665z" transform="matrix(.15729 -.01151 .01448 .19774 346.83 137.79)"/><path id="path807" d="M334.69 674.38s28.307-4.996 46.624-19.982c18.316-14.986 18.317-39.964 26.642-39.964 8.326 0 9.991 28.308 29.973 38.299 19.981 9.991 51.62 23.312 51.62 23.312l-154.86-1.665z" transform="matrix(.17825 0 0 .19309 344.65 135.43)"/><path id="path590" d="M334.69 674.38s28.307-4.996 46.624-19.982c18.316-14.986 18.317-39.964 26.642-39.964 8.326 0 9.991 28.308 29.973 38.299 19.981 9.991 51.62 23.312 51.62 23.312l-154.86-1.665z" transform="matrix(.17825 0 0 .19309 342.05 135.43)"/><path id="path588" d="M334.69 674.38s28.307-4.996 46.624-19.982c18.316-14.986 18.317-39.964 26.642-39.964 8.326 0 9.991 28.308 29.973 38.299 19.981 9.991 51.62 23.312 51.62 23.312l-154.86-1.665z" transform="matrix(.21181 0 0 .21418 323.77 121.6)"/><path id="path586" d="M334.69 674.38s28.307-4.996 46.624-19.982c18.316-14.986 18.317-39.964 26.642-39.964 8.326 0 9.991 28.308 29.973 38.299 19.981 9.991 51.62 23.312 51.62 23.312l-154.86-1.665z" transform="matrix(.23418 0 0 .24932 310.11 98.276)"/><path id="path584" d="M334.69 674.38s28.307-4.996 46.624-19.982c18.316-14.986 18.317-39.964 26.642-39.964 8.326 0 9.991 28.308 29.973 38.299 19.981 9.991 51.62 23.312 51.62 23.312l-154.86-1.665z" transform="matrix(.26494 0 0 .27744 292.04 79.5)"/><path id="path582" d="M334.69 674.38s28.307-4.996 46.624-19.982c18.316-14.986 18.317-39.964 26.642-39.964 8.326 0 9.991 28.308 29.973 38.299 19.981 9.991 51.62 23.312 51.62 23.312l-154.86-1.665z" transform="matrix(.28172 0 0 .31258 279.88 55.74)"/></g></g><g id="g2201" transform="matrix(.74925 0 0 .7416 110.88 -99.988)"><path id="path2121" d="M374.493 523.6l5.82-4.9s7.96 6.431 23.579 6.125c14.709-.283 19.906-5.513 22.049-6.126l5.818 5.206c-3.37.919-15.312 6.737-28.786 7.35-14.087-.612-26.642-5.817-28.48-7.655z" fill-rule="evenodd" stroke="#000" stroke-width=".235" fill="#ffc200"/><path id="path2158" d="M425.45 510.86v-3.401h-1.476v-.454h3.55v.454h-1.481v3.401h-.593z" stroke-width="1pt" transform="matrix(.69073 -.24508 .25511 .71327 -2.83 265.75)"/><path id="path2161" d="M415.64 510.86v-3.855h3.238v.454h-2.645v1.181h2.477v.452h-2.477v1.313h2.749v.455h-3.342z" stroke-width="1pt" transform="matrix(.70851 -.18757 .19571 .7318 19.511 232.16)"/><path id="path2165" d="M409.81 510.86v-3.855h.593v3.855h-.593z" stroke-width="1pt" transform="matrix(.70851 -.18757 .19571 .7318 19.435 232.01)"/><path id="path2166" d="M406.21 510.86v-3.855h.593v3.4h2.206v.455h-2.799z" stroke-width="1pt" transform="matrix(.72753 -.08875 .09362 .75171 63.594 181.37)"/><path id="path2167" d="M399.97 510.86v-3.855h.608l2.352 3.026v-3.026h.568v3.855h-.608l-2.352-3.03v3.03h-.568z" stroke-width="1pt" transform="matrix(.73267 -.0191 .02166 .75721 97.815 150.42)"/><path id="path2170" d="M393.47 510.86v-3.855h.592v3.855h-.592z" stroke-width="1pt" transform="matrix(.72886 .077 -.07768 .75353 149.67 114.07)"/><path id="path2171" d="M388.85 510.86v-3.855h.608l2.352 3.026v-3.026h.568v3.855h-.608l-2.352-3.03v3.03h-.568z" stroke-width="1pt" transform="matrix(.72001 .13695 -.13967 .74453 184.6 95.077)"/><path id="path2172" d="M387.28 507.01h.592v2.227c0 .387-.051.695-.152.923-.103.228-.287.413-.554.557-.264.142-.613.213-1.044.213-.419 0-.763-.062-1.029-.187a1.142 1.142 0 0 1-.572-.539c-.114-.236-.171-.559-.171-.967v-2.227h.593v2.224c0 .335.035.582.107.742.073.158.197.279.373.365s.392.129.647.129c.436 0 .746-.085.932-.255.185-.17.278-.497.278-.981v-2.224z" stroke-width="1pt" transform="matrix(.70887 .1862 -.1906 .73315 215.09 81.887)"/><path id="path2173" d="M378.22 509.63l.559-.042a.98.98 0 0 0 .183.476c.098.122.248.223.452.3.203.075.433.113.687.113.226 0 .426-.029.599-.087s.302-.137.385-.237a.507.507 0 0 0 .128-.331.453.453 0 0 0-.122-.316c-.082-.091-.216-.167-.403-.228a8.428 8.428 0 0 0-.797-.187c-.412-.086-.7-.167-.865-.242a1.18 1.18 0 0 1-.479-.358.795.795 0 0 1-.156-.481c0-.194.064-.376.192-.544.128-.17.315-.299.562-.387.247-.087.52-.131.822-.131.332 0 .624.046.877.139.254.091.449.226.586.405s.21.381.22.608l-.568.036a.758.758 0 0 0-.312-.552c-.175-.124-.435-.187-.779-.187-.358 0-.62.057-.785.171-.163.112-.244.248-.244.408 0 .138.058.252.174.342.114.089.412.181.892.276.482.093.813.174.993.244.26.104.453.235.577.395.124.158.187.34.187.547a.956.956 0 0 1-.205.581c-.137.18-.333.322-.59.423-.254.1-.542.15-.861.15-.406 0-.746-.051-1.02-.152a1.409 1.409 0 0 1-.645-.458 1.184 1.184 0 0 1-.244-.694z" stroke-width="1pt" transform="matrix(.70684 .20498 -.19437 .72911 217.43 76.457)"/><path id="path2176" d="M371.92 510.86v-3.855h.593v3.855h-.593z" stroke-width="1pt" transform="matrix(.68641 .26548 -.25683 .70952 256.75 63.442)"/><path id="path2181" d="M367.3 510.86v-3.855h1.542c.349 0 .615.018.798.055a1.591 1.591 0 0 1 1.185.936c.118.266.177.571.177.915 0 .293-.039.552-.119.778a1.802 1.802 0 0 1-.305.563 1.573 1.573 0 0 1-.41.35 1.825 1.825 0 0 1-.534.192 3.491 3.491 0 0 1-.718.066H367.3zm.593-.455h.956c.295 0 .526-.024.693-.071.169-.048.303-.114.404-.201.14-.12.249-.282.326-.486.08-.205.119-.453.119-.744 0-.403-.077-.713-.232-.928a1.114 1.114 0 0 0-.559-.437c-.159-.052-.414-.079-.766-.079h-.941v2.946z" stroke-width="1pt" transform="matrix(.56237 .47474 -.4741 .58703 413.2 48.272)"/><path id="path2184" d="M373.38 508.99c0-.64.2-1.14.598-1.502.4-.362.915-.544 1.546-.544.414 0 .786.085 1.118.255s.585.408.758.713c.175.303.263.648.263 1.033 0 .391-.092.741-.276 1.049a1.76 1.76 0 0 1-.778.703 2.54 2.54 0 0 1-1.088.236c-.421 0-.798-.087-1.13-.263a1.818 1.818 0 0 1-.755-.717 1.935 1.935 0 0 1-.256-.963zm.611.008c0 .464.144.831.434 1.099.291.267.655.399 1.093.399.446 0 .813-.134 1.1-.404.289-.27.434-.653.434-1.149 0-.314-.062-.588-.187-.821a1.268 1.268 0 0 0-.541-.544 1.625 1.625 0 0 0-.797-.195c-.419 0-.781.125-1.084.374-.301.247-.452.661-.452 1.241z" stroke-width="1pt" transform="matrix(.68641 .26548 -.25683 .70952 256.75 63.671)"/><path id="path2187" d="M394.93 508.99c0-.64.199-1.14.598-1.502.4-.362.915-.544 1.546-.544.413 0 .786.085 1.118.255s.585.408.758.713c.175.303.262.648.262 1.033 0 .391-.091.741-.275 1.049a1.757 1.757 0 0 1-.779.703 2.535 2.535 0 0 1-1.087.236c-.422 0-.798-.087-1.13-.263a1.818 1.818 0 0 1-.755-.717 1.935 1.935 0 0 1-.256-.963zm.611.008c0 .464.144.831.434 1.099.29.267.655.399 1.093.399.446 0 .813-.134 1.1-.404.289-.27.434-.653.434-1.149 0-.314-.063-.588-.187-.821a1.268 1.268 0 0 0-.541-.544 1.625 1.625 0 0 0-.797-.195c-.419 0-.781.125-1.084.374-.302.247-.452.661-.452 1.241z" stroke-width="1pt" transform="matrix(.72886 .077 -.07768 .75353 149.82 114)"/><path id="path2190" d="M432.31 510.86v-3.855h1.542c.349 0 .615.018.798.055a1.573 1.573 0 0 1 1.185.936c.118.266.177.571.177.915 0 .293-.04.552-.119.778s-.182.414-.306.563c-.124.147-.26.264-.409.35a1.825 1.825 0 0 1-.534.192 3.498 3.498 0 0 1-.718.066h-1.616zm.593-.455h.956c.295 0 .526-.024.693-.071.169-.048.303-.114.403-.201.141-.12.25-.282.327-.486.079-.205.119-.453.119-.744 0-.403-.077-.713-.232-.928a1.118 1.118 0 0 0-.559-.437c-.159-.052-.415-.079-.767-.079h-.94v2.946z" stroke-width="1pt" transform="matrix(.65991 -.31889 .33131 .68122 -28.43 314.05)"/><path id="path2193" d="M419.8 510.86v-3.855h1.985c.4 0 .703.035.911.105.208.068.373.19.498.365a.983.983 0 0 1 .186.581.902.902 0 0 1-.308.692c-.206.188-.524.307-.953.357.156.065.275.13.357.192.173.137.337.308.492.513l.779 1.05h-.746l-.593-.802c-.173-.232-.315-.409-.427-.532s-.213-.208-.302-.257a.926.926 0 0 0-.269-.103 2.106 2.106 0 0 0-.33-.018h-.688v1.712h-.592zm.592-2.154h1.275c.27 0 .482-.024.635-.071a.684.684 0 0 0 .348-.232.563.563 0 0 0 .119-.347.542.542 0 0 0-.232-.449c-.153-.118-.395-.177-.727-.177h-1.418v1.276z" stroke-width="1pt" transform="matrix(.70851 -.18757 .19571 .7318 19.664 232.01)"/><path id="path2196" d="M427.64 510.86l1.72-3.855h.638l1.833 3.855h-.675l-.522-1.168h-1.873l-.491 1.168h-.63zm1.292-1.584h1.518l-.467-1.067a9.615 9.615 0 0 1-.318-.8 4.373 4.373 0 0 1-.241.737l-.492 1.13z" stroke-width="1pt" transform="matrix(.67948 -.27472 .28571 .70157 -13.761 284.59)"/><path id="path2200" d="M411.43 510.86v-3.855h1.68c.342 0 .616.039.822.118.208.077.369.197.486.36a.854.854 0 0 1 .177.508c0 .164-.052.32-.156.465s-.261.263-.471.352c.271.069.479.185.624.35.146.165.22.359.22.584a.993.993 0 0 1-.135.505.994.994 0 0 1-.327.357c-.13.085-.294.148-.492.192a3.411 3.411 0 0 1-.72.064h-1.708zm.593-2.236h.968c.262 0 .451-.015.565-.044a.64.64 0 0 0 .339-.192.5.5 0 0 0 .116-.337.55.55 0 0 0-.107-.336.526.526 0 0 0-.305-.2c-.132-.037-.36-.056-.681-.056h-.895v1.165zm0 1.781h1.115c.191 0 .326-.007.403-.019.136-.021.25-.056.342-.105a.606.606 0 0 0 .315-.539.574.574 0 0 0-.129-.374.668.668 0 0 0-.357-.223c-.151-.044-.369-.066-.654-.066h-1.035v1.326z" stroke-width="1pt" transform="matrix(.71694 -.15221 .15919 .7406 34.549 212.93)"/></g><g id="g2330" transform="matrix(1.1675 0 0 1.1402 -70.15 -680.7)" stroke="#000" fill="#ffc200" stroke-width=".235"><path id="path2224" d="M658.63 787.09v-8.59h1.136v7.577h4.231v1.013h-5.367z" transform="rotate(158.062 541.058 810.037)"/><path id="path2229" d="M636.87 787.09v-7.576h-2.83V778.5h6.809v1.014h-2.842v7.576h-1.137z" transform="rotate(134.3 531.056 787.41)"/><path id="path2230" d="M626 787.09v-8.59h1.166l4.512 6.745V778.5h1.089v8.59h-1.166l-4.511-6.75v6.75H626z" transform="rotate(135.881 531.501 788.682)"/><path id="path2231" d="M618.03 787.09v-8.59h6.211v1.014h-5.074v2.631h4.752v1.008h-4.752v2.924h5.273v1.013h-6.41z" transform="rotate(122.59 525.947 777.01)"/><path id="path2232" d="M615.47 784.08l1.136.287c-.238.933-.668 1.646-1.289 2.138-.617.489-1.373.733-2.267.733-.926 0-1.68-.188-2.262-.563-.578-.379-1.02-.926-1.324-1.64a5.875 5.875 0 0 1-.451-2.303c0-.895.169-1.674.509-2.338a3.517 3.517 0 0 1 1.459-1.518 4.267 4.267 0 0 1 2.086-.521c.86 0 1.582.219 2.168.656.586.438.994 1.053 1.225 1.846l-1.119.264c-.2-.625-.489-1.081-.868-1.366-.378-.285-.855-.427-1.429-.427-.66 0-1.213.158-1.658.474a2.511 2.511 0 0 0-.932 1.278c-.18.531-.27 1.08-.27 1.646 0 .731.106 1.369.317 1.916.215.543.547.949.996 1.219.449.269.935.404 1.459.404.637 0 1.176-.183 1.617-.551.441-.367.74-.912.897-1.634z" transform="rotate(122.59 525.947 777.01)"/><path id="path2235" d="M595.47 784.08l1.136.287c-.238.933-.668 1.646-1.289 2.138-.617.489-1.373.733-2.267.733-.926 0-1.68-.188-2.262-.563-.578-.379-1.02-.926-1.324-1.64a5.875 5.875 0 0 1-.451-2.303c0-.895.17-1.674.509-2.338a3.517 3.517 0 0 1 1.459-1.518 4.27 4.27 0 0 1 2.086-.521c.86 0 1.582.219 2.168.656.586.438.994 1.053 1.225 1.846l-1.119.264c-.199-.625-.489-1.081-.867-1.366-.379-.285-.856-.427-1.43-.427-.66 0-1.213.158-1.658.474a2.511 2.511 0 0 0-.932 1.278 5.093 5.093 0 0 0-.269 1.646c0 .731.105 1.369.316 1.916.215.543.547.949.996 1.219a2.79 2.79 0 0 0 1.459.404c.637 0 1.176-.183 1.617-.551.442-.367.74-.912.897-1.634z" transform="rotate(87.648 516.237 743.675)"/><path id="path2236" d="M586.2 787.09v-8.59h1.137v8.59H586.2z" transform="rotate(86.413 516.33 742.632)"/><path id="path2239" d="M569.36 787.09v-8.59h6.211v1.014h-5.074v2.631h4.752v1.008h-4.752v2.924h5.273v1.013h-6.41z" transform="rotate(73.804 514.38 727.467)"/><path id="path2240" d="M559.31 787.09v-8.59h1.711l2.033 6.082c.187.567.324.991.41 1.272.098-.313.25-.772.457-1.377l2.057-5.977h1.529v8.59h-1.096v-7.189l-2.496 7.189h-1.025l-2.485-7.312v7.312h-1.095z" transform="rotate(66.527 512.979 718.015)"/><path id="path2245" d="M533.28 787.09v-8.59h1.137v7.577h4.23v1.013h-5.367z" transform="rotate(34.55 522.884 641.509)"/><path id="path2246" d="M521.31 787.09v-8.59h1.166l4.512 6.745V778.5h1.09v8.59h-1.166l-4.512-6.75v6.75h-1.09z" transform="rotate(24.855 537.943 586.657)"/><path id="path2247" d="M513.34 787.09v-8.59h6.211v1.014h-5.075v2.631h4.752v1.008h-4.752v2.924h5.274v1.013h-6.41z" transform="rotate(22.15 545.704 563.695)"/><path id="path2256" d="M469.77 787.09l-3.328-8.59h1.231l2.232 6.241c.18.5.33.968.451 1.406.133-.469.288-.938.463-1.406l2.321-6.241h1.16l-3.363 8.59h-1.167z" transform="rotate(-16.737 342.113 1056.056)"/><path id="path2257" d="M460.59 787.09v-8.59h1.136v7.577h4.231v1.013h-5.367z" transform="rotate(-29.329 378.938 930.838)"/><path id="path2260" d="M444.24 784.33l1.072-.094c.051.429.168.783.352 1.06.187.274.476.496.867.668.391.168.83.252 1.318.252.434 0 .817-.064 1.149-.193s.578-.305.738-.527c.164-.227.246-.473.246-.739 0-.269-.078-.504-.234-.703-.156-.203-.414-.373-.774-.51-.23-.089-.74-.228-1.529-.416-.789-.191-1.342-.371-1.658-.539-.41-.215-.717-.48-.92-.797a1.988 1.988 0 0 1-.299-1.072c0-.433.123-.838.369-1.213.246-.379.606-.666 1.078-.861a4.098 4.098 0 0 1 1.577-.293c.636 0 1.197.103 1.681.31.489.204.864.504 1.125.903.262.398.403.849.422 1.353l-1.09.082c-.058-.543-.258-.953-.597-1.23-.336-.277-.834-.416-1.495-.416-.687 0-1.189.127-1.505.381-.313.25-.469.552-.469.908 0 .309.111.562.334.762.219.199.789.404 1.711.615.926.207 1.56.389 1.904.545.5.23.869.523 1.108.879.238.351.357.758.357 1.218 0 .458-.131.889-.393 1.295-.261.403-.638.717-1.13.944a3.956 3.956 0 0 1-1.653.334c-.777 0-1.43-.114-1.957-.34a2.765 2.765 0 0 1-1.236-1.02 2.929 2.929 0 0 1-.469-1.546z" transform="rotate(-41.784 391.235 883.172)"/><path id="path2261" d="M434.58 787.09v-8.59h1.137v7.577h4.23v1.013h-5.367z" transform="rotate(-54.008 396.112 860.743)"/><path id="path2262" d="M426.64 787.09v-8.59h6.211v1.014h-5.074v2.631h4.752v1.008h-4.752v2.924h5.274v1.013h-6.411z" transform="rotate(-61.059 396.53 850.895)"/><path id="path2263" d="M415.31 787.09v-8.59h6.211v1.014h-5.075v2.631h4.752v1.008h-4.752v2.924h5.274v1.013h-6.41z" transform="rotate(-77.525 395.94 836.766)"/><path id="path2268" d="M392.74 784.08l1.137.287c-.238.933-.668 1.646-1.289 2.138-.617.489-1.373.733-2.268.733-.926 0-1.679-.188-2.261-.563-.579-.379-1.02-.926-1.325-1.64a5.893 5.893 0 0 1-.451-2.303c0-.895.17-1.674.51-2.338a3.517 3.517 0 0 1 1.459-1.518 4.267 4.267 0 0 1 2.086-.521c.859 0 1.582.219 2.168.656.586.438.994 1.053 1.224 1.846l-1.119.264c-.199-.625-.488-1.081-.867-1.366s-.855-.427-1.43-.427c-.66 0-1.213.158-1.658.474a2.51 2.51 0 0 0-.931 1.278c-.18.531-.27 1.08-.27 1.646 0 .731.105 1.369.316 1.916.215.543.547.949.996 1.219.45.269.936.404 1.459.404.637 0 1.176-.183 1.618-.551.441-.367.74-.912.896-1.634z" transform="rotate(-107.813 389.434 825.277)"/><path id="path2269" d="M383.47 787.09v-8.59h1.136v8.59h-1.136z" transform="rotate(-116.338 386.715 823.69)"/><path id="path2270" d="M376.56 787.09v-8.59h1.136v7.577h4.231v1.013h-5.367z" transform="rotate(-113.205 387.605 823.914)"/><path id="path2274" d="M365.57 778.5h1.137v4.963c0 .864-.098 1.549-.293 2.057s-.549.922-1.061 1.242c-.507.317-1.175.475-2.003.475-.805 0-1.463-.139-1.975-.416a2.38 2.38 0 0 1-1.096-1.201c-.219-.528-.328-1.247-.328-2.157V778.5h1.137v4.957c0 .747.068 1.297.205 1.653a1.6 1.6 0 0 0 .715.814c.34.192.754.287 1.242.287.836 0 1.432-.189 1.787-.568s.533-1.107.533-2.186V778.5z" transform="rotate(-130.532 380.846 822.684)"/><path id="path2277" d="M343.95 787.09v-8.59h6.211v1.014h-5.074v2.631h4.752v1.008h-4.752v2.924h5.273v1.013h-6.41z" transform="rotate(-141.658 375.917 823.113)"/><path id="path2282" d="M649.73 787.09l3.299-8.59h1.225l3.515 8.59h-1.295l-1.001-2.601h-3.592l-.944 2.601h-1.207zm2.479-3.527h2.912l-.897-2.379a23.793 23.793 0 0 1-.609-1.781 10.918 10.918 0 0 1-.463 1.64l-.943 2.52z" transform="rotate(149.137 537.827 801.009)"/><path id="path2285" d="M642.03 787.09v-8.59h3.809c.765 0 1.348.079 1.746.235.398.152.717.424.955.814.238.391.357.823.357 1.295 0 .61-.197 1.123-.591 1.541-.395.418-1.004.684-1.828.797.3.145.529.287.685.428.332.304.647.685.943 1.142l1.495 2.338h-1.43l-1.137-1.787c-.332-.515-.605-.91-.82-1.183-.215-.274-.408-.465-.58-.575a1.679 1.679 0 0 0-.516-.228 3.36 3.36 0 0 0-.633-.041h-1.318v3.814h-1.137zm1.137-4.799h2.443c.52 0 .926-.052 1.219-.158.293-.109.516-.281.668-.515.152-.239.229-.496.229-.774 0-.406-.149-.74-.446-1.002-.293-.261-.758-.392-1.394-.392h-2.719v2.841z" transform="rotate(139.512 534.072 792.011)"/><path id="path2288" d="M597.06 787.09l3.299-8.59h1.225l3.515 8.59h-1.294l-1.002-2.601h-3.592l-.944 2.601h-1.207zm2.479-3.527h2.912l-.896-2.379a23.418 23.418 0 0 1-.61-1.781 10.802 10.802 0 0 1-.463 1.64l-.943 2.52z" transform="rotate(107.758 522.351 762.568)"/><path id="path2291" d="M577.36 787.09v-8.59h3.809c.766 0 1.348.079 1.746.235.398.152.717.424.955.814.238.391.358.823.358 1.295 0 .61-.198 1.123-.592 1.541-.395.418-1.004.684-1.828.797.3.145.529.287.685.428.332.304.647.685.944 1.142l1.494 2.338h-1.43l-1.137-1.787c-.332-.515-.605-.91-.82-1.183-.215-.274-.408-.465-.58-.575a1.679 1.679 0 0 0-.516-.228 3.36 3.36 0 0 0-.633-.041h-1.318v3.814h-1.137zm1.137-4.799h2.443c.52 0 .926-.052 1.219-.158.293-.109.516-.281.668-.515.152-.239.229-.496.229-.774 0-.406-.149-.74-.446-1.002-.293-.261-.757-.392-1.394-.392h-2.719v2.841z" transform="rotate(84.76 516.37 739.98)"/><path id="path2294" d="M550.39 787.09l3.299-8.59h1.225l3.516 8.59h-1.295l-1.002-2.601h-3.592l-.943 2.601h-1.208zm2.479-3.527h2.912l-.896-2.379a23.418 23.418 0 0 1-.61-1.781 10.802 10.802 0 0 1-.463 1.64l-.943 2.52z" transform="rotate(54.687 512.824 698.715)"/><path id="path2297" d="M539.06 787.09l3.298-8.59h1.225l3.516 8.59h-1.295l-1.002-2.601h-3.592l-.943 2.601h-1.207zm2.478-3.527h2.912l-.896-2.379a23.418 23.418 0 0 1-.61-1.781 10.802 10.802 0 0 1-.463 1.64l-.943 2.52z" transform="rotate(43.074 517.027 670.028)"/><path id="path2300" d="M501.34 787.09v-8.59h3.808c.766 0 1.348.079 1.746.235.399.152.717.424.956.814.238.391.357.823.357 1.295 0 .61-.197 1.123-.592 1.541-.394.418-1.004.684-1.828.797.301.145.529.287.686.428.332.304.646.685.943 1.142l1.494 2.338h-1.43l-1.136-1.787c-.332-.515-.606-.91-.821-1.183-.214-.274-.408-.465-.58-.575a1.684 1.684 0 0 0-.515-.228 3.36 3.36 0 0 0-.633-.041h-1.318v3.814h-1.137zm1.137-4.799h2.443c.519 0 .926-.052 1.219-.158.293-.109.515-.281.668-.515.152-.239.228-.496.228-.774 0-.406-.148-.74-.445-1.002-.293-.261-.758-.392-1.395-.392h-2.718v2.841z" transform="rotate(5.697 772.698 -79.91)"/><path id="path2303" d="M491.64 782.91c0-1.426.382-2.541 1.148-3.346.766-.809 1.754-1.213 2.965-1.213.793 0 1.508.19 2.144.568a3.692 3.692 0 0 1 1.453 1.588c.336.676.504 1.444.504 2.303 0 .871-.175 1.65-.527 2.338a3.622 3.622 0 0 1-1.494 1.564 4.285 4.285 0 0 1-2.086.528c-.809 0-1.531-.196-2.168-.586-.637-.391-1.119-.924-1.447-1.6s-.492-1.39-.492-2.144zm1.171.017c0 1.035.278 1.852.832 2.449.559.594 1.258.891 2.098.891.856 0 1.559-.301 2.109-.902.555-.602.833-1.455.833-2.561 0-.699-.12-1.308-.358-1.828a2.679 2.679 0 0 0-1.037-1.213 2.783 2.783 0 0 0-1.529-.433c-.805 0-1.498.277-2.08.832-.579.55-.868 1.472-.868 2.765z" transform="rotate(5.697 768.78 -88.827)"/><path id="path2306" d="M483.32 787.09v-8.59h2.959c.668 0 1.178.041 1.53.123.492.114.912.319 1.259.616.453.383.791.873 1.014 1.47.227.594.34 1.274.34 2.039 0 .653-.076 1.231-.229 1.735-.152.504-.347.922-.586 1.254-.238.328-.5.588-.785.779-.281.188-.623.33-1.025.428a5.858 5.858 0 0 1-1.377.146h-3.1zm1.137-1.013h1.834c.566 0 1.01-.053 1.33-.159.324-.105.582-.254.773-.445.27-.269.479-.631.627-1.084.153-.457.229-1.01.229-1.658 0-.899-.149-1.588-.445-2.068-.293-.485-.651-.809-1.073-.973-.304-.117-.795-.176-1.47-.176h-1.805v6.563z" transform="rotate(-10.957 285.995 1208.112)"/><path id="path2309" d="M474.37 787.09l3.299-8.59h1.224l3.516 8.59h-1.295l-1.002-2.601h-3.592l-.943 2.601h-1.207zm2.478-3.527h2.913l-.897-2.379a23.793 23.793 0 0 1-.609-1.781c-.11.551-.264 1.097-.463 1.64l-.944 2.52z" transform="rotate(-13.069 312.724 1135.905)"/><path id="path2312" d="M451.69 787.09l3.299-8.59h1.225l3.515 8.59h-1.295l-1.001-2.601h-3.592l-.944 2.601h-1.207zm2.479-3.527h2.912l-.897-2.379a23.793 23.793 0 0 1-.609-1.781 10.918 10.918 0 0 1-.463 1.64l-.943 2.52z" transform="rotate(-33.207 384.698 912.101)"/><path id="path2315" d="M406.62 787.09v-8.59h2.959c.668 0 1.178.041 1.529.123a2.91 2.91 0 0 1 1.26.616c.453.383.791.873 1.014 1.47.226.594.34 1.274.34 2.039 0 .653-.076 1.231-.229 1.735-.152.504-.347.922-.586 1.254-.238.328-.5.588-.785.779-.281.188-.623.33-1.025.428a5.858 5.858 0 0 1-1.377.146h-3.1zm1.137-1.013h1.834c.566 0 1.01-.053 1.33-.159.324-.105.582-.254.773-.445.27-.269.479-.631.627-1.084.153-.457.229-1.01.229-1.658 0-.899-.149-1.588-.445-2.068-.293-.485-.651-.809-1.073-.973-.304-.117-.795-.176-1.47-.176h-1.805v6.563z" transform="rotate(-84.711 394.214 831.737)"/><path id="path2318" d="M394.34 787.09l3.299-8.59h1.224l3.516 8.59h-1.295l-1.002-2.601h-3.592l-.943 2.601h-1.207zm2.478-3.527h2.913l-.897-2.379a23.342 23.342 0 0 1-.609-1.781c-.11.551-.264 1.097-.463 1.64l-.944 2.52z" transform="rotate(-94.281 394.006 829.564)"/><path id="path2322" d="M368.55 787.09v-8.59h3.222c.657 0 1.182.088 1.576.264.399.172.709.44.932.803.227.359.34.736.34 1.131 0 .367-.1.713-.299 1.037s-.5.586-.902.785c.519.152.918.412 1.195.779.281.367.422.801.422 1.301 0 .402-.086.777-.258 1.125-.168.344-.377.609-.627.797-.25.187-.564.33-.943.428-.375.093-.836.14-1.383.14h-3.275zm1.136-4.98h1.858c.504 0 .865-.033 1.084-.1.289-.086.506-.228.65-.428.149-.199.223-.449.223-.75 0-.285-.069-.535-.205-.75a1.024 1.024 0 0 0-.586-.445c-.254-.082-.69-.123-1.307-.123h-1.717v2.596zm0 3.967h2.139c.367 0 .625-.014.773-.041.262-.047.481-.125.657-.235a1.24 1.24 0 0 0 .433-.474c.114-.211.17-.454.17-.727 0-.32-.082-.598-.246-.832a1.279 1.279 0 0 0-.685-.498c-.289-.098-.707-.147-1.254-.147h-1.987v2.954z" transform="rotate(-124.905 383.218 822.802)"/><path id="path2325" d="M351.93 787.09v-8.59h3.24c.57 0 1.006.028 1.306.082.422.071.776.206 1.061.405.285.195.514.47.686.826.175.355.263.746.263 1.172 0 .73-.232 1.349-.697 1.857-.465.504-1.305.756-2.52.756h-2.203v3.492h-1.136zm1.136-4.506h2.221c.734 0 1.256-.136 1.564-.41.309-.273.463-.658.463-1.154 0-.359-.091-.666-.275-.92a1.257 1.257 0 0 0-.715-.51c-.191-.051-.545-.076-1.06-.076h-2.198v3.07z" transform="rotate(-138.134 377.336 822.985)"/><path id="path2328" d="M335.28 787.09v-8.59h3.809c.765 0 1.348.079 1.746.235.398.152.717.424.955.814.238.391.357.823.357 1.295 0 .61-.197 1.123-.591 1.541-.395.418-1.004.684-1.828.797.3.145.529.287.685.428.332.304.647.685.943 1.142l1.495 2.338h-1.43l-1.137-1.787c-.332-.515-.605-.91-.82-1.183-.215-.274-.408-.465-.58-.575a1.679 1.679 0 0 0-.516-.228 3.36 3.36 0 0 0-.633-.041h-1.318v3.814h-1.137zm1.137-4.799h2.443c.52 0 .926-.052 1.219-.158.293-.109.516-.281.668-.515.152-.239.229-.496.229-.774 0-.406-.149-.74-.446-1.002-.293-.261-.758-.392-1.394-.392h-2.719v2.841z" transform="rotate(-148.85 373.025 824.296)"/></g></g></g></svg>