<svg id="svg2" xmlns="http://www.w3.org/2000/svg" height="480" width="640" version="1"><defs id="defs4"><clipPath id="clipPath5650"><path id="rect5652" fill-opacity=".67" d="M0 0h682.67v512H0z"/></clipPath></defs><g id="flag" clip-path="url(#clipPath5650)" transform="scale(.9375)"><path id="path2160" d="M0 0h768v256H341.33L0 0z" fill-rule="evenodd" fill="#ed2939"/><path id="path3134" d="M0 512h768V256H341.33L0 512z" fill-rule="evenodd" fill="#002395"/><path id="path3136" d="M0 0l341.33 256L0 512V0z" fill-rule="evenodd" fill="#fff"/><g id="g2425" transform="matrix(1.1464 0 0 1.1461 -260.07 -773.12)"><path id="path182" fill="#ff0" d="M377.17 843.11l.091-3.458s-1.856-2.958.299-6.136c0 0-4.578-2.422-3.513-6.215 0 0-4.14-1.059-3.835-5.613 0 0-4.468-.31-4.93-4.114 0 0-4.469.736-6.435-2.971 0 0-4.358.852-5.588-2.204 0 0-4.237 1.468-6.751-2.125 0 0-4.474 1.808-6.35-1.582-1.85 3.379-6.324 1.582-6.324 1.582-2.484 3.58-6.75 2.094-6.75 2.094-1.188 3.068-5.534 2.198-5.534 2.198-1.96 3.708-6.422 2.97-6.422 2.97-.439 3.794-4.9 4.103-4.9 4.103.352 4.566-3.78 5.601-3.78 5.601 1.089 3.793-3.483 6.209-3.483 6.209 2.21 3.196.372 6.13.372 6.13l-.104 3.19 73.949.341"/><path id="path184" d="M377.17 843.11l.091-3.458s-1.856-2.958.299-6.136c0 0-4.578-2.422-3.513-6.215 0 0-4.14-1.059-3.835-5.613 0 0-4.468-.31-4.93-4.114 0 0-4.469.736-6.435-2.971 0 0-4.358.852-5.588-2.204 0 0-4.237 1.468-6.751-2.125 0 0-4.474 1.808-6.35-1.582-1.85 3.379-6.324 1.582-6.324 1.582-2.484 3.58-6.75 2.094-6.75 2.094-1.188 3.068-5.534 2.198-5.534 2.198-1.96 3.708-6.422 2.97-6.422 2.97-.439 3.794-4.9 4.103-4.9 4.103.352 4.566-3.78 5.601-3.78 5.601 1.089 3.793-3.483 6.209-3.483 6.209 2.21 3.196.372 6.13.372 6.13l-.104 3.19 73.949.341h-.012z" stroke="#000" stroke-width=".289" fill="none"/><path id="path186" fill="red" d="M375.45 838.79c-11.615-1.163-24.989-3.92-35.313 1.894-6.921-4.08-16.558-3.83-24.763-3.032-4.456.798-9.697.798-14.354 1.559l-.73.103c-8.45.56-16.113-1.936-23.455-5.217 2.331 13.234 4.918 26.797 6.19 40.652 2.77 20.52-9.709 37.748-4.59 58.019 3.056 9.727 13.751 15.382 23.54 16.503 9.478.56 19.285 2.112 28.057 4.017 1.668.347 3.647 1.12 4.797 1.619 2.417 1.01 4.188 2.496 5.74 4.085 5.297-5.516 13.058-7.05 20.716-7.86 13.8-1.612 30.814-.735 39.263-13.238v-.707c4.59-6.915 3.98-17.464 1.99-25.299-.134-2.733-.864-5.144-1.26-7.749-8.43-22.268-1.211-47.31 2.417-69.756-4.432 2.423-9.375 3.568-14.305 4.78-3.933.523-8.315.286-12.296.072l-1.65-.444"/><path id="path188" fill="#80cfe1" d="M392.79 902.7c-.055 1.466.737 2.618 1.023 3.974 1.613 9.734 3.171 22.627-6.849 28.666-11.085 7.049-25.622 4.03-38.448 7.761-2.562.712-6.093 3.069-7.895 4.736-1.156-.76-2.32-1.93-3.81-2.617-10.556-5.612-24.277-3.732-36.19-6.763-5.983-1.893-12.223-6.556-13.739-12.68-3.895-16.07 5.436-29.767 4.335-45.71-.713-12.174-2.758-23.861-5.57-35.275 9.313 4.34 20.094 5.064 30.565 2.982 7.755-1.084 16.783-1.108 24.05 2.174 4.006-1.724 8.693-2.497 13.01-2.972 8.206.798 17.026 2.283 25.476 2.223 5.643-.293 10.769-1.924 15.675-4.098-2.91 18.865-8.498 38.625-1.638 57.6"/><path id="path190" fill="#fff" d="M376.04 906.46l-.091-17.739h2.185l-27.113-17.513-.049-9.1h2.618l-13.557-9.71-13.49 9.704h2.611l.05 9.094-26.968 17.49 2.155.011.091 17.727 71.551.05"/><path id="path192" d="M376.04 906.46l-.091-17.739h2.185l-27.113-17.513-.049-9.1h2.618l-13.557-9.71-13.49 9.704h2.611l.05 9.094-26.968 17.49 2.155.011.091 17.727 71.551.05.006-.014z" stroke="#000" stroke-width="1.242" fill="none"/><path id="path198" fill="#fff" d="M384.38 929.76l.006 5.551-87.347-.097-.036-5.528 87.384.074"/><path id="path200" d="M384.38 929.76l.006 5.551-87.347-.097-.036-5.528 87.384.074h-.006z" stroke="#000" stroke-width="1.242" fill="none"/><path id="path202" fill="#fff" d="M302.84 929.43l-.073-18.786 3.536-.007-.194 19.005.213-18.852-5.095-.146v-4.03l78.064.085.036 3.994h-4.815l.091 19.023-.17-19.023h3.585l.08 18.809"/><path id="path204" d="M302.84 929.43l-.073-18.786 3.536-.007-.194 19.005.213-18.852-5.095-.146v-4.03l78.064.085.036 3.994h-4.815l.091 19.023-.17-19.023h3.585l.08 18.809" stroke="#000" stroke-width="1.242" fill="none"/><path id="path206" d="M319.62 924.8l-.055-13.1h-10.482l.061 13.087 10.476.013" stroke="#000" stroke-width="1.242" fill="none"/><path id="path208" d="M311.94 914.43l.03 7.61h4.797l-.024-7.61h-4.803" stroke="#000" stroke-width="1.242" fill="none"/><path id="path210" d="M370.86 924.84l-.06-13.087-10.447-.012.049 13.099h10.458" stroke="#000" stroke-width="1.242" fill="none"/><path id="path212" d="M363.18 914.48l.055 7.585h4.79l-.042-7.585h-4.803" stroke="#000" stroke-width="1.242" fill="none"/><path id="path214" d="M370.78 903.51l-.06-13.101h-10.46l.037 13.101h10.488-.006z" stroke="#000" stroke-width="1.242" fill="none"/><path id="path216" d="M363.1 893.16l.03 7.597h4.791l-.006-7.597H363.1" stroke="#000" stroke-width="1.242" fill="none"/><path id="path218" d="M319.53 903.46l-.073-13.076-10.464-.013.049 13.082h10.488v.007z" stroke="#000" stroke-width="1.242" fill="none"/><path id="path220" d="M311.85 893.11l.024 7.585 4.803.012-.036-7.597h-4.791" stroke="#000" stroke-width="1.242" fill="none"/><path id="path222" d="M338.5 903.48l-.049-13.076-10.47-.012.043 13.087H338.5" stroke="#000" stroke-width="1.242" fill="none"/><path id="path224" d="M330.83 893.13l.024 7.585 4.797.024-.03-7.609h-4.791" stroke="#000" stroke-width="1.242" fill="none"/><path id="path226" d="M353.12 903.51l-.073-13.101-10.464-.012.049 13.087 10.488.025" stroke="#000" stroke-width="1.242" fill="none"/><path id="path228" d="M345.44 893.14l.036 7.61h4.797l-.024-7.61h-4.809" stroke="#000" stroke-width="1.242" fill="none"/><path id="path230" fill="#fff" d="M355.72 899.49l.116 30.199-30.333-.049-.11-30.174 30.321.024"/><path id="path232" d="M355.72 899.49l.116 30.199-30.333-.049-.11-30.174 30.321.024h.006z" stroke="#000" stroke-width="1.242" fill="none"/><path id="path234" d="M325.21 908.11l30.54.024" stroke="#000" stroke-width="1.242" fill="none"/><path id="path236" d="M329.02 929.68l-.103-21.342" stroke="#000" stroke-width="1.242" fill="none"/><path id="path238" d="M352.14 929.69l-.103-21.329" stroke="#000" stroke-width="1.242" fill="none"/><path id="path240" d="M366.79 886.63l-17.081-12.474-19.193-.024-16.947 12.449 53.222.048" stroke="#000" stroke-width="1.242" fill="none"/><path id="path242" d="M331.99 863.8l.03 7.61 16.144.011-.03-7.609-16.144-.012" stroke="#000" stroke-width="1.242" fill="none"/><path id="path244" d="M336.37 865.69l.024 3.792h7.415l-.025-3.792h-7.414" stroke="#000" stroke-width="1.242" fill="none"/><path id="path246" d="M340.04 855.14l8.979 6.348-17.891-.023 8.912-6.325" stroke="#000" stroke-width="1.242" fill="none"/><path id="path248" fill="#fff" d="M376.34 850.84c2.55-.06 3.208 10.507 3.214 15.742 2.191.615 7.05 3.671 9.198 6.434l-24.642-.036c2.118-2.727 6.94-5.795 9.113-6.41 0-5.241.536-15.803 3.117-15.742"/><path id="path250" d="M376.34 850.84c2.55-.06 3.208 10.507 3.214 15.742 2.191.615 7.05 3.671 9.198 6.434l-24.642-.036c2.118-2.727 6.94-5.795 9.113-6.41 0-5.241.536-15.803 3.117-15.742" stroke="#000" stroke-width="1.242" fill="none"/><path id="path252" d="M326.81 900.33h2.21l-.646 1.186s1.066 1.37.019 2.94l.578 1.09h-2.13l.578-1.035s-1.09-1.82.048-2.995l-.657-1.186" stroke="#000" stroke-width="1.242" fill="none"/><path id="path254" d="M331.31 900.33h2.21l-.64 1.186s1.066 1.334.007 2.94l.572 1.09h-2.125l.572-1.035s-1.065-1.82.055-2.995l-.651-1.186" stroke="#000" stroke-width="1.242" fill="none"/><path id="path256" d="M336.23 900.33h2.204l-.658 1.186s1.078 1.37.018 2.94l.579 1.115-2.113-.024.567-1.036s-1.078-1.807.042-2.995l-.645-1.186h.006z" stroke="#000" stroke-width="1.242" fill="none"/><path id="path258" d="M341.77 900.35h2.222l-.651 1.2s1.065 1.345.006 2.921l.596 1.108H341.8l.573-1.035s-1.066-1.832.073-2.995l-.67-1.199h-.006z" stroke="#000" stroke-width="1.242" fill="none"/><path id="path260" d="M346.7 900.35h2.204l-.652 1.2s1.072 1.345.012 2.915l.585 1.114h-2.125l.554-1.035s-1.071-1.82.085-2.995l-.663-1.199" stroke="#000" stroke-width="1.242" fill="none"/><path id="path262" d="M351.6 900.36l2.204-.012-.652 1.199s1.09 1.346.03 2.922l.555 1.108h-2.131l.572-1.035s-1.065-1.82.073-2.995l-.651-1.187" stroke="#000" stroke-width="1.242" fill="none"/><path id="path264" fill="#ff0" d="M340.7 968.4c11.359.036 25.329-2.283 31.873-5.667l14.372-1.273.286 17.538c-12.175 6.714-40.286 8.157-46.47 8.108-6.192.049-34.65-1.418-46.88-8.156l.158-17.55 14.403 1.296c6.544 3.367 20.94 5.704 32.287 5.704h-.03"/><path id="path266" d="M340.7 968.4c11.359.036 25.329-2.283 31.873-5.667l14.372-1.273.286 17.538c-12.175 6.714-40.286 8.157-46.47 8.108-6.192.049-34.65-1.418-46.88-8.156l.158-17.55 14.403 1.296c6.544 3.367 20.94 5.704 32.287 5.704h-.03" stroke="#000" stroke-width=".289" fill="none"/><path id="path268" fill="#ff0" d="M256.88 893.59l12.662 4.03-3.829 20.503-11.986 1.862s-2.021-10.781 3.153-26.407"/><path id="path270" d="M256.88 893.59l12.662 4.03-3.829 20.503-11.986 1.862s-2.021-10.781 3.153-26.407v.012z" stroke="#000" stroke-width=".289" fill="none"/><path id="path272" fill="#7e7e7e" d="M265.71 917.9l-11.98 2.088 7.579-10.781 4.401 8.693"/><path id="path274" d="M265.71 917.9l-11.98 2.088 7.579-10.781 4.401 8.693" stroke="#000" stroke-width=".289" fill="none"/><path id="path276" fill="#ff0" d="M249.31 908.36l12.205.882c.274 10.343 1.528 49.813 48.656 51.956l-1.467 14.36c-57.367.596-61.726-48.413-59.394-67.198"/><path id="path278" d="M249.31 908.36l12.205.882c.274 10.343 1.528 49.813 48.656 51.956l-1.467 14.36c-57.367.596-61.726-48.413-59.394-67.198z" stroke="#000" stroke-width=".289" fill="none"/><path id="path280" d="M294.11 978.5l14.384-3.141" stroke="#000" stroke-width=".289" fill="none"/><path id="path282" fill="#ff0" d="M423.52 893.74l-12.613 3.993 4 20.472 12.01 1.93s1.93-10.775-3.397-26.407"/><path id="path284" d="M423.52 893.74l-12.613 3.993 4 20.472 12.01 1.93s1.93-10.775-3.397-26.407v.012z" stroke="#000" stroke-width=".289" fill="none"/><path id="path286" fill="#7e7e7e" d="M414.9 917.99l12.01 2.155-7.682-10.786-4.328 8.631"/><path id="path288" d="M414.9 917.99l12.01 2.155-7.682-10.786-4.328 8.631" stroke="#000" stroke-width=".289" fill="none"/><path id="path290" fill="#ff0" d="M431.23 908.52l-12.223.835c-.177 10.33-1.077 49.818-48.206 51.912l1.601 14.348c57.355.662 61.3-48.322 58.828-67.101"/><path id="path292" d="M431.23 908.52l-12.223.835c-.177 10.33-1.077 49.818-48.206 51.912l1.601 14.348c57.355.662 61.3-48.322 58.828-67.101v.005z" stroke="#000" stroke-width=".289" fill="none"/><path id="path294" d="M387.04 978.57l-14.42-3.15" stroke="#000" stroke-width=".289" fill="none"/><path id="path296" fill="#009fc5" d="M333.07 977.04c-.323.207-.76.262-1.266.237l-2.277-.115.195-2.842 2.258.12c.445.031.798.117 1.017.25.456.238.657.677.615 1.285-.03.523-.213.865-.548 1.065m-3.823 4.475l.225-3.465 2.654.184c.859.067 1.498-.159 1.93-.597.45-.427.682-.986.712-1.62.055-.736-.134-1.339-.572-1.783-.42-.426-1.017-.652-1.765-.724l-3.793-.237-.523 8.156 1.126.074"/><path id="path298" fill="#009fc5" d="M337.5 974.69l2.776.03c.402.037.718.086.95.195.426.201.626.603.626 1.187 0 .549-.158.914-.468 1.133-.299.2-.73.292-1.248.292l-2.667-.03.025-2.807m-.043 7.226l.024-3.482 2.606.037c.463 0 .803.036 1.04.151.384.177.573.549.591 1.06l.067 1.37c.019.328.025.53.043.663.036.097.055.2.103.274h1.4l-.024-.177c-.158-.085-.286-.249-.34-.5-.05-.157-.074-.395-.086-.693l-.024-1.09c-.019-.493-.104-.833-.292-1.022a1.46 1.46 0 0 0-.737-.524c.39-.206.682-.444.895-.736.2-.323.304-.73.304-1.23 0-.937-.383-1.577-1.162-1.923-.42-.189-.956-.287-1.59-.298l-3.913-.037-.03 8.181h1.125"/><path id="path300" fill="#009fc5" d="M346.14 980.21c-.5-.608-.767-1.369-.828-2.27-.055-1.133.164-1.997.682-2.582.523-.633 1.2-.936 2.082-.985.889-.049 1.619.237 2.16.797.555.548.871 1.31.926 2.259.03.912-.128 1.722-.548 2.434-.414.725-1.102 1.133-2.118 1.157-1.06.055-1.85-.195-2.356-.81m-1.34-5.15c-.523.81-.736 1.747-.681 2.88.08 1.223.457 2.234 1.169 2.995.791.76 1.838 1.144 3.129 1.07 1.382-.06 2.423-.584 3.129-1.545.572-.87.846-1.881.785-3.13-.08-1.113-.402-2.02-1.004-2.696-.761-.907-1.875-1.308-3.385-1.247-1.424.09-2.472.614-3.147 1.673"/><path id="path302" fill="#009fc5" d="M383.24 963.29c.785-.134 1.467-.097 2.088.116.913.286 1.528.962 1.911 1.996l-1.126.159c-.243-.56-.59-.943-1.059-1.157-.457-.2-1.029-.25-1.686-.152a2.626 2.626 0 0 0-1.814 1.114c-.426.657-.554 1.534-.365 2.654.158.926.499 1.71 1.059 2.234.517.536 1.278.724 2.27.584.743-.121 1.34-.42 1.76-.931.438-.486.566-1.224.42-2.173l-2.624.402-.134-.9 3.652-.561.713 4.328-.725.11-.45-1c-.305.452-.609.799-.877 1-.45.353-1.059.578-1.82.688-.986.151-1.887-.025-2.703-.549-.895-.663-1.473-1.65-1.692-3.018-.237-1.346-.024-2.497.597-3.404.59-.876 1.448-1.387 2.605-1.552"/><path id="path304" fill="#009fc5" d="M391.5 962.66l2.618-.95c.359-.133.67-.176.937-.145.48.036.834.322 1.035.894.189.487.189.913-.024 1.212-.226.31-.579.536-1.09.724l-2.46.883-1.016-2.618m2.618 6.764l-1.279-3.282 2.435-.877c.457-.146.773-.225 1.01-.2.433.054.762.317.98.815l.555 1.249c.122.31.219.498.298.584.037.11.116.177.177.249l1.32-.486-.073-.177c-.194 0-.383-.11-.523-.323-.104-.152-.2-.37-.34-.627l-.433-1.023c-.195-.444-.396-.718-.627-.883a2.089 2.089 0 0 0-.87-.236c.267-.311.462-.622.535-.987.08-.37.043-.785-.134-1.247-.335-.87-.95-1.346-1.814-1.407-.456-.036-.98.061-1.583.274l-3.676 1.31 2.97 7.693 1.078-.396"/><path id="path306" fill="#009fc5" d="M403.69 965.37l-4.669-6.812 5.126-3.27.566.823-4.2 2.684 1.436 2.082 3.878-2.496.53.798-3.878 2.496 1.582 2.295 4.274-2.734.566.804-5.217 3.33"/><path id="path308" fill="#009fc5" d="M407.78 953.32l1.34-1.473c.62-.658 1.277-.956 1.996-.87.718.06 1.449.438 2.228 1.12.213.164.402.377.596.614.341.445.542.835.67 1.224.11.488.085.932-.085 1.358-.104.212-.286.462-.56.761l-1.346 1.461-4.839-4.206m7.074 3.207c.95-1.046 1.156-2.173.602-3.445a5.818 5.818 0 0 0-1.497-1.942c-.859-.761-1.754-1.15-2.697-1.223-1.047-.08-1.936.298-2.709 1.143l-2.283 2.448 6.295 5.491 2.282-2.46"/><path id="path310" fill="#009fc5" d="M419.73 950.17l-7.244-4.255.59-.937 7.257 4.23-.597.974"/><path id="path312" fill="#009fc5" d="M422.57 945.23l-7.822-3.13 2.307-5.503.95.366-1.881 4.535 2.355.926 1.76-4.177.9.372-1.74 4.17 2.635 1.07 1.93-4.588.95.358-2.35 5.601"/><path id="path314" fill="#009fc5" d="M426.16 935.62l-8.23-1.82.274-1.272 7.603-2.57-6.678-1.472.244-.999 8.23 1.771-.262 1.236-7.615 2.624 6.677 1.443-.237 1.059"/><path id="path316" fill="#009fc5" d="M425.51 925.17l.103-1.035c.475.013.877-.06 1.181-.224.597-.324.944-.938 1.035-1.846.037-.425.019-.797-.079-1.15-.176-.681-.56-1.06-1.175-1.12-.456-.049-.785.06-1.022.311-.213.286-.439.7-.61 1.284l-.377 1.078c-.243.705-.468 1.192-.712 1.466-.39.512-.937.689-1.637.64-.749-.08-1.358-.377-1.79-.95-.444-.523-.627-1.272-.517-2.198.073-.845.353-1.557.852-2.13.462-.523 1.18-.773 2.1-.676l-.085 1.035c-.45 0-.81.079-1.072.262-.474.261-.736.815-.815 1.625-.067.67.024 1.12.28 1.461.255.287.578.469.955.499.402.037.719-.091.938-.401.158-.214.347-.676.602-1.425l.372-1.132c.182-.524.402-.926.657-1.212.457-.475 1.053-.675 1.802-.62.913.097 1.565.475 1.9 1.169.328.7.456 1.473.377 2.35-.104.991-.426 1.77-1.023 2.294-.597.535-1.34.718-2.24.645"/><path id="path318" fill="#009fc5" d="M254.9 924.67l.189 1.022c-.457.091-.822.275-1.09.512-.48.45-.645 1.126-.48 2.045.072.39.212.773.389 1.078.365.62.84.87 1.442.772.445-.079.737-.249.877-.565.134-.311.231-.786.262-1.394l.055-1.151c.036-.712.115-1.272.274-1.583.25-.56.718-.907 1.418-1.022a2.437 2.437 0 0 1 1.972.462c.572.396.95 1.084 1.09 1.997.176.834.097 1.583-.231 2.258-.317.658-.926 1.06-1.857 1.23l-.183-1.035c.433-.158.755-.31.968-.523.365-.409.475-.998.335-1.808-.11-.658-.335-1.084-.676-1.297-.334-.25-.67-.347-1.034-.286-.408.061-.676.286-.804.652-.08.243-.14.748-.195 1.521l-.055 1.193c-.03.56-.115 1.023-.304 1.34-.298.584-.804.943-1.54 1.058-.931.159-1.65-.054-2.161-.651-.524-.584-.846-1.284-1.01-2.155-.183-1.035-.05-1.838.365-2.483.42-.663 1.083-1.047 1.984-1.175"/><path id="path320" fill="#009fc5" d="M254.38 935.46l8.047-2.423 1.875 5.667-.98.31-1.534-4.656-2.447.737 1.419 4.303-.938.298-1.406-4.315-2.727.815 1.558 4.76-.962.275-1.905-5.771"/><path id="path322" fill="#009fc5" d="M257.95 945.29l7.402-3.926.792 1.381-5.09 5.382 7.433-1.273.767 1.37-7.384 3.903-.523-.908 4.358-2.294c.158-.092.402-.226.755-.414.347-.158.737-.372 1.126-.573l-7.402 1.26-.542-.962 5.053-5.363-.244.123c-.158.09-.432.225-.803.437-.366.226-.64.366-.816.439l-4.346 2.331-.536-.925"/><path id="path324" fill="#009fc5" d="M271.74 956.19c-.371-.085-.737-.298-1.096-.67l-1.564-1.613 2.106-1.93 1.577 1.608c.304.298.499.59.602.84.146.48 0 .92-.444 1.333-.402.371-.804.523-1.18.432m-5.948.749l2.58-2.368 1.833 1.856c.59.603 1.193.877 1.826.865a2.575 2.575 0 0 0 1.686-.737c.548-.487.81-1.06.81-1.673-.006-.597-.28-1.157-.785-1.68l-2.63-2.685-6.124 5.624.792.798"/><path id="path326" fill="#009fc5" d="M273.18 963.51l4.438-6.958 5.247 3.19-.548.828-4.31-2.58-1.333 2.106 3.963 2.404-.511.798-3.97-2.393-1.509 2.356 4.365 2.624-.524.822-5.308-3.197"/><path id="path328" fill="#009fc5" d="M286.31 962.17l2.666.847c.378.115.652.26.834.426.341.322.432.785.232 1.345-.165.487-.414.803-.804.938a2.76 2.76 0 0 1-1.297-.098l-2.514-.803.883-2.655m-2.301 6.836l1.108-3.317 2.484.81c.444.115.767.274.925.437.304.274.395.682.243 1.188l-.371 1.32c-.085.323-.128.536-.164.633 0 .104 0 .214.018.286l1.309.427.079-.19c-.14-.109-.22-.309-.213-.559.03-.152.073-.395.158-.676l.317-1.059c.127-.463.176-.81.06-1.059a1.67 1.67 0 0 0-.535-.724c.414-.074.773-.202 1.077-.427.286-.25.53-.596.676-1.083.298-.883.134-1.62-.524-2.18-.328-.291-.797-.541-1.412-.773l-3.725-1.15-2.606 7.761 1.09.335"/><path id="path330" fill="#bc715f" d="M295.32 827.76c.962-2.32 9.874-8.645 39.117-5.875 0 0 4.943 3.02 7.847 2.63 1.655-.213-.974.103-3.135-1.692-2.204-1.796-2.673-5.478 2.362-5.381 5.01.128 23.765 1.187 24.118 2.873.328 1.704-9.917 2.416-13.727 2.319-3.83-.103-3.385 1.833.426 1.687 11.907-.427 24.903-4.621 38.63 5.089 1.637 1.18-4.14 1.369-8.608-.53 0 0-12.108.627-17.343-.231 0 0-4.024 3.274-9.265 2.952.682 1.698-1.936 8.035-18.414 3.268-2.72.835-12.637 2.496-11.554-.45-2.611 0-7.189.84-7.87-.645-.658-1.46 8.059-3.671 9.587-5.253 0 0-18.44.176-21.933-1.096 0 0-10.878 2.44-10.24.323"/><path id="path332" fill="#008737" d="M301.23 853.58c.396-.535.554-1.498 1.394-1.472 1.826.486 3.068 3.828 5.314 1.66.798-.176 1.102.908 1.76 1.036.42 1.857 1.91-.377 3.025-.25 2.38-1.06 5.326-1.309 8.145-.785.085 1.82-1.34 3.829-3.13 4.863.037 1.833 1.7 3.008 1.669 4.852-.286.689-.049 1.771-1.09 1.997-1.32-.238-2.623-.378-3.72-1.114-.133-.134-.243-.396-.523-.31-.134.614.828 1.223 1.205 1.85-.663 1.132-1.765.097-2.69.11-.274.65-.012 1.472-.682 1.893-1.169-.037-1.406-1.309-2.124-1.942-.737.797.517 1.272.694 1.905-.45 2.398-.39 4.742-2.788 6.313l-1.608.798c-.438-1.206-.164-3.032-.456-4.293-.95 1.547-1.692 2.899-3.086 4.207-1.632-.536-2.581-2.46-2.94-4.054-.682-1.857-.293-4.079 1.174-5.424-.499-.974-2.21-.749-2.453-2.136-2.563-1.669-3.981 2.922-5.637.535-.535-2.228.104-4.998 1.717-6.66-.36-.912-1.552-.675-2.259-1.198-1.613-1.37-3.938-2.819-3.822-5.29 4.413-1.668 9.69-.445 12.899 2.909"/><path id="path334" fill="#ff0" d="M303.52 853.33c-.103 2.02 1.364.547 2.453 1.77-.852-.334-1.473 1.474-2.307.44l-.523.499c.304.693.894.785.28 1.545-.913.347-1.096-.796-1.522-1.247-.073-.2.14-.579-.195-.713-.517.439-1.06.597-1.771.524-.195-.39-.573-.9-.19-1.199.7-.944 1.785.34 2.314-.322.085-.585-.426-1.297.238-1.7.456.08 1.04-.17 1.23.403"/><path id="path336" fill="#ff0" d="M308.98 854.99c.055.39-.2.937.31 1.212.664-.36 1.37-.086 1.754.572-.006.353.103.815-.36.986l-1.034-.194c.073-.202-.256-.33-.384-.524-.456-.14-.724.23-1.065.456.256.39.846.603.706 1.102-.609.609-.907-.523-1.577-.238-.456-.176.165-1.125-.554-1.411-.852 0-.286 1.4-1.375.852-.39-.439-.773-1.029-.353-1.522.456-.305 1.23-.226 1.619.17.663-.736.73-3.579 2.32-1.461"/><path id="path338" fill="#ff0" d="M302.18 857.92c.444.64-.097 1.51.469 2.222.888-1.661 1.747.359 2.806.2.323.396.11.945.17 1.395-1.308.347-2.885.76-4.042-.286l-.322.371c.688.64 1.339 1.364.791 2.435-.98.213-2.496.237-2.989-.773-.255-.834.597-1.436-.304-2.106-.651.81-.621 1.893-1.978 1.156-.84-.462-1.09-1.418-.67-2.222.876-1.381 2.41.044 3.36-.633.134-1.187-.304-2.222.785-2.878.932-.165 1.364.535 1.93 1.119"/><path id="path340" fill="#fff" d="M305.89 858.65c-.438 2.021-1.96-.103-2.672-.189.95-1.685 1.546.549 2.672.189"/><path id="path342" fill="#fff" d="M310.63 860.85c-1.06.298-.895-1.023-1.418-1.54l.407-.372c.384.463.676 1.297 1.011 1.912"/><path id="path344" fill="#ff0" d="M309.2 860.44c.304.7-.688 1.26.158 1.771.268-.224.597-.535.737-.663.724.214 1.564.341 2.07 1.06.541 1.485-.962 1.448-1.814 1.862l-.847-.037c.201-.414-.365-.59-.505-.876-.39-.097-.712.024-.931.353.188.944 1.339 1.68.152 2.52-1.004-.066-2.563.323-2.472-1.065-.377-.786 1.023-1.997-.474-2.045-.493 1.06-1.035 2.081-2.32 1.077l.159-1.51c1.23.037 2.684.25 3.238-1.125.353-.999-.615-1.918.25-2.71 1.254-.285 1.96.555 2.599 1.388"/><path id="path346" d="M308.3 862.71c.317.75-.536.798-.937 1.169-.542.043-.92-.17-1.248-.536-.244-.907.432-.998.95-1.357.602-.25.851.45 1.235.724"/><path id="path348" fill="#fff" d="M307.56 863.2c-.134.177-.323.122-.524.17l-.188-.906c.402.036.925.164.712.736"/></g></g></svg>