<svg id="svg378" xmlns="http://www.w3.org/2000/svg" height="480" width="640" version="1"><g id="flag" fill-rule="evenodd"><rect id="rect171" rx="0" ry="0" height="480" width="640" fill="#fff"/><rect id="rect256" rx="0" ry="0" height="159.3" width="480" y="320.7" fill="#fff"/><path id="rect255" fill="#fff" d="M0 0h480v159.3H0z"/><path id="path205" d="M201.9 281l-28.822-20.867-28.68 21.072 10.667-34.242-28.628-21.145 35.418-.295 10.985-34.138 11.221 34.06 35.418.045-28.481 21.344L201.9 281z" fill="#fff"/><path id="path583" d="M509.54 281l-28.822-20.867-28.68 21.072 10.667-34.242-28.628-21.145 35.418-.295 10.985-34.138 11.221 34.06 35.418.045-28.481 21.344L509.54 281z" fill="#fff"/><rect id="rect7524" rx="0" ry="0" height="159.3" width="640" y="320.7" stroke-width="1pt"/><path id="rect7526" stroke-width="1pt" fill="red" d="M0 0h640v159.3H0z"/><path id="path7528" d="M201.9 281l-28.822-20.867-28.68 21.072 10.667-34.242-28.628-21.145 35.418-.295 10.985-34.138 11.221 34.06 35.418.045-28.481 21.344L201.9 281z" stroke-width=".113" fill="#090"/><path id="path7530" d="M509.54 281l-28.822-20.867-28.68 21.072 10.667-34.242-28.628-21.145 35.418-.295 10.985-34.138 11.221 34.06 35.418.045-28.481 21.344L509.54 281z" stroke-width=".113" fill="#090"/></g></svg>