<svg id="svg548" xmlns="http://www.w3.org/2000/svg" height="480" width="640"><defs id="defs550"><clipPath id="clipPath4924"><path id="rect4926" fill-opacity=".67" d="M-85.333 0h682.67v512h-682.67z"/></clipPath></defs><g id="flag" clip-path="url(#clipPath4924)" transform="translate(80) scale(.9375)"><path id="rect585" fill-rule="evenodd" fill="#3e5eb9" d="M-128 0h768v512h-768z"/><path id="rect966" fill-rule="evenodd" fill="#ffd900" d="M-128 91.429h768v329.14h-768z"/><path id="rect967" fill-rule="evenodd" fill="#b10c0c" d="M-128 128h768v256h-768z"/><rect id="rect969" fill-rule="evenodd" rx="5.767" ry="5.851" height="10.971" width="621.71" stroke="#000" y="250.51" x="-51.439" stroke-width="1.474" fill="#ffd900"/><g id="g978" stroke="#000" transform="translate(-757.03 -25.6) scale(1.0321)"><path id="path971" d="M-106.3 265.75l-88.583 35.433 88.583 35.433 88.582-35.433-88.582-35.433z" fill-rule="evenodd" transform="matrix(.34 0 0 .3 1256.8 136.42)" stroke-width="4.175" fill="#fff"/><rect id="rect968" fill-rule="evenodd" rx="4.108" ry="3.78" height="7.087" width="442.91" y="223.23" x="761.81" stroke-width="1.333" fill="#ffd900"/><path id="path975" d="M1224.4 279.92c-3.54 0-7.09-3.544-7.09-7.087s3.55-7.087 7.09-7.087" transform="matrix(-.50001 0 0 .5 1806.3 90.354)" stroke-width="2.667" fill="none"/><path id="path976" d="M1224.4 279.92c-3.54 0-7.09-3.544-7.09-7.087s3.55-7.087 7.09-7.087" transform="matrix(-.50001 0 0 .5 1802.8 90.354)" stroke-width="2.667" fill="none"/><path id="path977" d="M1224.4 279.92c-3.54 0-7.09-3.544-7.09-7.087s3.55-7.087 7.09-7.087" transform="matrix(-.50001 0 0 .5 1799.2 90.355)" stroke-width="2.667" fill="none"/></g><g id="g984" stroke="#000" transform="translate(-786.29 -3.657) scale(1.0321)"><path id="path985" d="M-106.3 265.75l-88.583 35.433 88.583 35.433 88.582-35.433-88.582-35.433z" fill-rule="evenodd" transform="matrix(.34 0 0 .3 1256.8 136.42)" stroke-width="4.175" fill="#fff"/><rect id="rect986" fill-rule="evenodd" rx="4.108" ry="3.78" height="7.087" width="442.91" y="223.23" x="761.81" stroke-width="1.333" fill="#ffd900"/><path id="path987" d="M1224.4 279.92c-3.54 0-7.09-3.544-7.09-7.087s3.55-7.087 7.09-7.087" transform="matrix(-.50001 0 0 .5 1806.3 90.354)" stroke-width="2.667" fill="none"/><path id="path988" d="M1224.4 279.92c-3.54 0-7.09-3.544-7.09-7.087s3.55-7.087 7.09-7.087" transform="matrix(-.50001 0 0 .5 1802.8 90.354)" stroke-width="2.667" fill="none"/><path id="path989" d="M1224.4 279.92c-3.54 0-7.09-3.544-7.09-7.087s3.55-7.087 7.09-7.087" transform="matrix(-.50001 0 0 .5 1799.2 90.355)" stroke-width="2.667" fill="none"/></g><g id="g943" fill-rule="evenodd" transform="matrix(.48305 0 0 .4852 228.79 259.6)"><path id="path925" d="M338.07-.416c-5.571 12.442 4.275-4.138 28.299 16.69 4.452 3.87 8.342 14.09 8.342 21.178-1.13-.975-1.969-3.145-3.214-4.553-1.743 2.253 1.664 12.577 2.162 17.457-3.756-2.71-3.394-3.993-4.642-7.324.249 4.026-.645 15.116.849 19.386-2.96-1.09-2.764-4.163-4.31-4.78 1.052 4.834-.916 10.094-.394 15.528-1.73-2.208-3.573-3.937-4.376-4.829-.135 2.588-3.327 9.388-3.4 11.835-1.468-1.143-1.866-2.926-2.111-4.126-1.824 2.955-8.308 13.872-8.724 17.202-4.996-5.69-17.793-19.545-19.459-26.9-1.473 4.176-3.604 5.584-7.817 8.632-1.665-11.656-7.891-24.756-4.561-34.747-2.359 1.804-4.302 3.608-6.66 5.828 2.234-16.88 13.628-36.674 30.016-46.477z" transform="matrix(2.0586 0 0 1.5894 -79.541 -15.739)" stroke="#000" stroke-width="1.422" fill="#3d5da7"/><path id="path938" d="M273.5 33.156c-19.565.663-27.155-1.665-39.755-1.249-22.163.709-38.09 4.41-38.09-.416 0-4.826 8.006-7.077 30.181-7.077 22.174 0 27.682 1.419 47.664 8.742z" transform="matrix(-.27666 .47556 -.98145 -.25924 681.83 -39.928)" stroke-width="1pt" fill="#a70000"/><path id="path939" d="M273.5 33.156c-19.565.663-27.155-1.665-39.755-1.249-22.163.709-38.09 4.41-38.09-.416 0-4.826 8.006-7.077 30.181-7.077 22.174 0 27.682 1.419 47.664 8.742z" transform="matrix(.0006 .37154 -.90479 .08269 635.67 -.247)" stroke-width="1pt" fill="#a70000"/><path id="path940" d="M273.5 33.156c-19.565.663-27.155-1.665-39.755-1.249-22.163.709-38.09 4.41-38.09-.416 0-4.826 8.006-7.077 30.181-7.077 22.174 0 27.682 1.419 47.664 8.742z" transform="matrix(.06913 .52214 -.8386 .21649 639.17 -31.725)" stroke-width="1pt" fill="#a70000"/><path id="path941" d="M273.5 33.156c-19.565.663-27.155-1.665-39.755-1.249-22.163.709-38.09 4.41-38.09-.416 0-4.826 8.006-7.077 30.181-7.077 22.174 0 27.682 1.419 47.664 8.742z" transform="matrix(.32032 .21152 .45182 -.55995 553.09 8.395)" stroke-width="1pt" fill="#a70000"/><path id="path942" d="M273.5 33.156c-19.565.663-27.155-1.665-39.755-1.249-22.163.709-38.09 4.41-38.09-.416 0-4.826 8.006-7.077 30.181-7.077 22.174 0 27.682 1.419 47.664 8.742z" transform="matrix(.18815 .32091 .80839 -.3379 573.21 4.56)" stroke-width="1pt" fill="#a70000"/></g><g id="g950" fill-rule="evenodd" transform="matrix(.47326 0 0 .48433 -242.14 255.81)"><path id="path926" d="M329.6 20.703c-.272-2.662.253-2.98-1.258-4.989 2.2.997 2.284 3.649 4.959 1.767.983-.551 1.411-.569.217-3.526 2.79.14 11.927 3.535 13.39 3.614 3.842.191 10.855-4.373 15.723 1.24 4.672 5.117 3.112 10.428 3.112 17.515-1.877-.975-.973-1.455-2.965-3.989 1.494 6.195-.08 17.364-.08 23.934-.767-1.584-.654-.896-1.404-2.537-1.992 5.997-4.38 7.231-4.38 14.318-.719-2.78-.025-2.191-.825-3.653-1.936 4.552-14.925 8.443-9.92 13.033-4.518-2.87-6.499-2.57-8.548-5.15-.882.617-1.584 1.785-2.404 3.386-7.943-3.96-5.103-12.5-11.326-18.206-1.077 2.393-.586 2.045-1.75 5.939-1.26-5.408-1.604-8.844-3.021-12.82-1.223 2.204-1.113 1.36-3.333 4.69-.918-6.587-2.413-8.142-1.822-12.501-2.359 1.804-.815 1.073-3.173 3.293 2.234-16.88 11.884-29.352 18.808-25.358z" transform="matrix(2.4029 0 0 2.1669 -332.33 -34.376)" stroke="#000" stroke-width="1.422" fill="#3d5da7"/><path id="path928" d="M273.5 33.156c-19.565.663-27.155-1.665-39.755-1.249-22.163.709-38.09 4.41-38.09-.416 0-4.826 8.006-7.077 30.181-7.077 22.174 0 27.682 1.419 47.664 8.742z" transform="matrix(-.28442 .59052 -.97712 -.33674 546.38 -80.159)" stroke-width="1pt" fill="#a70000"/><path id="path929" d="M273.5 33.156c-19.565.663-27.155-1.665-39.755-1.249-22.163.709-38.09 4.41-38.09-.416 0-4.826 8.006-7.077 30.181-7.077 22.174 0 27.682 1.419 47.664 8.742z" transform="matrix(-.13148 .53639 -.90793 -.097 520.88 -43.839)" stroke-width="1pt" fill="#a70000"/><path id="path930" d="M273.5 33.156c-19.565.663-27.155-1.665-39.755-1.249-22.163.709-38.09 4.41-38.09-.416 0-4.826 8.006-7.077 30.181-7.077 22.174 0 27.682 1.419 47.664 8.742z" transform="matrix(-.05773 .52353 -.86604 .0097 521.59 -23.375)" stroke-width="1pt" fill="#a70000"/><path id="path931" d="M273.5 33.156c-19.565.663-27.155-1.665-39.755-1.249-22.163.709-38.09 4.41-38.09-.416 0-4.826 8.006-7.077 30.181-7.077 22.174 0 27.682 1.419 47.664 8.742z" transform="matrix(.49337 .4315 .76655 -.69323 364.56 -41.836)" stroke-width="1pt" fill="#a70000"/><path id="path932" d="M273.5 33.156c-19.565.663-27.155-1.665-39.755-1.249-22.163.709-38.09 4.41-38.09-.416 0-4.826 8.006-7.077 30.181-7.077 22.174 0 27.682 1.419 47.664 8.742z" transform="matrix(.33146 .44175 .797 -.44557 402.27 -18.441)" stroke-width="1pt" fill="#a70000"/></g><g id="g1018" fill-rule="evenodd" transform="translate(-128) scale(1.0321)"><path id="path552" d="M637.8 230.32c-53.15 59.05-124.02 177.16-265.75 177.16-124.02 0-212.6-118.11-265.75-177.16 53.15-59.06 141.73-177.17 265.75-177.17 141.73 0 212.6 118.11 265.75 177.17z" transform="matrix(.66667 0 0 .6 124.02 109.84)" stroke="#000" stroke-width="2.108" fill="#fff"/><path id="path555" d="M353.5 114.78c14.14 17.671 2.333 24.795 17.3 25.955 15.784 1.288 6.837 18.672 20.114 19.276 9.282.45-.927 41.652 8.009 55.247 9.102 14.174 16.725 4.153 16.885 14.393.158 10.59-24.773 9.522-25.21 42.146-.731 18.8-21.039 20.004-22.008 32.101-1.205 11.378 40.008 17.766 39.459 27.952-.565 10.155-44.501 8.565-46.414 20.146-.981 10.402 60.359 18.928 65.291 49.013-9.153 3.326-35.194 6.457-54.877 6.474-124.01.11-212.6-118.11-265.75-177.16 53.15-59.06 141.73-177.17 265.75-177.17 0 0-36.813 37.374-18.549 61.627z" transform="matrix(.66667 0 0 .6 124.02 109.84)" stroke-width="1pt"/><g id="g569" transform="matrix(.48485 0 0 .53333 183.72 210.24)" stroke-width="1pt" fill="#fff"><path id="rect557" d="M159.45 0h17.717v53.15H159.45z"/><path id="rect558" d="M159.45 88.583h17.717v53.15H159.45z"/><path id="rect559" d="M194.88 0h17.717v53.15H194.88z"/><path id="rect560" d="M194.88 88.583h17.717v53.15H194.88z"/><path id="rect561" d="M230.31 0h17.717v53.15H230.31z"/><path id="rect562" d="M230.31 88.583h17.717v53.15H230.31z"/><path id="rect563" d="M265.75 0h17.717v53.15H265.75z"/><path id="rect564" d="M265.75 88.583h17.717v53.15H265.75z"/><path id="rect565" d="M301.18 0h17.717v53.15H301.18z"/><path id="rect566" d="M301.18 88.583h17.717v53.15H301.18z"/><path id="rect567" d="M336.61 0h17.717v53.15H336.61z"/><path id="rect568" d="M336.61 88.583h17.717v53.15H336.61z"/></g><g id="g586" transform="matrix(.48485 0 0 .53333 313.64 210.24)" stroke-width="1pt"><path id="rect587" d="M159.45 0h17.717v53.15H159.45z"/><path id="rect588" d="M159.45 88.583h17.717v53.15H159.45z"/><path id="rect589" d="M194.88 0h17.717v53.15H194.88z"/><path id="rect590" d="M194.88 88.583h17.717v53.15H194.88z"/><path id="rect591" d="M230.31 0h17.717v53.15H230.31z"/><path id="rect592" d="M230.31 88.583h17.717v53.15H230.31z"/><path id="rect593" d="M265.75 0h17.717v53.15H265.75z"/><path id="rect594" d="M265.75 88.583h17.717v53.15H265.75z"/><path id="rect595" d="M301.18 0h17.717v53.15H301.18z"/><path id="rect596" d="M301.18 88.583h17.717v53.15H301.18z"/><path id="rect597" d="M336.61 0h17.717v53.15H336.61z"/><path id="rect598" d="M336.61 88.583h17.717v53.15H336.61z"/></g></g><g id="g957" fill-rule="evenodd" transform="matrix(.54409 0 0 .5327 19.257 165.99)"><path id="path924" d="M338.07-.416c-5.571 12.442 9.754-4.138 33.778 16.69 4.452 3.87 10.833 19.16 10.833 26.246-5.115-1.257-14.173-7.087-14.173-7.087s10.63 12.295 10.63 26.468c-3.756-2.71-5.635-2.304-6.883-5.634 0 4.588 3.34 7.512 3.34 14.599-2.711-2.498-5.006-4.163-7.3-5.625 3.543 7.086-6.457 20.834-1.452 25.423-8.752-1.462-17.707-7.92-21.25-15.006-1.878 1.462-2.082 3.756-2.155 6.203.276.264-13.322-11.656-12.073-16.235-1.824 2.955-2.081 4.579-2.497 7.909-4.996-5.69-9.574-11.378-11.24-18.733-2.22 3.33-2.359 3.33-4.579 6.66-1.665-11.655-1.665-11.24 1.665-21.23-2.359 1.804-4.302 3.608-6.66 5.828 2.234-16.88 13.628-36.674 30.016-46.477z" transform="matrix(1.6714 0 0 1.4783 -238.63 .2)" stroke="#000" stroke-width="1.422" fill="#3d5da7"/><path id="path933" d="M273.5 33.156c-19.565.663-27.155-1.665-39.755-1.249-22.163.709-38.09 4.41-38.09-.416 0-4.826 8.006-7.077 30.181-7.077 22.174 0 27.682 1.419 47.664 8.742z" transform="matrix(-.11102 .64598 -1.0321 -.05499 368.06 -85.394)" stroke-width="1pt" fill="#a70000"/><path id="path934" d="M273.5 33.156c-19.565.663-27.155-1.665-39.755-1.249-22.163.709-38.09 4.41-38.09-.416 0-4.826 8.006-7.077 30.181-7.077 22.174 0 27.682 1.419 47.664 8.742z" transform="matrix(.02113 .55187 -.89959 .15647 353.52 -43.459)" stroke-width="1pt" fill="#a70000"/><path id="path935" d="M273.5 33.156c-19.565.663-27.155-1.665-39.755-1.249-22.163.709-38.09 4.41-38.09-.416 0-4.826 8.006-7.077 30.181-7.077 22.174 0 27.682 1.419 47.664 8.742z" transform="matrix(.25282 .46206 .80443 -.32096 274.24 15.866)" stroke-width="1pt" fill="#a70000"/><path id="path936" d="M273.5 33.156c-19.565.663-27.155-1.665-39.755-1.249-22.163.709-38.09 4.41-38.09-.416 0-4.826 8.006-7.077 30.181-7.077 22.174 0 27.682 1.419 47.664 8.742z" transform="matrix(.59303 .27916 .5463 -.87734 203.78 1.463)" stroke-width="1pt" fill="#a70000"/><path id="path937" d="M273.5 33.156c-19.565.663-27.155-1.665-39.755-1.249-22.163.709-38.09 4.41-38.09-.416 0-4.826 8.006-7.077 30.181-7.077 22.174 0 27.682 1.419 47.664 8.742z" transform="matrix(.44018 .33354 .6437 -.64761 246.48 13.583)" stroke-width="1pt" fill="#a70000"/></g></g></svg>