<svg id="svg548" xmlns="http://www.w3.org/2000/svg" height="480" width="640"><defs id="defs550"><clipPath id="clipPath7468"><path id="rect7470" fill-opacity=".67" d="M0 0h682.67v512H0z"/></clipPath></defs><g id="flag" clip-path="url(#clipPath7468)" fill-rule="evenodd" transform="scale(.9375)"><path id="rect558" stroke-width="1pt" fill="#ffe300" d="M0 0h767.63v512H0z"/><path id="rect555" stroke-width="1pt" fill="#118600" d="M0 208.14h767.63v102.81H0z"/><path id="rect570" stroke-width="1pt" fill="#118600" d="M0 .248h767.63v102.81H0z"/><path id="rect554" stroke-width="1pt" fill="#d80000" d="M0 .248h306.51v310.71H0z"/><path id="path567" d="M134.42 128.43c0-.856 18.836-53.083 18.836-53.083l17.124 52.227s57.365 1.713 57.365.856-45.378 34.248-45.378 34.248 21.404 59.933 20.549 58.221c-.856-1.712-49.659-35.96-49.659-35.96s-49.658 34.248-48.802 34.248c.856 0 18.835-56.508 18.835-56.508l-44.522-33.392 55.652-.856z" fill="#fff"/><path id="rect569" stroke-width="1pt" fill="#118600" d="M0 409.19h767.63V512H0z"/></g></svg>