<svg id="svg3446" xmlns="http://www.w3.org/2000/svg" height="480" width="640"><defs id="defs3448"><clipPath id="clipPath7362"><path id="rect7364" fill-opacity=".67" d="M-85.648 0h682.67v512h-682.67z"/></clipPath></defs><g id="flag" clip-path="url(#clipPath7362)" fill-rule="evenodd" transform="translate(80.295) scale(.9375)"><path id="rect3450" stroke-width="1pt" fill="#fff" d="M-256 0H767.4v512H-256z"/><path id="rect3449" stroke-width="1pt" fill="#239f40" d="M-256 372.43H766.6v139.12H-256z"/><path id="rect3452" stroke-width="1pt" fill="#cd1738" d="M-256 0H766.6v139.12H-256z"/><path id="polygon3940" transform="matrix(1.0307 0 0 1.0782 -243.7 -64.335)" fill="#ff0" d="M391.56 256.53l3.57 11.24 11.56-.25-9.59 6.87 3.81 10.92-9.49-6.99-9.21 6.99 3.72-11.19-9.5-6.6 11.79.08z"/><path id="polygon3941" transform="matrix(1.0307 0 0 1.0782 -255.54 -12.408)" fill="#ff0" d="M391.56 256.53l3.57 11.24 11.56-.25-9.59 6.87 3.81 10.92-9.49-6.99-9.21 6.99 3.72-11.19-9.5-6.6 11.79.08z"/><path id="polygon3942" transform="matrix(1.0307 0 0 1.0782 -203.62 -106.7)" fill="#ff0" d="M391.56 256.53l3.57 11.24 11.56-.25-9.59 6.87 3.81 10.92-9.49-6.99-9.21 6.99 3.72-11.19-9.5-6.6 11.79.08z"/><path id="polygon3943" transform="matrix(1.0307 0 0 1.0782 -149.64 -120.82)" fill="#ff0" d="M391.56 256.53l3.57 11.24 11.56-.25-9.59 6.87 3.81 10.92-9.49-6.99-9.21 6.99 3.72-11.19-9.5-6.6 11.79.08z"/><path id="polygon3944" transform="matrix(1.0307 0 0 1.0782 -95.208 -106.7)" fill="#ff0" d="M391.56 256.53l3.57 11.24 11.56-.25-9.59 6.87 3.81 10.92-9.49-6.99-9.21 6.99 3.72-11.19-9.5-6.6 11.79.08z"/><path id="polygon3945" transform="matrix(1.0307 0 0 1.0782 -55.124 -64.107)" fill="#ff0" d="M391.56 256.53l3.57 11.24 11.56-.25-9.59 6.87 3.81 10.92-9.49-6.99-9.21 6.99 3.72-11.19-9.5-6.6 11.79.08z"/><path id="polygon3946" transform="matrix(1.0307 0 0 1.0782 -43.509 -12.408)" fill="#ff0" d="M391.56 256.53l3.57 11.24 11.56-.25-9.59 6.87 3.81 10.92-9.49-6.99-9.21 6.99 3.72-11.19-9.5-6.6 11.79.08z"/><path id="path3952" d="M516.09 230.63c0 9.255-9.34 16.758-20.859 16.758s-20.859-7.503-20.859-16.758c0-9.255 9.34-16.758 20.859-16.758s20.859 7.503 20.859 16.758z" transform="matrix(.99015 0 0 .92977 -236.29 21.42)" fill="#ff0"/><path id="rect3953" fill="#ff0" d="M248.11 246.85h11.796v54.916H248.11z"/><path id="path4004" d="M357.58 297.62c-5.134 10.894-12.042 14.76-23.319 14.458-19.735.468-24.195-14.028-26.768-20.427-6.976 9.194-10.941 12.848-22.52 12.627-16.498.369-24.827-9.022-30.977-26.776-6.15 17.641-14.479 27.032-30.977 26.663-11.58.222-15.545-3.433-22.52-12.627-2.573 6.4-7.032 20.895-26.768 20.427-11.277.302-18.185-3.564-22.807-14.61 5.365 15.426 10.679 24.058 27.152 24.596 14.92.18 21.753-8.462 24.986-14.372 10.749 5.71 11.854 6.978 27.093 6.62 11.376-.366 17.91-7.798 23.797-14.87 5.887 7.072 12.422 14.504 23.797 14.87 15.24.358 16.345-.91 27.093-6.62 3.233 5.91 10.066 14.551 24.986 14.372 16.473-.538 21.788-9.17 27.751-24.331z" fill="#ff0"/><path id="path4048" d="M204.17 313.52l5.385 7.463 10.326-.303-7.969 9.031-15.6.399-4.881-6.537 9.011-1.456 3.784-8.575" fill="#ff0"/><path id="path4049" d="M303.62 313.52l-5.385 7.463-10.326-.303 7.969 9.031 15.6.399 4.881-6.537-9.011-1.456-3.784-8.575" fill="#ff0"/><path id="path4053" d="M241.02 318.31c0-.04 7.086.04 7.086.04l5.958-4.75 5.818 4.69 7.026.101-6.322 9.34H247.3l-6.28-9.421z" fill="#ff0"/><path id="path4100" d="M330.66 351.58c-27.551-5.688-45.991-8.487-76.696-8.487s-49.145 2.799-76.522 8.419l-.038-11.879c27.415-5.672 45.855-8.471 76.56-8.471s49.145 2.8 76.56 8.471l.136 11.947z" fill="#ff0"/><path id="path4102" d="M505.31 228.88c0 3.28-4.687 5.938-10.469 5.938-5.782 0-10.469-2.659-10.469-5.938s4.687-5.938 10.469-5.938c5.782 0 10.469 2.659 10.469 5.938z" transform="translate(-256) scale(1.0307)" fill="#fff"/></g></svg>