<svg id="svg548" xmlns="http://www.w3.org/2000/svg" height="480" width="640" version="1"><defs id="defs550"><clipPath id="clipPath6977"><path id="rect6979" fill-opacity=".67" d="M42.666 0h682.67v512H42.666z"/></clipPath></defs><g id="flag" fill-rule="evenodd" clip-path="url(#clipPath6977)" transform="translate(-40) scale(.9375)"><path id="rect1280" stroke-width="1pt" fill="#004e00" d="M0 0h768v512H0z"/><g id="g1418" stroke-width="1pt" transform="scale(1.0321)"><path id="path737" d="M356.1 405.71h14.173" transform="matrix(.96528 0 0 1.1242 -91.267 -289.56)" fill="#ffef00"/><path id="path575" d="M154.29-5.58C102.65-.734 67.058 45.335 66.177 80.672c-2.403 33.898 20.955 74.868 74.793 93.588C69.697 164.34 32 128 33.05 79.388c5.691-58.166 75.96-97.496 121.24-84.968z" transform="matrix(-.4937 -.3009 .31724 -.51674 333.06 176.76)" fill="#fff"/><path id="polygon570" transform="matrix(.44846 0 0 .46139 213.66 16.708)" fill="#feffff" d="M199.45 109.59l12.13.15-9.6 7.41 3.6 11.59-10.01-6.85-9.91 7.01 3.42-11.64-9.72-7.25 12.12-.35 3.89-11.495z"/><path id="polygon1529" transform="matrix(.44846 0 0 .46139 186.81 50.369)" fill="#feffff" d="M199.45 109.59l12.13.15-9.6 7.41 3.6 11.59-10.01-6.85-9.91 7.01 3.42-11.64-9.72-7.25 12.12-.35 3.89-11.495z"/><path id="polygon1530" transform="matrix(.44846 0 0 .46139 188.58 23.802)" fill="#feffff" d="M199.45 109.59l12.13.15-9.6 7.41 3.6 11.59-10.01-6.85-9.91 7.01 3.42-11.64-9.72-7.25 12.12-.35 3.89-11.495z"/><path id="polygon1531" transform="matrix(.44846 0 0 .46139 188.58 -2.78)" fill="#feffff" d="M199.45 109.59l12.13.15-9.6 7.41 3.6 11.59-10.01-6.85-9.91 7.01 3.42-11.64-9.72-7.25 12.12-.35 3.89-11.495z"/><path id="polygon1532" transform="matrix(.44846 0 0 .46139 158.74 30.888)" fill="#feffff" d="M199.45 109.59l12.13.15-9.6 7.41 3.6 11.59-10.01-6.85-9.91 7.01 3.42-11.64-9.72-7.25 12.12-.35 3.89-11.495z"/></g><g id="g3186" transform="scale(1.0321)"><path id="rect1002" stroke-width="1pt" fill="#980000" d="M46.063 0h159.45v496.06H46.063z"/><g id="g1201" transform="matrix(.375 0 0 .5 -54.257 -146.16)" stroke-width="1pt" fill="#e69900"><path id="path557" d="M265.89 605.9v-7.086l17.577-17.717-3.544-3.543 10.63-10.63-3.543-3.543-7.087 7.086-3.543-3.543 24.803-24.803 3.543 3.543-3.543 3.544 7.304 7.159 17.499-17.789-17.793-17.24-7.01 6.61 3.543 3.543-3.543 3.543-24.803-24.803 3.543-3.543 7.087 7.087 3.543-3.544-10.63-10.63 3.544-3.543-17.577-17.716v-7.087l24.663 24.803-3.543 3.543 10.63 10.63-7.087 7.087 7.087 7.086 10.63-10.629L333.213 539l-24.943 24.381-10.63-10.63-7.087 7.087 7.087 7.086-10.63 10.63 3.543 3.543L265.89 605.9z" transform="translate(1.632 -54.921)"/><path id="path559" d="M269.29 517.32l3.544 7.086v10.63h10.63l7.086 3.544-7.086 3.543h-10.63v10.63l-3.544 7.087v-42.52z" transform="translate(-1.771 -54.921)"/></g><g id="g1204" transform="matrix(.375 0 0 .5 -54.257 -61.121)" stroke-width="1pt" fill="#e69900"><path id="path1205" d="M265.89 605.9v-7.086l17.577-17.717-3.544-3.543 10.63-10.63-3.543-3.543-7.087 7.086-3.543-3.543 24.803-24.803 3.543 3.543-3.543 3.544 7.304 7.159 17.499-17.789-17.793-17.24-7.01 6.61 3.543 3.543-3.543 3.543-24.803-24.803 3.543-3.543 7.087 7.087 3.543-3.544-10.63-10.63 3.544-3.543-17.577-17.716v-7.087l24.663 24.803-3.543 3.543 10.63 10.63-7.087 7.087 7.087 7.086 10.63-10.629L333.213 539l-24.943 24.381-10.63-10.63-7.087 7.087 7.087 7.086-10.63 10.63 3.543 3.543L265.89 605.9z" transform="translate(1.632 -54.921)"/><path id="path1206" d="M269.29 517.32l3.544 7.086v10.63h10.63l7.086 3.544-7.086 3.543h-10.63v10.63l-3.544 7.087v-42.52z" transform="translate(-1.771 -54.921)"/></g><g id="g1207" transform="matrix(.375 0 0 .5 -54.256 23.919)" stroke-width="1pt" fill="#e69900"><path id="path1208" d="M265.89 605.9v-7.086l17.577-17.717-3.544-3.543 10.63-10.63-3.543-3.543-7.087 7.086-3.543-3.543 24.803-24.803 3.543 3.543-3.543 3.544 7.304 7.159 17.499-17.789-17.793-17.24-7.01 6.61 3.543 3.543-3.543 3.543-24.803-24.803 3.543-3.543 7.087 7.087 3.543-3.544-10.63-10.63 3.544-3.543-17.577-17.716v-7.087l24.663 24.803-3.543 3.543 10.63 10.63-7.087 7.087 7.087 7.086 10.63-10.629L333.213 539l-24.943 24.381-10.63-10.63-7.087 7.087 7.087 7.086-10.63 10.63 3.543 3.543L265.89 605.9z" transform="translate(1.632 -54.921)"/><path id="path1209" d="M269.29 517.32l3.544 7.086v10.63h10.63l7.086 3.544-7.086 3.543h-10.63v10.63l-3.544 7.087v-42.52z" transform="translate(-1.771 -54.921)"/></g><g id="g1210" transform="matrix(.375 0 0 .5 -54.256 103.64)" stroke-width="1pt" fill="#e69900"><path id="path1211" d="M265.89 605.9v-7.086l17.577-17.717-3.544-3.543 10.63-10.63-3.543-3.543-7.087 7.086-3.543-3.543 24.803-24.803 3.543 3.543-3.543 3.544 7.304 7.159 17.499-17.789-17.793-17.24-7.01 6.61 3.543 3.543-3.543 3.543-24.803-24.803 3.543-3.543 7.087 7.087 3.543-3.544-10.63-10.63 3.544-3.543-17.577-17.716v-7.087l24.663 24.803-3.543 3.543 10.63 10.63-7.087 7.087 7.087 7.086 10.63-10.629L333.213 539l-24.943 24.381-10.63-10.63-7.087 7.087 7.087 7.086-10.63 10.63 3.543 3.543L265.89 605.9z" transform="translate(1.632 -54.921)"/><path id="path1212" d="M269.29 517.32l3.544 7.086v10.63h10.63l7.086 3.544-7.086 3.543h-10.63v10.63l-3.544 7.087v-42.52z" transform="translate(-1.771 -54.921)"/></g><g id="g1213" transform="matrix(-.375 0 0 .5 305.83 -146.16)" stroke-width="1pt" fill="#e69900"><path id="path1214" d="M265.89 605.9v-7.086l17.577-17.717-3.544-3.543 10.63-10.63-3.543-3.543-7.087 7.086-3.543-3.543 24.803-24.803 3.543 3.543-3.543 3.544 7.304 7.159 17.499-17.789-17.793-17.24-7.01 6.61 3.543 3.543-3.543 3.543-24.803-24.803 3.543-3.543 7.087 7.087 3.543-3.544-10.63-10.63 3.544-3.543-17.577-17.716v-7.087l24.663 24.803-3.543 3.543 10.63 10.63-7.087 7.087 7.087 7.086 10.63-10.629L333.213 539l-24.943 24.381-10.63-10.63-7.087 7.087 7.087 7.086-10.63 10.63 3.543 3.543L265.89 605.9z" transform="translate(1.632 -54.921)"/><path id="path1215" d="M269.29 517.32l3.544 7.086v10.63h10.63l7.086 3.544-7.086 3.543h-10.63v10.63l-3.544 7.087v-42.52z" transform="translate(-1.771 -54.921)"/></g><g id="g1216" transform="matrix(-.375 0 0 .5 306.27 -61.12)" stroke-width="1pt" fill="#e69900"><path id="path1217" d="M265.89 605.9v-7.086l17.577-17.717-3.544-3.543 10.63-10.63-3.543-3.543-7.087 7.086-3.543-3.543 24.803-24.803 3.543 3.543-3.543 3.544 7.304 7.159 17.499-17.789-17.793-17.24-7.01 6.61 3.543 3.543-3.543 3.543-24.803-24.803 3.543-3.543 7.087 7.087 3.543-3.544-10.63-10.63 3.544-3.543-17.577-17.716v-7.087l24.663 24.803-3.543 3.543 10.63 10.63-7.087 7.087 7.087 7.086 10.63-10.629L333.213 539l-24.943 24.381-10.63-10.63-7.087 7.087 7.087 7.086-10.63 10.63 3.543 3.543L265.89 605.9z" transform="translate(1.632 -54.921)"/><path id="path1218" d="M269.29 517.32l3.544 7.086v10.63h10.63l7.086 3.544-7.086 3.543h-10.63v10.63l-3.544 7.087v-42.52z" transform="translate(-1.771 -54.921)"/></g><g id="g1219" transform="matrix(-.375 0 0 .5 305.83 23.919)" stroke-width="1pt" fill="#e69900"><path id="path1220" d="M265.89 605.9v-7.086l17.577-17.717-3.544-3.543 10.63-10.63-3.543-3.543-7.087 7.086-3.543-3.543 24.803-24.803 3.543 3.543-3.543 3.544 7.304 7.159 17.499-17.789-17.793-17.24-7.01 6.61 3.543 3.543-3.543 3.543-24.803-24.803 3.543-3.543 7.087 7.087 3.543-3.544-10.63-10.63 3.544-3.543-17.577-17.716v-7.087l24.663 24.803-3.543 3.543 10.63 10.63-7.087 7.087 7.087 7.086 10.63-10.629L333.213 539l-24.943 24.381-10.63-10.63-7.087 7.087 7.087 7.086-10.63 10.63 3.543 3.543L265.89 605.9z" transform="translate(1.632 -54.921)"/><path id="path1221" d="M269.29 517.32l3.544 7.086v10.63h10.63l7.086 3.544-7.086 3.543h-10.63v10.63l-3.544 7.087v-42.52z" transform="translate(-1.771 -54.921)"/></g><g id="g1222" transform="matrix(-.375 0 0 .5 305.83 103.64)" stroke-width="1pt" fill="#e69900"><path id="path1223" d="M265.89 605.9v-7.086l17.577-17.717-3.544-3.543 10.63-10.63-3.543-3.543-7.087 7.086-3.543-3.543 24.803-24.803 3.543 3.543-3.543 3.544 7.304 7.159 17.499-17.789-17.793-17.24-7.01 6.61 3.543 3.543-3.543 3.543-24.803-24.803 3.543-3.543 7.087 7.087 3.543-3.544-10.63-10.63 3.544-3.543-17.577-17.716v-7.087l24.663 24.803-3.543 3.543 10.63 10.63-7.087 7.087 7.087 7.086 10.63-10.629L333.213 539l-24.943 24.381-10.63-10.63-7.087 7.087 7.087 7.086-10.63 10.63 3.543 3.543L265.89 605.9z" transform="translate(1.632 -54.921)"/><path id="path1224" d="M269.29 517.32l3.544 7.086v10.63h10.63l7.086 3.544-7.086 3.543h-10.63v10.63l-3.544 7.087v-42.52z" transform="translate(-1.771 -54.921)"/></g><g id="g1230" transform="matrix(.75 0 0 1 46.063 0)" stroke-width="1pt" fill="#e69900"><path id="path1226" d="M265.89 605.9v-7.086l17.577-17.717-3.544-3.543 10.63-10.63-3.543-3.543-7.087 7.086-3.543-3.543 24.803-24.803 3.543 3.543-3.543 3.544 7.304 7.159 17.499-17.789 7.227-.001-24.943 24.804-10.63-10.63-7.087 7.087 7.087 7.086-10.63 10.63 3.543 3.543L265.89 605.9z" transform="matrix(.5 0 0 .5 -132.94 -269.29)"/><path id="path1227" d="M269.29 538.58h21.26l-7.086 3.543h-10.63v10.63l-3.544 7.087v-21.26z" transform="matrix(.5 0 0 .5 -134.64 -269.29)"/></g><g id="g1233" transform="matrix(-.75 0 0 1 205.51 0)" stroke-width="1pt" fill="#e69900"><path id="path1234" d="M265.89 605.9v-7.086l17.577-17.717-3.544-3.543 10.63-10.63-3.543-3.543-7.087 7.086-3.543-3.543 24.803-24.803 3.543 3.543-3.543 3.544 7.304 7.159 17.499-17.789 7.227-.001-24.943 24.804-10.63-10.63-7.087 7.087 7.087 7.086-10.63 10.63 3.543 3.543L265.89 605.9z" transform="matrix(.5 0 0 .5 -132.94 -269.29)"/><path id="path1235" d="M269.29 538.58h21.26l-7.086 3.543h-10.63v10.63l-3.544 7.087v-21.26z" transform="matrix(.5 0 0 .5 -134.64 -269.29)"/></g><path id="path1237" d="M63.64 485.46s11.048-14.584 38.891-19.003c27.842-4.42 32.704 9.723 48.613 9.723 15.91 0 41.101-9.723 41.101-9.723s-25.191 18.561-44.636 18.119c-19.446-.441-26.075-9.722-45.962-8.396-19.888 1.325-38.007 9.722-38.007 9.28z" transform="matrix(.51776 0 0 .6887 79.56 154.66)" stroke-width="1pt" fill="#e69900"/><path id="path1238" d="M63.64 485.46s11.048-14.584 38.891-19.003c27.842-4.42 32.704 9.723 48.613 9.723 15.91 0 41.101-9.723 41.101-9.723s-25.191 18.561-44.636 18.119c-19.446-.441-26.075-9.722-45.962-8.396-19.888 1.325-38.007 9.722-38.007 9.28z" transform="matrix(-.51776 0 0 .6887 173.29 154.66)" stroke-width="1pt" fill="#e69900"/><g id="g1245" transform="matrix(.75 0 0 1 46.063 0)" stroke-width="1pt" fill="#e69900"><path id="path1239" d="M256.77 423.14c-2.652-4.861-9.281-26.074-5.746-28.726 5.304-1.767 19.446 19.888 18.121 39.334-9.281 4.419-40.659-1.768-40.218-7.514 2.21-7.955 19.888-5.303 27.843-3.094z" transform="matrix(.6382 0 0 .54658 -101.02 241.1)"/><path id="path1240" d="M256.77 423.14c-2.652-4.861-9.281-26.074-5.746-28.726 5.304-1.767 19.446 19.888 18.121 39.334-9.281 4.419-40.659-1.768-40.218-7.514 2.21-7.955 19.888-5.303 27.843-3.094z" transform="matrix(.62445 .13174 -.11283 .53481 -61.849 202.12)"/><path id="path1241" d="M256.77 423.14c-2.652-4.861-9.281-26.074-5.746-28.726 5.304-1.767 19.446 19.888 18.121 39.334-9.281 4.419-40.659-1.768-40.218-7.514 2.21-7.955 19.888-5.303 27.843-3.094z" transform="matrix(.60441 .20491 -.1755 .51764 -40.019 179.26)"/><path id="path1242" d="M256.77 423.14c-2.652-4.861-9.281-26.074-5.746-28.726 5.304-1.767 19.446 19.888 18.121 39.334-9.281 4.419-40.659-1.768-40.218-7.514 2.21-7.955 19.888-5.303 27.843-3.094z" transform="matrix(.56534 .29612 -.25361 .48419 -4.69 157.92)"/><path id="path1243" d="M256.77 423.14c-2.652-4.861-9.281-26.074-5.746-28.726 5.304-1.767 19.446 19.888 18.121 39.334-9.281 4.419-40.659-1.768-40.218-7.514 2.21-7.955 19.888-5.303 27.843-3.094z" transform="matrix(.51695 .37425 -.32052 .44274 30.655 142.75)"/><path id="path1244" d="M259.25 409.98c26.536 7.115 24.649 14.722.771 24.058-9.281 4.419-40.659-1.768-40.218-7.514 2.21-7.955 28.997-18.64 39.447-16.544z" transform="matrix(.08466 .44011 -.38018 .12856 163.19 244.99)"/></g><g id="g1252" transform="matrix(-.75 0 0 1 206.07 1.326)" stroke-width="1pt" fill="#e69900"><path id="path1253" d="M256.77 423.14c-2.652-4.861-9.281-26.074-5.746-28.726 5.304-1.767 19.446 19.888 18.121 39.334-9.281 4.419-40.659-1.768-40.218-7.514 2.21-7.955 19.888-5.303 27.843-3.094z" transform="matrix(.6382 0 0 .54658 -101.02 241.1)"/><path id="path1254" d="M256.77 423.14c-2.652-4.861-9.281-26.074-5.746-28.726 5.304-1.767 19.446 19.888 18.121 39.334-9.281 4.419-40.659-1.768-40.218-7.514 2.21-7.955 19.888-5.303 27.843-3.094z" transform="matrix(.62445 .13174 -.11283 .53481 -61.849 202.12)"/><path id="path1255" d="M256.77 423.14c-2.652-4.861-9.281-26.074-5.746-28.726 5.304-1.767 19.446 19.888 18.121 39.334-9.281 4.419-40.659-1.768-40.218-7.514 2.21-7.955 19.888-5.303 27.843-3.094z" transform="matrix(.60441 .20491 -.1755 .51764 -40.019 179.26)"/><path id="path1256" d="M256.77 423.14c-2.652-4.861-9.281-26.074-5.746-28.726 5.304-1.767 19.446 19.888 18.121 39.334-9.281 4.419-40.659-1.768-40.218-7.514 2.21-7.955 19.888-5.303 27.843-3.094z" transform="matrix(.56534 .29612 -.25361 .48419 -4.69 157.92)"/><path id="path1257" d="M256.77 423.14c-2.652-4.861-9.281-26.074-5.746-28.726 5.304-1.767 19.446 19.888 18.121 39.334-9.281 4.419-40.659-1.768-40.218-7.514 2.21-7.955 19.888-5.303 27.843-3.094z" transform="matrix(.51695 .37425 -.32052 .44274 30.655 142.75)"/><path id="path1258" d="M259.25 409.98c26.536 7.115 24.649 14.722.771 24.058-9.281 4.419-40.659-1.768-40.218-7.514 2.21-7.955 28.997-18.64 39.447-16.544z" transform="matrix(.08466 .44011 -.38018 .12856 163.19 244.99)"/></g><g id="g2143" transform="matrix(.96875 0 0 1.2258 182.42 -74.639)"><path id="path1848" d="M-3.543 290.55h-5.315v3.543h-5.315v3.543h-21.26l-3.543 3.544 1.771 1.771h8.858l1.772-1.771h-8.858l1.772-1.772h12.402l-5.315 5.315h-12.402l-3.544-1.772-3.543 1.771-12.402.001-5.315-5.317 12.402.002 1.771 1.772-8.858-.002 1.772 1.773h8.858l1.772-1.771-3.544-3.544h-19.488v-3.543h-5.315v-3.543h-5.315v-15.945h5.315v-3.543h5.315v-3.543h19.488l3.544-3.544-1.772-1.771h-8.858l-1.772 1.773 8.858-.002-1.771 1.772-12.402.002 5.315-5.317 12.402.001 3.543 1.771 3.544-1.772h12.402l5.315 5.315h-12.402l-1.772-1.772h8.858l-1.772-1.771h-8.858l-1.771 1.771 3.543 3.544h21.26v3.543h5.315v3.543h5.315v15.945z" transform="matrix(1.4884 0 0 1.24 3.502 -39.474)" stroke="#000" stroke-width=".133" fill="#980000"/><path id="path560" d="M375.59 499.67v24.803h10.629v7.019h10.63v7.087h35.433l14.174 10.63 14.173-10.63h38.976v-7.019l10.63-.068v-7.087h10.63v-24.803h-10.63v-7.086l-10.63.068v-7.155h-38.976l-14.173-10.63-14.174 10.63h-35.433v7.155h-10.63v7.086H375.59z" transform="matrix(.74419 0 0 .62 -392.03 -6.521)" stroke="#e69900" stroke-width="1.422" fill="#004e00"/><path id="path561" d="M425.2 492.52l-21.26 17.716V492.52h21.26z" transform="matrix(.74419 0 0 .62 -392.03 -8.718)" stroke-width="1pt" fill="#980000"/><path id="path562" d="M425.2 492.52l-21.26 17.717V492.52h21.26z" transform="matrix(-.74419 0 0 .62 272.46 -8.718)" stroke-width="1pt" fill="#980000"/><path id="path563" d="M425.2 492.52l-21.26 17.716V492.52h21.26z" transform="matrix(.74419 0 0 -.62 -392.03 630.57)" stroke-width="1pt" fill="#980000"/><path id="path564" d="M425.2 492.52l-21.26 17.717V492.52h21.26z" transform="matrix(-.74418 0 0 -.62 272.46 630.57)" stroke-width="1pt" fill="#980000"/><path id="path565" d="M474.8 506.69l-7.086 7.087h14.173l-7.087-7.087z" transform="matrix(.74419 0 0 .62 -392.03 -10.915)" stroke-width="1pt" fill="#980000"/><path id="path566" d="M418.11 506.69l-7.086 7.087h14.173l-7.087-7.087z" transform="matrix(.74419 0 0 .62 -392.03 -10.915)" stroke-width="1pt" fill="#980000"/><path id="path567" d="M418.11 506.69l-7.086 7.087h14.173l-7.087-7.087z" transform="matrix(.74419 0 0 -.62 -392.03 632.77)" stroke-width="1pt" fill="#980000"/><path id="path568" d="M418.11 506.69l-7.086 7.087h14.173l-7.087-7.087z" transform="matrix(.74419 0 0 -.62 -349.84 632.77)" stroke-width="1pt" fill="#980000"/><path id="path569" d="M418.11 506.69l-7.086 7.087h14.173l-7.087-7.087z" transform="matrix(.74419 0 0 -.62 -370.94 643.75)" stroke-width="1pt" fill="#e69900"/><path id="path570" d="M418.11 506.69l-7.086 7.087h14.173l-7.087-7.087z" transform="matrix(.74419 0 0 -.62 -370.94 621.78)" stroke-width="1pt" fill="#e69900"/><path id="path571" d="M418.11 506.69l-7.086 7.087h14.173l-7.087-7.087z" transform="matrix(.74419 0 0 .62 -370.94 -21.899)" stroke-width="1pt" fill="#e69900"/><path id="path572" d="M418.11 506.69l-7.086 7.087h14.173l-7.087-7.087z" transform="matrix(.74419 0 0 .62 -370.94 .07)" stroke-width="1pt" fill="#e69900"/><path id="rect579" transform="matrix(.74419 0 0 .62 -392.03 -6.521)" stroke="#000" stroke-width=".133" fill="#e69900" d="M467.72 506.69h14.173v3.543H467.72z"/><path id="rect592" transform="matrix(.74419 0 0 .62 -392.03 -6.521)" stroke="#000" stroke-width=".133" fill="#c00" d="M414.57 510.24h7.087v3.543h-7.087z"/><path id="rect593" transform="matrix(.74419 0 0 .62 -392.03 -6.521)" stroke="#000" stroke-width=".133" fill="#c00" d="M471.26 510.24h7.087v3.543h-7.087z"/><path id="rect595" transform="matrix(.74419 0 0 .62 -392.03 -6.521)" stroke="#000" stroke-width=".133" fill="#900" d="M439.37 488.98h14.173v3.543H439.37z"/><path id="rect596" transform="matrix(.74419 0 0 .62 -392.03 -6.521)" stroke="#000" stroke-width=".133" fill="#900" d="M439.37 496.06h14.173v3.543H439.37z"/><path id="rect597" transform="matrix(.74419 0 0 .62 -392.03 -6.521)" stroke="#000" stroke-width=".133" fill="#900" d="M435.83 492.52h21.26v3.543h-21.26z"/><path id="rect598" transform="matrix(.74419 0 0 .62 -392.03 -6.521)" stroke="#000" stroke-width=".133" fill="#900" d="M439.37 524.41h14.173v3.543H439.37z"/><path id="rect599" transform="matrix(.74419 0 0 .62 -392.03 -6.521)" stroke="#000" stroke-width=".133" fill="#900" d="M439.37 531.5h14.173v3.543H439.37z"/><path id="rect600" transform="matrix(.74419 0 0 .62 -392.03 -6.521)" stroke="#000" stroke-width=".133" fill="#900" d="M435.83 527.95h21.26v3.543h-21.26z"/><path id="rect601" transform="matrix(.74419 0 0 .62 -392.03 -6.521)" stroke="#000" stroke-width=".133" fill="#e69900" d="M467.72 513.78h14.173v3.543H467.72z"/><path id="rect602" transform="matrix(.74419 0 0 .62 -392.03 -6.521)" stroke="#000" stroke-width=".133" fill="#e69900" d="M411.02 506.69h14.173v3.543H411.02z"/><path id="rect603" transform="matrix(.74419 0 0 .62 -392.03 -6.521)" stroke="#000" stroke-width=".133" fill="#e69900" d="M411.02 513.78h14.173v3.543H411.02z"/><path id="rect604" transform="matrix(.74419 0 0 .62 -392.03 -6.521)" stroke="#000" stroke-width=".133" fill="#e69900" d="M407.48 510.24h7.087v3.543h-7.087z"/><path id="rect605" transform="matrix(.74419 0 0 .62 -392.03 -6.521)" stroke="#000" stroke-width=".133" fill="#e69900" d="M421.65 510.24h7.087v3.543h-7.087z"/><path id="rect606" transform="matrix(.74419 0 0 .62 -392.03 -6.521)" stroke="#000" stroke-width=".133" fill="#e69900" d="M464.17 510.24h7.087v3.543h-7.087z"/><path id="rect607" transform="matrix(.74419 0 0 .62 -392.03 -6.521)" stroke="#000" stroke-width=".133" fill="#e69900" d="M478.35 510.24h7.087v3.543h-7.087z"/><ellipse id="path615" fill="#fff" transform="matrix(.74419 0 0 .62 -374.14 -38.912)" cx="413.68" rx=".886" cy="581.99" ry=".886" stroke-width="1pt"/><ellipse id="path616" fill="#fff" transform="matrix(.74419 0 0 .62 -367.57 -38.912)" cx="413.68" rx=".886" cy="581.99" ry=".886" stroke-width="1pt"/><ellipse id="path617" fill="#fff" transform="matrix(.74419 0 0 .62 -361 -38.958)" cx="413.68" rx=".886" cy="581.99" ry=".886" stroke-width="1pt"/><ellipse id="path618" fill="#fff" transform="matrix(.74419 0 0 .62 -371.51 -41.102)" cx="413.68" rx=".886" cy="581.99" ry=".886" stroke-width="1pt"/><ellipse id="path619" fill="#fff" transform="matrix(.74419 0 0 .62 -363.68 -41.148)" cx="413.68" rx=".886" cy="581.99" ry=".886" stroke-width="1pt"/><ellipse id="path620" fill="#fff" transform="matrix(.74419 0 0 .62 -371.57 -36.768)" cx="413.68" rx=".886" cy="581.99" ry=".886" stroke-width="1pt"/><ellipse id="path621" fill="#fff" transform="matrix(.74419 0 0 .62 -363.68 -36.677)" cx="413.68" rx=".886" cy="581.99" ry=".886" stroke-width="1pt"/><ellipse id="path622" fill="#fff" transform="matrix(.74419 0 0 .62 -353.17 -49.999)" cx="413.68" rx=".886" cy="581.99" ry=".886" stroke-width="1pt"/><ellipse id="path623" fill="#fff" transform="matrix(.74419 0 0 .62 -346.59 -49.999)" cx="413.68" rx=".886" cy="581.99" ry=".886" stroke-width="1pt"/><ellipse id="path624" fill="#fff" transform="matrix(.74419 0 0 .62 -340.02 -50.045)" cx="413.68" rx=".886" cy="581.99" ry=".886" stroke-width="1pt"/><ellipse id="path625" fill="#fff" transform="matrix(.74419 0 0 .62 -350.54 -52.189)" cx="413.68" rx=".886" cy="581.99" ry=".886" stroke-width="1pt"/><ellipse id="path626" fill="#fff" transform="matrix(.74419 0 0 .62 -342.71 -52.235)" cx="413.68" rx=".886" cy="581.99" ry=".886" stroke-width="1pt"/><ellipse id="path627" fill="#fff" transform="matrix(.74419 0 0 .62 -350.59 -47.855)" cx="413.68" rx=".886" cy="581.99" ry=".886" stroke-width="1pt"/><ellipse id="path628" fill="#fff" transform="matrix(.74419 0 0 .62 -342.71 -47.764)" cx="413.68" rx=".886" cy="581.99" ry=".886" stroke-width="1pt"/><ellipse id="path629" fill="#fff" transform="matrix(.74419 0 0 .62 -374.2 -60.904)" cx="413.68" rx=".886" cy="581.99" ry=".886" stroke-width="1pt"/><ellipse id="path630" fill="#fff" transform="matrix(.74419 0 0 .62 -367.62 -60.904)" cx="413.68" rx=".886" cy="581.99" ry=".886" stroke-width="1pt"/><ellipse id="path631" fill="#fff" transform="matrix(.74419 0 0 .62 -361.05 -60.949)" cx="413.68" rx=".886" cy="581.99" ry=".886" stroke-width="1pt"/><ellipse id="path632" fill="#fff" transform="matrix(.74419 0 0 .62 -371.57 -63.094)" cx="413.68" rx=".886" cy="581.99" ry=".886" stroke-width="1pt"/><ellipse id="path633" fill="#fff" transform="matrix(.74419 0 0 .62 -363.74 -63.139)" cx="413.68" rx=".886" cy="581.99" ry=".886" stroke-width="1pt"/><ellipse id="path634" fill="#fff" transform="matrix(.74419 0 0 .62 -371.62 -58.759)" cx="413.68" rx=".886" cy="581.99" ry=".886" stroke-width="1pt"/><ellipse id="path635" fill="#fff" transform="matrix(.74419 0 0 .62 -363.74 -58.668)" cx="413.68" rx=".886" cy="581.99" ry=".886" stroke-width="1pt"/><ellipse id="path636" fill="#fff" transform="matrix(.74419 0 0 .62 -395.28 -49.817)" cx="413.68" rx=".886" cy="581.99" ry=".886" stroke-width="1pt"/><ellipse id="path637" fill="#fff" transform="matrix(.74419 0 0 .62 -388.71 -49.817)" cx="413.68" rx=".886" cy="581.99" ry=".886" stroke-width="1pt"/><ellipse id="path638" fill="#fff" transform="matrix(.74419 0 0 .62 -382.14 -49.862)" cx="413.68" rx=".886" cy="581.99" ry=".886" stroke-width="1pt"/><ellipse id="path639" fill="#fff" transform="matrix(.74419 0 0 .62 -392.65 -52.007)" cx="413.68" rx=".886" cy="581.99" ry=".886" stroke-width="1pt"/><ellipse id="path640" fill="#fff" transform="matrix(.74419 0 0 .62 -384.82 -52.052)" cx="413.68" rx=".886" cy="581.99" ry=".886" stroke-width="1pt"/><ellipse id="path641" fill="#fff" transform="matrix(.74419 0 0 .62 -392.71 -47.672)" cx="413.68" rx=".886" cy="581.99" ry=".886" stroke-width="1pt"/><ellipse id="path642" fill="#fff" transform="matrix(.74419 0 0 .62 -384.82 -47.581)" cx="413.68" rx=".886" cy="581.99" ry=".886" stroke-width="1pt"/></g><g id="g1762" transform="matrix(1 0 0 1.1622 193.11 -34.284)"><path id="path1072" d="M-79.724 145.28l3.543 3.543 3.544-3.543h-7.087z" transform="matrix(1.24 0 0 -.49996 40.323 315.35)" stroke-width="1pt" fill="#fff"/><path id="path1071" d="M-79.724 145.28l3.543 3.543 3.544-3.543h-7.087z" transform="matrix(1.24 0 0 -.49996 27.142 315.35)" stroke-width="1pt" fill="#fff"/><path id="path1070" d="M-79.724 145.28l3.543 3.543 3.544-3.543h-7.087z" transform="matrix(1.24 0 0 -.49996 13.961 315.35)" stroke-width="1pt" fill="#fff"/><path id="path1069" d="M-79.724 145.28l3.543 3.543 3.544-3.543h-7.087z" transform="matrix(1.24 0 0 .49996 40.323 129.34)" stroke-width="1pt" fill="#fff"/><path id="path1068" d="M-79.724 145.28l3.543 3.543 3.544-3.543h-7.087z" transform="matrix(1.24 0 0 .49996 27.142 129.34)" stroke-width="1pt" fill="#fff"/><path id="path1067" d="M-79.724 145.28l3.543 3.543 3.544-3.543h-7.087z" transform="matrix(1.24 0 0 .49996 13.961 129.34)" stroke-width="1pt" fill="#fff"/><path id="path1057" d="M-83.268 219.68l-5.315-3.544-5.315 3.544-5.315-3.544-5.314 3.544v-1.771l3.543-1.773-1.772-1.771v-1.772h1.772l1.771 1.772 1.772-1.772h1.772v1.772l-1.772 1.771 3.543 1.772 3.544-1.772-1.772-1.771v-1.772h1.772l1.771 1.772 1.772-1.772h1.772v1.772l-1.772 1.771 3.543 1.772 3.544-1.771-1.772-1.772v-1.772h1.772l1.771 1.772 1.772-1.772h1.772v1.772l-1.772 1.772 3.543 1.772v1.771l-5.315-3.543-5.315 3.543z" transform="matrix(.96446 0 0 -.99994 18.111 467.7)" stroke-width="0" fill="#004e00"/><path id="path1056" d="M-83.268 219.68l-5.315-3.544-5.315 3.544-5.315-3.544-5.314 3.544v-1.771l3.543-1.773-1.772-1.771v-1.772h1.772l1.771 1.772 1.772-1.772h1.772v1.772l-1.772 1.771 3.543 1.772 3.544-1.772-1.772-1.771v-1.772h1.772l1.771 1.772 1.772-1.772h1.772v1.772l-1.772 1.771 3.543 1.772 3.544-1.771-1.772-1.772v-1.772h1.772l1.771 1.772 1.772-1.772h1.772v1.772l-1.772 1.772 3.543 1.772v1.771l-5.315-3.543-5.315 3.543z" transform="matrix(.96446 0 0 .99994 18.112 -23.018)" stroke-width="0" fill="#004e00"/><path id="path1055" d="M-83.268 219.68l-5.315-3.544-5.315 3.544-5.315-3.544-5.314 3.544v-1.771l3.543-1.773-1.772-1.771v-1.772h1.772l1.771 1.772 1.772-1.772h1.772v1.772l-1.772 1.771 3.543 1.772 3.544-1.772-1.772-1.771v-1.772h1.772l1.771 1.772 1.772-1.772h1.772v1.772l-1.772 1.771 3.543 1.772 3.544-1.771-1.772-1.772v-1.772h1.772l1.771 1.772 1.772-1.772h1.772v1.772l-1.772 1.772 3.543 1.772v1.771l-5.315-3.543-5.315 3.543z" transform="matrix(0 .72224 -1.5499 0 317.11 286.32)" stroke-width="0" fill="#004e00"/><path id="path1054" d="M-83.268 219.68l-5.315-3.544-5.315 3.544-5.315-3.544-5.314 3.544v-1.771l3.543-1.773-1.772-1.771v-1.772h1.772l1.771 1.772 1.772-1.772h1.772v1.772l-1.772 1.771 3.543 1.772 3.544-1.772-1.772-1.771v-1.772h1.772l1.771 1.772 1.772-1.772h1.772v1.772l-1.772 1.771 3.543 1.772 3.544-1.771-1.772-1.772v-1.772h1.772l1.771 1.772 1.772-1.772h1.772v1.772l-1.772 1.772 3.543 1.772v1.771l-5.315-3.543-5.315 3.543z" transform="matrix(0 .72224 1.5499 0 -451.75 286.32)" stroke-width="0" fill="#004e00"/><path id="rect1052" transform="matrix(1.24 0 0 1 11.764 24.803)" stroke="#000" stroke-width=".267" fill="#004e00" d="M-26.575 214.37h1.772v1.772h-1.772z"/><path id="rect1053" transform="matrix(1.24 0 0 1 11.764 24.803)" stroke="#000" stroke-width=".267" fill="#004e00" d="M-28.346 216.14h1.772v1.772h-1.772z"/><path id="rect1048" transform="matrix(1.24 0 0 1 11.764 24.803)" stroke="#000" stroke-width=".267" fill="#004e00" d="M-37.205 225h1.772v1.772h-1.772z"/><path id="rect1049" transform="matrix(1.24 0 0 1 11.764 24.803)" stroke="#000" stroke-width=".267" fill="#004e00" d="M-35.433 223.23h1.772v1.772h-1.772z"/><path id="rect1046" transform="matrix(1.24 0 0 1 11.764 24.803)" stroke="#000" stroke-width=".267" fill="#004e00" d="M-93.898 223.23h1.772v1.772h-1.772z"/><path id="rect1044" transform="matrix(1.24 0 0 1 11.764 24.803)" stroke="#000" stroke-width=".267" fill="#004e00" d="M-102.76 214.37h1.772v1.772h-1.772z"/><path id="rect1045" transform="matrix(1.24 0 0 1 11.764 24.803)" stroke="#000" stroke-width=".267" fill="#004e00" d="M-100.98 216.14h1.772v1.772h-1.772z"/><path id="rect1042" transform="matrix(1.24 0 0 1 11.764 24.803)" stroke="#000" stroke-width=".267" fill="#004e00" d="M-100.98 177.17h1.772v1.772h-1.772z"/><path id="rect1043" transform="matrix(1.24 0 0 1 11.764 24.803)" stroke="#000" stroke-width=".267" fill="#004e00" d="M-102.76 178.94h1.772v1.772h-1.772z"/><path id="rect1040" transform="matrix(1.24 0 0 1 11.764 24.803)" stroke="#000" stroke-width=".267" fill="#004e00" d="M-92.126 168.31h1.772v1.772h-1.772z"/><path id="rect1041" transform="matrix(1.24 0 0 1 11.764 24.803)" stroke="#000" stroke-width=".267" fill="#004e00" d="M-93.898 170.08h1.772v1.772h-1.772z"/><path id="rect1038" transform="matrix(1.24 0 0 1 11.764 24.803)" stroke="#000" stroke-width=".267" fill="#004e00" d="M-37.205 168.31h1.772v1.772h-1.772z"/><path id="rect1039" transform="matrix(1.24 0 0 1 11.764 24.803)" stroke="#000" stroke-width=".267" fill="#004e00" d="M-35.433 170.08h1.772v1.772h-1.772z"/><path id="rect1050" transform="matrix(1.24 0 0 1 11.764 24.803)" stroke="#000" stroke-width=".267" fill="#004e00" d="M-28.346 177.17h1.772v1.772h-1.772z"/><path id="rect1051" transform="matrix(1.24 0 0 1 11.764 24.803)" stroke="#000" stroke-width=".267" fill="#004e00" d="M-26.575 178.94h1.772v1.772h-1.772z"/><path id="rect1047" transform="matrix(1.24 0 0 1 11.764 24.803)" stroke="#000" stroke-width=".267" fill="#004e00" d="M-92.126 225h1.772v1.772h-1.772z"/><path id="path925" d="M423.42 278.15l-15.942-.002-.003-8.864 10.63.005v-8.312h10.63v-7.633h10.63v9.541c-8.802 0-15.945 6.463-15.945 15.265z" transform="matrix(.40618 0 0 .39281 -246.01 113.08)" stroke-width="1.25" fill="#fff"/><path id="path927" d="M423.42 278.15l-15.942-.002-.003-8.864 10.63.005v-8.312h10.63v-7.633h10.63v9.541c-8.802 0-15.945 6.463-15.945 15.265z" transform="matrix(-.40618 0 0 .39281 110.91 113.08)" stroke-width="1.25" fill="#e69900"/><path id="path928" d="M423.42 278.15l-15.942-.002-.003-8.864 10.63.005v-8.312h10.63v-7.633h10.63v9.541c-8.802 0-15.945 6.463-15.945 15.265z" transform="matrix(-.40618 0 0 -.39281 110.91 331.6)" stroke-width="1.25" fill="#fff"/><path id="path929" d="M423.42 278.15l-15.942-.002-.003-8.864 10.63.005v-8.312h10.63v-7.633h10.63v9.541c-8.802 0-15.945 6.463-15.945 15.265z" transform="matrix(.40618 0 0 -.39281 -246.01 331.6)" stroke-width="1.25" fill="#e69900"/><path id="path931" d="M437.6 273.72h-15.944v-15.059c8.801 0 15.944 6.747 15.944 15.059z" transform="matrix(.40618 0 0 .39819 -238.82 113.35)" stroke-width="1pt" fill="#004e00"/><path id="path932" d="M437.6 273.72h-15.944v-15.059c8.801 0 15.944 6.747 15.944 15.059z" transform="matrix(.40618 0 0 -.39819 -238.82 331.33)" stroke-width="1pt" fill="#980000"/><path id="path933" d="M437.6 273.72h-15.944v-15.059c8.801 0 15.944 6.747 15.944 15.059z" transform="matrix(-.40618 0 0 -.39819 103.72 331.33)" stroke-width="1pt" fill="#004e00"/><path id="path934" d="M437.6 273.72h-15.944v-15.059c8.801 0 15.944 6.747 15.944 15.059z" transform="matrix(-.40618 0 0 .39819 103.72 113.35)" stroke-width="1pt" fill="#980000"/><path id="path976" d="M-83.268 219.68l-5.315-3.544-5.315 3.544-5.315-3.544-5.314 3.544v-1.771l3.543-1.773-1.772-1.771v-1.772h1.772l1.771 1.772 1.772-1.772h1.772v1.772l-1.772 1.771 3.543 1.772 3.544-1.772-1.772-1.771v-1.772h1.772l1.771 1.772 1.772-1.772h1.772v1.772l-1.772 1.771 3.543 1.772 3.544-1.771-1.772-1.772v-1.772h1.772l1.771 1.772 1.772-1.772h1.772v1.772l-1.772 1.772 3.543 1.772v1.771l-5.315-3.543-5.315 3.543z" transform="matrix(1.24 0 0 1 42.52 24.804)" stroke-width="0" fill="#004e00"/><path id="path982" d="M-83.268 219.68l-5.315-3.544-5.315 3.544-5.315-3.544-5.314 3.544v-1.771l3.543-1.773-1.772-1.771v-1.772h1.772l1.771 1.772 1.772-1.772h1.772v1.772l-1.772 1.771 3.543 1.772 3.544-1.772-1.772-1.771v-1.772h1.772l1.771 1.772 1.772-1.772h1.772v1.772l-1.772 1.771 3.543 1.772 3.544-1.771-1.772-1.772v-1.772h1.772l1.771 1.772 1.772-1.772h1.772v1.772l-1.772 1.772 3.543 1.772v1.771l-5.315-3.543-5.315 3.543z" transform="matrix(1.24 0 0 -1 42.52 419.88)" stroke-width="0" fill="#004e00"/><path id="path983" d="M-83.268 219.68l-5.315-3.544-5.315 3.544-5.315-3.544-5.314 3.544v-1.771l3.543-1.773-1.772-1.771v-1.772h1.772l1.771 1.772 1.772-1.772h1.772v1.772l-1.772 1.771 3.543 1.772 3.544-1.772-1.772-1.771v-1.772h1.772l1.771 1.772 1.772-1.772h1.772v1.772l-1.772 1.771 3.543 1.772 3.544-1.771-1.772-1.772v-1.772h1.772l1.771 1.772 1.772-1.772h1.772v1.772l-1.772 1.772 3.543 1.772v1.771l-5.315-3.543-5.315 3.543z" transform="matrix(0 .83335 .93002 0 -240.88 296.16)" stroke-width="0" fill="#004e00"/><path id="path985" d="M-100.98 177.17l-7.087 7.086v26.575l7.087 7.087h31.889l7.087-7.087v-26.575l-7.087-7.086h-31.889zm-1.772-5.316l-17.717 17.716v15.945l17.717 17.717h35.433l17.716-17.717V189.57l-17.716-17.716h-35.433z" transform="matrix(1.24 0 0 1 38.127 24.804)" stroke="#000" stroke-width=".427" fill="#004e00"/><path id="path996" d="M-93.898 147.05l3.543 5.315 3.544-5.315h-7.087z" transform="matrix(.992 0 0 .66666 15.279 146.46)" stroke="#000" stroke-width=".267" fill="#e69900"/><path id="path1001" d="M-93.898 147.05l3.543 5.315 3.544-5.315h-7.087z" transform="matrix(.992 0 0 -.66666 15.279 298.23)" stroke="#000" stroke-width=".267" fill="#e69900"/><path id="path1002" d="M-93.898 147.05l3.543 5.315 3.544-5.315h-7.087z" transform="matrix(.992 0 0 -.66666 29.339 298.23)" stroke="#000" stroke-width=".267" fill="#e69900"/><path id="path997" d="M-93.898 147.05l3.543 5.315 3.544-5.315h-7.087z" transform="matrix(.992 0 0 .66666 29.339 146.46)" stroke="#000" stroke-width=".267" fill="#e69900"/><path id="path1007" d="M-93.898 147.05l3.543 5.315 3.544-5.315h-7.087z" transform="matrix(.992 0 0 -.66666 8.249 298.23)" stroke="#000" stroke-width=".267" fill="#980000"/><path id="path1008" d="M-93.898 147.05l3.543 5.315 3.544-5.315h-7.087z" transform="matrix(.992 0 0 -.66666 22.309 298.23)" stroke="#000" stroke-width=".267" fill="#980000"/><path id="path1009" d="M-93.898 147.05l3.543 5.315 3.544-5.315h-7.087z" transform="matrix(.992 0 0 -.66666 36.369 298.23)" stroke="#000" stroke-width=".267" fill="#980000"/><path id="path992" d="M-104.53 180.71l3.544-3.544h-3.544v3.544z" transform="matrix(1.8599 0 0 -1.4999 100.72 510.22)" stroke="#000" stroke-width=".267" fill="#980000"/><path id="path984" d="M-83.268 219.68l-5.315-3.544-5.315 3.544-5.315-3.544-5.314 3.544v-1.771l3.543-1.773-1.772-1.771v-1.772h1.772l1.771 1.772 1.772-1.772h1.772v1.772l-1.772 1.771 3.543 1.772 3.544-1.772-1.772-1.771v-1.772h1.772l1.771 1.772 1.772-1.772h1.772v1.772l-1.772 1.771 3.543 1.772 3.544-1.771-1.772-1.772v-1.772h1.772l1.771 1.772 1.772-1.772h1.772v1.772l-1.772 1.772 3.543 1.772v1.771l-5.315-3.543-5.315 3.543z" transform="matrix(0 .83335 -.93002 0 106.23 296.16)" stroke-width="0" fill="#004e00"/><path id="path1010" d="M-76.181 154.13h7.087l1.771 1.772-1.771 1.771h-7.087v-3.543z" transform="matrix(1.24 0 0 .90002 60.095 78.836)" stroke="#000" stroke-width=".267" fill="#980000"/><path id="path989" d="M-99.213 180.71l-3.543 3.544v26.575l3.543 3.543h-5.316l.001-33.662h5.315z" transform="matrix(1.24 0 0 1 29.339 24.804)" stroke="#000" stroke-width=".4" fill="#980000"/><path id="path998" d="M-93.898 147.05l3.543 5.315 3.544-5.315h-7.087z" transform="matrix(.992 0 0 .66666 8.249 146.46)" stroke="#000" stroke-width=".267" fill="#980000"/><path id="path999" d="M-93.898 147.05l3.543 5.315 3.544-5.315h-7.087z" transform="matrix(.992 0 0 .66666 22.309 146.46)" stroke="#000" stroke-width=".267" fill="#980000"/><path id="path1000" d="M-93.898 147.05l3.543 5.315 3.544-5.315h-7.087z" transform="matrix(.992 0 0 .66666 36.369 146.46)" stroke="#000" stroke-width=".267" fill="#980000"/><path id="path990" d="M-99.212 180.71l-3.544 3.544v26.575l3.544 3.543h-5.315V180.71h5.315z" transform="matrix(-1.24 0 0 1 -163.98 24.804)" stroke="#000" stroke-width=".4" fill="#980000"/><path id="path993" d="M-104.53 180.71l3.544-3.544h-3.544v3.544z" transform="matrix(-1.8599 0 0 -1.4999 -235.37 510.22)" stroke="#000" stroke-width=".267" fill="#980000"/><path id="path994" d="M-104.53 180.71l3.544-3.544h-3.544v3.544z" transform="matrix(-1.8599 0 0 1.4999 -235.37 -65.534)" stroke="#000" stroke-width=".267" fill="#980000"/><path id="path991" d="M-104.53 180.71l3.544-3.544h-3.544v3.544z" transform="matrix(1.8599 0 0 1.4999 100.72 -65.534)" stroke="#000" stroke-width=".267" fill="#980000"/><path id="path981" d="M-100.98 177.17l-7.087 7.086v26.575l7.087 7.087h31.889l7.087-7.087v-26.575l-7.087-7.086h-31.889zm-.001-1.773l-8.858 8.858v26.575l8.859 8.858h31.889l8.858-8.858v-26.575l-8.859-8.858h-31.889z" transform="matrix(1.24 0 0 1 38.127 24.804)" stroke="#000" stroke-width=".427" fill="#004e00"/><path id="path1011" d="M-76.181 154.13h7.087l1.771 1.772-1.771 1.771h-7.087v-3.543z" transform="matrix(1.24 0 0 .90008 60.094 82.014)" stroke="#000" stroke-width=".267" fill="#e69900"/><path id="path1012" d="M-76.181 154.13h7.087l1.771 1.772-1.771 1.771h-7.087v-3.543z" transform="matrix(1.24 0 0 .90002 60.095 85.214)" stroke="#000" stroke-width=".267" fill="#980000"/><path id="path1013" d="M-76.181 154.13h7.087l1.771 1.772-1.771 1.771h-7.087v-3.543z" transform="matrix(1.24 0 0 .90008 60.095 88.392)" stroke="#000" stroke-width=".267" fill="#e69900"/><path id="path1025" d="M-76.181 154.13h7.087l1.771 1.772-1.771 1.771h-7.087v-3.543z" transform="matrix(1.24 0 0 .90008 60.095 75.636)" stroke="#000" stroke-width=".267" fill="#e69900"/><path id="path1027" d="M-76.181 154.13h7.087l1.771 1.772-1.771 1.771h-7.087v-3.543z" transform="matrix(-1.24 0 0 .90002 -194.74 78.836)" stroke="#000" stroke-width=".267" fill="#980000"/><path id="path1028" d="M-76.181 154.13h7.087l1.771 1.772-1.771 1.771h-7.087v-3.543z" transform="matrix(-1.24 0 0 .90008 -194.74 82.015)" stroke="#000" stroke-width=".267" fill="#e69900"/><path id="path1029" d="M-76.181 154.13h7.087l1.771 1.772-1.771 1.771h-7.087v-3.543z" transform="matrix(-1.24 0 0 .90002 -194.74 85.214)" stroke="#000" stroke-width=".267" fill="#980000"/><path id="path1030" d="M-76.181 154.13h7.087l1.771 1.772-1.771 1.771h-7.087v-3.543z" transform="matrix(-1.24 0 0 .90008 -194.74 88.393)" stroke="#000" stroke-width=".267" fill="#e69900"/><path id="path1031" d="M-76.181 154.13h7.087l1.771 1.772-1.771 1.771h-7.087v-3.543z" transform="matrix(-1.24 0 0 .90008 -194.74 75.637)" stroke="#000" stroke-width=".267" fill="#e69900"/><path id="path1037" d="M-100.98 178.94v37.205h8.858v8.858h56.693v-8.858h8.858V178.94h-8.858v-8.858h-56.693v8.858h-8.858zm1.771 1.772v33.661h8.859v8.858h53.15v-8.858h8.858v-33.661H-37.2v-8.859h-53.15v8.859h-8.859z" transform="matrix(1.24 0 0 1 11.764 24.803)" stroke="#000" stroke-width=".267" fill="#970000"/></g><g id="g3017" transform="matrix(1.1481 0 0 1.1176 217.32 -7.816)"><path id="path2276" d="M-28.347 69.094l-5.315-7.087v-5.315l-5.315-5.314h-10.63l-8.858-5.315h-28.346l-8.859 5.315h-10.63l-5.315 5.315v5.315l-5.315 7.086v14.173l5.315 7.087v5.315l5.315 5.315h10.63l8.859 5.315h28.346l8.858-5.316h10.63l5.315-5.314v-5.315l5.315-7.087V69.093z" transform="matrix(1.08 0 0 1 -1.276 -24.803)" stroke="#000" stroke-width=".267" fill="#980000"/><path id="path1003" d="M345.47 251.58v5.315l5.315 7.086v5.315l5.315 5.315h10.63l8.859 5.315h12.402l-.001-28.346h-42.52z" transform="matrix(1.08 0 0 1 -498.74 -200.2)" stroke-width="1pt" fill="#e69900"/><path id="path2255" d="M328.36 268.9l-8.416 7.965h-5.027l1.676 2.654-3.351 5.31 1.675 2.655 5.027-2.655 1.676 2.655.774-7.094 9.28-8.397-3.314-3.093z" transform="matrix(.83045 0 0 .572 -368.56 -90.034)" stroke-width="1pt" fill="#980000"/><path id="path2256" d="M328.36 268.9l-8.416 7.965h-5.027l1.676 2.654-3.351 5.31 1.675 2.655 5.027-2.655 1.676 2.655.774-7.094 9.28-8.397-3.314-3.093z" transform="matrix(.83045 0 0 .572 -376.21 -93.577)" stroke-width="1pt" fill="#980000"/><path id="path2257" d="M328.36 268.9l-8.416 7.965h-5.027l1.676 2.654-3.351 5.31 1.675 2.655 5.027-2.655 1.676 2.655.774-7.094 9.28-8.397-3.314-3.093z" transform="matrix(.83045 0 0 .572 -380.04 -100.66)" stroke-width="1pt" fill="#980000"/><path id="path1004" d="M345.47 251.58v5.315l5.315 7.086v5.315l5.315 5.315h10.63l8.859 5.315h12.402l-.001-28.346h-42.52z" transform="matrix(-1.08 0 0 -1 339.29 302.96)" stroke-width="1pt" fill="#e69900"/><path id="path3007" d="M-72.638 47.835h3.28l3.807 3.543h6.036l3.281 1.772-1.64 1.772-3.281-1.772h-3.28l-3.282 5.315-4.921-1.772V53.15h4.921l-4.921-5.315z" transform="matrix(-1.08 0 0 -1 -158.17 127.56)" stroke-width="1pt" fill="#980000"/><path id="path1005" d="M345.47 251.58v5.315l5.315 7.086v5.315l5.315 5.315h10.63l8.859 5.315h12.402l-.001-28.346h-42.52z" transform="matrix(1.08 0 0 -1 -498.74 302.96)" stroke-width="1pt" fill="#fff"/><path id="path3008" d="M-72.638 47.835h3.28l3.807 3.543h6.036l3.281 1.772-1.64 1.772-3.281-1.772h-3.28l-3.282 5.315-4.921-1.772V53.15h4.921l-4.921-5.315z" transform="matrix(-1.08 0 0 1 -158.17 -24.804)" stroke-width="1pt" fill="#980000"/><path id="path3009" d="M-72.638 47.835h3.28l3.807 3.543h6.036l3.281 1.772-1.64 1.772-3.281-1.772h-3.28l-3.282 5.315-4.921-1.772V53.15h4.921l-4.921-5.315z" transform="matrix(1.08 0 0 1 -1.275 -24.804)" stroke-width="1pt" fill="#980000"/><path id="path1006" d="M345.47 251.58v5.315l5.315 7.086v5.315l5.315 5.315h10.63l8.859 5.315h12.402l-.001-28.346h-42.52z" transform="matrix(-1.08 0 0 1 339.29 -200.2)" stroke-width="1pt" fill="#fff"/><path id="path2265" d="M-72.638 47.835h3.28l3.807 3.543h6.036l3.281 1.772-1.64 1.772-3.281-1.772h-3.28l-3.282 5.315-4.921-1.772V53.15h4.921l-4.921-5.315z" transform="matrix(1.08 0 0 -1 -1.275 127.56)" stroke-width="1pt" fill="#980000"/><path id="path2253" d="M328.36 268.9l-8.416 7.965h-5.027l1.676 2.654-3.351 5.31 1.675 2.655 5.027-2.655 1.676 2.655.774-7.094 9.28-8.397-3.314-3.093z" transform="matrix(.83045 0 0 -.572 -376.21 196.33)" stroke-width="1pt" fill="#980000"/><path id="path2247" d="M328.36 268.9l-8.416 7.965h-5.027l1.676 2.654-3.351 5.31 1.675 2.655 5.027-2.655 1.676 2.655.774-7.094 9.28-8.397-3.314-3.093z" transform="matrix(-.83045 0 0 -.572 209.11 192.79)" stroke-width="1pt" fill="#980000"/><path id="path2252" d="M328.36 268.9l-8.416 7.965h-5.027l1.676 2.654-3.351 5.31 1.675 2.655 5.027-2.655 1.676 2.655.774-7.094 9.28-8.397-3.314-3.093z" transform="matrix(.83045 0 0 -.572 -368.56 192.79)" stroke-width="1pt" fill="#980000"/><path id="path2254" d="M328.36 268.9l-8.416 7.965h-5.027l1.676 2.654-3.351 5.31 1.675 2.655 5.027-2.655 1.676 2.655.774-7.094 9.28-8.397-3.314-3.093z" transform="matrix(.83045 0 0 -.572 -380.04 203.42)" stroke-width="1pt" fill="#980000"/><path id="path3004" d="M334.75 269.29h1.555l1.554 1.635 1.554-1.635 32.636-.001v22.895h-1.554l1.554 1.636v1.635l-4.662-4.906v-1.635h1.554v1.635h1.554v-1.635l-12.619-7.223h-10.63v-7.087l-4.725-3.679h-3.108l-1.554 1.635 1.554 1.636h-1.554l-3.109-4.906z" transform="matrix(1.14 0 0 1.0834 -503.85 -240.36)" stroke-width="0" fill="#fff"/><path id="path3005" d="M334.75 269.29h1.555l1.554 1.635 1.554-1.635 32.636-.001v22.895h-1.554l1.554 1.636v1.635l-4.662-4.906v-1.635h1.554v1.635h1.554v-1.635l-12.619-7.223h-10.63v-7.087l-4.725-3.679h-3.108l-1.554 1.635 1.554 1.636h-1.554l-3.109-4.906z" transform="matrix(1.14 0 0 -1.0834 -503.85 343.12)" stroke-width="0" fill="#e69900"/><path id="path1015" d="M340.16 269.29h31.89v21.26l-14.173-8.858h-10.63v-7.087l-7.087-5.315z" transform="matrix(1.08 0 0 1 -481.53 -217.92)" stroke-width="0" fill="#004e00"/><path id="path2250" d="M328.36 268.9l-8.416 7.965h-5.027l1.676 2.654-3.351 5.31 1.675 2.655 5.027-2.655 1.676 2.655.774-7.094 9.28-8.397-3.314-3.093z" transform="matrix(-.83045 0 0 -.572 216.76 196.33)" stroke-width="1pt" fill="#980000"/><path id="path2251" d="M328.36 268.9l-8.416 7.965h-5.027l1.676 2.654-3.351 5.31 1.675 2.655 5.027-2.655 1.676 2.655.774-7.094 9.28-8.397-3.314-3.093z" transform="matrix(-.83045 0 0 -.572 220.59 203.42)" stroke-width="1pt" fill="#980000"/><path id="path1016" d="M334.75 269.29h1.555l1.554 1.635 1.554-1.635 32.636-.001v22.895h-1.554l1.554 1.636v1.635l-4.662-4.906v-1.635h1.554v1.635h1.554v-1.635l-12.619-7.223h-10.63v-7.087l-4.725-3.679h-3.108l-1.554 1.635 1.554 1.636h-1.554l-3.109-4.906z" transform="matrix(-1.14 0 0 -1.0834 344.4 343.12)" stroke-width="0" fill="#fff"/><path id="path1017" d="M340.16 269.29h31.89v21.26l-14.173-8.858h-10.63v-7.087l-7.087-5.315z" transform="matrix(-1.08 0 0 -1 322.08 320.68)" stroke-width="0" fill="#004e00"/><path id="path2258" d="M328.36 268.9l-8.416 7.965h-5.027l1.676 2.654-3.351 5.31 1.675 2.655 5.027-2.655 1.676 2.655.774-7.094 9.28-8.397-3.314-3.093z" transform="matrix(-.83045 0 0 .572 209.11 -90.034)" stroke-width="1pt" fill="#980000"/><path id="path2259" d="M328.36 268.9l-8.416 7.965h-5.027l1.676 2.654-3.351 5.31 1.675 2.655 5.027-2.655 1.676 2.655.774-7.094 9.28-8.397-3.314-3.093z" transform="matrix(-.83045 0 0 .572 216.76 -93.577)" stroke-width="1pt" fill="#980000"/><path id="path2260" d="M328.36 268.9l-8.416 7.965h-5.027l1.676 2.654-3.351 5.31 1.675 2.655 5.027-2.655 1.676 2.655.774-7.094 9.28-8.397-3.314-3.093z" transform="matrix(-.83045 0 0 .572 220.59 -100.66)" stroke-width="1pt" fill="#980000"/><path id="path3003" d="M334.75 269.29h1.555l1.554 1.635 1.554-1.635 32.636-.001v22.895h-1.554l1.554 1.636v1.635l-4.662-4.906v-1.635h1.554v1.635h1.554v-1.635l-12.619-7.223h-10.63v-7.087l-4.725-3.679h-3.108l-1.554 1.635 1.554 1.636h-1.554l-3.109-4.906z" transform="matrix(-1.14 0 0 1.0834 344.4 -240.36)" stroke-width="0" fill="#e69900"/><path id="path1019" d="M340.16 269.29h31.89v21.26l-14.173-8.858h-10.63v-7.087l-7.087-5.315z" transform="matrix(-1.08 0 0 1 322.08 -217.92)" stroke-width="0" fill="#980000"/><path id="path1021" d="M340.16 269.29h31.89v21.26l-14.173-8.858h-10.63v-7.087l-7.087-5.315z" transform="matrix(1.08 0 0 -1 -481.53 320.68)" stroke-width="0" fill="#980000"/><path id="path1023" d="M328.36 268.9l-8.416 7.965h-5.027l1.676 2.654-3.351 5.31 1.675 2.655 5.027-2.655 1.676 2.655.774-7.094 9.28-8.397-3.314-3.093z" transform="matrix(-1.1419 0 0 -.66735 299.01 230.83)" stroke-width="1pt" fill="#980000"/><path id="path2244" d="M328.36 268.9l-8.416 7.965h-5.027l1.676 2.654-3.351 5.31 1.675 2.655 5.027-2.655 1.676 2.655.774-7.094 9.28-8.397-3.314-3.093z" transform="matrix(1.1419 0 0 .66735 -458.46 -128.08)" stroke-width="1pt" fill="#980000"/><path id="path2245" d="M328.36 268.9l-8.416 7.965h-5.027l1.676 2.654-3.351 5.31 1.675 2.655 5.027-2.655 1.676 2.655.774-7.094 9.28-8.397-3.314-3.093z" transform="matrix(1.1419 0 0 -.66735 -458.46 230.83)" stroke-width="1pt" fill="#004e00"/><path id="path2246" d="M328.36 268.9l-8.416 7.965h-5.027l1.676 2.654-3.351 5.31 1.675 2.655 5.027-2.655 1.676 2.655.774-7.094 9.28-8.397-3.314-3.093z" transform="matrix(-1.1419 0 0 .66735 299.01 -128.08)" stroke-width="1pt" fill="#004e00"/><path id="path1026" d="M311.81 217.91l8.858-5.315 8.859 5.315-8.859 5.315-8.858-5.315z" transform="matrix(1.296 0 0 1.6667 -495.31 -311.81)" stroke-width="1.246" fill="#fff"/><path id="path3010" d="M-66.076 53.15l-1.64-1.772 1.64-1.771h1.64l4.922 7.086h-1.64l-3.282-5.315h-1.64l1.64 1.772-1.64 1.772h-3.28V53.15h3.28z" transform="matrix(-1.08 0 0 -1 -188.29 108.07)" stroke-width="1pt" fill="#980000"/><path id="path3012" d="M-66.076 53.15l-1.64-1.772 1.64-1.771h1.64l4.922 7.086h-1.64l-3.282-5.315h-1.64l1.64 1.772-1.64 1.772h-3.28V53.15h3.28z" transform="matrix(-1.08 0 0 1 -188.29 -5.315)" stroke-width="1pt" fill="#980000"/><path id="path3013" d="M-66.076 53.15l-1.64-1.772 1.64-1.771h1.64l4.922 7.086h-1.64l-3.282-5.315h-1.64l1.64 1.772-1.64 1.772h-3.28V53.15h3.28z" transform="matrix(1.08 0 0 -1 28.843 108.07)" stroke-width="1pt" fill="#980000"/><path id="path3014" d="M-66.076 53.15l-1.64-1.772 1.64-1.771h1.64l4.922 7.086h-1.64l-3.282-5.315h-1.64l1.64 1.772-1.64 1.772h-3.28V53.15h3.28z" transform="matrix(1.08 0 0 1 28.843 -5.315)" stroke-width="1pt" fill="#980000"/><path id="rect3015" stroke-width="1pt" fill="#980000" d="M-81.496 44.291h3.543v14.173h-3.543z"/><path id="rect3016" stroke-width="1pt" fill="#980000" d="M-86.811 47.835h14.173v7.087h-14.173z"/></g><g id="g3091" transform="translate(267.52 -5.315)"><path id="path1088" d="M333.07 170.08l-10.63 5.315v8.858l10.63 5.315h10.63l10.63-5.315v-8.858l-10.63-5.315h-10.63z" transform="matrix(3.4444 0 0 3.7273 -1307.3 -277.83)" stroke="#000" stroke-width=".07" fill="#004e00"/><path id="path1101" d="M302.95 233.86h1.771v-5.315h3.544v5.315h1.771v-12.401h-1.771v5.315h-3.544v-5.315h-1.771v12.401z" transform="matrix(1.2501 0 0 .76401 -561.78 210.59)" stroke-width="1pt" fill="#c00"/><path id="path1103" d="M302.95 233.86h1.771v-5.315h3.544v5.315h1.771v-12.401h-1.771v5.315h-3.544v-5.315h-1.771v12.401z" transform="matrix(1.2501 0 0 .76401 -505.68 242.17)" stroke-width="1pt" fill="#c00"/><path id="path1104" d="M302.95 233.86h1.771v-5.315h3.544v5.315h1.771v-12.401h-1.771v5.315h-3.544v-5.315h-1.771v12.401z" transform="matrix(1.2501 0 0 .76401 -541.11 194.8)" stroke-width="1pt" fill="#c00"/><path id="path1105" d="M302.95 233.86h1.771v-5.315h3.544v5.315h1.771v-12.401h-1.771v5.315h-3.544v-5.315h-1.771v12.401z" transform="matrix(1.2501 0 0 .76401 -508.63 194.8)" stroke-width="1pt" fill="#c00"/><path id="path1106" d="M302.95 233.86h1.771v-5.315h3.544v5.315h1.771v-12.401h-1.771v5.315h-3.544v-5.315h-1.771v12.401z" transform="matrix(1.2501 0 0 .76401 -487.97 210.59)" stroke-width="1pt" fill="#c00"/><path id="path1107" d="M302.95 233.86h1.771v-5.315h3.544v5.315h1.771v-12.401h-1.771v5.315h-3.544v-5.315h-1.771v12.401z" transform="matrix(1.2501 0 0 .76401 -487.97 226.38)" stroke-width="1pt" fill="#c00"/><path id="path868" d="M-205.51 345.47v38.977h53.15V366.73l-35.433-21.26h-17.717z" transform="matrix(1 0 0 -.8913 63.779 735.08)" stroke-width="1pt" fill="#e69900"/><path id="path869" d="M-205.51 345.47v38.977h53.15V366.73l-35.433-21.26h-17.717z" transform="matrix(-1 0 0 .8913 -347.24 49.76)" stroke-width="1pt" fill="#e69900"/><path id="path866" d="M-205.51 345.47v38.977h53.15V366.73l-35.433-21.26h-17.717z" transform="matrix(1 0 0 .8913 63.779 49.76)" stroke-width="1pt" fill="#fff"/><path id="path870" d="M-205.51 345.47l.001 38.976 53.149.001V366.73l-35.433-21.26h-17.717z" transform="matrix(-1 0 0 -.8913 -347.24 735.08)" stroke-width="1pt" fill="#fff"/><path id="path864" d="M-177.16 368.5h21.259l-21.259-10.63v10.63zm24.803-1.772l-.001 17.717h-33.661v-14.173h-7.086l-8.858-5.315v-12.402l5.314-5.315h-7.086v17.717h-1.772v-19.489h17.717l35.433 21.26z" transform="matrix(1 0 0 .8913 63.779 49.761)" stroke="#000" stroke-width=".133" fill="#e69900"/><path id="path1089" d="M333.07 176.72v6.2h1.594l3.721 1.772 3.721-1.772h1.594v-6.2h-1.594l-3.721-1.772-3.721 1.772h-1.594z" transform="matrix(3.3333 0 0 3.5653 -1269.7 -248.7)" stroke-width=".625" fill="#980000"/><path id="path871" d="M-177.16 368.5h21.259l-21.259-10.63v10.63zm24.803-1.772l-.001 17.717h-33.661v-14.173h-7.086l-8.858-5.315v-12.402l5.314-5.315h-7.086v17.717h-1.772v-19.489h17.717l35.433 21.26z" transform="matrix(-1 0 0 -.8913 -347.24 735.08)" stroke="#000" stroke-width=".133" fill="#e69900"/><path id="path872" d="M-177.16 368.5h21.259l-21.259-10.63v10.63zm24.803-1.772l-.001 17.717h-33.661v-14.173h-7.086l-8.858-5.315v-12.402l5.314-5.315h-7.086v17.717h-1.772v-19.489h17.717l35.433 21.26z" transform="matrix(-1 0 0 .8913 -347.24 49.761)" stroke="#000" stroke-width=".133" fill="#fff"/><path id="path873" d="M-177.16 368.5h21.259l-21.259-10.63v10.63zm24.803-1.772l-.001 17.717h-33.661v-14.173h-7.086l-8.858-5.315v-12.402l5.314-5.315h-7.086v17.717h-1.772v-19.489h17.717l35.433 21.26z" transform="matrix(1 0 0 -.8913 63.78 735.08)" stroke="#000" stroke-width=".133" fill="#fff"/><path id="path1102" d="M302.95 233.86h1.771v-5.315h3.544v5.315h1.771v-12.401h-1.771v5.315h-3.544v-5.315h-1.771v12.401z" transform="matrix(1.2501 0 0 .89135 -562.96 196.61)" stroke-width="1pt" fill="#980000"/><path id="path1100" d="M302.95 233.86h1.771v-5.315h3.544v5.315h1.771v-12.401h-1.771v5.315h-3.544v-5.315h-1.771v12.401z" transform="matrix(1.2501 0 0 .89135 -541.71 212.4)" stroke-width="1pt" fill="#980000"/><path id="path874" d="M302.95 233.86h1.771v-5.315h3.544v5.315h1.771v-12.401h-1.771v5.315h-3.544v-5.315h-1.771v12.401z" transform="matrix(1.2501 0 0 -.89134 -562.96 588.24)" stroke-width="1pt" fill="#980000"/><path id="path876" d="M302.95 233.86h1.771v-5.315h3.544v5.315h1.771v-12.401h-1.771v5.315h-3.544v-5.315h-1.771v12.401z" transform="matrix(1.2501 0 0 -.89135 -541.71 572.45)" stroke-width="1pt" fill="#980000"/><path id="path877" d="M302.95 233.86h1.771v-5.315h3.544v5.315h1.771v-12.401h-1.771v5.315h-3.544v-5.315h-1.771v12.401z" transform="matrix(1.2501 0 0 .89135 -508.04 212.4)" stroke-width="1pt" fill="#980000"/><path id="path878" d="M302.95 233.86h1.771v-5.315h3.544v5.315h1.771v-12.401h-1.771v5.315h-3.544v-5.315h-1.771v12.401z" transform="matrix(1.2501 0 0 .89135 -486.78 182.39)" stroke-width="1pt" fill="#980000"/><path id="path880" d="M302.95 233.86h1.771v-5.315h3.544v5.315h1.771v-12.401h-1.771v5.315h-3.544v-5.315h-1.771v12.401z" transform="matrix(1.2501 0 0 .89135 -508.04 212.4)" stroke-width="1pt" fill="#980000"/><path id="path881" d="M302.95 233.86h1.771v-5.315h3.544v5.315h1.771v-12.401h-1.771v5.315h-3.544v-5.315h-1.771v12.401z" transform="matrix(1.2501 0 0 .89135 -508.04 212.4)" stroke-width="1pt" fill="#980000"/><path id="path882" d="M302.95 233.86h1.771v-5.315h3.544v5.315h1.771v-12.401h-1.771v5.315h-3.544v-5.315h-1.771v12.401z" transform="matrix(1.2501 0 0 .89135 -486.78 196.6)" stroke-width="1pt" fill="#980000"/><path id="path892" d="M302.95 233.86h1.771v-5.315h3.544v5.315h1.771v-12.401h-1.771v5.315h-3.544v-5.315h-1.771v12.401z" transform="matrix(1.2501 0 0 .89135 -508.04 166.6)" stroke-width="1pt" fill="#980000"/><path id="path3090" d="M-154.13 334.84l7.087-7.088h3.543v3.543h-3.543v1.772h5.314v-7.086l-5.314-.001v-5.314h-7.087v5.314h1.772v-3.544h3.543v3.544l-7.086 7.087-7.087-7.086v-3.543h3.543v3.543h1.772v-5.315l-7.087.001v5.314h-5.315v7.088h5.315v-1.772h-3.544v-3.544h3.544l7.087 7.086-7.087 7.086h-3.543v-3.543h3.543v-1.772h-5.314v7.087h5.314v5.314l7.087.002v-5.316h-1.771v3.544h-3.543v-3.544l7.085-7.086 7.088 7.088v3.543h-3.543v-3.543h-1.772v5.314h7.086v-5.314l5.315-.002v-7.086h-5.315v1.772h3.544v3.544h-3.544l-7.087-7.087z" transform="matrix(1 0 0 .81248 14.173 120.37)" stroke-width="1.247" fill="#004e00"/></g><g id="g3152" transform="matrix(1 0 0 .92857 198.43 17.59)"><path id="path701" d="M372.05 391.54l3.544-3.543h21.259l15.945-15.946h21.26l15.945 15.945h21.26l3.543 3.543-3.543 3.544h-21.26l-15.945 15.945h-21.26l-15.945-15.945h-21.259l-3.544-3.543z" transform="matrix(.96774 0 0 1.0526 -482.4 -277.85)" stroke-width="1pt" fill="#980000"/><path id="path3151" d="M372.05 391.54l1.903-1.949h22.834l17.126-19.489h19.029l17.126 19.489h22.835l1.903 1.949-1.903 1.948h-22.835l-15.223 17.54h-22.834l-15.224-17.54h-22.834l-1.903-1.948z" transform="matrix(.93104 0 0 .90908 -466.86 -221.29)" stroke="#000" stroke-width=".29" fill="#980000"/><path id="path713" d="M428.74 354.33l7.087 7.086-3.543 3.543-1.772-1.772h-1.771v1.772l1.771 1.772h3.544l3.543-3.544v-3.543l-7.086-7.086 7.086-7.087v-3.543l-3.543-3.543h-3.543l-1.772 1.771v1.772h1.772l1.771-1.772 3.543 3.544-7.086 7.086-7.087-7.086 7.087-7.087v-1.771h-1.772l-7.086 7.086-7.087-7.087h-1.772v1.771l7.087 7.087-7.087 7.087-7.087-7.086 3.543-3.544 1.772 1.772h1.772v-1.772l-1.772-1.771h-3.543l-3.544 3.543v3.543l7.087 7.087-7.087 7.087v3.543l3.544 3.543h3.543l1.772-1.771v-1.772h-1.772l-1.772 1.772-3.543-3.544 7.087-7.086 7.086 7.086-7.086 7.087-.001 1.772h1.772l7.087-7.087 7.087 7.087h1.771v-1.772l-7.086-7.087 7.086-7.086zm-8.858-8.859l-7.087 7.087 7.087 7.087 7.087-7.087-7.087-7.087z" transform="matrix(.96774 0 0 1.0526 -478.98 -236.82)" stroke-width="0" fill="#e69900"/><path id="path714" d="M412.8 411.02v14.173l1.772-1.772 1.772 1.772 1.771-1.772 1.772 1.772 1.772-1.772 1.771 1.772 1.772-1.772 1.772 1.772 1.771-1.772 1.772 1.772 1.771-1.772 1.772 1.772V411.02H412.8z" transform="matrix(.96774 0 0 1.0526 -482.4 -277.85)" stroke-width="1pt" fill="#e69900"/><path id="path715" d="M412.8 411.02v14.173l1.772-1.772 1.772 1.772 1.771-1.772 1.772 1.772 1.772-1.772 1.771 1.772 1.772-1.772 1.772 1.772 1.771-1.772 1.772 1.772 1.771-1.772 1.772 1.772V411.02H412.8z" transform="matrix(-.96774 0 0 -1.0526 337.13 546.43)" stroke-width="1pt" fill="#e69900"/><path id="path716" d="M419.88 411.02v14.173l1.772-1.772 1.771 1.772 1.772-1.772 1.772 1.772 1.771-1.772 1.772 1.772 1.771-1.772 1.772 1.772V411.02H419.88z" transform="matrix(-.96774 0 0 -1.0526 373.13 563.22)" stroke-width="1pt" fill="#e69900"/><path id="path717" d="M419.88 411.02v14.173l1.772-1.772 1.771 1.772 1.772-1.772 1.772 1.772 1.771-1.772 1.772 1.772 1.771-1.772 1.772 1.772V411.02H419.88z" transform="matrix(-.96774 0 0 -1.0526 307.98 563.22)" stroke-width="1pt" fill="#e69900"/><path id="path718" d="M419.88 411.02v14.173l1.772-1.772 1.771 1.772 1.772-1.772 1.772 1.772 1.771-1.772 1.772 1.772 1.771-1.772 1.772 1.772V411.02H419.88z" transform="matrix(-.96774 0 0 1.0526 373.13 -294.63)" stroke-width="1pt" fill="#e69900"/><path id="path719" d="M419.88 411.02v14.173l1.772-1.772 1.771 1.772 1.772-1.772 1.772 1.772 1.771-1.772 1.772 1.772 1.771-1.772 1.772 1.772V411.02H419.88z" transform="matrix(-.96774 0 0 1.0526 307.98 -294.63)" stroke-width="1pt" fill="#e69900"/><path id="path721" d="M412.8 411.02l-.001 8.858 1.772-1.772 1.772 1.772 1.771-1.772 1.772 1.772 1.772-1.772 1.771 1.772 1.772-1.772 1.771 1.772 1.772-1.772v-23.031L412.8 411.02z" transform="matrix(.96774 0 0 1.0526 -461.83 -277.85)" stroke-width="1pt" fill="#004e00"/><path id="path722" d="M412.8 411.02v8.859l1.772-1.772 1.772 1.772 1.771-1.772 1.772 1.772 1.772-1.772 1.771 1.772 1.772-1.772 1.771 1.772 1.772-1.772-.001-23.032L412.8 411.02z" transform="matrix(-.96774 0 0 1.0526 316.55 -277.85)" stroke-width="1pt" fill="#004e00"/><path id="path723" d="M412.8 411.02l-.001 8.858 1.772-1.772 1.772 1.772 1.771-1.772 1.772 1.772 1.772-1.772 1.771 1.772 1.772-1.772 1.771 1.772 1.772-1.772v-23.031L412.8 411.02z" transform="matrix(-.96774 0 0 -1.0526 316.55 546.43)" stroke-width="1pt" fill="#004e00"/><path id="path724" d="M412.8 411.02l-.001 8.858 1.772-1.772 1.772 1.772 1.771-1.772 1.772 1.772 1.772-1.772 1.771 1.772 1.772-1.772 1.771 1.772 1.772-1.772v-23.031L412.8 411.02z" transform="matrix(.96774 0 0 -1.0526 -461.83 546.43)" stroke-width="1pt" fill="#004e00"/><path id="path740" d="M380.9 414.57l-1.772-1.772-1.77 1.772-1.772-1.772-1.772 1.772-1.772-1.772-1.772 1.772-1.77-1.772-1.772 1.772-.001-28.347 1.772 1.772 1.771-1.772 1.772 1.772 1.771-1.772 1.772 1.772 1.772-1.772 1.771 1.772 1.772-1.772v10.631h-7.086l-3.544 3.543 3.544 3.543h7.086v10.63z" transform="matrix(.96774 0 0 1.0526 -480.69 -287.17)" stroke-width="1pt" fill="#004e00"/><path id="path741" d="M380.9 414.57l-1.772-1.772-1.77 1.772-1.772-1.772-1.772 1.772-1.772-1.772-1.772 1.772-1.77-1.772-1.772 1.772-.001-28.347 1.772 1.772 1.771-1.772 1.772 1.772 1.771-1.772 1.772 1.772 1.772-1.772 1.771 1.772 1.772-1.772v10.631h-7.086l-3.544 3.543 3.544 3.543h7.086v10.63z" transform="matrix(-.96774 0 0 1.0526 335.41 -287.17)" stroke-width="1pt" fill="#004e00"/><path id="path745" d="M357.87 396.85s-3.543 3.544-3.543 5.315c-.07 1.652 3.779 5.354 5.315 5.315 2.007.039 5.315-3.543 5.315-5.315 0-1.771-3.544-5.315-3.544-5.315v-7.086s7.696 12.183 7.696 6.868c0-3.812-7.696-10.412-7.696-10.412h-3.543s-7.696 7.727-7.696 10.412c0 5.315 7.696-6.868 7.696-6.868v7.086z" transform="matrix(.40322 0 0 .41595 -235.66 -9.092)" stroke-width="1pt" fill="#fff"/><path id="path753" d="M357.87 396.85s-3.543 3.544-3.543 5.315c-.07 1.652 3.779 5.354 5.315 5.315 2.007.039 5.315-3.543 5.315-5.315 0-1.771-3.544-5.315-3.544-5.315v-7.086s6.276 11.593 6.276 6.278c0-3.437-6.276-9.822-6.276-9.822h-3.543s-7.244 7.994-6.275 9.821c0 5.315 6.275-6.277 6.275-6.277v7.086z" transform="matrix(.48387 0 0 .58233 -246.66 -69.429)" stroke-width="1pt" fill="#980000"/><ellipse id="path758" fill="#004e00" transform="matrix(.96774 0 0 1.0526 -482.4 -277.85)" cx="403.94" rx="3.543" cy="391.54" ry="1.772" stroke-width="1pt"/><ellipse id="path759" fill="#004e00" transform="matrix(.96774 0 0 1.0526 -463.54 -277.85)" cx="403.94" rx="3.543" cy="391.54" ry="1.772" stroke-width="1pt"/><ellipse id="path760" fill="#004e00" transform="matrix(.96774 0 0 1.0526 -444.69 -277.85)" cx="403.94" rx="3.543" cy="391.54" ry="1.772" stroke-width="1pt"/><path id="path1819" d="M357.87 396.85s-3.543 3.544-3.543 5.315c-.07 1.652 3.779 5.354 5.315 5.315 2.007.039 5.315-3.543 5.315-5.315 0-1.771-3.544-5.315-3.544-5.315v-7.086s7.696 12.183 7.696 6.868c0-3.812-7.696-10.412-7.696-10.412h-3.543s-7.696 7.727-7.696 10.412c0 5.315 7.696-6.868 7.696-6.868v7.086z" transform="matrix(.40322 0 0 -.41595 -236.02 277.83)" stroke-width="1pt" fill="#fff"/><path id="path1820" d="M357.87 396.85s-3.543 3.544-3.543 5.315c-.07 1.652 3.779 5.354 5.315 5.315 2.007.039 5.315-3.543 5.315-5.315 0-1.771-3.544-5.315-3.544-5.315v-7.086s6.276 11.593 6.276 6.278c0-3.437-6.276-9.822-6.276-9.822h-3.543s-7.244 7.994-6.275 9.821c0 5.315 6.275-6.277 6.275-6.277v7.086z" transform="matrix(.48387 0 0 -.58233 -247.02 338.16)" stroke-width="1pt" fill="#980000"/><path id="path1821" d="M357.87 396.85s-3.543 3.544-3.543 5.315c-.07 1.652 3.779 5.354 5.315 5.315 2.007.039 5.315-3.543 5.315-5.315 0-1.771-3.544-5.315-3.544-5.315v-7.086s7.696 12.183 7.696 6.868c0-3.812-7.696-10.412-7.696-10.412h-3.543s-7.696 7.727-7.696 10.412c0 5.315 7.696-6.868 7.696-6.868v7.086z" transform="matrix(.40322 0 0 .41595 -199.16 -9.092)" stroke-width="1pt" fill="#fff"/><path id="path1822" d="M357.87 396.85s-3.543 3.544-3.543 5.315c-.07 1.652 3.779 5.354 5.315 5.315 2.007.039 5.315-3.543 5.315-5.315 0-1.771-3.544-5.315-3.544-5.315v-7.086s7.696 12.183 7.696 6.868c0-3.812-7.696-10.412-7.696-10.412h-3.543s-7.696 7.727-7.696 10.412c0 5.315 7.696-6.868 7.696-6.868v7.086z" transform="matrix(.40322 0 0 -.41595 -199.52 277.83)" stroke-width="1pt" fill="#fff"/><path id="path1823" d="M357.87 396.85s-3.543 3.544-3.543 5.315c-.07 1.652 3.779 5.354 5.315 5.315 2.007.039 5.315-3.543 5.315-5.315 0-1.771-3.544-5.315-3.544-5.315v-7.086s6.276 11.593 6.276 6.278c0-3.437-6.276-9.822-6.276-9.822h-3.543s-7.244 7.994-6.275 9.821c0 5.315 6.275-6.277 6.275-6.277v7.086z" transform="matrix(.53608 0 0 .39023 -298.12 -9.27)" stroke-width="1pt" fill="#980000"/><path id="path1824" d="M357.87 396.85s-3.543 3.544-3.543 5.315c-.07 1.652 3.779 5.354 5.315 5.315 2.007.039 5.315-3.543 5.315-5.315 0-1.771-3.544-5.315-3.544-5.315v-7.086s6.276 11.593 6.276 6.278c0-3.437-6.276-9.822-6.276-9.822h-3.543s-7.244 7.994-6.275 9.821c0 5.315 6.275-6.277 6.275-6.277v7.086z" transform="matrix(.53608 0 0 -.39022 -298.52 279.33)" stroke-width="1pt" fill="#980000"/><path id="path1825" d="M357.87 396.85s-3.543 3.544-3.543 5.315c-.07 1.652 3.779 5.354 5.315 5.315 2.007.039 5.315-3.543 5.315-5.315 0-1.771-3.544-5.315-3.544-5.315v-7.086s6.276 11.593 6.276 6.278c0-3.437-6.276-9.822-6.276-9.822h-3.543s-7.244 7.994-6.275 9.821c0 5.315 6.275-6.277 6.275-6.277v7.086z" transform="matrix(.53608 0 0 .39023 -232.27 -9.712)" stroke-width="1pt" fill="#980000"/><path id="path1826" d="M357.87 396.85s-3.543 3.544-3.543 5.315c-.07 1.652 3.779 5.354 5.315 5.315 2.007.039 5.315-3.543 5.315-5.315 0-1.771-3.544-5.315-3.544-5.315v-7.086s6.276 11.593 6.276 6.278c0-3.437-6.276-9.822-6.276-9.822h-3.543s-7.244 7.994-6.275 9.821c0 5.315 6.275-6.277 6.275-6.277v7.086z" transform="matrix(.53608 0 0 -.39022 -232.67 278.89)" stroke-width="1pt" fill="#980000"/><path id="path1827" d="M354.98 396.41c-1.526 3.07-1.123 4.474-1.123 6.245-.071 1.652 4.256 4.868 5.792 4.829 2.007.039 5.315-3.543 5.315-5.315 0-1.771.084-3.301-.738-6.355l-2.215 5.178c-2.689-7.346-2.835-7.517-4.431.178l-2.6-4.76z" transform="matrix(.40322 0 0 -.41595 -263.42 310.25)" stroke-width="1pt" fill="#fff"/><path id="path1828" d="M354.98 396.41c-1.526 3.07-1.123 4.474-1.123 6.245-.071 1.652 4.256 4.868 5.792 4.829 2.007.039 5.315-3.543 5.315-5.315 0-1.771.084-3.301-.738-6.355l-2.215 5.178c-2.689-7.346-2.835-7.517-4.431.178l-2.6-4.76z" transform="matrix(.40322 0 0 .41595 -263.36 -40.956)" stroke-width="1pt" fill="#fff"/><path id="path1829" d="M354.98 396.41c-1.526 3.07-1.123 4.474-1.123 6.245-.071 1.652 4.256 4.868 5.792 4.829 2.007.039 5.315-3.543 5.315-5.315 0-1.771.084-3.301-.738-6.355l-2.215 5.178c-2.689-7.346-2.835-7.517-4.431.178l-2.6-4.76z" transform="matrix(.40322 0 0 -.41595 -170.94 309.98)" stroke-width="1pt" fill="#fff"/><path id="path1830" d="M354.98 396.41c-1.526 3.07-1.123 4.474-1.123 6.245-.071 1.652 4.256 4.868 5.792 4.829 2.007.039 5.315-3.543 5.315-5.315 0-1.771.084-3.301-.738-6.355l-2.215 5.178c-2.689-7.346-2.835-7.517-4.431.178l-2.6-4.76z" transform="matrix(.40322 0 0 .41595 -170.89 -41.232)" stroke-width="1pt" fill="#fff"/><path id="path1835" d="M115.16 177.16v-5.315H99.216v-10.63H85.043v-3.543H72.641v-31.89h12.402v-3.543h14.173v-10.63h15.944v-5.315h21.26v5.315h15.945v10.63h14.173v3.543h12.402v31.89h-12.402v3.543h-14.173v10.63H136.42v5.315h-21.26zm-1.772 1.772v-5.315H97.444v-10.63H83.271v-3.543H70.869v-35.433h12.402v-3.544h14.173v-10.63h15.945v-5.315h24.803v5.315h15.945v10.63h14.173v3.544h12.402v35.433H168.31v3.543h-14.173v10.63h-15.945v5.315h-24.804z" transform="matrix(1 0 0 .99999 -198.43 -7.085)" stroke="#000" stroke-width=".133" fill="#980000"/></g></g></g></svg>