<svg id="svg378" xmlns="http://www.w3.org/2000/svg" height="480" width="640" version="1"><defs id="defs380"><clipPath id="clipPath5219"><path id="rect5221" fill-opacity=".67" d="M-85.333 0h682.67v512h-682.67z"/></clipPath></defs><g id="flag" fill-rule="evenodd" clip-path="url(#clipPath5219)" transform="translate(80) scale(.9375)"><path id="rect171" stroke-width="1pt" fill="#e70013" d="M-128 0h768v512h-768z"/><path id="path554" d="M485.97 255.06c0 67.28-54.541 121.82-121.82 121.82-67.28 0-121.82-54.541-121.82-121.82 0-67.28 54.541-121.82 121.82-121.82 67.28 0 121.82 54.541 121.82 121.82z" transform="matrix(1.06 0 0 1.06 -129.32 -14.591)" fill="#fff"/><path id="path556" d="M256.68 341.41c-47.27 0-85.635-38.364-85.635-85.635s38.364-85.636 85.635-85.636c11.818 0 25.27 2.719 34.407 9.43-62.63 2.357-78.472 55.477-78.472 76.885s10.128 69.154 78.471 76.205c-7.777 5.013-22.588 8.75-34.406 8.75z" stroke-width="1pt" fill="#e70013"/><path id="polygon559" transform="translate(-128) scale(1.0321)" stroke-width="1pt" fill="#e70013" d="M445.8 282.71l-37.68-13.74-24.92 31.41 1.43-40.07-37.58-14 38.56-11.02 1.69-40.07 22.4 33.27 38.63-10.77-24.71 31.58z"/></g></svg>