<svg id="svg153" xmlns="http://www.w3.org/2000/svg" height="480" width="640"><desc id="desc3">The United States of America flag, produced by Daniel McRae</desc><defs id="defs155"><clipPath id="clipPath4819"><path id="rect4821" fill-opacity=".67" d="M0 0h682.67v512H0z"/></clipPath></defs><g id="flag" fill-rule="evenodd" clip-path="url(#clipPath4819)" transform="scale(.9375)"><g id="g390" stroke-width="1pt" transform="scale(3.9385)"><g id="g169" fill="#bd3d44"><path id="rect156" d="M0 0h247v10H0z"/><path id="rect158" d="M0 20h247v10H0z"/><path id="rect160" d="M0 40h247v10H0z"/><path id="rect162" d="M0 60h247v10H0z"/><path id="rect164" d="M0 80h247v10H0z"/><path id="rect166" d="M0 100h247v10H0z"/><path id="rect168" d="M0 120h247v10H0z"/></g><g id="g177" fill="#fff"><path id="rect157" d="M0 10h247v10H0z"/><path id="rect159" d="M0 30h247v10H0z"/><path id="rect161" d="M0 50h247v10H0z"/><path id="rect163" d="M0 70h247v10H0z"/><path id="rect165" d="M0 90h247v10H0z"/><path id="rect167" d="M0 110h247v10H0z"/></g></g><path id="rect200" stroke-width="1pt" fill="#192f5d" d="M0 0h389.12v275.69H0z"/><g id="g274" fill="#fff" transform="scale(3.9385)"><g id="g218"><g id="g194"><path id="polygon207" transform="translate(8.233 7)" d="M0-4.004l.899 2.767h2.909L1.455.473l.898 2.766L0 1.53l-2.353 1.71.899-2.766-2.354-1.71h2.909z"/><path id="polygon188" transform="translate(24.7 7)" d="M0-4.004l.899 2.767h2.909L1.455.473l.898 2.766L0 1.53l-2.353 1.71.899-2.766-2.354-1.71h2.909z"/><path id="polygon189" transform="translate(41.167 7)" d="M0-4.004l.899 2.767h2.909L1.455.473l.898 2.766L0 1.53l-2.353 1.71.899-2.766-2.354-1.71h2.909z"/><path id="polygon190" transform="translate(57.633 7)" d="M0-4.004l.899 2.767h2.909L1.455.473l.898 2.766L0 1.53l-2.353 1.71.899-2.766-2.354-1.71h2.909z"/><path id="polygon191" transform="translate(74.1 7)" d="M0-4.004l.899 2.767h2.909L1.455.473l.898 2.766L0 1.53l-2.353 1.71.899-2.766-2.354-1.71h2.909z"/><path id="polygon192" transform="translate(90.567 7)" d="M0-4.004l.899 2.767h2.909L1.455.473l.898 2.766L0 1.53l-2.353 1.71.899-2.766-2.354-1.71h2.909z"/></g><g id="g205"><path id="polygon193" transform="translate(16.467 14)" d="M0-4.004l.899 2.767h2.909L1.455.473l.898 2.766L0 1.53l-2.353 1.71.899-2.766-2.354-1.71h2.909z"/><path id="polygon201" transform="translate(32.933 14)" d="M0-4.004l.899 2.767h2.909L1.455.473l.898 2.766L0 1.53l-2.353 1.71.899-2.766-2.354-1.71h2.909z"/><path id="polygon202" transform="translate(49.4 14)" d="M0-4.004l.899 2.767h2.909L1.455.473l.898 2.766L0 1.53l-2.353 1.71.899-2.766-2.354-1.71h2.909z"/><path id="polygon203" transform="translate(65.867 14)" d="M0-4.004l.899 2.767h2.909L1.455.473l.898 2.766L0 1.53l-2.353 1.71.899-2.766-2.354-1.71h2.909z"/><path id="polygon204" transform="translate(82.333 14)" d="M0-4.004l.899 2.767h2.909L1.455.473l.898 2.766L0 1.53l-2.353 1.71.899-2.766-2.354-1.71h2.909z"/></g></g><g id="g232" transform="translate(0 14)"><g id="g233"><path id="polygon234" transform="translate(8.233 7)" d="M0-4.004l.899 2.767h2.909L1.455.473l.898 2.766L0 1.53l-2.353 1.71.899-2.766-2.354-1.71h2.909z"/><path id="polygon235" transform="translate(24.7 7)" d="M0-4.004l.899 2.767h2.909L1.455.473l.898 2.766L0 1.53l-2.353 1.71.899-2.766-2.354-1.71h2.909z"/><path id="polygon236" transform="translate(41.167 7)" d="M0-4.004l.899 2.767h2.909L1.455.473l.898 2.766L0 1.53l-2.353 1.71.899-2.766-2.354-1.71h2.909z"/><path id="polygon237" transform="translate(57.633 7)" d="M0-4.004l.899 2.767h2.909L1.455.473l.898 2.766L0 1.53l-2.353 1.71.899-2.766-2.354-1.71h2.909z"/><path id="polygon238" transform="translate(74.1 7)" d="M0-4.004l.899 2.767h2.909L1.455.473l.898 2.766L0 1.53l-2.353 1.71.899-2.766-2.354-1.71h2.909z"/><path id="polygon239" transform="translate(90.567 7)" d="M0-4.004l.899 2.767h2.909L1.455.473l.898 2.766L0 1.53l-2.353 1.71.899-2.766-2.354-1.71h2.909z"/></g><g id="g240"><path id="polygon241" transform="translate(16.467 14)" d="M0-4.004l.899 2.767h2.909L1.455.473l.898 2.766L0 1.53l-2.353 1.71.899-2.766-2.354-1.71h2.909z"/><path id="polygon242" transform="translate(32.933 14)" d="M0-4.004l.899 2.767h2.909L1.455.473l.898 2.766L0 1.53l-2.353 1.71.899-2.766-2.354-1.71h2.909z"/><path id="polygon243" transform="translate(49.4 14)" d="M0-4.004l.899 2.767h2.909L1.455.473l.898 2.766L0 1.53l-2.353 1.71.899-2.766-2.354-1.71h2.909z"/><path id="polygon244" transform="translate(65.867 14)" d="M0-4.004l.899 2.767h2.909L1.455.473l.898 2.766L0 1.53l-2.353 1.71.899-2.766-2.354-1.71h2.909z"/><path id="polygon245" transform="translate(82.333 14)" d="M0-4.004l.899 2.767h2.909L1.455.473l.898 2.766L0 1.53l-2.353 1.71.899-2.766-2.354-1.71h2.909z"/></g></g><g id="g246" transform="translate(0 28)"><g id="g247"><path id="polygon248" transform="translate(8.233 7)" d="M0-4.004l.899 2.767h2.909L1.455.473l.898 2.766L0 1.53l-2.353 1.71.899-2.766-2.354-1.71h2.909z"/><path id="polygon249" transform="translate(24.7 7)" d="M0-4.004l.899 2.767h2.909L1.455.473l.898 2.766L0 1.53l-2.353 1.71.899-2.766-2.354-1.71h2.909z"/><path id="polygon250" transform="translate(41.167 7)" d="M0-4.004l.899 2.767h2.909L1.455.473l.898 2.766L0 1.53l-2.353 1.71.899-2.766-2.354-1.71h2.909z"/><path id="polygon251" transform="translate(57.633 7)" d="M0-4.004l.899 2.767h2.909L1.455.473l.898 2.766L0 1.53l-2.353 1.71.899-2.766-2.354-1.71h2.909z"/><path id="polygon252" transform="translate(74.1 7)" d="M0-4.004l.899 2.767h2.909L1.455.473l.898 2.766L0 1.53l-2.353 1.71.899-2.766-2.354-1.71h2.909z"/><path id="polygon253" transform="translate(90.567 7)" d="M0-4.004l.899 2.767h2.909L1.455.473l.898 2.766L0 1.53l-2.353 1.71.899-2.766-2.354-1.71h2.909z"/></g><g id="g254"><path id="polygon255" transform="translate(16.467 14)" d="M0-4.004l.899 2.767h2.909L1.455.473l.898 2.766L0 1.53l-2.353 1.71.899-2.766-2.354-1.71h2.909z"/><path id="polygon256" transform="translate(32.933 14)" d="M0-4.004l.899 2.767h2.909L1.455.473l.898 2.766L0 1.53l-2.353 1.71.899-2.766-2.354-1.71h2.909z"/><path id="polygon257" transform="translate(49.4 14)" d="M0-4.004l.899 2.767h2.909L1.455.473l.898 2.766L0 1.53l-2.353 1.71.899-2.766-2.354-1.71h2.909z"/><path id="polygon258" transform="translate(65.867 14)" d="M0-4.004l.899 2.767h2.909L1.455.473l.898 2.766L0 1.53l-2.353 1.71.899-2.766-2.354-1.71h2.909z"/><path id="polygon259" transform="translate(82.333 14)" d="M0-4.004l.899 2.767h2.909L1.455.473l.898 2.766L0 1.53l-2.353 1.71.899-2.766-2.354-1.71h2.909z"/></g></g><g id="g260" transform="translate(0 42)"><g id="g261"><path id="polygon262" transform="translate(8.233 7)" d="M0-4.004l.899 2.767h2.909L1.455.473l.898 2.766L0 1.53l-2.353 1.71.899-2.766-2.354-1.71h2.909z"/><path id="polygon263" transform="translate(24.7 7)" d="M0-4.004l.899 2.767h2.909L1.455.473l.898 2.766L0 1.53l-2.353 1.71.899-2.766-2.354-1.71h2.909z"/><path id="polygon264" transform="translate(41.167 7)" d="M0-4.004l.899 2.767h2.909L1.455.473l.898 2.766L0 1.53l-2.353 1.71.899-2.766-2.354-1.71h2.909z"/><path id="polygon265" transform="translate(57.633 7)" d="M0-4.004l.899 2.767h2.909L1.455.473l.898 2.766L0 1.53l-2.353 1.71.899-2.766-2.354-1.71h2.909z"/><path id="polygon266" transform="translate(74.1 7)" d="M0-4.004l.899 2.767h2.909L1.455.473l.898 2.766L0 1.53l-2.353 1.71.899-2.766-2.354-1.71h2.909z"/><path id="polygon267" transform="translate(90.567 7)" d="M0-4.004l.899 2.767h2.909L1.455.473l.898 2.766L0 1.53l-2.353 1.71.899-2.766-2.354-1.71h2.909z"/></g><g id="g268"><path id="polygon269" transform="translate(16.467 14)" d="M0-4.004l.899 2.767h2.909L1.455.473l.898 2.766L0 1.53l-2.353 1.71.899-2.766-2.354-1.71h2.909z"/><path id="polygon270" transform="translate(32.933 14)" d="M0-4.004l.899 2.767h2.909L1.455.473l.898 2.766L0 1.53l-2.353 1.71.899-2.766-2.354-1.71h2.909z"/><path id="polygon271" transform="translate(49.4 14)" d="M0-4.004l.899 2.767h2.909L1.455.473l.898 2.766L0 1.53l-2.353 1.71.899-2.766-2.354-1.71h2.909z"/><path id="polygon272" transform="translate(65.867 14)" d="M0-4.004l.899 2.767h2.909L1.455.473l.898 2.766L0 1.53l-2.353 1.71.899-2.766-2.354-1.71h2.909z"/><path id="polygon273" transform="translate(82.333 14)" d="M0-4.004l.899 2.767h2.909L1.455.473l.898 2.766L0 1.53l-2.353 1.71.899-2.766-2.354-1.71h2.909z"/></g></g><g id="g211" transform="translate(0 56)"><path id="polygon212" transform="translate(8.233 7)" d="M0-4.004l.899 2.767h2.909L1.455.473l.898 2.766L0 1.53l-2.353 1.71.899-2.766-2.354-1.71h2.909z"/><path id="polygon213" transform="translate(24.7 7)" d="M0-4.004l.899 2.767h2.909L1.455.473l.898 2.766L0 1.53l-2.353 1.71.899-2.766-2.354-1.71h2.909z"/><path id="polygon214" transform="translate(41.167 7)" d="M0-4.004l.899 2.767h2.909L1.455.473l.898 2.766L0 1.53l-2.353 1.71.899-2.766-2.354-1.71h2.909z"/><path id="polygon215" transform="translate(57.633 7)" d="M0-4.004l.899 2.767h2.909L1.455.473l.898 2.766L0 1.53l-2.353 1.71.899-2.766-2.354-1.71h2.909z"/><path id="polygon216" transform="translate(74.1 7)" d="M0-4.004l.899 2.767h2.909L1.455.473l.898 2.766L0 1.53l-2.353 1.71.899-2.766-2.354-1.71h2.909z"/><path id="polygon217" transform="translate(90.567 7)" d="M0-4.004l.899 2.767h2.909L1.455.473l.898 2.766L0 1.53l-2.353 1.71.899-2.766-2.354-1.71h2.909z"/></g></g></g></svg>