<svg id="svg548" xmlns="http://www.w3.org/2000/svg" height="480" width="640"><defs id="defs550"><clipPath id="clipPath3415"><path id="rect3417" fill-opacity=".67" d="M0 0h640v480H0z"/></clipPath></defs><g id="flag" fill-rule="evenodd" clip-path="url(#clipPath3415)"><path id="rect568" stroke-width="1pt" fill="#fff" d="M0 0h960v480H0z"/><path id="rect558" stroke-width="1pt" fill="#94acd4" d="M0 0h960v166.14H0z"/><path id="rect555" stroke-width="1pt" fill="#b73000" d="M0 155.14h960v11.005H0z"/><path id="rect557" stroke-width="1pt" fill="#00a900" d="M0 324.86h960V480H0z"/><path id="rect556" stroke-width="1pt" fill="#b73000" d="M0 324.86h960v11.005H0z"/><path id="polygon561" transform="matrix(.89301 0 0 .89794 69.068 -66.212)" stroke-width="1pt" fill="#feffff" d="M205.58 128.74l-10.01-6.85-9.91 7.01 3.42-11.64-9.72-7.25 12.12-.35 3.89-11.495 4.08 11.425 12.13.15-9.6 7.41z"/><path id="polygon562" transform="matrix(.89301 0 0 .89794 26.91 16.736)" stroke-width="1pt" fill="#feffff" d="M205.58 128.74l-10.01-6.85-9.91 7.01 3.42-11.64-9.72-7.25 12.12-.35 3.89-11.495 4.08 11.425 12.13.15-9.6 7.41z"/><path id="polygon563" transform="matrix(.89301 0 0 .89794 69.474 16.736)" stroke-width="1pt" fill="#feffff" d="M205.58 128.74l-10.01-6.85-9.91 7.01 3.42-11.64-9.72-7.25 12.12-.35 3.89-11.495 4.08 11.425 12.13.15-9.6 7.41z"/><path id="polygon564" transform="matrix(.89301 0 0 .89794 108.79 16.736)" stroke-width="1pt" fill="#feffff" d="M205.58 128.74l-10.01-6.85-9.91 7.01 3.42-11.64-9.72-7.25 12.12-.35 3.89-11.495 4.08 11.425 12.13.15-9.6 7.41z"/><path id="polygon565" transform="matrix(.89301 0 0 .89794 145.28 16.736)" stroke-width="1pt" fill="#feffff" d="M205.58 128.74l-10.01-6.85-9.91 7.01 3.42-11.64-9.72-7.25 12.12-.35 3.89-11.495 4.08 11.425 12.13.15-9.6 7.41z"/><path id="polygon566" transform="matrix(.89301 0 0 .89794 -17.681 16.736)" stroke-width="1pt" fill="#feffff" d="M205.58 128.74l-10.01-6.85-9.91 7.01 3.42-11.64-9.72-7.25 12.12-.35 3.89-11.495 4.08 11.425 12.13.15-9.6 7.41z"/><path id="polygon567" transform="matrix(.89301 0 0 .89794 26.099 -24.432)" stroke-width="1pt" fill="#feffff" d="M205.58 128.74l-10.01-6.85-9.91 7.01 3.42-11.64-9.72-7.25 12.12-.35 3.89-11.495 4.08 11.425 12.13.15-9.6 7.41z"/><path id="polygon568" transform="matrix(.89301 0 0 .89794 69.068 -24.432)" stroke-width="1pt" fill="#feffff" d="M205.58 128.74l-10.01-6.85-9.91 7.01 3.42-11.64-9.72-7.25 12.12-.35 3.89-11.495 4.08 11.425 12.13.15-9.6 7.41z"/><path id="polygon569" transform="matrix(.89301 0 0 .89794 109.6 -24.432)" stroke-width="1pt" fill="#feffff" d="M205.58 128.74l-10.01-6.85-9.91 7.01 3.42-11.64-9.72-7.25 12.12-.35 3.89-11.495 4.08 11.425 12.13.15-9.6 7.41z"/><path id="polygon570" transform="matrix(.89301 0 0 .89794 144.87 -24.432)" stroke-width="1pt" fill="#feffff" d="M205.58 128.74l-10.01-6.85-9.91 7.01 3.42-11.64-9.72-7.25 12.12-.35 3.89-11.495 4.08 11.425 12.13.15-9.6 7.41z"/><path id="polygon571" transform="matrix(.89301 0 0 .89794 144.47 -66.212)" stroke-width="1pt" fill="#feffff" d="M205.58 128.74l-10.01-6.85-9.91 7.01 3.42-11.64-9.72-7.25 12.12-.35 3.89-11.495 4.08 11.425 12.13.15-9.6 7.41z"/><path id="polygon572" transform="matrix(.89301 0 0 .89794 109.2 -66.212)" stroke-width="1pt" fill="#feffff" d="M205.58 128.74l-10.01-6.85-9.91 7.01 3.42-11.64-9.72-7.25 12.12-.35 3.89-11.495 4.08 11.425 12.13.15-9.6 7.41z"/><path id="path575" d="M137.83 25.111C89.992 12 59.691 45.865 60.147 76.214c.456 30.346 28.426 62.486 71.603 54.466C63.913 162.47 29.22 112.4 30.61 72.648c2.378-46.988 55.193-85.309 107.22-47.537z" fill="#fff"/></g></svg>