<svg id="svg559" xmlns="http://www.w3.org/2000/svg" height="480" width="640" version="1" xmlns:xlink="http://www.w3.org/1999/xlink"><defs id="defs1574"><linearGradient id="linearGradient570"><stop id="stop571" stop-color="red" offset="0"/><stop id="stop572" stop-color="#ff0" offset="1"/></linearGradient><linearGradient id="linearGradient3331" y2="107.76" xlink:href="#linearGradient570" gradientUnits="userSpaceOnUse" y1="111.28" gradientTransform="matrix(.64274 0 0 1.4534 -94.683 29.21)" x2="92.551" x1="103.08"/><linearGradient id="linearGradient3333" y2="107.76" xlink:href="#linearGradient570" gradientUnits="userSpaceOnUse" y1="111.28" gradientTransform="matrix(.64274 0 0 1.4534 -94.666 30.155)" x2="92.551" x1="103.08"/><linearGradient id="linearGradient3335" y2="107.76" xlink:href="#linearGradient570" gradientUnits="userSpaceOnUse" y1="111.28" gradientTransform="matrix(.64274 0 0 1.4534 -97.986 31.014)" x2="92.551" x1="103.08"/><linearGradient id="linearGradient3337" y2="107.76" xlink:href="#linearGradient570" gradientUnits="userSpaceOnUse" y1="111.28" gradientTransform="matrix(.64274 0 0 1.4534 -94.743 31.932)" x2="92.551" x1="103.08"/><linearGradient id="linearGradient3339" y2="107.76" xlink:href="#linearGradient570" gradientUnits="userSpaceOnUse" y1="111.28" gradientTransform="matrix(.64274 0 0 1.4534 -94.75 32.835)" x2="92.551" x1="103.08"/><linearGradient id="linearGradient3341" y2="107.76" xlink:href="#linearGradient570" gradientUnits="userSpaceOnUse" y1="111.28" gradientTransform="matrix(.64274 0 0 1.4534 -94.767 33.751)" x2="92.551" x1="103.08"/><linearGradient id="linearGradient3343" y2="107.76" xlink:href="#linearGradient570" gradientUnits="userSpaceOnUse" y1="111.28" gradientTransform="matrix(.64274 0 0 1.4534 -98.011 33.736)" x2="92.551" x1="103.08"/><linearGradient id="linearGradient3345" y2="107.76" xlink:href="#linearGradient570" gradientUnits="userSpaceOnUse" y1="111.28" gradientTransform="matrix(.64274 0 0 1.4534 -97.981 32.837)" x2="92.551" x1="103.08"/><linearGradient id="linearGradient3347" y2="107.76" xlink:href="#linearGradient570" gradientUnits="userSpaceOnUse" y1="111.28" gradientTransform="matrix(.64274 0 0 1.4534 -97.942 31.918)" x2="92.551" x1="103.08"/><linearGradient id="linearGradient3349" y2="107.76" xlink:href="#linearGradient570" gradientUnits="userSpaceOnUse" y1="111.28" gradientTransform="matrix(.8281 0 0 1.8726 602.82 148.17)" x2="92.551" x1="103.08"/><linearGradient id="linearGradient3351" y2="107.76" xlink:href="#linearGradient570" gradientUnits="userSpaceOnUse" y1="111.28" gradientTransform="matrix(.64274 0 0 1.4534 -97.976 30.11)" x2="92.551" x1="103.08"/><linearGradient id="linearGradient3353" y2="107.76" xlink:href="#linearGradient570" gradientUnits="userSpaceOnUse" y1="111.28" gradientTransform="matrix(.64274 0 0 1.4534 -95.336 30.955)" x2="92.551" x1="103.08"/><clipPath id="clipPath3927"><path id="rect3929" fill-opacity=".67" d="M0 0h640v480H0z"/></clipPath></defs><g id="flag" clip-path="url(#clipPath3927)"><path id="rect877" stroke-width="1pt" fill="#006" d="M0 0h960v480H0z"/><g id="g4917" transform="scale(.72917)"><path id="rect3207" fill-rule="evenodd" fill="#006" d="M0 0h480v240H0z"/><g id="g878" stroke-width="1pt" transform="scale(8)"><path id="path879" d="M0 0v3.354L53.292 30H60v-3.354L6.708 0H0zm60 0v3.354L6.708 30H0v-3.354L53.292 0H60z" fill="#fff"/><path id="path880" d="M25 0v30h10V0H25zM0 10v10h60V10H0z" fill="#fff"/><path id="path881" d="M0 12v6h60v-6H0zM27 0v30h6V0h-6z" fill="#c00"/><path id="path882" d="M0 30l20-10h4.472l-20 10H0zM0 0l20 10h-4.472L0 2.236V0zm35.528 10l20-10H60L40 10h-4.472zM60 30L40 20h4.472L60 27.764V30z" fill="#c00"/></g></g><g id="g3929" transform="translate(-301.49 28.259) scale(1.0265)"><path id="path824" d="M662.41 122.94l213.68-.793-.396 190.29s7.532 28.94-89.593 72.943c34.886-3.568 72.943-40.832 72.943-40.832s15.46-19.82 22.993-8.721c7.532 11.1 14.668 16.65 20.218 21.01 5.55 4.361 9.91 16.255 1.585 24.976s-21.407 9.91-24.975-.793c-5.55 2.775-39.643 44.004-109.41 45.986-70.96-1.19-109.81-46.382-109.81-46.382s-9.514 15.064-22.993 3.171c-13.082-15.46-3.171-25.372-3.171-25.372s11.1-6.342 14.27-10.704c5.154-5.946 6.74-13.875 15.462-13.875 10.307.793 14.27 9.118 14.27 9.118s35.68 37.661 74.133 42.418c-86.818-41.625-89.99-67.393-89.593-73.736l.396-188.7z" fill-rule="evenodd" fill="#fff"/><path id="path779" d="M667.56 128.09l203.76-1.19v183.15c.396 23.787-39.643 47.969-102.28 78.89-64.61-33.3-101.87-53.52-102.27-79.28l.793-181.56z" fill-rule="evenodd" stroke="#000" stroke-width="1.673" fill="#006129"/><g id="g584" transform="translate(602.15 110.19) scale(1.2884)"><path id="path585" d="M69.786 170.53l9.335-13.711 9.381 13.74" stroke="#f7c600" stroke-width="1.299" fill="none"/><path id="path586" d="M80.997 165.398a1.854 1.854 0 1 1-3.708.002 1.854 1.854 0 0 1 3.708-.002z" fill-rule="evenodd" stroke="#000" stroke-width=".609" fill="#f7c600"/><path id="path587" d="M71.541 180.66l14.473.041s.227-1.878-1.512-3.02c7.58-1.042 5.611-7.729 11.96-8.108 1.232.19-3.316 2.843-3.316 2.843s-3.828 2.701-2.085 4.075c1.384 1.09 1.99-.664 2.18-1.99.19-1.327 6.159-2.18 5.306-5.97-1.421-3.127-9.76 2.085-9.76 2.085l-5.949-.033c-.37-.668-2.01-3.345-3.704-3.358-2.008.073-3.423 3.39-3.423 3.39H62.255s-.461 3.453 6.362 4.116c1.535 2.007 2.726 2.567 4.062 3.086-.89.742-1.141 1.64-1.137 2.843z" fill-rule="evenodd" stroke="#000" stroke-width=".609" fill="#f7c600"/><path id="path588" d="M72.583 177.72l12.055-.041" stroke="#000" stroke-width=".609" fill="none"/><path id="path589" d="M67.062 170.61s.964 5.638 5.415 6.973" stroke="#000" stroke-width=".609" fill="none"/><path id="path590" d="M66.32 170.54c.445-2.151 1.261-2.522 2.151-5.267.149-2.67-2.151-2.374-1.483-4.08 1.187-1.855.593-3.635-1.632-5.045.445 2.448-2.894 4.748-2.894 6.751s1.707 1.558 1.484 4.6c.148 1.78-.445 1.335-.593 3.041h2.967z" fill-rule="evenodd" stroke="#000" stroke-width=".609" fill="url(#linearGradient3331)"/><path id="path591" d="M80.848 157.165a1.706 1.706 0 1 1-3.411.001 1.706 1.706 0 0 1 3.41 0z" fill-rule="evenodd" stroke="#000" stroke-width=".609" fill="#f7c600"/></g><g id="g592" transform="translate(601.47 73.831) scale(1.2884)"><path id="path593" d="M69.786 170.53l9.335-13.711 9.381 13.74" stroke="#f7c600" stroke-width="1.299" fill="none"/><path id="path594" d="M80.997 165.398a1.854 1.854 0 1 1-3.708.002 1.854 1.854 0 0 1 3.708-.002z" fill-rule="evenodd" stroke="#000" stroke-width=".609" fill="#f7c600"/><path id="path595" d="M71.541 180.66l14.473.041s.227-1.878-1.512-3.02c7.58-1.042 5.611-7.729 11.96-8.108 1.232.19-3.316 2.843-3.316 2.843s-3.828 2.701-2.085 4.075c1.384 1.09 1.99-.664 2.18-1.99.19-1.327 6.159-2.18 5.306-5.97-1.421-3.127-9.76 2.085-9.76 2.085l-5.949-.033c-.37-.668-2.01-3.345-3.704-3.358-2.008.073-3.423 3.39-3.423 3.39H62.255s-.461 3.453 6.362 4.116c1.535 2.007 2.726 2.567 4.062 3.086-.89.742-1.141 1.64-1.137 2.843z" fill-rule="evenodd" stroke="#000" stroke-width=".609" fill="#f7c600"/><path id="path596" d="M72.583 177.72l12.055-.041" stroke="#000" stroke-width=".609" fill="none"/><path id="path597" d="M67.062 170.61s.964 5.638 5.415 6.973" stroke="#000" stroke-width=".609" fill="none"/><path id="path598" d="M66.32 170.54c.445-2.151 1.261-2.522 2.151-5.267.149-2.67-2.151-2.374-1.483-4.08 1.187-1.855.593-3.635-1.632-5.045.445 2.448-2.894 4.748-2.894 6.751s1.707 1.558 1.484 4.6c.148 1.78-.445 1.335-.593 3.041h2.967z" fill-rule="evenodd" stroke="#000" stroke-width=".609" fill="url(#linearGradient3333)"/><path id="path599" d="M80.848 157.165a1.706 1.706 0 1 1-3.411.001 1.706 1.706 0 0 1 3.41 0z" fill-rule="evenodd" stroke="#000" stroke-width=".609" fill="#f7c600"/></g><g id="g600" transform="translate(729.25 40.779) scale(1.2884)"><path id="path601" d="M69.786 170.53l9.335-13.711 9.381 13.74" stroke="#f7c600" stroke-width="1.299" fill="none"/><path id="path602" d="M80.997 165.398a1.854 1.854 0 1 1-3.708.002 1.854 1.854 0 0 1 3.708-.002z" fill-rule="evenodd" stroke="#000" stroke-width=".609" fill="#f7c600"/><path id="path603" d="M71.541 180.66l14.473.041s.227-1.878-1.512-3.02c7.58-1.042 5.611-7.729 11.96-8.108 1.232.19-3.316 2.843-3.316 2.843s-3.828 2.701-2.085 4.075c1.384 1.09 1.99-.664 2.18-1.99.19-1.327 6.159-2.18 5.306-5.97-1.421-3.127-9.76 2.085-9.76 2.085l-5.949-.033c-.37-.668-2.01-3.345-3.704-3.358-2.008.073-3.423 3.39-3.423 3.39H62.255s-.461 3.453 6.362 4.116c1.535 2.007 2.726 2.567 4.062 3.086-.89.742-1.141 1.64-1.137 2.843z" fill-rule="evenodd" stroke="#000" stroke-width=".609" fill="#f7c600"/><path id="path604" d="M72.583 177.72l12.055-.041" stroke="#000" stroke-width=".609" fill="none"/><path id="path605" d="M67.062 170.61s.964 5.638 5.415 6.973" stroke="#000" stroke-width=".609" fill="none"/><path id="path606" d="M66.32 170.54c.445-2.151 1.261-2.522 2.151-5.267.149-2.67-2.151-2.374-1.483-4.08 1.187-1.855.593-3.635-1.632-5.045.445 2.448-2.894 4.748-2.894 6.751s1.707 1.558 1.484 4.6c.148 1.78-.445 1.335-.593 3.041h2.967z" fill-rule="evenodd" stroke="#000" stroke-width=".609" fill="url(#linearGradient3335)"/><path id="path607" d="M80.848 157.165a1.706 1.706 0 1 1-3.411.001 1.706 1.706 0 0 1 3.41 0z" fill-rule="evenodd" stroke="#000" stroke-width=".609" fill="#f7c600"/></g><g id="g608" transform="translate(604.45 5.435) scale(1.2884)"><path id="path609" d="M69.786 170.53l9.335-13.711 9.381 13.74" stroke="#f7c600" stroke-width="1.299" fill="none"/><path id="path610" d="M80.997 165.398a1.854 1.854 0 1 1-3.708.002 1.854 1.854 0 0 1 3.708-.002z" fill-rule="evenodd" stroke="#000" stroke-width=".609" fill="#f7c600"/><path id="path611" d="M71.541 180.66l14.473.041s.227-1.878-1.512-3.02c7.58-1.042 5.611-7.729 11.96-8.108 1.232.19-3.316 2.843-3.316 2.843s-3.828 2.701-2.085 4.075c1.384 1.09 1.99-.664 2.18-1.99.19-1.327 6.159-2.18 5.306-5.97-1.421-3.127-9.76 2.085-9.76 2.085l-5.949-.033c-.37-.668-2.01-3.345-3.704-3.358-2.008.073-3.423 3.39-3.423 3.39H62.255s-.461 3.453 6.362 4.116c1.535 2.007 2.726 2.567 4.062 3.086-.89.742-1.141 1.64-1.137 2.843z" fill-rule="evenodd" stroke="#000" stroke-width=".609" fill="#f7c600"/><path id="path612" d="M72.583 177.72l12.055-.041" stroke="#000" stroke-width=".609" fill="none"/><path id="path613" d="M67.062 170.61s.964 5.638 5.415 6.973" stroke="#000" stroke-width=".609" fill="none"/><path id="path614" d="M66.32 170.54c.445-2.151 1.261-2.522 2.151-5.267.149-2.67-2.151-2.374-1.483-4.08 1.187-1.855.593-3.635-1.632-5.045.445 2.448-2.894 4.748-2.894 6.751s1.707 1.558 1.484 4.6c.148 1.78-.445 1.335-.593 3.041h2.967z" fill-rule="evenodd" stroke="#000" stroke-width=".609" fill="url(#linearGradient3337)"/><path id="path615" d="M80.848 157.165a1.706 1.706 0 1 1-3.411.001 1.706 1.706 0 0 1 3.41 0z" fill-rule="evenodd" stroke="#000" stroke-width=".609" fill="#f7c600"/></g><g id="g616" transform="translate(604.72 -29.303) scale(1.2884)"><path id="path617" d="M69.786 170.53l9.335-13.711 9.381 13.74" stroke="#f7c600" stroke-width="1.299" fill="none"/><path id="path618" d="M80.997 165.398a1.854 1.854 0 1 1-3.708.002 1.854 1.854 0 0 1 3.708-.002z" fill-rule="evenodd" stroke="#000" stroke-width=".609" fill="#f7c600"/><path id="path619" d="M71.541 180.66l14.473.041s.227-1.878-1.512-3.02c7.58-1.042 5.611-7.729 11.96-8.108 1.232.19-3.316 2.843-3.316 2.843s-3.828 2.701-2.085 4.075c1.384 1.09 1.99-.664 2.18-1.99.19-1.327 6.159-2.18 5.306-5.97-1.421-3.127-9.76 2.085-9.76 2.085l-5.949-.033c-.37-.668-2.01-3.345-3.704-3.358-2.008.073-3.423 3.39-3.423 3.39H62.255s-.461 3.453 6.362 4.116c1.535 2.007 2.726 2.567 4.062 3.086-.89.742-1.141 1.64-1.137 2.843z" fill-rule="evenodd" stroke="#000" stroke-width=".609" fill="#f7c600"/><path id="path620" d="M72.583 177.72l12.055-.041" stroke="#000" stroke-width=".609" fill="none"/><path id="path621" d="M67.062 170.61s.964 5.638 5.415 6.973" stroke="#000" stroke-width=".609" fill="none"/><path id="path622" d="M66.32 170.54c.445-2.151 1.261-2.522 2.151-5.267.149-2.67-2.151-2.374-1.483-4.08 1.187-1.855.593-3.635-1.632-5.045.445 2.448-2.894 4.748-2.894 6.751s1.707 1.558 1.484 4.6c.148 1.78-.445 1.335-.593 3.041h2.967z" fill-rule="evenodd" stroke="#000" stroke-width=".609" fill="url(#linearGradient3339)"/><path id="path623" d="M80.848 157.165a1.706 1.706 0 1 1-3.411.001 1.706 1.706 0 0 1 3.41 0z" fill-rule="evenodd" stroke="#000" stroke-width=".609" fill="#f7c600"/></g><g id="g624" transform="translate(605.38 -64.549) scale(1.2884)"><path id="path625" d="M69.786 170.53l9.335-13.711 9.381 13.74" stroke="#f7c600" stroke-width="1.299" fill="none"/><path id="path626" d="M80.997 165.398a1.854 1.854 0 1 1-3.708.002 1.854 1.854 0 0 1 3.708-.002z" fill-rule="evenodd" stroke="#000" stroke-width=".609" fill="#f7c600"/><path id="path627" d="M71.541 180.66l14.473.041s.227-1.878-1.512-3.02c7.58-1.042 5.611-7.729 11.96-8.108 1.232.19-3.316 2.843-3.316 2.843s-3.828 2.701-2.085 4.075c1.384 1.09 1.99-.664 2.18-1.99.19-1.327 6.159-2.18 5.306-5.97-1.421-3.127-9.76 2.085-9.76 2.085l-5.949-.033c-.37-.668-2.01-3.345-3.704-3.358-2.008.073-3.423 3.39-3.423 3.39H62.255s-.461 3.453 6.362 4.116c1.535 2.007 2.726 2.567 4.062 3.086-.89.742-1.141 1.64-1.137 2.843z" fill-rule="evenodd" stroke="#000" stroke-width=".609" fill="#f7c600"/><path id="path628" d="M72.583 177.72l12.055-.041" stroke="#000" stroke-width=".609" fill="none"/><path id="path629" d="M67.062 170.61s.964 5.638 5.415 6.973" stroke="#000" stroke-width=".609" fill="none"/><path id="path630" d="M66.32 170.54c.445-2.151 1.261-2.522 2.151-5.267.149-2.67-2.151-2.374-1.483-4.08 1.187-1.855.593-3.635-1.632-5.045.445 2.448-2.894 4.748-2.894 6.751s1.707 1.558 1.484 4.6c.148 1.78-.445 1.335-.593 3.041h2.967z" fill-rule="evenodd" stroke="#000" stroke-width=".609" fill="url(#linearGradient3341)"/><path id="path631" d="M80.848 157.165a1.706 1.706 0 1 1-3.411.001 1.706 1.706 0 0 1 3.41 0z" fill-rule="evenodd" stroke="#000" stroke-width=".609" fill="#f7c600"/></g><g id="g632" transform="translate(730.2 -63.975) scale(1.2884)"><path id="path633" d="M69.786 170.53l9.335-13.711 9.381 13.74" stroke="#f7c600" stroke-width="1.299" fill="none"/><path id="path634" d="M80.997 165.398a1.854 1.854 0 1 1-3.708.002 1.854 1.854 0 0 1 3.708-.002z" fill-rule="evenodd" stroke="#000" stroke-width=".609" fill="#f7c600"/><path id="path635" d="M71.541 180.66l14.473.041s.227-1.878-1.512-3.02c7.58-1.042 5.611-7.729 11.96-8.108 1.232.19-3.316 2.843-3.316 2.843s-3.828 2.701-2.085 4.075c1.384 1.09 1.99-.664 2.18-1.99.19-1.327 6.159-2.18 5.306-5.97-1.421-3.127-9.76 2.085-9.76 2.085l-5.949-.033c-.37-.668-2.01-3.345-3.704-3.358-2.008.073-3.423 3.39-3.423 3.39H62.255s-.461 3.453 6.362 4.116c1.535 2.007 2.726 2.567 4.062 3.086-.89.742-1.141 1.64-1.137 2.843z" fill-rule="evenodd" stroke="#000" stroke-width=".609" fill="#f7c600"/><path id="path636" d="M72.583 177.72l12.055-.041" stroke="#000" stroke-width=".609" fill="none"/><path id="path637" d="M67.062 170.61s.964 5.638 5.415 6.973" stroke="#000" stroke-width=".609" fill="none"/><path id="path638" d="M66.32 170.54c.445-2.151 1.261-2.522 2.151-5.267.149-2.67-2.151-2.374-1.483-4.08 1.187-1.855.593-3.635-1.632-5.045.445 2.448-2.894 4.748-2.894 6.751s1.707 1.558 1.484 4.6c.148 1.78-.445 1.335-.593 3.041h2.967z" fill-rule="evenodd" stroke="#000" stroke-width=".609" fill="url(#linearGradient3343)"/><path id="path639" d="M80.848 157.165a1.706 1.706 0 1 1-3.411.001 1.706 1.706 0 0 1 3.41 0z" fill-rule="evenodd" stroke="#000" stroke-width=".609" fill="#f7c600"/></g><g id="g640" transform="translate(729.06 -29.376) scale(1.2884)"><path id="path641" d="M69.786 170.53l9.335-13.711 9.381 13.74" stroke="#f7c600" stroke-width="1.299" fill="none"/><path id="path642" d="M80.997 165.398a1.854 1.854 0 1 1-3.708.002 1.854 1.854 0 0 1 3.708-.002z" fill-rule="evenodd" stroke="#000" stroke-width=".609" fill="#f7c600"/><path id="path643" d="M71.541 180.66l14.473.041s.227-1.878-1.512-3.02c7.58-1.042 5.611-7.729 11.96-8.108 1.232.19-3.316 2.843-3.316 2.843s-3.828 2.701-2.085 4.075c1.384 1.09 1.99-.664 2.18-1.99.19-1.327 6.159-2.18 5.306-5.97-1.421-3.127-9.76 2.085-9.76 2.085l-5.949-.033c-.37-.668-2.01-3.345-3.704-3.358-2.008.073-3.423 3.39-3.423 3.39H62.255s-.461 3.453 6.362 4.116c1.535 2.007 2.726 2.567 4.062 3.086-.89.742-1.141 1.64-1.137 2.843z" fill-rule="evenodd" stroke="#000" stroke-width=".609" fill="#f7c600"/><path id="path644" d="M72.583 177.72l12.055-.041" stroke="#000" stroke-width=".609" fill="none"/><path id="path645" d="M67.062 170.61s.964 5.638 5.415 6.973" stroke="#000" stroke-width=".609" fill="none"/><path id="path646" d="M66.32 170.54c.445-2.151 1.261-2.522 2.151-5.267.149-2.67-2.151-2.374-1.483-4.08 1.187-1.855.593-3.635-1.632-5.045.445 2.448-2.894 4.748-2.894 6.751s1.707 1.558 1.484 4.6c.148 1.78-.445 1.335-.593 3.041h2.967z" fill-rule="evenodd" stroke="#000" stroke-width=".609" fill="url(#linearGradient3345)"/><path id="path647" d="M80.848 157.165a1.706 1.706 0 1 1-3.411.001 1.706 1.706 0 0 1 3.41 0z" fill-rule="evenodd" stroke="#000" stroke-width=".609" fill="#f7c600"/></g><g id="g648" transform="translate(727.53 5.988) scale(1.2884)"><path id="path649" d="M69.786 170.53l9.335-13.711 9.381 13.74" stroke="#f7c600" stroke-width="1.299" fill="none"/><path id="path650" d="M80.997 165.398a1.854 1.854 0 1 1-3.708.002 1.854 1.854 0 0 1 3.708-.002z" fill-rule="evenodd" stroke="#000" stroke-width=".609" fill="#f7c600"/><path id="path651" d="M71.541 180.66l14.473.041s.227-1.878-1.512-3.02c7.58-1.042 5.611-7.729 11.96-8.108 1.232.19-3.316 2.843-3.316 2.843s-3.828 2.701-2.085 4.075c1.384 1.09 1.99-.664 2.18-1.99.19-1.327 6.159-2.18 5.306-5.97-1.421-3.127-9.76 2.085-9.76 2.085l-5.949-.033c-.37-.668-2.01-3.345-3.704-3.358-2.008.073-3.423 3.39-3.423 3.39H62.255s-.461 3.453 6.362 4.116c1.535 2.007 2.726 2.567 4.062 3.086-.89.742-1.141 1.64-1.137 2.843z" fill-rule="evenodd" stroke="#000" stroke-width=".609" fill="#f7c600"/><path id="path652" d="M72.583 177.72l12.055-.041" stroke="#000" stroke-width=".609" fill="none"/><path id="path653" d="M67.062 170.61s.964 5.638 5.415 6.973" stroke="#000" stroke-width=".609" fill="none"/><path id="path654" d="M66.32 170.54c.445-2.151 1.261-2.522 2.151-5.267.149-2.67-2.151-2.374-1.483-4.08 1.187-1.855.593-3.635-1.632-5.045.445 2.448-2.894 4.748-2.894 6.751s1.707 1.558 1.484 4.6c.148 1.78-.445 1.335-.593 3.041h2.967z" fill-rule="evenodd" stroke="#000" stroke-width=".609" fill="url(#linearGradient3347)"/><path id="path655" d="M80.848 157.165a1.706 1.706 0 1 1-3.411.001 1.706 1.706 0 0 1 3.41 0z" fill-rule="evenodd" stroke="#000" stroke-width=".609" fill="#f7c600"/></g><path id="path657" d="M818.97 330.26l12.028-17.665 12.086 17.702" stroke="#f7c600" stroke-width="1.255" fill="none"/><path id="path658" d="M833.41 323.66a2.389 2.389 0 1 1-4.777.002 2.389 2.389 0 0 1 4.777-.002z" fill-rule="evenodd" stroke="#000" stroke-width=".784" fill="#f7c600"/><path id="path659" d="M821.23 343.31l18.647.053s.292-2.42-1.948-3.89c9.767-1.344 7.23-9.959 15.41-10.447 1.586.244-4.274 3.663-4.274 3.663s-4.931 3.48-2.686 5.25c1.783 1.404 2.564-.855 2.808-2.564.245-1.71 7.936-2.808 6.837-7.692-1.831-4.028-12.575 2.686-12.575 2.686l-7.665-.042c-.478-.86-2.59-4.31-4.771-4.326-2.588.094-4.411 4.368-4.411 4.368h-17.337s-.594 4.448 8.196 5.303c1.979 2.584 3.513 3.306 5.234 3.976-1.147.955-1.47 2.112-1.465 3.662z" fill-rule="evenodd" stroke="#000" stroke-width=".784" fill="#f7c600"/><path id="path660" d="M822.57 339.52l15.531-.053" stroke="#000" stroke-width=".784" fill="none"/><path id="path661" d="M815.46 330.37s1.242 7.264 6.977 8.985" stroke="#000" stroke-width=".784" fill="none"/><path id="path662" d="M814.5 330.27c.573-2.772 1.625-3.25 2.772-6.786.191-3.44-2.772-3.059-1.912-5.257 1.53-2.39.765-4.683-2.103-6.5.574 3.155-3.727 6.118-3.727 8.698 0 2.581 2.198 2.008 1.911 5.926.192 2.294-.573 1.72-.764 3.92h3.823z" fill-rule="evenodd" stroke="#000" stroke-width=".784" fill="url(#linearGradient3349)"/><path id="path663" d="M833.22 313.05a2.197 2.197 0 1 1-4.395.001 2.197 2.197 0 0 1 4.395-.001z" fill-rule="evenodd" stroke="#000" stroke-width=".784" fill="#f7c600"/><g id="g664" transform="translate(728.87 75.569) scale(1.2884)"><path id="path665" d="M69.786 170.53l9.335-13.711 9.381 13.74" stroke="#f7c600" stroke-width="1.299" fill="none"/><path id="path666" d="M80.997 165.398a1.854 1.854 0 1 1-3.708.002 1.854 1.854 0 0 1 3.708-.002z" fill-rule="evenodd" stroke="#000" stroke-width=".609" fill="#f7c600"/><path id="path667" d="M71.541 180.66l14.473.041s.227-1.878-1.512-3.02c7.58-1.042 5.611-7.729 11.96-8.108 1.232.19-3.316 2.843-3.316 2.843s-3.828 2.701-2.085 4.075c1.384 1.09 1.99-.664 2.18-1.99.19-1.327 6.159-2.18 5.306-5.97-1.421-3.127-9.76 2.085-9.76 2.085l-5.949-.033c-.37-.668-2.01-3.345-3.704-3.358-2.008.073-3.423 3.39-3.423 3.39H62.255s-.461 3.453 6.362 4.116c1.535 2.007 2.726 2.567 4.062 3.086-.89.742-1.141 1.64-1.137 2.843z" fill-rule="evenodd" stroke="#000" stroke-width=".609" fill="#f7c600"/><path id="path668" d="M72.583 177.72l12.055-.041" stroke="#000" stroke-width=".609" fill="none"/><path id="path669" d="M67.062 170.61s.964 5.638 5.415 6.973" stroke="#000" stroke-width=".609" fill="none"/><path id="path670" d="M66.32 170.54c.445-2.151 1.261-2.522 2.151-5.267.149-2.67-2.151-2.374-1.483-4.08 1.187-1.855.593-3.635-1.632-5.045.445 2.448-2.894 4.748-2.894 6.751s1.707 1.558 1.484 4.6c.148 1.78-.445 1.335-.593 3.041h2.967z" fill-rule="evenodd" stroke="#000" stroke-width=".609" fill="url(#linearGradient3351)"/><path id="path671" d="M80.848 157.165a1.706 1.706 0 1 1-3.411.001 1.706 1.706 0 0 1 3.41 0z" fill-rule="evenodd" stroke="#000" stroke-width=".609" fill="#f7c600"/></g><g id="g576" transform="translate(627.25 43.056) scale(1.2884)"><path id="path563" d="M69.786 170.53l9.335-13.711 9.381 13.74" stroke="#f7c600" stroke-width="1.299" fill="none"/><path id="path564" d="M80.997 165.398a1.854 1.854 0 1 1-3.708.002 1.854 1.854 0 0 1 3.708-.002z" fill-rule="evenodd" stroke="#000" stroke-width=".609" fill="#f7c600"/><path id="path565" d="M71.541 180.66l14.473.041s.227-1.878-1.512-3.02c7.58-1.042 5.611-7.729 11.96-8.108 1.232.19-3.316 2.843-3.316 2.843s-3.828 2.701-2.085 4.075c1.384 1.09 1.99-.664 2.18-1.99.19-1.327 6.159-2.18 5.306-5.97-1.421-3.127-9.76 2.085-9.76 2.085l-5.949-.033c-.37-.668-2.01-3.345-3.704-3.358-2.008.073-3.423 3.39-3.423 3.39H62.255s-.461 3.453 6.362 4.116c1.535 2.007 2.726 2.567 4.062 3.086-.89.742-1.141 1.64-1.137 2.843z" fill-rule="evenodd" stroke="#000" stroke-width=".609" fill="#f7c600"/><path id="path566" d="M72.583 177.72l12.055-.041" stroke="#000" stroke-width=".609" fill="none"/><path id="path568" d="M67.062 170.61s.964 5.638 5.415 6.973" stroke="#000" stroke-width=".609" fill="none"/><path id="path569" d="M66.32 170.54c.445-2.151 1.261-2.522 2.151-5.267.149-2.67-2.151-2.374-1.483-4.08 1.187-1.855.593-3.635-1.632-5.045.445 2.448-2.894 4.748-2.894 6.751s1.707 1.558 1.484 4.6c.148 1.78-.445 1.335-.593 3.041h2.967z" fill-rule="evenodd" stroke="#000" stroke-width=".609" fill="url(#linearGradient3353)"/><path id="path575" d="M80.848 157.165a1.706 1.706 0 1 1-3.411.001 1.706 1.706 0 0 1 3.41 0z" fill-rule="evenodd" stroke="#000" stroke-width=".609" fill="#f7c600"/></g><g id="g729" transform="translate(602.15 109.79) scale(1.2884)" stroke="#000"><path id="path718" d="M139.22 183.9s3.777 8.708 8.078 3.357 2.728-7.658 2.728-7.658l-9.652-5.246-2.833 5.98 1.679 3.567z" fill-rule="evenodd" stroke-width=".609" fill="#f7c600"/><path id="path678" d="M147.51 182.75s.63.105 1.154-.84-1.154-1.363-1.888-2.412l-.84 1.678 1.574 1.574z" fill-rule="evenodd" stroke-width=".609" fill="#ffc6b5"/><path id="path675" d="M125.68 180.44l-8.498 4.616s-4.196.84-4.511 0c-.315-.84.105-1.574 2.308-1.679 2.203-.104 8.183-5.56 8.183-5.56l2.518 2.623z" fill-rule="evenodd" stroke-width=".609" fill="#ffc6b5"/><path id="path674" d="M125.79 29.47s.21 1.993.315 3.042-1.679 3.253-1.784 3.148-.944.105-.84.734 1.365.84 1.365.84-.525 2.203 0 2.308c.524.104-1.364 2.832 0 3.567 1.364.734 3.672 1.678 4.72 1.468 1.05-.21 0 4.092 0 4.092l-2.937 6.295 16.156-1.679-3.357-5.35s-1.573-1.05-1.154-4.092c.42-3.043-.21-16.786-.21-16.786l-11.54-1.574-.734 3.987z" fill-rule="evenodd" stroke-width=".609" fill="#ffc6b5"/><path id="path672" d="M122.85 53.39s-5.246 2.413-5.036 8.918c-1.364 6.294-2.098 12.589-2.098 12.589s-6.19 7.028-8.078 9.546c-1.889 2.518-4.721 7.659-5.77 9.023s-5.141 5.875-5.036 7.554c.105 1.678-.944 9.127 3.147 9.966 1.05.42 4.407-8.603 4.407-8.603s.21-3.881-.945-4.616 2.518-3.252 2.518-3.252 7.03-5.14 8.603-6.4 5.875-6.085 5.875-6.085l2.413-28.64z" fill-rule="evenodd" stroke-width=".609" fill="#ffc6b5"/><path id="path679" d="M128.83 48.459s1.364 3.672 4.406 3.042c3.043-.63 6.61-3.462 6.61-3.462s2.832-.105 3.252.315c.42.42 7.659 7.449 7.449 9.652-.21 2.203-3.357 1.574-4.511 3.042s-3.043 5.141-2.518 7.869 2.098 6.295 1.888 7.658-1.364 1.784-1.364 2.518c0 .735.944 1.994.944 3.357s-1.259 3.357-1.049 4.721c.21 1.364.315 5.35.315 5.35l-.315 18.466s1.05.63 1.154 1.678c.105 1.05 7.134 31.578 7.134 31.578s-.314.945-1.049.84 2.833 4.72 2.938 6.085 3.672 12.065 3.567 13.534c-.105 1.468-.63 4.72-.944 4.826-.315.104 2.308 6.714 1.888 7.763-.42 1.05-4.721.944-4.721.944l-1.154-.21s.105 1.364-.734 1.47-7.03-.316-7.03-.316-1.783 2.728-2.832 2.623c-1.05-.105-2.413-1.993-2.728-1.678-.315.314.944 2.098.63 2.622-.315.525-5.666 1.68-6.715-.839-1.049-2.518.63-1.888.315-2.413-.315-.524-2.728-1.888-3.462-1.469s1.888 1.05 1.783 2.099c-.105 1.049-2.308 2.622-3.147 2.622s-2.833-3.881-5.77-3.462c-2.938.42-4.826 1.154-4.826 1.154s-3.462 1.47-4.931 1.154c-1.469-.314-2.098-1.468-2.098-2.098 0-.63 1.049-3.357.944-4.196s-.944-1.679-.944-2.938c0-1.259 2.413-5.56 2.413-5.56l-.105-19.304s-2.203 0-2.308-1.364 3.357-30.53 3.881-32.418c.525-1.888 1.889-8.603 1.889-8.603s-1.574.735-1.679 0 4.721-17.415 4.721-17.415.84-8.288.84-10.49c0-2.204-.42-5.246-.42-5.246s-4.307-1.824-4.406-4.617c-.394-4.443 4.091-6.924 4.616-8.393l2.098-5.875s2.308-3.986 6.085-4.616z" fill-rule="evenodd" stroke-width=".609" fill="#fff"/><path id="path717" d="M127.26 181.7s-10.176 5.35-11.645 5.77c-1.469.42-2.413-1.783-.944-2.203 1.469-.42 3.777-.63 3.777-.63s-3.462-2.727-3.358-2.832c.105-.105 4.721-1.784 4.826-1.784s1.47 2.728 2.413 2.518 3.672-2.308 3.672-2.308 1.47 1.679 1.26 1.469z" fill-rule="evenodd" stroke-width=".609" fill="#f7c600"/><path id="path676" d="M141.6 184.63c.962 1.24 1.338 3.393 3.542 2.134 2.203-1.259-1.129-3.595-1.129-3.595l-2.413 1.461z" fill-rule="evenodd" stroke-width=".609" fill="#ffc6b5"/><path id="path677" d="M145.62 184.42s1.05.84 1.993-.105-1.888-2.937-1.888-2.937l-1.364 1.573 1.259 1.469z" fill-rule="evenodd" stroke-width=".609" fill="#ffc6b5"/><path id="path680" d="M142.47 52.55s-9.337 5.98-9.127 8.078" stroke-width=".609" fill="none"/><path id="path681" d="M144.57 53.599s-2.098 2.308-2.203 2.308" stroke-width=".609" fill="none"/><path id="path682" d="M147.4 56.117s-4.616 3.777-3.882 6.19" stroke-width=".609" fill="none"/><path id="path683" d="M125.58 52.026s-1.364 2.833-1.05 3.777c.316.944 2.624 4.511 2.939 6.714.314 2.203 0 3.777 0 3.777" stroke-width=".609" fill="none"/><path id="path684" d="M123.17 57.271s.42 3.357 1.05 3.987c.629.63 2.307 3.462 2.517 4.616" stroke-width=".609" fill="none"/><path id="path685" d="M122.33 71.224s2.728 1.364 5.246-3.882" stroke-width=".609" fill="none"/><path id="path686" d="M131.66 63.671c-.105 0-1.993 5.14 1.364 7.03s5.875 1.678 7.344 1.153c1.468-.524 3.042-1.469 3.042-1.469" stroke-width=".609" fill="none"/><path id="path687" d="M130.2 69.966s.21 6.924 10.386 13.744" stroke-width=".609" fill="none"/><path id="path688" d="M130.62 76.47s-.105 6.085 3.882 8.813" stroke-width=".609" fill="none"/><path id="path689" d="M128.52 69.336s-3.042 9.022-5.455 9.967" stroke-width=".609" fill="none"/><path id="path690" d="M127.57 75.946s-.105 6.505-.944 8.813" stroke-width=".609" fill="none"/><path id="path691" d="M125.79 86.332s2.098 2.623 4.406 2.413c2.308-.21 3.253-2.938 4.826-2.518 1.574.42 3.043 1.679 6.715 1.364" stroke-width=".609" fill="none"/><path id="path692" d="M136.49 90.318s0 5.35.944 5.875.525 5.456.525 5.456" stroke-width=".609" fill="none"/><path id="path693" d="M123.69 87.801s-.105 5.036-.734 6.82c-.63 1.783-1.889 4.825-1.679 7.448" stroke-width=".609" fill="none"/><path id="path694" d="M117.29 105.01c.524-.21 2.308-1.783 2.308-1.783" stroke-width=".609" fill="none"/><path id="path695" d="M120.54 104.38s-4.511 19.304-3.252 30.844" stroke-width=".609" fill="none"/><path id="path696" d="M121.59 105.32s-2.308 14.478-1.259 17.206" stroke-width=".609" fill="none"/><path id="path697" d="M120.44 104.9c.105 0 8.813.63 8.813.63" stroke-width=".609" fill="none"/><path id="path698" d="M130.51 104.38s2.413 1.259 5.77 1.05" stroke-width=".609" fill="none"/><path id="path699" d="M129.46 111.41s-.42 24.759-1.05 30.215" stroke-width=".609" fill="none"/><path id="path700" d="M142.37 117.07s2.728 21.717 4.301 23.71" stroke-width=".609" fill="none"/><path id="path701" d="M137.12 119.8s1.679 19.199 2.623 20.878" stroke-width=".609" fill="none"/><path id="path702" d="M113.31 147.39s3.252-1.05 6.19-4.197c3.357 4.512 8.498.21 8.498.21s7.973 5.456 11.54-.63c5.455 3.568 8.183-.524 8.183-.524s1.993 3.043 3.462 2.728" stroke-width=".609" fill="none"/><path id="path703" d="M142.47 147.08s4.092 19.199 10.176 24.654" stroke-width=".609" fill="none"/><path id="path704" d="M121.38 145.08s.524 16.052 1.469 27.382" stroke-width=".609" fill="none"/><path id="path705" d="M120.65 163.23s-.525 10.491-1.154 11.226" stroke-width=".609" fill="none"/><path id="path707" d="M114.46 175.51s1.154 4.511 6.924.315c5.77-4.197 5.875 1.573 6.085 2.203.21.63 1.154 5.14 3.357 1.364" stroke-width=".609" fill="none"/><path id="path708" d="M135.44 173.2s-.944 9.337 7.344 2.518c8.288-6.82 9.652-.105 9.861 1.993" stroke-width=".609" fill="none"/><path id="path709" d="M125.47 28.84s2.308.315 3.567-.42c1.259-.734 2.728-1.049 3.777.42s1.783 1.364 1.783 1.364-1.573 3.882 0 4.301c1.574.42 2.308.42 2.413.944.105.525-1.363 1.679-.944 2.204.42.524 1.154 1.154 1.26 1.573.104.42-.945 2.203-.63 2.623.314.42 1.259 2.098 1.888 2.098.63 0 .21 2.623 2.098 1.994s1.784-2.308 1.784-2.308 1.993-.315 2.518-2.099c.524-1.783 1.783-2.203 1.783-2.203s2.518-1.364-.84-3.462c0-14.688-9.651-13.114-9.651-13.114s-1.154-2.623-3.043-2.308c-1.888.315-1.993 2.518-3.357 2.308-1.364-.21-1.678-1.154-1.783-1.049-.105.105-1.26 2.203-1.26 2.728 0 .524-3.671-.735-3.356 1.993s2.098 2.623 1.993 2.413z" fill-rule="evenodd" stroke-width=".609" fill="#9c5100"/><path id="path710" d="M135.55 25.273s-.734 4.616 4.197 4.197c-.63 2.517 1.258 3.357 1.258 3.357" stroke-width=".609" fill="none"/><path id="path711" d="M144.67 35.659c.105 0 2.203 1.364-.105 3.042" stroke-width=".609" fill="none"/><path id="path712" d="M137.54 39.331s1.049 1.259 2.203.944c1.154-.314 3.043 1.154 3.043 1.154s1.573.525 1.783.21" stroke-width=".609" fill="none"/><path id="path713" d="M131.14 43.318s3.567 1.364 5.875-4.301" stroke-width=".609" fill="none"/><path id="path714" d="M124.53 37.338l2.098.105" stroke-width=".609" fill="none"/><path id="path715" stroke-linejoin="round" d="M124.85 39.436h1.888l-1.678.734" stroke-width=".609" fill="none"/><path id="path716" stroke-linejoin="round" d="M127.47 33.561c.315 0 1.469-.42 1.679-.105.21.315-1.26.525-1.679.105z" stroke-width="1.096" fill="none"/><path id="path673" d="M150.13 58.487c.105 0 3.462 10.386 3.882 13.009.42 2.623 1.783 13.114 1.259 14.583-.525 1.469-5.875 8.498-6.505 10.281-.63 1.784-4.406 8.603-4.406 8.603s-.944 6.714-1.364 7.029c-.42.315 1.083 1.963.944 2.518-.208.624-3.042 3.567-4.301 3.252-1.26-.315-3.253-1.783-3.357-3.147s.104-5.875 1.049-7.03 5.875-12.798 6.19-13.533c.314-.735 4.51-9.862 4.616-11.435.105-1.574-1.306-5.213-2.79-6.548-3.302-9.718-2.004-15.58 4.783-17.582z" fill-rule="evenodd" stroke-width=".609" fill="#ffc6b5"/><path id="path726" d="M101.25 103.5l.164 4.598" stroke-width=".609" fill="none"/><path id="path727" d="M96.942 103.16s2.948 4.93 2.701 7.557" stroke-width=".609" fill="none"/><path id="path728" stroke-linejoin="round" d="M136.45 113.46s2.204-.232 2.135 3.448c1.407-4.571 4.269-4.68 4.269-4.68" stroke-width=".609" fill="none"/></g><path id="path780" d="M768.25 391.32c57.086-1.586 93.954-42.814 93.557-43.211-.396-.396 7.532-11.496 13.875-9.91 6.343 1.585 15.461 20.217 26.561 24.181 5.55 8.722-1.586 16.65-3.964 18.236-2.379 1.586-13.082 5.947-14.668-.396-1.586-6.343-4.758-5.154-4.758-5.154s-50.743 49.554-109.41 47.572c-60.65.4-110.6-47.57-110.6-47.57l-4.36 4.757s-4.758 5.154-7.136 4.758c-2.379-.397-12.686-7.136-13.48-13.875-.792-6.74 6.344-11.1 6.344-11.1s17.443-13.48 19.425-20.614c3.964-3.965 11.496 2.774 11.496 2.774s45.986 52.725 97.125 49.554z" fill-rule="evenodd" stroke="#000" stroke-width="1.673" fill="#f7c600"/><path id="path782" d="M639.02 360.66s4.717-1.258 6.447.708c1.73 1.965 13.6 13.6 13.6 13.6" stroke="#000" stroke-width="1.673" fill="none"/><path id="path783" d="M649.79 366.16l-4.717 3.538s11.87 2.358 9.198 10.142" stroke="#000" stroke-width="1.673" fill="none"/><path id="path784" d="M897.99 360.26s-2.359-1.258-6.054 1.494c-3.695 2.751-13.05 13.208-13.05 13.208" stroke="#000" stroke-width="1.673" fill="none"/><path id="path785" d="M887.38 365.85l5.11 3.93s-10.692.708-8.333 10.85" stroke="#000" stroke-width="1.673" fill="none"/><path id="text2325" d="M699.45 373.24l-.344.482c-.717-.354-1.535-.42-2.453-.197-.675.174-1.945.807-3.812 1.9l-15.708 9.157-.43-.307 3.958-18.363c.478-2.213.696-3.558.655-4.032-.032-.47-.364-.987-.994-1.555l.344-.482 8.467 6.039-.344.482-.286-.205c-.765-.545-1.354-.82-1.768-.828-.293-.012-.529.108-.708.36a2.32 2.32 0 0 0-.296.634c-.079.258-.25.994-.513 2.208l-2.506 11.478 9.074-5.339c1.092-.65 1.8-1.1 2.125-1.354.325-.253.568-.492.729-.718.185-.26.28-.54.284-.84.003-.298-.093-.596-.287-.892-.269-.414-.711-.84-1.328-1.28l.344-.482 5.797 4.134m5.64 27.295l-.283.52-9.953-5.444.284-.52.632.346c.552.302 1.05.447 1.494.435.315.002.625-.12.93-.367.226-.168.6-.73 1.122-1.684l6.848-12.522c.532-.974.814-1.61.844-1.91.03-.3-.066-.625-.287-.977-.206-.356-.576-.68-1.11-.972l-.631-.345.284-.52 9.953 5.444-.284.519-.632-.346c-.552-.301-1.05-.446-1.495-.434-.315-.002-.63.118-.944.359-.226.168-.6.73-1.122 1.684l-6.848 12.522c-.532.974-.813 1.61-.843 1.91-.02.304.072.635.278.99.221.353.599.675 1.132.966l.632.346m36.36-8.528l-2.566 7.204-.558-.198c.028-2.21-.448-4.067-1.43-5.571-.981-1.505-2.27-2.541-3.868-3.11-1.528-.544-2.953-.565-4.275-.062-1.32.492-2.464 1.432-3.434 2.819a18.891 18.891 0 0 0-2.318 4.507c-.698 1.96-1.08 3.76-1.143 5.402s.293 2.992 1.071 4.05c.788 1.062 1.89 1.846 3.307 2.35a8.304 8.304 0 0 0 1.561.386c.562.076 1.15.11 1.764.102l1.514-4.25c.287-.804.416-1.341.387-1.612-.024-.28-.178-.579-.462-.895-.274-.313-.657-.557-1.15-.732l-.527-.188.199-.557 9.933 3.537-.199.558c-.771-.218-1.337-.3-1.695-.247-.345.047-.663.223-.952.527-.159.159-.37.61-.635 1.353l-1.514 4.25c-1.514.118-3.031.07-4.552-.143-1.514-.2-3.03-.57-4.547-1.11-1.94-.69-3.459-1.526-4.559-2.507a13.216 13.216 0 0 1-2.65-3.288c-.667-1.211-1.086-2.453-1.255-3.725-.21-1.637-.008-3.315.604-5.033 1.095-3.075 3.1-5.288 6.016-6.638 2.915-1.351 6.01-1.443 9.287-.276 1.015.361 1.9.767 2.657 1.218.413.238 1.045.723 1.893 1.456.863.726 1.384 1.121 1.565 1.186.281.1.578.092.891-.023.316-.125.677-.438 1.082-.94l.558.2m15.318 24.586l-.089.586-11.216-1.7.089-.585.712.108c.622.095 1.14.06 1.553-.104.296-.106.546-.328.748-.664.154-.235.313-.89.476-1.967l2.137-14.11c.166-1.097.212-1.792.138-2.084-.075-.291-.276-.565-.604-.82-.316-.263-.775-.44-1.376-.531l-.712-.108.089-.585 11.216 1.699-.09.585-.71-.108c-.623-.094-1.14-.06-1.554.105-.297.106-.551.326-.764.66-.154.236-.313.892-.476 1.968l-2.137 14.11c-.166 1.097-.212 1.792-.138 2.083.085.294.286.572.602.836.328.255.793.428 1.394.519l.712.107m29.114-7.072l-.427 7.648-19.24.982-.03-.592.72-.036c.628-.032 1.129-.17 1.5-.413.27-.164.47-.43.6-.8.105-.262.13-.936.074-2.022l-.728-14.253c-.056-1.108-.15-1.797-.281-2.068-.132-.271-.384-.499-.756-.683-.363-.195-.847-.277-1.455-.246l-.719.037-.03-.592 11.553-.59.03.592-.942.048c-.629.032-1.13.17-1.501.413-.27.164-.475.43-.616.8-.104.262-.129.936-.073 2.023l.704 13.806c.057 1.108.157 1.813.3 2.116.143.291.405.502.786.632.27.083.918.098 1.94.046l1.806-.093c1.15-.058 2.099-.31 2.845-.754.747-.444 1.374-1.116 1.884-2.018.52-.903.987-2.219 1.4-3.949l.656-.033m21.045-3.651l-7.344 2.193-.269 2.285c-.085.76-.061 1.36.07 1.8.174.582.537.941 1.09 1.076.325.082 1.04.001 2.149-.24l.17.567-6.915 2.065-.17-.567c.713-.336 1.235-.825 1.566-1.47.327-.654.607-1.879.839-3.674l2.48-18.809.291-.087 12.59 14.808c1.197 1.401 2.089 2.243 2.674 2.524.442.214.987.25 1.636.113l.17.567-10.057 3.004-.17-.567.414-.124c.808-.24 1.341-.523 1.601-.845.176-.23.218-.5.127-.806a1.962 1.962 0 0 0-.262-.54c-.048-.086-.315-.423-.803-1.012l-1.878-2.261m-.86-.98l-5.236-6.233-1.05 8.112 6.286-1.878m27.726-28.253l2.78 5.172-.507.273c-.942-1.032-1.735-1.708-2.38-2.027-.649-.33-1.376-.477-2.181-.444-.448.023-1.119.274-2.011.754l-1.423.765 7.925 14.741c.525.977.905 1.56 1.14 1.75.244.183.571.285.982.306.416.007.896-.136 1.44-.429l.635-.34.28.52-10.006 5.38-.28-.521.634-.341c.554-.298.948-.637 1.18-1.016.173-.263.245-.592.214-.987-.018-.281-.284-.9-.8-1.86l-7.925-14.74-1.38.742c-1.288.692-2.076 1.467-2.366 2.325-.408 1.2-.341 2.564.2 4.09l-.535.287-2.78-5.172 17.163-9.228m13.014-7.716l5.319 7.05.345-.26c1.098-.828 1.634-1.773 1.608-2.836s-.479-2.317-1.358-3.766l.486-.366 6.84 9.07-.485.366c-.847-.911-1.674-1.556-2.482-1.936-.799-.386-1.496-.522-2.09-.407-.602.106-1.316.47-2.142 1.094l3.681 4.88c.72.953 1.198 1.508 1.435 1.663.246.148.53.207.855.176.324-.03.733-.232 1.227-.605l1.035-.78c1.618-1.22 2.63-2.571 3.035-4.053.414-1.488.256-3.16-.475-5.013l.473-.357 3.374 6.093-14.971 11.292-.357-.472.575-.434c.502-.379.84-.773 1.011-1.183.132-.287.148-.62.049-.999-.06-.275-.419-.847-1.074-1.715l-8.595-11.394c-.59-.784-.975-1.249-1.152-1.396a1.531 1.531 0 0 0-.993-.333c-.503.006-1.036.22-1.598.645l-.575.433-.357-.473 14.498-10.936 3.864 5.123-.485.366c-1.191-1.066-2.218-1.7-3.08-1.905-.855-.211-1.787-.136-2.797.225-.592.206-1.544.804-2.856 1.794l-1.788 1.348"/><path id="path2329" d="M664.42 374.87c70.909 57.515 140.41 58.57 208.41 0" fill="none"/></g></g></svg>