<svg id="svg548" xmlns="http://www.w3.org/2000/svg" height="480" width="640"><g id="flag" fill-rule="evenodd" stroke-width="1pt"><path id="rect551" fill="red" d="M0 0h640v480H0z"/><g id="g3051" transform="scale(1.3126)"><path id="rect552" fill="#00006b" d="M0 0h239.53v119.77H0z"/><g id="g4187" transform="translate(114.71 5.628) scale(.42837)" fill="#fff"><path id="polygon553" transform="matrix(.62565 0 0 .65463 -132.68 100.69)" d="M246.75 218.42l-35.44-22.86-33.97 23.24 10.79-40.77-32.61-25.13 42.12-2.33 13.82-38.78 15.23 39.33 41.15 1.16-32.7 26.65z"/><path id="polygon555" transform="matrix(1.1939 0 0 1.2544 -278.4 12.56)" d="M248.18 42.711l-14.86-9.088-14.59 9.019 4.05-16.946-13.08-11.083 17.37-1.385 6.49-15.868 6.69 16.09 17.1 1.276-13.24 11.329z"/><path id="polygon556" transform="matrix(1.1891 0 0 1.2384 -355.61 77.249)" d="M248.18 42.614l-14.52-9.565-14.84 9.563 4.62-16.764-13.68-11.156 17.36-.795 6.39-16.458 6.12 16.272 17.62.985-13.58 10.852z"/><path id="polygon557" transform="matrix(1.1148 0 0 1.161 -180.05 66.37)" d="M248.24 42.53l-14.86-9.204-14.46 9.317 4.16-16.978-13.32-10.869 17.43-1.289 6.22-16.035 6.61 16.182 17.17.958-13.34 11.29z"/><path id="polygon558" transform="matrix(.74318 0 0 .77399 -134.25 129.31)" d="M248.4 42.789l-14.86-8.887-14.81 8.976 3.86-16.881-13.12-11.315 17.25-1.546 6.71-15.97 6.8 15.926 17.26 1.446-13.05 11.388z"/></g></g></g></svg>