<svg id="svg548" xmlns="http://www.w3.org/2000/svg" height="480" width="640" version="1"><defs id="defs550"><clipPath id="clipPath3532"><path id="rect3534" fill-opacity=".67" d="M-71.873-.012h682.68v512.01h-682.68z"/></clipPath></defs><g id="flag" clip-path="url(#clipPath3532)" transform="translate(67.379 .011) scale(.93748)"><g id="g603" fill-rule="evenodd" stroke-width="1pt" transform="matrix(2.0478 0 0 2.0484 -148.57 -1592.2)"><path id="path581" d="M37.451 976.39V828.27l110.28 74.022-110.28 74.103z"/><path id="path597" d="M112.7 1027.3l123.81-83.306h175.98v83.306H112.7z" fill="#00c"/><path id="path598" d="M104.74 777.32l307.74.006v83.32H236.5s-130.11-84.15-131.76-83.326z" fill="red"/><path id="path599" d="M37.451 808.57v19.688l110.28 74.022-110.28 74.103v19.687l138.9-93.79-138.9-93.71z" fill="#fc0"/><path id="path600" d="M37.451 808.57v-31.25h46.338l147.14 99.531h181.55v50.899h-181.55l-147.14 99.517H37.451V996.07l138.9-93.79-138.9-93.71z" fill="#093"/><path id="path601" d="M83.789 777.32h28.906l123.81 83.32h175.98v16.211h-181.55L83.795 777.32z" fill="#fff"/><path id="path602" d="M83.789 1027.3h28.906l123.81-83.306h175.98v-16.211h-181.55L83.795 1027.3z" fill="#fff"/></g></g></svg>