<svg id="svg548" xmlns="http://www.w3.org/2000/svg" height="480" width="640"><defs id="defs550"><clipPath id="clipPath3439"><path id="rect3441" fill-opacity=".67" d="M-170.67 0H512v512h-682.67z"/></clipPath></defs><g id="flag" fill-rule="evenodd" clip-path="url(#clipPath3439)" transform="translate(160) scale(.9375)"><path id="rect626" stroke-width="1pt" fill="#198a00" d="M-256 0h768v512h-768z"/><path id="rect616" stroke-width="1pt" fill="#ef7d00" d="M421.87 183.94h90.126v328.03H421.87z"/><path id="rect617" stroke-width="1pt" d="M331.85 183.78h90.029v328.1H331.85z"/><path id="rect618" stroke-width="1pt" fill="#de2010" d="M239.95 183.98h91.935V512H239.95z"/><g id="g600" stroke="#000" fill="#ef7d00" transform="translate(-222.45 4.582) scale(.99757)"><path id="path564" stroke-linejoin="round" d="M675.702 61.156s34-14.528 37.294-17.524c1.498 1.798-13.63 20.07-42.985 26.81 26.66-6.29 49.426-26.06 54.069-25.462 1.348.3 1.048 19.322-60.06 35.797 42.236-11.084 66.8-31.453 66.5-29.207.3.45-4.194 16.026-41.188 28.158 10.335-2.397 38.342-19.47 38.043-16.175.898 1.348-27.11 37.293-77.73 25.611 40.44 10.484 66.65-14.828 70.394-14.378.749.15-7.49 22.166-58.412 23.514 24.414-2.546 17.373-.15 17.373-.15s-14.378 11.233-31.752 3.595c13.63 3.745 15.127 3.894 15.427 5.092-.899 1.498-12.132 3.745-22.915-2.097 8.686 3.595 16.475 4.194 16.624 5.542-.15.45-5.69 3.595-10.633 1.349-4.943-2.248-50.475-30.255-50.475-30.255l77.581-21.269 2.845 1.049z" stroke-width=".996"/><path id="path560" stroke-linejoin="round" d="M584.492 136.92c-6.822 0-7.01 6.07-7.01 6.07s-.563.439-.188 3.382c1.126-2.004 1.69-2.63 1.69-2.63.752.125 3.88 1.064 8.826-2.816-4.508 4.693-1.815 6.446-1.815 6.446s-1.065 3.693 2.378 4.445c-1.064-1.503-.438-2.817-.438-2.817s4.82-.5 4.506-6.384c.189 5.32 3.068 6.634 3.068 6.634s0 2.942 3.129 3.193c-1.69-1.503-1.315-3.819-1.315-3.819s4.07-2.942.626-7.95c2.066-1.189 3.756-4.506 3.756-4.506s-2.816-1.19-4.13-2.19c-.627-1.315-.063-8.513-.063-8.513l-1.69-9.327-4.82 14.522c.187-2.065.312 6.26-6.51 6.26z" stroke-width=".996"/><path id="path563" stroke-linejoin="round" d="M618.19 115.971c.148.15 5.092 5.692 9.884 5.392 1.797-1.497-3.744-4.792-3.744-5.541 1.947 1.797 10.184 8.836 15.427 6.29 2.096-2.995-3.745-2.546-10.185-10.634 4.492 2.996 15.726 9.586 20.968 7.04 2.247-2.397-11.682-9.886-16.325-15.727l-11.982-6.14-16.326 13.33 12.282 5.99z" stroke-width=".996"/><path id="path562" stroke-linejoin="round" d="M599.765 70.442s5.541-3.295 27.708-1.647c2.397.3 15.127-4.344 19.171-5.692 6.44-1.198 26.96-5.691 32.501-9.885 3.894-.45-1.049 7.19-5.99 8.987-5.243 2.396-24.264 8.986-31.005 8.088 8.089.15 3.596 6.74-9.885 3.595 6.441 3.594 4.044 4.193 4.044 4.193s-11.382.6-14.378-1.947c7.639 2.846 4.493 3.894 4.493 3.894s-7.788.75-11.383-.898c5.542 1.647 2.696 2.696 2.696 2.696s-4.493.748-8.237-.6c-3.744-1.347-9.436-10.783-9.735-10.783z" stroke-linecap="round" stroke-width=".996"/><path id="path561" stroke-linejoin="round" d="M608.652 119.078l.814 14.647s-.438.751-.814 1.19c-.376.437-10.39-1.566-9.013 6.07 0 3.13.062 3.944 2.19 5.696-.563-2.065-.375-3.504-.375-3.504s2.816 1.69 5.57-2.942c-1.877 4.569-.563 6.196-.125 6.322.439.814-.75 4.506 3.005 4.443-1.44-1.377-.75-3.38-.75-3.38s3.942-.625 2.565-7.76c1.44-1.44 2.003-.064 2.003-.064s.438 4.257 3.88 3.38c1.566.877-.25 3.193-.25 3.193s2.504.062 3.255-2.066c.752-2.128 1.628-5.946-2.504-7.511-.5-1.502 1.628-1.627 1.628-1.627s2.63.876 3.38 2.19c.751 1.314.5-3.442-2.754-3.943-4.006-.126-4.256-.939-4.256-1.126 0-.189-.689-10.641-1.002-13.646l-6.447.438z" stroke-width=".996"/><path id="path553" stroke-linejoin="round" d="M622.588 131.557c.05-.671-6.834-9.938-5.087-11.136 1.745.359 4.607 4.574 6.926 3.206-.702-1.643-2.774-.718-5.127-4.924-2.351-4.755-2.695-11.893-10.932-19.68 5.333 8.24 17.43 13.07 17.943 10.667s-10.653-11.487-10.08-13.677c2.22 4.496 13.43 14.516 21.69 13.686.566-1.929-6.764-5.822-8.65-9.458-5.277-3.544-19.397-15.716-19.68-18.538-5.138-7.494-8.346-9.761-9.84-10.625-.577-.68-.722-1.33-.835-1.743-3.19-7.52 1.035-9.961 3.508-10.323 2.035-.226 2.626.079 4.09-.63-1.734-.679-3.467-1.313-5.2-1.992 2.26 1.659 8.035.199 6.783 4.975 2.532-.963 7.919-7.372-6.105-8.818-4.564-5.236-23.328-8.245-28.025 14.606.375.32.571.584 1.765 1.475-5.93-2.866-21.912-5.08-27.67-6.011-15.564-4.49-31.726-15.31-33.279-13.98-2.078.922 9.402 11.603 8.805 11.84-9.954-5.804-19.048-9.916-27.509-13.659-5.953-2.225-11.915-7.405-12.572-6.42-2.19 4.538 9.543 15.947 11.726 17.288 2.183 1.284 19.35 9.247 19.097 9.347-25.856-11.737-30.192-13.864-31.489-15.217-2.28-.514-7.831-8.009-9.378-7.527-.847.832.852 12.676 13.19 17.992 2.012 1.466 26.449 10.233 26.21 10.92-.06.172-27.99-11.528-29.075-11.946-5.385-2.112-11.992-9.513-13.227-8.68-1.18.755 3.046 8.766 8.487 11.278 2.852 1.26 13.792 6.678 23.648 10.126.63.227-17.716-6.957-26.537-10.643-3.999-2.22-5.882-4.986-6.492-4.391-.9.595 1.456 12.43 29.8 19.107.747.318 9.978-2.187 9.522-1.855-.114.083-9.166 2.054-10.047 1.987-.785-.12-5.744.587-5.833.844-.3.8 1.796 5.038 16.431 4.154 1.871-.113 12.024-3.698 11.171-2.926-.426.385-13.826 4.74-14.846 4.825-.886.126-5.593.618-5.767 1.118-.213.683 3.484 3.7 11.343 4.182 6.959.37 20.182-4.252 19.917-3.952-.266.3-12.747 4.577-13.074 4.837-.452.256-5.023.504-5.183.855-.372.873 6.593 7.387 27.194.435-2.07 2.795-12.055 4.707-12.04 5.21-.047.366 2.2 2.536 5.69 3.313 1.746.388 4.135.309 6.318-.036 3.921-.785 8.053-2.336 13.304-7.188.627 1.523-13.115 8.477-12.47 9.14 2.98 2.763 12.878-.356 13.526-.718.65-.363 19.062-10.746 18.998-11.947.286 1.54-23.738 14.594-23.479 15.129 1.543 2.46 9.75-.13 10.142-.355.391-.226 10.473-5.673 10.75-5.833.275-.16-11.85 7.096-10.77 8.2-.522 4.713 18.936-3.252 20.461-4.244.763-.495-9.347 4.446-9.374 6.793 3.255 5.504 13.68 3.758 15.287 2.547.805-.605-.946 4.09-.382 3.663.197-.088 2.267-2.537 3.064-4.31-.254 1.538-1.397 3.961-2.064 6.74-.668 2.78-.859 5.917-1.775 9.25-.21 1.463 6.423-2.862 5.46-13.203.568 5.379-2.095 15.436-1.398 15.959 1.394 1.046 5.246-5.009 5.636-9.103 1.144 2.068 3.545 6.385 5.61 7.378-.224-3.129.04-2.985-.89-6.06.536-4.082.611-9.732.741-16.111 5.613 10.753 7.852 15.293 6.284 23.528 1.67.696 4.335-5.748 4.12-9.064 2.144 9.215 11.395 10.597 11.542 10.329z" stroke-linecap="round" stroke-width="1.062"/><path id="path555" stroke-linejoin="round" d="M529.092 63.291s-3.821 2.887-8.576 2.717c1.189 4.755 11.038 1.104 11.038 1.104s-4.755 5.264-8.151 6.113c2.038 1.698 10.612 1.103 12.056.254 1.443-.849 3.99-4.16 3.99-4.16s-8.83 10.188-10.104 10.103c-.17 1.189 9.255.764 11.208-1.018 1.952-1.783 6.877-4.415 6.877-4.415s-12.905 8.999-13.5 8.999c4.84 1.274 14.519-1.528 20.717-5.349-9.17 6.113-10.018 7.217-14.688 9.254 4.16.934 6.282 3.736 20.376-2.377 8.066-3.82 12.65-10.783 12.65-10.783-5.009 6.707-12.905 12.396-21.65 18-.51 1.018 9.34 5.178 21.905-7.897" stroke-linecap="round" stroke-width="1.062"/><path id="path556" d="M597.353 91.647s.849 3.99 4.245 7.047c3.396 3.056 3.65 6.028 3.65 6.028" stroke-linecap="round" stroke-width="1.062"/><path id="path557" d="M595.657 65.668s1.188 3.566 4.67 5.859c3.566 2.292 8.915 9.508 9.34 10.782.41 1.542 2.46 12.65 2.291 13.84" stroke-linecap="round" stroke-width="1.062"/><path id="path558" d="M574.007 71.187c.254 1.358-5.01 8.235 2.206 16.3-6.537 7.98-6.537 9-6.537 9s3.651 2.037 10.189-3.566c10.782 13.245 7.189 19.306 7.189 19.306" stroke-linecap="round" stroke-width="1.062"/><path id="path559" stroke-linejoin="round" d="M586.195 102.88s-.993-1.424.777-6.736c1.595 1.92 3.368 2.33 4.145 3.108.777.777 8.918 1.956 9.436 7.396" stroke-linecap="round" stroke-width="1.062"/><path id="path552" d="M595.762 53.009c0-.4-1.64-3.917-7.755.48 3.278.2 6.515 2.078 7.755-.48z" stroke-width="1.062"/><path id="path565" stroke-linejoin="round" d="M654.134 69.094c.3.15 18.273 4.044 24.264 2.097-7.639 10.184-22.916 3.295-22.916 3.295 7.489 2.247 7.789 2.097 10.185 4.194.749 1.947-13.78 1.048-18.573-1.648 13.33 4.194 13.63 3.894 14.08 5.542.6 2.246-21.868-.6-23.815-3.595 5.992 4.643 9.287 5.542 12.582 7.639-4.045 1.797-11.533 3.594-25.313-6.141 18.123 16.475 34.449 15.427 36.995 18.422-6.29 9.286-30.704-5.541-41.937-13.03-11.233-7.49 24.563 18.122 27.859 17.672-1.649 2.546-13.48.3-14.23-.898" stroke-width="1.062"/><path id="path566" d="M658.78 86.318c-2.097.3-8.388.3-9.286.15" stroke-linecap="round" stroke-width="1.062"/><path id="path554" stroke-linejoin="round" d="M523.828 60.574s13.67 7.217 19.442 6.707c-1.528 1.444-3.82 2.038-3.82 2.038 1.443.594 5.433 2.717 11.462 1.358-1.444 1.444-3.312 3.057-3.312 3.057s5.18 1.953 11.038-1.104c-1.783 2.208-2.803 3.82-2.803 3.82l4.076.256" stroke-linecap="round" stroke-width="1.062"/></g></g></svg>