<svg id="svg559" xmlns="http://www.w3.org/2000/svg" height="480" width="640"><defs id="defs561"><clipPath id="clipPath3283"><path id="rect3285" fill-opacity=".67" d="M0 0h682.67v512H0z"/></clipPath></defs><g id="flag" clip-path="url(#clipPath3283)" transform="scale(.9375)"><path id="rect608" fill-rule="evenodd" stroke-width="1pt" fill="#319208" d="M0 438.86h1024v73.143H0z"/><path id="rect612" fill-rule="evenodd" stroke-width="1pt" fill="#de2010" d="M0 292.57h1024v73.143H0z"/><path id="rect611" fill-rule="evenodd" stroke-width="1pt" fill="#ffd200" d="M0 365.71h1024v73.143H0z"/><path id="rect614" fill-rule="evenodd" stroke-width="1pt" fill="#de2010" d="M0 146.29h1024v73.143H0z"/><path id="rect615" fill-rule="evenodd" stroke-width="1pt" fill="#ffd200" d="M0 73.143h1024v73.143H0z"/><path id="rect616" fill-rule="evenodd" stroke-width="1pt" fill="#319208" d="M0 0h1024v73.143H0z"/><path id="path623" d="M28.891 0v512l343.77-256L28.891 0z" fill-rule="evenodd" stroke-width="1pt"/><path id="rect621" fill-rule="evenodd" stroke-width="1pt" d="M0 0h29.257v512H0z"/><path id="path620" d="M0 0v512l373.03-256L0 0z" fill-rule="evenodd" stroke-width="1pt"/><path id="rect613" fill-rule="evenodd" stroke-width="1pt" d="M0 219.43h1024v73.143H0z"/><path id="path617" d="M0 0v512l343.77-256L0 0z" fill-rule="evenodd" stroke-width="1pt" fill="#fff"/><g id="g584" transform="translate(-510.11 -15.114) scale(1.0321)"><path id="polygon583" fill="#d62419" fill-rule="evenodd" transform="rotate(4.101 580.289 26.069) scale(1.02472)" stroke-width="1pt" d="M613.94 119.54l31.83 83.38 91.92-5.78-69.47 56.04 33.91 85.62-74.76-48.75-70.96 58.71 23.26-86.17-77.77-49.34 89.15-4.51z"/><path id="path564" d="M542.73 175.7c1.606-2.892 1.927-4.499 10.282-8.034 10.925-31.811 38.881-19.279 54.305 24.743 14.138 6.105 98.648 69.085 97.363 72.62-.643 3.213-11.247.643-11.247.643s-16.709 71.335-17.03 71.335c-31.17-4.177-79.69-4.82-112.79-4.177.321-5.463-8.997-41.131-8.997-41.131s-8.034-2.57 5.462-29.883c14.46-34.382 17.352-90.294-17.351-86.116z" fill-rule="evenodd" stroke="#000" stroke-width="1.422" fill="#f7df00"/><path id="path565" d="M571.32 162.84a3.535 3.535 0 1 1-7.07 0 3.535 3.535 0 0 1 7.07 0z" stroke="#000" stroke-width="1.422" fill="none"/><path id="path566" d="M606.35 192.41s-27.635 15.745-35.668 15.423" stroke="#000" stroke-width="1.422" fill="none"/><path id="path567" d="M693.43 265.67c-1.928-1.607-102.5-6.427-98.327-40.488" stroke="#000" stroke-width="1.422" fill="none"/><path id="path568" d="M611.17 266.31s10.925 6.427 20.243-10.282" stroke="#000" stroke-width="1.422" fill="none"/><path id="path569" d="M623.38 265.99s7.712 7.069 18.959-8.354" stroke="#000" stroke-width="1.422" fill="none"/><path id="path570" d="M554.94 291.7s7.069.964 8.355-3.213" stroke="#000" stroke-width="1.422" fill="none"/><path id="path571" d="M588.35 333.15c0-.321-7.069-45.629-7.069-45.629 34.918 3.106 71.121 3.321 104.75 9.319" stroke="#000" stroke-width="1.422" fill="none"/><path id="path572" d="M584.82 288.16l9.639 11.246 9.962-9.64 8.354 8.998" stroke="#000" stroke-width="1.422" fill="none"/><path id="path573" d="M615.35 299.09l8.354-7.391 8.998 8.676" stroke="#000" stroke-width="1.422" fill="none"/><path id="path574" d="M634.3 300.37l9.319-8.354 7.069 8.355" stroke="#000" stroke-width="1.422" fill="none"/><path id="path575" d="M654.55 300.7l8.355-5.784 7.39 7.069" stroke="#000" stroke-width="1.422" fill="none"/><path id="path576" d="M676.08 301.66l6.105-5.784" stroke="#000" stroke-width="1.422" fill="none"/><path id="path577" d="M583.21 298.44l10.283 11.89 10.282-9.319 8.997 9.64 10.283-8.997 8.676 10.282 10.604-8.997s8.033 9.961 8.997 9.961 10.604-8.354 10.604-8.354l9.319 10.282 12.852-10.282" stroke="#000" stroke-width="1.422" fill="none"/><path id="path578" d="M584.82 310.01s82.903 3.214 96.398 6.427" stroke="#000" stroke-width="1.422" fill="none"/><path id="path579" d="M598.64 272.42s78.725 4.177 91.257 8.997" stroke="#000" stroke-width="1.422" fill="none"/><path id="path580" d="M582.57 239.64c.643 4.82-5.141 21.529-11.246 27.313-8.355 6.748-7.391 20.886-7.391 20.886.964 5.784 13.496 5.141 15.103 2.25 1.285-13.175 15.423-16.067 15.423-16.067s19.602-5.462 27.956-21.85" stroke="#000" stroke-width="1.422" fill="none"/><path id="path581" d="M622.09 281.41a4.177 4.177 0 1 1-8.355 0 4.177 4.177 0 0 1 8.355 0z" stroke="#000" stroke-width="1.422" fill="none"/><path id="path582" d="M640.73 283.02a4.177 4.177 0 1 1-8.355 0 4.177 4.177 0 0 1 8.355 0z" stroke="#000" stroke-width="1.422" fill="none"/></g></g></svg>