<svg id="Layer_1" xmlns="http://www.w3.org/2000/svg" width="430" height="80" viewBox="0 0 430 80"><path d="M429.2 40.5H93c-.2 0-.4-.2-.4-.5s.2-.5.4-.5h336.2c.2 0 .4.2.4.5s-.2.5-.4.5M398.8 4.2c5.9 0 9.2 2.9 9.2 8.1 0 4.9-3.2 7.8-8.6 7.8h-3.8v7.5h-5V4.2m5.1 11.8h3c2.9 0 4.3-1.3 4.3-3.8s-1.6-3.9-4.5-3.9h-2.8V16zm-14.2 2.2c0 3.4-1.3 5.1-4 5.1s-4.1-1.7-4.1-5.1v-14h-5v13.7c0 3.3.8 5.9 2.5 7.6 1.5 1.6 3.8 2.3 6.6 2.3 4.1 0 9-1.7 9-9.9V4.2h-5v14zM354.8 4c5.1 0 10.4 3.1 10.4 11.9 0 8.7-5.4 11.9-10.4 11.9-5.1 0-10.5-3.1-10.5-11.9S349.7 4 354.8 4m0 19.4c2 0 5.3-1 5.3-7.5s-3.3-7.5-5.3-7.5c-3.4 0-5.3 2.7-5.3 7.5s1.9 7.5 5.3 7.5m-15.6-2.9c.8 1.7 1.5 3.1 3.2 3.1h1.2v3.8h-.2s-.9.2-2.4.2c-3.9 0-5.1-2.7-6.2-5.1-.9-2-1.6-3.7-3.7-3.7h-2.2v8.6h-5V4.2h8.3c6.1 0 8.9 2.4 8.9 7.4 0 3.1-1.9 5.1-3.8 5.9.8.8 1.4 1.9 1.9 3m-10.3-5.4h2.8c2.8 0 4.5-1.3 4.5-3.4 0-2.2-1.5-3.4-4.1-3.4H329v6.8zM310.6 19h5.1v.3c0 1.5-.5 4.1-4.1 4.1-3.4 0-5.4-2.8-5.4-7.4 0-4.8 1.9-7.5 5.3-7.5 4 0 4.1 4.1 4.2 4.2v.3l4.6-.7V12c0-1.7-1.5-8-8.9-8-6.6 0-10.4 4.3-10.4 11.9 0 7.4 3.9 11.9 10.4 11.9 6.6 0 8.9-4.6 8.9-8.5v-4.1h-9.8V19zM295.7 4.2h-5.9L282 14.7V4.2h-5v23.4h5V16.8l7.9 10.8h6l-9.1-11.8 8.9-11.6zm-28.2 14.4l-8.2-14.4h-5.1v23.4h5v-14l8.1 13.9h5.1V4.2h-5v14.4zM244.4 4.3l8.5 23.2h-5.2l-2-5.7H238l-1.9 5.7h-5.2l8.6-23.4h4.9v.2zm-2.5 6.3l-2.5 7.4h5.1l-2.6-7.4zm-15.7 4.7c1.8.5 4.1 2.2 4.1 5.7 0 4.2-3 6.7-8.2 6.7h-9.9V4.2h8.9c5.1 0 7.6 2.1 7.6 6.3.1 3.2-1.3 4.4-2.5 4.8m-5.5-1.5c2.1 0 3-.9 3-2.7 0-1.8-1.2-2.7-3.7-2.7h-2.8v5.4h3.5zm-3.4 9.6h3.9c2.5 0 3.7-1 3.7-3 0-2.5-2.1-3-3.8-3h-3.8v6zM191.8 4.2c7.3 0 11.6 4.5 11.6 12.1 0 7.2-3.9 11.3-10.6 11.3h-7.9V4.2h6.9zm-2 19.2h2.9c3.6 0 5.7-2.7 5.7-7.2 0-5.2-2.3-7.9-6.7-7.9h-1.9v15.1zM172.4 4.2h-5v23.4h15.1v-4.1h-10.1V4.2zm-11.7 16.3c.8 1.7 1.5 3.1 3.2 3.1h1.2v3.8h-.2s-.9.2-2.4.2c-3.9 0-5.1-2.7-6.2-5.1-.9-2-1.6-3.7-3.7-3.7h-2.2v8.6h-5V4.2h8.3c6.1 0 8.9 2.4 8.9 7.4 0 3.1-1.9 5.1-3.8 5.9.8.8 1.4 1.9 1.9 3m-10.3-5.4h2.8c2.8 0 4.5-1.3 4.5-3.4 0-2.2-1.5-3.4-4.1-3.4h-3.1v6.8zM132.1 4c5.1 0 10.4 3.1 10.4 11.9 0 8.7-5.4 11.9-10.4 11.9-5.1 0-10.5-3.1-10.5-11.9S127 4 132.1 4m0 19.4c2 0 5.3-1 5.3-7.5s-3.3-7.5-5.3-7.5c-3.4 0-5.3 2.7-5.3 7.5s1.9 7.5 5.3 7.5M115.3 4.2h5.6l-6.7 23.4h-5.6l-4.1-14.7-4.1 14.7h-5.6L88 4.2h5.8l3.9 17.1 4.7-17.1h4.2l4.6 17.1 4.1-17.1zm153.2 49.1h7.3v23.2h-7.3zm9.8-.1h16.2v5.6h-9v3.8h8v5.6h-8v8.2h-7.2m33.7-.6c-1.4.5-3.4.9-5.2.9-6.3 0-11.3-4.1-11.3-12.3 0-7.8 5.3-11.6 11.3-11.6 2 0 3.2.3 5.2.7v6.1c-1.2-.5-2.4-.9-3.6-.9-3.1 0-5.4 2-5.4 5.8 0 4 2.2 6 5.2 6 1.3 0 2.6-.3 3.9-.9m14-13.1h1.9v7h-1.9zm3.1 1.8h1.7v1c.4-.8 1.1-1.1 1.9-1.1 1.4 0 2 1 2 2.1v3.3H333V61c0-1-.3-1.3-.8-1.3-.7 0-1.1.5-1.1 1.6v2.2h-1.8m6.1-5.2h1.1v-1.2l1.8-.6v1.7h1.3v1.3h-1.3v1.9c0 .6.2 1 .7 1 .2 0 .4 0 .6-.1l.1 1.2c-.3 0-.7.1-1.1.1-1.6 0-2-.7-2-2v-2.1h-1m6.2 2c.1.7.7 1 1.5 1 .5 0 1.1-.1 1.6-.4v1.3c-.6.2-1.2.3-1.9.3-1.7 0-3.1-1-3.1-2.8 0-1.7 1.2-2.7 2.8-2.7 1.9 0 2.7 1.4 2.7 2.9v.3m-1.6-1c0-.6-.3-1.1-1-1.1s-1 .5-1 1.1h2zm6.2-.6c-.2-.1-.4-.1-.6-.1-.8 0-1.3.6-1.3 1.6v2.2h-1.8v-5.3h1.7v1c.3-.7.8-1.1 1.6-1.1.2 0 .4 0 .6.1m.6.1h1.7v1c.4-.8 1.1-1.1 1.9-1.1 1.4 0 2 1 2 2.1v3.3h-1.8V61c0-1-.3-1.3-.8-1.3-.7 0-1.1.5-1.1 1.6v2.2h-1.8m10 .1v-.8c-.4.7-.9.9-1.7.9-1 0-2-.5-2-1.7 0-1.6 1.7-1.8 2.7-1.8.3 0 .6 0 .8.1 0-.7-.5-.9-1.2-.9-.6 0-1.2.1-1.7.4v-1.2c.6-.3 1.3-.4 2.1-.4 1.3 0 2.5.6 2.5 2.2v2c0 .4 0 .8.1 1.2m-2.9-1.1c.7 0 1.1-.6 1.1-1.2h-.8c-.6 0-1.1.2-1.1.7.1.3.4.5.8.5m3.4-4.2h1.1v-1.2l1.8-.6v1.7h1.3v1.3h-1.3v1.9c0 .6.2 1 .7 1 .2 0 .4 0 .6-.1l.1 1.2c-.3 0-.7.1-1.1.1-1.6 0-2-.7-2-2v-2.1h-1m6.7-2h-1.8v-1.3h1.8m-1.8 2.1h1.8v5.3h-1.8v-5.3zm2.8 2.7c0-1.7 1.3-2.8 3.1-2.8 1.7 0 3.1 1 3.1 2.8 0 1.7-1.3 2.7-3.1 2.7s-3.1-1-3.1-2.7m4.2 0c0-.8-.3-1.5-1.2-1.5-.8 0-1.2.7-1.2 1.5s.3 1.5 1.2 1.5c.9-.1 1.2-.8 1.2-1.5m2.7-2.7h1.7v1c.4-.8 1.1-1.1 1.9-1.1 1.4 0 2 1 2 2.1v3.3h-1.8V61c0-1-.3-1.3-.8-1.3-.7 0-1.1.5-1.1 1.6v2.2h-1.8m9.9.1v-.8c-.4.7-.9.9-1.7.9-1 0-2-.5-2-1.7 0-1.6 1.7-1.8 2.7-1.8.3 0 .6 0 .8.1 0-.7-.5-.9-1.2-.9-.6 0-1.2.1-1.7.4v-1.2c.6-.3 1.3-.4 2.1-.4 1.3 0 2.5.6 2.5 2.2v2c0 .4 0 .8.1 1.2m-2.8-1.1c.7 0 1.1-.6 1.1-1.2h-.8c-.6 0-1.1.2-1.1.7 0 .3.3.5.8.5m4.1-6.5h1.8v7.6h-1.8zm-64.6 10.1h4.7v1.3H328V69h2.7v1.3H328v2.8h-1.9m7.5-6.1h-1.8v-1.3h1.8m-1.8 2.2h1.8v5.3h-1.8v-5.3zm3.1 0h1.7v1c.4-.8 1.1-1.1 1.9-1.1 1.4 0 2 1 2 2.1v3.3h-1.8v-2.5c0-1-.3-1.3-.8-1.3-.7 0-1.1.5-1.1 1.6v2.2H335m9.9-.1v-.8c-.4.7-.9.9-1.7.9-1 0-2-.5-2-1.7 0-1.6 1.7-1.8 2.7-1.8.3 0 .6 0 .8.1 0-.7-.5-.9-1.2-.9-.6 0-1.2.1-1.7.4v-1.2c.6-.3 1.3-.4 2.1-.4 1.3 0 2.5.6 2.5 2.2v2c0 .4 0 .8.1 1.2m-2.8-1.1c.7 0 1.1-.6 1.1-1.2h-.8c-.6 0-1.1.2-1.1.7 0 .3.4.5.8.5m3.9-4.1h1.7v1c.4-.8 1.1-1.1 1.9-1.1 1.4 0 2 1 2 2.1v3.3h-1.8v-2.5c0-1-.3-1.3-.8-1.3-.7 0-1.1.5-1.1 1.6v2.2h-1.8m10.6-3.8c-.3-.2-.7-.3-1.1-.3-.8 0-1.4.5-1.4 1.4 0 .8.7 1.4 1.5 1.4.4 0 .8-.1 1.1-.3V73c-.5.1-1 .2-1.5.2-1.7 0-3.1-1-3.1-2.7 0-1.7 1.3-2.8 3.1-2.8.5 0 1 .1 1.4.3m2.4 3c.1.7.7 1 1.5 1 .5 0 1.1-.1 1.6-.4v1.3c-.6.2-1.2.3-1.9.3-1.7 0-3.1-1-3.1-2.7 0-1.7 1.2-2.7 2.8-2.7 1.9 0 2.6 1.4 2.6 2.9v.3m-1.5-1c0-.6-.3-1.1-1-1.1s-1 .5-1 1.1h2zm11.4 3c-.5.1-1.1.3-2.1.3-1.9 0-4-.9-4-3.6 0-2.4 1.7-3.7 4-3.7.7 0 1.4.2 2.1.4l-.1 1.5c-.6-.3-1.2-.5-1.8-.5-1.3 0-2.2 1-2.2 2.3 0 1.4 1 2.2 2.3 2.2.6 0 1.2-.2 1.8-.4m.4-1c0-1.7 1.3-2.8 3.1-2.8s3.1 1 3.1 2.8c0 1.7-1.3 2.7-3.1 2.7s-3.1-1-3.1-2.7m4.3 0c0-.8-.3-1.5-1.2-1.5-.8 0-1.2.7-1.2 1.5s.3 1.5 1.2 1.5c.8 0 1.2-.7 1.2-1.5m6.4-1.2c-.2-.1-.4-.1-.6-.1-.8 0-1.3.6-1.3 1.6V73h-1.8v-5.3h1.6v1c.3-.7.8-1.1 1.6-1.1.2 0 .4 0 .6.1m.5.2h1.7v.9c.4-.7 1.1-1.1 2-1.1 1.5 0 2.2 1.4 2.2 2.7 0 1.5-.8 2.8-2.4 2.8-.6 0-1.3-.2-1.7-.9v2.9h-1.8m2.9-6.1c-.7 0-1.1.6-1.1 1.4 0 .8.5 1.3 1.1 1.3.7 0 1.1-.6 1.1-1.4 0-.6-.3-1.3-1.1-1.3m3.5 1.4c0-1.7 1.3-2.8 3.1-2.8 1.7 0 3.1 1 3.1 2.8 0 1.7-1.3 2.7-3.1 2.7-1.7.1-3.1-1-3.1-2.7m4.3 0c0-.8-.3-1.5-1.2-1.5-.8 0-1.2.7-1.2 1.5s.3 1.5 1.2 1.5c.8 0 1.2-.7 1.2-1.5m6.4-1.2c-.2-.1-.4-.1-.6-.1-.8 0-1.3.6-1.3 1.6V73h-1.8v-5.3h1.7v1c.3-.7.8-1.1 1.6-1.1.2 0 .4 0 .6.1m3.8 5.4v-.8c-.4.7-.9.9-1.7.9-1 0-2-.5-2-1.7 0-1.6 1.7-1.8 2.7-1.8.3 0 .6 0 .8.1 0-.7-.5-.9-1.2-.9-.6 0-1.2.1-1.7.4v-1.2c.6-.3 1.3-.4 2.1-.4 1.3 0 2.5.6 2.5 2.2v2c0 .4 0 .8.1 1.2m-2.8-1.1c.7 0 1.1-.6 1.1-1.2h-.8c-.6 0-1.1.2-1.1.7 0 .3.4.5.8.5m3.4-4.1h1.1v-1.2l1.8-.6v1.7h1.3v1.3H412V71c0 .6.2 1 .7 1 .2 0 .4 0 .6-.1l.1 1.2c-.3 0-.7.1-1.1.1-1.6 0-2-.7-2-2v-2.1h-1M416 67h-1.8v-1.3h1.8m-1.9 2.2h1.8v5.3h-1.8v-5.3zm2.8 2.6c0-1.7 1.3-2.8 3.1-2.8 1.7 0 3.1 1 3.1 2.8 0 1.7-1.3 2.7-3.1 2.7-1.7.1-3.1-1-3.1-2.7m4.3 0c0-.8-.3-1.5-1.2-1.5-.8 0-1.2.7-1.2 1.5s.3 1.5 1.2 1.5c.8 0 1.2-.7 1.2-1.5m2.6-2.6h1.7v1c.4-.8 1.1-1.1 1.9-1.1 1.4 0 2 1 2 2.1v3.3h-1.8v-2.5c0-1-.3-1.3-.8-1.3-.7 0-1.1.5-1.1 1.6v2.2h-1.8m-104.4 4.9c-.2 0-.3-.1-.3-.3v-26c0-.2.1-.3.3-.3.2 0 .3.1.3.3v26c.1.2-.1.3-.3.3M96.1 69.7h1.3v6.7h-1.3zm2.5 6.7v-6.7h2.5c1.4 0 2.2.5 2.2 1.8 0 1.2-.7 1.4-1 1.4.4 0 1.5.4 1.5 1.6 0 1.4-1.1 1.9-2.3 1.9m-.5-3.9c.7 0 1-.4 1-.9s-.4-.9-1.1-.9h-.9v1.7h1zm.1 2.8c.7 0 1.2-.2 1.2-.9s-.5-1-1.2-1h-1.2v1.9h1.2zm9 1.1s-.2.1-.7.1c-2 0-1.5-2.6-2.9-2.6h-.7v2.5h-1.3v-6.7h2.4c1.6 0 2.5.6 2.5 2.1 0 1-.6 1.5-1.2 1.7.7.6.7 1.9 1.6 1.9h.3m-3.4-2.5c.8 0 1.4-.4 1.4-1.1 0-.7-.5-1.1-1.3-1.1h-1v2.1h.9zm4 3.5v-6.7h2c1.8 0 3.3.9 3.3 3.5 0 2.4-1.4 3.2-3 3.2m-.1-1.1c1 0 1.7-.7 1.7-2.2 0-1.5-.6-2.4-2-2.4h-.6v4.6h.9zm7-.5c-.7 0-1.2-.6-1.2-1.2 0-.7.5-1.2 1.2-1.2s1.2.6 1.2 1.2c0 .7-.5 1.2-1.2 1.2m4.2-5.1h1.3v6.7h-1.3zm2.5 6.7v-6.7h2c1.8 0 3.3.9 3.3 3.5 0 2.4-1.4 3.2-3 3.2m0-1.1c1 0 1.7-.7 1.7-2.2 0-1.5-.6-2.4-2-2.4h-.6v4.6h.9zm7.4-.6h-2.4l-.6 1.7H132l2.5-6.7h1.3l2.5 6.7h-1.4m-2.6-2.7h1.7l-.9-2.4-.8 2.4zM92.6 53.4h9.9v2.1h-3.6v10.2h-2.7V55.5h-3.6m11.3 10.2V53.4h2.7v4.9h4.6v-4.9h2.7v12.3h-2.7v-5.4h-4.6v5.4m9.4-12.3h8.3v2.1h-5.6v2.8h5.2v2.1h-5.2v3.3h5.7v2H116m21.4-12.3h2.9l2.2 9.3 2-9.3h2.5l-3.1 12.3H141l-2.3-9.4-2.4 9.4h-3l-3-12.3h2.8l1.8 9.3h.1m12.9-3.1c0-3.6 1.8-6.4 5.9-6.4 4.1 0 5.9 2.8 5.9 6.4 0 3.6-1.8 6.4-5.9 6.4-4.1 0-5.9-2.8-5.9-6.4m2.8 0c0 2.1.5 4.5 3.1 4.5s3.1-2.4 3.1-4.5-.5-4.5-3.1-4.5-3.1 2.4-3.1 4.5m13.4 6.1h-2.6V53.4h5.2c2.1 0 4.3.7 4.3 3.2 0 1.6-1 2.7-2.6 3 2 .2 2 1.5 2.2 3.2.1.8.2 2.2.7 2.9h-2.9c-.2-1.1-.3-2.2-.5-3.3-.1-.7-.2-1.6-1.1-1.6H164m.1-2.1h2.2c1.2 0 1.8-.6 1.8-1.7s-.7-1.5-1.8-1.6h-2.2v3.3zm8.9 7V53.4h2.6v10.3h5.3v2m1.5-12.3h4.2c3.8 0 6.2 1.9 6.2 6.1 0 4.3-2.4 6.2-6.2 6.1h-4.2m2.6-1.9h1.4c3.1 0 3.6-2.1 3.6-4.1 0-2-.5-4.1-3.6-4.1H185v8.2zm14.4 2V53.4h4.6c2.2-.1 4.4.8 4.4 3.2 0 1.3-.9 2.3-2.2 2.7 1.5.3 2.7 1.4 2.7 3.2 0 2.4-3.1 3.3-5 3.2m.2-2c1.2 0 2.1-.2 2.1-1.6 0-1.4-.9-1.6-2.1-1.6H202v3.3h2.1zm0-5.3c1.1 0 1.7-.5 1.7-1.4 0-1-.6-1.4-1.7-1.4H202v2.9h2.1zm5.7 7.3l4.4-12.3h3.1l4.3 12.3H219l-.9-2.6h-4.9l-.9 2.6m5.2-4.6l-1.7-5.2-1.8 5.2h3.5zm12.9 4.6l-4.9-10.2v10.2H223V53.4h3.9l4.7 9.7h.1v-9.7h2.4v12.3m4.8-7h.1l4-5.3h3.1l-4.5 5.5 4.9 6.8h-3.3l-4.2-6.3h-.1v6.3h-2.6V53.4h2.6M49 65.4c5.3-.1 10.2-.8 14.7-2.3 1.1-.4 2.2-.8 3.2-1.2-1.2 3-3 5.5-5.4 7.4-4.6 3.4-10.1 5.8-16.1 6.7 1.5-2.7 2.7-6.3 3.6-10.6m-24.7 7.3c-.1-.1-.2-.2-.4-.2-2.1-1-2.9-5.6-1.8-12.7 4 1.8 8.3 3.2 12.8 4.2 3.4.7 6.9 1.2 10.2 1.4-1.6 7.2-3.8 10.9-5.2 10.9h-.3c-5.4-.1-10.6-1.3-15.3-3.6M5.1 49.9c-.3-1.2-.5-2.4-.6-3.7 1.2 1.8 2.8 3.5 4.6 5.2 2.7 2.5 6 4.8 9.6 6.7-.7 4.1-.9 7.8-.5 10.8-6.3-4.7-10.9-11.3-13.1-19m46.3-10c0-1.5 0-2.9-.1-4.4 4.6-.3 8.9-1.5 12.4-3.5 3.2 6.4 5 13.2 5 19.6 0 1.9-.2 3.6-.5 5.3-1.7 1-3.6 1.9-5.8 2.6-3.8 1.3-8.2 2-12.8 2.1 1.2-6.5 1.8-14.2 1.8-21.7M35.7 60.3c-4.6-1-9-2.5-12.9-4.3 1.3-5.8 3.7-12.9 7.5-20.7.6-1.1 1.1-2.2 1.7-3.3 2.7 1.2 5.6 2.2 8.6 2.8 2.3.5 4.6.8 6.9.8 0 1.4.1 2.8.1 4.3 0 8.8-.7 16-1.7 21.7-3.3-.1-6.7-.5-10.2-1.3M11.6 48.7c-3.2-2.9-5.3-6-6.4-9.1.9-3.4 2.6-6.9 5.1-10.2 2.4-3.1 5.3-6 8.7-8.4 1 1.8 2.3 3.5 4.1 5.1 1.7 1.5 3.6 3 5.7 4.2-.6 1.1-1.2 2.3-1.7 3.4-3.3 6.8-6 14-7.6 20.6-3-1.7-5.6-3.6-7.9-5.6m37.2-34.6c4.2 3.2 8.1 7.2 11.4 12 .6.9 1.2 1.8 1.7 2.7-3 1.7-6.7 2.7-10.8 3-.3-6.4-1.1-12.6-2.3-17.7m-7.3 17c-2.7-.6-5.3-1.4-7.6-2.4 3.5-6.1 7.3-11.4 11-15.3C46 18 47 24.2 47.4 31.9c-1.9-.1-3.9-.3-5.9-.8m-15.9-7.7c-1.5-1.4-2.7-2.9-3.5-4.4 3.5-2.1 7.3-3.8 11.5-5 2.4-.7 4.9-1.3 7.4-1.7-3.6 4-7.1 9.1-10.4 14.8-1.9-1.2-3.6-2.4-5-3.7m-8-11.9c-.1.2-.1.4-.1.6-.4 1.8-.3 3.5.1 5.3-4 2.8-7.5 6-10.3 9.7-.8 1.1-1.6 2.3-2.3 3.4 2-7.6 6.5-14.2 12.6-19m3.5 1.4c.4-1.9 1.6-3.7 3.4-5.1 4.3-1.3 9.4-1 14.7 1-2.2.4-4.5.9-6.7 1.6-4.1 1.2-8 2.9-11.5 5-.2-.9-.1-1.7.1-2.5M51.2 8c1.3-.8 2.5-1.4 3.4-1.6 1.9.7 3.7 1.7 5.5 2.9-2.8-.7-5.8-1.2-8.9-1.3M45 4c1.5.2 3.1.4 4.8.8-1 .6-2.1 1.3-3.2 2.1-.5-1.1-1.1-2.1-1.6-2.9m-4.1 1.5c-1.7-.6-3.3-1.1-5-1.5 1.3-.1 2.6-.2 4-.2.6 0 1.4.8 2.2 2.2-.3-.2-.7-.4-1.2-.5M0 40c0 3.8.5 7.5 1.5 11 .1.2.1.5.2.7 0 0 0 .1.1.1C6.8 68.1 22.1 80 40 80c8.3 0 16-2.5 22.4-6.9.1 0 .1-.1.2-.1.4-.3.7-.5 1.1-.8 7.4-5.4 12.8-13.3 15.1-22.5.1-.4.2-.9.3-1.3v-.3c.5-2.6.8-5.3.8-8.1 0-5.4-1.1-10.6-3.1-15.6-.4-.9-1.5-1.4-2.4-1-.9.4-1.4 1.5-1 2.4 1.9 4.5 2.8 9.2 2.8 14.1 0 3-.4 5.9-1.1 8.7-.5 1.8-1.5 3.4-2.8 4.9 0-.6.1-1.3.1-1.9 0-7.1-2-14.7-5.6-21.8 2.7-2.3 4.4-5.2 5-8.3.2-1-.5-2-1.5-2.2-1-.2-2 .5-2.2 1.5-.4 2.1-1.5 4-3.2 5.7-.5-.9-1.1-1.8-1.7-2.6-3.2-4.7-7.1-8.9-11.3-12.2 5.6.4 10.8 1.7 15 4.1.7.4 1.5.4 2.1-.1.8-.7.9-1.8.2-2.6C63.2 4.6 52.8 0 40 0 17.9 0 0 17.9 0 40"/></svg>