<svg id="brand-symbol" xmlns="http://www.w3.org/2000/svg" width="512" height="512" viewBox="0 0 512 512"><g shape-rendering="optimizeQuality"><path fill="#0DA081" d="M256 138.9c20-7.1 41.6-10.9 64-10.9 48.9 0 93.5 18.3 127.4 48.3C439.4 77.6 356.8 0 256 0S72.6 77.6 64.6 176.3c33.9-30 78.5-48.3 127.4-48.3 22.4 0 44 3.9 64 10.9z"/><path fill="#97C42D" d="M128.6 335.7C89 300.5 64 249.2 64 192c0-5.3.2-10.5.6-15.7C25 211.5 0 262.8 0 320c0 106 86 192 192 192 22.4 0 44-3.9 64-10.9-69.9-24.7-121.2-88.7-127.4-165.4z"/><path fill="#068617" d="M128.6 335.7c-.4-5.2-.6-10.4-.6-15.7 0-83.6 53.4-154.7 128-181.1-20-7.1-41.6-10.9-64-10.9-48.9 0-93.5 18.3-127.4 48.3-.4 5.2-.6 10.4-.6 15.7 0 57.2 25 108.5 64.6 143.7z"/><path fill="#E0DA10" d="M447.4 176.3c.4 5.2.6 10.4.6 15.7 0 57.2-25 108.5-64.6 143.7-6.2 76.7-57.5 140.7-127.4 165.4 20 7.1 41.6 10.9 64 10.9 106 0 192-86 192-192 0-57.2-25-108.5-64.6-143.7z"/><path fill="#079406" d="M256 138.9c74.6 26.4 128 97.5 128 181.1 0 5.3-.2 10.5-.6 15.7C423 300.5 448 249.2 448 192c0-5.3-.2-10.5-.6-15.7-33.9-30-78.5-48.3-127.4-48.3-22.4 0-44 3.9-64 10.9z"/><path fill="#90B102" d="M383.4 335.7c-33.9 30-78.5 48.3-127.4 48.3s-93.5-18.3-127.4-48.3c6.2 76.7 57.5 140.7 127.4 165.4 69.9-24.7 121.2-88.7 127.4-165.4z"/><path fill="#057401" d="M256 138.9c-74.6 26.4-128 97.5-128 181.1 0 5.3.2 10.5.6 15.7 33.9 30 78.5 48.3 127.4 48.3s93.5-18.3 127.4-48.3c.4-5.2.6-10.4.6-15.7 0-83.6-53.4-154.7-128-181.1z"/></g></svg>