<svg xmlns="http://www.w3.org/2000/svg" width="1920" height="960" viewBox="0 0 1920 960"><g fill="#077c94"><rect x="208" y="240" width="192" height="192" rx="8" ry="8" transform="rotate(-90 304 336)" opacity=".16"/><rect x="416" y="464" width="192" height="192" rx="8" ry="8" transform="rotate(-90 512 560)" opacity=".64"/><rect x="912" y="560" width="192" height="192" rx="8" ry="8" transform="rotate(-90 1008 656)" opacity=".64"/><rect x="304" y="464" width="96" height="96" rx="8" ry="8" transform="rotate(-90 352 512)" opacity=".32"/><rect x="1024" y="240" width="192" height="192" rx="8" ry="8" transform="rotate(-90 1120 336)" opacity=".64"/><rect x="1248" y="656" width="192" height="192" rx="8" ry="8" transform="rotate(-90 1344 752)" opacity=".32"/><rect x="1248" y="32" width="192" height="192" rx="8" ry="8" transform="rotate(-90 1344 128)" opacity=".8"/><rect x="1664" y="432" width="192" height="192" rx="8" ry="8" transform="rotate(-90 1760 528)" opacity=".32"/><rect x="1456" y="128" width="96" height="96" rx="8" ry="8" transform="rotate(-90 1504 176)" opacity=".64"/><rect x="1664" y="320" width="96" height="96" rx="8" ry="8" transform="rotate(-90 1712 368)" opacity=".64"/><rect x="1120" y="656" width="96" height="96" rx="8" ry="8" transform="rotate(-90 1168 704)" opacity=".64"/><rect x="1456" y="864" width="96" height="96" rx="8" ry="8" transform="rotate(-90 1504 912)" opacity=".16"/><rect x="1248" y="240" width="384" height="384" rx="8" ry="8" transform="rotate(-90 1440 432)" opacity=".64"/><rect x="912" y="336" width="96" height="96" rx="8" ry="8" transform="rotate(-90 960 384)" opacity=".16"/><rect x="416" y="672" width="96" height="96" rx="8" ry="8" transform="rotate(-90 464 720)" opacity=".32"/><rect x="416" y="48" width="384" height="384" rx="8" ry="8" transform="rotate(-90 608 240)" opacity=".32"/></g><g fill="#97c42d"><rect x="1488" y="68" width="96" height="96" rx="8" ry="8" opacity=".16"/><rect x="1376" y="172" width="96" height="96" rx="8" ry="8" opacity=".64"/><rect x="1696" y="268" width="96" height="96" rx="8" ry="8" opacity=".64"/><rect x="1744" y="212" width="48" height="48" rx="8" ry="8" opacity=".32"/><rect x="1488" y="476" width="96" height="96" rx="8" ry="8" opacity=".32"/><rect x="1280" y="588" width="96" height="96" rx="8" ry="8" opacity=".32"/><rect x="1696" y="620" width="96" height="96" rx="8" ry="8" opacity=".32"/><rect x="1592" y="588" width="96" height="96" rx="8" ry="8" opacity=".64"/><rect x="1392" y="796" width="96" height="96" rx="8" ry="8" opacity=".32"/><rect x="1592" y="692" width="48" height="48" rx="8" ry="8" opacity=".64"/><rect x="1496" y="796" width="48" height="48" rx="8" ry="8" opacity=".64"/><rect x="1328" y="524" width="48" height="48" rx="8" ry="8" opacity=".64"/><rect x="1224" y="692" width="48" height="48" rx="8" ry="8" opacity=".16"/><rect x="1392" y="588" width="192" height="192" rx="8" ry="8" opacity=".16"/><rect x="1696" y="772" width="48" height="48" rx="8" ry="8" opacity=".16"/><rect x="1488" y="420" width="48" height="48" rx="8" ry="8" opacity=".16"/><rect x="1320" y="172" width="48" height="48" rx="8" ry="8" opacity=".32"/><rect x="1488" y="172" width="192" height="192" rx="8" ry="8" opacity=".32"/><rect x="1696" y="380" width="192" height="192" rx="8" ry="8" opacity=".16"/></g></svg>