<svg xmlns="http://www.w3.org/2000/svg" width="1920" height="640" viewBox="0 0 1920 640"><title>hero-illu-02a</title><path fill="#077c94" opacity=".16" d="M256 640l544-188 520-72 240-118 280-46 80 32v392H256z"/><path fill="#077c94" opacity=".32" d="M894 640l70-160 140-142 320 26 320 116 176 36v124H894z"/><path fill="#97c42d" opacity=".16" d="M704 640l136-76 350-92 274 88 186-30 144-102 126 47.11V640H704z"/><path fill="#97c42d" opacity=".16" d="M1920 556l-160-16-298 100h458v-84z"/><path fill="#077c94" opacity=".16" d="M0 64l220 80 400-64L768 0H0v64z"/></svg>