<?xml version="1.0" encoding="utf-8"?>
<svg version="1.1" id="brand-symbol" xmlns="http://www.w3.org/2000/svg" xmlns:xlink="http://www.w3.org/1999/xlink" x="0px" y="0px"
	 width="512px" height="512px" viewBox="0 0 512 512" enable-background="new 0 0 512 512" xml:space="preserve">
	<g>
		<path shape-rendering="optimizeQuality" fill="#0DA081" d="M256,138.9c20-7.1,41.6-10.9,64-10.9c48.9,0,93.5,18.3,127.4,48.3C439.4,77.6,356.8,0,256,0
			S72.6,77.6,64.6,176.3C98.5,146.3,143.1,128,192,128C214.4,128,236,131.9,256,138.9z"/>
		<path shape-rendering="optimizeQuality" fill="#97C42D" d="M128.6,335.7C89,300.5,64,249.2,64,192c0-5.3,0.2-10.5,0.6-15.7C25,211.5,0,262.8,0,320
			c0,106,86,192,192,192c22.4,0,44-3.9,64-10.9C186.1,476.4,134.8,412.4,128.6,335.7z"/>
		<path shape-rendering="optimizeQuality" fill="#068617" d="M128.6,335.7c-0.4-5.2-0.6-10.4-0.6-15.7c0-83.6,53.4-154.7,128-181.1c-20-7.1-41.6-10.9-64-10.9
			c-48.9,0-93.5,18.3-127.4,48.3c-0.4,5.2-0.6,10.4-0.6,15.7C64,249.2,89,300.5,128.6,335.7z"/>
		<path shape-rendering="optimizeQuality" fill="#E0DA10" d="M447.4,176.3c0.4,5.2,0.6,10.4,0.6,15.7c0,57.2-25,108.5-64.6,143.7c-6.2,76.7-57.5,140.7-127.4,165.4
			c20,7.1,41.6,10.9,64,10.9c106,0,192-86,192-192C512,262.8,487,211.5,447.4,176.3z"/>
		<path shape-rendering="optimizeQuality" fill="#079406" d="M256,138.9c74.6,26.4,128,97.5,128,181.1c0,5.3-0.2,10.5-0.6,15.7C423,300.5,448,249.2,448,192
			c0-5.3-0.2-10.5-0.6-15.7C413.5,146.3,368.9,128,320,128C297.6,128,276,131.9,256,138.9z"/>
		<path shape-rendering="optimizeQuality" fill="#90B102" d="M383.4,335.7C349.5,365.7,304.9,384,256,384s-93.5-18.3-127.4-48.3c6.2,76.7,57.5,140.7,127.4,165.4
			C325.9,476.4,377.2,412.4,383.4,335.7z"/>
		<path shape-rendering="optimizeQuality" fill="#057401" d="M256,138.9c-74.6,26.4-128,97.5-128,181.1c0,5.3,0.2,10.5,0.6,15.7C162.5,365.7,207.1,384,256,384
			s93.5-18.3,127.4-48.3c0.4-5.2,0.6-10.4,0.6-15.7C384,236.4,330.6,165.3,256,138.9z"/>
	</g>
</svg>