<svg xmlns="http://www.w3.org/2000/svg" width="1920" height="640" viewBox="0 0 1920 640">
  <title>hero-illu-02a</title>
  <polygon points="256 640 800 452 1320 380 1560 262 1840 216 1920 248 1920 640 256 640" fill="#077c94" opacity="0.16"/>
  <polygon points="894 640 964 480 1104 338 1424 364 1744 480 1920 516 1920 640 894 640" fill="#077c94" opacity="0.32"/>
  <polygon points="704 640 840 564 1190 472 1464 560 1650 530 1794 428 1920 475.11 1920 640 704 640" fill="#97c42d" opacity="0.16"/>
  <polygon points="1920 556 1760 540 1462 640 1920 640 1920 556" fill="#97c42d" opacity="0.16"/>
  <polygon points="0 64 220 144 620 80 768 0 0 0 0 64" fill="#077c94" opacity="0.16"/>
</svg>
